M48
; DRILL file KiCad 10.0.5-unknown-202607221313~667fa36054~ubuntu25.10.1 date 2026-09-16T02:00:17
; FORMAT={-:-/ absolute / metric / decimal}
; #@! TF.CreationDate,2026-09-16T02:00:17+00:00
; #@! TF.GenerationSoftware,Kicad,Pcbnew,10.0.5-unknown-202607221313~667fa36054~ubuntu25.10.1
; #@! TF.FileFunction,MixedPlating,1,4
FMAT,2
METRIC
; #@! TA.AperFunction,Plated,PTH,ViaDrill
T1C0.300
; #@! TA.AperFunction,Plated,PTH,ComponentDrill
T2C0.500
; #@! TA.AperFunction,Plated,PTH,ComponentDrill
T3C0.800
; #@! TA.AperFunction,Plated,PTH,ComponentDrill
T4C0.890
; #@! TA.AperFunction,Plated,PTH,ComponentDrill
T5C1.000
; #@! TA.AperFunction,Plated,PTH,ComponentDrill
T6C1.100
; #@! TA.AperFunction,Plated,PTH,ComponentDrill
T7C1.150
; #@! TA.AperFunction,Plated,PTH,ComponentDrill
T8C1.570
; #@! TA.AperFunction,Plated,PTH,ComponentDrill
T9C3.200
; #@! TA.AperFunction,NonPlated,NPTH,ComponentDrill
T10C0.991
; #@! TA.AperFunction,NonPlated,NPTH,ComponentDrill
T11C2.375
; #@! TA.AperFunction,NonPlated,NPTH,ComponentDrill
T12C3.250
%
G90
G05
T1
X149.25Y-115.5
X151.5Y-116.875
X151.75Y-113.25
X163.211Y-67.06
X181.75Y-95.0
X185.25Y-92.5
X192.25Y-101.0
X193.259Y-100.197
X195.75Y-96.5
X196.675Y-90.575
X197.15Y-97.626
X197.15Y-98.5
X197.15Y-99.5
X197.25Y-115.25
X197.75Y-101.5
X198.5Y-101.0
X198.5Y-102.0
X198.697Y-105.769
X199.25Y-102.5
X199.25Y-110.5
X199.45Y-105.5
X199.5Y-112.0
X199.75Y-107.0
X200.0Y-99.65
X200.25Y-105.5
X200.6Y-102.0
X200.75Y-100.25
X200.9Y-110.5
X200.9Y-112.0
X201.1Y-93.299
X201.674Y-92.674
X202.65Y-136.132
X202.75Y-99.25
X202.75Y-100.75
X202.9Y-102.25
X202.955Y-98.012
X203.5Y-105.75
X205.1Y-134.132
X205.5Y-99.5
X205.5Y-100.3
X206.25Y-100.75
X206.25Y-102.0
X206.5Y-96.85
X207.099Y-98.201
X209.0Y-80.59
X210.2Y-85.3
X215.0Y-109.0
X215.0Y-110.25
X216.0Y-100.0
X216.4Y-75.0
X217.085Y-74.488
X217.1Y-65.0
X217.7Y-65.6
X217.7Y-75.0
X218.385Y-74.488
X218.4Y-65.0
X218.4Y-110.875
X218.4Y-112.2
X218.4Y-113.5
X218.4Y-114.8
X219.0Y-65.6
X219.0Y-75.0
X219.0Y-97.25
X219.0Y-111.525
X219.0Y-112.8
X219.0Y-114.1
X219.0Y-115.4
X219.685Y-74.488
X219.734Y-65.034
X220.3Y-65.6
X220.3Y-75.0
X221.0Y-65.0
X221.0Y-74.5
X221.0Y-110.0
X221.6Y-65.6
X222.25Y-68.5
X223.5Y-68.5
X224.085Y-109.991
X224.5Y-73.0
X225.0Y-116.0
X229.0Y-109.5
X230.0Y-109.5
X231.0Y-109.5
X234.75Y-35.25
X236.25Y-35.25
X237.405Y-33.0
X237.5Y-60.0
X238.0Y-36.0
X239.294Y-78.506
X239.344Y-75.556
X239.75Y-36.0
X239.9Y-83.5
X239.994Y-93.794
X240.0Y-43.0
X240.0Y-46.0
X240.0Y-49.0
X240.0Y-52.0
X240.0Y-55.0
X240.0Y-80.5
X240.0Y-86.5
X240.0Y-92.5
X240.0Y-115.0
X240.0Y-118.0
X240.0Y-121.0
X240.0Y-124.0
X240.0Y-127.0
X240.044Y-87.744
X240.2Y-33.575
X240.75Y-130.75
X241.3Y-30.6
X243.25Y-35.5
X247.0Y-47.5
X247.0Y-50.5
X247.0Y-53.155
X247.0Y-116.845
X247.0Y-119.5
X247.0Y-122.5
X247.0Y-125.155
X248.0Y-64.75
X248.5Y-129.5
X251.8Y-44.845
X253.75Y-134.75
X254.0Y-58.5
T3
X173.384Y-95.75
X176.884Y-95.75
T4
X256.625Y-82.464
X256.625Y-84.496
X256.625Y-86.528
X256.625Y-88.56
X258.405Y-81.448
X258.405Y-83.48
X258.405Y-85.512
X258.405Y-87.544
T5
X122.0Y-41.66
X122.0Y-44.2
X122.0Y-46.74
X122.0Y-49.28
X122.0Y-51.82
X122.0Y-54.36
X122.0Y-56.9
X122.0Y-59.44
X122.0Y-61.98
X122.0Y-64.52
X122.0Y-67.06
X122.0Y-69.6
X122.0Y-72.14
X122.0Y-74.68
X216.0Y-54.36
X216.0Y-56.9
X216.0Y-59.44
X216.0Y-61.98
X256.08Y-43.46
X256.08Y-46.23
X256.08Y-49.0
X256.08Y-51.77
X256.08Y-54.54
X256.325Y-115.46
X256.325Y-118.23
X256.325Y-121.0
X256.325Y-123.77
X256.325Y-126.54
X258.92Y-44.845
X258.92Y-47.615
X258.92Y-50.385
X258.92Y-53.155
X259.165Y-116.845
X259.165Y-119.615
X259.165Y-122.385
X259.165Y-125.155
T6
X225.0Y-88.5
X225.0Y-95.0
X229.5Y-88.5
X229.5Y-95.0
T7
X222.0Y-134.5
X222.0Y-139.5
X227.0Y-134.5
X227.0Y-139.5
T8
X257.515Y-76.87
X257.515Y-93.13
T9
X123.0Y-33.42
X123.0Y-82.92
X215.0Y-33.42
X215.0Y-82.92
X257.5Y-36.5
X257.5Y-61.5
X257.745Y-108.5
X257.745Y-133.5
T10
X213.984Y-93.71
X215.0Y-98.79
X216.016Y-93.71
T11
X212.46Y-95.615
X212.46Y-98.79
X217.54Y-95.615
X217.54Y-98.79
T12
X254.085Y-78.65
X254.085Y-91.35
T2
G00X236.65Y-26.09
M15
G01X236.65Y-26.79
M16
G05
G00X243.25Y-26.09
M15
G01X243.25Y-26.79
M16
G05
M30
