G04 #@! TF.GenerationSoftware,KiCad,Pcbnew,10.0.5-unknown-202607221313~667fa36054~ubuntu25.10.1*
G04 #@! TF.CreationDate,2026-09-15T17:52:32+00:00*
G04 #@! TF.ProjectId,tester,74657374-6572-42e6-9b69-6361645f7063,v0.1*
G04 #@! TF.SameCoordinates,Original*
G04 #@! TF.FileFunction,Soldermask,Bot*
G04 #@! TF.FilePolarity,Negative*
%FSLAX46Y46*%
G04 Gerber Fmt 4.6, Leading zero omitted, Abs format (unit mm)*
G04 Created by KiCad (PCBNEW 10.0.5-unknown-202607221313~667fa36054~ubuntu25.10.1) date 2026-09-15 17:52:32*
%MOMM*%
%LPD*%
G01*
G04 APERTURE LIST*
%ADD10C,5.500000*%
%ADD11R,1.500000X3.000000*%
%ADD12O,1.500000X3.000000*%
%ADD13C,3.250000*%
%ADD14R,1.500000X1.500000*%
%ADD15C,1.500000*%
%ADD16C,2.300000*%
%ADD17C,1.600000*%
%ADD18R,1.700000X1.700000*%
%ADD19C,1.700000*%
%ADD20C,2.000000*%
%ADD21R,1.600000X1.600000*%
%ADD22C,4.000000*%
%ADD23O,0.900000X1.600000*%
%ADD24C,2.374900*%
%ADD25C,0.990600*%
G04 APERTURE END LIST*
D10*
X123000000Y-82920000D03*
G36*
G01*
X221250000Y-135749999D02*
X221250000Y-133250001D01*
G75*
G02*
X221500001Y-133000000I250001J0D01*
G01*
X222499999Y-133000000D01*
G75*
G02*
X222750000Y-133250001I0J-250001D01*
G01*
X222750000Y-135749999D01*
G75*
G02*
X222499999Y-136000000I-250001J0D01*
G01*
X221500001Y-136000000D01*
G75*
G02*
X221250000Y-135749999I0J250001D01*
G01*
G37*
D11*
X222000000Y-139500000D03*
D12*
X227000000Y-134500000D03*
X227000000Y-139500000D03*
D13*
X254085000Y-91350000D03*
X254085000Y-78650000D03*
D14*
X256625000Y-88560000D03*
D15*
X258405000Y-87544000D03*
X256625000Y-86528000D03*
X258405000Y-85512000D03*
X256625000Y-84496000D03*
X258405000Y-83480000D03*
X256625000Y-82464000D03*
X258405000Y-81448000D03*
D16*
X257515000Y-93130000D03*
X257515000Y-76870000D03*
D10*
X123000000Y-33420000D03*
G36*
G01*
X177684287Y-95200000D02*
X177684287Y-96300000D01*
G75*
G02*
X177434287Y-96550000I-250000J0D01*
G01*
X176334287Y-96550000D01*
G75*
G02*
X176084287Y-96300000I0J250000D01*
G01*
X176084287Y-95200000D01*
G75*
G02*
X176334287Y-94950000I250000J0D01*
G01*
X177434287Y-94950000D01*
G75*
G02*
X177684287Y-95200000I0J-250000D01*
G01*
G37*
D17*
X173384287Y-95750000D03*
D18*
X216000000Y-54360000D03*
D19*
X216000000Y-56900000D03*
X216000000Y-59440000D03*
X216000000Y-61980000D03*
D18*
X122000000Y-41660000D03*
D19*
X122000000Y-44200000D03*
X122000000Y-46740000D03*
X122000000Y-49280000D03*
X122000000Y-51820000D03*
X122000000Y-54360000D03*
X122000000Y-56900000D03*
X122000000Y-59440000D03*
X122000000Y-61980000D03*
X122000000Y-64520000D03*
X122000000Y-67060000D03*
X122000000Y-69600000D03*
X122000000Y-72140000D03*
X122000000Y-74680000D03*
D10*
X215000000Y-33420000D03*
D20*
X225000000Y-95000000D03*
X225000000Y-88500000D03*
X229500000Y-95000000D03*
X229500000Y-88500000D03*
D21*
X256324669Y-115460000D03*
D17*
X256324669Y-118230000D03*
X256324669Y-121000000D03*
X256324669Y-123770000D03*
X256324669Y-126540000D03*
X259164669Y-116845000D03*
X259164669Y-119615000D03*
X259164669Y-122385000D03*
X259164669Y-125155000D03*
D22*
X257744669Y-133500000D03*
X257744669Y-108500000D03*
D23*
X243250000Y-26440000D03*
X236650000Y-26440000D03*
D10*
X215000000Y-82920000D03*
D21*
X256080000Y-54540000D03*
D17*
X256080000Y-51770000D03*
X256080000Y-49000000D03*
X256080000Y-46230000D03*
X256080000Y-43460000D03*
X258920000Y-53155000D03*
X258920000Y-50385000D03*
X258920000Y-47615000D03*
X258920000Y-44845000D03*
D22*
X257500000Y-61500000D03*
X257500000Y-36500000D03*
D24*
X212460000Y-98790000D03*
D25*
X215000000Y-98790000D03*
D24*
X217540000Y-98790000D03*
X212460000Y-95615000D03*
X217540000Y-95615000D03*
D25*
X213984000Y-93710000D03*
X216016000Y-93710000D03*
M02*
