M48
INCH,TZ
T1C0.0118
T2C0.0197
T3C0.0315
T4C0.0350
T5C0.0394
T6C0.0433
T7C0.0453
T8C0.0618
T9C0.1260
%
G90
G05
T1
X58760Y-45472
X59646Y-46014
X59744Y-44587
X64256Y-26402
X71555Y-37402
X72933Y-36417
X75689Y-39764
X76086Y-39448
X77067Y-37992
X77431Y-35659
X77618Y-38436
X77618Y-38780
X77618Y-39173
X77657Y-45374
X77854Y-39961
X78150Y-39764
X78150Y-40157
X78227Y-41641
X78445Y-40354
X78445Y-43504
X78524Y-41535
X78543Y-44094
X78642Y-42126
X78740Y-39232
X78839Y-41535
X78976Y-40157
X79035Y-39469
X79094Y-43504
X79094Y-44094
X79173Y-36732
X79399Y-36486
X79783Y-53595
X79823Y-39075
X79823Y-39665
X79882Y-40256
X79903Y-38587
X80118Y-41634
X80748Y-52808
X80906Y-39173
X80906Y-39488
X81201Y-39665
X81201Y-40157
X81299Y-38130
X81535Y-38662
X82283Y-31728
X82756Y-33583
X84646Y-42913
X84646Y-43406
X85039Y-39370
X85197Y-29528
X85467Y-29326
X85472Y-25591
X85709Y-25827
X85709Y-29528
X85979Y-29326
X85984Y-25591
X85984Y-43652
X85984Y-44173
X85984Y-44685
X85984Y-45197
X86220Y-25827
X86220Y-29528
X86220Y-38287
X86220Y-43907
X86220Y-44409
X86220Y-44921
X86220Y-45433
X86490Y-29326
X86510Y-25604
X86732Y-25827
X86732Y-29528
X87008Y-25591
X87008Y-29331
X87008Y-43307
X87244Y-25827
X87500Y-26969
X87992Y-26969
X88222Y-43303
X88386Y-28740
X88583Y-45669
X90157Y-43110
X90551Y-43110
X90945Y-43110
X92421Y-13878
X93012Y-13878
X93467Y-12992
X93701Y-14173
X94210Y-30908
X94230Y-29747
X94390Y-14173
X94449Y-32874
X94486Y-36927
X94488Y-16929
X94488Y-18110
X94488Y-19291
X94488Y-20472
X94488Y-21654
X94488Y-31693
X94488Y-34055
X94488Y-36417
X94488Y-45276
X94488Y-46457
X94488Y-47638
X94488Y-48819
X94488Y-50000
X94505Y-34545
X94567Y-13219
X95000Y-12047
X95768Y-13976
X97244Y-18701
X97244Y-19882
X97244Y-20927
X97244Y-46002
X97244Y-47047
X97244Y-48228
X97244Y-49274
X99134Y-17656
T3
X68262Y-37697
X69639Y-37697
T4
X101033Y-32466
X101033Y-33266
X101033Y-34066
X101033Y-34866
X101734Y-32066
X101734Y-32866
X101734Y-33666
X101734Y-34466
T5
X48031Y-16402
X48031Y-17402
X48031Y-18402
X48031Y-19402
X48031Y-20402
X48031Y-21402
X48031Y-22402
X48031Y-23402
X48031Y-24402
X48031Y-25402
X48031Y-26402
X48031Y-27402
X48031Y-28402
X48031Y-29402
X85039Y-21402
X85039Y-22402
X85039Y-23402
X85039Y-24402
X100819Y-17110
X100819Y-18201
X100819Y-19291
X100819Y-20382
X100819Y-21472
X100915Y-45457
X100915Y-46547
X100915Y-47638
X100915Y-48728
X100915Y-49819
X101937Y-17656
X101937Y-18746
X101937Y-19837
X101937Y-20927
X102033Y-46002
X102033Y-47093
X102033Y-48183
X102033Y-49274
T6
X88583Y-34843
X88583Y-37402
X90354Y-34843
X90354Y-37402
T7
X87402Y-52953
X87402Y-54921
X89370Y-52953
X89370Y-54921
T8
X101384Y-30264
X101384Y-36665
T9
X48425Y-13157
X48425Y-32646
X84646Y-13157
X84646Y-32646
X101378Y-14370
X101378Y-24213
X101474Y-42717
X101474Y-52559
T2
G00X93169Y-10272
M15
G01X93169Y-10547
M16
G05
G00X95768Y-10272
M15
G01X95768Y-10547
M16
G05
M30
