G04 #@! TF.GenerationSoftware,KiCad,Pcbnew,5.1.9+dfsg1-1~bpo10+1*
G04 #@! TF.CreationDate,2021-11-01T15:58:22+00:00*
G04 #@! TF.ProjectId,rack-ser-adapter,7261636b-2d73-4657-922d-616461707465,rev?*
G04 #@! TF.SameCoordinates,Original*
G04 #@! TF.FileFunction,Copper,L2,Bot*
G04 #@! TF.FilePolarity,Positive*
%FSLAX46Y46*%
G04 Gerber Fmt 4.6, Leading zero omitted, Abs format (unit mm)*
G04 Created by KiCad (PCBNEW 5.1.9+dfsg1-1~bpo10+1) date 2021-11-01 15:58:22*
%MOMM*%
%LPD*%
G01*
G04 APERTURE LIST*
G04 #@! TA.AperFunction,ComponentPad*
%ADD10R,1.600000X1.600000*%
G04 #@! TD*
G04 #@! TA.AperFunction,ComponentPad*
%ADD11C,1.600000*%
G04 #@! TD*
G04 #@! TA.AperFunction,ComponentPad*
%ADD12C,4.000000*%
G04 #@! TD*
G04 #@! TA.AperFunction,ComponentPad*
%ADD13C,3.000000*%
G04 #@! TD*
G04 #@! TA.AperFunction,ComponentPad*
%ADD14C,1.500000*%
G04 #@! TD*
G04 #@! TA.AperFunction,ComponentPad*
%ADD15R,1.500000X1.500000*%
G04 #@! TD*
G04 #@! TA.AperFunction,ComponentPad*
%ADD16C,5.700000*%
G04 #@! TD*
G04 #@! TA.AperFunction,ViaPad*
%ADD17C,0.600000*%
G04 #@! TD*
G04 #@! TA.AperFunction,Conductor*
%ADD18C,0.250000*%
G04 #@! TD*
G04 #@! TA.AperFunction,Conductor*
%ADD19C,0.254000*%
G04 #@! TD*
G04 #@! TA.AperFunction,Conductor*
%ADD20C,0.100000*%
G04 #@! TD*
G04 APERTURE END LIST*
D10*
X105000000Y-129000000D03*
D11*
X105000000Y-126230000D03*
X105000000Y-123460000D03*
X105000000Y-120690000D03*
X105000000Y-117920000D03*
X102160000Y-127615000D03*
X102160000Y-124845000D03*
X102160000Y-122075000D03*
X102160000Y-119305000D03*
D12*
X104700000Y-110960000D03*
X104700000Y-135960000D03*
D13*
X129400000Y-79785000D03*
D14*
X120000000Y-89460000D03*
X120000000Y-86920000D03*
X117460000Y-88190000D03*
X120000000Y-84380000D03*
D15*
X120000000Y-92000000D03*
D14*
X117460000Y-90730000D03*
D13*
X129400000Y-95325000D03*
D14*
X117460000Y-83110000D03*
X117460000Y-85650000D03*
D16*
X112000000Y-75000000D03*
X112000000Y-100000000D03*
D10*
X105000000Y-82000000D03*
D11*
X105000000Y-84770000D03*
X105000000Y-87540000D03*
X105000000Y-90310000D03*
X105000000Y-93080000D03*
X102160000Y-83385000D03*
X102160000Y-86155000D03*
X102160000Y-88925000D03*
X102160000Y-91695000D03*
D12*
X104700000Y-75040000D03*
X104700000Y-100040000D03*
D16*
X112000000Y-111000000D03*
X112000000Y-136000000D03*
D13*
X129400000Y-115785000D03*
D14*
X120000000Y-125460000D03*
X120000000Y-122920000D03*
X117460000Y-124190000D03*
X120000000Y-120380000D03*
D15*
X120000000Y-128000000D03*
D14*
X117460000Y-126730000D03*
D13*
X129400000Y-131325000D03*
D14*
X117460000Y-119110000D03*
X117460000Y-121650000D03*
D17*
X112000000Y-84000000D03*
X114000000Y-84000000D03*
X108000000Y-84000000D03*
X109000000Y-85000000D03*
X110800000Y-120500000D03*
X114400000Y-120500000D03*
X120000000Y-117600000D03*
X112600000Y-117600000D03*
D18*
X116505408Y-90730000D02*
X117460000Y-90730000D01*
X107775408Y-82000000D02*
X116505408Y-90730000D01*
X105000000Y-82000000D02*
X107775408Y-82000000D01*
X117138998Y-92000000D02*
X120000000Y-92000000D01*
X111553997Y-86414999D02*
X117138998Y-92000000D01*
X104058629Y-86414999D02*
X111553997Y-86414999D01*
X102160000Y-84516370D02*
X104058629Y-86414999D01*
X102160000Y-83385000D02*
X102160000Y-84516370D01*
X113018713Y-126091287D02*
X117460000Y-121650000D01*
X112880000Y-126230000D02*
X113018713Y-126091287D01*
X111430000Y-126230000D02*
X112880000Y-126230000D01*
X111374369Y-126236268D02*
X111430000Y-126230000D01*
X111321529Y-126254757D02*
X111374369Y-126236268D01*
X111274127Y-126284542D02*
X111321529Y-126254757D01*
X111234542Y-126324127D02*
X111274127Y-126284542D01*
X111204757Y-126371529D02*
X111234542Y-126324127D01*
X111186268Y-126424369D02*
X111204757Y-126371529D01*
X111180000Y-126480000D02*
X111186268Y-126424369D01*
X111180000Y-126569245D02*
X111180000Y-126480000D01*
X111173731Y-126624875D02*
X111180000Y-126569245D01*
X111155242Y-126677715D02*
X111173731Y-126624875D01*
X111125457Y-126725117D02*
X111155242Y-126677715D01*
X111085872Y-126764702D02*
X111125457Y-126725117D01*
X111038470Y-126794487D02*
X111085872Y-126764702D01*
X110985630Y-126812976D02*
X111038470Y-126794487D01*
X110930000Y-126819245D02*
X110985630Y-126812976D01*
X110874369Y-126812976D02*
X110930000Y-126819245D01*
X110821529Y-126794487D02*
X110874369Y-126812976D01*
X110774127Y-126764702D02*
X110821529Y-126794487D01*
X110734542Y-126725117D02*
X110774127Y-126764702D01*
X110704757Y-126677715D02*
X110734542Y-126725117D01*
X110686268Y-126624875D02*
X110704757Y-126677715D01*
X110680000Y-126569245D02*
X110686268Y-126624875D01*
X110680000Y-125540755D02*
X110680000Y-126569245D01*
X110673731Y-125485125D02*
X110680000Y-125540755D01*
X110655242Y-125432285D02*
X110673731Y-125485125D01*
X110625457Y-125384883D02*
X110655242Y-125432285D01*
X110585872Y-125345298D02*
X110625457Y-125384883D01*
X110538470Y-125315513D02*
X110585872Y-125345298D01*
X110485630Y-125297024D02*
X110538470Y-125315513D01*
X110430000Y-125290755D02*
X110485630Y-125297024D01*
X110374369Y-125297024D02*
X110430000Y-125290755D01*
X110321529Y-125315513D02*
X110374369Y-125297024D01*
X109234542Y-125384883D02*
X109274127Y-125345298D01*
X108704757Y-126677715D02*
X108734542Y-126725117D01*
X109173731Y-126624875D02*
X109180000Y-126569245D01*
X109155242Y-126677715D02*
X109173731Y-126624875D01*
X109125457Y-126725117D02*
X109155242Y-126677715D01*
X109085872Y-126764702D02*
X109125457Y-126725117D01*
X109038470Y-126794487D02*
X109085872Y-126764702D01*
X108985630Y-126812976D02*
X109038470Y-126794487D01*
X108930000Y-126819245D02*
X108985630Y-126812976D01*
X108874369Y-126812976D02*
X108930000Y-126819245D01*
X108821529Y-126794487D02*
X108874369Y-126812976D01*
X109180000Y-125540755D02*
X109186268Y-125485125D01*
X105000000Y-126230000D02*
X108430000Y-126230000D01*
X109186268Y-125485125D02*
X109204757Y-125432285D01*
X108625457Y-126324127D02*
X108655242Y-126371529D01*
X109874369Y-126812976D02*
X109930000Y-126819245D01*
X108430000Y-126230000D02*
X108485630Y-126236268D01*
X108485630Y-126236268D02*
X108538470Y-126254757D01*
X108538470Y-126254757D02*
X108585872Y-126284542D01*
X108585872Y-126284542D02*
X108625457Y-126324127D01*
X109274127Y-125345298D02*
X109321529Y-125315513D01*
X108680000Y-126569245D02*
X108686268Y-126624875D01*
X109585872Y-125345298D02*
X109625457Y-125384883D01*
X109204757Y-125432285D02*
X109234542Y-125384883D01*
X108734542Y-126725117D02*
X108774127Y-126764702D01*
X109180000Y-126569245D02*
X109180000Y-125540755D01*
X108655242Y-126371529D02*
X108673731Y-126424369D01*
X108673731Y-126424369D02*
X108680000Y-126480000D01*
X108680000Y-126480000D02*
X108680000Y-126569245D01*
X110038470Y-126794487D02*
X110085872Y-126764702D01*
X108774127Y-126764702D02*
X108821529Y-126794487D01*
X108686268Y-126624875D02*
X108704757Y-126677715D01*
X109321529Y-125315513D02*
X109374369Y-125297024D01*
X109374369Y-125297024D02*
X109430000Y-125290755D01*
X109430000Y-125290755D02*
X109485630Y-125297024D01*
X109485630Y-125297024D02*
X109538470Y-125315513D01*
X109538470Y-125315513D02*
X109585872Y-125345298D01*
X109625457Y-125384883D02*
X109655242Y-125432285D01*
X109655242Y-125432285D02*
X109673731Y-125485125D01*
X109673731Y-125485125D02*
X109680000Y-125540755D01*
X109680000Y-125540755D02*
X109680000Y-126569245D01*
X109680000Y-126569245D02*
X109686268Y-126624875D01*
X109686268Y-126624875D02*
X109704757Y-126677715D01*
X109704757Y-126677715D02*
X109734542Y-126725117D01*
X110274127Y-125345298D02*
X110321529Y-125315513D01*
X109734542Y-126725117D02*
X109774127Y-126764702D01*
X109774127Y-126764702D02*
X109821529Y-126794487D01*
X109821529Y-126794487D02*
X109874369Y-126812976D01*
X109930000Y-126819245D02*
X109985630Y-126812976D01*
X109985630Y-126812976D02*
X110038470Y-126794487D01*
X110085872Y-126764702D02*
X110125457Y-126725117D01*
X110125457Y-126725117D02*
X110155242Y-126677715D01*
X110155242Y-126677715D02*
X110173731Y-126624875D01*
X110173731Y-126624875D02*
X110180000Y-126569245D01*
X110180000Y-126569245D02*
X110180000Y-125540755D01*
X110180000Y-125540755D02*
X110186268Y-125485125D01*
X110186268Y-125485125D02*
X110204757Y-125432285D01*
X110204757Y-125432285D02*
X110234542Y-125384883D01*
X110234542Y-125384883D02*
X110274127Y-125345298D01*
X119355001Y-127355001D02*
X120000000Y-128000000D01*
X104459999Y-127355001D02*
X119355001Y-127355001D01*
X116834999Y-127355001D02*
X117460000Y-126730000D01*
X104459999Y-127355001D02*
X116834999Y-127355001D01*
X103874999Y-126770001D02*
X104459999Y-127355001D01*
X103874999Y-121815001D02*
X103874999Y-126770001D01*
X105000000Y-120690000D02*
X103874999Y-121815001D01*
D19*
X128435450Y-77873623D02*
X128388698Y-77892988D01*
X128039017Y-78126637D01*
X127741637Y-78424017D01*
X127507988Y-78773698D01*
X127347047Y-79162244D01*
X127265000Y-79574721D01*
X127265000Y-79772799D01*
X127009218Y-79666851D01*
X126572591Y-79580000D01*
X126127409Y-79580000D01*
X125690782Y-79666851D01*
X125279489Y-79837214D01*
X124909334Y-80084544D01*
X124594544Y-80399334D01*
X124347214Y-80769489D01*
X124176851Y-81180782D01*
X124090000Y-81617409D01*
X124090000Y-82062591D01*
X124176851Y-82499218D01*
X124347214Y-82910511D01*
X124594544Y-83280666D01*
X124909334Y-83595456D01*
X125279489Y-83842786D01*
X125690782Y-84013149D01*
X126127409Y-84100000D01*
X126572591Y-84100000D01*
X127009218Y-84013149D01*
X127420511Y-83842786D01*
X127790666Y-83595456D01*
X128105456Y-83280666D01*
X128352786Y-82910511D01*
X128523149Y-82499218D01*
X128610000Y-82062591D01*
X128610000Y-81768678D01*
X128777244Y-81837953D01*
X129189721Y-81920000D01*
X129610279Y-81920000D01*
X130022756Y-81837953D01*
X130411302Y-81677012D01*
X130760983Y-81443363D01*
X131058363Y-81145983D01*
X131292012Y-80796302D01*
X131452953Y-80407756D01*
X131535000Y-79995279D01*
X131535000Y-79574721D01*
X131519502Y-79496808D01*
X133290000Y-80428649D01*
X133290001Y-94571350D01*
X131535000Y-95495035D01*
X131535000Y-95114721D01*
X131452953Y-94702244D01*
X131292012Y-94313698D01*
X131058363Y-93964017D01*
X130760983Y-93666637D01*
X130411302Y-93432988D01*
X130022756Y-93272047D01*
X129610279Y-93190000D01*
X129189721Y-93190000D01*
X128777244Y-93272047D01*
X128610000Y-93341322D01*
X128610000Y-93047409D01*
X128523149Y-92610782D01*
X128352786Y-92199489D01*
X128105456Y-91829334D01*
X127790666Y-91514544D01*
X127420511Y-91267214D01*
X127009218Y-91096851D01*
X126572591Y-91010000D01*
X126127409Y-91010000D01*
X125690782Y-91096851D01*
X125279489Y-91267214D01*
X124909334Y-91514544D01*
X124594544Y-91829334D01*
X124347214Y-92199489D01*
X124176851Y-92610782D01*
X124090000Y-93047409D01*
X124090000Y-93492591D01*
X124176851Y-93929218D01*
X124347214Y-94340511D01*
X124594544Y-94710666D01*
X124909334Y-95025456D01*
X125279489Y-95272786D01*
X125690782Y-95443149D01*
X126127409Y-95530000D01*
X126572591Y-95530000D01*
X127009218Y-95443149D01*
X127265000Y-95337201D01*
X127265000Y-95535279D01*
X127347047Y-95947756D01*
X127507988Y-96336302D01*
X127741637Y-96685983D01*
X128039017Y-96983363D01*
X128333420Y-97180077D01*
X114824566Y-104290000D01*
X114465123Y-104290000D01*
X114430225Y-104293437D01*
X114423738Y-104293437D01*
X114413879Y-104294473D01*
X114371913Y-104299180D01*
X114360816Y-104300273D01*
X114360022Y-104300514D01*
X114316905Y-104305350D01*
X114253977Y-104318726D01*
X114190832Y-104331229D01*
X114181362Y-104334160D01*
X114088347Y-104363666D01*
X114029187Y-104389022D01*
X113969705Y-104413539D01*
X113960985Y-104418254D01*
X113875472Y-104465265D01*
X113822391Y-104501610D01*
X113768772Y-104537235D01*
X113761134Y-104543554D01*
X113686382Y-104606279D01*
X113641370Y-104652244D01*
X113595700Y-104697596D01*
X113589435Y-104705278D01*
X113528289Y-104781328D01*
X113493059Y-104835164D01*
X113467539Y-104873000D01*
X110532520Y-104873000D01*
X110503102Y-104829388D01*
X110467848Y-104775514D01*
X110461582Y-104767832D01*
X110399381Y-104692643D01*
X110353731Y-104647311D01*
X110308701Y-104601327D01*
X110301062Y-104595008D01*
X110225441Y-104533332D01*
X110171853Y-104497728D01*
X110118738Y-104461359D01*
X110110017Y-104456644D01*
X110023856Y-104410832D01*
X109964388Y-104386321D01*
X109905220Y-104360962D01*
X109895751Y-104358031D01*
X109802333Y-104329826D01*
X109739213Y-104317328D01*
X109676257Y-104303946D01*
X109666398Y-104302910D01*
X109569281Y-104293388D01*
X109569277Y-104293388D01*
X109534877Y-104290000D01*
X105465123Y-104290000D01*
X105430225Y-104293437D01*
X105423738Y-104293437D01*
X105413879Y-104294473D01*
X105371913Y-104299180D01*
X105360816Y-104300273D01*
X105360022Y-104300514D01*
X105316905Y-104305350D01*
X105253977Y-104318726D01*
X105190832Y-104331229D01*
X105181362Y-104334160D01*
X105088347Y-104363666D01*
X105029187Y-104389022D01*
X104969705Y-104413539D01*
X104960985Y-104418254D01*
X104875472Y-104465265D01*
X104822391Y-104501610D01*
X104768772Y-104537235D01*
X104761134Y-104543554D01*
X104686382Y-104606279D01*
X104641370Y-104652244D01*
X104595700Y-104697596D01*
X104589435Y-104705278D01*
X104528289Y-104781328D01*
X104493059Y-104835164D01*
X104457067Y-104888525D01*
X104452413Y-104897278D01*
X104407203Y-104983758D01*
X104383105Y-105043403D01*
X104358161Y-105102741D01*
X104355296Y-105112232D01*
X104327744Y-105205843D01*
X104315690Y-105269035D01*
X104302745Y-105332095D01*
X104301778Y-105341961D01*
X104292934Y-105439144D01*
X104293383Y-105503458D01*
X104292934Y-105567839D01*
X104293901Y-105577705D01*
X104304101Y-105674754D01*
X104317045Y-105737811D01*
X104329099Y-105801001D01*
X104331964Y-105810491D01*
X104360820Y-105903710D01*
X104385752Y-105963021D01*
X104409865Y-106022702D01*
X104414519Y-106031454D01*
X104460932Y-106117292D01*
X104496898Y-106170612D01*
X104532152Y-106224486D01*
X104538417Y-106232168D01*
X104600619Y-106307357D01*
X104646269Y-106352689D01*
X104691299Y-106398673D01*
X104698938Y-106404992D01*
X104774559Y-106466668D01*
X104828147Y-106502272D01*
X104881262Y-106538641D01*
X104889983Y-106543356D01*
X104976144Y-106589168D01*
X105035612Y-106613679D01*
X105094780Y-106639038D01*
X105104249Y-106641969D01*
X105197667Y-106670174D01*
X105260787Y-106682672D01*
X105323743Y-106696054D01*
X105333602Y-106697090D01*
X105430719Y-106706612D01*
X105430723Y-106706612D01*
X105465123Y-106710000D01*
X109534877Y-106710000D01*
X109569775Y-106706563D01*
X109576262Y-106706563D01*
X109586120Y-106705527D01*
X109628082Y-106700820D01*
X109639184Y-106699727D01*
X109639978Y-106699486D01*
X109683095Y-106694650D01*
X109746017Y-106681276D01*
X109809168Y-106668771D01*
X109818638Y-106665840D01*
X109911653Y-106636334D01*
X109970813Y-106610978D01*
X110030295Y-106586461D01*
X110039015Y-106581746D01*
X110124528Y-106534735D01*
X110177609Y-106498390D01*
X110231228Y-106462765D01*
X110238866Y-106456446D01*
X110313618Y-106393721D01*
X110358630Y-106347756D01*
X110404300Y-106302404D01*
X110410565Y-106294722D01*
X110471711Y-106218672D01*
X110506963Y-106164802D01*
X110532461Y-106127000D01*
X113467480Y-106127000D01*
X113496898Y-106170612D01*
X113532152Y-106224486D01*
X113538417Y-106232168D01*
X113600619Y-106307357D01*
X113646269Y-106352689D01*
X113691299Y-106398673D01*
X113698938Y-106404992D01*
X113774559Y-106466668D01*
X113828147Y-106502272D01*
X113881262Y-106538641D01*
X113889983Y-106543356D01*
X113976144Y-106589168D01*
X114035612Y-106613679D01*
X114094780Y-106639038D01*
X114104249Y-106641969D01*
X114197667Y-106670174D01*
X114260787Y-106682672D01*
X114323743Y-106696054D01*
X114333602Y-106697090D01*
X114430719Y-106706612D01*
X114430723Y-106706612D01*
X114465123Y-106710000D01*
X114824566Y-106710000D01*
X128435450Y-113873623D01*
X128388698Y-113892988D01*
X128039017Y-114126637D01*
X127741637Y-114424017D01*
X127507988Y-114773698D01*
X127347047Y-115162244D01*
X127265000Y-115574721D01*
X127265000Y-115772799D01*
X127009218Y-115666851D01*
X126572591Y-115580000D01*
X126127409Y-115580000D01*
X125690782Y-115666851D01*
X125279489Y-115837214D01*
X124909334Y-116084544D01*
X124594544Y-116399334D01*
X124347214Y-116769489D01*
X124176851Y-117180782D01*
X124090000Y-117617409D01*
X124090000Y-118062591D01*
X124176851Y-118499218D01*
X124347214Y-118910511D01*
X124594544Y-119280666D01*
X124909334Y-119595456D01*
X125279489Y-119842786D01*
X125690782Y-120013149D01*
X126127409Y-120100000D01*
X126572591Y-120100000D01*
X127009218Y-120013149D01*
X127420511Y-119842786D01*
X127790666Y-119595456D01*
X128105456Y-119280666D01*
X128352786Y-118910511D01*
X128523149Y-118499218D01*
X128610000Y-118062591D01*
X128610000Y-117768678D01*
X128777244Y-117837953D01*
X129189721Y-117920000D01*
X129610279Y-117920000D01*
X130022756Y-117837953D01*
X130411302Y-117677012D01*
X130760983Y-117443363D01*
X131058363Y-117145983D01*
X131292012Y-116796302D01*
X131452953Y-116407756D01*
X131535000Y-115995279D01*
X131535000Y-115574721D01*
X131519502Y-115496808D01*
X133290000Y-116428649D01*
X133290001Y-130571350D01*
X131535000Y-131495035D01*
X131535000Y-131114721D01*
X131452953Y-130702244D01*
X131292012Y-130313698D01*
X131058363Y-129964017D01*
X130760983Y-129666637D01*
X130411302Y-129432988D01*
X130022756Y-129272047D01*
X129610279Y-129190000D01*
X129189721Y-129190000D01*
X128777244Y-129272047D01*
X128610000Y-129341322D01*
X128610000Y-129047409D01*
X128523149Y-128610782D01*
X128352786Y-128199489D01*
X128105456Y-127829334D01*
X127790666Y-127514544D01*
X127420511Y-127267214D01*
X127009218Y-127096851D01*
X126572591Y-127010000D01*
X126127409Y-127010000D01*
X125690782Y-127096851D01*
X125279489Y-127267214D01*
X124909334Y-127514544D01*
X124594544Y-127829334D01*
X124347214Y-128199489D01*
X124176851Y-128610782D01*
X124090000Y-129047409D01*
X124090000Y-129492591D01*
X124176851Y-129929218D01*
X124347214Y-130340511D01*
X124594544Y-130710666D01*
X124909334Y-131025456D01*
X125279489Y-131272786D01*
X125690782Y-131443149D01*
X126127409Y-131530000D01*
X126572591Y-131530000D01*
X127009218Y-131443149D01*
X127265000Y-131337201D01*
X127265000Y-131535279D01*
X127347047Y-131947756D01*
X127507988Y-132336302D01*
X127741637Y-132685983D01*
X128039017Y-132983363D01*
X128333420Y-133180077D01*
X114824566Y-140290000D01*
X100710000Y-140290000D01*
X100710000Y-135700475D01*
X102065000Y-135700475D01*
X102065000Y-136219525D01*
X102166261Y-136728601D01*
X102364893Y-137208141D01*
X102653262Y-137639715D01*
X103020285Y-138006738D01*
X103451859Y-138295107D01*
X103931399Y-138493739D01*
X104440475Y-138595000D01*
X104959525Y-138595000D01*
X105468601Y-138493739D01*
X105948141Y-138295107D01*
X106379715Y-138006738D01*
X106746738Y-137639715D01*
X107035107Y-137208141D01*
X107233739Y-136728601D01*
X107335000Y-136219525D01*
X107335000Y-135700475D01*
X107326305Y-135656758D01*
X108515000Y-135656758D01*
X108515000Y-136343242D01*
X108648927Y-137016537D01*
X108911633Y-137650766D01*
X109293024Y-138221558D01*
X109778442Y-138706976D01*
X110349234Y-139088367D01*
X110983463Y-139351073D01*
X111656758Y-139485000D01*
X112343242Y-139485000D01*
X113016537Y-139351073D01*
X113650766Y-139088367D01*
X114221558Y-138706976D01*
X114706976Y-138221558D01*
X115088367Y-137650766D01*
X115351073Y-137016537D01*
X115485000Y-136343242D01*
X115485000Y-135656758D01*
X115351073Y-134983463D01*
X115088367Y-134349234D01*
X114706976Y-133778442D01*
X114221558Y-133293024D01*
X113650766Y-132911633D01*
X113016537Y-132648927D01*
X112343242Y-132515000D01*
X111656758Y-132515000D01*
X110983463Y-132648927D01*
X110349234Y-132911633D01*
X109778442Y-133293024D01*
X109293024Y-133778442D01*
X108911633Y-134349234D01*
X108648927Y-134983463D01*
X108515000Y-135656758D01*
X107326305Y-135656758D01*
X107233739Y-135191399D01*
X107035107Y-134711859D01*
X106746738Y-134280285D01*
X106379715Y-133913262D01*
X105948141Y-133624893D01*
X105468601Y-133426261D01*
X104959525Y-133325000D01*
X104440475Y-133325000D01*
X103931399Y-133426261D01*
X103451859Y-133624893D01*
X103020285Y-133913262D01*
X102653262Y-134280285D01*
X102364893Y-134711859D01*
X102166261Y-135191399D01*
X102065000Y-135700475D01*
X100710000Y-135700475D01*
X100710000Y-119163665D01*
X100725000Y-119163665D01*
X100725000Y-119446335D01*
X100780147Y-119723574D01*
X100888320Y-119984727D01*
X101045363Y-120219759D01*
X101245241Y-120419637D01*
X101480273Y-120576680D01*
X101741426Y-120684853D01*
X101767301Y-120690000D01*
X101741426Y-120695147D01*
X101480273Y-120803320D01*
X101245241Y-120960363D01*
X101045363Y-121160241D01*
X100888320Y-121395273D01*
X100780147Y-121656426D01*
X100725000Y-121933665D01*
X100725000Y-122216335D01*
X100780147Y-122493574D01*
X100888320Y-122754727D01*
X101045363Y-122989759D01*
X101245241Y-123189637D01*
X101480273Y-123346680D01*
X101741426Y-123454853D01*
X101767301Y-123460000D01*
X101741426Y-123465147D01*
X101480273Y-123573320D01*
X101245241Y-123730363D01*
X101045363Y-123930241D01*
X100888320Y-124165273D01*
X100780147Y-124426426D01*
X100725000Y-124703665D01*
X100725000Y-124986335D01*
X100780147Y-125263574D01*
X100888320Y-125524727D01*
X101045363Y-125759759D01*
X101245241Y-125959637D01*
X101480273Y-126116680D01*
X101741426Y-126224853D01*
X101767301Y-126230000D01*
X101741426Y-126235147D01*
X101480273Y-126343320D01*
X101245241Y-126500363D01*
X101045363Y-126700241D01*
X100888320Y-126935273D01*
X100780147Y-127196426D01*
X100725000Y-127473665D01*
X100725000Y-127756335D01*
X100780147Y-128033574D01*
X100888320Y-128294727D01*
X101045363Y-128529759D01*
X101245241Y-128729637D01*
X101480273Y-128886680D01*
X101741426Y-128994853D01*
X102018665Y-129050000D01*
X102301335Y-129050000D01*
X102578574Y-128994853D01*
X102839727Y-128886680D01*
X103074759Y-128729637D01*
X103274637Y-128529759D01*
X103431680Y-128294727D01*
X103539853Y-128033574D01*
X103595000Y-127756335D01*
X103595000Y-127564803D01*
X103765400Y-127735204D01*
X103748815Y-127748815D01*
X103669463Y-127845506D01*
X103610498Y-127955820D01*
X103574188Y-128075518D01*
X103561928Y-128200000D01*
X103561928Y-129800000D01*
X103574188Y-129924482D01*
X103610498Y-130044180D01*
X103669463Y-130154494D01*
X103748815Y-130251185D01*
X103845506Y-130330537D01*
X103955820Y-130389502D01*
X104075518Y-130425812D01*
X104200000Y-130438072D01*
X105800000Y-130438072D01*
X105924482Y-130425812D01*
X106044180Y-130389502D01*
X106154494Y-130330537D01*
X106251185Y-130251185D01*
X106330537Y-130154494D01*
X106389502Y-130044180D01*
X106425812Y-129924482D01*
X106438072Y-129800000D01*
X106438072Y-128200000D01*
X106429701Y-128115001D01*
X116797677Y-128115001D01*
X116834999Y-128118677D01*
X116872321Y-128115001D01*
X118611928Y-128115001D01*
X118611928Y-128750000D01*
X118624188Y-128874482D01*
X118660498Y-128994180D01*
X118719463Y-129104494D01*
X118798815Y-129201185D01*
X118895506Y-129280537D01*
X119005820Y-129339502D01*
X119125518Y-129375812D01*
X119250000Y-129388072D01*
X120750000Y-129388072D01*
X120874482Y-129375812D01*
X120994180Y-129339502D01*
X121104494Y-129280537D01*
X121201185Y-129201185D01*
X121280537Y-129104494D01*
X121339502Y-128994180D01*
X121375812Y-128874482D01*
X121388072Y-128750000D01*
X121388072Y-127250000D01*
X121375812Y-127125518D01*
X121339502Y-127005820D01*
X121280537Y-126895506D01*
X121201185Y-126798815D01*
X121104494Y-126719463D01*
X120994180Y-126660498D01*
X120874482Y-126624188D01*
X120766517Y-126613555D01*
X120882886Y-126535799D01*
X121075799Y-126342886D01*
X121227371Y-126116043D01*
X121331775Y-125863989D01*
X121385000Y-125596411D01*
X121385000Y-125323589D01*
X121331775Y-125056011D01*
X121227371Y-124803957D01*
X121075799Y-124577114D01*
X120882886Y-124384201D01*
X120656043Y-124232629D01*
X120553127Y-124190000D01*
X120656043Y-124147371D01*
X120882886Y-123995799D01*
X121075799Y-123802886D01*
X121227371Y-123576043D01*
X121331775Y-123323989D01*
X121385000Y-123056411D01*
X121385000Y-122783589D01*
X121331775Y-122516011D01*
X121227371Y-122263957D01*
X121075799Y-122037114D01*
X120882886Y-121844201D01*
X120656043Y-121692629D01*
X120553127Y-121650000D01*
X120656043Y-121607371D01*
X120882886Y-121455799D01*
X121075799Y-121262886D01*
X121227371Y-121036043D01*
X121331775Y-120783989D01*
X121385000Y-120516411D01*
X121385000Y-120243589D01*
X121331775Y-119976011D01*
X121227371Y-119723957D01*
X121075799Y-119497114D01*
X120882886Y-119304201D01*
X120656043Y-119152629D01*
X120403989Y-119048225D01*
X120136411Y-118995000D01*
X119863589Y-118995000D01*
X119596011Y-119048225D01*
X119343957Y-119152629D01*
X119117114Y-119304201D01*
X118924201Y-119497114D01*
X118772629Y-119723957D01*
X118668225Y-119976011D01*
X118615000Y-120243589D01*
X118615000Y-120516411D01*
X118668225Y-120783989D01*
X118772629Y-121036043D01*
X118924201Y-121262886D01*
X119117114Y-121455799D01*
X119343957Y-121607371D01*
X119446873Y-121650000D01*
X119343957Y-121692629D01*
X119117114Y-121844201D01*
X118924201Y-122037114D01*
X118772629Y-122263957D01*
X118668225Y-122516011D01*
X118615000Y-122783589D01*
X118615000Y-123056411D01*
X118668225Y-123323989D01*
X118772629Y-123576043D01*
X118924201Y-123802886D01*
X119117114Y-123995799D01*
X119343957Y-124147371D01*
X119446873Y-124190000D01*
X119343957Y-124232629D01*
X119117114Y-124384201D01*
X118924201Y-124577114D01*
X118772629Y-124803957D01*
X118668225Y-125056011D01*
X118615000Y-125323589D01*
X118615000Y-125596411D01*
X118668225Y-125863989D01*
X118772629Y-126116043D01*
X118924201Y-126342886D01*
X119117114Y-126535799D01*
X119205716Y-126595001D01*
X118845000Y-126595001D01*
X118845000Y-126593589D01*
X118791775Y-126326011D01*
X118687371Y-126073957D01*
X118535799Y-125847114D01*
X118342886Y-125654201D01*
X118116043Y-125502629D01*
X118016721Y-125461489D01*
X118058832Y-125446277D01*
X118171863Y-125385860D01*
X118237388Y-125146993D01*
X117460000Y-124369605D01*
X116682612Y-125146993D01*
X116748137Y-125385860D01*
X116906477Y-125460164D01*
X116803957Y-125502629D01*
X116577114Y-125654201D01*
X116384201Y-125847114D01*
X116232629Y-126073957D01*
X116128225Y-126326011D01*
X116075000Y-126593589D01*
X116075000Y-126595001D01*
X113589800Y-126595001D01*
X116077334Y-124107468D01*
X116070188Y-124262492D01*
X116111035Y-124532238D01*
X116203723Y-124788832D01*
X116264140Y-124901863D01*
X116503007Y-124967388D01*
X117280395Y-124190000D01*
X117639605Y-124190000D01*
X118416993Y-124967388D01*
X118655860Y-124901863D01*
X118771760Y-124654884D01*
X118837250Y-124390040D01*
X118849812Y-124117508D01*
X118808965Y-123847762D01*
X118716277Y-123591168D01*
X118655860Y-123478137D01*
X118416993Y-123412612D01*
X117639605Y-124190000D01*
X117280395Y-124190000D01*
X117266253Y-124175858D01*
X117445858Y-123996253D01*
X117460000Y-124010395D01*
X118237388Y-123233007D01*
X118171863Y-122994140D01*
X118013523Y-122919836D01*
X118116043Y-122877371D01*
X118342886Y-122725799D01*
X118535799Y-122532886D01*
X118687371Y-122306043D01*
X118791775Y-122053989D01*
X118845000Y-121786411D01*
X118845000Y-121513589D01*
X118791775Y-121246011D01*
X118687371Y-120993957D01*
X118535799Y-120767114D01*
X118342886Y-120574201D01*
X118116043Y-120422629D01*
X118013127Y-120380000D01*
X118116043Y-120337371D01*
X118342886Y-120185799D01*
X118535799Y-119992886D01*
X118687371Y-119766043D01*
X118791775Y-119513989D01*
X118845000Y-119246411D01*
X118845000Y-118973589D01*
X118791775Y-118706011D01*
X118687371Y-118453957D01*
X118535799Y-118227114D01*
X118342886Y-118034201D01*
X118116043Y-117882629D01*
X117863989Y-117778225D01*
X117596411Y-117725000D01*
X117323589Y-117725000D01*
X117056011Y-117778225D01*
X116803957Y-117882629D01*
X116577114Y-118034201D01*
X116384201Y-118227114D01*
X116232629Y-118453957D01*
X116128225Y-118706011D01*
X116075000Y-118973589D01*
X116075000Y-119246411D01*
X116128225Y-119513989D01*
X116232629Y-119766043D01*
X116384201Y-119992886D01*
X116577114Y-120185799D01*
X116803957Y-120337371D01*
X116906873Y-120380000D01*
X116803957Y-120422629D01*
X116577114Y-120574201D01*
X116384201Y-120767114D01*
X116232629Y-120993957D01*
X116128225Y-121246011D01*
X116075000Y-121513589D01*
X116075000Y-121786411D01*
X116103833Y-121931365D01*
X112565199Y-125470000D01*
X111499471Y-125470000D01*
X111494188Y-125469026D01*
X111436818Y-125469830D01*
X111435816Y-125460944D01*
X111431571Y-125417845D01*
X111429910Y-125378377D01*
X111414748Y-125315993D01*
X111401339Y-125253202D01*
X111382277Y-125208951D01*
X111381395Y-125206429D01*
X111368704Y-125159938D01*
X111340043Y-125102498D01*
X111313009Y-125044286D01*
X111284572Y-125005374D01*
X111283149Y-125003110D01*
X111260431Y-124960608D01*
X111219703Y-124910981D01*
X111180387Y-124860237D01*
X111144008Y-124828633D01*
X111142122Y-124826747D01*
X111110518Y-124790368D01*
X111059781Y-124751058D01*
X111010148Y-124710324D01*
X110967642Y-124687604D01*
X110965378Y-124686182D01*
X110926469Y-124657746D01*
X110868257Y-124630712D01*
X110810817Y-124602051D01*
X110764324Y-124589360D01*
X110761806Y-124588479D01*
X110717553Y-124569416D01*
X110654758Y-124556006D01*
X110592378Y-124540845D01*
X110544241Y-124538819D01*
X110541577Y-124538519D01*
X110494175Y-124529780D01*
X110430001Y-124530681D01*
X110365827Y-124529780D01*
X110318426Y-124538518D01*
X110315760Y-124538819D01*
X110267621Y-124540845D01*
X110205229Y-124556009D01*
X110142447Y-124569416D01*
X110098196Y-124588477D01*
X110095673Y-124589360D01*
X110049182Y-124602051D01*
X109991742Y-124630712D01*
X109933530Y-124657746D01*
X109929999Y-124660326D01*
X109926469Y-124657746D01*
X109868257Y-124630712D01*
X109810817Y-124602051D01*
X109764324Y-124589360D01*
X109761806Y-124588479D01*
X109717553Y-124569416D01*
X109654758Y-124556006D01*
X109592378Y-124540845D01*
X109544241Y-124538819D01*
X109541577Y-124538519D01*
X109494175Y-124529780D01*
X109430001Y-124530681D01*
X109365827Y-124529780D01*
X109318426Y-124538518D01*
X109315760Y-124538819D01*
X109267621Y-124540845D01*
X109205229Y-124556009D01*
X109142447Y-124569416D01*
X109098196Y-124588477D01*
X109095673Y-124589360D01*
X109049182Y-124602051D01*
X108991742Y-124630712D01*
X108933530Y-124657746D01*
X108894618Y-124686183D01*
X108892354Y-124687606D01*
X108849852Y-124710324D01*
X108800225Y-124751052D01*
X108749481Y-124790368D01*
X108717877Y-124826747D01*
X108715991Y-124828633D01*
X108679612Y-124860237D01*
X108640302Y-124910974D01*
X108599568Y-124960607D01*
X108576848Y-125003113D01*
X108575426Y-125005377D01*
X108546990Y-125044286D01*
X108519956Y-125102498D01*
X108491295Y-125159938D01*
X108478604Y-125206431D01*
X108477720Y-125208955D01*
X108458656Y-125253215D01*
X108445249Y-125316000D01*
X108430089Y-125378377D01*
X108428426Y-125417881D01*
X108424191Y-125460884D01*
X108423183Y-125469830D01*
X108365813Y-125469026D01*
X108360530Y-125470000D01*
X106218043Y-125470000D01*
X106114637Y-125315241D01*
X105914759Y-125115363D01*
X105679727Y-124958320D01*
X105418574Y-124850147D01*
X105392699Y-124845000D01*
X105418574Y-124839853D01*
X105679727Y-124731680D01*
X105914759Y-124574637D01*
X106114637Y-124374759D01*
X106271680Y-124139727D01*
X106379853Y-123878574D01*
X106435000Y-123601335D01*
X106435000Y-123318665D01*
X106379853Y-123041426D01*
X106271680Y-122780273D01*
X106114637Y-122545241D01*
X105914759Y-122345363D01*
X105679727Y-122188320D01*
X105418574Y-122080147D01*
X105392699Y-122075000D01*
X105418574Y-122069853D01*
X105679727Y-121961680D01*
X105914759Y-121804637D01*
X106114637Y-121604759D01*
X106271680Y-121369727D01*
X106379853Y-121108574D01*
X106435000Y-120831335D01*
X106435000Y-120548665D01*
X106379853Y-120271426D01*
X106271680Y-120010273D01*
X106114637Y-119775241D01*
X105914759Y-119575363D01*
X105679727Y-119418320D01*
X105418574Y-119310147D01*
X105390118Y-119304487D01*
X105616292Y-119223603D01*
X105741514Y-119156671D01*
X105813097Y-118912702D01*
X105000000Y-118099605D01*
X104186903Y-118912702D01*
X104258486Y-119156671D01*
X104513996Y-119277571D01*
X104616289Y-119303212D01*
X104581426Y-119310147D01*
X104320273Y-119418320D01*
X104085241Y-119575363D01*
X103885363Y-119775241D01*
X103728320Y-120010273D01*
X103620147Y-120271426D01*
X103565000Y-120548665D01*
X103565000Y-120831335D01*
X103601312Y-121013887D01*
X103364001Y-121251197D01*
X103345537Y-121266351D01*
X103274637Y-121160241D01*
X103074759Y-120960363D01*
X102839727Y-120803320D01*
X102578574Y-120695147D01*
X102552699Y-120690000D01*
X102578574Y-120684853D01*
X102839727Y-120576680D01*
X103074759Y-120419637D01*
X103274637Y-120219759D01*
X103431680Y-119984727D01*
X103539853Y-119723574D01*
X103595000Y-119446335D01*
X103595000Y-119163665D01*
X103539853Y-118886426D01*
X103431680Y-118625273D01*
X103274637Y-118390241D01*
X103074759Y-118190363D01*
X102839727Y-118033320D01*
X102736380Y-117990512D01*
X103559783Y-117990512D01*
X103601213Y-118270130D01*
X103696397Y-118536292D01*
X103763329Y-118661514D01*
X104007298Y-118733097D01*
X104820395Y-117920000D01*
X105179605Y-117920000D01*
X105992702Y-118733097D01*
X106236671Y-118661514D01*
X106357571Y-118406004D01*
X106426300Y-118131816D01*
X106440217Y-117849488D01*
X106398787Y-117569870D01*
X106303603Y-117303708D01*
X106236671Y-117178486D01*
X105992702Y-117106903D01*
X105179605Y-117920000D01*
X104820395Y-117920000D01*
X104007298Y-117106903D01*
X103763329Y-117178486D01*
X103642429Y-117433996D01*
X103573700Y-117708184D01*
X103559783Y-117990512D01*
X102736380Y-117990512D01*
X102578574Y-117925147D01*
X102301335Y-117870000D01*
X102018665Y-117870000D01*
X101741426Y-117925147D01*
X101480273Y-118033320D01*
X101245241Y-118190363D01*
X101045363Y-118390241D01*
X100888320Y-118625273D01*
X100780147Y-118886426D01*
X100725000Y-119163665D01*
X100710000Y-119163665D01*
X100710000Y-116927298D01*
X104186903Y-116927298D01*
X105000000Y-117740395D01*
X105813097Y-116927298D01*
X105741514Y-116683329D01*
X105486004Y-116562429D01*
X105211816Y-116493700D01*
X104929488Y-116479783D01*
X104649870Y-116521213D01*
X104383708Y-116616397D01*
X104258486Y-116683329D01*
X104186903Y-116927298D01*
X100710000Y-116927298D01*
X100710000Y-110700475D01*
X102065000Y-110700475D01*
X102065000Y-111219525D01*
X102166261Y-111728601D01*
X102364893Y-112208141D01*
X102653262Y-112639715D01*
X103020285Y-113006738D01*
X103451859Y-113295107D01*
X103931399Y-113493739D01*
X104440475Y-113595000D01*
X104959525Y-113595000D01*
X105468601Y-113493739D01*
X105948141Y-113295107D01*
X106379715Y-113006738D01*
X106746738Y-112639715D01*
X107035107Y-112208141D01*
X107233739Y-111728601D01*
X107335000Y-111219525D01*
X107335000Y-110700475D01*
X107326305Y-110656758D01*
X108515000Y-110656758D01*
X108515000Y-111343242D01*
X108648927Y-112016537D01*
X108911633Y-112650766D01*
X109293024Y-113221558D01*
X109778442Y-113706976D01*
X110349234Y-114088367D01*
X110983463Y-114351073D01*
X111656758Y-114485000D01*
X112343242Y-114485000D01*
X113016537Y-114351073D01*
X113650766Y-114088367D01*
X114221558Y-113706976D01*
X114706976Y-113221558D01*
X115088367Y-112650766D01*
X115351073Y-112016537D01*
X115485000Y-111343242D01*
X115485000Y-110656758D01*
X115351073Y-109983463D01*
X115088367Y-109349234D01*
X114706976Y-108778442D01*
X114221558Y-108293024D01*
X113650766Y-107911633D01*
X113016537Y-107648927D01*
X112343242Y-107515000D01*
X111656758Y-107515000D01*
X110983463Y-107648927D01*
X110349234Y-107911633D01*
X109778442Y-108293024D01*
X109293024Y-108778442D01*
X108911633Y-109349234D01*
X108648927Y-109983463D01*
X108515000Y-110656758D01*
X107326305Y-110656758D01*
X107233739Y-110191399D01*
X107035107Y-109711859D01*
X106746738Y-109280285D01*
X106379715Y-108913262D01*
X105948141Y-108624893D01*
X105468601Y-108426261D01*
X104959525Y-108325000D01*
X104440475Y-108325000D01*
X103931399Y-108426261D01*
X103451859Y-108624893D01*
X103020285Y-108913262D01*
X102653262Y-109280285D01*
X102364893Y-109711859D01*
X102166261Y-110191399D01*
X102065000Y-110700475D01*
X100710000Y-110700475D01*
X100710000Y-106688931D01*
X100746017Y-106681276D01*
X100809168Y-106668771D01*
X100818638Y-106665840D01*
X100911653Y-106636334D01*
X100970813Y-106610978D01*
X101030295Y-106586461D01*
X101039015Y-106581746D01*
X101124528Y-106534735D01*
X101177609Y-106498390D01*
X101231228Y-106462765D01*
X101238866Y-106456446D01*
X101313618Y-106393721D01*
X101358630Y-106347756D01*
X101404300Y-106302404D01*
X101410565Y-106294722D01*
X101471711Y-106218672D01*
X101506963Y-106164802D01*
X101532461Y-106127000D01*
X104000000Y-106127000D01*
X104024776Y-106124560D01*
X104048601Y-106117333D01*
X104070557Y-106105597D01*
X104089803Y-106089803D01*
X104105597Y-106070557D01*
X104117333Y-106048601D01*
X104124560Y-106024776D01*
X104127000Y-106000000D01*
X104127000Y-105000000D01*
X104124560Y-104975224D01*
X104117333Y-104951399D01*
X104105597Y-104929443D01*
X104089803Y-104910197D01*
X104070557Y-104894403D01*
X104048601Y-104882667D01*
X104024776Y-104875440D01*
X104000000Y-104873000D01*
X101532520Y-104873000D01*
X101503102Y-104829388D01*
X101467848Y-104775514D01*
X101461582Y-104767832D01*
X101399381Y-104692643D01*
X101353731Y-104647311D01*
X101308701Y-104601327D01*
X101301062Y-104595008D01*
X101225441Y-104533332D01*
X101171853Y-104497728D01*
X101118738Y-104461359D01*
X101110017Y-104456644D01*
X101023856Y-104410832D01*
X100964388Y-104386321D01*
X100905220Y-104360962D01*
X100895751Y-104358031D01*
X100802333Y-104329826D01*
X100739213Y-104317328D01*
X100710000Y-104311118D01*
X100710000Y-99780475D01*
X102065000Y-99780475D01*
X102065000Y-100299525D01*
X102166261Y-100808601D01*
X102364893Y-101288141D01*
X102653262Y-101719715D01*
X103020285Y-102086738D01*
X103451859Y-102375107D01*
X103931399Y-102573739D01*
X104440475Y-102675000D01*
X104959525Y-102675000D01*
X105468601Y-102573739D01*
X105948141Y-102375107D01*
X106379715Y-102086738D01*
X106746738Y-101719715D01*
X107035107Y-101288141D01*
X107233739Y-100808601D01*
X107335000Y-100299525D01*
X107335000Y-99780475D01*
X107310392Y-99656758D01*
X108515000Y-99656758D01*
X108515000Y-100343242D01*
X108648927Y-101016537D01*
X108911633Y-101650766D01*
X109293024Y-102221558D01*
X109778442Y-102706976D01*
X110349234Y-103088367D01*
X110983463Y-103351073D01*
X111656758Y-103485000D01*
X112343242Y-103485000D01*
X113016537Y-103351073D01*
X113650766Y-103088367D01*
X114221558Y-102706976D01*
X114706976Y-102221558D01*
X115088367Y-101650766D01*
X115351073Y-101016537D01*
X115485000Y-100343242D01*
X115485000Y-99656758D01*
X115351073Y-98983463D01*
X115088367Y-98349234D01*
X114706976Y-97778442D01*
X114221558Y-97293024D01*
X113650766Y-96911633D01*
X113016537Y-96648927D01*
X112343242Y-96515000D01*
X111656758Y-96515000D01*
X110983463Y-96648927D01*
X110349234Y-96911633D01*
X109778442Y-97293024D01*
X109293024Y-97778442D01*
X108911633Y-98349234D01*
X108648927Y-98983463D01*
X108515000Y-99656758D01*
X107310392Y-99656758D01*
X107233739Y-99271399D01*
X107035107Y-98791859D01*
X106746738Y-98360285D01*
X106379715Y-97993262D01*
X105948141Y-97704893D01*
X105468601Y-97506261D01*
X104959525Y-97405000D01*
X104440475Y-97405000D01*
X103931399Y-97506261D01*
X103451859Y-97704893D01*
X103020285Y-97993262D01*
X102653262Y-98360285D01*
X102364893Y-98791859D01*
X102166261Y-99271399D01*
X102065000Y-99780475D01*
X100710000Y-99780475D01*
X100710000Y-94072702D01*
X104186903Y-94072702D01*
X104258486Y-94316671D01*
X104513996Y-94437571D01*
X104788184Y-94506300D01*
X105070512Y-94520217D01*
X105350130Y-94478787D01*
X105616292Y-94383603D01*
X105741514Y-94316671D01*
X105813097Y-94072702D01*
X105000000Y-93259605D01*
X104186903Y-94072702D01*
X100710000Y-94072702D01*
X100710000Y-93150512D01*
X103559783Y-93150512D01*
X103601213Y-93430130D01*
X103696397Y-93696292D01*
X103763329Y-93821514D01*
X104007298Y-93893097D01*
X104820395Y-93080000D01*
X105179605Y-93080000D01*
X105992702Y-93893097D01*
X106236671Y-93821514D01*
X106357571Y-93566004D01*
X106426300Y-93291816D01*
X106440217Y-93009488D01*
X106398787Y-92729870D01*
X106303603Y-92463708D01*
X106236671Y-92338486D01*
X105992702Y-92266903D01*
X105179605Y-93080000D01*
X104820395Y-93080000D01*
X104007298Y-92266903D01*
X103763329Y-92338486D01*
X103642429Y-92593996D01*
X103573700Y-92868184D01*
X103559783Y-93150512D01*
X100710000Y-93150512D01*
X100710000Y-83243665D01*
X100725000Y-83243665D01*
X100725000Y-83526335D01*
X100780147Y-83803574D01*
X100888320Y-84064727D01*
X101045363Y-84299759D01*
X101245241Y-84499637D01*
X101405203Y-84606520D01*
X101410144Y-84656680D01*
X101410998Y-84665355D01*
X101454454Y-84808616D01*
X101491826Y-84878534D01*
X101480273Y-84883320D01*
X101245241Y-85040363D01*
X101045363Y-85240241D01*
X100888320Y-85475273D01*
X100780147Y-85736426D01*
X100725000Y-86013665D01*
X100725000Y-86296335D01*
X100780147Y-86573574D01*
X100888320Y-86834727D01*
X101045363Y-87069759D01*
X101245241Y-87269637D01*
X101480273Y-87426680D01*
X101741426Y-87534853D01*
X101767301Y-87540000D01*
X101741426Y-87545147D01*
X101480273Y-87653320D01*
X101245241Y-87810363D01*
X101045363Y-88010241D01*
X100888320Y-88245273D01*
X100780147Y-88506426D01*
X100725000Y-88783665D01*
X100725000Y-89066335D01*
X100780147Y-89343574D01*
X100888320Y-89604727D01*
X101045363Y-89839759D01*
X101245241Y-90039637D01*
X101480273Y-90196680D01*
X101741426Y-90304853D01*
X101767301Y-90310000D01*
X101741426Y-90315147D01*
X101480273Y-90423320D01*
X101245241Y-90580363D01*
X101045363Y-90780241D01*
X100888320Y-91015273D01*
X100780147Y-91276426D01*
X100725000Y-91553665D01*
X100725000Y-91836335D01*
X100780147Y-92113574D01*
X100888320Y-92374727D01*
X101045363Y-92609759D01*
X101245241Y-92809637D01*
X101480273Y-92966680D01*
X101741426Y-93074853D01*
X102018665Y-93130000D01*
X102301335Y-93130000D01*
X102578574Y-93074853D01*
X102839727Y-92966680D01*
X103074759Y-92809637D01*
X103274637Y-92609759D01*
X103431680Y-92374727D01*
X103539853Y-92113574D01*
X103595000Y-91836335D01*
X103595000Y-91553665D01*
X103539853Y-91276426D01*
X103431680Y-91015273D01*
X103274637Y-90780241D01*
X103074759Y-90580363D01*
X102839727Y-90423320D01*
X102578574Y-90315147D01*
X102552699Y-90310000D01*
X102578574Y-90304853D01*
X102839727Y-90196680D01*
X103074759Y-90039637D01*
X103274637Y-89839759D01*
X103431680Y-89604727D01*
X103539853Y-89343574D01*
X103595000Y-89066335D01*
X103595000Y-88783665D01*
X103539853Y-88506426D01*
X103431680Y-88245273D01*
X103274637Y-88010241D01*
X103074759Y-87810363D01*
X102839727Y-87653320D01*
X102578574Y-87545147D01*
X102552699Y-87540000D01*
X102578574Y-87534853D01*
X102839727Y-87426680D01*
X103074759Y-87269637D01*
X103274637Y-87069759D01*
X103420415Y-86851587D01*
X103494829Y-86926001D01*
X103518628Y-86955000D01*
X103547626Y-86978798D01*
X103634352Y-87049973D01*
X103646397Y-87056411D01*
X103646954Y-87056708D01*
X103620147Y-87121426D01*
X103565000Y-87398665D01*
X103565000Y-87681335D01*
X103620147Y-87958574D01*
X103728320Y-88219727D01*
X103885363Y-88454759D01*
X104085241Y-88654637D01*
X104320273Y-88811680D01*
X104581426Y-88919853D01*
X104607301Y-88925000D01*
X104581426Y-88930147D01*
X104320273Y-89038320D01*
X104085241Y-89195363D01*
X103885363Y-89395241D01*
X103728320Y-89630273D01*
X103620147Y-89891426D01*
X103565000Y-90168665D01*
X103565000Y-90451335D01*
X103620147Y-90728574D01*
X103728320Y-90989727D01*
X103885363Y-91224759D01*
X104085241Y-91424637D01*
X104320273Y-91581680D01*
X104581426Y-91689853D01*
X104609882Y-91695513D01*
X104383708Y-91776397D01*
X104258486Y-91843329D01*
X104186903Y-92087298D01*
X105000000Y-92900395D01*
X105813097Y-92087298D01*
X105741514Y-91843329D01*
X105486004Y-91722429D01*
X105383711Y-91696788D01*
X105418574Y-91689853D01*
X105679727Y-91581680D01*
X105914759Y-91424637D01*
X106114637Y-91224759D01*
X106271680Y-90989727D01*
X106379853Y-90728574D01*
X106435000Y-90451335D01*
X106435000Y-90168665D01*
X106379853Y-89891426D01*
X106271680Y-89630273D01*
X106114637Y-89395241D01*
X105914759Y-89195363D01*
X105679727Y-89038320D01*
X105418574Y-88930147D01*
X105392699Y-88925000D01*
X105418574Y-88919853D01*
X105679727Y-88811680D01*
X105914759Y-88654637D01*
X106114637Y-88454759D01*
X106271680Y-88219727D01*
X106379853Y-87958574D01*
X106435000Y-87681335D01*
X106435000Y-87398665D01*
X106390509Y-87174999D01*
X111239196Y-87174999D01*
X116575199Y-92511003D01*
X116598997Y-92540001D01*
X116714722Y-92634974D01*
X116846751Y-92705546D01*
X116990012Y-92749003D01*
X117101665Y-92760000D01*
X117101674Y-92760000D01*
X117138997Y-92763676D01*
X117176320Y-92760000D01*
X118612913Y-92760000D01*
X118624188Y-92874482D01*
X118660498Y-92994180D01*
X118719463Y-93104494D01*
X118798815Y-93201185D01*
X118895506Y-93280537D01*
X119005820Y-93339502D01*
X119125518Y-93375812D01*
X119250000Y-93388072D01*
X120750000Y-93388072D01*
X120874482Y-93375812D01*
X120994180Y-93339502D01*
X121104494Y-93280537D01*
X121201185Y-93201185D01*
X121280537Y-93104494D01*
X121339502Y-92994180D01*
X121375812Y-92874482D01*
X121388072Y-92750000D01*
X121388072Y-91250000D01*
X121375812Y-91125518D01*
X121339502Y-91005820D01*
X121280537Y-90895506D01*
X121201185Y-90798815D01*
X121104494Y-90719463D01*
X120994180Y-90660498D01*
X120874482Y-90624188D01*
X120766517Y-90613555D01*
X120882886Y-90535799D01*
X121075799Y-90342886D01*
X121227371Y-90116043D01*
X121331775Y-89863989D01*
X121385000Y-89596411D01*
X121385000Y-89323589D01*
X121331775Y-89056011D01*
X121227371Y-88803957D01*
X121075799Y-88577114D01*
X120882886Y-88384201D01*
X120656043Y-88232629D01*
X120553127Y-88190000D01*
X120656043Y-88147371D01*
X120882886Y-87995799D01*
X121075799Y-87802886D01*
X121227371Y-87576043D01*
X121331775Y-87323989D01*
X121385000Y-87056411D01*
X121385000Y-86783589D01*
X121331775Y-86516011D01*
X121227371Y-86263957D01*
X121075799Y-86037114D01*
X120882886Y-85844201D01*
X120656043Y-85692629D01*
X120553127Y-85650000D01*
X120656043Y-85607371D01*
X120882886Y-85455799D01*
X121075799Y-85262886D01*
X121227371Y-85036043D01*
X121331775Y-84783989D01*
X121385000Y-84516411D01*
X121385000Y-84243589D01*
X121331775Y-83976011D01*
X121227371Y-83723957D01*
X121075799Y-83497114D01*
X120882886Y-83304201D01*
X120656043Y-83152629D01*
X120403989Y-83048225D01*
X120136411Y-82995000D01*
X119863589Y-82995000D01*
X119596011Y-83048225D01*
X119343957Y-83152629D01*
X119117114Y-83304201D01*
X118924201Y-83497114D01*
X118772629Y-83723957D01*
X118668225Y-83976011D01*
X118615000Y-84243589D01*
X118615000Y-84516411D01*
X118668225Y-84783989D01*
X118772629Y-85036043D01*
X118924201Y-85262886D01*
X119117114Y-85455799D01*
X119343957Y-85607371D01*
X119446873Y-85650000D01*
X119343957Y-85692629D01*
X119117114Y-85844201D01*
X118924201Y-86037114D01*
X118772629Y-86263957D01*
X118668225Y-86516011D01*
X118615000Y-86783589D01*
X118615000Y-87056411D01*
X118668225Y-87323989D01*
X118772629Y-87576043D01*
X118924201Y-87802886D01*
X119117114Y-87995799D01*
X119343957Y-88147371D01*
X119446873Y-88190000D01*
X119343957Y-88232629D01*
X119117114Y-88384201D01*
X118924201Y-88577114D01*
X118772629Y-88803957D01*
X118668225Y-89056011D01*
X118615000Y-89323589D01*
X118615000Y-89596411D01*
X118668225Y-89863989D01*
X118772629Y-90116043D01*
X118924201Y-90342886D01*
X119117114Y-90535799D01*
X119233483Y-90613555D01*
X119125518Y-90624188D01*
X119005820Y-90660498D01*
X118895506Y-90719463D01*
X118845000Y-90760912D01*
X118845000Y-90593589D01*
X118791775Y-90326011D01*
X118687371Y-90073957D01*
X118535799Y-89847114D01*
X118342886Y-89654201D01*
X118116043Y-89502629D01*
X118016721Y-89461489D01*
X118058832Y-89446277D01*
X118171863Y-89385860D01*
X118237388Y-89146993D01*
X117460000Y-88369605D01*
X116682612Y-89146993D01*
X116748137Y-89385860D01*
X116906477Y-89460164D01*
X116803957Y-89502629D01*
X116577114Y-89654201D01*
X116540763Y-89690552D01*
X115112703Y-88262492D01*
X116070188Y-88262492D01*
X116111035Y-88532238D01*
X116203723Y-88788832D01*
X116264140Y-88901863D01*
X116503007Y-88967388D01*
X117280395Y-88190000D01*
X117639605Y-88190000D01*
X118416993Y-88967388D01*
X118655860Y-88901863D01*
X118771760Y-88654884D01*
X118837250Y-88390040D01*
X118849812Y-88117508D01*
X118808965Y-87847762D01*
X118716277Y-87591168D01*
X118655860Y-87478137D01*
X118416993Y-87412612D01*
X117639605Y-88190000D01*
X117280395Y-88190000D01*
X116503007Y-87412612D01*
X116264140Y-87478137D01*
X116148240Y-87725116D01*
X116082750Y-87989960D01*
X116070188Y-88262492D01*
X115112703Y-88262492D01*
X109823799Y-82973589D01*
X116075000Y-82973589D01*
X116075000Y-83246411D01*
X116128225Y-83513989D01*
X116232629Y-83766043D01*
X116384201Y-83992886D01*
X116577114Y-84185799D01*
X116803957Y-84337371D01*
X116906873Y-84380000D01*
X116803957Y-84422629D01*
X116577114Y-84574201D01*
X116384201Y-84767114D01*
X116232629Y-84993957D01*
X116128225Y-85246011D01*
X116075000Y-85513589D01*
X116075000Y-85786411D01*
X116128225Y-86053989D01*
X116232629Y-86306043D01*
X116384201Y-86532886D01*
X116577114Y-86725799D01*
X116803957Y-86877371D01*
X116903279Y-86918511D01*
X116861168Y-86933723D01*
X116748137Y-86994140D01*
X116682612Y-87233007D01*
X117460000Y-88010395D01*
X118237388Y-87233007D01*
X118171863Y-86994140D01*
X118013523Y-86919836D01*
X118116043Y-86877371D01*
X118342886Y-86725799D01*
X118535799Y-86532886D01*
X118687371Y-86306043D01*
X118791775Y-86053989D01*
X118845000Y-85786411D01*
X118845000Y-85513589D01*
X118791775Y-85246011D01*
X118687371Y-84993957D01*
X118535799Y-84767114D01*
X118342886Y-84574201D01*
X118116043Y-84422629D01*
X118013127Y-84380000D01*
X118116043Y-84337371D01*
X118342886Y-84185799D01*
X118535799Y-83992886D01*
X118687371Y-83766043D01*
X118791775Y-83513989D01*
X118845000Y-83246411D01*
X118845000Y-82973589D01*
X118791775Y-82706011D01*
X118687371Y-82453957D01*
X118535799Y-82227114D01*
X118342886Y-82034201D01*
X118116043Y-81882629D01*
X117863989Y-81778225D01*
X117596411Y-81725000D01*
X117323589Y-81725000D01*
X117056011Y-81778225D01*
X116803957Y-81882629D01*
X116577114Y-82034201D01*
X116384201Y-82227114D01*
X116232629Y-82453957D01*
X116128225Y-82706011D01*
X116075000Y-82973589D01*
X109823799Y-82973589D01*
X108339212Y-81489003D01*
X108315409Y-81459999D01*
X108199684Y-81365026D01*
X108067655Y-81294454D01*
X107924394Y-81250997D01*
X107812741Y-81240000D01*
X107812730Y-81240000D01*
X107775408Y-81236324D01*
X107738086Y-81240000D01*
X106438072Y-81240000D01*
X106438072Y-81200000D01*
X106425812Y-81075518D01*
X106389502Y-80955820D01*
X106330537Y-80845506D01*
X106251185Y-80748815D01*
X106154494Y-80669463D01*
X106044180Y-80610498D01*
X105924482Y-80574188D01*
X105800000Y-80561928D01*
X104200000Y-80561928D01*
X104075518Y-80574188D01*
X103955820Y-80610498D01*
X103845506Y-80669463D01*
X103748815Y-80748815D01*
X103669463Y-80845506D01*
X103610498Y-80955820D01*
X103574188Y-81075518D01*
X103561928Y-81200000D01*
X103561928Y-82800000D01*
X103574188Y-82924482D01*
X103610498Y-83044180D01*
X103669463Y-83154494D01*
X103748815Y-83251185D01*
X103845506Y-83330537D01*
X103955820Y-83389502D01*
X104075518Y-83425812D01*
X104200000Y-83438072D01*
X104465725Y-83438072D01*
X104320273Y-83498320D01*
X104085241Y-83655363D01*
X103885363Y-83855241D01*
X103728320Y-84090273D01*
X103620147Y-84351426D01*
X103565000Y-84628665D01*
X103565000Y-84846569D01*
X103146414Y-84427982D01*
X103274637Y-84299759D01*
X103431680Y-84064727D01*
X103539853Y-83803574D01*
X103595000Y-83526335D01*
X103595000Y-83243665D01*
X103539853Y-82966426D01*
X103431680Y-82705273D01*
X103274637Y-82470241D01*
X103074759Y-82270363D01*
X102839727Y-82113320D01*
X102578574Y-82005147D01*
X102301335Y-81950000D01*
X102018665Y-81950000D01*
X101741426Y-82005147D01*
X101480273Y-82113320D01*
X101245241Y-82270363D01*
X101045363Y-82470241D01*
X100888320Y-82705273D01*
X100780147Y-82966426D01*
X100725000Y-83243665D01*
X100710000Y-83243665D01*
X100710000Y-74780475D01*
X102065000Y-74780475D01*
X102065000Y-75299525D01*
X102166261Y-75808601D01*
X102364893Y-76288141D01*
X102653262Y-76719715D01*
X103020285Y-77086738D01*
X103451859Y-77375107D01*
X103931399Y-77573739D01*
X104440475Y-77675000D01*
X104959525Y-77675000D01*
X105468601Y-77573739D01*
X105948141Y-77375107D01*
X106379715Y-77086738D01*
X106746738Y-76719715D01*
X107035107Y-76288141D01*
X107233739Y-75808601D01*
X107335000Y-75299525D01*
X107335000Y-74780475D01*
X107310392Y-74656758D01*
X108515000Y-74656758D01*
X108515000Y-75343242D01*
X108648927Y-76016537D01*
X108911633Y-76650766D01*
X109293024Y-77221558D01*
X109778442Y-77706976D01*
X110349234Y-78088367D01*
X110983463Y-78351073D01*
X111656758Y-78485000D01*
X112343242Y-78485000D01*
X113016537Y-78351073D01*
X113650766Y-78088367D01*
X114221558Y-77706976D01*
X114706976Y-77221558D01*
X115088367Y-76650766D01*
X115351073Y-76016537D01*
X115485000Y-75343242D01*
X115485000Y-74656758D01*
X115351073Y-73983463D01*
X115088367Y-73349234D01*
X114706976Y-72778442D01*
X114221558Y-72293024D01*
X113650766Y-71911633D01*
X113016537Y-71648927D01*
X112343242Y-71515000D01*
X111656758Y-71515000D01*
X110983463Y-71648927D01*
X110349234Y-71911633D01*
X109778442Y-72293024D01*
X109293024Y-72778442D01*
X108911633Y-73349234D01*
X108648927Y-73983463D01*
X108515000Y-74656758D01*
X107310392Y-74656758D01*
X107233739Y-74271399D01*
X107035107Y-73791859D01*
X106746738Y-73360285D01*
X106379715Y-72993262D01*
X105948141Y-72704893D01*
X105468601Y-72506261D01*
X104959525Y-72405000D01*
X104440475Y-72405000D01*
X103931399Y-72506261D01*
X103451859Y-72704893D01*
X103020285Y-72993262D01*
X102653262Y-73360285D01*
X102364893Y-73791859D01*
X102166261Y-74271399D01*
X102065000Y-74780475D01*
X100710000Y-74780475D01*
X100710000Y-70710000D01*
X114824566Y-70710000D01*
X128435450Y-77873623D01*
G04 #@! TA.AperFunction,Conductor*
D20*
G36*
X128435450Y-77873623D02*
G01*
X128388698Y-77892988D01*
X128039017Y-78126637D01*
X127741637Y-78424017D01*
X127507988Y-78773698D01*
X127347047Y-79162244D01*
X127265000Y-79574721D01*
X127265000Y-79772799D01*
X127009218Y-79666851D01*
X126572591Y-79580000D01*
X126127409Y-79580000D01*
X125690782Y-79666851D01*
X125279489Y-79837214D01*
X124909334Y-80084544D01*
X124594544Y-80399334D01*
X124347214Y-80769489D01*
X124176851Y-81180782D01*
X124090000Y-81617409D01*
X124090000Y-82062591D01*
X124176851Y-82499218D01*
X124347214Y-82910511D01*
X124594544Y-83280666D01*
X124909334Y-83595456D01*
X125279489Y-83842786D01*
X125690782Y-84013149D01*
X126127409Y-84100000D01*
X126572591Y-84100000D01*
X127009218Y-84013149D01*
X127420511Y-83842786D01*
X127790666Y-83595456D01*
X128105456Y-83280666D01*
X128352786Y-82910511D01*
X128523149Y-82499218D01*
X128610000Y-82062591D01*
X128610000Y-81768678D01*
X128777244Y-81837953D01*
X129189721Y-81920000D01*
X129610279Y-81920000D01*
X130022756Y-81837953D01*
X130411302Y-81677012D01*
X130760983Y-81443363D01*
X131058363Y-81145983D01*
X131292012Y-80796302D01*
X131452953Y-80407756D01*
X131535000Y-79995279D01*
X131535000Y-79574721D01*
X131519502Y-79496808D01*
X133290000Y-80428649D01*
X133290001Y-94571350D01*
X131535000Y-95495035D01*
X131535000Y-95114721D01*
X131452953Y-94702244D01*
X131292012Y-94313698D01*
X131058363Y-93964017D01*
X130760983Y-93666637D01*
X130411302Y-93432988D01*
X130022756Y-93272047D01*
X129610279Y-93190000D01*
X129189721Y-93190000D01*
X128777244Y-93272047D01*
X128610000Y-93341322D01*
X128610000Y-93047409D01*
X128523149Y-92610782D01*
X128352786Y-92199489D01*
X128105456Y-91829334D01*
X127790666Y-91514544D01*
X127420511Y-91267214D01*
X127009218Y-91096851D01*
X126572591Y-91010000D01*
X126127409Y-91010000D01*
X125690782Y-91096851D01*
X125279489Y-91267214D01*
X124909334Y-91514544D01*
X124594544Y-91829334D01*
X124347214Y-92199489D01*
X124176851Y-92610782D01*
X124090000Y-93047409D01*
X124090000Y-93492591D01*
X124176851Y-93929218D01*
X124347214Y-94340511D01*
X124594544Y-94710666D01*
X124909334Y-95025456D01*
X125279489Y-95272786D01*
X125690782Y-95443149D01*
X126127409Y-95530000D01*
X126572591Y-95530000D01*
X127009218Y-95443149D01*
X127265000Y-95337201D01*
X127265000Y-95535279D01*
X127347047Y-95947756D01*
X127507988Y-96336302D01*
X127741637Y-96685983D01*
X128039017Y-96983363D01*
X128333420Y-97180077D01*
X114824566Y-104290000D01*
X114465123Y-104290000D01*
X114430225Y-104293437D01*
X114423738Y-104293437D01*
X114413879Y-104294473D01*
X114371913Y-104299180D01*
X114360816Y-104300273D01*
X114360022Y-104300514D01*
X114316905Y-104305350D01*
X114253977Y-104318726D01*
X114190832Y-104331229D01*
X114181362Y-104334160D01*
X114088347Y-104363666D01*
X114029187Y-104389022D01*
X113969705Y-104413539D01*
X113960985Y-104418254D01*
X113875472Y-104465265D01*
X113822391Y-104501610D01*
X113768772Y-104537235D01*
X113761134Y-104543554D01*
X113686382Y-104606279D01*
X113641370Y-104652244D01*
X113595700Y-104697596D01*
X113589435Y-104705278D01*
X113528289Y-104781328D01*
X113493059Y-104835164D01*
X113467539Y-104873000D01*
X110532520Y-104873000D01*
X110503102Y-104829388D01*
X110467848Y-104775514D01*
X110461582Y-104767832D01*
X110399381Y-104692643D01*
X110353731Y-104647311D01*
X110308701Y-104601327D01*
X110301062Y-104595008D01*
X110225441Y-104533332D01*
X110171853Y-104497728D01*
X110118738Y-104461359D01*
X110110017Y-104456644D01*
X110023856Y-104410832D01*
X109964388Y-104386321D01*
X109905220Y-104360962D01*
X109895751Y-104358031D01*
X109802333Y-104329826D01*
X109739213Y-104317328D01*
X109676257Y-104303946D01*
X109666398Y-104302910D01*
X109569281Y-104293388D01*
X109569277Y-104293388D01*
X109534877Y-104290000D01*
X105465123Y-104290000D01*
X105430225Y-104293437D01*
X105423738Y-104293437D01*
X105413879Y-104294473D01*
X105371913Y-104299180D01*
X105360816Y-104300273D01*
X105360022Y-104300514D01*
X105316905Y-104305350D01*
X105253977Y-104318726D01*
X105190832Y-104331229D01*
X105181362Y-104334160D01*
X105088347Y-104363666D01*
X105029187Y-104389022D01*
X104969705Y-104413539D01*
X104960985Y-104418254D01*
X104875472Y-104465265D01*
X104822391Y-104501610D01*
X104768772Y-104537235D01*
X104761134Y-104543554D01*
X104686382Y-104606279D01*
X104641370Y-104652244D01*
X104595700Y-104697596D01*
X104589435Y-104705278D01*
X104528289Y-104781328D01*
X104493059Y-104835164D01*
X104457067Y-104888525D01*
X104452413Y-104897278D01*
X104407203Y-104983758D01*
X104383105Y-105043403D01*
X104358161Y-105102741D01*
X104355296Y-105112232D01*
X104327744Y-105205843D01*
X104315690Y-105269035D01*
X104302745Y-105332095D01*
X104301778Y-105341961D01*
X104292934Y-105439144D01*
X104293383Y-105503458D01*
X104292934Y-105567839D01*
X104293901Y-105577705D01*
X104304101Y-105674754D01*
X104317045Y-105737811D01*
X104329099Y-105801001D01*
X104331964Y-105810491D01*
X104360820Y-105903710D01*
X104385752Y-105963021D01*
X104409865Y-106022702D01*
X104414519Y-106031454D01*
X104460932Y-106117292D01*
X104496898Y-106170612D01*
X104532152Y-106224486D01*
X104538417Y-106232168D01*
X104600619Y-106307357D01*
X104646269Y-106352689D01*
X104691299Y-106398673D01*
X104698938Y-106404992D01*
X104774559Y-106466668D01*
X104828147Y-106502272D01*
X104881262Y-106538641D01*
X104889983Y-106543356D01*
X104976144Y-106589168D01*
X105035612Y-106613679D01*
X105094780Y-106639038D01*
X105104249Y-106641969D01*
X105197667Y-106670174D01*
X105260787Y-106682672D01*
X105323743Y-106696054D01*
X105333602Y-106697090D01*
X105430719Y-106706612D01*
X105430723Y-106706612D01*
X105465123Y-106710000D01*
X109534877Y-106710000D01*
X109569775Y-106706563D01*
X109576262Y-106706563D01*
X109586120Y-106705527D01*
X109628082Y-106700820D01*
X109639184Y-106699727D01*
X109639978Y-106699486D01*
X109683095Y-106694650D01*
X109746017Y-106681276D01*
X109809168Y-106668771D01*
X109818638Y-106665840D01*
X109911653Y-106636334D01*
X109970813Y-106610978D01*
X110030295Y-106586461D01*
X110039015Y-106581746D01*
X110124528Y-106534735D01*
X110177609Y-106498390D01*
X110231228Y-106462765D01*
X110238866Y-106456446D01*
X110313618Y-106393721D01*
X110358630Y-106347756D01*
X110404300Y-106302404D01*
X110410565Y-106294722D01*
X110471711Y-106218672D01*
X110506963Y-106164802D01*
X110532461Y-106127000D01*
X113467480Y-106127000D01*
X113496898Y-106170612D01*
X113532152Y-106224486D01*
X113538417Y-106232168D01*
X113600619Y-106307357D01*
X113646269Y-106352689D01*
X113691299Y-106398673D01*
X113698938Y-106404992D01*
X113774559Y-106466668D01*
X113828147Y-106502272D01*
X113881262Y-106538641D01*
X113889983Y-106543356D01*
X113976144Y-106589168D01*
X114035612Y-106613679D01*
X114094780Y-106639038D01*
X114104249Y-106641969D01*
X114197667Y-106670174D01*
X114260787Y-106682672D01*
X114323743Y-106696054D01*
X114333602Y-106697090D01*
X114430719Y-106706612D01*
X114430723Y-106706612D01*
X114465123Y-106710000D01*
X114824566Y-106710000D01*
X128435450Y-113873623D01*
X128388698Y-113892988D01*
X128039017Y-114126637D01*
X127741637Y-114424017D01*
X127507988Y-114773698D01*
X127347047Y-115162244D01*
X127265000Y-115574721D01*
X127265000Y-115772799D01*
X127009218Y-115666851D01*
X126572591Y-115580000D01*
X126127409Y-115580000D01*
X125690782Y-115666851D01*
X125279489Y-115837214D01*
X124909334Y-116084544D01*
X124594544Y-116399334D01*
X124347214Y-116769489D01*
X124176851Y-117180782D01*
X124090000Y-117617409D01*
X124090000Y-118062591D01*
X124176851Y-118499218D01*
X124347214Y-118910511D01*
X124594544Y-119280666D01*
X124909334Y-119595456D01*
X125279489Y-119842786D01*
X125690782Y-120013149D01*
X126127409Y-120100000D01*
X126572591Y-120100000D01*
X127009218Y-120013149D01*
X127420511Y-119842786D01*
X127790666Y-119595456D01*
X128105456Y-119280666D01*
X128352786Y-118910511D01*
X128523149Y-118499218D01*
X128610000Y-118062591D01*
X128610000Y-117768678D01*
X128777244Y-117837953D01*
X129189721Y-117920000D01*
X129610279Y-117920000D01*
X130022756Y-117837953D01*
X130411302Y-117677012D01*
X130760983Y-117443363D01*
X131058363Y-117145983D01*
X131292012Y-116796302D01*
X131452953Y-116407756D01*
X131535000Y-115995279D01*
X131535000Y-115574721D01*
X131519502Y-115496808D01*
X133290000Y-116428649D01*
X133290001Y-130571350D01*
X131535000Y-131495035D01*
X131535000Y-131114721D01*
X131452953Y-130702244D01*
X131292012Y-130313698D01*
X131058363Y-129964017D01*
X130760983Y-129666637D01*
X130411302Y-129432988D01*
X130022756Y-129272047D01*
X129610279Y-129190000D01*
X129189721Y-129190000D01*
X128777244Y-129272047D01*
X128610000Y-129341322D01*
X128610000Y-129047409D01*
X128523149Y-128610782D01*
X128352786Y-128199489D01*
X128105456Y-127829334D01*
X127790666Y-127514544D01*
X127420511Y-127267214D01*
X127009218Y-127096851D01*
X126572591Y-127010000D01*
X126127409Y-127010000D01*
X125690782Y-127096851D01*
X125279489Y-127267214D01*
X124909334Y-127514544D01*
X124594544Y-127829334D01*
X124347214Y-128199489D01*
X124176851Y-128610782D01*
X124090000Y-129047409D01*
X124090000Y-129492591D01*
X124176851Y-129929218D01*
X124347214Y-130340511D01*
X124594544Y-130710666D01*
X124909334Y-131025456D01*
X125279489Y-131272786D01*
X125690782Y-131443149D01*
X126127409Y-131530000D01*
X126572591Y-131530000D01*
X127009218Y-131443149D01*
X127265000Y-131337201D01*
X127265000Y-131535279D01*
X127347047Y-131947756D01*
X127507988Y-132336302D01*
X127741637Y-132685983D01*
X128039017Y-132983363D01*
X128333420Y-133180077D01*
X114824566Y-140290000D01*
X100710000Y-140290000D01*
X100710000Y-135700475D01*
X102065000Y-135700475D01*
X102065000Y-136219525D01*
X102166261Y-136728601D01*
X102364893Y-137208141D01*
X102653262Y-137639715D01*
X103020285Y-138006738D01*
X103451859Y-138295107D01*
X103931399Y-138493739D01*
X104440475Y-138595000D01*
X104959525Y-138595000D01*
X105468601Y-138493739D01*
X105948141Y-138295107D01*
X106379715Y-138006738D01*
X106746738Y-137639715D01*
X107035107Y-137208141D01*
X107233739Y-136728601D01*
X107335000Y-136219525D01*
X107335000Y-135700475D01*
X107326305Y-135656758D01*
X108515000Y-135656758D01*
X108515000Y-136343242D01*
X108648927Y-137016537D01*
X108911633Y-137650766D01*
X109293024Y-138221558D01*
X109778442Y-138706976D01*
X110349234Y-139088367D01*
X110983463Y-139351073D01*
X111656758Y-139485000D01*
X112343242Y-139485000D01*
X113016537Y-139351073D01*
X113650766Y-139088367D01*
X114221558Y-138706976D01*
X114706976Y-138221558D01*
X115088367Y-137650766D01*
X115351073Y-137016537D01*
X115485000Y-136343242D01*
X115485000Y-135656758D01*
X115351073Y-134983463D01*
X115088367Y-134349234D01*
X114706976Y-133778442D01*
X114221558Y-133293024D01*
X113650766Y-132911633D01*
X113016537Y-132648927D01*
X112343242Y-132515000D01*
X111656758Y-132515000D01*
X110983463Y-132648927D01*
X110349234Y-132911633D01*
X109778442Y-133293024D01*
X109293024Y-133778442D01*
X108911633Y-134349234D01*
X108648927Y-134983463D01*
X108515000Y-135656758D01*
X107326305Y-135656758D01*
X107233739Y-135191399D01*
X107035107Y-134711859D01*
X106746738Y-134280285D01*
X106379715Y-133913262D01*
X105948141Y-133624893D01*
X105468601Y-133426261D01*
X104959525Y-133325000D01*
X104440475Y-133325000D01*
X103931399Y-133426261D01*
X103451859Y-133624893D01*
X103020285Y-133913262D01*
X102653262Y-134280285D01*
X102364893Y-134711859D01*
X102166261Y-135191399D01*
X102065000Y-135700475D01*
X100710000Y-135700475D01*
X100710000Y-119163665D01*
X100725000Y-119163665D01*
X100725000Y-119446335D01*
X100780147Y-119723574D01*
X100888320Y-119984727D01*
X101045363Y-120219759D01*
X101245241Y-120419637D01*
X101480273Y-120576680D01*
X101741426Y-120684853D01*
X101767301Y-120690000D01*
X101741426Y-120695147D01*
X101480273Y-120803320D01*
X101245241Y-120960363D01*
X101045363Y-121160241D01*
X100888320Y-121395273D01*
X100780147Y-121656426D01*
X100725000Y-121933665D01*
X100725000Y-122216335D01*
X100780147Y-122493574D01*
X100888320Y-122754727D01*
X101045363Y-122989759D01*
X101245241Y-123189637D01*
X101480273Y-123346680D01*
X101741426Y-123454853D01*
X101767301Y-123460000D01*
X101741426Y-123465147D01*
X101480273Y-123573320D01*
X101245241Y-123730363D01*
X101045363Y-123930241D01*
X100888320Y-124165273D01*
X100780147Y-124426426D01*
X100725000Y-124703665D01*
X100725000Y-124986335D01*
X100780147Y-125263574D01*
X100888320Y-125524727D01*
X101045363Y-125759759D01*
X101245241Y-125959637D01*
X101480273Y-126116680D01*
X101741426Y-126224853D01*
X101767301Y-126230000D01*
X101741426Y-126235147D01*
X101480273Y-126343320D01*
X101245241Y-126500363D01*
X101045363Y-126700241D01*
X100888320Y-126935273D01*
X100780147Y-127196426D01*
X100725000Y-127473665D01*
X100725000Y-127756335D01*
X100780147Y-128033574D01*
X100888320Y-128294727D01*
X101045363Y-128529759D01*
X101245241Y-128729637D01*
X101480273Y-128886680D01*
X101741426Y-128994853D01*
X102018665Y-129050000D01*
X102301335Y-129050000D01*
X102578574Y-128994853D01*
X102839727Y-128886680D01*
X103074759Y-128729637D01*
X103274637Y-128529759D01*
X103431680Y-128294727D01*
X103539853Y-128033574D01*
X103595000Y-127756335D01*
X103595000Y-127564803D01*
X103765400Y-127735204D01*
X103748815Y-127748815D01*
X103669463Y-127845506D01*
X103610498Y-127955820D01*
X103574188Y-128075518D01*
X103561928Y-128200000D01*
X103561928Y-129800000D01*
X103574188Y-129924482D01*
X103610498Y-130044180D01*
X103669463Y-130154494D01*
X103748815Y-130251185D01*
X103845506Y-130330537D01*
X103955820Y-130389502D01*
X104075518Y-130425812D01*
X104200000Y-130438072D01*
X105800000Y-130438072D01*
X105924482Y-130425812D01*
X106044180Y-130389502D01*
X106154494Y-130330537D01*
X106251185Y-130251185D01*
X106330537Y-130154494D01*
X106389502Y-130044180D01*
X106425812Y-129924482D01*
X106438072Y-129800000D01*
X106438072Y-128200000D01*
X106429701Y-128115001D01*
X116797677Y-128115001D01*
X116834999Y-128118677D01*
X116872321Y-128115001D01*
X118611928Y-128115001D01*
X118611928Y-128750000D01*
X118624188Y-128874482D01*
X118660498Y-128994180D01*
X118719463Y-129104494D01*
X118798815Y-129201185D01*
X118895506Y-129280537D01*
X119005820Y-129339502D01*
X119125518Y-129375812D01*
X119250000Y-129388072D01*
X120750000Y-129388072D01*
X120874482Y-129375812D01*
X120994180Y-129339502D01*
X121104494Y-129280537D01*
X121201185Y-129201185D01*
X121280537Y-129104494D01*
X121339502Y-128994180D01*
X121375812Y-128874482D01*
X121388072Y-128750000D01*
X121388072Y-127250000D01*
X121375812Y-127125518D01*
X121339502Y-127005820D01*
X121280537Y-126895506D01*
X121201185Y-126798815D01*
X121104494Y-126719463D01*
X120994180Y-126660498D01*
X120874482Y-126624188D01*
X120766517Y-126613555D01*
X120882886Y-126535799D01*
X121075799Y-126342886D01*
X121227371Y-126116043D01*
X121331775Y-125863989D01*
X121385000Y-125596411D01*
X121385000Y-125323589D01*
X121331775Y-125056011D01*
X121227371Y-124803957D01*
X121075799Y-124577114D01*
X120882886Y-124384201D01*
X120656043Y-124232629D01*
X120553127Y-124190000D01*
X120656043Y-124147371D01*
X120882886Y-123995799D01*
X121075799Y-123802886D01*
X121227371Y-123576043D01*
X121331775Y-123323989D01*
X121385000Y-123056411D01*
X121385000Y-122783589D01*
X121331775Y-122516011D01*
X121227371Y-122263957D01*
X121075799Y-122037114D01*
X120882886Y-121844201D01*
X120656043Y-121692629D01*
X120553127Y-121650000D01*
X120656043Y-121607371D01*
X120882886Y-121455799D01*
X121075799Y-121262886D01*
X121227371Y-121036043D01*
X121331775Y-120783989D01*
X121385000Y-120516411D01*
X121385000Y-120243589D01*
X121331775Y-119976011D01*
X121227371Y-119723957D01*
X121075799Y-119497114D01*
X120882886Y-119304201D01*
X120656043Y-119152629D01*
X120403989Y-119048225D01*
X120136411Y-118995000D01*
X119863589Y-118995000D01*
X119596011Y-119048225D01*
X119343957Y-119152629D01*
X119117114Y-119304201D01*
X118924201Y-119497114D01*
X118772629Y-119723957D01*
X118668225Y-119976011D01*
X118615000Y-120243589D01*
X118615000Y-120516411D01*
X118668225Y-120783989D01*
X118772629Y-121036043D01*
X118924201Y-121262886D01*
X119117114Y-121455799D01*
X119343957Y-121607371D01*
X119446873Y-121650000D01*
X119343957Y-121692629D01*
X119117114Y-121844201D01*
X118924201Y-122037114D01*
X118772629Y-122263957D01*
X118668225Y-122516011D01*
X118615000Y-122783589D01*
X118615000Y-123056411D01*
X118668225Y-123323989D01*
X118772629Y-123576043D01*
X118924201Y-123802886D01*
X119117114Y-123995799D01*
X119343957Y-124147371D01*
X119446873Y-124190000D01*
X119343957Y-124232629D01*
X119117114Y-124384201D01*
X118924201Y-124577114D01*
X118772629Y-124803957D01*
X118668225Y-125056011D01*
X118615000Y-125323589D01*
X118615000Y-125596411D01*
X118668225Y-125863989D01*
X118772629Y-126116043D01*
X118924201Y-126342886D01*
X119117114Y-126535799D01*
X119205716Y-126595001D01*
X118845000Y-126595001D01*
X118845000Y-126593589D01*
X118791775Y-126326011D01*
X118687371Y-126073957D01*
X118535799Y-125847114D01*
X118342886Y-125654201D01*
X118116043Y-125502629D01*
X118016721Y-125461489D01*
X118058832Y-125446277D01*
X118171863Y-125385860D01*
X118237388Y-125146993D01*
X117460000Y-124369605D01*
X116682612Y-125146993D01*
X116748137Y-125385860D01*
X116906477Y-125460164D01*
X116803957Y-125502629D01*
X116577114Y-125654201D01*
X116384201Y-125847114D01*
X116232629Y-126073957D01*
X116128225Y-126326011D01*
X116075000Y-126593589D01*
X116075000Y-126595001D01*
X113589800Y-126595001D01*
X116077334Y-124107468D01*
X116070188Y-124262492D01*
X116111035Y-124532238D01*
X116203723Y-124788832D01*
X116264140Y-124901863D01*
X116503007Y-124967388D01*
X117280395Y-124190000D01*
X117639605Y-124190000D01*
X118416993Y-124967388D01*
X118655860Y-124901863D01*
X118771760Y-124654884D01*
X118837250Y-124390040D01*
X118849812Y-124117508D01*
X118808965Y-123847762D01*
X118716277Y-123591168D01*
X118655860Y-123478137D01*
X118416993Y-123412612D01*
X117639605Y-124190000D01*
X117280395Y-124190000D01*
X117266253Y-124175858D01*
X117445858Y-123996253D01*
X117460000Y-124010395D01*
X118237388Y-123233007D01*
X118171863Y-122994140D01*
X118013523Y-122919836D01*
X118116043Y-122877371D01*
X118342886Y-122725799D01*
X118535799Y-122532886D01*
X118687371Y-122306043D01*
X118791775Y-122053989D01*
X118845000Y-121786411D01*
X118845000Y-121513589D01*
X118791775Y-121246011D01*
X118687371Y-120993957D01*
X118535799Y-120767114D01*
X118342886Y-120574201D01*
X118116043Y-120422629D01*
X118013127Y-120380000D01*
X118116043Y-120337371D01*
X118342886Y-120185799D01*
X118535799Y-119992886D01*
X118687371Y-119766043D01*
X118791775Y-119513989D01*
X118845000Y-119246411D01*
X118845000Y-118973589D01*
X118791775Y-118706011D01*
X118687371Y-118453957D01*
X118535799Y-118227114D01*
X118342886Y-118034201D01*
X118116043Y-117882629D01*
X117863989Y-117778225D01*
X117596411Y-117725000D01*
X117323589Y-117725000D01*
X117056011Y-117778225D01*
X116803957Y-117882629D01*
X116577114Y-118034201D01*
X116384201Y-118227114D01*
X116232629Y-118453957D01*
X116128225Y-118706011D01*
X116075000Y-118973589D01*
X116075000Y-119246411D01*
X116128225Y-119513989D01*
X116232629Y-119766043D01*
X116384201Y-119992886D01*
X116577114Y-120185799D01*
X116803957Y-120337371D01*
X116906873Y-120380000D01*
X116803957Y-120422629D01*
X116577114Y-120574201D01*
X116384201Y-120767114D01*
X116232629Y-120993957D01*
X116128225Y-121246011D01*
X116075000Y-121513589D01*
X116075000Y-121786411D01*
X116103833Y-121931365D01*
X112565199Y-125470000D01*
X111499471Y-125470000D01*
X111494188Y-125469026D01*
X111436818Y-125469830D01*
X111435816Y-125460944D01*
X111431571Y-125417845D01*
X111429910Y-125378377D01*
X111414748Y-125315993D01*
X111401339Y-125253202D01*
X111382277Y-125208951D01*
X111381395Y-125206429D01*
X111368704Y-125159938D01*
X111340043Y-125102498D01*
X111313009Y-125044286D01*
X111284572Y-125005374D01*
X111283149Y-125003110D01*
X111260431Y-124960608D01*
X111219703Y-124910981D01*
X111180387Y-124860237D01*
X111144008Y-124828633D01*
X111142122Y-124826747D01*
X111110518Y-124790368D01*
X111059781Y-124751058D01*
X111010148Y-124710324D01*
X110967642Y-124687604D01*
X110965378Y-124686182D01*
X110926469Y-124657746D01*
X110868257Y-124630712D01*
X110810817Y-124602051D01*
X110764324Y-124589360D01*
X110761806Y-124588479D01*
X110717553Y-124569416D01*
X110654758Y-124556006D01*
X110592378Y-124540845D01*
X110544241Y-124538819D01*
X110541577Y-124538519D01*
X110494175Y-124529780D01*
X110430001Y-124530681D01*
X110365827Y-124529780D01*
X110318426Y-124538518D01*
X110315760Y-124538819D01*
X110267621Y-124540845D01*
X110205229Y-124556009D01*
X110142447Y-124569416D01*
X110098196Y-124588477D01*
X110095673Y-124589360D01*
X110049182Y-124602051D01*
X109991742Y-124630712D01*
X109933530Y-124657746D01*
X109929999Y-124660326D01*
X109926469Y-124657746D01*
X109868257Y-124630712D01*
X109810817Y-124602051D01*
X109764324Y-124589360D01*
X109761806Y-124588479D01*
X109717553Y-124569416D01*
X109654758Y-124556006D01*
X109592378Y-124540845D01*
X109544241Y-124538819D01*
X109541577Y-124538519D01*
X109494175Y-124529780D01*
X109430001Y-124530681D01*
X109365827Y-124529780D01*
X109318426Y-124538518D01*
X109315760Y-124538819D01*
X109267621Y-124540845D01*
X109205229Y-124556009D01*
X109142447Y-124569416D01*
X109098196Y-124588477D01*
X109095673Y-124589360D01*
X109049182Y-124602051D01*
X108991742Y-124630712D01*
X108933530Y-124657746D01*
X108894618Y-124686183D01*
X108892354Y-124687606D01*
X108849852Y-124710324D01*
X108800225Y-124751052D01*
X108749481Y-124790368D01*
X108717877Y-124826747D01*
X108715991Y-124828633D01*
X108679612Y-124860237D01*
X108640302Y-124910974D01*
X108599568Y-124960607D01*
X108576848Y-125003113D01*
X108575426Y-125005377D01*
X108546990Y-125044286D01*
X108519956Y-125102498D01*
X108491295Y-125159938D01*
X108478604Y-125206431D01*
X108477720Y-125208955D01*
X108458656Y-125253215D01*
X108445249Y-125316000D01*
X108430089Y-125378377D01*
X108428426Y-125417881D01*
X108424191Y-125460884D01*
X108423183Y-125469830D01*
X108365813Y-125469026D01*
X108360530Y-125470000D01*
X106218043Y-125470000D01*
X106114637Y-125315241D01*
X105914759Y-125115363D01*
X105679727Y-124958320D01*
X105418574Y-124850147D01*
X105392699Y-124845000D01*
X105418574Y-124839853D01*
X105679727Y-124731680D01*
X105914759Y-124574637D01*
X106114637Y-124374759D01*
X106271680Y-124139727D01*
X106379853Y-123878574D01*
X106435000Y-123601335D01*
X106435000Y-123318665D01*
X106379853Y-123041426D01*
X106271680Y-122780273D01*
X106114637Y-122545241D01*
X105914759Y-122345363D01*
X105679727Y-122188320D01*
X105418574Y-122080147D01*
X105392699Y-122075000D01*
X105418574Y-122069853D01*
X105679727Y-121961680D01*
X105914759Y-121804637D01*
X106114637Y-121604759D01*
X106271680Y-121369727D01*
X106379853Y-121108574D01*
X106435000Y-120831335D01*
X106435000Y-120548665D01*
X106379853Y-120271426D01*
X106271680Y-120010273D01*
X106114637Y-119775241D01*
X105914759Y-119575363D01*
X105679727Y-119418320D01*
X105418574Y-119310147D01*
X105390118Y-119304487D01*
X105616292Y-119223603D01*
X105741514Y-119156671D01*
X105813097Y-118912702D01*
X105000000Y-118099605D01*
X104186903Y-118912702D01*
X104258486Y-119156671D01*
X104513996Y-119277571D01*
X104616289Y-119303212D01*
X104581426Y-119310147D01*
X104320273Y-119418320D01*
X104085241Y-119575363D01*
X103885363Y-119775241D01*
X103728320Y-120010273D01*
X103620147Y-120271426D01*
X103565000Y-120548665D01*
X103565000Y-120831335D01*
X103601312Y-121013887D01*
X103364001Y-121251197D01*
X103345537Y-121266351D01*
X103274637Y-121160241D01*
X103074759Y-120960363D01*
X102839727Y-120803320D01*
X102578574Y-120695147D01*
X102552699Y-120690000D01*
X102578574Y-120684853D01*
X102839727Y-120576680D01*
X103074759Y-120419637D01*
X103274637Y-120219759D01*
X103431680Y-119984727D01*
X103539853Y-119723574D01*
X103595000Y-119446335D01*
X103595000Y-119163665D01*
X103539853Y-118886426D01*
X103431680Y-118625273D01*
X103274637Y-118390241D01*
X103074759Y-118190363D01*
X102839727Y-118033320D01*
X102736380Y-117990512D01*
X103559783Y-117990512D01*
X103601213Y-118270130D01*
X103696397Y-118536292D01*
X103763329Y-118661514D01*
X104007298Y-118733097D01*
X104820395Y-117920000D01*
X105179605Y-117920000D01*
X105992702Y-118733097D01*
X106236671Y-118661514D01*
X106357571Y-118406004D01*
X106426300Y-118131816D01*
X106440217Y-117849488D01*
X106398787Y-117569870D01*
X106303603Y-117303708D01*
X106236671Y-117178486D01*
X105992702Y-117106903D01*
X105179605Y-117920000D01*
X104820395Y-117920000D01*
X104007298Y-117106903D01*
X103763329Y-117178486D01*
X103642429Y-117433996D01*
X103573700Y-117708184D01*
X103559783Y-117990512D01*
X102736380Y-117990512D01*
X102578574Y-117925147D01*
X102301335Y-117870000D01*
X102018665Y-117870000D01*
X101741426Y-117925147D01*
X101480273Y-118033320D01*
X101245241Y-118190363D01*
X101045363Y-118390241D01*
X100888320Y-118625273D01*
X100780147Y-118886426D01*
X100725000Y-119163665D01*
X100710000Y-119163665D01*
X100710000Y-116927298D01*
X104186903Y-116927298D01*
X105000000Y-117740395D01*
X105813097Y-116927298D01*
X105741514Y-116683329D01*
X105486004Y-116562429D01*
X105211816Y-116493700D01*
X104929488Y-116479783D01*
X104649870Y-116521213D01*
X104383708Y-116616397D01*
X104258486Y-116683329D01*
X104186903Y-116927298D01*
X100710000Y-116927298D01*
X100710000Y-110700475D01*
X102065000Y-110700475D01*
X102065000Y-111219525D01*
X102166261Y-111728601D01*
X102364893Y-112208141D01*
X102653262Y-112639715D01*
X103020285Y-113006738D01*
X103451859Y-113295107D01*
X103931399Y-113493739D01*
X104440475Y-113595000D01*
X104959525Y-113595000D01*
X105468601Y-113493739D01*
X105948141Y-113295107D01*
X106379715Y-113006738D01*
X106746738Y-112639715D01*
X107035107Y-112208141D01*
X107233739Y-111728601D01*
X107335000Y-111219525D01*
X107335000Y-110700475D01*
X107326305Y-110656758D01*
X108515000Y-110656758D01*
X108515000Y-111343242D01*
X108648927Y-112016537D01*
X108911633Y-112650766D01*
X109293024Y-113221558D01*
X109778442Y-113706976D01*
X110349234Y-114088367D01*
X110983463Y-114351073D01*
X111656758Y-114485000D01*
X112343242Y-114485000D01*
X113016537Y-114351073D01*
X113650766Y-114088367D01*
X114221558Y-113706976D01*
X114706976Y-113221558D01*
X115088367Y-112650766D01*
X115351073Y-112016537D01*
X115485000Y-111343242D01*
X115485000Y-110656758D01*
X115351073Y-109983463D01*
X115088367Y-109349234D01*
X114706976Y-108778442D01*
X114221558Y-108293024D01*
X113650766Y-107911633D01*
X113016537Y-107648927D01*
X112343242Y-107515000D01*
X111656758Y-107515000D01*
X110983463Y-107648927D01*
X110349234Y-107911633D01*
X109778442Y-108293024D01*
X109293024Y-108778442D01*
X108911633Y-109349234D01*
X108648927Y-109983463D01*
X108515000Y-110656758D01*
X107326305Y-110656758D01*
X107233739Y-110191399D01*
X107035107Y-109711859D01*
X106746738Y-109280285D01*
X106379715Y-108913262D01*
X105948141Y-108624893D01*
X105468601Y-108426261D01*
X104959525Y-108325000D01*
X104440475Y-108325000D01*
X103931399Y-108426261D01*
X103451859Y-108624893D01*
X103020285Y-108913262D01*
X102653262Y-109280285D01*
X102364893Y-109711859D01*
X102166261Y-110191399D01*
X102065000Y-110700475D01*
X100710000Y-110700475D01*
X100710000Y-106688931D01*
X100746017Y-106681276D01*
X100809168Y-106668771D01*
X100818638Y-106665840D01*
X100911653Y-106636334D01*
X100970813Y-106610978D01*
X101030295Y-106586461D01*
X101039015Y-106581746D01*
X101124528Y-106534735D01*
X101177609Y-106498390D01*
X101231228Y-106462765D01*
X101238866Y-106456446D01*
X101313618Y-106393721D01*
X101358630Y-106347756D01*
X101404300Y-106302404D01*
X101410565Y-106294722D01*
X101471711Y-106218672D01*
X101506963Y-106164802D01*
X101532461Y-106127000D01*
X104000000Y-106127000D01*
X104024776Y-106124560D01*
X104048601Y-106117333D01*
X104070557Y-106105597D01*
X104089803Y-106089803D01*
X104105597Y-106070557D01*
X104117333Y-106048601D01*
X104124560Y-106024776D01*
X104127000Y-106000000D01*
X104127000Y-105000000D01*
X104124560Y-104975224D01*
X104117333Y-104951399D01*
X104105597Y-104929443D01*
X104089803Y-104910197D01*
X104070557Y-104894403D01*
X104048601Y-104882667D01*
X104024776Y-104875440D01*
X104000000Y-104873000D01*
X101532520Y-104873000D01*
X101503102Y-104829388D01*
X101467848Y-104775514D01*
X101461582Y-104767832D01*
X101399381Y-104692643D01*
X101353731Y-104647311D01*
X101308701Y-104601327D01*
X101301062Y-104595008D01*
X101225441Y-104533332D01*
X101171853Y-104497728D01*
X101118738Y-104461359D01*
X101110017Y-104456644D01*
X101023856Y-104410832D01*
X100964388Y-104386321D01*
X100905220Y-104360962D01*
X100895751Y-104358031D01*
X100802333Y-104329826D01*
X100739213Y-104317328D01*
X100710000Y-104311118D01*
X100710000Y-99780475D01*
X102065000Y-99780475D01*
X102065000Y-100299525D01*
X102166261Y-100808601D01*
X102364893Y-101288141D01*
X102653262Y-101719715D01*
X103020285Y-102086738D01*
X103451859Y-102375107D01*
X103931399Y-102573739D01*
X104440475Y-102675000D01*
X104959525Y-102675000D01*
X105468601Y-102573739D01*
X105948141Y-102375107D01*
X106379715Y-102086738D01*
X106746738Y-101719715D01*
X107035107Y-101288141D01*
X107233739Y-100808601D01*
X107335000Y-100299525D01*
X107335000Y-99780475D01*
X107310392Y-99656758D01*
X108515000Y-99656758D01*
X108515000Y-100343242D01*
X108648927Y-101016537D01*
X108911633Y-101650766D01*
X109293024Y-102221558D01*
X109778442Y-102706976D01*
X110349234Y-103088367D01*
X110983463Y-103351073D01*
X111656758Y-103485000D01*
X112343242Y-103485000D01*
X113016537Y-103351073D01*
X113650766Y-103088367D01*
X114221558Y-102706976D01*
X114706976Y-102221558D01*
X115088367Y-101650766D01*
X115351073Y-101016537D01*
X115485000Y-100343242D01*
X115485000Y-99656758D01*
X115351073Y-98983463D01*
X115088367Y-98349234D01*
X114706976Y-97778442D01*
X114221558Y-97293024D01*
X113650766Y-96911633D01*
X113016537Y-96648927D01*
X112343242Y-96515000D01*
X111656758Y-96515000D01*
X110983463Y-96648927D01*
X110349234Y-96911633D01*
X109778442Y-97293024D01*
X109293024Y-97778442D01*
X108911633Y-98349234D01*
X108648927Y-98983463D01*
X108515000Y-99656758D01*
X107310392Y-99656758D01*
X107233739Y-99271399D01*
X107035107Y-98791859D01*
X106746738Y-98360285D01*
X106379715Y-97993262D01*
X105948141Y-97704893D01*
X105468601Y-97506261D01*
X104959525Y-97405000D01*
X104440475Y-97405000D01*
X103931399Y-97506261D01*
X103451859Y-97704893D01*
X103020285Y-97993262D01*
X102653262Y-98360285D01*
X102364893Y-98791859D01*
X102166261Y-99271399D01*
X102065000Y-99780475D01*
X100710000Y-99780475D01*
X100710000Y-94072702D01*
X104186903Y-94072702D01*
X104258486Y-94316671D01*
X104513996Y-94437571D01*
X104788184Y-94506300D01*
X105070512Y-94520217D01*
X105350130Y-94478787D01*
X105616292Y-94383603D01*
X105741514Y-94316671D01*
X105813097Y-94072702D01*
X105000000Y-93259605D01*
X104186903Y-94072702D01*
X100710000Y-94072702D01*
X100710000Y-93150512D01*
X103559783Y-93150512D01*
X103601213Y-93430130D01*
X103696397Y-93696292D01*
X103763329Y-93821514D01*
X104007298Y-93893097D01*
X104820395Y-93080000D01*
X105179605Y-93080000D01*
X105992702Y-93893097D01*
X106236671Y-93821514D01*
X106357571Y-93566004D01*
X106426300Y-93291816D01*
X106440217Y-93009488D01*
X106398787Y-92729870D01*
X106303603Y-92463708D01*
X106236671Y-92338486D01*
X105992702Y-92266903D01*
X105179605Y-93080000D01*
X104820395Y-93080000D01*
X104007298Y-92266903D01*
X103763329Y-92338486D01*
X103642429Y-92593996D01*
X103573700Y-92868184D01*
X103559783Y-93150512D01*
X100710000Y-93150512D01*
X100710000Y-83243665D01*
X100725000Y-83243665D01*
X100725000Y-83526335D01*
X100780147Y-83803574D01*
X100888320Y-84064727D01*
X101045363Y-84299759D01*
X101245241Y-84499637D01*
X101405203Y-84606520D01*
X101410144Y-84656680D01*
X101410998Y-84665355D01*
X101454454Y-84808616D01*
X101491826Y-84878534D01*
X101480273Y-84883320D01*
X101245241Y-85040363D01*
X101045363Y-85240241D01*
X100888320Y-85475273D01*
X100780147Y-85736426D01*
X100725000Y-86013665D01*
X100725000Y-86296335D01*
X100780147Y-86573574D01*
X100888320Y-86834727D01*
X101045363Y-87069759D01*
X101245241Y-87269637D01*
X101480273Y-87426680D01*
X101741426Y-87534853D01*
X101767301Y-87540000D01*
X101741426Y-87545147D01*
X101480273Y-87653320D01*
X101245241Y-87810363D01*
X101045363Y-88010241D01*
X100888320Y-88245273D01*
X100780147Y-88506426D01*
X100725000Y-88783665D01*
X100725000Y-89066335D01*
X100780147Y-89343574D01*
X100888320Y-89604727D01*
X101045363Y-89839759D01*
X101245241Y-90039637D01*
X101480273Y-90196680D01*
X101741426Y-90304853D01*
X101767301Y-90310000D01*
X101741426Y-90315147D01*
X101480273Y-90423320D01*
X101245241Y-90580363D01*
X101045363Y-90780241D01*
X100888320Y-91015273D01*
X100780147Y-91276426D01*
X100725000Y-91553665D01*
X100725000Y-91836335D01*
X100780147Y-92113574D01*
X100888320Y-92374727D01*
X101045363Y-92609759D01*
X101245241Y-92809637D01*
X101480273Y-92966680D01*
X101741426Y-93074853D01*
X102018665Y-93130000D01*
X102301335Y-93130000D01*
X102578574Y-93074853D01*
X102839727Y-92966680D01*
X103074759Y-92809637D01*
X103274637Y-92609759D01*
X103431680Y-92374727D01*
X103539853Y-92113574D01*
X103595000Y-91836335D01*
X103595000Y-91553665D01*
X103539853Y-91276426D01*
X103431680Y-91015273D01*
X103274637Y-90780241D01*
X103074759Y-90580363D01*
X102839727Y-90423320D01*
X102578574Y-90315147D01*
X102552699Y-90310000D01*
X102578574Y-90304853D01*
X102839727Y-90196680D01*
X103074759Y-90039637D01*
X103274637Y-89839759D01*
X103431680Y-89604727D01*
X103539853Y-89343574D01*
X103595000Y-89066335D01*
X103595000Y-88783665D01*
X103539853Y-88506426D01*
X103431680Y-88245273D01*
X103274637Y-88010241D01*
X103074759Y-87810363D01*
X102839727Y-87653320D01*
X102578574Y-87545147D01*
X102552699Y-87540000D01*
X102578574Y-87534853D01*
X102839727Y-87426680D01*
X103074759Y-87269637D01*
X103274637Y-87069759D01*
X103420415Y-86851587D01*
X103494829Y-86926001D01*
X103518628Y-86955000D01*
X103547626Y-86978798D01*
X103634352Y-87049973D01*
X103646397Y-87056411D01*
X103646954Y-87056708D01*
X103620147Y-87121426D01*
X103565000Y-87398665D01*
X103565000Y-87681335D01*
X103620147Y-87958574D01*
X103728320Y-88219727D01*
X103885363Y-88454759D01*
X104085241Y-88654637D01*
X104320273Y-88811680D01*
X104581426Y-88919853D01*
X104607301Y-88925000D01*
X104581426Y-88930147D01*
X104320273Y-89038320D01*
X104085241Y-89195363D01*
X103885363Y-89395241D01*
X103728320Y-89630273D01*
X103620147Y-89891426D01*
X103565000Y-90168665D01*
X103565000Y-90451335D01*
X103620147Y-90728574D01*
X103728320Y-90989727D01*
X103885363Y-91224759D01*
X104085241Y-91424637D01*
X104320273Y-91581680D01*
X104581426Y-91689853D01*
X104609882Y-91695513D01*
X104383708Y-91776397D01*
X104258486Y-91843329D01*
X104186903Y-92087298D01*
X105000000Y-92900395D01*
X105813097Y-92087298D01*
X105741514Y-91843329D01*
X105486004Y-91722429D01*
X105383711Y-91696788D01*
X105418574Y-91689853D01*
X105679727Y-91581680D01*
X105914759Y-91424637D01*
X106114637Y-91224759D01*
X106271680Y-90989727D01*
X106379853Y-90728574D01*
X106435000Y-90451335D01*
X106435000Y-90168665D01*
X106379853Y-89891426D01*
X106271680Y-89630273D01*
X106114637Y-89395241D01*
X105914759Y-89195363D01*
X105679727Y-89038320D01*
X105418574Y-88930147D01*
X105392699Y-88925000D01*
X105418574Y-88919853D01*
X105679727Y-88811680D01*
X105914759Y-88654637D01*
X106114637Y-88454759D01*
X106271680Y-88219727D01*
X106379853Y-87958574D01*
X106435000Y-87681335D01*
X106435000Y-87398665D01*
X106390509Y-87174999D01*
X111239196Y-87174999D01*
X116575199Y-92511003D01*
X116598997Y-92540001D01*
X116714722Y-92634974D01*
X116846751Y-92705546D01*
X116990012Y-92749003D01*
X117101665Y-92760000D01*
X117101674Y-92760000D01*
X117138997Y-92763676D01*
X117176320Y-92760000D01*
X118612913Y-92760000D01*
X118624188Y-92874482D01*
X118660498Y-92994180D01*
X118719463Y-93104494D01*
X118798815Y-93201185D01*
X118895506Y-93280537D01*
X119005820Y-93339502D01*
X119125518Y-93375812D01*
X119250000Y-93388072D01*
X120750000Y-93388072D01*
X120874482Y-93375812D01*
X120994180Y-93339502D01*
X121104494Y-93280537D01*
X121201185Y-93201185D01*
X121280537Y-93104494D01*
X121339502Y-92994180D01*
X121375812Y-92874482D01*
X121388072Y-92750000D01*
X121388072Y-91250000D01*
X121375812Y-91125518D01*
X121339502Y-91005820D01*
X121280537Y-90895506D01*
X121201185Y-90798815D01*
X121104494Y-90719463D01*
X120994180Y-90660498D01*
X120874482Y-90624188D01*
X120766517Y-90613555D01*
X120882886Y-90535799D01*
X121075799Y-90342886D01*
X121227371Y-90116043D01*
X121331775Y-89863989D01*
X121385000Y-89596411D01*
X121385000Y-89323589D01*
X121331775Y-89056011D01*
X121227371Y-88803957D01*
X121075799Y-88577114D01*
X120882886Y-88384201D01*
X120656043Y-88232629D01*
X120553127Y-88190000D01*
X120656043Y-88147371D01*
X120882886Y-87995799D01*
X121075799Y-87802886D01*
X121227371Y-87576043D01*
X121331775Y-87323989D01*
X121385000Y-87056411D01*
X121385000Y-86783589D01*
X121331775Y-86516011D01*
X121227371Y-86263957D01*
X121075799Y-86037114D01*
X120882886Y-85844201D01*
X120656043Y-85692629D01*
X120553127Y-85650000D01*
X120656043Y-85607371D01*
X120882886Y-85455799D01*
X121075799Y-85262886D01*
X121227371Y-85036043D01*
X121331775Y-84783989D01*
X121385000Y-84516411D01*
X121385000Y-84243589D01*
X121331775Y-83976011D01*
X121227371Y-83723957D01*
X121075799Y-83497114D01*
X120882886Y-83304201D01*
X120656043Y-83152629D01*
X120403989Y-83048225D01*
X120136411Y-82995000D01*
X119863589Y-82995000D01*
X119596011Y-83048225D01*
X119343957Y-83152629D01*
X119117114Y-83304201D01*
X118924201Y-83497114D01*
X118772629Y-83723957D01*
X118668225Y-83976011D01*
X118615000Y-84243589D01*
X118615000Y-84516411D01*
X118668225Y-84783989D01*
X118772629Y-85036043D01*
X118924201Y-85262886D01*
X119117114Y-85455799D01*
X119343957Y-85607371D01*
X119446873Y-85650000D01*
X119343957Y-85692629D01*
X119117114Y-85844201D01*
X118924201Y-86037114D01*
X118772629Y-86263957D01*
X118668225Y-86516011D01*
X118615000Y-86783589D01*
X118615000Y-87056411D01*
X118668225Y-87323989D01*
X118772629Y-87576043D01*
X118924201Y-87802886D01*
X119117114Y-87995799D01*
X119343957Y-88147371D01*
X119446873Y-88190000D01*
X119343957Y-88232629D01*
X119117114Y-88384201D01*
X118924201Y-88577114D01*
X118772629Y-88803957D01*
X118668225Y-89056011D01*
X118615000Y-89323589D01*
X118615000Y-89596411D01*
X118668225Y-89863989D01*
X118772629Y-90116043D01*
X118924201Y-90342886D01*
X119117114Y-90535799D01*
X119233483Y-90613555D01*
X119125518Y-90624188D01*
X119005820Y-90660498D01*
X118895506Y-90719463D01*
X118845000Y-90760912D01*
X118845000Y-90593589D01*
X118791775Y-90326011D01*
X118687371Y-90073957D01*
X118535799Y-89847114D01*
X118342886Y-89654201D01*
X118116043Y-89502629D01*
X118016721Y-89461489D01*
X118058832Y-89446277D01*
X118171863Y-89385860D01*
X118237388Y-89146993D01*
X117460000Y-88369605D01*
X116682612Y-89146993D01*
X116748137Y-89385860D01*
X116906477Y-89460164D01*
X116803957Y-89502629D01*
X116577114Y-89654201D01*
X116540763Y-89690552D01*
X115112703Y-88262492D01*
X116070188Y-88262492D01*
X116111035Y-88532238D01*
X116203723Y-88788832D01*
X116264140Y-88901863D01*
X116503007Y-88967388D01*
X117280395Y-88190000D01*
X117639605Y-88190000D01*
X118416993Y-88967388D01*
X118655860Y-88901863D01*
X118771760Y-88654884D01*
X118837250Y-88390040D01*
X118849812Y-88117508D01*
X118808965Y-87847762D01*
X118716277Y-87591168D01*
X118655860Y-87478137D01*
X118416993Y-87412612D01*
X117639605Y-88190000D01*
X117280395Y-88190000D01*
X116503007Y-87412612D01*
X116264140Y-87478137D01*
X116148240Y-87725116D01*
X116082750Y-87989960D01*
X116070188Y-88262492D01*
X115112703Y-88262492D01*
X109823799Y-82973589D01*
X116075000Y-82973589D01*
X116075000Y-83246411D01*
X116128225Y-83513989D01*
X116232629Y-83766043D01*
X116384201Y-83992886D01*
X116577114Y-84185799D01*
X116803957Y-84337371D01*
X116906873Y-84380000D01*
X116803957Y-84422629D01*
X116577114Y-84574201D01*
X116384201Y-84767114D01*
X116232629Y-84993957D01*
X116128225Y-85246011D01*
X116075000Y-85513589D01*
X116075000Y-85786411D01*
X116128225Y-86053989D01*
X116232629Y-86306043D01*
X116384201Y-86532886D01*
X116577114Y-86725799D01*
X116803957Y-86877371D01*
X116903279Y-86918511D01*
X116861168Y-86933723D01*
X116748137Y-86994140D01*
X116682612Y-87233007D01*
X117460000Y-88010395D01*
X118237388Y-87233007D01*
X118171863Y-86994140D01*
X118013523Y-86919836D01*
X118116043Y-86877371D01*
X118342886Y-86725799D01*
X118535799Y-86532886D01*
X118687371Y-86306043D01*
X118791775Y-86053989D01*
X118845000Y-85786411D01*
X118845000Y-85513589D01*
X118791775Y-85246011D01*
X118687371Y-84993957D01*
X118535799Y-84767114D01*
X118342886Y-84574201D01*
X118116043Y-84422629D01*
X118013127Y-84380000D01*
X118116043Y-84337371D01*
X118342886Y-84185799D01*
X118535799Y-83992886D01*
X118687371Y-83766043D01*
X118791775Y-83513989D01*
X118845000Y-83246411D01*
X118845000Y-82973589D01*
X118791775Y-82706011D01*
X118687371Y-82453957D01*
X118535799Y-82227114D01*
X118342886Y-82034201D01*
X118116043Y-81882629D01*
X117863989Y-81778225D01*
X117596411Y-81725000D01*
X117323589Y-81725000D01*
X117056011Y-81778225D01*
X116803957Y-81882629D01*
X116577114Y-82034201D01*
X116384201Y-82227114D01*
X116232629Y-82453957D01*
X116128225Y-82706011D01*
X116075000Y-82973589D01*
X109823799Y-82973589D01*
X108339212Y-81489003D01*
X108315409Y-81459999D01*
X108199684Y-81365026D01*
X108067655Y-81294454D01*
X107924394Y-81250997D01*
X107812741Y-81240000D01*
X107812730Y-81240000D01*
X107775408Y-81236324D01*
X107738086Y-81240000D01*
X106438072Y-81240000D01*
X106438072Y-81200000D01*
X106425812Y-81075518D01*
X106389502Y-80955820D01*
X106330537Y-80845506D01*
X106251185Y-80748815D01*
X106154494Y-80669463D01*
X106044180Y-80610498D01*
X105924482Y-80574188D01*
X105800000Y-80561928D01*
X104200000Y-80561928D01*
X104075518Y-80574188D01*
X103955820Y-80610498D01*
X103845506Y-80669463D01*
X103748815Y-80748815D01*
X103669463Y-80845506D01*
X103610498Y-80955820D01*
X103574188Y-81075518D01*
X103561928Y-81200000D01*
X103561928Y-82800000D01*
X103574188Y-82924482D01*
X103610498Y-83044180D01*
X103669463Y-83154494D01*
X103748815Y-83251185D01*
X103845506Y-83330537D01*
X103955820Y-83389502D01*
X104075518Y-83425812D01*
X104200000Y-83438072D01*
X104465725Y-83438072D01*
X104320273Y-83498320D01*
X104085241Y-83655363D01*
X103885363Y-83855241D01*
X103728320Y-84090273D01*
X103620147Y-84351426D01*
X103565000Y-84628665D01*
X103565000Y-84846569D01*
X103146414Y-84427982D01*
X103274637Y-84299759D01*
X103431680Y-84064727D01*
X103539853Y-83803574D01*
X103595000Y-83526335D01*
X103595000Y-83243665D01*
X103539853Y-82966426D01*
X103431680Y-82705273D01*
X103274637Y-82470241D01*
X103074759Y-82270363D01*
X102839727Y-82113320D01*
X102578574Y-82005147D01*
X102301335Y-81950000D01*
X102018665Y-81950000D01*
X101741426Y-82005147D01*
X101480273Y-82113320D01*
X101245241Y-82270363D01*
X101045363Y-82470241D01*
X100888320Y-82705273D01*
X100780147Y-82966426D01*
X100725000Y-83243665D01*
X100710000Y-83243665D01*
X100710000Y-74780475D01*
X102065000Y-74780475D01*
X102065000Y-75299525D01*
X102166261Y-75808601D01*
X102364893Y-76288141D01*
X102653262Y-76719715D01*
X103020285Y-77086738D01*
X103451859Y-77375107D01*
X103931399Y-77573739D01*
X104440475Y-77675000D01*
X104959525Y-77675000D01*
X105468601Y-77573739D01*
X105948141Y-77375107D01*
X106379715Y-77086738D01*
X106746738Y-76719715D01*
X107035107Y-76288141D01*
X107233739Y-75808601D01*
X107335000Y-75299525D01*
X107335000Y-74780475D01*
X107310392Y-74656758D01*
X108515000Y-74656758D01*
X108515000Y-75343242D01*
X108648927Y-76016537D01*
X108911633Y-76650766D01*
X109293024Y-77221558D01*
X109778442Y-77706976D01*
X110349234Y-78088367D01*
X110983463Y-78351073D01*
X111656758Y-78485000D01*
X112343242Y-78485000D01*
X113016537Y-78351073D01*
X113650766Y-78088367D01*
X114221558Y-77706976D01*
X114706976Y-77221558D01*
X115088367Y-76650766D01*
X115351073Y-76016537D01*
X115485000Y-75343242D01*
X115485000Y-74656758D01*
X115351073Y-73983463D01*
X115088367Y-73349234D01*
X114706976Y-72778442D01*
X114221558Y-72293024D01*
X113650766Y-71911633D01*
X113016537Y-71648927D01*
X112343242Y-71515000D01*
X111656758Y-71515000D01*
X110983463Y-71648927D01*
X110349234Y-71911633D01*
X109778442Y-72293024D01*
X109293024Y-72778442D01*
X108911633Y-73349234D01*
X108648927Y-73983463D01*
X108515000Y-74656758D01*
X107310392Y-74656758D01*
X107233739Y-74271399D01*
X107035107Y-73791859D01*
X106746738Y-73360285D01*
X106379715Y-72993262D01*
X105948141Y-72704893D01*
X105468601Y-72506261D01*
X104959525Y-72405000D01*
X104440475Y-72405000D01*
X103931399Y-72506261D01*
X103451859Y-72704893D01*
X103020285Y-72993262D01*
X102653262Y-73360285D01*
X102364893Y-73791859D01*
X102166261Y-74271399D01*
X102065000Y-74780475D01*
X100710000Y-74780475D01*
X100710000Y-70710000D01*
X114824566Y-70710000D01*
X128435450Y-77873623D01*
G37*
G04 #@! TD.AperFunction*
D19*
X110355605Y-85654999D02*
X106134522Y-85654999D01*
X106271680Y-85449727D01*
X106379853Y-85188574D01*
X106435000Y-84911335D01*
X106435000Y-84628665D01*
X106379853Y-84351426D01*
X106271680Y-84090273D01*
X106114637Y-83855241D01*
X105914759Y-83655363D01*
X105679727Y-83498320D01*
X105534275Y-83438072D01*
X105800000Y-83438072D01*
X105924482Y-83425812D01*
X106044180Y-83389502D01*
X106154494Y-83330537D01*
X106251185Y-83251185D01*
X106330537Y-83154494D01*
X106389502Y-83044180D01*
X106425812Y-82924482D01*
X106438072Y-82800000D01*
X106438072Y-82760000D01*
X107460607Y-82760000D01*
X110355605Y-85654999D01*
G04 #@! TA.AperFunction,Conductor*
D20*
G36*
X110355605Y-85654999D02*
G01*
X106134522Y-85654999D01*
X106271680Y-85449727D01*
X106379853Y-85188574D01*
X106435000Y-84911335D01*
X106435000Y-84628665D01*
X106379853Y-84351426D01*
X106271680Y-84090273D01*
X106114637Y-83855241D01*
X105914759Y-83655363D01*
X105679727Y-83498320D01*
X105534275Y-83438072D01*
X105800000Y-83438072D01*
X105924482Y-83425812D01*
X106044180Y-83389502D01*
X106154494Y-83330537D01*
X106251185Y-83251185D01*
X106330537Y-83154494D01*
X106389502Y-83044180D01*
X106425812Y-82924482D01*
X106438072Y-82800000D01*
X106438072Y-82760000D01*
X107460607Y-82760000D01*
X110355605Y-85654999D01*
G37*
G04 #@! TD.AperFunction*
M02*
