G04 #@! TF.GenerationSoftware,KiCad,Pcbnew,5.1.9+dfsg1-1~bpo10+1*
G04 #@! TF.CreationDate,2021-11-01T15:58:22+00:00*
G04 #@! TF.ProjectId,rack-ser-adapter,7261636b-2d73-4657-922d-616461707465,rev?*
G04 #@! TF.SameCoordinates,Original*
G04 #@! TF.FileFunction,Copper,L1,Top*
G04 #@! TF.FilePolarity,Positive*
%FSLAX46Y46*%
G04 Gerber Fmt 4.6, Leading zero omitted, Abs format (unit mm)*
G04 Created by KiCad (PCBNEW 5.1.9+dfsg1-1~bpo10+1) date 2021-11-01 15:58:22*
%MOMM*%
%LPD*%
G01*
G04 APERTURE LIST*
G04 #@! TA.AperFunction,NonConductor*
%ADD10C,0.300000*%
G04 #@! TD*
G04 #@! TA.AperFunction,ComponentPad*
%ADD11R,1.600000X1.600000*%
G04 #@! TD*
G04 #@! TA.AperFunction,ComponentPad*
%ADD12C,1.600000*%
G04 #@! TD*
G04 #@! TA.AperFunction,ComponentPad*
%ADD13C,4.000000*%
G04 #@! TD*
G04 #@! TA.AperFunction,ComponentPad*
%ADD14C,3.000000*%
G04 #@! TD*
G04 #@! TA.AperFunction,ComponentPad*
%ADD15C,1.500000*%
G04 #@! TD*
G04 #@! TA.AperFunction,ComponentPad*
%ADD16R,1.500000X1.500000*%
G04 #@! TD*
G04 #@! TA.AperFunction,ComponentPad*
%ADD17C,5.700000*%
G04 #@! TD*
G04 #@! TA.AperFunction,ViaPad*
%ADD18C,0.600000*%
G04 #@! TD*
G04 #@! TA.AperFunction,Conductor*
%ADD19C,0.250000*%
G04 #@! TD*
G04 #@! TA.AperFunction,Conductor*
%ADD20C,0.254000*%
G04 #@! TD*
G04 #@! TA.AperFunction,Conductor*
%ADD21C,0.100000*%
G04 #@! TD*
G04 APERTURE END LIST*
D10*
X115207142Y-132417857D02*
X115707142Y-132417857D01*
X115921428Y-133203571D02*
X115207142Y-133203571D01*
X115207142Y-131703571D01*
X115921428Y-131703571D01*
X116564285Y-133203571D02*
X116564285Y-131703571D01*
X117207142Y-132775000D02*
X117921428Y-132775000D01*
X117064285Y-133203571D02*
X117564285Y-131703571D01*
X118064285Y-133203571D01*
X118564285Y-132632142D02*
X119707142Y-132632142D01*
X121135714Y-131703571D02*
X120421428Y-131703571D01*
X120350000Y-132417857D01*
X120421428Y-132346428D01*
X120564285Y-132275000D01*
X120921428Y-132275000D01*
X121064285Y-132346428D01*
X121135714Y-132417857D01*
X121207142Y-132560714D01*
X121207142Y-132917857D01*
X121135714Y-133060714D01*
X121064285Y-133132142D01*
X120921428Y-133203571D01*
X120564285Y-133203571D01*
X120421428Y-133132142D01*
X120350000Y-133060714D01*
X122492857Y-131703571D02*
X122207142Y-131703571D01*
X122064285Y-131775000D01*
X121992857Y-131846428D01*
X121850000Y-132060714D01*
X121778571Y-132346428D01*
X121778571Y-132917857D01*
X121850000Y-133060714D01*
X121921428Y-133132142D01*
X122064285Y-133203571D01*
X122350000Y-133203571D01*
X122492857Y-133132142D01*
X122564285Y-133060714D01*
X122635714Y-132917857D01*
X122635714Y-132560714D01*
X122564285Y-132417857D01*
X122492857Y-132346428D01*
X122350000Y-132275000D01*
X122064285Y-132275000D01*
X121921428Y-132346428D01*
X121850000Y-132417857D01*
X121778571Y-132560714D01*
X124064285Y-133203571D02*
X123207142Y-133203571D01*
X123635714Y-133203571D02*
X123635714Y-131703571D01*
X123492857Y-131917857D01*
X123350000Y-132060714D01*
X123207142Y-132132142D01*
X116350000Y-135753571D02*
X116350000Y-134253571D01*
X117207142Y-135753571D01*
X117207142Y-134253571D01*
X118564285Y-134753571D02*
X118564285Y-135753571D01*
X117921428Y-134753571D02*
X117921428Y-135539285D01*
X117992857Y-135682142D01*
X118135714Y-135753571D01*
X118350000Y-135753571D01*
X118492857Y-135682142D01*
X118564285Y-135610714D01*
X119492857Y-135753571D02*
X119350000Y-135682142D01*
X119278571Y-135539285D01*
X119278571Y-134253571D01*
X120278571Y-135753571D02*
X120135714Y-135682142D01*
X120064285Y-135539285D01*
X120064285Y-134253571D01*
X120850000Y-135753571D02*
X120850000Y-134753571D01*
X120850000Y-134896428D02*
X120921428Y-134825000D01*
X121064285Y-134753571D01*
X121278571Y-134753571D01*
X121421428Y-134825000D01*
X121492857Y-134967857D01*
X121492857Y-135753571D01*
X121492857Y-134967857D02*
X121564285Y-134825000D01*
X121707142Y-134753571D01*
X121921428Y-134753571D01*
X122064285Y-134825000D01*
X122135714Y-134967857D01*
X122135714Y-135753571D01*
X122850000Y-135610714D02*
X122921428Y-135682142D01*
X122850000Y-135753571D01*
X122778571Y-135682142D01*
X122850000Y-135610714D01*
X122850000Y-135753571D01*
X115607142Y-96617857D02*
X116107142Y-96617857D01*
X116321428Y-97403571D02*
X115607142Y-97403571D01*
X115607142Y-95903571D01*
X116321428Y-95903571D01*
X116964285Y-97403571D02*
X116964285Y-95903571D01*
X117607142Y-96975000D02*
X118321428Y-96975000D01*
X117464285Y-97403571D02*
X117964285Y-95903571D01*
X118464285Y-97403571D01*
X118964285Y-96832142D02*
X120107142Y-96832142D01*
X121535714Y-95903571D02*
X120821428Y-95903571D01*
X120750000Y-96617857D01*
X120821428Y-96546428D01*
X120964285Y-96475000D01*
X121321428Y-96475000D01*
X121464285Y-96546428D01*
X121535714Y-96617857D01*
X121607142Y-96760714D01*
X121607142Y-97117857D01*
X121535714Y-97260714D01*
X121464285Y-97332142D01*
X121321428Y-97403571D01*
X120964285Y-97403571D01*
X120821428Y-97332142D01*
X120750000Y-97260714D01*
X122892857Y-95903571D02*
X122607142Y-95903571D01*
X122464285Y-95975000D01*
X122392857Y-96046428D01*
X122250000Y-96260714D01*
X122178571Y-96546428D01*
X122178571Y-97117857D01*
X122250000Y-97260714D01*
X122321428Y-97332142D01*
X122464285Y-97403571D01*
X122750000Y-97403571D01*
X122892857Y-97332142D01*
X122964285Y-97260714D01*
X123035714Y-97117857D01*
X123035714Y-96760714D01*
X122964285Y-96617857D01*
X122892857Y-96546428D01*
X122750000Y-96475000D01*
X122464285Y-96475000D01*
X122321428Y-96546428D01*
X122250000Y-96617857D01*
X122178571Y-96760714D01*
X124464285Y-97403571D02*
X123607142Y-97403571D01*
X124035714Y-97403571D02*
X124035714Y-95903571D01*
X123892857Y-96117857D01*
X123750000Y-96260714D01*
X123607142Y-96332142D01*
X119357142Y-99953571D02*
X118500000Y-99953571D01*
X118928571Y-99953571D02*
X118928571Y-98453571D01*
X118785714Y-98667857D01*
X118642857Y-98810714D01*
X118500000Y-98882142D01*
X120000000Y-99810714D02*
X120071428Y-99882142D01*
X120000000Y-99953571D01*
X119928571Y-99882142D01*
X120000000Y-99810714D01*
X120000000Y-99953571D01*
X120000000Y-99025000D02*
X120071428Y-99096428D01*
X120000000Y-99167857D01*
X119928571Y-99096428D01*
X120000000Y-99025000D01*
X120000000Y-99167857D01*
X121500000Y-99953571D02*
X120642857Y-99953571D01*
X121071428Y-99953571D02*
X121071428Y-98453571D01*
X120928571Y-98667857D01*
X120785714Y-98810714D01*
X120642857Y-98882142D01*
D11*
X105000000Y-129000000D03*
D12*
X105000000Y-126230000D03*
X105000000Y-123460000D03*
X105000000Y-120690000D03*
X105000000Y-117920000D03*
X102160000Y-127615000D03*
X102160000Y-124845000D03*
X102160000Y-122075000D03*
X102160000Y-119305000D03*
D13*
X104700000Y-110960000D03*
X104700000Y-135960000D03*
D14*
X129400000Y-79785000D03*
D15*
X120000000Y-89460000D03*
X120000000Y-86920000D03*
X117460000Y-88190000D03*
X120000000Y-84380000D03*
D16*
X120000000Y-92000000D03*
D15*
X117460000Y-90730000D03*
D14*
X129400000Y-95325000D03*
D15*
X117460000Y-83110000D03*
X117460000Y-85650000D03*
D17*
X112000000Y-75000000D03*
X112000000Y-100000000D03*
D11*
X105000000Y-82000000D03*
D12*
X105000000Y-84770000D03*
X105000000Y-87540000D03*
X105000000Y-90310000D03*
X105000000Y-93080000D03*
X102160000Y-83385000D03*
X102160000Y-86155000D03*
X102160000Y-88925000D03*
X102160000Y-91695000D03*
D13*
X104700000Y-75040000D03*
X104700000Y-100040000D03*
D17*
X112000000Y-111000000D03*
X112000000Y-136000000D03*
D14*
X129400000Y-115785000D03*
D15*
X120000000Y-125460000D03*
X120000000Y-122920000D03*
X117460000Y-124190000D03*
X120000000Y-120380000D03*
D16*
X120000000Y-128000000D03*
D15*
X117460000Y-126730000D03*
D14*
X129400000Y-131325000D03*
D15*
X117460000Y-119110000D03*
X117460000Y-121650000D03*
D18*
X112000000Y-84000000D03*
X114000000Y-84000000D03*
X108000000Y-84000000D03*
X109000000Y-85000000D03*
X110800000Y-120500000D03*
X114400000Y-120500000D03*
X120000000Y-117600000D03*
X112600000Y-117600000D03*
D19*
X118535001Y-85455001D02*
X120000000Y-86920000D01*
X118535001Y-82593999D02*
X118535001Y-85455001D01*
X117976001Y-82034999D02*
X118535001Y-82593999D01*
X114090137Y-82034999D02*
X117976001Y-82034999D01*
X114028943Y-82041893D02*
X114090137Y-82034999D01*
X113970818Y-82062232D02*
X114028943Y-82041893D01*
X113918677Y-82094995D02*
X113970818Y-82062232D01*
X113875133Y-82138539D02*
X113918677Y-82094995D01*
X113842370Y-82190680D02*
X113875133Y-82138539D01*
X113822031Y-82248805D02*
X113842370Y-82190680D01*
X113815137Y-82309999D02*
X113822031Y-82248805D01*
X113815137Y-82493123D02*
X113815137Y-82309999D01*
X113808242Y-82554316D02*
X113815137Y-82493123D01*
X113787903Y-82612441D02*
X113808242Y-82554316D01*
X113755140Y-82664582D02*
X113787903Y-82612441D01*
X113711596Y-82708126D02*
X113755140Y-82664582D01*
X113659455Y-82740889D02*
X113711596Y-82708126D01*
X113601330Y-82761228D02*
X113659455Y-82740889D01*
X113540137Y-82768123D02*
X113601330Y-82761228D01*
X113478943Y-82761228D02*
X113540137Y-82768123D01*
X113420818Y-82740889D02*
X113478943Y-82761228D01*
X113368677Y-82708126D02*
X113420818Y-82740889D01*
X113325133Y-82664582D02*
X113368677Y-82708126D01*
X113292370Y-82612441D02*
X113325133Y-82664582D01*
X113272031Y-82554316D02*
X113292370Y-82612441D01*
X113265137Y-82493123D02*
X113272031Y-82554316D01*
X113265137Y-81576875D02*
X113265137Y-82493123D01*
X113258242Y-81515682D02*
X113265137Y-81576875D01*
X113237903Y-81457557D02*
X113258242Y-81515682D01*
X113205140Y-81405416D02*
X113237903Y-81457557D01*
X113161596Y-81361872D02*
X113205140Y-81405416D01*
X113109455Y-81329109D02*
X113161596Y-81361872D01*
X113051330Y-81308770D02*
X113109455Y-81329109D01*
X112990137Y-81301875D02*
X113051330Y-81308770D01*
X111797907Y-82056049D02*
X111842836Y-82040328D01*
X111757603Y-82081374D02*
X111797907Y-82056049D01*
X111698619Y-82155337D02*
X111723944Y-82115033D01*
X111682898Y-82200266D02*
X111698619Y-82155337D01*
X111672239Y-82294867D02*
X111682898Y-82200266D01*
X111631193Y-82380100D02*
X111656518Y-82339796D01*
X111597534Y-82413759D02*
X111631193Y-82380100D01*
X111557230Y-82439084D02*
X111597534Y-82413759D01*
X111656518Y-82339796D02*
X111672239Y-82294867D01*
X111512301Y-82454805D02*
X111557230Y-82439084D01*
X111465001Y-82460135D02*
X111512301Y-82454805D01*
X111390137Y-82460135D02*
X111465001Y-82460135D01*
X111342836Y-82454805D02*
X111390137Y-82460135D01*
X105000000Y-84770000D02*
X107735001Y-82034999D01*
X111131193Y-82115033D02*
X111156518Y-82155337D01*
X111172239Y-82200266D02*
X111182898Y-82294867D01*
X111842836Y-82040328D02*
X111890137Y-82034999D01*
X110965001Y-82034999D02*
X111012301Y-82040328D01*
X111012301Y-82040328D02*
X111057230Y-82056049D01*
X107735001Y-82034999D02*
X110965001Y-82034999D01*
X111057230Y-82056049D02*
X111097534Y-82081374D01*
X111257603Y-82413759D02*
X111297907Y-82439084D01*
X111097534Y-82081374D02*
X111131193Y-82115033D01*
X111156518Y-82155337D02*
X111172239Y-82200266D01*
X111182898Y-82294867D02*
X111198619Y-82339796D01*
X111223944Y-82380100D02*
X111257603Y-82413759D01*
X111723944Y-82115033D02*
X111757603Y-82081374D01*
X111297907Y-82439084D02*
X111342836Y-82454805D01*
X112165137Y-82493123D02*
X112172031Y-82554316D01*
X111198619Y-82339796D02*
X111223944Y-82380100D01*
X112225133Y-82664582D02*
X112268677Y-82708126D01*
X111890137Y-82034999D02*
X111951330Y-82041893D01*
X111951330Y-82041893D02*
X112009455Y-82062232D01*
X112009455Y-82062232D02*
X112061596Y-82094995D01*
X112061596Y-82094995D02*
X112105140Y-82138539D01*
X112105140Y-82138539D02*
X112137903Y-82190680D01*
X112715137Y-81576875D02*
X112722031Y-81515682D01*
X112137903Y-82190680D02*
X112158242Y-82248805D01*
X112158242Y-82248805D02*
X112165137Y-82309999D01*
X112165137Y-82309999D02*
X112165137Y-82493123D01*
X112172031Y-82554316D02*
X112192370Y-82612441D01*
X112192370Y-82612441D02*
X112225133Y-82664582D01*
X112268677Y-82708126D02*
X112320818Y-82740889D01*
X112320818Y-82740889D02*
X112378943Y-82761228D01*
X112378943Y-82761228D02*
X112440137Y-82768123D01*
X112775133Y-81405416D02*
X112818677Y-81361872D01*
X112440137Y-82768123D02*
X112501330Y-82761228D01*
X112501330Y-82761228D02*
X112559455Y-82740889D01*
X112559455Y-82740889D02*
X112611596Y-82708126D01*
X112611596Y-82708126D02*
X112655140Y-82664582D01*
X112655140Y-82664582D02*
X112687903Y-82612441D01*
X112687903Y-82612441D02*
X112708242Y-82554316D01*
X112708242Y-82554316D02*
X112715137Y-82493123D01*
X112715137Y-82493123D02*
X112715137Y-81576875D01*
X112722031Y-81515682D02*
X112742370Y-81457557D01*
X112742370Y-81457557D02*
X112775133Y-81405416D01*
X112818677Y-81361872D02*
X112870818Y-81329109D01*
X112870818Y-81329109D02*
X112928943Y-81308770D01*
X112928943Y-81308770D02*
X112990137Y-81301875D01*
X115800597Y-87309403D02*
X117460000Y-85650000D01*
X113654127Y-87485458D02*
X113701529Y-87515243D01*
X113566268Y-87345631D02*
X113584757Y-87398471D01*
X113560000Y-87290000D02*
X113566268Y-87345631D01*
X113560000Y-86913881D02*
X113560000Y-87290000D01*
X113535242Y-86805411D02*
X113553731Y-86858251D01*
X113505457Y-86758009D02*
X113535242Y-86805411D01*
X113465872Y-86718424D02*
X113505457Y-86758009D01*
X113418470Y-86688639D02*
X113465872Y-86718424D01*
X113066268Y-86858251D02*
X113084757Y-86805411D01*
X113060000Y-86913881D02*
X113066268Y-86858251D01*
X113053731Y-87345631D02*
X113060000Y-87290000D01*
X113005457Y-87445873D02*
X113035242Y-87398471D01*
X112965872Y-87485458D02*
X113005457Y-87445873D01*
X112865630Y-87533732D02*
X112918470Y-87515243D01*
X112810000Y-87540000D02*
X112865630Y-87533732D01*
X112754369Y-87533732D02*
X112810000Y-87540000D01*
X112560000Y-87290000D02*
X112566268Y-87345631D01*
X112560000Y-86913881D02*
X112560000Y-87290000D01*
X112553731Y-86858251D02*
X112560000Y-86913881D01*
X112535242Y-86805411D02*
X112553731Y-86858251D01*
X112465872Y-86718424D02*
X112505457Y-86758009D01*
X112310000Y-86663881D02*
X112365630Y-86670150D01*
X112201529Y-86688639D02*
X112254369Y-86670150D01*
X112060000Y-87290000D02*
X112060000Y-86913881D01*
X112053731Y-87345631D02*
X112060000Y-87290000D01*
X112035242Y-87398471D02*
X112053731Y-87345631D01*
X112005457Y-87445873D02*
X112035242Y-87398471D01*
X111965872Y-87485458D02*
X112005457Y-87445873D01*
X111918470Y-87515243D02*
X111965872Y-87485458D01*
X111865630Y-87533732D02*
X111918470Y-87515243D01*
X111810000Y-87540000D02*
X111865630Y-87533732D01*
X111636118Y-87540000D02*
X111810000Y-87540000D01*
X111599833Y-87535912D02*
X111636118Y-87540000D01*
X111565369Y-87523853D02*
X111599833Y-87535912D01*
X111534452Y-87504426D02*
X111565369Y-87523853D01*
X111508633Y-87478607D02*
X111534452Y-87504426D01*
X111489206Y-87447690D02*
X111508633Y-87478607D01*
X111477147Y-87413226D02*
X111489206Y-87447690D01*
X111468970Y-87340656D02*
X111477147Y-87413226D01*
X111456911Y-87306192D02*
X111468970Y-87340656D01*
X111437484Y-87275275D02*
X111456911Y-87306192D01*
X111411665Y-87249456D02*
X111437484Y-87275275D01*
X111380748Y-87230029D02*
X111411665Y-87249456D01*
X111346284Y-87217970D02*
X111380748Y-87230029D01*
X111310000Y-87213881D02*
X111346284Y-87217970D01*
X111136118Y-87213881D02*
X111310000Y-87213881D01*
X111099833Y-87217970D02*
X111136118Y-87213881D01*
X111065369Y-87230029D02*
X111099833Y-87217970D01*
X111034452Y-87249456D02*
X111065369Y-87230029D01*
X111008633Y-87275275D02*
X111034452Y-87249456D01*
X110989206Y-87306192D02*
X111008633Y-87275275D01*
X110977147Y-87340656D02*
X110989206Y-87306192D01*
X110968970Y-87413226D02*
X110977147Y-87340656D01*
X110956911Y-87447690D02*
X110968970Y-87413226D01*
X110937484Y-87478607D02*
X110956911Y-87447690D01*
X110911665Y-87504426D02*
X110937484Y-87478607D01*
X110880748Y-87523853D02*
X110911665Y-87504426D01*
X110846284Y-87535912D02*
X110880748Y-87523853D01*
X110810000Y-87540000D02*
X110846284Y-87535912D01*
X110536118Y-87540000D02*
X110810000Y-87540000D01*
X110510960Y-87537166D02*
X110536118Y-87540000D01*
X110487063Y-87528804D02*
X110510960Y-87537166D01*
X110465626Y-87515335D02*
X110487063Y-87528804D01*
X110447724Y-87497433D02*
X110465626Y-87515335D01*
X110434255Y-87475996D02*
X110447724Y-87497433D01*
X110425893Y-87452099D02*
X110434255Y-87475996D01*
X108210000Y-86913881D02*
X108216268Y-86858251D01*
X108203731Y-88221749D02*
X108210000Y-88166119D01*
X108210000Y-88166119D02*
X108210000Y-86913881D01*
X108115872Y-88361576D02*
X108155457Y-88321991D01*
X108068470Y-88391361D02*
X108115872Y-88361576D01*
X108015630Y-88409850D02*
X108068470Y-88391361D01*
X113614542Y-87445873D02*
X113654127Y-87485458D01*
X107734757Y-88274589D02*
X107764542Y-88321991D01*
X109925893Y-87401783D02*
X109934255Y-87377886D01*
X112654127Y-87485458D02*
X112701529Y-87515243D01*
X107716268Y-88221749D02*
X107734757Y-88274589D01*
X107764542Y-88321991D02*
X107804127Y-88361576D01*
X106655457Y-87634127D02*
X106685242Y-87681529D01*
X107710000Y-87163881D02*
X107710000Y-88166119D01*
X109880491Y-87515335D02*
X109898393Y-87497433D01*
X107851529Y-88391361D02*
X107904369Y-88409850D01*
X106568470Y-87564757D02*
X106615872Y-87594542D01*
X107703731Y-87108251D02*
X107710000Y-87163881D01*
X112584757Y-87398471D02*
X112614542Y-87445873D01*
X107685242Y-87055411D02*
X107703731Y-87108251D01*
X110420224Y-87401783D02*
X110425893Y-87452099D01*
X113310000Y-86663881D02*
X113365630Y-86670150D01*
X107615872Y-86968424D02*
X107655457Y-87008009D01*
X107568470Y-86938639D02*
X107615872Y-86968424D01*
X113035242Y-87398471D02*
X113053731Y-87345631D01*
X107515630Y-86920150D02*
X107568470Y-86938639D01*
X110380491Y-87338547D02*
X110398393Y-87356449D01*
X108304127Y-86718424D02*
X108351529Y-86688639D01*
X115570000Y-87540000D02*
X115800597Y-87309403D01*
X107460000Y-86913881D02*
X107515630Y-86920150D01*
X109810000Y-87540000D02*
X109835157Y-87537166D01*
X107804127Y-88361576D02*
X107851529Y-88391361D01*
X113701529Y-87515243D02*
X113754369Y-87533732D01*
X107351529Y-86938639D02*
X107404369Y-86920150D01*
X108155457Y-88321991D02*
X108185242Y-88274589D01*
X112254369Y-86670150D02*
X112310000Y-86663881D01*
X106710000Y-88166119D02*
X106716268Y-88221749D01*
X113754369Y-87533732D02*
X113810000Y-87540000D01*
X106703731Y-87734369D02*
X106710000Y-87790000D01*
X108216268Y-86858251D02*
X108234757Y-86805411D01*
X106460000Y-87540000D02*
X106515630Y-87546268D01*
X113084757Y-86805411D02*
X113114542Y-86758009D01*
X107655457Y-87008009D02*
X107685242Y-87055411D01*
X106685242Y-87681529D02*
X106703731Y-87734369D01*
X109185242Y-88274589D02*
X109203731Y-88221749D01*
X113254369Y-86670150D02*
X113310000Y-86663881D01*
X106960000Y-88416119D02*
X107015630Y-88409850D01*
X109898393Y-87497433D02*
X109911862Y-87475996D01*
X106710000Y-87790000D02*
X106710000Y-88166119D01*
X112505457Y-86758009D02*
X112535242Y-86805411D01*
X107404369Y-86920150D02*
X107460000Y-86913881D01*
X110359054Y-87325078D02*
X110380491Y-87338547D01*
X106615872Y-87594542D02*
X106655457Y-87634127D01*
X109660148Y-87372602D02*
X109676844Y-87383093D01*
X113810000Y-87540000D02*
X115570000Y-87540000D01*
X106764542Y-88321991D02*
X106804127Y-88361576D01*
X109965626Y-87338547D02*
X109987063Y-87325078D01*
X113060000Y-87290000D02*
X113060000Y-86913881D01*
X107115872Y-88361576D02*
X107155457Y-88321991D01*
X113365630Y-86670150D02*
X113418470Y-86688639D01*
X106716268Y-88221749D02*
X106734757Y-88274589D01*
X113553731Y-86858251D02*
X113560000Y-86913881D01*
X107185242Y-88274589D02*
X107203731Y-88221749D01*
X106515630Y-87546268D02*
X106568470Y-87564757D01*
X109690788Y-87397037D02*
X109701279Y-87413733D01*
X108264542Y-86758009D02*
X108304127Y-86718424D01*
X106734757Y-88274589D02*
X106764542Y-88321991D01*
X113201529Y-86688639D02*
X113254369Y-86670150D01*
X107068470Y-88391361D02*
X107115872Y-88361576D01*
X108234757Y-86805411D02*
X108264542Y-86758009D01*
X112566268Y-87345631D02*
X112584757Y-87398471D01*
X107210000Y-88166119D02*
X107210000Y-87163881D01*
X107960000Y-88416119D02*
X108015630Y-88409850D01*
X107710000Y-88166119D02*
X107716268Y-88221749D01*
X105000000Y-87540000D02*
X106460000Y-87540000D01*
X108351529Y-86688639D02*
X108404369Y-86670150D01*
X112701529Y-87515243D02*
X112754369Y-87533732D01*
X107304127Y-86968424D02*
X107351529Y-86938639D01*
X106804127Y-88361576D02*
X106851529Y-88391361D01*
X108185242Y-88274589D02*
X108203731Y-88221749D01*
X106851529Y-88391361D02*
X106904369Y-88409850D01*
X108515630Y-86670150D02*
X108568470Y-86688639D01*
X113584757Y-87398471D02*
X113614542Y-87445873D01*
X107234757Y-87055411D02*
X107264542Y-87008009D01*
X110398393Y-87356449D02*
X110411862Y-87377886D01*
X113114542Y-86758009D02*
X113154127Y-86718424D01*
X106904369Y-88409850D02*
X106960000Y-88416119D01*
X112918470Y-87515243D02*
X112965872Y-87485458D01*
X107015630Y-88409850D02*
X107068470Y-88391361D01*
X107904369Y-88409850D02*
X107960000Y-88416119D01*
X112365630Y-86670150D02*
X112418470Y-86688639D01*
X107155457Y-88321991D02*
X107185242Y-88274589D01*
X113154127Y-86718424D02*
X113201529Y-86688639D01*
X107203731Y-88221749D02*
X107210000Y-88166119D01*
X109835157Y-87537166D02*
X109859054Y-87528804D01*
X112614542Y-87445873D02*
X112654127Y-87485458D01*
X107210000Y-87163881D02*
X107216268Y-87108251D01*
X112418470Y-86688639D02*
X112465872Y-86718424D01*
X107216268Y-87108251D02*
X107234757Y-87055411D01*
X107264542Y-87008009D02*
X107304127Y-86968424D01*
X108404369Y-86670150D02*
X108460000Y-86663881D01*
X108460000Y-86663881D02*
X108515630Y-86670150D01*
X108568470Y-86688639D02*
X108615872Y-86718424D01*
X108615872Y-86718424D02*
X108655457Y-86758009D01*
X108655457Y-86758009D02*
X108685242Y-86805411D01*
X108685242Y-86805411D02*
X108703731Y-86858251D01*
X108703731Y-86858251D02*
X108710000Y-86913881D01*
X112066268Y-86858251D02*
X112084757Y-86805411D01*
X108710000Y-86913881D02*
X108710000Y-88166119D01*
X108710000Y-88166119D02*
X108716268Y-88221749D01*
X108716268Y-88221749D02*
X108734757Y-88274589D01*
X108734757Y-88274589D02*
X108764542Y-88321991D01*
X108764542Y-88321991D02*
X108804127Y-88361576D01*
X108804127Y-88361576D02*
X108851529Y-88391361D01*
X108851529Y-88391361D02*
X108904369Y-88409850D01*
X112114542Y-86758009D02*
X112154127Y-86718424D01*
X108904369Y-88409850D02*
X108960000Y-88416119D01*
X108960000Y-88416119D02*
X109015630Y-88409850D01*
X109015630Y-88409850D02*
X109068470Y-88391361D01*
X109068470Y-88391361D02*
X109115872Y-88361576D01*
X109115872Y-88361576D02*
X109155457Y-88321991D01*
X109155457Y-88321991D02*
X109185242Y-88274589D01*
X109203731Y-88221749D02*
X109210000Y-88166119D01*
X109210000Y-88166119D02*
X109210000Y-87451940D01*
X109210000Y-87451940D02*
X109212207Y-87432346D01*
X112060000Y-86913881D02*
X112066268Y-86858251D01*
X109212207Y-87432346D02*
X109218720Y-87413733D01*
X112084757Y-86805411D02*
X112114542Y-86758009D01*
X109218720Y-87413733D02*
X109229211Y-87397037D01*
X109229211Y-87397037D02*
X109243155Y-87383093D01*
X109243155Y-87383093D02*
X109259851Y-87372602D01*
X109259851Y-87372602D02*
X109278464Y-87366089D01*
X109278464Y-87366089D02*
X109298059Y-87363881D01*
X109298059Y-87363881D02*
X109621941Y-87363881D01*
X109621941Y-87363881D02*
X109641535Y-87366089D01*
X109641535Y-87366089D02*
X109660148Y-87372602D01*
X109676844Y-87383093D02*
X109690788Y-87397037D01*
X109701279Y-87413733D02*
X109707792Y-87432346D01*
X109707792Y-87432346D02*
X109712207Y-87471536D01*
X109712207Y-87471536D02*
X109718720Y-87490149D01*
X109718720Y-87490149D02*
X109729211Y-87506845D01*
X112154127Y-86718424D02*
X112201529Y-86688639D01*
X109729211Y-87506845D02*
X109743155Y-87520789D01*
X109743155Y-87520789D02*
X109759851Y-87531280D01*
X109759851Y-87531280D02*
X109778464Y-87537793D01*
X109778464Y-87537793D02*
X109798059Y-87540000D01*
X109798059Y-87540000D02*
X109810000Y-87540000D01*
X109859054Y-87528804D02*
X109880491Y-87515335D01*
X109911862Y-87475996D02*
X109920224Y-87452099D01*
X109920224Y-87452099D02*
X109925893Y-87401783D01*
X109934255Y-87377886D02*
X109947724Y-87356449D01*
X109947724Y-87356449D02*
X109965626Y-87338547D01*
X109987063Y-87325078D02*
X110010960Y-87316716D01*
X110010960Y-87316716D02*
X110036118Y-87313881D01*
X110036118Y-87313881D02*
X110310000Y-87313881D01*
X110310000Y-87313881D02*
X110335157Y-87316716D01*
X110335157Y-87316716D02*
X110359054Y-87325078D01*
X110411862Y-87377886D02*
X110420224Y-87401783D01*
X114415000Y-86155000D02*
X117460000Y-83110000D01*
X111155000Y-86155000D02*
X114415000Y-86155000D01*
X111046529Y-86179757D02*
X111099369Y-86161268D01*
X110999127Y-86209542D02*
X111046529Y-86179757D01*
X110959542Y-86249127D02*
X110999127Y-86209542D01*
X110905000Y-86405000D02*
X110911268Y-86349369D01*
X110905000Y-86641458D02*
X110905000Y-86405000D01*
X110898731Y-86697088D02*
X110905000Y-86641458D01*
X110850457Y-86797330D02*
X110880242Y-86749928D01*
X110810872Y-86836915D02*
X110850457Y-86797330D01*
X105773909Y-85638186D02*
X105831372Y-85618079D01*
X106911851Y-86646057D02*
X106920000Y-86573738D01*
X106736012Y-86866552D02*
X106797634Y-86827833D01*
X111099369Y-86161268D02*
X111155000Y-86155000D01*
X110310872Y-85373085D02*
X110350457Y-85412670D01*
X106453987Y-86866552D02*
X106522680Y-86890589D01*
X110405000Y-85568542D02*
X110405000Y-86641458D01*
X106278148Y-86646057D02*
X106302185Y-86714750D01*
X106270000Y-86573738D02*
X106278148Y-86646057D01*
X106243076Y-85765172D02*
X106263183Y-85822635D01*
X106797634Y-86827833D02*
X106849095Y-86776372D01*
X106210686Y-85713624D02*
X106243076Y-85765172D01*
X106167638Y-85670576D02*
X106210686Y-85713624D01*
X106116090Y-85638186D02*
X106167638Y-85670576D01*
X106058627Y-85618079D02*
X106116090Y-85638186D01*
X110350457Y-85412670D02*
X110380242Y-85460072D01*
X105998131Y-85611262D02*
X106058627Y-85618079D01*
X105831372Y-85618079D02*
X105891869Y-85611262D01*
X105722361Y-85670576D02*
X105773909Y-85638186D01*
X109499127Y-86836915D02*
X109546529Y-86866700D01*
X105012753Y-86372150D02*
X105035861Y-86386669D01*
X106952185Y-85595250D02*
X106990904Y-85533628D01*
X106667319Y-86890589D02*
X106736012Y-86866552D01*
X109850457Y-86797330D02*
X109880242Y-86749928D01*
X104978937Y-86329745D02*
X104993456Y-86352853D01*
X106263183Y-85822635D02*
X106270000Y-85883131D01*
X104969924Y-86303987D02*
X104978937Y-86329745D01*
X106595000Y-86898738D02*
X106667319Y-86890589D01*
X110411268Y-86697088D02*
X110429757Y-86749928D01*
X104963813Y-86249750D02*
X104969924Y-86303987D01*
X105035861Y-86386669D02*
X105061619Y-86395682D01*
X109429757Y-86749928D02*
X109459542Y-86797330D01*
X106340904Y-86776372D02*
X106392365Y-86827833D01*
X104954800Y-86223992D02*
X104963813Y-86249750D01*
X105679313Y-85713624D02*
X105722361Y-85670576D01*
X107602185Y-85971013D02*
X107640904Y-86032635D01*
X104920984Y-86181587D02*
X104940281Y-86200884D01*
X105620000Y-85883131D02*
X105626816Y-85822635D01*
X107692365Y-86084096D02*
X107753987Y-86122815D01*
X104897876Y-86167068D02*
X104920984Y-86181587D01*
X104940281Y-86200884D02*
X104954800Y-86223992D01*
X109411268Y-86697088D02*
X109429757Y-86749928D01*
X104993456Y-86352853D02*
X105012753Y-86372150D01*
X104872118Y-86158055D02*
X104897876Y-86167068D01*
X109459542Y-86797330D02*
X109499127Y-86836915D01*
X109599369Y-86885189D02*
X109655000Y-86891458D01*
X104845000Y-86155000D02*
X104872118Y-86158055D01*
X102160000Y-86155000D02*
X104845000Y-86155000D01*
X105088738Y-86398738D02*
X105495000Y-86398738D01*
X107822680Y-86146852D02*
X107895000Y-86155000D01*
X105495000Y-86398738D02*
X105522118Y-86395682D01*
X106920000Y-85736262D02*
X106928148Y-85663943D01*
X106392365Y-86827833D02*
X106453987Y-86866552D01*
X109959542Y-85412670D02*
X109999127Y-85373085D01*
X105522118Y-86395682D02*
X105547876Y-86386669D01*
X105547876Y-86386669D02*
X105570984Y-86372150D01*
X109405000Y-86405000D02*
X109405000Y-86641458D01*
X106270000Y-85883131D02*
X106270000Y-86573738D01*
X109880242Y-86749928D02*
X109898731Y-86697088D01*
X105570984Y-86372150D02*
X105590281Y-86352853D01*
X106928148Y-85663943D02*
X106952185Y-85595250D01*
X105590281Y-86352853D02*
X105604800Y-86329745D01*
X109398731Y-86349369D02*
X109405000Y-86405000D01*
X105604800Y-86329745D02*
X105613813Y-86303987D01*
X106887814Y-86714750D02*
X106911851Y-86646057D01*
X110398731Y-85512912D02*
X110405000Y-85568542D01*
X105613813Y-86303987D02*
X105616869Y-86276869D01*
X106302185Y-86714750D02*
X106340904Y-86776372D01*
X105616869Y-86276869D02*
X105616869Y-86155000D01*
X105891869Y-85611262D02*
X105998131Y-85611262D01*
X107753987Y-86122815D02*
X107822680Y-86146852D01*
X105620000Y-86155000D02*
X105620000Y-85883131D01*
X105626816Y-85822635D02*
X105646923Y-85765172D01*
X106522680Y-86890589D02*
X106595000Y-86898738D01*
X105646923Y-85765172D02*
X105679313Y-85713624D01*
X106990904Y-85533628D02*
X107042365Y-85482167D01*
X107103987Y-85443448D02*
X107172680Y-85419411D01*
X107172680Y-85419411D02*
X107245000Y-85411262D01*
X107245000Y-85411262D02*
X107317319Y-85419411D01*
X107317319Y-85419411D02*
X107386012Y-85443448D01*
X109810872Y-86836915D02*
X109850457Y-86797330D01*
X110380242Y-85460072D02*
X110398731Y-85512912D01*
X107386012Y-85443448D02*
X107447634Y-85482167D01*
X107447634Y-85482167D02*
X107499095Y-85533628D01*
X109905000Y-85568542D02*
X109911268Y-85512912D01*
X107499095Y-85533628D02*
X107537814Y-85595250D01*
X110405000Y-86641458D02*
X110411268Y-86697088D01*
X107537814Y-85595250D02*
X107561851Y-85663943D01*
X110911268Y-86349369D02*
X110929757Y-86296529D01*
X110429757Y-86749928D02*
X110459542Y-86797330D01*
X107561851Y-85663943D02*
X107570000Y-85736262D01*
X109310872Y-86209542D02*
X109350457Y-86249127D01*
X107570000Y-85736262D02*
X107570000Y-85830000D01*
X109263470Y-86179757D02*
X109310872Y-86209542D01*
X110499127Y-86836915D02*
X110546529Y-86866700D01*
X107570000Y-85830000D02*
X107578148Y-85902320D01*
X107578148Y-85902320D02*
X107602185Y-85971013D01*
X107640904Y-86032635D02*
X107692365Y-86084096D01*
X107895000Y-86155000D02*
X109155000Y-86155000D01*
X110155000Y-85318542D02*
X110210630Y-85324811D01*
X109210630Y-86161268D02*
X109263470Y-86179757D01*
X109911268Y-85512912D02*
X109929757Y-85460072D01*
X110763470Y-86866700D02*
X110810872Y-86836915D01*
X109350457Y-86249127D02*
X109380242Y-86296529D01*
X109380242Y-86296529D02*
X109398731Y-86349369D01*
X110929757Y-86296529D02*
X110959542Y-86249127D01*
X109999127Y-85373085D02*
X110046529Y-85343300D01*
X105616869Y-86155000D02*
X105620000Y-86155000D01*
X109405000Y-86641458D02*
X109411268Y-86697088D01*
X105061619Y-86395682D02*
X105088738Y-86398738D01*
X109546529Y-86866700D02*
X109599369Y-86885189D01*
X107042365Y-85482167D02*
X107103987Y-85443448D01*
X109655000Y-86891458D02*
X109710630Y-86885189D01*
X109710630Y-86885189D02*
X109763470Y-86866700D01*
X106849095Y-86776372D02*
X106887814Y-86714750D01*
X109763470Y-86866700D02*
X109810872Y-86836915D01*
X109898731Y-86697088D02*
X109905000Y-86641458D01*
X109905000Y-86641458D02*
X109905000Y-85568542D01*
X106920000Y-86573738D02*
X106920000Y-85736262D01*
X109929757Y-85460072D02*
X109959542Y-85412670D01*
X110880242Y-86749928D02*
X110898731Y-86697088D01*
X110046529Y-85343300D02*
X110099369Y-85324811D01*
X110099369Y-85324811D02*
X110155000Y-85318542D01*
X110210630Y-85324811D02*
X110263470Y-85343300D01*
X109155000Y-86155000D02*
X109210630Y-86161268D01*
X110546529Y-86866700D02*
X110599369Y-86885189D01*
X110263470Y-85343300D02*
X110310872Y-85373085D01*
X110459542Y-86797330D02*
X110499127Y-86836915D01*
X110599369Y-86885189D02*
X110655000Y-86891458D01*
X110655000Y-86891458D02*
X110710630Y-86885189D01*
X110710630Y-86885189D02*
X110763470Y-86866700D01*
X121075001Y-85455001D02*
X120000000Y-84380000D01*
X120516001Y-87995001D02*
X121075001Y-87436001D01*
X119483999Y-87995001D02*
X120516001Y-87995001D01*
X118603997Y-87114999D02*
X119483999Y-87995001D01*
X116943999Y-87114999D02*
X118603997Y-87114999D01*
X116058998Y-88000000D02*
X116943999Y-87114999D01*
X110277203Y-88000000D02*
X116058998Y-88000000D01*
X109352203Y-88925000D02*
X110277203Y-88000000D01*
X121075001Y-87436001D02*
X121075001Y-85455001D01*
X102160000Y-88925000D02*
X109352203Y-88925000D01*
X119949999Y-89510001D02*
X120000000Y-89460000D01*
X111510001Y-89510001D02*
X119949999Y-89510001D01*
X111454370Y-89516269D02*
X111510001Y-89510001D01*
X111401530Y-89534758D02*
X111454370Y-89516269D01*
X111266269Y-89704370D02*
X111284758Y-89651530D01*
X111260001Y-89760001D02*
X111266269Y-89704370D01*
X111205458Y-90387198D02*
X111235243Y-90339796D01*
X110901530Y-90456568D02*
X110954370Y-90475057D01*
X110510001Y-88538676D02*
X110565631Y-88544945D01*
X110454370Y-88544945D02*
X110510001Y-88538676D01*
X110401530Y-88563434D02*
X110454370Y-88544945D01*
X110354128Y-88593219D02*
X110401530Y-88563434D01*
X110260001Y-90231326D02*
X110260001Y-88788676D01*
X110205458Y-90387198D02*
X110235243Y-90339796D01*
X110165873Y-90426783D02*
X110205458Y-90387198D01*
X110118471Y-90456568D02*
X110165873Y-90426783D01*
X109954370Y-90475057D02*
X110010001Y-90481326D01*
X109854128Y-90426783D02*
X109901530Y-90456568D01*
X109814543Y-90387198D02*
X109854128Y-90426783D01*
X109766269Y-90286956D02*
X109784758Y-90339796D01*
X109760001Y-90231326D02*
X109766269Y-90286956D01*
X108401530Y-89534758D02*
X108454370Y-89516269D01*
X108354128Y-89564543D02*
X108401530Y-89534758D01*
X110284758Y-88680206D02*
X110314543Y-88632804D01*
X107270909Y-89428827D02*
X107278826Y-89420910D01*
X109705458Y-89604128D02*
X109735243Y-89651530D01*
X107261254Y-89448875D02*
X107264952Y-89438307D01*
X108205458Y-90405711D02*
X108235243Y-90358309D01*
X109565631Y-89516269D02*
X109618471Y-89534758D01*
X107260001Y-90249839D02*
X107260001Y-89460001D01*
X110665873Y-88593219D02*
X110705458Y-88632804D01*
X107253732Y-90305469D02*
X107260001Y-90249839D01*
X110260001Y-88788676D02*
X110266269Y-88733046D01*
X107205458Y-90405711D02*
X107235243Y-90358309D01*
X109901530Y-90456568D02*
X109954370Y-90475057D01*
X107235243Y-90358309D02*
X107253732Y-90305469D01*
X107165873Y-90445296D02*
X107205458Y-90405711D01*
X111284758Y-89651530D02*
X111314543Y-89604128D01*
X106854128Y-90445296D02*
X106901530Y-90475081D01*
X109753732Y-89704370D02*
X109760001Y-89760001D01*
X106705458Y-89604128D02*
X106735243Y-89651530D01*
X108454370Y-89516269D02*
X108510001Y-89510001D01*
X107065631Y-90493570D02*
X107118471Y-90475081D01*
X110253732Y-90286956D02*
X110260001Y-90231326D01*
X107010001Y-90499839D02*
X107065631Y-90493570D01*
X111010001Y-90481326D02*
X111065631Y-90475057D01*
X106901530Y-90475081D02*
X106954370Y-90493570D01*
X110854128Y-90426783D02*
X110901530Y-90456568D01*
X107260001Y-89460001D02*
X107261254Y-89448875D01*
X110814543Y-90387198D02*
X110854128Y-90426783D01*
X105000000Y-90310000D02*
X105799999Y-89510001D01*
X110784758Y-90339796D02*
X110814543Y-90387198D01*
X105799999Y-89510001D02*
X106510001Y-89510001D01*
X109618471Y-89534758D02*
X109665873Y-89564543D01*
X106760001Y-89760001D02*
X106760001Y-90249839D01*
X110266269Y-88733046D02*
X110284758Y-88680206D01*
X106510001Y-89510001D02*
X106565631Y-89516269D01*
X111065631Y-90475057D02*
X111118471Y-90456568D01*
X106565631Y-89516269D02*
X106618471Y-89534758D01*
X108510001Y-89510001D02*
X109510001Y-89510001D01*
X106954370Y-90493570D02*
X107010001Y-90499839D01*
X110618471Y-88563434D02*
X110665873Y-88593219D01*
X106618471Y-89534758D02*
X106665873Y-89564543D01*
X110010001Y-90481326D02*
X110065631Y-90475057D01*
X106814543Y-90405711D02*
X106854128Y-90445296D01*
X106766269Y-90305469D02*
X106784758Y-90358309D01*
X110954370Y-90475057D02*
X111010001Y-90481326D01*
X106760001Y-90249839D02*
X106766269Y-90305469D01*
X110314543Y-88632804D02*
X110354128Y-88593219D01*
X106665873Y-89564543D02*
X106705458Y-89604128D01*
X109735243Y-89651530D02*
X109753732Y-89704370D01*
X106784758Y-90358309D02*
X106814543Y-90405711D01*
X108260001Y-90249839D02*
X108260001Y-89760001D01*
X108266269Y-89704370D02*
X108284758Y-89651530D01*
X111354128Y-89564543D02*
X111401530Y-89534758D01*
X106753732Y-89704370D02*
X106760001Y-89760001D01*
X110735243Y-88680206D02*
X110753732Y-88733046D01*
X107264952Y-89438307D02*
X107270909Y-89428827D01*
X111314543Y-89604128D02*
X111354128Y-89564543D01*
X106735243Y-89651530D02*
X106753732Y-89704370D01*
X107288306Y-89414953D02*
X107298874Y-89411255D01*
X111165873Y-90426783D02*
X111205458Y-90387198D01*
X107278826Y-89420910D02*
X107288306Y-89414953D01*
X110235243Y-90339796D02*
X110253732Y-90286956D01*
X107298874Y-89411255D02*
X107310001Y-89410001D01*
X110760001Y-90231326D02*
X110766269Y-90286956D01*
X107310001Y-89410001D02*
X107710001Y-89410001D01*
X111260001Y-90231326D02*
X111260001Y-89760001D01*
X107710001Y-89410001D02*
X107721127Y-89411255D01*
X111253732Y-90286956D02*
X111260001Y-90231326D01*
X107721127Y-89411255D02*
X107731695Y-89414953D01*
X109665873Y-89564543D02*
X109705458Y-89604128D01*
X107731695Y-89414953D02*
X107741175Y-89420910D01*
X110753732Y-88733046D02*
X110760001Y-88788676D01*
X107741175Y-89420910D02*
X107749092Y-89428827D01*
X110565631Y-88544945D02*
X110618471Y-88563434D01*
X107749092Y-89428827D02*
X107755049Y-89438307D01*
X110760001Y-88788676D02*
X110760001Y-90231326D01*
X107755049Y-89438307D02*
X107758747Y-89448875D01*
X109760001Y-89760001D02*
X109760001Y-90231326D01*
X107758747Y-89448875D02*
X107760001Y-89460001D01*
X111118471Y-90456568D02*
X111165873Y-90426783D01*
X107760001Y-89460001D02*
X107760001Y-90249839D01*
X110766269Y-90286956D02*
X110784758Y-90339796D01*
X107760001Y-90249839D02*
X107766269Y-90305469D01*
X111235243Y-90339796D02*
X111253732Y-90286956D01*
X107766269Y-90305469D02*
X107784758Y-90358309D01*
X110705458Y-88632804D02*
X110735243Y-88680206D01*
X107784758Y-90358309D02*
X107814543Y-90405711D01*
X108010001Y-90499839D02*
X108065631Y-90493570D01*
X109510001Y-89510001D02*
X109565631Y-89516269D01*
X107814543Y-90405711D02*
X107854128Y-90445296D01*
X108314543Y-89604128D02*
X108354128Y-89564543D01*
X107854128Y-90445296D02*
X107901530Y-90475081D01*
X108065631Y-90493570D02*
X108118471Y-90475081D01*
X109784758Y-90339796D02*
X109814543Y-90387198D01*
X107901530Y-90475081D02*
X107954370Y-90493570D01*
X108284758Y-89651530D02*
X108314543Y-89604128D01*
X107954370Y-90493570D02*
X108010001Y-90499839D01*
X108118471Y-90475081D02*
X108165873Y-90445296D01*
X108165873Y-90445296D02*
X108205458Y-90405711D01*
X108235243Y-90358309D02*
X108253732Y-90305469D01*
X107118471Y-90475081D02*
X107165873Y-90445296D01*
X108253732Y-90305469D02*
X108260001Y-90249839D01*
X110065631Y-90475057D02*
X110118471Y-90456568D01*
X108260001Y-89760001D02*
X108266269Y-89704370D01*
X103615000Y-127615000D02*
X105000000Y-129000000D01*
X102160000Y-127615000D02*
X103615000Y-127615000D01*
X120000000Y-125781002D02*
X120000000Y-125460000D01*
X116781002Y-129000000D02*
X120000000Y-125781002D01*
X105000000Y-129000000D02*
X116781002Y-129000000D01*
X112571529Y-122895243D02*
X112624369Y-122913732D01*
X112436268Y-122725631D02*
X112454757Y-122778471D01*
X112430000Y-122670000D02*
X112436268Y-122725631D01*
X112430000Y-122568798D02*
X112430000Y-122670000D01*
X112423731Y-122513168D02*
X112430000Y-122568798D01*
X112405242Y-122460328D02*
X112423731Y-122513168D01*
X112375457Y-122412926D02*
X112405242Y-122460328D01*
X112335872Y-122373341D02*
X112375457Y-122412926D01*
X112288470Y-122343556D02*
X112335872Y-122373341D01*
X112235630Y-122325067D02*
X112288470Y-122343556D01*
X112180000Y-122318798D02*
X112235630Y-122325067D01*
X112124369Y-122325067D02*
X112180000Y-122318798D01*
X112071529Y-122343556D02*
X112124369Y-122325067D01*
X112024127Y-122373341D02*
X112071529Y-122343556D01*
X110984542Y-122412926D02*
X111024127Y-122373341D01*
X110930000Y-122568798D02*
X110936268Y-122513168D01*
X111454757Y-123729672D02*
X111484542Y-123777074D01*
X110930000Y-123621202D02*
X110930000Y-122568798D01*
X110430000Y-123170000D02*
X110430000Y-123621202D01*
X110923731Y-123676832D02*
X110930000Y-123621202D01*
X111930000Y-123621202D02*
X111930000Y-122568798D01*
X110905242Y-123729672D02*
X110923731Y-123676832D01*
X110835872Y-123816659D02*
X110875457Y-123777074D01*
X110788470Y-123846444D02*
X110835872Y-123816659D01*
X110735630Y-123864933D02*
X110788470Y-123846444D01*
X110875457Y-123777074D02*
X110905242Y-123729672D01*
X110680000Y-123871202D02*
X110735630Y-123864933D01*
X111680000Y-123871202D02*
X111735630Y-123864933D01*
X110571529Y-123846444D02*
X110624369Y-123864933D01*
X111571529Y-123846444D02*
X111624369Y-123864933D01*
X110936268Y-122513168D02*
X110954757Y-122460328D01*
X110524127Y-123816659D02*
X110571529Y-123846444D01*
X111835872Y-123816659D02*
X111875457Y-123777074D01*
X110484542Y-123777074D02*
X110524127Y-123816659D01*
X110235630Y-122926268D02*
X110288470Y-122944757D01*
X111930000Y-122568798D02*
X111936268Y-122513168D01*
X105540000Y-122920000D02*
X110180000Y-122920000D01*
X111954757Y-122460328D02*
X111984542Y-122412926D01*
X105000000Y-123460000D02*
X105540000Y-122920000D01*
X112524127Y-122865458D02*
X112571529Y-122895243D01*
X110430000Y-123621202D02*
X110436268Y-123676832D01*
X110180000Y-122920000D02*
X110235630Y-122926268D01*
X115150672Y-122920000D02*
X120000000Y-122920000D01*
X110288470Y-122944757D02*
X110335872Y-122974542D01*
X112680000Y-122920000D02*
X115150672Y-122920000D01*
X110423731Y-123114369D02*
X110430000Y-123170000D01*
X110335872Y-122974542D02*
X110375457Y-123014127D01*
X110624369Y-123864933D02*
X110680000Y-123871202D01*
X111936268Y-122513168D02*
X111954757Y-122460328D01*
X110375457Y-123014127D02*
X110405242Y-123061529D01*
X111984542Y-122412926D02*
X112024127Y-122373341D01*
X110954757Y-122460328D02*
X110984542Y-122412926D01*
X112624369Y-122913732D02*
X112680000Y-122920000D01*
X110405242Y-123061529D02*
X110423731Y-123114369D01*
X110436268Y-123676832D02*
X110454757Y-123729672D01*
X112484542Y-122825873D02*
X112524127Y-122865458D01*
X110454757Y-123729672D02*
X110484542Y-123777074D01*
X111024127Y-122373341D02*
X111071529Y-122343556D01*
X112454757Y-122778471D02*
X112484542Y-122825873D01*
X111071529Y-122343556D02*
X111124369Y-122325067D01*
X111124369Y-122325067D02*
X111180000Y-122318798D01*
X111180000Y-122318798D02*
X111235630Y-122325067D01*
X111235630Y-122325067D02*
X111288470Y-122343556D01*
X111288470Y-122343556D02*
X111335872Y-122373341D01*
X111335872Y-122373341D02*
X111375457Y-122412926D01*
X111375457Y-122412926D02*
X111405242Y-122460328D01*
X111405242Y-122460328D02*
X111423731Y-122513168D01*
X111423731Y-122513168D02*
X111430000Y-122568798D01*
X111624369Y-123864933D02*
X111680000Y-123871202D01*
X111430000Y-122568798D02*
X111430000Y-123621202D01*
X111430000Y-123621202D02*
X111436268Y-123676832D01*
X111436268Y-123676832D02*
X111454757Y-123729672D01*
X111875457Y-123777074D02*
X111905242Y-123729672D01*
X111484542Y-123777074D02*
X111524127Y-123816659D01*
X111524127Y-123816659D02*
X111571529Y-123846444D01*
X111735630Y-123864933D02*
X111788470Y-123846444D01*
X111788470Y-123846444D02*
X111835872Y-123816659D01*
X111905242Y-123729672D02*
X111923731Y-123676832D01*
X111923731Y-123676832D02*
X111930000Y-123621202D01*
X117138998Y-120380000D02*
X120000000Y-120380000D01*
X115703997Y-121815001D02*
X117138998Y-120380000D01*
X104058629Y-121815001D02*
X115703997Y-121815001D01*
X102160000Y-123713630D02*
X104058629Y-121815001D01*
X102160000Y-124845000D02*
X102160000Y-123713630D01*
X113247845Y-119110000D02*
X117460000Y-119110000D01*
X110310000Y-119110000D02*
X113247845Y-119110000D01*
X110254369Y-119103732D02*
X110310000Y-119110000D01*
X110114542Y-119015873D02*
X110154127Y-119055458D01*
X110084757Y-118968471D02*
X110114542Y-119015873D01*
X109918470Y-118182286D02*
X109965872Y-118212071D01*
X109865630Y-118163797D02*
X109918470Y-118182286D01*
X109810000Y-118157528D02*
X109865630Y-118163797D01*
X109754369Y-118163797D02*
X109810000Y-118157528D01*
X109701529Y-118182286D02*
X109754369Y-118163797D01*
X109654127Y-118212071D02*
X109701529Y-118182286D01*
X110060000Y-118407528D02*
X110060000Y-118860000D01*
X109614542Y-118251656D02*
X109654127Y-118212071D01*
X109560000Y-119812472D02*
X109560000Y-118407528D01*
X109066268Y-119868102D02*
X109084757Y-119920942D01*
X109584757Y-118299058D02*
X109614542Y-118251656D01*
X109053731Y-119304369D02*
X109060000Y-119360000D01*
X110154127Y-119055458D02*
X110201529Y-119085243D01*
X109035242Y-119251529D02*
X109053731Y-119304369D01*
X109060000Y-119812472D02*
X109066268Y-119868102D01*
X108965872Y-119164542D02*
X109005457Y-119204127D01*
X110201529Y-119085243D02*
X110254369Y-119103732D01*
X109060000Y-119360000D02*
X109060000Y-119812472D01*
X108810000Y-119110000D02*
X108865630Y-119116268D01*
X108918470Y-119134757D02*
X108965872Y-119164542D01*
X109201529Y-120037714D02*
X109254369Y-120056203D01*
X108865630Y-119116268D02*
X108918470Y-119134757D01*
X109965872Y-118212071D02*
X110005457Y-118251656D01*
X102160000Y-120943630D02*
X103993630Y-119110000D01*
X110066268Y-118915631D02*
X110084757Y-118968471D01*
X109310000Y-120062472D02*
X109365630Y-120056203D01*
X110005457Y-118251656D02*
X110035242Y-118299058D01*
X103993630Y-119110000D02*
X108810000Y-119110000D01*
X109005457Y-119204127D02*
X109035242Y-119251529D01*
X102160000Y-122075000D02*
X102160000Y-120943630D01*
X109084757Y-119920942D02*
X109114542Y-119968344D01*
X109114542Y-119968344D02*
X109154127Y-120007929D01*
X109154127Y-120007929D02*
X109201529Y-120037714D01*
X109254369Y-120056203D02*
X109310000Y-120062472D01*
X109465872Y-120007929D02*
X109505457Y-119968344D01*
X109365630Y-120056203D02*
X109418470Y-120037714D01*
X110060000Y-118860000D02*
X110066268Y-118915631D01*
X109418470Y-120037714D02*
X109465872Y-120007929D01*
X110053731Y-118351898D02*
X110060000Y-118407528D01*
X110035242Y-118299058D02*
X110053731Y-118351898D01*
X109505457Y-119968344D02*
X109535242Y-119920942D01*
X109535242Y-119920942D02*
X109553731Y-119868102D01*
X109553731Y-119868102D02*
X109560000Y-119812472D01*
X109560000Y-118407528D02*
X109566268Y-118351898D01*
X109566268Y-118351898D02*
X109584757Y-118299058D01*
D20*
X128437158Y-77874522D02*
X128243962Y-77977786D01*
X128087952Y-78293347D01*
X129400000Y-79605395D01*
X129414143Y-79591253D01*
X129593748Y-79770858D01*
X129579605Y-79785000D01*
X130891653Y-81097048D01*
X131207214Y-80941038D01*
X131398020Y-80566255D01*
X131512044Y-80161449D01*
X131544902Y-79742176D01*
X131515531Y-79494718D01*
X133290000Y-80428649D01*
X133290001Y-94571350D01*
X131527929Y-95498757D01*
X131544902Y-95282176D01*
X131495334Y-94864549D01*
X131365243Y-94464617D01*
X131207214Y-94168962D01*
X130891653Y-94012952D01*
X129579605Y-95325000D01*
X129593748Y-95339143D01*
X129414143Y-95518748D01*
X129400000Y-95504605D01*
X128087952Y-96816653D01*
X128243962Y-97132214D01*
X128335660Y-97178898D01*
X125535000Y-98652930D01*
X125535000Y-95378622D01*
X125690782Y-95443149D01*
X126127409Y-95530000D01*
X126572591Y-95530000D01*
X127009218Y-95443149D01*
X127257246Y-95340412D01*
X127255098Y-95367824D01*
X127304666Y-95785451D01*
X127434757Y-96185383D01*
X127592786Y-96481038D01*
X127908347Y-96637048D01*
X129220395Y-95325000D01*
X129206253Y-95310858D01*
X129385858Y-95131253D01*
X129400000Y-95145395D01*
X130712048Y-93833347D01*
X130556038Y-93517786D01*
X130181255Y-93326980D01*
X129776449Y-93212956D01*
X129357176Y-93180098D01*
X128939549Y-93229666D01*
X128610000Y-93336863D01*
X128610000Y-93047409D01*
X128523149Y-92610782D01*
X128352786Y-92199489D01*
X128105456Y-91829334D01*
X127790666Y-91514544D01*
X127420511Y-91267214D01*
X127009218Y-91096851D01*
X126572591Y-91010000D01*
X126127409Y-91010000D01*
X125690782Y-91096851D01*
X125279489Y-91267214D01*
X124909334Y-91514544D01*
X124594544Y-91829334D01*
X124347214Y-92199489D01*
X124176851Y-92610782D01*
X124090000Y-93047409D01*
X124090000Y-93492591D01*
X124176851Y-93929218D01*
X124347214Y-94340511D01*
X124594544Y-94710666D01*
X124818878Y-94935000D01*
X114465000Y-94935000D01*
X114465000Y-97513488D01*
X114385952Y-97434440D01*
X114272427Y-97547965D01*
X113954243Y-97094150D01*
X113349790Y-96768731D01*
X112693465Y-96567488D01*
X112010490Y-96498155D01*
X111327112Y-96563395D01*
X110669593Y-96760702D01*
X110063201Y-97082494D01*
X110045757Y-97094150D01*
X109727572Y-97547967D01*
X112000000Y-99820395D01*
X112014143Y-99806253D01*
X112193748Y-99985858D01*
X112179605Y-100000000D01*
X114452033Y-102272428D01*
X114905850Y-101954243D01*
X115231269Y-101349790D01*
X115245003Y-101305000D01*
X120496066Y-101305000D01*
X114824566Y-104290000D01*
X114465123Y-104290000D01*
X114430225Y-104293437D01*
X114423738Y-104293437D01*
X114413879Y-104294473D01*
X114371913Y-104299180D01*
X114360816Y-104300273D01*
X114360022Y-104300514D01*
X114316905Y-104305350D01*
X114253977Y-104318726D01*
X114190832Y-104331229D01*
X114181362Y-104334160D01*
X114088347Y-104363666D01*
X114029187Y-104389022D01*
X113969705Y-104413539D01*
X113960985Y-104418254D01*
X113875472Y-104465265D01*
X113822391Y-104501610D01*
X113768772Y-104537235D01*
X113761134Y-104543554D01*
X113686382Y-104606279D01*
X113641370Y-104652244D01*
X113595700Y-104697596D01*
X113589435Y-104705278D01*
X113528289Y-104781328D01*
X113493059Y-104835164D01*
X113467539Y-104873000D01*
X110532520Y-104873000D01*
X110503102Y-104829388D01*
X110467848Y-104775514D01*
X110461582Y-104767832D01*
X110399381Y-104692643D01*
X110353731Y-104647311D01*
X110308701Y-104601327D01*
X110301062Y-104595008D01*
X110225441Y-104533332D01*
X110171853Y-104497728D01*
X110118738Y-104461359D01*
X110110017Y-104456644D01*
X110023856Y-104410832D01*
X109964388Y-104386321D01*
X109905220Y-104360962D01*
X109895751Y-104358031D01*
X109802333Y-104329826D01*
X109739213Y-104317328D01*
X109676257Y-104303946D01*
X109666398Y-104302910D01*
X109569281Y-104293388D01*
X109569277Y-104293388D01*
X109534877Y-104290000D01*
X105465123Y-104290000D01*
X105430225Y-104293437D01*
X105423738Y-104293437D01*
X105413879Y-104294473D01*
X105371913Y-104299180D01*
X105360816Y-104300273D01*
X105360022Y-104300514D01*
X105316905Y-104305350D01*
X105253977Y-104318726D01*
X105190832Y-104331229D01*
X105181362Y-104334160D01*
X105088347Y-104363666D01*
X105029187Y-104389022D01*
X104969705Y-104413539D01*
X104960985Y-104418254D01*
X104875472Y-104465265D01*
X104822391Y-104501610D01*
X104768772Y-104537235D01*
X104761134Y-104543554D01*
X104686382Y-104606279D01*
X104641370Y-104652244D01*
X104595700Y-104697596D01*
X104589435Y-104705278D01*
X104528289Y-104781328D01*
X104493059Y-104835164D01*
X104457067Y-104888525D01*
X104452413Y-104897278D01*
X104407203Y-104983758D01*
X104383105Y-105043403D01*
X104358161Y-105102741D01*
X104355296Y-105112232D01*
X104327744Y-105205843D01*
X104315690Y-105269035D01*
X104302745Y-105332095D01*
X104301778Y-105341961D01*
X104292934Y-105439144D01*
X104293383Y-105503458D01*
X104292934Y-105567839D01*
X104293901Y-105577705D01*
X104304101Y-105674754D01*
X104317045Y-105737811D01*
X104329099Y-105801001D01*
X104331964Y-105810491D01*
X104360820Y-105903710D01*
X104385752Y-105963021D01*
X104409865Y-106022702D01*
X104414519Y-106031454D01*
X104460932Y-106117292D01*
X104496898Y-106170612D01*
X104532152Y-106224486D01*
X104538417Y-106232168D01*
X104600619Y-106307357D01*
X104646269Y-106352689D01*
X104691299Y-106398673D01*
X104698938Y-106404992D01*
X104774559Y-106466668D01*
X104828147Y-106502272D01*
X104881262Y-106538641D01*
X104889983Y-106543356D01*
X104976144Y-106589168D01*
X105035612Y-106613679D01*
X105094780Y-106639038D01*
X105104249Y-106641969D01*
X105197667Y-106670174D01*
X105260787Y-106682672D01*
X105323743Y-106696054D01*
X105333602Y-106697090D01*
X105430719Y-106706612D01*
X105430723Y-106706612D01*
X105465123Y-106710000D01*
X109534877Y-106710000D01*
X109569775Y-106706563D01*
X109576262Y-106706563D01*
X109586120Y-106705527D01*
X109628082Y-106700820D01*
X109639184Y-106699727D01*
X109639978Y-106699486D01*
X109683095Y-106694650D01*
X109746017Y-106681276D01*
X109809168Y-106668771D01*
X109818638Y-106665840D01*
X109911653Y-106636334D01*
X109970813Y-106610978D01*
X110030295Y-106586461D01*
X110039015Y-106581746D01*
X110124528Y-106534735D01*
X110177609Y-106498390D01*
X110231228Y-106462765D01*
X110238866Y-106456446D01*
X110313618Y-106393721D01*
X110358630Y-106347756D01*
X110404300Y-106302404D01*
X110410565Y-106294722D01*
X110471711Y-106218672D01*
X110506963Y-106164802D01*
X110532461Y-106127000D01*
X113467480Y-106127000D01*
X113496898Y-106170612D01*
X113532152Y-106224486D01*
X113538417Y-106232168D01*
X113600619Y-106307357D01*
X113646269Y-106352689D01*
X113691299Y-106398673D01*
X113698938Y-106404992D01*
X113774559Y-106466668D01*
X113828147Y-106502272D01*
X113881262Y-106538641D01*
X113889983Y-106543356D01*
X113976144Y-106589168D01*
X114035612Y-106613679D01*
X114094780Y-106639038D01*
X114104249Y-106641969D01*
X114197667Y-106670174D01*
X114260787Y-106682672D01*
X114323743Y-106696054D01*
X114333602Y-106697090D01*
X114430719Y-106706612D01*
X114430723Y-106706612D01*
X114465123Y-106710000D01*
X114824566Y-106710000D01*
X128437158Y-113874522D01*
X128243962Y-113977786D01*
X128087952Y-114293347D01*
X129400000Y-115605395D01*
X129414143Y-115591253D01*
X129593748Y-115770858D01*
X129579605Y-115785000D01*
X130891653Y-117097048D01*
X131207214Y-116941038D01*
X131398020Y-116566255D01*
X131512044Y-116161449D01*
X131544902Y-115742176D01*
X131515531Y-115494718D01*
X133290000Y-116428649D01*
X133290001Y-130571350D01*
X131527929Y-131498757D01*
X131544902Y-131282176D01*
X131495334Y-130864549D01*
X131365243Y-130464617D01*
X131207214Y-130168962D01*
X130891653Y-130012952D01*
X129579605Y-131325000D01*
X129593748Y-131339143D01*
X129414143Y-131518748D01*
X129400000Y-131504605D01*
X128087952Y-132816653D01*
X128243962Y-133132214D01*
X128335660Y-133178898D01*
X125135000Y-134863456D01*
X125135000Y-131176241D01*
X125279489Y-131272786D01*
X125690782Y-131443149D01*
X126127409Y-131530000D01*
X126572591Y-131530000D01*
X127009218Y-131443149D01*
X127257246Y-131340412D01*
X127255098Y-131367824D01*
X127304666Y-131785451D01*
X127434757Y-132185383D01*
X127592786Y-132481038D01*
X127908347Y-132637048D01*
X129220395Y-131325000D01*
X129206253Y-131310858D01*
X129385858Y-131131253D01*
X129400000Y-131145395D01*
X130712048Y-129833347D01*
X130556038Y-129517786D01*
X130181255Y-129326980D01*
X129776449Y-129212956D01*
X129357176Y-129180098D01*
X128939549Y-129229666D01*
X128610000Y-129336863D01*
X128610000Y-129047409D01*
X128523149Y-128610782D01*
X128352786Y-128199489D01*
X128105456Y-127829334D01*
X127790666Y-127514544D01*
X127420511Y-127267214D01*
X127009218Y-127096851D01*
X126572591Y-127010000D01*
X126127409Y-127010000D01*
X125690782Y-127096851D01*
X125279489Y-127267214D01*
X124909334Y-127514544D01*
X124594544Y-127829334D01*
X124347214Y-128199489D01*
X124176851Y-128610782D01*
X124090000Y-129047409D01*
X124090000Y-129492591D01*
X124176851Y-129929218D01*
X124347214Y-130340511D01*
X124594544Y-130710666D01*
X124618878Y-130735000D01*
X121300000Y-130735000D01*
X121423882Y-130722799D01*
X121543004Y-130686664D01*
X121652787Y-130627983D01*
X121749013Y-130549013D01*
X121827983Y-130452787D01*
X121886664Y-130343004D01*
X121922799Y-130223882D01*
X121935000Y-130100000D01*
X121935000Y-117617409D01*
X124090000Y-117617409D01*
X124090000Y-118062591D01*
X124176851Y-118499218D01*
X124347214Y-118910511D01*
X124594544Y-119280666D01*
X124909334Y-119595456D01*
X125279489Y-119842786D01*
X125690782Y-120013149D01*
X126127409Y-120100000D01*
X126572591Y-120100000D01*
X127009218Y-120013149D01*
X127420511Y-119842786D01*
X127790666Y-119595456D01*
X128105456Y-119280666D01*
X128352786Y-118910511D01*
X128523149Y-118499218D01*
X128610000Y-118062591D01*
X128610000Y-117778568D01*
X128618745Y-117783020D01*
X129023551Y-117897044D01*
X129442824Y-117929902D01*
X129860451Y-117880334D01*
X130260383Y-117750243D01*
X130556038Y-117592214D01*
X130712048Y-117276653D01*
X129400000Y-115964605D01*
X129385858Y-115978748D01*
X129206253Y-115799143D01*
X129220395Y-115785000D01*
X127908347Y-114472952D01*
X127592786Y-114628962D01*
X127401980Y-115003745D01*
X127287956Y-115408551D01*
X127259586Y-115770557D01*
X127009218Y-115666851D01*
X126572591Y-115580000D01*
X126127409Y-115580000D01*
X125690782Y-115666851D01*
X125279489Y-115837214D01*
X124909334Y-116084544D01*
X124594544Y-116399334D01*
X124347214Y-116769489D01*
X124176851Y-117180782D01*
X124090000Y-117617409D01*
X121935000Y-117617409D01*
X121935000Y-116700000D01*
X121922799Y-116576118D01*
X121886664Y-116456996D01*
X121827983Y-116347213D01*
X121749013Y-116250987D01*
X121652787Y-116172017D01*
X121543004Y-116113336D01*
X121423882Y-116077201D01*
X121300000Y-116065000D01*
X104000000Y-116065000D01*
X103876118Y-116077201D01*
X103756996Y-116113336D01*
X103647213Y-116172017D01*
X103550987Y-116250987D01*
X103472017Y-116347213D01*
X103413336Y-116456996D01*
X103377201Y-116576118D01*
X103365000Y-116700000D01*
X103365000Y-118525479D01*
X103274637Y-118390241D01*
X103074759Y-118190363D01*
X102839727Y-118033320D01*
X102578574Y-117925147D01*
X102301335Y-117870000D01*
X102018665Y-117870000D01*
X101741426Y-117925147D01*
X101480273Y-118033320D01*
X101245241Y-118190363D01*
X101045363Y-118390241D01*
X100888320Y-118625273D01*
X100780147Y-118886426D01*
X100725000Y-119163665D01*
X100725000Y-119446335D01*
X100780147Y-119723574D01*
X100888320Y-119984727D01*
X101045363Y-120219759D01*
X101245241Y-120419637D01*
X101480273Y-120576680D01*
X101491826Y-120581466D01*
X101454454Y-120651384D01*
X101426285Y-120744248D01*
X101410998Y-120794644D01*
X101410049Y-120804276D01*
X101405203Y-120853480D01*
X101245241Y-120960363D01*
X101045363Y-121160241D01*
X100888320Y-121395273D01*
X100780147Y-121656426D01*
X100725000Y-121933665D01*
X100725000Y-122216335D01*
X100780147Y-122493574D01*
X100888320Y-122754727D01*
X101045363Y-122989759D01*
X101245241Y-123189637D01*
X101480273Y-123346680D01*
X101491826Y-123351466D01*
X101454454Y-123421384D01*
X101424388Y-123520502D01*
X101410998Y-123564644D01*
X101405203Y-123623480D01*
X101245241Y-123730363D01*
X101045363Y-123930241D01*
X100888320Y-124165273D01*
X100780147Y-124426426D01*
X100725000Y-124703665D01*
X100725000Y-124986335D01*
X100780147Y-125263574D01*
X100888320Y-125524727D01*
X101045363Y-125759759D01*
X101245241Y-125959637D01*
X101480273Y-126116680D01*
X101741426Y-126224853D01*
X101767301Y-126230000D01*
X101741426Y-126235147D01*
X101480273Y-126343320D01*
X101245241Y-126500363D01*
X101045363Y-126700241D01*
X100888320Y-126935273D01*
X100780147Y-127196426D01*
X100725000Y-127473665D01*
X100725000Y-127756335D01*
X100780147Y-128033574D01*
X100888320Y-128294727D01*
X101045363Y-128529759D01*
X101245241Y-128729637D01*
X101480273Y-128886680D01*
X101741426Y-128994853D01*
X102018665Y-129050000D01*
X102301335Y-129050000D01*
X102578574Y-128994853D01*
X102839727Y-128886680D01*
X103074759Y-128729637D01*
X103274637Y-128529759D01*
X103346863Y-128421664D01*
X103365000Y-128439801D01*
X103365000Y-130100000D01*
X103377201Y-130223882D01*
X103413336Y-130343004D01*
X103472017Y-130452787D01*
X103550987Y-130549013D01*
X103647213Y-130627983D01*
X103756996Y-130686664D01*
X103876118Y-130722799D01*
X104000000Y-130735000D01*
X114065000Y-130735000D01*
X114065000Y-133252119D01*
X113954243Y-133094150D01*
X113349790Y-132768731D01*
X112693465Y-132567488D01*
X112010490Y-132498155D01*
X111327112Y-132563395D01*
X110669593Y-132760702D01*
X110063201Y-133082494D01*
X110045757Y-133094150D01*
X109727572Y-133547967D01*
X112000000Y-135820395D01*
X112014143Y-135806253D01*
X112193748Y-135985858D01*
X112179605Y-136000000D01*
X114452033Y-138272428D01*
X114905850Y-137954243D01*
X115231269Y-137349790D01*
X115306327Y-137105000D01*
X120876066Y-137105000D01*
X114824566Y-140290000D01*
X100710000Y-140290000D01*
X100710000Y-137807499D01*
X103032106Y-137807499D01*
X103248228Y-138174258D01*
X103708105Y-138414938D01*
X104206098Y-138561275D01*
X104723071Y-138607648D01*
X105239159Y-138552273D01*
X105559530Y-138452033D01*
X109727572Y-138452033D01*
X110045757Y-138905850D01*
X110650210Y-139231269D01*
X111306535Y-139432512D01*
X111989510Y-139501845D01*
X112672888Y-139436605D01*
X113330407Y-139239298D01*
X113936799Y-138917506D01*
X113954243Y-138905850D01*
X114272428Y-138452033D01*
X112000000Y-136179605D01*
X109727572Y-138452033D01*
X105559530Y-138452033D01*
X105734526Y-138397279D01*
X106151772Y-138174258D01*
X106367894Y-137807499D01*
X104700000Y-136139605D01*
X103032106Y-137807499D01*
X100710000Y-137807499D01*
X100710000Y-135983071D01*
X102052352Y-135983071D01*
X102107727Y-136499159D01*
X102262721Y-136994526D01*
X102485742Y-137411772D01*
X102852501Y-137627894D01*
X104520395Y-135960000D01*
X104879605Y-135960000D01*
X106547499Y-137627894D01*
X106914258Y-137411772D01*
X107154938Y-136951895D01*
X107301275Y-136453902D01*
X107342931Y-135989510D01*
X108498155Y-135989510D01*
X108563395Y-136672888D01*
X108760702Y-137330407D01*
X109082494Y-137936799D01*
X109094150Y-137954243D01*
X109547967Y-138272428D01*
X111820395Y-136000000D01*
X109547967Y-133727572D01*
X109094150Y-134045757D01*
X108768731Y-134650210D01*
X108567488Y-135306535D01*
X108498155Y-135989510D01*
X107342931Y-135989510D01*
X107347648Y-135936929D01*
X107292273Y-135420841D01*
X107137279Y-134925474D01*
X106914258Y-134508228D01*
X106547499Y-134292106D01*
X104879605Y-135960000D01*
X104520395Y-135960000D01*
X102852501Y-134292106D01*
X102485742Y-134508228D01*
X102245062Y-134968105D01*
X102098725Y-135466098D01*
X102052352Y-135983071D01*
X100710000Y-135983071D01*
X100710000Y-134112501D01*
X103032106Y-134112501D01*
X104700000Y-135780395D01*
X106367894Y-134112501D01*
X106151772Y-133745742D01*
X105691895Y-133505062D01*
X105193902Y-133358725D01*
X104676929Y-133312352D01*
X104160841Y-133367727D01*
X103665474Y-133522721D01*
X103248228Y-133745742D01*
X103032106Y-134112501D01*
X100710000Y-134112501D01*
X100710000Y-112807499D01*
X103032106Y-112807499D01*
X103248228Y-113174258D01*
X103708105Y-113414938D01*
X104206098Y-113561275D01*
X104723071Y-113607648D01*
X105239159Y-113552273D01*
X105559530Y-113452033D01*
X109727572Y-113452033D01*
X110045757Y-113905850D01*
X110650210Y-114231269D01*
X111306535Y-114432512D01*
X111989510Y-114501845D01*
X112672888Y-114436605D01*
X113330407Y-114239298D01*
X113936799Y-113917506D01*
X113954243Y-113905850D01*
X114272428Y-113452033D01*
X112000000Y-111179605D01*
X109727572Y-113452033D01*
X105559530Y-113452033D01*
X105734526Y-113397279D01*
X106151772Y-113174258D01*
X106367894Y-112807499D01*
X104700000Y-111139605D01*
X103032106Y-112807499D01*
X100710000Y-112807499D01*
X100710000Y-110983071D01*
X102052352Y-110983071D01*
X102107727Y-111499159D01*
X102262721Y-111994526D01*
X102485742Y-112411772D01*
X102852501Y-112627894D01*
X104520395Y-110960000D01*
X104879605Y-110960000D01*
X106547499Y-112627894D01*
X106914258Y-112411772D01*
X107154938Y-111951895D01*
X107301275Y-111453902D01*
X107342931Y-110989510D01*
X108498155Y-110989510D01*
X108563395Y-111672888D01*
X108760702Y-112330407D01*
X109082494Y-112936799D01*
X109094150Y-112954243D01*
X109547967Y-113272428D01*
X111820395Y-111000000D01*
X112179605Y-111000000D01*
X114452033Y-113272428D01*
X114905850Y-112954243D01*
X115231269Y-112349790D01*
X115432512Y-111693465D01*
X115501845Y-111010490D01*
X115436605Y-110327112D01*
X115239298Y-109669593D01*
X114917506Y-109063201D01*
X114905850Y-109045757D01*
X114452033Y-108727572D01*
X112179605Y-111000000D01*
X111820395Y-111000000D01*
X109547967Y-108727572D01*
X109094150Y-109045757D01*
X108768731Y-109650210D01*
X108567488Y-110306535D01*
X108498155Y-110989510D01*
X107342931Y-110989510D01*
X107347648Y-110936929D01*
X107292273Y-110420841D01*
X107137279Y-109925474D01*
X106914258Y-109508228D01*
X106547499Y-109292106D01*
X104879605Y-110960000D01*
X104520395Y-110960000D01*
X102852501Y-109292106D01*
X102485742Y-109508228D01*
X102245062Y-109968105D01*
X102098725Y-110466098D01*
X102052352Y-110983071D01*
X100710000Y-110983071D01*
X100710000Y-109112501D01*
X103032106Y-109112501D01*
X104700000Y-110780395D01*
X106367894Y-109112501D01*
X106151772Y-108745742D01*
X105773876Y-108547967D01*
X109727572Y-108547967D01*
X112000000Y-110820395D01*
X114272428Y-108547967D01*
X113954243Y-108094150D01*
X113349790Y-107768731D01*
X112693465Y-107567488D01*
X112010490Y-107498155D01*
X111327112Y-107563395D01*
X110669593Y-107760702D01*
X110063201Y-108082494D01*
X110045757Y-108094150D01*
X109727572Y-108547967D01*
X105773876Y-108547967D01*
X105691895Y-108505062D01*
X105193902Y-108358725D01*
X104676929Y-108312352D01*
X104160841Y-108367727D01*
X103665474Y-108522721D01*
X103248228Y-108745742D01*
X103032106Y-109112501D01*
X100710000Y-109112501D01*
X100710000Y-106688931D01*
X100746017Y-106681276D01*
X100809168Y-106668771D01*
X100818638Y-106665840D01*
X100911653Y-106636334D01*
X100970813Y-106610978D01*
X101030295Y-106586461D01*
X101039015Y-106581746D01*
X101124528Y-106534735D01*
X101177609Y-106498390D01*
X101231228Y-106462765D01*
X101238866Y-106456446D01*
X101313618Y-106393721D01*
X101358630Y-106347756D01*
X101404300Y-106302404D01*
X101410565Y-106294722D01*
X101471711Y-106218672D01*
X101506963Y-106164802D01*
X101532461Y-106127000D01*
X104000000Y-106127000D01*
X104024776Y-106124560D01*
X104048601Y-106117333D01*
X104070557Y-106105597D01*
X104089803Y-106089803D01*
X104105597Y-106070557D01*
X104117333Y-106048601D01*
X104124560Y-106024776D01*
X104127000Y-106000000D01*
X104127000Y-105000000D01*
X104124560Y-104975224D01*
X104117333Y-104951399D01*
X104105597Y-104929443D01*
X104089803Y-104910197D01*
X104070557Y-104894403D01*
X104048601Y-104882667D01*
X104024776Y-104875440D01*
X104000000Y-104873000D01*
X101532520Y-104873000D01*
X101503102Y-104829388D01*
X101467848Y-104775514D01*
X101461582Y-104767832D01*
X101399381Y-104692643D01*
X101353731Y-104647311D01*
X101308701Y-104601327D01*
X101301062Y-104595008D01*
X101225441Y-104533332D01*
X101171853Y-104497728D01*
X101118738Y-104461359D01*
X101110017Y-104456644D01*
X101023856Y-104410832D01*
X100964388Y-104386321D01*
X100905220Y-104360962D01*
X100895751Y-104358031D01*
X100802333Y-104329826D01*
X100739213Y-104317328D01*
X100710000Y-104311118D01*
X100710000Y-101887499D01*
X103032106Y-101887499D01*
X103248228Y-102254258D01*
X103708105Y-102494938D01*
X104206098Y-102641275D01*
X104723071Y-102687648D01*
X105239159Y-102632273D01*
X105734526Y-102477279D01*
X105781758Y-102452033D01*
X109727572Y-102452033D01*
X110045757Y-102905850D01*
X110650210Y-103231269D01*
X111306535Y-103432512D01*
X111989510Y-103501845D01*
X112672888Y-103436605D01*
X113330407Y-103239298D01*
X113936799Y-102917506D01*
X113954243Y-102905850D01*
X114272428Y-102452033D01*
X112000000Y-100179605D01*
X109727572Y-102452033D01*
X105781758Y-102452033D01*
X106151772Y-102254258D01*
X106367894Y-101887499D01*
X104700000Y-100219605D01*
X103032106Y-101887499D01*
X100710000Y-101887499D01*
X100710000Y-100063071D01*
X102052352Y-100063071D01*
X102107727Y-100579159D01*
X102262721Y-101074526D01*
X102485742Y-101491772D01*
X102852501Y-101707894D01*
X104520395Y-100040000D01*
X104879605Y-100040000D01*
X106547499Y-101707894D01*
X106914258Y-101491772D01*
X107154938Y-101031895D01*
X107301275Y-100533902D01*
X107347648Y-100016929D01*
X107344707Y-99989510D01*
X108498155Y-99989510D01*
X108563395Y-100672888D01*
X108760702Y-101330407D01*
X109082494Y-101936799D01*
X109094150Y-101954243D01*
X109547967Y-102272428D01*
X111820395Y-100000000D01*
X109547967Y-97727572D01*
X109094150Y-98045757D01*
X108768731Y-98650210D01*
X108567488Y-99306535D01*
X108498155Y-99989510D01*
X107344707Y-99989510D01*
X107292273Y-99500841D01*
X107137279Y-99005474D01*
X106914258Y-98588228D01*
X106547499Y-98372106D01*
X104879605Y-100040000D01*
X104520395Y-100040000D01*
X102852501Y-98372106D01*
X102485742Y-98588228D01*
X102245062Y-99048105D01*
X102098725Y-99546098D01*
X102052352Y-100063071D01*
X100710000Y-100063071D01*
X100710000Y-98192501D01*
X103032106Y-98192501D01*
X104700000Y-99860395D01*
X106367894Y-98192501D01*
X106151772Y-97825742D01*
X105691895Y-97585062D01*
X105193902Y-97438725D01*
X104676929Y-97392352D01*
X104160841Y-97447727D01*
X103665474Y-97602721D01*
X103248228Y-97825742D01*
X103032106Y-98192501D01*
X100710000Y-98192501D01*
X100710000Y-83243665D01*
X100725000Y-83243665D01*
X100725000Y-83526335D01*
X100780147Y-83803574D01*
X100888320Y-84064727D01*
X101045363Y-84299759D01*
X101245241Y-84499637D01*
X101480273Y-84656680D01*
X101741426Y-84764853D01*
X101767301Y-84770000D01*
X101741426Y-84775147D01*
X101480273Y-84883320D01*
X101245241Y-85040363D01*
X101045363Y-85240241D01*
X100888320Y-85475273D01*
X100780147Y-85736426D01*
X100725000Y-86013665D01*
X100725000Y-86296335D01*
X100780147Y-86573574D01*
X100888320Y-86834727D01*
X101045363Y-87069759D01*
X101245241Y-87269637D01*
X101480273Y-87426680D01*
X101741426Y-87534853D01*
X101767301Y-87540000D01*
X101741426Y-87545147D01*
X101480273Y-87653320D01*
X101245241Y-87810363D01*
X101045363Y-88010241D01*
X100888320Y-88245273D01*
X100780147Y-88506426D01*
X100725000Y-88783665D01*
X100725000Y-89066335D01*
X100780147Y-89343574D01*
X100888320Y-89604727D01*
X101045363Y-89839759D01*
X101245241Y-90039637D01*
X101480273Y-90196680D01*
X101741426Y-90304853D01*
X101767301Y-90310000D01*
X101741426Y-90315147D01*
X101480273Y-90423320D01*
X101245241Y-90580363D01*
X101045363Y-90780241D01*
X100888320Y-91015273D01*
X100780147Y-91276426D01*
X100725000Y-91553665D01*
X100725000Y-91836335D01*
X100780147Y-92113574D01*
X100888320Y-92374727D01*
X101045363Y-92609759D01*
X101245241Y-92809637D01*
X101480273Y-92966680D01*
X101741426Y-93074853D01*
X102018665Y-93130000D01*
X102301335Y-93130000D01*
X102365000Y-93117336D01*
X102365000Y-94000000D01*
X102377201Y-94123882D01*
X102413336Y-94243004D01*
X102472017Y-94352787D01*
X102550987Y-94449013D01*
X102647213Y-94527983D01*
X102756996Y-94586664D01*
X102876118Y-94622799D01*
X103000000Y-94635000D01*
X121000000Y-94635000D01*
X121123882Y-94622799D01*
X121243004Y-94586664D01*
X121352787Y-94527983D01*
X121449013Y-94449013D01*
X121527983Y-94352787D01*
X121586664Y-94243004D01*
X121622799Y-94123882D01*
X121635000Y-94000000D01*
X121635000Y-87951634D01*
X121638796Y-87947009D01*
X121638800Y-87947005D01*
X121709974Y-87860278D01*
X121709975Y-87860277D01*
X121780547Y-87728248D01*
X121824004Y-87584987D01*
X121835001Y-87473334D01*
X121835001Y-87473325D01*
X121838677Y-87436002D01*
X121835001Y-87398679D01*
X121835001Y-85492323D01*
X121838677Y-85455001D01*
X121835001Y-85417678D01*
X121835001Y-85417668D01*
X121824004Y-85306015D01*
X121780547Y-85162754D01*
X121768301Y-85139844D01*
X121709975Y-85030724D01*
X121638800Y-84943998D01*
X121635000Y-84939368D01*
X121635000Y-81617409D01*
X124090000Y-81617409D01*
X124090000Y-82062591D01*
X124176851Y-82499218D01*
X124347214Y-82910511D01*
X124594544Y-83280666D01*
X124909334Y-83595456D01*
X125279489Y-83842786D01*
X125690782Y-84013149D01*
X126127409Y-84100000D01*
X126572591Y-84100000D01*
X127009218Y-84013149D01*
X127420511Y-83842786D01*
X127790666Y-83595456D01*
X128105456Y-83280666D01*
X128352786Y-82910511D01*
X128523149Y-82499218D01*
X128610000Y-82062591D01*
X128610000Y-81778568D01*
X128618745Y-81783020D01*
X129023551Y-81897044D01*
X129442824Y-81929902D01*
X129860451Y-81880334D01*
X130260383Y-81750243D01*
X130556038Y-81592214D01*
X130712048Y-81276653D01*
X129400000Y-79964605D01*
X129385858Y-79978748D01*
X129206253Y-79799143D01*
X129220395Y-79785000D01*
X127908347Y-78472952D01*
X127592786Y-78628962D01*
X127401980Y-79003745D01*
X127287956Y-79408551D01*
X127259586Y-79770557D01*
X127009218Y-79666851D01*
X126572591Y-79580000D01*
X126127409Y-79580000D01*
X125690782Y-79666851D01*
X125279489Y-79837214D01*
X124909334Y-80084544D01*
X124594544Y-80399334D01*
X124347214Y-80769489D01*
X124176851Y-81180782D01*
X124090000Y-81617409D01*
X121635000Y-81617409D01*
X121635000Y-80000000D01*
X121622799Y-79876118D01*
X121586664Y-79756996D01*
X121527983Y-79647213D01*
X121449013Y-79550987D01*
X121352787Y-79472017D01*
X121243004Y-79413336D01*
X121123882Y-79377201D01*
X121000000Y-79365000D01*
X103000000Y-79365000D01*
X102876118Y-79377201D01*
X102756996Y-79413336D01*
X102647213Y-79472017D01*
X102550987Y-79550987D01*
X102472017Y-79647213D01*
X102413336Y-79756996D01*
X102377201Y-79876118D01*
X102365000Y-80000000D01*
X102365000Y-81962664D01*
X102301335Y-81950000D01*
X102018665Y-81950000D01*
X101741426Y-82005147D01*
X101480273Y-82113320D01*
X101245241Y-82270363D01*
X101045363Y-82470241D01*
X100888320Y-82705273D01*
X100780147Y-82966426D01*
X100725000Y-83243665D01*
X100710000Y-83243665D01*
X100710000Y-76887499D01*
X103032106Y-76887499D01*
X103248228Y-77254258D01*
X103708105Y-77494938D01*
X104206098Y-77641275D01*
X104723071Y-77687648D01*
X105239159Y-77632273D01*
X105734526Y-77477279D01*
X105781758Y-77452033D01*
X109727572Y-77452033D01*
X110045757Y-77905850D01*
X110650210Y-78231269D01*
X111306535Y-78432512D01*
X111989510Y-78501845D01*
X112672888Y-78436605D01*
X113330407Y-78239298D01*
X113936799Y-77917506D01*
X113954243Y-77905850D01*
X114272428Y-77452033D01*
X112000000Y-75179605D01*
X109727572Y-77452033D01*
X105781758Y-77452033D01*
X106151772Y-77254258D01*
X106367894Y-76887499D01*
X104700000Y-75219605D01*
X103032106Y-76887499D01*
X100710000Y-76887499D01*
X100710000Y-75063071D01*
X102052352Y-75063071D01*
X102107727Y-75579159D01*
X102262721Y-76074526D01*
X102485742Y-76491772D01*
X102852501Y-76707894D01*
X104520395Y-75040000D01*
X104879605Y-75040000D01*
X106547499Y-76707894D01*
X106914258Y-76491772D01*
X107154938Y-76031895D01*
X107301275Y-75533902D01*
X107347648Y-75016929D01*
X107344707Y-74989510D01*
X108498155Y-74989510D01*
X108563395Y-75672888D01*
X108760702Y-76330407D01*
X109082494Y-76936799D01*
X109094150Y-76954243D01*
X109547967Y-77272428D01*
X111820395Y-75000000D01*
X112179605Y-75000000D01*
X114452033Y-77272428D01*
X114905850Y-76954243D01*
X115231269Y-76349790D01*
X115432512Y-75693465D01*
X115501845Y-75010490D01*
X115436605Y-74327112D01*
X115239298Y-73669593D01*
X114917506Y-73063201D01*
X114905850Y-73045757D01*
X114452033Y-72727572D01*
X112179605Y-75000000D01*
X111820395Y-75000000D01*
X109547967Y-72727572D01*
X109094150Y-73045757D01*
X108768731Y-73650210D01*
X108567488Y-74306535D01*
X108498155Y-74989510D01*
X107344707Y-74989510D01*
X107292273Y-74500841D01*
X107137279Y-74005474D01*
X106914258Y-73588228D01*
X106547499Y-73372106D01*
X104879605Y-75040000D01*
X104520395Y-75040000D01*
X102852501Y-73372106D01*
X102485742Y-73588228D01*
X102245062Y-74048105D01*
X102098725Y-74546098D01*
X102052352Y-75063071D01*
X100710000Y-75063071D01*
X100710000Y-73192501D01*
X103032106Y-73192501D01*
X104700000Y-74860395D01*
X106367894Y-73192501D01*
X106151772Y-72825742D01*
X105691895Y-72585062D01*
X105565659Y-72547967D01*
X109727572Y-72547967D01*
X112000000Y-74820395D01*
X114272428Y-72547967D01*
X113954243Y-72094150D01*
X113349790Y-71768731D01*
X112693465Y-71567488D01*
X112010490Y-71498155D01*
X111327112Y-71563395D01*
X110669593Y-71760702D01*
X110063201Y-72082494D01*
X110045757Y-72094150D01*
X109727572Y-72547967D01*
X105565659Y-72547967D01*
X105193902Y-72438725D01*
X104676929Y-72392352D01*
X104160841Y-72447727D01*
X103665474Y-72602721D01*
X103248228Y-72825742D01*
X103032106Y-73192501D01*
X100710000Y-73192501D01*
X100710000Y-70710000D01*
X114824566Y-70710000D01*
X128437158Y-77874522D01*
G04 #@! TA.AperFunction,Conductor*
D21*
G36*
X128437158Y-77874522D02*
G01*
X128243962Y-77977786D01*
X128087952Y-78293347D01*
X129400000Y-79605395D01*
X129414143Y-79591253D01*
X129593748Y-79770858D01*
X129579605Y-79785000D01*
X130891653Y-81097048D01*
X131207214Y-80941038D01*
X131398020Y-80566255D01*
X131512044Y-80161449D01*
X131544902Y-79742176D01*
X131515531Y-79494718D01*
X133290000Y-80428649D01*
X133290001Y-94571350D01*
X131527929Y-95498757D01*
X131544902Y-95282176D01*
X131495334Y-94864549D01*
X131365243Y-94464617D01*
X131207214Y-94168962D01*
X130891653Y-94012952D01*
X129579605Y-95325000D01*
X129593748Y-95339143D01*
X129414143Y-95518748D01*
X129400000Y-95504605D01*
X128087952Y-96816653D01*
X128243962Y-97132214D01*
X128335660Y-97178898D01*
X125535000Y-98652930D01*
X125535000Y-95378622D01*
X125690782Y-95443149D01*
X126127409Y-95530000D01*
X126572591Y-95530000D01*
X127009218Y-95443149D01*
X127257246Y-95340412D01*
X127255098Y-95367824D01*
X127304666Y-95785451D01*
X127434757Y-96185383D01*
X127592786Y-96481038D01*
X127908347Y-96637048D01*
X129220395Y-95325000D01*
X129206253Y-95310858D01*
X129385858Y-95131253D01*
X129400000Y-95145395D01*
X130712048Y-93833347D01*
X130556038Y-93517786D01*
X130181255Y-93326980D01*
X129776449Y-93212956D01*
X129357176Y-93180098D01*
X128939549Y-93229666D01*
X128610000Y-93336863D01*
X128610000Y-93047409D01*
X128523149Y-92610782D01*
X128352786Y-92199489D01*
X128105456Y-91829334D01*
X127790666Y-91514544D01*
X127420511Y-91267214D01*
X127009218Y-91096851D01*
X126572591Y-91010000D01*
X126127409Y-91010000D01*
X125690782Y-91096851D01*
X125279489Y-91267214D01*
X124909334Y-91514544D01*
X124594544Y-91829334D01*
X124347214Y-92199489D01*
X124176851Y-92610782D01*
X124090000Y-93047409D01*
X124090000Y-93492591D01*
X124176851Y-93929218D01*
X124347214Y-94340511D01*
X124594544Y-94710666D01*
X124818878Y-94935000D01*
X114465000Y-94935000D01*
X114465000Y-97513488D01*
X114385952Y-97434440D01*
X114272427Y-97547965D01*
X113954243Y-97094150D01*
X113349790Y-96768731D01*
X112693465Y-96567488D01*
X112010490Y-96498155D01*
X111327112Y-96563395D01*
X110669593Y-96760702D01*
X110063201Y-97082494D01*
X110045757Y-97094150D01*
X109727572Y-97547967D01*
X112000000Y-99820395D01*
X112014143Y-99806253D01*
X112193748Y-99985858D01*
X112179605Y-100000000D01*
X114452033Y-102272428D01*
X114905850Y-101954243D01*
X115231269Y-101349790D01*
X115245003Y-101305000D01*
X120496066Y-101305000D01*
X114824566Y-104290000D01*
X114465123Y-104290000D01*
X114430225Y-104293437D01*
X114423738Y-104293437D01*
X114413879Y-104294473D01*
X114371913Y-104299180D01*
X114360816Y-104300273D01*
X114360022Y-104300514D01*
X114316905Y-104305350D01*
X114253977Y-104318726D01*
X114190832Y-104331229D01*
X114181362Y-104334160D01*
X114088347Y-104363666D01*
X114029187Y-104389022D01*
X113969705Y-104413539D01*
X113960985Y-104418254D01*
X113875472Y-104465265D01*
X113822391Y-104501610D01*
X113768772Y-104537235D01*
X113761134Y-104543554D01*
X113686382Y-104606279D01*
X113641370Y-104652244D01*
X113595700Y-104697596D01*
X113589435Y-104705278D01*
X113528289Y-104781328D01*
X113493059Y-104835164D01*
X113467539Y-104873000D01*
X110532520Y-104873000D01*
X110503102Y-104829388D01*
X110467848Y-104775514D01*
X110461582Y-104767832D01*
X110399381Y-104692643D01*
X110353731Y-104647311D01*
X110308701Y-104601327D01*
X110301062Y-104595008D01*
X110225441Y-104533332D01*
X110171853Y-104497728D01*
X110118738Y-104461359D01*
X110110017Y-104456644D01*
X110023856Y-104410832D01*
X109964388Y-104386321D01*
X109905220Y-104360962D01*
X109895751Y-104358031D01*
X109802333Y-104329826D01*
X109739213Y-104317328D01*
X109676257Y-104303946D01*
X109666398Y-104302910D01*
X109569281Y-104293388D01*
X109569277Y-104293388D01*
X109534877Y-104290000D01*
X105465123Y-104290000D01*
X105430225Y-104293437D01*
X105423738Y-104293437D01*
X105413879Y-104294473D01*
X105371913Y-104299180D01*
X105360816Y-104300273D01*
X105360022Y-104300514D01*
X105316905Y-104305350D01*
X105253977Y-104318726D01*
X105190832Y-104331229D01*
X105181362Y-104334160D01*
X105088347Y-104363666D01*
X105029187Y-104389022D01*
X104969705Y-104413539D01*
X104960985Y-104418254D01*
X104875472Y-104465265D01*
X104822391Y-104501610D01*
X104768772Y-104537235D01*
X104761134Y-104543554D01*
X104686382Y-104606279D01*
X104641370Y-104652244D01*
X104595700Y-104697596D01*
X104589435Y-104705278D01*
X104528289Y-104781328D01*
X104493059Y-104835164D01*
X104457067Y-104888525D01*
X104452413Y-104897278D01*
X104407203Y-104983758D01*
X104383105Y-105043403D01*
X104358161Y-105102741D01*
X104355296Y-105112232D01*
X104327744Y-105205843D01*
X104315690Y-105269035D01*
X104302745Y-105332095D01*
X104301778Y-105341961D01*
X104292934Y-105439144D01*
X104293383Y-105503458D01*
X104292934Y-105567839D01*
X104293901Y-105577705D01*
X104304101Y-105674754D01*
X104317045Y-105737811D01*
X104329099Y-105801001D01*
X104331964Y-105810491D01*
X104360820Y-105903710D01*
X104385752Y-105963021D01*
X104409865Y-106022702D01*
X104414519Y-106031454D01*
X104460932Y-106117292D01*
X104496898Y-106170612D01*
X104532152Y-106224486D01*
X104538417Y-106232168D01*
X104600619Y-106307357D01*
X104646269Y-106352689D01*
X104691299Y-106398673D01*
X104698938Y-106404992D01*
X104774559Y-106466668D01*
X104828147Y-106502272D01*
X104881262Y-106538641D01*
X104889983Y-106543356D01*
X104976144Y-106589168D01*
X105035612Y-106613679D01*
X105094780Y-106639038D01*
X105104249Y-106641969D01*
X105197667Y-106670174D01*
X105260787Y-106682672D01*
X105323743Y-106696054D01*
X105333602Y-106697090D01*
X105430719Y-106706612D01*
X105430723Y-106706612D01*
X105465123Y-106710000D01*
X109534877Y-106710000D01*
X109569775Y-106706563D01*
X109576262Y-106706563D01*
X109586120Y-106705527D01*
X109628082Y-106700820D01*
X109639184Y-106699727D01*
X109639978Y-106699486D01*
X109683095Y-106694650D01*
X109746017Y-106681276D01*
X109809168Y-106668771D01*
X109818638Y-106665840D01*
X109911653Y-106636334D01*
X109970813Y-106610978D01*
X110030295Y-106586461D01*
X110039015Y-106581746D01*
X110124528Y-106534735D01*
X110177609Y-106498390D01*
X110231228Y-106462765D01*
X110238866Y-106456446D01*
X110313618Y-106393721D01*
X110358630Y-106347756D01*
X110404300Y-106302404D01*
X110410565Y-106294722D01*
X110471711Y-106218672D01*
X110506963Y-106164802D01*
X110532461Y-106127000D01*
X113467480Y-106127000D01*
X113496898Y-106170612D01*
X113532152Y-106224486D01*
X113538417Y-106232168D01*
X113600619Y-106307357D01*
X113646269Y-106352689D01*
X113691299Y-106398673D01*
X113698938Y-106404992D01*
X113774559Y-106466668D01*
X113828147Y-106502272D01*
X113881262Y-106538641D01*
X113889983Y-106543356D01*
X113976144Y-106589168D01*
X114035612Y-106613679D01*
X114094780Y-106639038D01*
X114104249Y-106641969D01*
X114197667Y-106670174D01*
X114260787Y-106682672D01*
X114323743Y-106696054D01*
X114333602Y-106697090D01*
X114430719Y-106706612D01*
X114430723Y-106706612D01*
X114465123Y-106710000D01*
X114824566Y-106710000D01*
X128437158Y-113874522D01*
X128243962Y-113977786D01*
X128087952Y-114293347D01*
X129400000Y-115605395D01*
X129414143Y-115591253D01*
X129593748Y-115770858D01*
X129579605Y-115785000D01*
X130891653Y-117097048D01*
X131207214Y-116941038D01*
X131398020Y-116566255D01*
X131512044Y-116161449D01*
X131544902Y-115742176D01*
X131515531Y-115494718D01*
X133290000Y-116428649D01*
X133290001Y-130571350D01*
X131527929Y-131498757D01*
X131544902Y-131282176D01*
X131495334Y-130864549D01*
X131365243Y-130464617D01*
X131207214Y-130168962D01*
X130891653Y-130012952D01*
X129579605Y-131325000D01*
X129593748Y-131339143D01*
X129414143Y-131518748D01*
X129400000Y-131504605D01*
X128087952Y-132816653D01*
X128243962Y-133132214D01*
X128335660Y-133178898D01*
X125135000Y-134863456D01*
X125135000Y-131176241D01*
X125279489Y-131272786D01*
X125690782Y-131443149D01*
X126127409Y-131530000D01*
X126572591Y-131530000D01*
X127009218Y-131443149D01*
X127257246Y-131340412D01*
X127255098Y-131367824D01*
X127304666Y-131785451D01*
X127434757Y-132185383D01*
X127592786Y-132481038D01*
X127908347Y-132637048D01*
X129220395Y-131325000D01*
X129206253Y-131310858D01*
X129385858Y-131131253D01*
X129400000Y-131145395D01*
X130712048Y-129833347D01*
X130556038Y-129517786D01*
X130181255Y-129326980D01*
X129776449Y-129212956D01*
X129357176Y-129180098D01*
X128939549Y-129229666D01*
X128610000Y-129336863D01*
X128610000Y-129047409D01*
X128523149Y-128610782D01*
X128352786Y-128199489D01*
X128105456Y-127829334D01*
X127790666Y-127514544D01*
X127420511Y-127267214D01*
X127009218Y-127096851D01*
X126572591Y-127010000D01*
X126127409Y-127010000D01*
X125690782Y-127096851D01*
X125279489Y-127267214D01*
X124909334Y-127514544D01*
X124594544Y-127829334D01*
X124347214Y-128199489D01*
X124176851Y-128610782D01*
X124090000Y-129047409D01*
X124090000Y-129492591D01*
X124176851Y-129929218D01*
X124347214Y-130340511D01*
X124594544Y-130710666D01*
X124618878Y-130735000D01*
X121300000Y-130735000D01*
X121423882Y-130722799D01*
X121543004Y-130686664D01*
X121652787Y-130627983D01*
X121749013Y-130549013D01*
X121827983Y-130452787D01*
X121886664Y-130343004D01*
X121922799Y-130223882D01*
X121935000Y-130100000D01*
X121935000Y-117617409D01*
X124090000Y-117617409D01*
X124090000Y-118062591D01*
X124176851Y-118499218D01*
X124347214Y-118910511D01*
X124594544Y-119280666D01*
X124909334Y-119595456D01*
X125279489Y-119842786D01*
X125690782Y-120013149D01*
X126127409Y-120100000D01*
X126572591Y-120100000D01*
X127009218Y-120013149D01*
X127420511Y-119842786D01*
X127790666Y-119595456D01*
X128105456Y-119280666D01*
X128352786Y-118910511D01*
X128523149Y-118499218D01*
X128610000Y-118062591D01*
X128610000Y-117778568D01*
X128618745Y-117783020D01*
X129023551Y-117897044D01*
X129442824Y-117929902D01*
X129860451Y-117880334D01*
X130260383Y-117750243D01*
X130556038Y-117592214D01*
X130712048Y-117276653D01*
X129400000Y-115964605D01*
X129385858Y-115978748D01*
X129206253Y-115799143D01*
X129220395Y-115785000D01*
X127908347Y-114472952D01*
X127592786Y-114628962D01*
X127401980Y-115003745D01*
X127287956Y-115408551D01*
X127259586Y-115770557D01*
X127009218Y-115666851D01*
X126572591Y-115580000D01*
X126127409Y-115580000D01*
X125690782Y-115666851D01*
X125279489Y-115837214D01*
X124909334Y-116084544D01*
X124594544Y-116399334D01*
X124347214Y-116769489D01*
X124176851Y-117180782D01*
X124090000Y-117617409D01*
X121935000Y-117617409D01*
X121935000Y-116700000D01*
X121922799Y-116576118D01*
X121886664Y-116456996D01*
X121827983Y-116347213D01*
X121749013Y-116250987D01*
X121652787Y-116172017D01*
X121543004Y-116113336D01*
X121423882Y-116077201D01*
X121300000Y-116065000D01*
X104000000Y-116065000D01*
X103876118Y-116077201D01*
X103756996Y-116113336D01*
X103647213Y-116172017D01*
X103550987Y-116250987D01*
X103472017Y-116347213D01*
X103413336Y-116456996D01*
X103377201Y-116576118D01*
X103365000Y-116700000D01*
X103365000Y-118525479D01*
X103274637Y-118390241D01*
X103074759Y-118190363D01*
X102839727Y-118033320D01*
X102578574Y-117925147D01*
X102301335Y-117870000D01*
X102018665Y-117870000D01*
X101741426Y-117925147D01*
X101480273Y-118033320D01*
X101245241Y-118190363D01*
X101045363Y-118390241D01*
X100888320Y-118625273D01*
X100780147Y-118886426D01*
X100725000Y-119163665D01*
X100725000Y-119446335D01*
X100780147Y-119723574D01*
X100888320Y-119984727D01*
X101045363Y-120219759D01*
X101245241Y-120419637D01*
X101480273Y-120576680D01*
X101491826Y-120581466D01*
X101454454Y-120651384D01*
X101426285Y-120744248D01*
X101410998Y-120794644D01*
X101410049Y-120804276D01*
X101405203Y-120853480D01*
X101245241Y-120960363D01*
X101045363Y-121160241D01*
X100888320Y-121395273D01*
X100780147Y-121656426D01*
X100725000Y-121933665D01*
X100725000Y-122216335D01*
X100780147Y-122493574D01*
X100888320Y-122754727D01*
X101045363Y-122989759D01*
X101245241Y-123189637D01*
X101480273Y-123346680D01*
X101491826Y-123351466D01*
X101454454Y-123421384D01*
X101424388Y-123520502D01*
X101410998Y-123564644D01*
X101405203Y-123623480D01*
X101245241Y-123730363D01*
X101045363Y-123930241D01*
X100888320Y-124165273D01*
X100780147Y-124426426D01*
X100725000Y-124703665D01*
X100725000Y-124986335D01*
X100780147Y-125263574D01*
X100888320Y-125524727D01*
X101045363Y-125759759D01*
X101245241Y-125959637D01*
X101480273Y-126116680D01*
X101741426Y-126224853D01*
X101767301Y-126230000D01*
X101741426Y-126235147D01*
X101480273Y-126343320D01*
X101245241Y-126500363D01*
X101045363Y-126700241D01*
X100888320Y-126935273D01*
X100780147Y-127196426D01*
X100725000Y-127473665D01*
X100725000Y-127756335D01*
X100780147Y-128033574D01*
X100888320Y-128294727D01*
X101045363Y-128529759D01*
X101245241Y-128729637D01*
X101480273Y-128886680D01*
X101741426Y-128994853D01*
X102018665Y-129050000D01*
X102301335Y-129050000D01*
X102578574Y-128994853D01*
X102839727Y-128886680D01*
X103074759Y-128729637D01*
X103274637Y-128529759D01*
X103346863Y-128421664D01*
X103365000Y-128439801D01*
X103365000Y-130100000D01*
X103377201Y-130223882D01*
X103413336Y-130343004D01*
X103472017Y-130452787D01*
X103550987Y-130549013D01*
X103647213Y-130627983D01*
X103756996Y-130686664D01*
X103876118Y-130722799D01*
X104000000Y-130735000D01*
X114065000Y-130735000D01*
X114065000Y-133252119D01*
X113954243Y-133094150D01*
X113349790Y-132768731D01*
X112693465Y-132567488D01*
X112010490Y-132498155D01*
X111327112Y-132563395D01*
X110669593Y-132760702D01*
X110063201Y-133082494D01*
X110045757Y-133094150D01*
X109727572Y-133547967D01*
X112000000Y-135820395D01*
X112014143Y-135806253D01*
X112193748Y-135985858D01*
X112179605Y-136000000D01*
X114452033Y-138272428D01*
X114905850Y-137954243D01*
X115231269Y-137349790D01*
X115306327Y-137105000D01*
X120876066Y-137105000D01*
X114824566Y-140290000D01*
X100710000Y-140290000D01*
X100710000Y-137807499D01*
X103032106Y-137807499D01*
X103248228Y-138174258D01*
X103708105Y-138414938D01*
X104206098Y-138561275D01*
X104723071Y-138607648D01*
X105239159Y-138552273D01*
X105559530Y-138452033D01*
X109727572Y-138452033D01*
X110045757Y-138905850D01*
X110650210Y-139231269D01*
X111306535Y-139432512D01*
X111989510Y-139501845D01*
X112672888Y-139436605D01*
X113330407Y-139239298D01*
X113936799Y-138917506D01*
X113954243Y-138905850D01*
X114272428Y-138452033D01*
X112000000Y-136179605D01*
X109727572Y-138452033D01*
X105559530Y-138452033D01*
X105734526Y-138397279D01*
X106151772Y-138174258D01*
X106367894Y-137807499D01*
X104700000Y-136139605D01*
X103032106Y-137807499D01*
X100710000Y-137807499D01*
X100710000Y-135983071D01*
X102052352Y-135983071D01*
X102107727Y-136499159D01*
X102262721Y-136994526D01*
X102485742Y-137411772D01*
X102852501Y-137627894D01*
X104520395Y-135960000D01*
X104879605Y-135960000D01*
X106547499Y-137627894D01*
X106914258Y-137411772D01*
X107154938Y-136951895D01*
X107301275Y-136453902D01*
X107342931Y-135989510D01*
X108498155Y-135989510D01*
X108563395Y-136672888D01*
X108760702Y-137330407D01*
X109082494Y-137936799D01*
X109094150Y-137954243D01*
X109547967Y-138272428D01*
X111820395Y-136000000D01*
X109547967Y-133727572D01*
X109094150Y-134045757D01*
X108768731Y-134650210D01*
X108567488Y-135306535D01*
X108498155Y-135989510D01*
X107342931Y-135989510D01*
X107347648Y-135936929D01*
X107292273Y-135420841D01*
X107137279Y-134925474D01*
X106914258Y-134508228D01*
X106547499Y-134292106D01*
X104879605Y-135960000D01*
X104520395Y-135960000D01*
X102852501Y-134292106D01*
X102485742Y-134508228D01*
X102245062Y-134968105D01*
X102098725Y-135466098D01*
X102052352Y-135983071D01*
X100710000Y-135983071D01*
X100710000Y-134112501D01*
X103032106Y-134112501D01*
X104700000Y-135780395D01*
X106367894Y-134112501D01*
X106151772Y-133745742D01*
X105691895Y-133505062D01*
X105193902Y-133358725D01*
X104676929Y-133312352D01*
X104160841Y-133367727D01*
X103665474Y-133522721D01*
X103248228Y-133745742D01*
X103032106Y-134112501D01*
X100710000Y-134112501D01*
X100710000Y-112807499D01*
X103032106Y-112807499D01*
X103248228Y-113174258D01*
X103708105Y-113414938D01*
X104206098Y-113561275D01*
X104723071Y-113607648D01*
X105239159Y-113552273D01*
X105559530Y-113452033D01*
X109727572Y-113452033D01*
X110045757Y-113905850D01*
X110650210Y-114231269D01*
X111306535Y-114432512D01*
X111989510Y-114501845D01*
X112672888Y-114436605D01*
X113330407Y-114239298D01*
X113936799Y-113917506D01*
X113954243Y-113905850D01*
X114272428Y-113452033D01*
X112000000Y-111179605D01*
X109727572Y-113452033D01*
X105559530Y-113452033D01*
X105734526Y-113397279D01*
X106151772Y-113174258D01*
X106367894Y-112807499D01*
X104700000Y-111139605D01*
X103032106Y-112807499D01*
X100710000Y-112807499D01*
X100710000Y-110983071D01*
X102052352Y-110983071D01*
X102107727Y-111499159D01*
X102262721Y-111994526D01*
X102485742Y-112411772D01*
X102852501Y-112627894D01*
X104520395Y-110960000D01*
X104879605Y-110960000D01*
X106547499Y-112627894D01*
X106914258Y-112411772D01*
X107154938Y-111951895D01*
X107301275Y-111453902D01*
X107342931Y-110989510D01*
X108498155Y-110989510D01*
X108563395Y-111672888D01*
X108760702Y-112330407D01*
X109082494Y-112936799D01*
X109094150Y-112954243D01*
X109547967Y-113272428D01*
X111820395Y-111000000D01*
X112179605Y-111000000D01*
X114452033Y-113272428D01*
X114905850Y-112954243D01*
X115231269Y-112349790D01*
X115432512Y-111693465D01*
X115501845Y-111010490D01*
X115436605Y-110327112D01*
X115239298Y-109669593D01*
X114917506Y-109063201D01*
X114905850Y-109045757D01*
X114452033Y-108727572D01*
X112179605Y-111000000D01*
X111820395Y-111000000D01*
X109547967Y-108727572D01*
X109094150Y-109045757D01*
X108768731Y-109650210D01*
X108567488Y-110306535D01*
X108498155Y-110989510D01*
X107342931Y-110989510D01*
X107347648Y-110936929D01*
X107292273Y-110420841D01*
X107137279Y-109925474D01*
X106914258Y-109508228D01*
X106547499Y-109292106D01*
X104879605Y-110960000D01*
X104520395Y-110960000D01*
X102852501Y-109292106D01*
X102485742Y-109508228D01*
X102245062Y-109968105D01*
X102098725Y-110466098D01*
X102052352Y-110983071D01*
X100710000Y-110983071D01*
X100710000Y-109112501D01*
X103032106Y-109112501D01*
X104700000Y-110780395D01*
X106367894Y-109112501D01*
X106151772Y-108745742D01*
X105773876Y-108547967D01*
X109727572Y-108547967D01*
X112000000Y-110820395D01*
X114272428Y-108547967D01*
X113954243Y-108094150D01*
X113349790Y-107768731D01*
X112693465Y-107567488D01*
X112010490Y-107498155D01*
X111327112Y-107563395D01*
X110669593Y-107760702D01*
X110063201Y-108082494D01*
X110045757Y-108094150D01*
X109727572Y-108547967D01*
X105773876Y-108547967D01*
X105691895Y-108505062D01*
X105193902Y-108358725D01*
X104676929Y-108312352D01*
X104160841Y-108367727D01*
X103665474Y-108522721D01*
X103248228Y-108745742D01*
X103032106Y-109112501D01*
X100710000Y-109112501D01*
X100710000Y-106688931D01*
X100746017Y-106681276D01*
X100809168Y-106668771D01*
X100818638Y-106665840D01*
X100911653Y-106636334D01*
X100970813Y-106610978D01*
X101030295Y-106586461D01*
X101039015Y-106581746D01*
X101124528Y-106534735D01*
X101177609Y-106498390D01*
X101231228Y-106462765D01*
X101238866Y-106456446D01*
X101313618Y-106393721D01*
X101358630Y-106347756D01*
X101404300Y-106302404D01*
X101410565Y-106294722D01*
X101471711Y-106218672D01*
X101506963Y-106164802D01*
X101532461Y-106127000D01*
X104000000Y-106127000D01*
X104024776Y-106124560D01*
X104048601Y-106117333D01*
X104070557Y-106105597D01*
X104089803Y-106089803D01*
X104105597Y-106070557D01*
X104117333Y-106048601D01*
X104124560Y-106024776D01*
X104127000Y-106000000D01*
X104127000Y-105000000D01*
X104124560Y-104975224D01*
X104117333Y-104951399D01*
X104105597Y-104929443D01*
X104089803Y-104910197D01*
X104070557Y-104894403D01*
X104048601Y-104882667D01*
X104024776Y-104875440D01*
X104000000Y-104873000D01*
X101532520Y-104873000D01*
X101503102Y-104829388D01*
X101467848Y-104775514D01*
X101461582Y-104767832D01*
X101399381Y-104692643D01*
X101353731Y-104647311D01*
X101308701Y-104601327D01*
X101301062Y-104595008D01*
X101225441Y-104533332D01*
X101171853Y-104497728D01*
X101118738Y-104461359D01*
X101110017Y-104456644D01*
X101023856Y-104410832D01*
X100964388Y-104386321D01*
X100905220Y-104360962D01*
X100895751Y-104358031D01*
X100802333Y-104329826D01*
X100739213Y-104317328D01*
X100710000Y-104311118D01*
X100710000Y-101887499D01*
X103032106Y-101887499D01*
X103248228Y-102254258D01*
X103708105Y-102494938D01*
X104206098Y-102641275D01*
X104723071Y-102687648D01*
X105239159Y-102632273D01*
X105734526Y-102477279D01*
X105781758Y-102452033D01*
X109727572Y-102452033D01*
X110045757Y-102905850D01*
X110650210Y-103231269D01*
X111306535Y-103432512D01*
X111989510Y-103501845D01*
X112672888Y-103436605D01*
X113330407Y-103239298D01*
X113936799Y-102917506D01*
X113954243Y-102905850D01*
X114272428Y-102452033D01*
X112000000Y-100179605D01*
X109727572Y-102452033D01*
X105781758Y-102452033D01*
X106151772Y-102254258D01*
X106367894Y-101887499D01*
X104700000Y-100219605D01*
X103032106Y-101887499D01*
X100710000Y-101887499D01*
X100710000Y-100063071D01*
X102052352Y-100063071D01*
X102107727Y-100579159D01*
X102262721Y-101074526D01*
X102485742Y-101491772D01*
X102852501Y-101707894D01*
X104520395Y-100040000D01*
X104879605Y-100040000D01*
X106547499Y-101707894D01*
X106914258Y-101491772D01*
X107154938Y-101031895D01*
X107301275Y-100533902D01*
X107347648Y-100016929D01*
X107344707Y-99989510D01*
X108498155Y-99989510D01*
X108563395Y-100672888D01*
X108760702Y-101330407D01*
X109082494Y-101936799D01*
X109094150Y-101954243D01*
X109547967Y-102272428D01*
X111820395Y-100000000D01*
X109547967Y-97727572D01*
X109094150Y-98045757D01*
X108768731Y-98650210D01*
X108567488Y-99306535D01*
X108498155Y-99989510D01*
X107344707Y-99989510D01*
X107292273Y-99500841D01*
X107137279Y-99005474D01*
X106914258Y-98588228D01*
X106547499Y-98372106D01*
X104879605Y-100040000D01*
X104520395Y-100040000D01*
X102852501Y-98372106D01*
X102485742Y-98588228D01*
X102245062Y-99048105D01*
X102098725Y-99546098D01*
X102052352Y-100063071D01*
X100710000Y-100063071D01*
X100710000Y-98192501D01*
X103032106Y-98192501D01*
X104700000Y-99860395D01*
X106367894Y-98192501D01*
X106151772Y-97825742D01*
X105691895Y-97585062D01*
X105193902Y-97438725D01*
X104676929Y-97392352D01*
X104160841Y-97447727D01*
X103665474Y-97602721D01*
X103248228Y-97825742D01*
X103032106Y-98192501D01*
X100710000Y-98192501D01*
X100710000Y-83243665D01*
X100725000Y-83243665D01*
X100725000Y-83526335D01*
X100780147Y-83803574D01*
X100888320Y-84064727D01*
X101045363Y-84299759D01*
X101245241Y-84499637D01*
X101480273Y-84656680D01*
X101741426Y-84764853D01*
X101767301Y-84770000D01*
X101741426Y-84775147D01*
X101480273Y-84883320D01*
X101245241Y-85040363D01*
X101045363Y-85240241D01*
X100888320Y-85475273D01*
X100780147Y-85736426D01*
X100725000Y-86013665D01*
X100725000Y-86296335D01*
X100780147Y-86573574D01*
X100888320Y-86834727D01*
X101045363Y-87069759D01*
X101245241Y-87269637D01*
X101480273Y-87426680D01*
X101741426Y-87534853D01*
X101767301Y-87540000D01*
X101741426Y-87545147D01*
X101480273Y-87653320D01*
X101245241Y-87810363D01*
X101045363Y-88010241D01*
X100888320Y-88245273D01*
X100780147Y-88506426D01*
X100725000Y-88783665D01*
X100725000Y-89066335D01*
X100780147Y-89343574D01*
X100888320Y-89604727D01*
X101045363Y-89839759D01*
X101245241Y-90039637D01*
X101480273Y-90196680D01*
X101741426Y-90304853D01*
X101767301Y-90310000D01*
X101741426Y-90315147D01*
X101480273Y-90423320D01*
X101245241Y-90580363D01*
X101045363Y-90780241D01*
X100888320Y-91015273D01*
X100780147Y-91276426D01*
X100725000Y-91553665D01*
X100725000Y-91836335D01*
X100780147Y-92113574D01*
X100888320Y-92374727D01*
X101045363Y-92609759D01*
X101245241Y-92809637D01*
X101480273Y-92966680D01*
X101741426Y-93074853D01*
X102018665Y-93130000D01*
X102301335Y-93130000D01*
X102365000Y-93117336D01*
X102365000Y-94000000D01*
X102377201Y-94123882D01*
X102413336Y-94243004D01*
X102472017Y-94352787D01*
X102550987Y-94449013D01*
X102647213Y-94527983D01*
X102756996Y-94586664D01*
X102876118Y-94622799D01*
X103000000Y-94635000D01*
X121000000Y-94635000D01*
X121123882Y-94622799D01*
X121243004Y-94586664D01*
X121352787Y-94527983D01*
X121449013Y-94449013D01*
X121527983Y-94352787D01*
X121586664Y-94243004D01*
X121622799Y-94123882D01*
X121635000Y-94000000D01*
X121635000Y-87951634D01*
X121638796Y-87947009D01*
X121638800Y-87947005D01*
X121709974Y-87860278D01*
X121709975Y-87860277D01*
X121780547Y-87728248D01*
X121824004Y-87584987D01*
X121835001Y-87473334D01*
X121835001Y-87473325D01*
X121838677Y-87436002D01*
X121835001Y-87398679D01*
X121835001Y-85492323D01*
X121838677Y-85455001D01*
X121835001Y-85417678D01*
X121835001Y-85417668D01*
X121824004Y-85306015D01*
X121780547Y-85162754D01*
X121768301Y-85139844D01*
X121709975Y-85030724D01*
X121638800Y-84943998D01*
X121635000Y-84939368D01*
X121635000Y-81617409D01*
X124090000Y-81617409D01*
X124090000Y-82062591D01*
X124176851Y-82499218D01*
X124347214Y-82910511D01*
X124594544Y-83280666D01*
X124909334Y-83595456D01*
X125279489Y-83842786D01*
X125690782Y-84013149D01*
X126127409Y-84100000D01*
X126572591Y-84100000D01*
X127009218Y-84013149D01*
X127420511Y-83842786D01*
X127790666Y-83595456D01*
X128105456Y-83280666D01*
X128352786Y-82910511D01*
X128523149Y-82499218D01*
X128610000Y-82062591D01*
X128610000Y-81778568D01*
X128618745Y-81783020D01*
X129023551Y-81897044D01*
X129442824Y-81929902D01*
X129860451Y-81880334D01*
X130260383Y-81750243D01*
X130556038Y-81592214D01*
X130712048Y-81276653D01*
X129400000Y-79964605D01*
X129385858Y-79978748D01*
X129206253Y-79799143D01*
X129220395Y-79785000D01*
X127908347Y-78472952D01*
X127592786Y-78628962D01*
X127401980Y-79003745D01*
X127287956Y-79408551D01*
X127259586Y-79770557D01*
X127009218Y-79666851D01*
X126572591Y-79580000D01*
X126127409Y-79580000D01*
X125690782Y-79666851D01*
X125279489Y-79837214D01*
X124909334Y-80084544D01*
X124594544Y-80399334D01*
X124347214Y-80769489D01*
X124176851Y-81180782D01*
X124090000Y-81617409D01*
X121635000Y-81617409D01*
X121635000Y-80000000D01*
X121622799Y-79876118D01*
X121586664Y-79756996D01*
X121527983Y-79647213D01*
X121449013Y-79550987D01*
X121352787Y-79472017D01*
X121243004Y-79413336D01*
X121123882Y-79377201D01*
X121000000Y-79365000D01*
X103000000Y-79365000D01*
X102876118Y-79377201D01*
X102756996Y-79413336D01*
X102647213Y-79472017D01*
X102550987Y-79550987D01*
X102472017Y-79647213D01*
X102413336Y-79756996D01*
X102377201Y-79876118D01*
X102365000Y-80000000D01*
X102365000Y-81962664D01*
X102301335Y-81950000D01*
X102018665Y-81950000D01*
X101741426Y-82005147D01*
X101480273Y-82113320D01*
X101245241Y-82270363D01*
X101045363Y-82470241D01*
X100888320Y-82705273D01*
X100780147Y-82966426D01*
X100725000Y-83243665D01*
X100710000Y-83243665D01*
X100710000Y-76887499D01*
X103032106Y-76887499D01*
X103248228Y-77254258D01*
X103708105Y-77494938D01*
X104206098Y-77641275D01*
X104723071Y-77687648D01*
X105239159Y-77632273D01*
X105734526Y-77477279D01*
X105781758Y-77452033D01*
X109727572Y-77452033D01*
X110045757Y-77905850D01*
X110650210Y-78231269D01*
X111306535Y-78432512D01*
X111989510Y-78501845D01*
X112672888Y-78436605D01*
X113330407Y-78239298D01*
X113936799Y-77917506D01*
X113954243Y-77905850D01*
X114272428Y-77452033D01*
X112000000Y-75179605D01*
X109727572Y-77452033D01*
X105781758Y-77452033D01*
X106151772Y-77254258D01*
X106367894Y-76887499D01*
X104700000Y-75219605D01*
X103032106Y-76887499D01*
X100710000Y-76887499D01*
X100710000Y-75063071D01*
X102052352Y-75063071D01*
X102107727Y-75579159D01*
X102262721Y-76074526D01*
X102485742Y-76491772D01*
X102852501Y-76707894D01*
X104520395Y-75040000D01*
X104879605Y-75040000D01*
X106547499Y-76707894D01*
X106914258Y-76491772D01*
X107154938Y-76031895D01*
X107301275Y-75533902D01*
X107347648Y-75016929D01*
X107344707Y-74989510D01*
X108498155Y-74989510D01*
X108563395Y-75672888D01*
X108760702Y-76330407D01*
X109082494Y-76936799D01*
X109094150Y-76954243D01*
X109547967Y-77272428D01*
X111820395Y-75000000D01*
X112179605Y-75000000D01*
X114452033Y-77272428D01*
X114905850Y-76954243D01*
X115231269Y-76349790D01*
X115432512Y-75693465D01*
X115501845Y-75010490D01*
X115436605Y-74327112D01*
X115239298Y-73669593D01*
X114917506Y-73063201D01*
X114905850Y-73045757D01*
X114452033Y-72727572D01*
X112179605Y-75000000D01*
X111820395Y-75000000D01*
X109547967Y-72727572D01*
X109094150Y-73045757D01*
X108768731Y-73650210D01*
X108567488Y-74306535D01*
X108498155Y-74989510D01*
X107344707Y-74989510D01*
X107292273Y-74500841D01*
X107137279Y-74005474D01*
X106914258Y-73588228D01*
X106547499Y-73372106D01*
X104879605Y-75040000D01*
X104520395Y-75040000D01*
X102852501Y-73372106D01*
X102485742Y-73588228D01*
X102245062Y-74048105D01*
X102098725Y-74546098D01*
X102052352Y-75063071D01*
X100710000Y-75063071D01*
X100710000Y-73192501D01*
X103032106Y-73192501D01*
X104700000Y-74860395D01*
X106367894Y-73192501D01*
X106151772Y-72825742D01*
X105691895Y-72585062D01*
X105565659Y-72547967D01*
X109727572Y-72547967D01*
X112000000Y-74820395D01*
X114272428Y-72547967D01*
X113954243Y-72094150D01*
X113349790Y-71768731D01*
X112693465Y-71567488D01*
X112010490Y-71498155D01*
X111327112Y-71563395D01*
X110669593Y-71760702D01*
X110063201Y-72082494D01*
X110045757Y-72094150D01*
X109727572Y-72547967D01*
X105565659Y-72547967D01*
X105193902Y-72438725D01*
X104676929Y-72392352D01*
X104160841Y-72447727D01*
X103665474Y-72602721D01*
X103248228Y-72825742D01*
X103032106Y-73192501D01*
X100710000Y-73192501D01*
X100710000Y-70710000D01*
X114824566Y-70710000D01*
X128437158Y-77874522D01*
G37*
G04 #@! TD.AperFunction*
D20*
X103620147Y-89891426D02*
X103565000Y-90168665D01*
X103565000Y-90451335D01*
X103620147Y-90728574D01*
X103728320Y-90989727D01*
X103885363Y-91224759D01*
X104085241Y-91424637D01*
X104320273Y-91581680D01*
X104581426Y-91689853D01*
X104609882Y-91695513D01*
X104383708Y-91776397D01*
X104258486Y-91843329D01*
X104186903Y-92087298D01*
X105000000Y-92900395D01*
X105813097Y-92087298D01*
X105741514Y-91843329D01*
X105486004Y-91722429D01*
X105383711Y-91696788D01*
X105418574Y-91689853D01*
X105679727Y-91581680D01*
X105914759Y-91424637D01*
X106114637Y-91224759D01*
X106271680Y-90989727D01*
X106286571Y-90953777D01*
X106295992Y-90961961D01*
X106297878Y-90963847D01*
X106329482Y-91000226D01*
X106380226Y-91039542D01*
X106429853Y-91080270D01*
X106472355Y-91102988D01*
X106474619Y-91104411D01*
X106513531Y-91132848D01*
X106571743Y-91159882D01*
X106629183Y-91188543D01*
X106675674Y-91201234D01*
X106678197Y-91202117D01*
X106722448Y-91221178D01*
X106785230Y-91234585D01*
X106847622Y-91249749D01*
X106895761Y-91251775D01*
X106898427Y-91252076D01*
X106945828Y-91260814D01*
X107010002Y-91259913D01*
X107074176Y-91260814D01*
X107121578Y-91252075D01*
X107124242Y-91251775D01*
X107172379Y-91249749D01*
X107234759Y-91234588D01*
X107297554Y-91221178D01*
X107341807Y-91202115D01*
X107344325Y-91201234D01*
X107390818Y-91188543D01*
X107448258Y-91159882D01*
X107506470Y-91132848D01*
X107510000Y-91130268D01*
X107513531Y-91132848D01*
X107571743Y-91159882D01*
X107629183Y-91188543D01*
X107675674Y-91201234D01*
X107678197Y-91202117D01*
X107722448Y-91221178D01*
X107785230Y-91234585D01*
X107847622Y-91249749D01*
X107895761Y-91251775D01*
X107898427Y-91252076D01*
X107945828Y-91260814D01*
X108010002Y-91259913D01*
X108074176Y-91260814D01*
X108121578Y-91252075D01*
X108124242Y-91251775D01*
X108172379Y-91249749D01*
X108234759Y-91234588D01*
X108297554Y-91221178D01*
X108341807Y-91202115D01*
X108344325Y-91201234D01*
X108390818Y-91188543D01*
X108448258Y-91159882D01*
X108506470Y-91132848D01*
X108545379Y-91104412D01*
X108547643Y-91102990D01*
X108590149Y-91080270D01*
X108639782Y-91039536D01*
X108690519Y-91000226D01*
X108722123Y-90963847D01*
X108724009Y-90961961D01*
X108760388Y-90930357D01*
X108799704Y-90879613D01*
X108840432Y-90829986D01*
X108863150Y-90787484D01*
X108864573Y-90785220D01*
X108893010Y-90746308D01*
X108920044Y-90688096D01*
X108948705Y-90630656D01*
X108961396Y-90584165D01*
X108962278Y-90581643D01*
X108981340Y-90537392D01*
X108994749Y-90474601D01*
X109009911Y-90412217D01*
X109010602Y-90395809D01*
X109025250Y-90456081D01*
X109038657Y-90518866D01*
X109057721Y-90563126D01*
X109058605Y-90565650D01*
X109071296Y-90612143D01*
X109099957Y-90669583D01*
X109126991Y-90727795D01*
X109155427Y-90766704D01*
X109156849Y-90768968D01*
X109179569Y-90811474D01*
X109220303Y-90861107D01*
X109259613Y-90911844D01*
X109295992Y-90943448D01*
X109297878Y-90945334D01*
X109329482Y-90981713D01*
X109380226Y-91021029D01*
X109429853Y-91061757D01*
X109472355Y-91084475D01*
X109474619Y-91085898D01*
X109513531Y-91114335D01*
X109571743Y-91141369D01*
X109629183Y-91170030D01*
X109675674Y-91182721D01*
X109678197Y-91183604D01*
X109722448Y-91202665D01*
X109785230Y-91216072D01*
X109847622Y-91231236D01*
X109895761Y-91233262D01*
X109898427Y-91233563D01*
X109945828Y-91242301D01*
X110010002Y-91241400D01*
X110074176Y-91242301D01*
X110121578Y-91233562D01*
X110124242Y-91233262D01*
X110172379Y-91231236D01*
X110234759Y-91216075D01*
X110297554Y-91202665D01*
X110341807Y-91183602D01*
X110344325Y-91182721D01*
X110390818Y-91170030D01*
X110448258Y-91141369D01*
X110506470Y-91114335D01*
X110510000Y-91111755D01*
X110513531Y-91114335D01*
X110571743Y-91141369D01*
X110629183Y-91170030D01*
X110675674Y-91182721D01*
X110678197Y-91183604D01*
X110722448Y-91202665D01*
X110785230Y-91216072D01*
X110847622Y-91231236D01*
X110895761Y-91233262D01*
X110898427Y-91233563D01*
X110945828Y-91242301D01*
X111010002Y-91241400D01*
X111074176Y-91242301D01*
X111121578Y-91233562D01*
X111124242Y-91233262D01*
X111172379Y-91231236D01*
X111234759Y-91216075D01*
X111297554Y-91202665D01*
X111341807Y-91183602D01*
X111344325Y-91182721D01*
X111390818Y-91170030D01*
X111448258Y-91141369D01*
X111506470Y-91114335D01*
X111545379Y-91085899D01*
X111547643Y-91084477D01*
X111590149Y-91061757D01*
X111639782Y-91021023D01*
X111690519Y-90981713D01*
X111722123Y-90945334D01*
X111724009Y-90943448D01*
X111760388Y-90911844D01*
X111799704Y-90861100D01*
X111840432Y-90811473D01*
X111863150Y-90768971D01*
X111864573Y-90766707D01*
X111893010Y-90727795D01*
X111920044Y-90669583D01*
X111948705Y-90612143D01*
X111961396Y-90565652D01*
X111962278Y-90563130D01*
X111981340Y-90518879D01*
X111994749Y-90456088D01*
X112009911Y-90393704D01*
X112011572Y-90354236D01*
X112015817Y-90311137D01*
X112019401Y-90279335D01*
X112019476Y-90273989D01*
X112019869Y-90270001D01*
X116151425Y-90270001D01*
X116128225Y-90326011D01*
X116075000Y-90593589D01*
X116075000Y-90866411D01*
X116128225Y-91133989D01*
X116232629Y-91386043D01*
X116384201Y-91612886D01*
X116577114Y-91805799D01*
X116803957Y-91957371D01*
X117056011Y-92061775D01*
X117323589Y-92115000D01*
X117596411Y-92115000D01*
X117863989Y-92061775D01*
X118116043Y-91957371D01*
X118342886Y-91805799D01*
X118535799Y-91612886D01*
X118611928Y-91498951D01*
X118611928Y-92750000D01*
X118624188Y-92874482D01*
X118660498Y-92994180D01*
X118719463Y-93104494D01*
X118798815Y-93201185D01*
X118895506Y-93280537D01*
X119005820Y-93339502D01*
X119125518Y-93375812D01*
X119250000Y-93388072D01*
X120750000Y-93388072D01*
X120873000Y-93375958D01*
X120873000Y-93873000D01*
X106061197Y-93873000D01*
X106236671Y-93821514D01*
X106357571Y-93566004D01*
X106426300Y-93291816D01*
X106440217Y-93009488D01*
X106398787Y-92729870D01*
X106303603Y-92463708D01*
X106236671Y-92338486D01*
X105992702Y-92266903D01*
X105179605Y-93080000D01*
X105193748Y-93094143D01*
X105014143Y-93273748D01*
X105000000Y-93259605D01*
X104985858Y-93273748D01*
X104806253Y-93094143D01*
X104820395Y-93080000D01*
X104007298Y-92266903D01*
X103763329Y-92338486D01*
X103642429Y-92593996D01*
X103573700Y-92868184D01*
X103559783Y-93150512D01*
X103601213Y-93430130D01*
X103696397Y-93696292D01*
X103763329Y-93821514D01*
X103938803Y-93873000D01*
X103127000Y-93873000D01*
X103127000Y-92757396D01*
X103274637Y-92609759D01*
X103431680Y-92374727D01*
X103539853Y-92113574D01*
X103595000Y-91836335D01*
X103595000Y-91553665D01*
X103539853Y-91276426D01*
X103431680Y-91015273D01*
X103274637Y-90780241D01*
X103127000Y-90632604D01*
X103127000Y-89987396D01*
X103274637Y-89839759D01*
X103378043Y-89685000D01*
X103705651Y-89685000D01*
X103620147Y-89891426D01*
G04 #@! TA.AperFunction,Conductor*
D21*
G36*
X103620147Y-89891426D02*
G01*
X103565000Y-90168665D01*
X103565000Y-90451335D01*
X103620147Y-90728574D01*
X103728320Y-90989727D01*
X103885363Y-91224759D01*
X104085241Y-91424637D01*
X104320273Y-91581680D01*
X104581426Y-91689853D01*
X104609882Y-91695513D01*
X104383708Y-91776397D01*
X104258486Y-91843329D01*
X104186903Y-92087298D01*
X105000000Y-92900395D01*
X105813097Y-92087298D01*
X105741514Y-91843329D01*
X105486004Y-91722429D01*
X105383711Y-91696788D01*
X105418574Y-91689853D01*
X105679727Y-91581680D01*
X105914759Y-91424637D01*
X106114637Y-91224759D01*
X106271680Y-90989727D01*
X106286571Y-90953777D01*
X106295992Y-90961961D01*
X106297878Y-90963847D01*
X106329482Y-91000226D01*
X106380226Y-91039542D01*
X106429853Y-91080270D01*
X106472355Y-91102988D01*
X106474619Y-91104411D01*
X106513531Y-91132848D01*
X106571743Y-91159882D01*
X106629183Y-91188543D01*
X106675674Y-91201234D01*
X106678197Y-91202117D01*
X106722448Y-91221178D01*
X106785230Y-91234585D01*
X106847622Y-91249749D01*
X106895761Y-91251775D01*
X106898427Y-91252076D01*
X106945828Y-91260814D01*
X107010002Y-91259913D01*
X107074176Y-91260814D01*
X107121578Y-91252075D01*
X107124242Y-91251775D01*
X107172379Y-91249749D01*
X107234759Y-91234588D01*
X107297554Y-91221178D01*
X107341807Y-91202115D01*
X107344325Y-91201234D01*
X107390818Y-91188543D01*
X107448258Y-91159882D01*
X107506470Y-91132848D01*
X107510000Y-91130268D01*
X107513531Y-91132848D01*
X107571743Y-91159882D01*
X107629183Y-91188543D01*
X107675674Y-91201234D01*
X107678197Y-91202117D01*
X107722448Y-91221178D01*
X107785230Y-91234585D01*
X107847622Y-91249749D01*
X107895761Y-91251775D01*
X107898427Y-91252076D01*
X107945828Y-91260814D01*
X108010002Y-91259913D01*
X108074176Y-91260814D01*
X108121578Y-91252075D01*
X108124242Y-91251775D01*
X108172379Y-91249749D01*
X108234759Y-91234588D01*
X108297554Y-91221178D01*
X108341807Y-91202115D01*
X108344325Y-91201234D01*
X108390818Y-91188543D01*
X108448258Y-91159882D01*
X108506470Y-91132848D01*
X108545379Y-91104412D01*
X108547643Y-91102990D01*
X108590149Y-91080270D01*
X108639782Y-91039536D01*
X108690519Y-91000226D01*
X108722123Y-90963847D01*
X108724009Y-90961961D01*
X108760388Y-90930357D01*
X108799704Y-90879613D01*
X108840432Y-90829986D01*
X108863150Y-90787484D01*
X108864573Y-90785220D01*
X108893010Y-90746308D01*
X108920044Y-90688096D01*
X108948705Y-90630656D01*
X108961396Y-90584165D01*
X108962278Y-90581643D01*
X108981340Y-90537392D01*
X108994749Y-90474601D01*
X109009911Y-90412217D01*
X109010602Y-90395809D01*
X109025250Y-90456081D01*
X109038657Y-90518866D01*
X109057721Y-90563126D01*
X109058605Y-90565650D01*
X109071296Y-90612143D01*
X109099957Y-90669583D01*
X109126991Y-90727795D01*
X109155427Y-90766704D01*
X109156849Y-90768968D01*
X109179569Y-90811474D01*
X109220303Y-90861107D01*
X109259613Y-90911844D01*
X109295992Y-90943448D01*
X109297878Y-90945334D01*
X109329482Y-90981713D01*
X109380226Y-91021029D01*
X109429853Y-91061757D01*
X109472355Y-91084475D01*
X109474619Y-91085898D01*
X109513531Y-91114335D01*
X109571743Y-91141369D01*
X109629183Y-91170030D01*
X109675674Y-91182721D01*
X109678197Y-91183604D01*
X109722448Y-91202665D01*
X109785230Y-91216072D01*
X109847622Y-91231236D01*
X109895761Y-91233262D01*
X109898427Y-91233563D01*
X109945828Y-91242301D01*
X110010002Y-91241400D01*
X110074176Y-91242301D01*
X110121578Y-91233562D01*
X110124242Y-91233262D01*
X110172379Y-91231236D01*
X110234759Y-91216075D01*
X110297554Y-91202665D01*
X110341807Y-91183602D01*
X110344325Y-91182721D01*
X110390818Y-91170030D01*
X110448258Y-91141369D01*
X110506470Y-91114335D01*
X110510000Y-91111755D01*
X110513531Y-91114335D01*
X110571743Y-91141369D01*
X110629183Y-91170030D01*
X110675674Y-91182721D01*
X110678197Y-91183604D01*
X110722448Y-91202665D01*
X110785230Y-91216072D01*
X110847622Y-91231236D01*
X110895761Y-91233262D01*
X110898427Y-91233563D01*
X110945828Y-91242301D01*
X111010002Y-91241400D01*
X111074176Y-91242301D01*
X111121578Y-91233562D01*
X111124242Y-91233262D01*
X111172379Y-91231236D01*
X111234759Y-91216075D01*
X111297554Y-91202665D01*
X111341807Y-91183602D01*
X111344325Y-91182721D01*
X111390818Y-91170030D01*
X111448258Y-91141369D01*
X111506470Y-91114335D01*
X111545379Y-91085899D01*
X111547643Y-91084477D01*
X111590149Y-91061757D01*
X111639782Y-91021023D01*
X111690519Y-90981713D01*
X111722123Y-90945334D01*
X111724009Y-90943448D01*
X111760388Y-90911844D01*
X111799704Y-90861100D01*
X111840432Y-90811473D01*
X111863150Y-90768971D01*
X111864573Y-90766707D01*
X111893010Y-90727795D01*
X111920044Y-90669583D01*
X111948705Y-90612143D01*
X111961396Y-90565652D01*
X111962278Y-90563130D01*
X111981340Y-90518879D01*
X111994749Y-90456088D01*
X112009911Y-90393704D01*
X112011572Y-90354236D01*
X112015817Y-90311137D01*
X112019401Y-90279335D01*
X112019476Y-90273989D01*
X112019869Y-90270001D01*
X116151425Y-90270001D01*
X116128225Y-90326011D01*
X116075000Y-90593589D01*
X116075000Y-90866411D01*
X116128225Y-91133989D01*
X116232629Y-91386043D01*
X116384201Y-91612886D01*
X116577114Y-91805799D01*
X116803957Y-91957371D01*
X117056011Y-92061775D01*
X117323589Y-92115000D01*
X117596411Y-92115000D01*
X117863989Y-92061775D01*
X118116043Y-91957371D01*
X118342886Y-91805799D01*
X118535799Y-91612886D01*
X118611928Y-91498951D01*
X118611928Y-92750000D01*
X118624188Y-92874482D01*
X118660498Y-92994180D01*
X118719463Y-93104494D01*
X118798815Y-93201185D01*
X118895506Y-93280537D01*
X119005820Y-93339502D01*
X119125518Y-93375812D01*
X119250000Y-93388072D01*
X120750000Y-93388072D01*
X120873000Y-93375958D01*
X120873000Y-93873000D01*
X106061197Y-93873000D01*
X106236671Y-93821514D01*
X106357571Y-93566004D01*
X106426300Y-93291816D01*
X106440217Y-93009488D01*
X106398787Y-92729870D01*
X106303603Y-92463708D01*
X106236671Y-92338486D01*
X105992702Y-92266903D01*
X105179605Y-93080000D01*
X105193748Y-93094143D01*
X105014143Y-93273748D01*
X105000000Y-93259605D01*
X104985858Y-93273748D01*
X104806253Y-93094143D01*
X104820395Y-93080000D01*
X104007298Y-92266903D01*
X103763329Y-92338486D01*
X103642429Y-92593996D01*
X103573700Y-92868184D01*
X103559783Y-93150512D01*
X103601213Y-93430130D01*
X103696397Y-93696292D01*
X103763329Y-93821514D01*
X103938803Y-93873000D01*
X103127000Y-93873000D01*
X103127000Y-92757396D01*
X103274637Y-92609759D01*
X103431680Y-92374727D01*
X103539853Y-92113574D01*
X103595000Y-91836335D01*
X103595000Y-91553665D01*
X103539853Y-91276426D01*
X103431680Y-91015273D01*
X103274637Y-90780241D01*
X103127000Y-90632604D01*
X103127000Y-89987396D01*
X103274637Y-89839759D01*
X103378043Y-89685000D01*
X103705651Y-89685000D01*
X103620147Y-89891426D01*
G37*
G04 #@! TD.AperFunction*
D20*
X117653748Y-88175858D02*
X117639605Y-88190000D01*
X117653748Y-88204143D01*
X117474143Y-88383748D01*
X117460000Y-88369605D01*
X117445858Y-88383748D01*
X117266253Y-88204143D01*
X117280395Y-88190000D01*
X117266253Y-88175858D01*
X117445858Y-87996253D01*
X117460000Y-88010395D01*
X117474143Y-87996253D01*
X117653748Y-88175858D01*
G04 #@! TA.AperFunction,Conductor*
D21*
G36*
X117653748Y-88175858D02*
G01*
X117639605Y-88190000D01*
X117653748Y-88204143D01*
X117474143Y-88383748D01*
X117460000Y-88369605D01*
X117445858Y-88383748D01*
X117266253Y-88204143D01*
X117280395Y-88190000D01*
X117266253Y-88175858D01*
X117445858Y-87996253D01*
X117460000Y-88010395D01*
X117474143Y-87996253D01*
X117653748Y-88175858D01*
G37*
G04 #@! TD.AperFunction*
D20*
X110588970Y-82804376D02*
X110629704Y-82854009D01*
X110669014Y-82904746D01*
X110703231Y-82934472D01*
X110732957Y-82968689D01*
X110783694Y-83007999D01*
X110833327Y-83048733D01*
X110873304Y-83070101D01*
X110909906Y-83096851D01*
X110968131Y-83123890D01*
X111025560Y-83152546D01*
X111069290Y-83164483D01*
X111110919Y-83182415D01*
X111173700Y-83195822D01*
X111236087Y-83210984D01*
X111277661Y-83212734D01*
X111310354Y-83215954D01*
X111342135Y-83219535D01*
X111347473Y-83219610D01*
X111352804Y-83220135D01*
X111384871Y-83220135D01*
X111396413Y-83220297D01*
X111400823Y-83221110D01*
X111427570Y-83220734D01*
X111454316Y-83221110D01*
X111458725Y-83220297D01*
X111470268Y-83220135D01*
X111502334Y-83220135D01*
X111507665Y-83219610D01*
X111513004Y-83219535D01*
X111544772Y-83215955D01*
X111577478Y-83212734D01*
X111619050Y-83210984D01*
X111678589Y-83196514D01*
X111706586Y-83220836D01*
X111712423Y-83226673D01*
X111744029Y-83263055D01*
X111794787Y-83302382D01*
X111844402Y-83343100D01*
X111886900Y-83365816D01*
X111893901Y-83370215D01*
X111932811Y-83398652D01*
X111991047Y-83425698D01*
X112048469Y-83454350D01*
X112094953Y-83467039D01*
X112102778Y-83469778D01*
X112147031Y-83488839D01*
X112209801Y-83502243D01*
X112272187Y-83517406D01*
X112320335Y-83519433D01*
X112328569Y-83520361D01*
X112375953Y-83529097D01*
X112440137Y-83528197D01*
X112504323Y-83529097D01*
X112551717Y-83520359D01*
X112559932Y-83519434D01*
X112608086Y-83517406D01*
X112670489Y-83502239D01*
X112733243Y-83488839D01*
X112777498Y-83469777D01*
X112785322Y-83467039D01*
X112831804Y-83454350D01*
X112889226Y-83425698D01*
X112947462Y-83398652D01*
X112986372Y-83370215D01*
X112990137Y-83367850D01*
X112993901Y-83370215D01*
X113032811Y-83398652D01*
X113091047Y-83425698D01*
X113148469Y-83454350D01*
X113194953Y-83467039D01*
X113202778Y-83469778D01*
X113247031Y-83488839D01*
X113309801Y-83502243D01*
X113372187Y-83517406D01*
X113420335Y-83519433D01*
X113428569Y-83520361D01*
X113475953Y-83529097D01*
X113540137Y-83528197D01*
X113604323Y-83529097D01*
X113651717Y-83520359D01*
X113659932Y-83519434D01*
X113708086Y-83517406D01*
X113770489Y-83502239D01*
X113833243Y-83488839D01*
X113877498Y-83469777D01*
X113885322Y-83467039D01*
X113931804Y-83454350D01*
X113989226Y-83425698D01*
X114047462Y-83398652D01*
X114086372Y-83370215D01*
X114093370Y-83365818D01*
X114135872Y-83343100D01*
X114185494Y-83302376D01*
X114236244Y-83263055D01*
X114267850Y-83226673D01*
X114273687Y-83220836D01*
X114310069Y-83189230D01*
X114349396Y-83138472D01*
X114390114Y-83088857D01*
X114412830Y-83046359D01*
X114417229Y-83039358D01*
X114445666Y-83000448D01*
X114472712Y-82942212D01*
X114501364Y-82884790D01*
X114514053Y-82838306D01*
X114516790Y-82830486D01*
X114532075Y-82794999D01*
X116110524Y-82794999D01*
X116075000Y-82973589D01*
X116075000Y-83246411D01*
X116103833Y-83391365D01*
X114100199Y-85395000D01*
X111224471Y-85395000D01*
X111219188Y-85394026D01*
X111152188Y-85394965D01*
X111139748Y-85343780D01*
X111126339Y-85280989D01*
X111107277Y-85236738D01*
X111106395Y-85234216D01*
X111093704Y-85187725D01*
X111065043Y-85130285D01*
X111038009Y-85072073D01*
X111009572Y-85033161D01*
X111008149Y-85030897D01*
X110985431Y-84988395D01*
X110944703Y-84938768D01*
X110905387Y-84888024D01*
X110869008Y-84856420D01*
X110867122Y-84854534D01*
X110835518Y-84818155D01*
X110784781Y-84778845D01*
X110735148Y-84738111D01*
X110692642Y-84715391D01*
X110690378Y-84713969D01*
X110651469Y-84685533D01*
X110593257Y-84658499D01*
X110535817Y-84629838D01*
X110489324Y-84617147D01*
X110486806Y-84616266D01*
X110442553Y-84597203D01*
X110379758Y-84583793D01*
X110317378Y-84568632D01*
X110269241Y-84566606D01*
X110266577Y-84566306D01*
X110219175Y-84557567D01*
X110155001Y-84558468D01*
X110090827Y-84557567D01*
X110043426Y-84566305D01*
X110040760Y-84566606D01*
X109992621Y-84568632D01*
X109930229Y-84583796D01*
X109867447Y-84597203D01*
X109823196Y-84616264D01*
X109820673Y-84617147D01*
X109774182Y-84629838D01*
X109716742Y-84658499D01*
X109658530Y-84685533D01*
X109619618Y-84713970D01*
X109617354Y-84715393D01*
X109574852Y-84738111D01*
X109525225Y-84778839D01*
X109474481Y-84818155D01*
X109442877Y-84854534D01*
X109440991Y-84856420D01*
X109404612Y-84888024D01*
X109365302Y-84938761D01*
X109324568Y-84988394D01*
X109301848Y-85030900D01*
X109300426Y-85033164D01*
X109271990Y-85072073D01*
X109244956Y-85130285D01*
X109216295Y-85187725D01*
X109203604Y-85234218D01*
X109202720Y-85236742D01*
X109183656Y-85281002D01*
X109170249Y-85343787D01*
X109157811Y-85394965D01*
X109090813Y-85394026D01*
X109085530Y-85395000D01*
X108273512Y-85395000D01*
X108270394Y-85387761D01*
X108263970Y-85369404D01*
X108251280Y-85322913D01*
X108222617Y-85265467D01*
X108195577Y-85207243D01*
X108167142Y-85168335D01*
X108156788Y-85151857D01*
X108134069Y-85109353D01*
X108093351Y-85059738D01*
X108054032Y-85008989D01*
X108017648Y-84977380D01*
X108003882Y-84963614D01*
X107972273Y-84927230D01*
X107921531Y-84887917D01*
X107871910Y-84847193D01*
X107829401Y-84824471D01*
X107812927Y-84814120D01*
X107774019Y-84785685D01*
X107715785Y-84758640D01*
X107658350Y-84729982D01*
X107611863Y-84717293D01*
X107593499Y-84710867D01*
X107549236Y-84691801D01*
X107486447Y-84678393D01*
X107424076Y-84663233D01*
X107375923Y-84661205D01*
X107356587Y-84659027D01*
X107309182Y-84650287D01*
X107245001Y-84651188D01*
X107180819Y-84650287D01*
X107133414Y-84659027D01*
X107114069Y-84661206D01*
X107065923Y-84663234D01*
X107003556Y-84678392D01*
X106940765Y-84691801D01*
X106896505Y-84710866D01*
X106878141Y-84717292D01*
X106831650Y-84729982D01*
X106774204Y-84758645D01*
X106715980Y-84785685D01*
X106677072Y-84814120D01*
X106660594Y-84824474D01*
X106618090Y-84847193D01*
X106568475Y-84887911D01*
X106517726Y-84927230D01*
X106486117Y-84963614D01*
X106480341Y-84969390D01*
X106445881Y-84953387D01*
X106428373Y-84944651D01*
X106435000Y-84911335D01*
X106435000Y-84628665D01*
X106398688Y-84446114D01*
X108049803Y-82794999D01*
X110583958Y-82794999D01*
X110588970Y-82804376D01*
G04 #@! TA.AperFunction,Conductor*
D21*
G36*
X110588970Y-82804376D02*
G01*
X110629704Y-82854009D01*
X110669014Y-82904746D01*
X110703231Y-82934472D01*
X110732957Y-82968689D01*
X110783694Y-83007999D01*
X110833327Y-83048733D01*
X110873304Y-83070101D01*
X110909906Y-83096851D01*
X110968131Y-83123890D01*
X111025560Y-83152546D01*
X111069290Y-83164483D01*
X111110919Y-83182415D01*
X111173700Y-83195822D01*
X111236087Y-83210984D01*
X111277661Y-83212734D01*
X111310354Y-83215954D01*
X111342135Y-83219535D01*
X111347473Y-83219610D01*
X111352804Y-83220135D01*
X111384871Y-83220135D01*
X111396413Y-83220297D01*
X111400823Y-83221110D01*
X111427570Y-83220734D01*
X111454316Y-83221110D01*
X111458725Y-83220297D01*
X111470268Y-83220135D01*
X111502334Y-83220135D01*
X111507665Y-83219610D01*
X111513004Y-83219535D01*
X111544772Y-83215955D01*
X111577478Y-83212734D01*
X111619050Y-83210984D01*
X111678589Y-83196514D01*
X111706586Y-83220836D01*
X111712423Y-83226673D01*
X111744029Y-83263055D01*
X111794787Y-83302382D01*
X111844402Y-83343100D01*
X111886900Y-83365816D01*
X111893901Y-83370215D01*
X111932811Y-83398652D01*
X111991047Y-83425698D01*
X112048469Y-83454350D01*
X112094953Y-83467039D01*
X112102778Y-83469778D01*
X112147031Y-83488839D01*
X112209801Y-83502243D01*
X112272187Y-83517406D01*
X112320335Y-83519433D01*
X112328569Y-83520361D01*
X112375953Y-83529097D01*
X112440137Y-83528197D01*
X112504323Y-83529097D01*
X112551717Y-83520359D01*
X112559932Y-83519434D01*
X112608086Y-83517406D01*
X112670489Y-83502239D01*
X112733243Y-83488839D01*
X112777498Y-83469777D01*
X112785322Y-83467039D01*
X112831804Y-83454350D01*
X112889226Y-83425698D01*
X112947462Y-83398652D01*
X112986372Y-83370215D01*
X112990137Y-83367850D01*
X112993901Y-83370215D01*
X113032811Y-83398652D01*
X113091047Y-83425698D01*
X113148469Y-83454350D01*
X113194953Y-83467039D01*
X113202778Y-83469778D01*
X113247031Y-83488839D01*
X113309801Y-83502243D01*
X113372187Y-83517406D01*
X113420335Y-83519433D01*
X113428569Y-83520361D01*
X113475953Y-83529097D01*
X113540137Y-83528197D01*
X113604323Y-83529097D01*
X113651717Y-83520359D01*
X113659932Y-83519434D01*
X113708086Y-83517406D01*
X113770489Y-83502239D01*
X113833243Y-83488839D01*
X113877498Y-83469777D01*
X113885322Y-83467039D01*
X113931804Y-83454350D01*
X113989226Y-83425698D01*
X114047462Y-83398652D01*
X114086372Y-83370215D01*
X114093370Y-83365818D01*
X114135872Y-83343100D01*
X114185494Y-83302376D01*
X114236244Y-83263055D01*
X114267850Y-83226673D01*
X114273687Y-83220836D01*
X114310069Y-83189230D01*
X114349396Y-83138472D01*
X114390114Y-83088857D01*
X114412830Y-83046359D01*
X114417229Y-83039358D01*
X114445666Y-83000448D01*
X114472712Y-82942212D01*
X114501364Y-82884790D01*
X114514053Y-82838306D01*
X114516790Y-82830486D01*
X114532075Y-82794999D01*
X116110524Y-82794999D01*
X116075000Y-82973589D01*
X116075000Y-83246411D01*
X116103833Y-83391365D01*
X114100199Y-85395000D01*
X111224471Y-85395000D01*
X111219188Y-85394026D01*
X111152188Y-85394965D01*
X111139748Y-85343780D01*
X111126339Y-85280989D01*
X111107277Y-85236738D01*
X111106395Y-85234216D01*
X111093704Y-85187725D01*
X111065043Y-85130285D01*
X111038009Y-85072073D01*
X111009572Y-85033161D01*
X111008149Y-85030897D01*
X110985431Y-84988395D01*
X110944703Y-84938768D01*
X110905387Y-84888024D01*
X110869008Y-84856420D01*
X110867122Y-84854534D01*
X110835518Y-84818155D01*
X110784781Y-84778845D01*
X110735148Y-84738111D01*
X110692642Y-84715391D01*
X110690378Y-84713969D01*
X110651469Y-84685533D01*
X110593257Y-84658499D01*
X110535817Y-84629838D01*
X110489324Y-84617147D01*
X110486806Y-84616266D01*
X110442553Y-84597203D01*
X110379758Y-84583793D01*
X110317378Y-84568632D01*
X110269241Y-84566606D01*
X110266577Y-84566306D01*
X110219175Y-84557567D01*
X110155001Y-84558468D01*
X110090827Y-84557567D01*
X110043426Y-84566305D01*
X110040760Y-84566606D01*
X109992621Y-84568632D01*
X109930229Y-84583796D01*
X109867447Y-84597203D01*
X109823196Y-84616264D01*
X109820673Y-84617147D01*
X109774182Y-84629838D01*
X109716742Y-84658499D01*
X109658530Y-84685533D01*
X109619618Y-84713970D01*
X109617354Y-84715393D01*
X109574852Y-84738111D01*
X109525225Y-84778839D01*
X109474481Y-84818155D01*
X109442877Y-84854534D01*
X109440991Y-84856420D01*
X109404612Y-84888024D01*
X109365302Y-84938761D01*
X109324568Y-84988394D01*
X109301848Y-85030900D01*
X109300426Y-85033164D01*
X109271990Y-85072073D01*
X109244956Y-85130285D01*
X109216295Y-85187725D01*
X109203604Y-85234218D01*
X109202720Y-85236742D01*
X109183656Y-85281002D01*
X109170249Y-85343787D01*
X109157811Y-85394965D01*
X109090813Y-85394026D01*
X109085530Y-85395000D01*
X108273512Y-85395000D01*
X108270394Y-85387761D01*
X108263970Y-85369404D01*
X108251280Y-85322913D01*
X108222617Y-85265467D01*
X108195577Y-85207243D01*
X108167142Y-85168335D01*
X108156788Y-85151857D01*
X108134069Y-85109353D01*
X108093351Y-85059738D01*
X108054032Y-85008989D01*
X108017648Y-84977380D01*
X108003882Y-84963614D01*
X107972273Y-84927230D01*
X107921531Y-84887917D01*
X107871910Y-84847193D01*
X107829401Y-84824471D01*
X107812927Y-84814120D01*
X107774019Y-84785685D01*
X107715785Y-84758640D01*
X107658350Y-84729982D01*
X107611863Y-84717293D01*
X107593499Y-84710867D01*
X107549236Y-84691801D01*
X107486447Y-84678393D01*
X107424076Y-84663233D01*
X107375923Y-84661205D01*
X107356587Y-84659027D01*
X107309182Y-84650287D01*
X107245001Y-84651188D01*
X107180819Y-84650287D01*
X107133414Y-84659027D01*
X107114069Y-84661206D01*
X107065923Y-84663234D01*
X107003556Y-84678392D01*
X106940765Y-84691801D01*
X106896505Y-84710866D01*
X106878141Y-84717292D01*
X106831650Y-84729982D01*
X106774204Y-84758645D01*
X106715980Y-84785685D01*
X106677072Y-84814120D01*
X106660594Y-84824474D01*
X106618090Y-84847193D01*
X106568475Y-84887911D01*
X106517726Y-84927230D01*
X106486117Y-84963614D01*
X106480341Y-84969390D01*
X106445881Y-84953387D01*
X106428373Y-84944651D01*
X106435000Y-84911335D01*
X106435000Y-84628665D01*
X106398688Y-84446114D01*
X108049803Y-82794999D01*
X110583958Y-82794999D01*
X110588970Y-82804376D01*
G37*
G04 #@! TD.AperFunction*
D20*
X109674183Y-123701003D02*
X109678427Y-123744094D01*
X109680089Y-123783580D01*
X109695249Y-123845957D01*
X109708656Y-123908742D01*
X109727720Y-123953002D01*
X109728604Y-123955526D01*
X109741295Y-124002019D01*
X109769956Y-124059459D01*
X109796990Y-124117671D01*
X109825426Y-124156580D01*
X109826848Y-124158844D01*
X109849568Y-124201350D01*
X109890302Y-124250983D01*
X109929612Y-124301720D01*
X109965991Y-124333324D01*
X109967877Y-124335210D01*
X109999481Y-124371589D01*
X110050225Y-124410905D01*
X110099852Y-124451633D01*
X110142354Y-124474351D01*
X110144618Y-124475774D01*
X110183530Y-124504211D01*
X110241742Y-124531245D01*
X110299182Y-124559906D01*
X110345673Y-124572597D01*
X110348196Y-124573480D01*
X110392447Y-124592541D01*
X110455229Y-124605948D01*
X110517621Y-124621112D01*
X110565760Y-124623138D01*
X110568426Y-124623439D01*
X110615827Y-124632177D01*
X110680001Y-124631276D01*
X110744175Y-124632177D01*
X110791577Y-124623438D01*
X110794241Y-124623138D01*
X110842378Y-124621112D01*
X110904758Y-124605951D01*
X110967553Y-124592541D01*
X111011806Y-124573478D01*
X111014324Y-124572597D01*
X111060817Y-124559906D01*
X111118257Y-124531245D01*
X111176469Y-124504211D01*
X111179999Y-124501631D01*
X111183530Y-124504211D01*
X111241742Y-124531245D01*
X111299182Y-124559906D01*
X111345673Y-124572597D01*
X111348196Y-124573480D01*
X111392447Y-124592541D01*
X111455229Y-124605948D01*
X111517621Y-124621112D01*
X111565760Y-124623138D01*
X111568426Y-124623439D01*
X111615827Y-124632177D01*
X111680001Y-124631276D01*
X111744175Y-124632177D01*
X111791577Y-124623438D01*
X111794241Y-124623138D01*
X111842378Y-124621112D01*
X111904758Y-124605951D01*
X111967553Y-124592541D01*
X112011806Y-124573478D01*
X112014324Y-124572597D01*
X112060817Y-124559906D01*
X112118257Y-124531245D01*
X112176469Y-124504211D01*
X112215378Y-124475775D01*
X112217642Y-124474353D01*
X112260148Y-124451633D01*
X112309781Y-124410899D01*
X112360518Y-124371589D01*
X112392122Y-124335210D01*
X112394008Y-124333324D01*
X112430387Y-124301720D01*
X112469703Y-124250976D01*
X112510431Y-124201349D01*
X112533149Y-124158847D01*
X112534572Y-124156583D01*
X112563009Y-124117671D01*
X112590043Y-124059459D01*
X112618704Y-124002019D01*
X112631395Y-123955528D01*
X112632277Y-123953006D01*
X112651339Y-123908755D01*
X112664748Y-123845964D01*
X112679910Y-123783580D01*
X112681571Y-123744112D01*
X112685816Y-123701013D01*
X112688163Y-123680188D01*
X112744188Y-123680974D01*
X112749471Y-123680000D01*
X116169412Y-123680000D01*
X116148240Y-123725116D01*
X116082750Y-123989960D01*
X116070188Y-124262492D01*
X116111035Y-124532238D01*
X116203723Y-124788832D01*
X116264140Y-124901863D01*
X116503007Y-124967388D01*
X117280395Y-124190000D01*
X117266253Y-124175858D01*
X117445858Y-123996253D01*
X117460000Y-124010395D01*
X117474143Y-123996253D01*
X117653748Y-124175858D01*
X117639605Y-124190000D01*
X118416993Y-124967388D01*
X118655860Y-124901863D01*
X118771760Y-124654884D01*
X118837250Y-124390040D01*
X118849812Y-124117508D01*
X118808965Y-123847762D01*
X118748365Y-123680000D01*
X118842091Y-123680000D01*
X118924201Y-123802886D01*
X119117114Y-123995799D01*
X119343957Y-124147371D01*
X119446873Y-124190000D01*
X119343957Y-124232629D01*
X119117114Y-124384201D01*
X118924201Y-124577114D01*
X118772629Y-124803957D01*
X118668225Y-125056011D01*
X118615000Y-125323589D01*
X118615000Y-125596411D01*
X118668225Y-125863989D01*
X118719184Y-125987016D01*
X118665290Y-126040910D01*
X118535799Y-125847114D01*
X118342886Y-125654201D01*
X118116043Y-125502629D01*
X118016721Y-125461489D01*
X118058832Y-125446277D01*
X118171863Y-125385860D01*
X118237388Y-125146993D01*
X117460000Y-124369605D01*
X116682612Y-125146993D01*
X116748137Y-125385860D01*
X116906477Y-125460164D01*
X116803957Y-125502629D01*
X116577114Y-125654201D01*
X116384201Y-125847114D01*
X116232629Y-126073957D01*
X116128225Y-126326011D01*
X116075000Y-126593589D01*
X116075000Y-126866411D01*
X116128225Y-127133989D01*
X116232629Y-127386043D01*
X116384201Y-127612886D01*
X116577114Y-127805799D01*
X116770911Y-127935290D01*
X116466201Y-128240000D01*
X106438072Y-128240000D01*
X106438072Y-128200000D01*
X106425812Y-128075518D01*
X106389502Y-127955820D01*
X106330537Y-127845506D01*
X106251185Y-127748815D01*
X106154494Y-127669463D01*
X106044180Y-127610498D01*
X105924482Y-127574188D01*
X105800000Y-127561928D01*
X105534275Y-127561928D01*
X105679727Y-127501680D01*
X105914759Y-127344637D01*
X106114637Y-127144759D01*
X106271680Y-126909727D01*
X106379853Y-126648574D01*
X106435000Y-126371335D01*
X106435000Y-126088665D01*
X106379853Y-125811426D01*
X106271680Y-125550273D01*
X106114637Y-125315241D01*
X105914759Y-125115363D01*
X105679727Y-124958320D01*
X105418574Y-124850147D01*
X105392699Y-124845000D01*
X105418574Y-124839853D01*
X105679727Y-124731680D01*
X105914759Y-124574637D01*
X106114637Y-124374759D01*
X106271680Y-124139727D01*
X106379853Y-123878574D01*
X106419352Y-123680000D01*
X109671816Y-123680000D01*
X109674183Y-123701003D01*
G04 #@! TA.AperFunction,Conductor*
D21*
G36*
X109674183Y-123701003D02*
G01*
X109678427Y-123744094D01*
X109680089Y-123783580D01*
X109695249Y-123845957D01*
X109708656Y-123908742D01*
X109727720Y-123953002D01*
X109728604Y-123955526D01*
X109741295Y-124002019D01*
X109769956Y-124059459D01*
X109796990Y-124117671D01*
X109825426Y-124156580D01*
X109826848Y-124158844D01*
X109849568Y-124201350D01*
X109890302Y-124250983D01*
X109929612Y-124301720D01*
X109965991Y-124333324D01*
X109967877Y-124335210D01*
X109999481Y-124371589D01*
X110050225Y-124410905D01*
X110099852Y-124451633D01*
X110142354Y-124474351D01*
X110144618Y-124475774D01*
X110183530Y-124504211D01*
X110241742Y-124531245D01*
X110299182Y-124559906D01*
X110345673Y-124572597D01*
X110348196Y-124573480D01*
X110392447Y-124592541D01*
X110455229Y-124605948D01*
X110517621Y-124621112D01*
X110565760Y-124623138D01*
X110568426Y-124623439D01*
X110615827Y-124632177D01*
X110680001Y-124631276D01*
X110744175Y-124632177D01*
X110791577Y-124623438D01*
X110794241Y-124623138D01*
X110842378Y-124621112D01*
X110904758Y-124605951D01*
X110967553Y-124592541D01*
X111011806Y-124573478D01*
X111014324Y-124572597D01*
X111060817Y-124559906D01*
X111118257Y-124531245D01*
X111176469Y-124504211D01*
X111179999Y-124501631D01*
X111183530Y-124504211D01*
X111241742Y-124531245D01*
X111299182Y-124559906D01*
X111345673Y-124572597D01*
X111348196Y-124573480D01*
X111392447Y-124592541D01*
X111455229Y-124605948D01*
X111517621Y-124621112D01*
X111565760Y-124623138D01*
X111568426Y-124623439D01*
X111615827Y-124632177D01*
X111680001Y-124631276D01*
X111744175Y-124632177D01*
X111791577Y-124623438D01*
X111794241Y-124623138D01*
X111842378Y-124621112D01*
X111904758Y-124605951D01*
X111967553Y-124592541D01*
X112011806Y-124573478D01*
X112014324Y-124572597D01*
X112060817Y-124559906D01*
X112118257Y-124531245D01*
X112176469Y-124504211D01*
X112215378Y-124475775D01*
X112217642Y-124474353D01*
X112260148Y-124451633D01*
X112309781Y-124410899D01*
X112360518Y-124371589D01*
X112392122Y-124335210D01*
X112394008Y-124333324D01*
X112430387Y-124301720D01*
X112469703Y-124250976D01*
X112510431Y-124201349D01*
X112533149Y-124158847D01*
X112534572Y-124156583D01*
X112563009Y-124117671D01*
X112590043Y-124059459D01*
X112618704Y-124002019D01*
X112631395Y-123955528D01*
X112632277Y-123953006D01*
X112651339Y-123908755D01*
X112664748Y-123845964D01*
X112679910Y-123783580D01*
X112681571Y-123744112D01*
X112685816Y-123701013D01*
X112688163Y-123680188D01*
X112744188Y-123680974D01*
X112749471Y-123680000D01*
X116169412Y-123680000D01*
X116148240Y-123725116D01*
X116082750Y-123989960D01*
X116070188Y-124262492D01*
X116111035Y-124532238D01*
X116203723Y-124788832D01*
X116264140Y-124901863D01*
X116503007Y-124967388D01*
X117280395Y-124190000D01*
X117266253Y-124175858D01*
X117445858Y-123996253D01*
X117460000Y-124010395D01*
X117474143Y-123996253D01*
X117653748Y-124175858D01*
X117639605Y-124190000D01*
X118416993Y-124967388D01*
X118655860Y-124901863D01*
X118771760Y-124654884D01*
X118837250Y-124390040D01*
X118849812Y-124117508D01*
X118808965Y-123847762D01*
X118748365Y-123680000D01*
X118842091Y-123680000D01*
X118924201Y-123802886D01*
X119117114Y-123995799D01*
X119343957Y-124147371D01*
X119446873Y-124190000D01*
X119343957Y-124232629D01*
X119117114Y-124384201D01*
X118924201Y-124577114D01*
X118772629Y-124803957D01*
X118668225Y-125056011D01*
X118615000Y-125323589D01*
X118615000Y-125596411D01*
X118668225Y-125863989D01*
X118719184Y-125987016D01*
X118665290Y-126040910D01*
X118535799Y-125847114D01*
X118342886Y-125654201D01*
X118116043Y-125502629D01*
X118016721Y-125461489D01*
X118058832Y-125446277D01*
X118171863Y-125385860D01*
X118237388Y-125146993D01*
X117460000Y-124369605D01*
X116682612Y-125146993D01*
X116748137Y-125385860D01*
X116906477Y-125460164D01*
X116803957Y-125502629D01*
X116577114Y-125654201D01*
X116384201Y-125847114D01*
X116232629Y-126073957D01*
X116128225Y-126326011D01*
X116075000Y-126593589D01*
X116075000Y-126866411D01*
X116128225Y-127133989D01*
X116232629Y-127386043D01*
X116384201Y-127612886D01*
X116577114Y-127805799D01*
X116770911Y-127935290D01*
X116466201Y-128240000D01*
X106438072Y-128240000D01*
X106438072Y-128200000D01*
X106425812Y-128075518D01*
X106389502Y-127955820D01*
X106330537Y-127845506D01*
X106251185Y-127748815D01*
X106154494Y-127669463D01*
X106044180Y-127610498D01*
X105924482Y-127574188D01*
X105800000Y-127561928D01*
X105534275Y-127561928D01*
X105679727Y-127501680D01*
X105914759Y-127344637D01*
X106114637Y-127144759D01*
X106271680Y-126909727D01*
X106379853Y-126648574D01*
X106435000Y-126371335D01*
X106435000Y-126088665D01*
X106379853Y-125811426D01*
X106271680Y-125550273D01*
X106114637Y-125315241D01*
X105914759Y-125115363D01*
X105679727Y-124958320D01*
X105418574Y-124850147D01*
X105392699Y-124845000D01*
X105418574Y-124839853D01*
X105679727Y-124731680D01*
X105914759Y-124574637D01*
X106114637Y-124374759D01*
X106271680Y-124139727D01*
X106379853Y-123878574D01*
X106419352Y-123680000D01*
X109671816Y-123680000D01*
X109674183Y-123701003D01*
G37*
G04 #@! TD.AperFunction*
D20*
X108304183Y-119892273D02*
X108308427Y-119935364D01*
X108310089Y-119974850D01*
X108325249Y-120037227D01*
X108338656Y-120100012D01*
X108357720Y-120144272D01*
X108358604Y-120146796D01*
X108371295Y-120193289D01*
X108399956Y-120250729D01*
X108426990Y-120308941D01*
X108455426Y-120347850D01*
X108456848Y-120350114D01*
X108479568Y-120392620D01*
X108520302Y-120442253D01*
X108559612Y-120492990D01*
X108595991Y-120524594D01*
X108597877Y-120526480D01*
X108629481Y-120562859D01*
X108680225Y-120602175D01*
X108729852Y-120642903D01*
X108772354Y-120665621D01*
X108774618Y-120667044D01*
X108813530Y-120695481D01*
X108871742Y-120722515D01*
X108929182Y-120751176D01*
X108975673Y-120763867D01*
X108978196Y-120764750D01*
X109022447Y-120783811D01*
X109085229Y-120797218D01*
X109147621Y-120812382D01*
X109195760Y-120814408D01*
X109198426Y-120814709D01*
X109245827Y-120823447D01*
X109310001Y-120822546D01*
X109374175Y-120823447D01*
X109421577Y-120814708D01*
X109424241Y-120814408D01*
X109472378Y-120812382D01*
X109534758Y-120797221D01*
X109597553Y-120783811D01*
X109641806Y-120764748D01*
X109644324Y-120763867D01*
X109690817Y-120751176D01*
X109748257Y-120722515D01*
X109806469Y-120695481D01*
X109845378Y-120667045D01*
X109847642Y-120665623D01*
X109890148Y-120642903D01*
X109939781Y-120602169D01*
X109990518Y-120562859D01*
X110022122Y-120526480D01*
X110024008Y-120524594D01*
X110060387Y-120492990D01*
X110099703Y-120442246D01*
X110140431Y-120392619D01*
X110163149Y-120350117D01*
X110164572Y-120347853D01*
X110193009Y-120308941D01*
X110220043Y-120250729D01*
X110248704Y-120193289D01*
X110261395Y-120146798D01*
X110262277Y-120144276D01*
X110281339Y-120100025D01*
X110294748Y-120037234D01*
X110309910Y-119974850D01*
X110311571Y-119935382D01*
X110315816Y-119892283D01*
X110318306Y-119870190D01*
X110374188Y-119870974D01*
X110379471Y-119870000D01*
X116302091Y-119870000D01*
X116384201Y-119992886D01*
X116417756Y-120026441D01*
X115389196Y-121055001D01*
X106390509Y-121055001D01*
X106435000Y-120831335D01*
X106435000Y-120548665D01*
X106379853Y-120271426D01*
X106271680Y-120010273D01*
X106177953Y-119870000D01*
X108301673Y-119870000D01*
X108304183Y-119892273D01*
G04 #@! TA.AperFunction,Conductor*
D21*
G36*
X108304183Y-119892273D02*
G01*
X108308427Y-119935364D01*
X108310089Y-119974850D01*
X108325249Y-120037227D01*
X108338656Y-120100012D01*
X108357720Y-120144272D01*
X108358604Y-120146796D01*
X108371295Y-120193289D01*
X108399956Y-120250729D01*
X108426990Y-120308941D01*
X108455426Y-120347850D01*
X108456848Y-120350114D01*
X108479568Y-120392620D01*
X108520302Y-120442253D01*
X108559612Y-120492990D01*
X108595991Y-120524594D01*
X108597877Y-120526480D01*
X108629481Y-120562859D01*
X108680225Y-120602175D01*
X108729852Y-120642903D01*
X108772354Y-120665621D01*
X108774618Y-120667044D01*
X108813530Y-120695481D01*
X108871742Y-120722515D01*
X108929182Y-120751176D01*
X108975673Y-120763867D01*
X108978196Y-120764750D01*
X109022447Y-120783811D01*
X109085229Y-120797218D01*
X109147621Y-120812382D01*
X109195760Y-120814408D01*
X109198426Y-120814709D01*
X109245827Y-120823447D01*
X109310001Y-120822546D01*
X109374175Y-120823447D01*
X109421577Y-120814708D01*
X109424241Y-120814408D01*
X109472378Y-120812382D01*
X109534758Y-120797221D01*
X109597553Y-120783811D01*
X109641806Y-120764748D01*
X109644324Y-120763867D01*
X109690817Y-120751176D01*
X109748257Y-120722515D01*
X109806469Y-120695481D01*
X109845378Y-120667045D01*
X109847642Y-120665623D01*
X109890148Y-120642903D01*
X109939781Y-120602169D01*
X109990518Y-120562859D01*
X110022122Y-120526480D01*
X110024008Y-120524594D01*
X110060387Y-120492990D01*
X110099703Y-120442246D01*
X110140431Y-120392619D01*
X110163149Y-120350117D01*
X110164572Y-120347853D01*
X110193009Y-120308941D01*
X110220043Y-120250729D01*
X110248704Y-120193289D01*
X110261395Y-120146798D01*
X110262277Y-120144276D01*
X110281339Y-120100025D01*
X110294748Y-120037234D01*
X110309910Y-119974850D01*
X110311571Y-119935382D01*
X110315816Y-119892283D01*
X110318306Y-119870190D01*
X110374188Y-119870974D01*
X110379471Y-119870000D01*
X116302091Y-119870000D01*
X116384201Y-119992886D01*
X116417756Y-120026441D01*
X115389196Y-121055001D01*
X106390509Y-121055001D01*
X106435000Y-120831335D01*
X106435000Y-120548665D01*
X106379853Y-120271426D01*
X106271680Y-120010273D01*
X106177953Y-119870000D01*
X108301673Y-119870000D01*
X108304183Y-119892273D01*
G37*
G04 #@! TD.AperFunction*
D20*
X121173000Y-119642585D02*
X121075799Y-119497114D01*
X120882886Y-119304201D01*
X120656043Y-119152629D01*
X120403989Y-119048225D01*
X120136411Y-118995000D01*
X119863589Y-118995000D01*
X119596011Y-119048225D01*
X119343957Y-119152629D01*
X119117114Y-119304201D01*
X118924201Y-119497114D01*
X118842091Y-119620000D01*
X118747864Y-119620000D01*
X118791775Y-119513989D01*
X118845000Y-119246411D01*
X118845000Y-118973589D01*
X118791775Y-118706011D01*
X118687371Y-118453957D01*
X118535799Y-118227114D01*
X118342886Y-118034201D01*
X118116043Y-117882629D01*
X117863989Y-117778225D01*
X117596411Y-117725000D01*
X117323589Y-117725000D01*
X117056011Y-117778225D01*
X116803957Y-117882629D01*
X116577114Y-118034201D01*
X116384201Y-118227114D01*
X116302091Y-118350000D01*
X110818327Y-118350000D01*
X110815816Y-118327717D01*
X110811571Y-118284618D01*
X110809910Y-118245150D01*
X110794748Y-118182766D01*
X110781339Y-118119975D01*
X110762277Y-118075724D01*
X110761395Y-118073202D01*
X110748704Y-118026711D01*
X110720043Y-117969271D01*
X110693009Y-117911059D01*
X110664572Y-117872147D01*
X110663149Y-117869883D01*
X110640431Y-117827381D01*
X110599703Y-117777754D01*
X110560387Y-117727010D01*
X110524008Y-117695406D01*
X110522122Y-117693520D01*
X110490518Y-117657141D01*
X110439781Y-117617831D01*
X110390148Y-117577097D01*
X110347642Y-117554377D01*
X110345378Y-117552955D01*
X110306469Y-117524519D01*
X110248257Y-117497485D01*
X110190817Y-117468824D01*
X110144324Y-117456133D01*
X110141806Y-117455252D01*
X110097553Y-117436189D01*
X110034758Y-117422779D01*
X109972378Y-117407618D01*
X109924241Y-117405592D01*
X109921577Y-117405292D01*
X109874175Y-117396553D01*
X109810001Y-117397454D01*
X109745827Y-117396553D01*
X109698426Y-117405291D01*
X109695760Y-117405592D01*
X109647621Y-117407618D01*
X109585229Y-117422782D01*
X109522447Y-117436189D01*
X109478196Y-117455250D01*
X109475673Y-117456133D01*
X109429182Y-117468824D01*
X109371742Y-117497485D01*
X109313530Y-117524519D01*
X109274618Y-117552956D01*
X109272354Y-117554379D01*
X109229852Y-117577097D01*
X109180225Y-117617825D01*
X109129481Y-117657141D01*
X109097877Y-117693520D01*
X109095991Y-117695406D01*
X109059612Y-117727010D01*
X109020302Y-117777747D01*
X108979568Y-117827380D01*
X108956848Y-117869886D01*
X108955426Y-117872150D01*
X108926990Y-117911059D01*
X108899956Y-117969271D01*
X108871295Y-118026711D01*
X108858604Y-118073204D01*
X108857720Y-118075728D01*
X108838656Y-118119988D01*
X108825249Y-118182773D01*
X108810089Y-118245150D01*
X108808426Y-118284654D01*
X108804191Y-118327657D01*
X108801695Y-118349810D01*
X108745813Y-118349026D01*
X108740530Y-118350000D01*
X106371609Y-118350000D01*
X106426300Y-118131816D01*
X106440217Y-117849488D01*
X106398787Y-117569870D01*
X106303603Y-117303708D01*
X106236671Y-117178486D01*
X105992702Y-117106903D01*
X105179605Y-117920000D01*
X105193748Y-117934143D01*
X105014143Y-118113748D01*
X105000000Y-118099605D01*
X104985858Y-118113748D01*
X104806253Y-117934143D01*
X104820395Y-117920000D01*
X104806253Y-117905858D01*
X104985858Y-117726253D01*
X105000000Y-117740395D01*
X105813097Y-116927298D01*
X105783669Y-116827000D01*
X121173000Y-116827000D01*
X121173000Y-119642585D01*
G04 #@! TA.AperFunction,Conductor*
D21*
G36*
X121173000Y-119642585D02*
G01*
X121075799Y-119497114D01*
X120882886Y-119304201D01*
X120656043Y-119152629D01*
X120403989Y-119048225D01*
X120136411Y-118995000D01*
X119863589Y-118995000D01*
X119596011Y-119048225D01*
X119343957Y-119152629D01*
X119117114Y-119304201D01*
X118924201Y-119497114D01*
X118842091Y-119620000D01*
X118747864Y-119620000D01*
X118791775Y-119513989D01*
X118845000Y-119246411D01*
X118845000Y-118973589D01*
X118791775Y-118706011D01*
X118687371Y-118453957D01*
X118535799Y-118227114D01*
X118342886Y-118034201D01*
X118116043Y-117882629D01*
X117863989Y-117778225D01*
X117596411Y-117725000D01*
X117323589Y-117725000D01*
X117056011Y-117778225D01*
X116803957Y-117882629D01*
X116577114Y-118034201D01*
X116384201Y-118227114D01*
X116302091Y-118350000D01*
X110818327Y-118350000D01*
X110815816Y-118327717D01*
X110811571Y-118284618D01*
X110809910Y-118245150D01*
X110794748Y-118182766D01*
X110781339Y-118119975D01*
X110762277Y-118075724D01*
X110761395Y-118073202D01*
X110748704Y-118026711D01*
X110720043Y-117969271D01*
X110693009Y-117911059D01*
X110664572Y-117872147D01*
X110663149Y-117869883D01*
X110640431Y-117827381D01*
X110599703Y-117777754D01*
X110560387Y-117727010D01*
X110524008Y-117695406D01*
X110522122Y-117693520D01*
X110490518Y-117657141D01*
X110439781Y-117617831D01*
X110390148Y-117577097D01*
X110347642Y-117554377D01*
X110345378Y-117552955D01*
X110306469Y-117524519D01*
X110248257Y-117497485D01*
X110190817Y-117468824D01*
X110144324Y-117456133D01*
X110141806Y-117455252D01*
X110097553Y-117436189D01*
X110034758Y-117422779D01*
X109972378Y-117407618D01*
X109924241Y-117405592D01*
X109921577Y-117405292D01*
X109874175Y-117396553D01*
X109810001Y-117397454D01*
X109745827Y-117396553D01*
X109698426Y-117405291D01*
X109695760Y-117405592D01*
X109647621Y-117407618D01*
X109585229Y-117422782D01*
X109522447Y-117436189D01*
X109478196Y-117455250D01*
X109475673Y-117456133D01*
X109429182Y-117468824D01*
X109371742Y-117497485D01*
X109313530Y-117524519D01*
X109274618Y-117552956D01*
X109272354Y-117554379D01*
X109229852Y-117577097D01*
X109180225Y-117617825D01*
X109129481Y-117657141D01*
X109097877Y-117693520D01*
X109095991Y-117695406D01*
X109059612Y-117727010D01*
X109020302Y-117777747D01*
X108979568Y-117827380D01*
X108956848Y-117869886D01*
X108955426Y-117872150D01*
X108926990Y-117911059D01*
X108899956Y-117969271D01*
X108871295Y-118026711D01*
X108858604Y-118073204D01*
X108857720Y-118075728D01*
X108838656Y-118119988D01*
X108825249Y-118182773D01*
X108810089Y-118245150D01*
X108808426Y-118284654D01*
X108804191Y-118327657D01*
X108801695Y-118349810D01*
X108745813Y-118349026D01*
X108740530Y-118350000D01*
X106371609Y-118350000D01*
X106426300Y-118131816D01*
X106440217Y-117849488D01*
X106398787Y-117569870D01*
X106303603Y-117303708D01*
X106236671Y-117178486D01*
X105992702Y-117106903D01*
X105179605Y-117920000D01*
X105193748Y-117934143D01*
X105014143Y-118113748D01*
X105000000Y-118099605D01*
X104985858Y-118113748D01*
X104806253Y-117934143D01*
X104820395Y-117920000D01*
X104806253Y-117905858D01*
X104985858Y-117726253D01*
X105000000Y-117740395D01*
X105813097Y-116927298D01*
X105783669Y-116827000D01*
X121173000Y-116827000D01*
X121173000Y-119642585D01*
G37*
G04 #@! TD.AperFunction*
M02*
