M48
; DRILL file {KiCad 5.1.9+dfsg1-1~bpo10+1} date Mon Nov  1 15:58:22 2021
; FORMAT={-:-/ absolute / metric / decimal}
; #@! TF.CreationDate,2021-11-01T15:58:22+00:00
; #@! TF.GenerationSoftware,Kicad,Pcbnew,5.1.9+dfsg1-1~bpo10+1
FMAT,2
METRIC
T1C0.400
T2C0.900
T3C1.000
T4C1.600
T5C3.200
T6C3.250
%
G90
G05
T1
X108.0Y-84.0
X109.0Y-85.0
X110.8Y-120.5
X112.0Y-84.0
X112.6Y-117.6
X114.0Y-84.0
X114.4Y-120.5
X120.0Y-117.6
T2
X117.46Y-83.11
X117.46Y-85.65
X117.46Y-88.19
X117.46Y-90.73
X117.46Y-119.11
X117.46Y-121.65
X117.46Y-124.19
X117.46Y-126.73
X120.0Y-84.38
X120.0Y-86.92
X120.0Y-89.46
X120.0Y-92.0
X120.0Y-120.38
X120.0Y-122.92
X120.0Y-125.46
X120.0Y-128.0
T3
X102.16Y-83.385
X102.16Y-86.155
X102.16Y-88.925
X102.16Y-91.695
X102.16Y-119.305
X102.16Y-122.075
X102.16Y-124.845
X102.16Y-127.615
X105.0Y-82.0
X105.0Y-84.77
X105.0Y-87.54
X105.0Y-90.31
X105.0Y-93.08
X105.0Y-117.92
X105.0Y-120.69
X105.0Y-123.46
X105.0Y-126.23
X105.0Y-129.0
T4
X129.4Y-79.785
X129.4Y-95.325
X129.4Y-115.785
X129.4Y-131.325
T5
X104.7Y-75.04
X104.7Y-100.04
X104.7Y-110.96
X104.7Y-135.96
X112.0Y-75.0
X112.0Y-100.0
X112.0Y-111.0
X112.0Y-136.0
T6
X126.35Y-81.84
X126.35Y-93.27
X126.35Y-117.84
X126.35Y-129.27
T0
M30
