%TF.GenerationSoftware,KiCad,Pcbnew,5.1.9+dfsg1-1~bpo10+1*%
%TF.CreationDate,2021-11-01T15:58:38+00:00*%
%TF.ProjectId,rack-ser-adapter,7261636b-2d73-4657-922d-616461707465,rev?*%
%TF.SameCoordinates,Original*%
%TF.FileFunction,OtherDrawing,Comment*%
%FSLAX46Y46*%
G04 Gerber Fmt 4.6, Leading zero omitted, Abs format (unit mm)*
G04 Created by KiCad (PCBNEW 5.1.9+dfsg1-1~bpo10+1) date 2021-11-01 15:58:38*
%MOMM*%
%LPD*%
G01*
G04 APERTURE LIST*
%ADD10C,0.150000*%
G04 APERTURE END LIST*
D10*
X112809523Y-144752380D02*
X113428571Y-144752380D01*
X113095238Y-145133333D01*
X113238095Y-145133333D01*
X113333333Y-145180952D01*
X113380952Y-145228571D01*
X113428571Y-145323809D01*
X113428571Y-145561904D01*
X113380952Y-145657142D01*
X113333333Y-145704761D01*
X113238095Y-145752380D01*
X112952380Y-145752380D01*
X112857142Y-145704761D01*
X112809523Y-145657142D01*
X114285714Y-145085714D02*
X114285714Y-145752380D01*
X114047619Y-144704761D02*
X113809523Y-145419047D01*
X114428571Y-145419047D01*
X114857142Y-145704761D02*
X114857142Y-145752380D01*
X114809523Y-145847619D01*
X114761904Y-145895238D01*
X115476190Y-144752380D02*
X115571428Y-144752380D01*
X115666666Y-144800000D01*
X115714285Y-144847619D01*
X115761904Y-144942857D01*
X115809523Y-145133333D01*
X115809523Y-145371428D01*
X115761904Y-145561904D01*
X115714285Y-145657142D01*
X115666666Y-145704761D01*
X115571428Y-145752380D01*
X115476190Y-145752380D01*
X115380952Y-145704761D01*
X115333333Y-145657142D01*
X115285714Y-145561904D01*
X115238095Y-145371428D01*
X115238095Y-145133333D01*
X115285714Y-144942857D01*
X115333333Y-144847619D01*
X115380952Y-144800000D01*
X115476190Y-144752380D01*
X116428571Y-144752380D02*
X116523809Y-144752380D01*
X116619047Y-144800000D01*
X116666666Y-144847619D01*
X116714285Y-144942857D01*
X116761904Y-145133333D01*
X116761904Y-145371428D01*
X116714285Y-145561904D01*
X116666666Y-145657142D01*
X116619047Y-145704761D01*
X116523809Y-145752380D01*
X116428571Y-145752380D01*
X116333333Y-145704761D01*
X116285714Y-145657142D01*
X116238095Y-145561904D01*
X116190476Y-145371428D01*
X116190476Y-145133333D01*
X116238095Y-144942857D01*
X116285714Y-144847619D01*
X116333333Y-144800000D01*
X116428571Y-144752380D01*
X117380952Y-144752380D02*
X117476190Y-144752380D01*
X117571428Y-144800000D01*
X117619047Y-144847619D01*
X117666666Y-144942857D01*
X117714285Y-145133333D01*
X117714285Y-145371428D01*
X117666666Y-145561904D01*
X117619047Y-145657142D01*
X117571428Y-145704761D01*
X117476190Y-145752380D01*
X117380952Y-145752380D01*
X117285714Y-145704761D01*
X117238095Y-145657142D01*
X117190476Y-145561904D01*
X117142857Y-145371428D01*
X117142857Y-145133333D01*
X117190476Y-144942857D01*
X117238095Y-144847619D01*
X117285714Y-144800000D01*
X117380952Y-144752380D01*
X118904761Y-145752380D02*
X118904761Y-145085714D01*
X118904761Y-145180952D02*
X118952380Y-145133333D01*
X119047619Y-145085714D01*
X119190476Y-145085714D01*
X119285714Y-145133333D01*
X119333333Y-145228571D01*
X119333333Y-145752380D01*
X119333333Y-145228571D02*
X119380952Y-145133333D01*
X119476190Y-145085714D01*
X119619047Y-145085714D01*
X119714285Y-145133333D01*
X119761904Y-145228571D01*
X119761904Y-145752380D01*
X120238095Y-145752380D02*
X120238095Y-145085714D01*
X120238095Y-145180952D02*
X120285714Y-145133333D01*
X120380952Y-145085714D01*
X120523809Y-145085714D01*
X120619047Y-145133333D01*
X120666666Y-145228571D01*
X120666666Y-145752380D01*
X120666666Y-145228571D02*
X120714285Y-145133333D01*
X120809523Y-145085714D01*
X120952380Y-145085714D01*
X121047619Y-145133333D01*
X121095238Y-145228571D01*
X121095238Y-145752380D01*
X134000000Y-144000000D02*
X100000000Y-144000000D01*
X134000000Y-131000000D02*
X134000000Y-144586421D01*
X100000000Y-131000000D02*
X100000000Y-144586421D01*
X100000000Y-144000000D02*
X101126504Y-143413579D01*
X100000000Y-144000000D02*
X101126504Y-144586421D01*
X134000000Y-144000000D02*
X132873496Y-143413579D01*
X134000000Y-144000000D02*
X132873496Y-144586421D01*
X81147619Y-101309523D02*
X81147619Y-101976190D01*
X80147619Y-101547619D01*
X80147619Y-102880952D02*
X80147619Y-102309523D01*
X80147619Y-102595238D02*
X81147619Y-102595238D01*
X81004761Y-102500000D01*
X80909523Y-102404761D01*
X80861904Y-102309523D01*
X80195238Y-103357142D02*
X80147619Y-103357142D01*
X80052380Y-103309523D01*
X80004761Y-103261904D01*
X81147619Y-103976190D02*
X81147619Y-104071428D01*
X81100000Y-104166666D01*
X81052380Y-104214285D01*
X80957142Y-104261904D01*
X80766666Y-104309523D01*
X80528571Y-104309523D01*
X80338095Y-104261904D01*
X80242857Y-104214285D01*
X80195238Y-104166666D01*
X80147619Y-104071428D01*
X80147619Y-103976190D01*
X80195238Y-103880952D01*
X80242857Y-103833333D01*
X80338095Y-103785714D01*
X80528571Y-103738095D01*
X80766666Y-103738095D01*
X80957142Y-103785714D01*
X81052380Y-103833333D01*
X81100000Y-103880952D01*
X81147619Y-103976190D01*
X81147619Y-104928571D02*
X81147619Y-105023809D01*
X81100000Y-105119047D01*
X81052380Y-105166666D01*
X80957142Y-105214285D01*
X80766666Y-105261904D01*
X80528571Y-105261904D01*
X80338095Y-105214285D01*
X80242857Y-105166666D01*
X80195238Y-105119047D01*
X80147619Y-105023809D01*
X80147619Y-104928571D01*
X80195238Y-104833333D01*
X80242857Y-104785714D01*
X80338095Y-104738095D01*
X80528571Y-104690476D01*
X80766666Y-104690476D01*
X80957142Y-104738095D01*
X81052380Y-104785714D01*
X81100000Y-104833333D01*
X81147619Y-104928571D01*
X81147619Y-105880952D02*
X81147619Y-105976190D01*
X81100000Y-106071428D01*
X81052380Y-106119047D01*
X80957142Y-106166666D01*
X80766666Y-106214285D01*
X80528571Y-106214285D01*
X80338095Y-106166666D01*
X80242857Y-106119047D01*
X80195238Y-106071428D01*
X80147619Y-105976190D01*
X80147619Y-105880952D01*
X80195238Y-105785714D01*
X80242857Y-105738095D01*
X80338095Y-105690476D01*
X80528571Y-105642857D01*
X80766666Y-105642857D01*
X80957142Y-105690476D01*
X81052380Y-105738095D01*
X81100000Y-105785714D01*
X81147619Y-105880952D01*
X80147619Y-107404761D02*
X80814285Y-107404761D01*
X80719047Y-107404761D02*
X80766666Y-107452380D01*
X80814285Y-107547619D01*
X80814285Y-107690476D01*
X80766666Y-107785714D01*
X80671428Y-107833333D01*
X80147619Y-107833333D01*
X80671428Y-107833333D02*
X80766666Y-107880952D01*
X80814285Y-107976190D01*
X80814285Y-108119047D01*
X80766666Y-108214285D01*
X80671428Y-108261904D01*
X80147619Y-108261904D01*
X80147619Y-108738095D02*
X80814285Y-108738095D01*
X80719047Y-108738095D02*
X80766666Y-108785714D01*
X80814285Y-108880952D01*
X80814285Y-109023809D01*
X80766666Y-109119047D01*
X80671428Y-109166666D01*
X80147619Y-109166666D01*
X80671428Y-109166666D02*
X80766666Y-109214285D01*
X80814285Y-109309523D01*
X80814285Y-109452380D01*
X80766666Y-109547619D01*
X80671428Y-109595238D01*
X80147619Y-109595238D01*
X81900000Y-70000000D02*
X81900000Y-141000000D01*
X100000000Y-70000000D02*
X81313579Y-70000000D01*
X100000000Y-141000000D02*
X81313579Y-141000000D01*
X81900000Y-141000000D02*
X81313579Y-139873496D01*
X81900000Y-141000000D02*
X82486421Y-139873496D01*
X81900000Y-70000000D02*
X81313579Y-71126504D01*
X81900000Y-70000000D02*
X82486421Y-71126504D01*
M02*
