%TF.GenerationSoftware,KiCad,Pcbnew,10.0.5-unknown-202607221313~667fa36054~ubuntu25.10.1*%
%TF.CreationDate,2026-08-20T15:50:57+00:00*%
%TF.ProjectId,rack-ser-adapter,7261636b-2d73-4657-922d-616461707465,rev?*%
%TF.SameCoordinates,Original*%
%TF.FileFunction,Soldermask,Top*%
%TF.FilePolarity,Negative*%
%FSLAX46Y46*%
G04 Gerber Fmt 4.6, Leading zero omitted, Abs format (unit mm)*
G04 Created by KiCad (PCBNEW 10.0.5-unknown-202607221313~667fa36054~ubuntu25.10.1) date 2026-08-20 15:50:57*
%MOMM*%
%LPD*%
G01*
G04 APERTURE LIST*
G04 Aperture macros list*
%AMRoundRect*
0 Rectangle with rounded corners*
0 $1 Rounding radius*
0 $2 $3 $4 $5 $6 $7 $8 $9 X,Y pos of 4 corners*
0 Add a 4 corners polygon primitive as box body*
4,1,4,$2,$3,$4,$5,$6,$7,$8,$9,$2,$3,0*
0 Add four circle primitives for the rounded corners*
1,1,$1+$1,$2,$3*
1,1,$1+$1,$4,$5*
1,1,$1+$1,$6,$7*
1,1,$1+$1,$8,$9*
0 Add four rect primitives between the rounded corners*
20,1,$1+$1,$2,$3,$4,$5,0*
20,1,$1+$1,$4,$5,$6,$7,0*
20,1,$1+$1,$6,$7,$8,$9,0*
20,1,$1+$1,$8,$9,$2,$3,0*%
G04 Aperture macros list end*
%ADD10C,3.650000*%
%ADD11RoundRect,0.200000X-0.750000X0.750000X-0.750000X-0.750000X0.750000X-0.750000X0.750000X0.750000X0*%
%ADD12C,1.900000*%
%ADD13C,3.400000*%
%ADD14C,6.100000*%
%ADD15C,4.400000*%
%ADD16RoundRect,0.200000X-0.800000X0.800000X-0.800000X-0.800000X0.800000X-0.800000X0.800000X0.800000X0*%
%ADD17C,2.000000*%
G04 APERTURE END LIST*
D10*
%TO.C,J2*%
X126350000Y-93270000D03*
X126350000Y-81840000D03*
D11*
X120000000Y-92000000D03*
D12*
X117460000Y-90730000D03*
X120000000Y-89460000D03*
X117460000Y-88190000D03*
X120000000Y-86920000D03*
X117460000Y-85650000D03*
X120000000Y-84380000D03*
X117460000Y-83110000D03*
D13*
X129400000Y-95325000D03*
X129400000Y-79785000D03*
%TD*%
D14*
%TO.C,H1*%
X112000000Y-75000000D03*
%TD*%
D15*
%TO.C,J1*%
X104700000Y-75040000D03*
X104700000Y-100040000D03*
D16*
X105000000Y-82000000D03*
D17*
X105000000Y-84770000D03*
X105000000Y-87540000D03*
X105000000Y-90310000D03*
X105000000Y-93080000D03*
X102160000Y-83385000D03*
X102160000Y-86155000D03*
X102160000Y-88925000D03*
X102160000Y-91695000D03*
%TD*%
D14*
%TO.C,H2*%
X112000000Y-100000000D03*
%TD*%
%TO.C,H4*%
X112000000Y-136000000D03*
%TD*%
D15*
%TO.C,J3*%
X104700000Y-110960000D03*
X104700000Y-135960000D03*
D16*
X105000000Y-129000000D03*
D17*
X105000000Y-126230000D03*
X105000000Y-123460000D03*
X105000000Y-120690000D03*
X105000000Y-117920000D03*
X102160000Y-127615000D03*
X102160000Y-124845000D03*
X102160000Y-122075000D03*
X102160000Y-119305000D03*
%TD*%
D10*
%TO.C,J4*%
X126350000Y-129270000D03*
X126350000Y-117840000D03*
D11*
X120000000Y-128000000D03*
D12*
X117460000Y-126730000D03*
X120000000Y-125460000D03*
X117460000Y-124190000D03*
X120000000Y-122920000D03*
X117460000Y-121650000D03*
X120000000Y-120380000D03*
X117460000Y-119110000D03*
D13*
X129400000Y-131325000D03*
X129400000Y-115785000D03*
%TD*%
D14*
%TO.C,H3*%
X112000000Y-111000000D03*
%TD*%
M02*
