%TF.GenerationSoftware,KiCad,Pcbnew,5.1.9+dfsg1-1~bpo10+1*%
%TF.CreationDate,2021-11-01T14:59:18+00:00*%
%TF.ProjectId,rack-ser-adapter,7261636b-2d73-4657-922d-616461707465,rev?*%
%TF.SameCoordinates,Original*%
%TF.FileFunction,Profile,NP*%
%FSLAX46Y46*%
G04 Gerber Fmt 4.6, Leading zero omitted, Abs format (unit mm)*
G04 Created by KiCad (PCBNEW 5.1.9+dfsg1-1~bpo10+1) date 2021-11-01 14:59:18*
%MOMM*%
%LPD*%
G01*
G04 APERTURE LIST*
%TA.AperFunction,Profile*%
%ADD10C,0.150000*%
%TD*%
G04 APERTURE END LIST*
D10*
X114500000Y-106000000D02*
G75*
G02*
X114500000Y-105000000I0J500000D01*
G01*
X100500000Y-106000000D02*
X100000000Y-106000000D01*
X100500000Y-105000000D02*
G75*
G02*
X100500000Y-106000000I0J-500000D01*
G01*
X105500000Y-106000000D02*
G75*
G02*
X105500000Y-105000000I0J500000D01*
G01*
X109500000Y-105000000D02*
G75*
G02*
X109500000Y-106000000I0J-500000D01*
G01*
X109500000Y-105000000D02*
X105500000Y-105000000D01*
X105500000Y-106000000D02*
X109500000Y-106000000D01*
X134000000Y-131000000D02*
X115000000Y-141000000D01*
X134000000Y-116000000D02*
X134000000Y-131000000D01*
X115000000Y-106000000D02*
X134000000Y-116000000D01*
X114500000Y-106000000D02*
X115000000Y-106000000D01*
X115000000Y-105000000D02*
X114500000Y-105000000D01*
X100000000Y-141000000D02*
X115000000Y-141000000D01*
X100000000Y-106000000D02*
X100000000Y-141000000D01*
X100000000Y-105000000D02*
X100500000Y-105000000D01*
X100000000Y-105000000D02*
X100000000Y-70000000D01*
X134000000Y-95000000D02*
X115000000Y-105000000D01*
X134000000Y-80000000D02*
X134000000Y-95000000D01*
X115000000Y-70000000D02*
X134000000Y-80000000D01*
X100000000Y-70000000D02*
X115000000Y-70000000D01*
M02*
