%TF.GenerationSoftware,KiCad,Pcbnew,10.0.5-unknown-202607221313~667fa36054~ubuntu25.10.1*%
%TF.CreationDate,2026-08-20T15:50:57+00:00*%
%TF.ProjectId,rack-ser-adapter,7261636b-2d73-4657-922d-616461707465,rev?*%
%TF.SameCoordinates,Original*%
%TF.FileFunction,AssemblyDrawing,Top*%
%FSLAX46Y46*%
G04 Gerber Fmt 4.6, Leading zero omitted, Abs format (unit mm)*
G04 Created by KiCad (PCBNEW 10.0.5-unknown-202607221313~667fa36054~ubuntu25.10.1) date 2026-08-20 15:50:57*
%MOMM*%
%LPD*%
G01*
G04 APERTURE LIST*
%ADD10C,0.150000*%
%ADD11C,0.100000*%
G04 APERTURE END LIST*
D10*
X133714819Y-92140238D02*
X133238628Y-92473571D01*
X133714819Y-92711666D02*
X132714819Y-92711666D01*
X132714819Y-92711666D02*
X132714819Y-92330714D01*
X132714819Y-92330714D02*
X132762438Y-92235476D01*
X132762438Y-92235476D02*
X132810057Y-92187857D01*
X132810057Y-92187857D02*
X132905295Y-92140238D01*
X132905295Y-92140238D02*
X133048152Y-92140238D01*
X133048152Y-92140238D02*
X133143390Y-92187857D01*
X133143390Y-92187857D02*
X133191009Y-92235476D01*
X133191009Y-92235476D02*
X133238628Y-92330714D01*
X133238628Y-92330714D02*
X133238628Y-92711666D01*
X132714819Y-91425952D02*
X133429104Y-91425952D01*
X133429104Y-91425952D02*
X133571961Y-91473571D01*
X133571961Y-91473571D02*
X133667200Y-91568809D01*
X133667200Y-91568809D02*
X133714819Y-91711666D01*
X133714819Y-91711666D02*
X133714819Y-91806904D01*
X133048152Y-90521190D02*
X133714819Y-90521190D01*
X132667200Y-90759285D02*
X133381485Y-90997380D01*
X133381485Y-90997380D02*
X133381485Y-90378333D01*
X132714819Y-89521190D02*
X132714819Y-89997380D01*
X132714819Y-89997380D02*
X133191009Y-90044999D01*
X133191009Y-90044999D02*
X133143390Y-89997380D01*
X133143390Y-89997380D02*
X133095771Y-89902142D01*
X133095771Y-89902142D02*
X133095771Y-89664047D01*
X133095771Y-89664047D02*
X133143390Y-89568809D01*
X133143390Y-89568809D02*
X133191009Y-89521190D01*
X133191009Y-89521190D02*
X133286247Y-89473571D01*
X133286247Y-89473571D02*
X133524342Y-89473571D01*
X133524342Y-89473571D02*
X133619580Y-89521190D01*
X133619580Y-89521190D02*
X133667200Y-89568809D01*
X133667200Y-89568809D02*
X133714819Y-89664047D01*
X133714819Y-89664047D02*
X133714819Y-89902142D01*
X133714819Y-89902142D02*
X133667200Y-89997380D01*
X133667200Y-89997380D02*
X133619580Y-90044999D01*
X133810057Y-89283095D02*
X133810057Y-88521190D01*
X133667200Y-88330713D02*
X133714819Y-88187856D01*
X133714819Y-88187856D02*
X133714819Y-87949761D01*
X133714819Y-87949761D02*
X133667200Y-87854523D01*
X133667200Y-87854523D02*
X133619580Y-87806904D01*
X133619580Y-87806904D02*
X133524342Y-87759285D01*
X133524342Y-87759285D02*
X133429104Y-87759285D01*
X133429104Y-87759285D02*
X133333866Y-87806904D01*
X133333866Y-87806904D02*
X133286247Y-87854523D01*
X133286247Y-87854523D02*
X133238628Y-87949761D01*
X133238628Y-87949761D02*
X133191009Y-88140237D01*
X133191009Y-88140237D02*
X133143390Y-88235475D01*
X133143390Y-88235475D02*
X133095771Y-88283094D01*
X133095771Y-88283094D02*
X133000533Y-88330713D01*
X133000533Y-88330713D02*
X132905295Y-88330713D01*
X132905295Y-88330713D02*
X132810057Y-88283094D01*
X132810057Y-88283094D02*
X132762438Y-88235475D01*
X132762438Y-88235475D02*
X132714819Y-88140237D01*
X132714819Y-88140237D02*
X132714819Y-87902142D01*
X132714819Y-87902142D02*
X132762438Y-87759285D01*
X133714819Y-87330713D02*
X132714819Y-87330713D01*
X133714819Y-86902142D02*
X133191009Y-86902142D01*
X133191009Y-86902142D02*
X133095771Y-86949761D01*
X133095771Y-86949761D02*
X133048152Y-87044999D01*
X133048152Y-87044999D02*
X133048152Y-87187856D01*
X133048152Y-87187856D02*
X133095771Y-87283094D01*
X133095771Y-87283094D02*
X133143390Y-87330713D01*
X133714819Y-86425951D02*
X133048152Y-86425951D01*
X132714819Y-86425951D02*
X132762438Y-86473570D01*
X132762438Y-86473570D02*
X132810057Y-86425951D01*
X132810057Y-86425951D02*
X132762438Y-86378332D01*
X132762438Y-86378332D02*
X132714819Y-86425951D01*
X132714819Y-86425951D02*
X132810057Y-86425951D01*
X133667200Y-85568809D02*
X133714819Y-85664047D01*
X133714819Y-85664047D02*
X133714819Y-85854523D01*
X133714819Y-85854523D02*
X133667200Y-85949761D01*
X133667200Y-85949761D02*
X133571961Y-85997380D01*
X133571961Y-85997380D02*
X133191009Y-85997380D01*
X133191009Y-85997380D02*
X133095771Y-85949761D01*
X133095771Y-85949761D02*
X133048152Y-85854523D01*
X133048152Y-85854523D02*
X133048152Y-85664047D01*
X133048152Y-85664047D02*
X133095771Y-85568809D01*
X133095771Y-85568809D02*
X133191009Y-85521190D01*
X133191009Y-85521190D02*
X133286247Y-85521190D01*
X133286247Y-85521190D02*
X133381485Y-85997380D01*
X133714819Y-84949761D02*
X133667200Y-85044999D01*
X133667200Y-85044999D02*
X133571961Y-85092618D01*
X133571961Y-85092618D02*
X132714819Y-85092618D01*
X133714819Y-84140237D02*
X132714819Y-84140237D01*
X133667200Y-84140237D02*
X133714819Y-84235475D01*
X133714819Y-84235475D02*
X133714819Y-84425951D01*
X133714819Y-84425951D02*
X133667200Y-84521189D01*
X133667200Y-84521189D02*
X133619580Y-84568808D01*
X133619580Y-84568808D02*
X133524342Y-84616427D01*
X133524342Y-84616427D02*
X133238628Y-84616427D01*
X133238628Y-84616427D02*
X133143390Y-84568808D01*
X133143390Y-84568808D02*
X133095771Y-84521189D01*
X133095771Y-84521189D02*
X133048152Y-84425951D01*
X133048152Y-84425951D02*
X133048152Y-84235475D01*
X133048152Y-84235475D02*
X133095771Y-84140237D01*
X133667200Y-83283094D02*
X133714819Y-83378332D01*
X133714819Y-83378332D02*
X133714819Y-83568808D01*
X133714819Y-83568808D02*
X133667200Y-83664046D01*
X133667200Y-83664046D02*
X133571961Y-83711665D01*
X133571961Y-83711665D02*
X133191009Y-83711665D01*
X133191009Y-83711665D02*
X133095771Y-83664046D01*
X133095771Y-83664046D02*
X133048152Y-83568808D01*
X133048152Y-83568808D02*
X133048152Y-83378332D01*
X133048152Y-83378332D02*
X133095771Y-83283094D01*
X133095771Y-83283094D02*
X133191009Y-83235475D01*
X133191009Y-83235475D02*
X133286247Y-83235475D01*
X133286247Y-83235475D02*
X133381485Y-83711665D01*
X133714819Y-82378332D02*
X132714819Y-82378332D01*
X133667200Y-82378332D02*
X133714819Y-82473570D01*
X133714819Y-82473570D02*
X133714819Y-82664046D01*
X133714819Y-82664046D02*
X133667200Y-82759284D01*
X133667200Y-82759284D02*
X133619580Y-82806903D01*
X133619580Y-82806903D02*
X133524342Y-82854522D01*
X133524342Y-82854522D02*
X133238628Y-82854522D01*
X133238628Y-82854522D02*
X133143390Y-82806903D01*
X133143390Y-82806903D02*
X133095771Y-82759284D01*
X133095771Y-82759284D02*
X133048152Y-82664046D01*
X133048152Y-82664046D02*
X133048152Y-82473570D01*
X133048152Y-82473570D02*
X133095771Y-82378332D01*
X125814819Y-87888333D02*
X126529104Y-87888333D01*
X126529104Y-87888333D02*
X126671961Y-87935952D01*
X126671961Y-87935952D02*
X126767200Y-88031190D01*
X126767200Y-88031190D02*
X126814819Y-88174047D01*
X126814819Y-88174047D02*
X126814819Y-88269285D01*
X125910057Y-87459761D02*
X125862438Y-87412142D01*
X125862438Y-87412142D02*
X125814819Y-87316904D01*
X125814819Y-87316904D02*
X125814819Y-87078809D01*
X125814819Y-87078809D02*
X125862438Y-86983571D01*
X125862438Y-86983571D02*
X125910057Y-86935952D01*
X125910057Y-86935952D02*
X126005295Y-86888333D01*
X126005295Y-86888333D02*
X126100533Y-86888333D01*
X126100533Y-86888333D02*
X126243390Y-86935952D01*
X126243390Y-86935952D02*
X126814819Y-87507380D01*
X126814819Y-87507380D02*
X126814819Y-86888333D01*
X111738095Y-78923866D02*
X111785714Y-78876247D01*
X111785714Y-78876247D02*
X111880952Y-78828628D01*
X111880952Y-78828628D02*
X112071428Y-78923866D01*
X112071428Y-78923866D02*
X112166666Y-78876247D01*
X112166666Y-78876247D02*
X112214285Y-78828628D01*
X111538095Y-75454819D02*
X111538095Y-74454819D01*
X111538095Y-74931009D02*
X112109523Y-74931009D01*
X112109523Y-75454819D02*
X112109523Y-74454819D01*
X113109523Y-75454819D02*
X112538095Y-75454819D01*
X112823809Y-75454819D02*
X112823809Y-74454819D01*
X112823809Y-74454819D02*
X112728571Y-74597676D01*
X112728571Y-74597676D02*
X112633333Y-74692914D01*
X112633333Y-74692914D02*
X112538095Y-74740533D01*
X89774819Y-89754285D02*
X89298628Y-90087618D01*
X89774819Y-90325713D02*
X88774819Y-90325713D01*
X88774819Y-90325713D02*
X88774819Y-89944761D01*
X88774819Y-89944761D02*
X88822438Y-89849523D01*
X88822438Y-89849523D02*
X88870057Y-89801904D01*
X88870057Y-89801904D02*
X88965295Y-89754285D01*
X88965295Y-89754285D02*
X89108152Y-89754285D01*
X89108152Y-89754285D02*
X89203390Y-89801904D01*
X89203390Y-89801904D02*
X89251009Y-89849523D01*
X89251009Y-89849523D02*
X89298628Y-89944761D01*
X89298628Y-89944761D02*
X89298628Y-90325713D01*
X89727200Y-89373332D02*
X89774819Y-89230475D01*
X89774819Y-89230475D02*
X89774819Y-88992380D01*
X89774819Y-88992380D02*
X89727200Y-88897142D01*
X89727200Y-88897142D02*
X89679580Y-88849523D01*
X89679580Y-88849523D02*
X89584342Y-88801904D01*
X89584342Y-88801904D02*
X89489104Y-88801904D01*
X89489104Y-88801904D02*
X89393866Y-88849523D01*
X89393866Y-88849523D02*
X89346247Y-88897142D01*
X89346247Y-88897142D02*
X89298628Y-88992380D01*
X89298628Y-88992380D02*
X89251009Y-89182856D01*
X89251009Y-89182856D02*
X89203390Y-89278094D01*
X89203390Y-89278094D02*
X89155771Y-89325713D01*
X89155771Y-89325713D02*
X89060533Y-89373332D01*
X89060533Y-89373332D02*
X88965295Y-89373332D01*
X88965295Y-89373332D02*
X88870057Y-89325713D01*
X88870057Y-89325713D02*
X88822438Y-89278094D01*
X88822438Y-89278094D02*
X88774819Y-89182856D01*
X88774819Y-89182856D02*
X88774819Y-88944761D01*
X88774819Y-88944761D02*
X88822438Y-88801904D01*
X89393866Y-88373332D02*
X89393866Y-87611428D01*
X88870057Y-87182856D02*
X88822438Y-87135237D01*
X88822438Y-87135237D02*
X88774819Y-87039999D01*
X88774819Y-87039999D02*
X88774819Y-86801904D01*
X88774819Y-86801904D02*
X88822438Y-86706666D01*
X88822438Y-86706666D02*
X88870057Y-86659047D01*
X88870057Y-86659047D02*
X88965295Y-86611428D01*
X88965295Y-86611428D02*
X89060533Y-86611428D01*
X89060533Y-86611428D02*
X89203390Y-86659047D01*
X89203390Y-86659047D02*
X89774819Y-87230475D01*
X89774819Y-87230475D02*
X89774819Y-86611428D01*
X88774819Y-86278094D02*
X88774819Y-85659047D01*
X88774819Y-85659047D02*
X89155771Y-85992380D01*
X89155771Y-85992380D02*
X89155771Y-85849523D01*
X89155771Y-85849523D02*
X89203390Y-85754285D01*
X89203390Y-85754285D02*
X89251009Y-85706666D01*
X89251009Y-85706666D02*
X89346247Y-85659047D01*
X89346247Y-85659047D02*
X89584342Y-85659047D01*
X89584342Y-85659047D02*
X89679580Y-85706666D01*
X89679580Y-85706666D02*
X89727200Y-85754285D01*
X89727200Y-85754285D02*
X89774819Y-85849523D01*
X89774819Y-85849523D02*
X89774819Y-86135237D01*
X89774819Y-86135237D02*
X89727200Y-86230475D01*
X89727200Y-86230475D02*
X89679580Y-86278094D01*
X88870057Y-85278094D02*
X88822438Y-85230475D01*
X88822438Y-85230475D02*
X88774819Y-85135237D01*
X88774819Y-85135237D02*
X88774819Y-84897142D01*
X88774819Y-84897142D02*
X88822438Y-84801904D01*
X88822438Y-84801904D02*
X88870057Y-84754285D01*
X88870057Y-84754285D02*
X88965295Y-84706666D01*
X88965295Y-84706666D02*
X89060533Y-84706666D01*
X89060533Y-84706666D02*
X89203390Y-84754285D01*
X89203390Y-84754285D02*
X89774819Y-85325713D01*
X89774819Y-85325713D02*
X89774819Y-84706666D01*
X93274819Y-87873333D02*
X93989104Y-87873333D01*
X93989104Y-87873333D02*
X94131961Y-87920952D01*
X94131961Y-87920952D02*
X94227200Y-88016190D01*
X94227200Y-88016190D02*
X94274819Y-88159047D01*
X94274819Y-88159047D02*
X94274819Y-88254285D01*
X94274819Y-86873333D02*
X94274819Y-87444761D01*
X94274819Y-87159047D02*
X93274819Y-87159047D01*
X93274819Y-87159047D02*
X93417676Y-87254285D01*
X93417676Y-87254285D02*
X93512914Y-87349523D01*
X93512914Y-87349523D02*
X93560533Y-87444761D01*
X111738095Y-103923866D02*
X111785714Y-103876247D01*
X111785714Y-103876247D02*
X111880952Y-103828628D01*
X111880952Y-103828628D02*
X112071428Y-103923866D01*
X112071428Y-103923866D02*
X112166666Y-103876247D01*
X112166666Y-103876247D02*
X112214285Y-103828628D01*
X111538095Y-100454819D02*
X111538095Y-99454819D01*
X111538095Y-99931009D02*
X112109523Y-99931009D01*
X112109523Y-100454819D02*
X112109523Y-99454819D01*
X112538095Y-99550057D02*
X112585714Y-99502438D01*
X112585714Y-99502438D02*
X112680952Y-99454819D01*
X112680952Y-99454819D02*
X112919047Y-99454819D01*
X112919047Y-99454819D02*
X113014285Y-99502438D01*
X113014285Y-99502438D02*
X113061904Y-99550057D01*
X113061904Y-99550057D02*
X113109523Y-99645295D01*
X113109523Y-99645295D02*
X113109523Y-99740533D01*
X113109523Y-99740533D02*
X113061904Y-99883390D01*
X113061904Y-99883390D02*
X112490476Y-100454819D01*
X112490476Y-100454819D02*
X113109523Y-100454819D01*
X111738095Y-139923866D02*
X111785714Y-139876247D01*
X111785714Y-139876247D02*
X111880952Y-139828628D01*
X111880952Y-139828628D02*
X112071428Y-139923866D01*
X112071428Y-139923866D02*
X112166666Y-139876247D01*
X112166666Y-139876247D02*
X112214285Y-139828628D01*
X111538095Y-136454819D02*
X111538095Y-135454819D01*
X111538095Y-135931009D02*
X112109523Y-135931009D01*
X112109523Y-136454819D02*
X112109523Y-135454819D01*
X113014285Y-135788152D02*
X113014285Y-136454819D01*
X112776190Y-135407200D02*
X112538095Y-136121485D01*
X112538095Y-136121485D02*
X113157142Y-136121485D01*
X89604819Y-125674285D02*
X89128628Y-126007618D01*
X89604819Y-126245713D02*
X88604819Y-126245713D01*
X88604819Y-126245713D02*
X88604819Y-125864761D01*
X88604819Y-125864761D02*
X88652438Y-125769523D01*
X88652438Y-125769523D02*
X88700057Y-125721904D01*
X88700057Y-125721904D02*
X88795295Y-125674285D01*
X88795295Y-125674285D02*
X88938152Y-125674285D01*
X88938152Y-125674285D02*
X89033390Y-125721904D01*
X89033390Y-125721904D02*
X89081009Y-125769523D01*
X89081009Y-125769523D02*
X89128628Y-125864761D01*
X89128628Y-125864761D02*
X89128628Y-126245713D01*
X89557200Y-125293332D02*
X89604819Y-125150475D01*
X89604819Y-125150475D02*
X89604819Y-124912380D01*
X89604819Y-124912380D02*
X89557200Y-124817142D01*
X89557200Y-124817142D02*
X89509580Y-124769523D01*
X89509580Y-124769523D02*
X89414342Y-124721904D01*
X89414342Y-124721904D02*
X89319104Y-124721904D01*
X89319104Y-124721904D02*
X89223866Y-124769523D01*
X89223866Y-124769523D02*
X89176247Y-124817142D01*
X89176247Y-124817142D02*
X89128628Y-124912380D01*
X89128628Y-124912380D02*
X89081009Y-125102856D01*
X89081009Y-125102856D02*
X89033390Y-125198094D01*
X89033390Y-125198094D02*
X88985771Y-125245713D01*
X88985771Y-125245713D02*
X88890533Y-125293332D01*
X88890533Y-125293332D02*
X88795295Y-125293332D01*
X88795295Y-125293332D02*
X88700057Y-125245713D01*
X88700057Y-125245713D02*
X88652438Y-125198094D01*
X88652438Y-125198094D02*
X88604819Y-125102856D01*
X88604819Y-125102856D02*
X88604819Y-124864761D01*
X88604819Y-124864761D02*
X88652438Y-124721904D01*
X89223866Y-124293332D02*
X89223866Y-123531428D01*
X88700057Y-123102856D02*
X88652438Y-123055237D01*
X88652438Y-123055237D02*
X88604819Y-122959999D01*
X88604819Y-122959999D02*
X88604819Y-122721904D01*
X88604819Y-122721904D02*
X88652438Y-122626666D01*
X88652438Y-122626666D02*
X88700057Y-122579047D01*
X88700057Y-122579047D02*
X88795295Y-122531428D01*
X88795295Y-122531428D02*
X88890533Y-122531428D01*
X88890533Y-122531428D02*
X89033390Y-122579047D01*
X89033390Y-122579047D02*
X89604819Y-123150475D01*
X89604819Y-123150475D02*
X89604819Y-122531428D01*
X88604819Y-122198094D02*
X88604819Y-121579047D01*
X88604819Y-121579047D02*
X88985771Y-121912380D01*
X88985771Y-121912380D02*
X88985771Y-121769523D01*
X88985771Y-121769523D02*
X89033390Y-121674285D01*
X89033390Y-121674285D02*
X89081009Y-121626666D01*
X89081009Y-121626666D02*
X89176247Y-121579047D01*
X89176247Y-121579047D02*
X89414342Y-121579047D01*
X89414342Y-121579047D02*
X89509580Y-121626666D01*
X89509580Y-121626666D02*
X89557200Y-121674285D01*
X89557200Y-121674285D02*
X89604819Y-121769523D01*
X89604819Y-121769523D02*
X89604819Y-122055237D01*
X89604819Y-122055237D02*
X89557200Y-122150475D01*
X89557200Y-122150475D02*
X89509580Y-122198094D01*
X88700057Y-121198094D02*
X88652438Y-121150475D01*
X88652438Y-121150475D02*
X88604819Y-121055237D01*
X88604819Y-121055237D02*
X88604819Y-120817142D01*
X88604819Y-120817142D02*
X88652438Y-120721904D01*
X88652438Y-120721904D02*
X88700057Y-120674285D01*
X88700057Y-120674285D02*
X88795295Y-120626666D01*
X88795295Y-120626666D02*
X88890533Y-120626666D01*
X88890533Y-120626666D02*
X89033390Y-120674285D01*
X89033390Y-120674285D02*
X89604819Y-121245713D01*
X89604819Y-121245713D02*
X89604819Y-120626666D01*
X93189819Y-123793333D02*
X93904104Y-123793333D01*
X93904104Y-123793333D02*
X94046961Y-123840952D01*
X94046961Y-123840952D02*
X94142200Y-123936190D01*
X94142200Y-123936190D02*
X94189819Y-124079047D01*
X94189819Y-124079047D02*
X94189819Y-124174285D01*
X93189819Y-123412380D02*
X93189819Y-122793333D01*
X93189819Y-122793333D02*
X93570771Y-123126666D01*
X93570771Y-123126666D02*
X93570771Y-122983809D01*
X93570771Y-122983809D02*
X93618390Y-122888571D01*
X93618390Y-122888571D02*
X93666009Y-122840952D01*
X93666009Y-122840952D02*
X93761247Y-122793333D01*
X93761247Y-122793333D02*
X93999342Y-122793333D01*
X93999342Y-122793333D02*
X94094580Y-122840952D01*
X94094580Y-122840952D02*
X94142200Y-122888571D01*
X94142200Y-122888571D02*
X94189819Y-122983809D01*
X94189819Y-122983809D02*
X94189819Y-123269523D01*
X94189819Y-123269523D02*
X94142200Y-123364761D01*
X94142200Y-123364761D02*
X94094580Y-123412380D01*
X133714819Y-128140238D02*
X133238628Y-128473571D01*
X133714819Y-128711666D02*
X132714819Y-128711666D01*
X132714819Y-128711666D02*
X132714819Y-128330714D01*
X132714819Y-128330714D02*
X132762438Y-128235476D01*
X132762438Y-128235476D02*
X132810057Y-128187857D01*
X132810057Y-128187857D02*
X132905295Y-128140238D01*
X132905295Y-128140238D02*
X133048152Y-128140238D01*
X133048152Y-128140238D02*
X133143390Y-128187857D01*
X133143390Y-128187857D02*
X133191009Y-128235476D01*
X133191009Y-128235476D02*
X133238628Y-128330714D01*
X133238628Y-128330714D02*
X133238628Y-128711666D01*
X132714819Y-127425952D02*
X133429104Y-127425952D01*
X133429104Y-127425952D02*
X133571961Y-127473571D01*
X133571961Y-127473571D02*
X133667200Y-127568809D01*
X133667200Y-127568809D02*
X133714819Y-127711666D01*
X133714819Y-127711666D02*
X133714819Y-127806904D01*
X133048152Y-126521190D02*
X133714819Y-126521190D01*
X132667200Y-126759285D02*
X133381485Y-126997380D01*
X133381485Y-126997380D02*
X133381485Y-126378333D01*
X132714819Y-125521190D02*
X132714819Y-125997380D01*
X132714819Y-125997380D02*
X133191009Y-126044999D01*
X133191009Y-126044999D02*
X133143390Y-125997380D01*
X133143390Y-125997380D02*
X133095771Y-125902142D01*
X133095771Y-125902142D02*
X133095771Y-125664047D01*
X133095771Y-125664047D02*
X133143390Y-125568809D01*
X133143390Y-125568809D02*
X133191009Y-125521190D01*
X133191009Y-125521190D02*
X133286247Y-125473571D01*
X133286247Y-125473571D02*
X133524342Y-125473571D01*
X133524342Y-125473571D02*
X133619580Y-125521190D01*
X133619580Y-125521190D02*
X133667200Y-125568809D01*
X133667200Y-125568809D02*
X133714819Y-125664047D01*
X133714819Y-125664047D02*
X133714819Y-125902142D01*
X133714819Y-125902142D02*
X133667200Y-125997380D01*
X133667200Y-125997380D02*
X133619580Y-126044999D01*
X133810057Y-125283095D02*
X133810057Y-124521190D01*
X133667200Y-124330713D02*
X133714819Y-124187856D01*
X133714819Y-124187856D02*
X133714819Y-123949761D01*
X133714819Y-123949761D02*
X133667200Y-123854523D01*
X133667200Y-123854523D02*
X133619580Y-123806904D01*
X133619580Y-123806904D02*
X133524342Y-123759285D01*
X133524342Y-123759285D02*
X133429104Y-123759285D01*
X133429104Y-123759285D02*
X133333866Y-123806904D01*
X133333866Y-123806904D02*
X133286247Y-123854523D01*
X133286247Y-123854523D02*
X133238628Y-123949761D01*
X133238628Y-123949761D02*
X133191009Y-124140237D01*
X133191009Y-124140237D02*
X133143390Y-124235475D01*
X133143390Y-124235475D02*
X133095771Y-124283094D01*
X133095771Y-124283094D02*
X133000533Y-124330713D01*
X133000533Y-124330713D02*
X132905295Y-124330713D01*
X132905295Y-124330713D02*
X132810057Y-124283094D01*
X132810057Y-124283094D02*
X132762438Y-124235475D01*
X132762438Y-124235475D02*
X132714819Y-124140237D01*
X132714819Y-124140237D02*
X132714819Y-123902142D01*
X132714819Y-123902142D02*
X132762438Y-123759285D01*
X133714819Y-123330713D02*
X132714819Y-123330713D01*
X133714819Y-122902142D02*
X133191009Y-122902142D01*
X133191009Y-122902142D02*
X133095771Y-122949761D01*
X133095771Y-122949761D02*
X133048152Y-123044999D01*
X133048152Y-123044999D02*
X133048152Y-123187856D01*
X133048152Y-123187856D02*
X133095771Y-123283094D01*
X133095771Y-123283094D02*
X133143390Y-123330713D01*
X133714819Y-122425951D02*
X133048152Y-122425951D01*
X132714819Y-122425951D02*
X132762438Y-122473570D01*
X132762438Y-122473570D02*
X132810057Y-122425951D01*
X132810057Y-122425951D02*
X132762438Y-122378332D01*
X132762438Y-122378332D02*
X132714819Y-122425951D01*
X132714819Y-122425951D02*
X132810057Y-122425951D01*
X133667200Y-121568809D02*
X133714819Y-121664047D01*
X133714819Y-121664047D02*
X133714819Y-121854523D01*
X133714819Y-121854523D02*
X133667200Y-121949761D01*
X133667200Y-121949761D02*
X133571961Y-121997380D01*
X133571961Y-121997380D02*
X133191009Y-121997380D01*
X133191009Y-121997380D02*
X133095771Y-121949761D01*
X133095771Y-121949761D02*
X133048152Y-121854523D01*
X133048152Y-121854523D02*
X133048152Y-121664047D01*
X133048152Y-121664047D02*
X133095771Y-121568809D01*
X133095771Y-121568809D02*
X133191009Y-121521190D01*
X133191009Y-121521190D02*
X133286247Y-121521190D01*
X133286247Y-121521190D02*
X133381485Y-121997380D01*
X133714819Y-120949761D02*
X133667200Y-121044999D01*
X133667200Y-121044999D02*
X133571961Y-121092618D01*
X133571961Y-121092618D02*
X132714819Y-121092618D01*
X133714819Y-120140237D02*
X132714819Y-120140237D01*
X133667200Y-120140237D02*
X133714819Y-120235475D01*
X133714819Y-120235475D02*
X133714819Y-120425951D01*
X133714819Y-120425951D02*
X133667200Y-120521189D01*
X133667200Y-120521189D02*
X133619580Y-120568808D01*
X133619580Y-120568808D02*
X133524342Y-120616427D01*
X133524342Y-120616427D02*
X133238628Y-120616427D01*
X133238628Y-120616427D02*
X133143390Y-120568808D01*
X133143390Y-120568808D02*
X133095771Y-120521189D01*
X133095771Y-120521189D02*
X133048152Y-120425951D01*
X133048152Y-120425951D02*
X133048152Y-120235475D01*
X133048152Y-120235475D02*
X133095771Y-120140237D01*
X133667200Y-119283094D02*
X133714819Y-119378332D01*
X133714819Y-119378332D02*
X133714819Y-119568808D01*
X133714819Y-119568808D02*
X133667200Y-119664046D01*
X133667200Y-119664046D02*
X133571961Y-119711665D01*
X133571961Y-119711665D02*
X133191009Y-119711665D01*
X133191009Y-119711665D02*
X133095771Y-119664046D01*
X133095771Y-119664046D02*
X133048152Y-119568808D01*
X133048152Y-119568808D02*
X133048152Y-119378332D01*
X133048152Y-119378332D02*
X133095771Y-119283094D01*
X133095771Y-119283094D02*
X133191009Y-119235475D01*
X133191009Y-119235475D02*
X133286247Y-119235475D01*
X133286247Y-119235475D02*
X133381485Y-119711665D01*
X133714819Y-118378332D02*
X132714819Y-118378332D01*
X133667200Y-118378332D02*
X133714819Y-118473570D01*
X133714819Y-118473570D02*
X133714819Y-118664046D01*
X133714819Y-118664046D02*
X133667200Y-118759284D01*
X133667200Y-118759284D02*
X133619580Y-118806903D01*
X133619580Y-118806903D02*
X133524342Y-118854522D01*
X133524342Y-118854522D02*
X133238628Y-118854522D01*
X133238628Y-118854522D02*
X133143390Y-118806903D01*
X133143390Y-118806903D02*
X133095771Y-118759284D01*
X133095771Y-118759284D02*
X133048152Y-118664046D01*
X133048152Y-118664046D02*
X133048152Y-118473570D01*
X133048152Y-118473570D02*
X133095771Y-118378332D01*
X125814819Y-123888333D02*
X126529104Y-123888333D01*
X126529104Y-123888333D02*
X126671961Y-123935952D01*
X126671961Y-123935952D02*
X126767200Y-124031190D01*
X126767200Y-124031190D02*
X126814819Y-124174047D01*
X126814819Y-124174047D02*
X126814819Y-124269285D01*
X126148152Y-122983571D02*
X126814819Y-122983571D01*
X125767200Y-123221666D02*
X126481485Y-123459761D01*
X126481485Y-123459761D02*
X126481485Y-122840714D01*
X111738095Y-114923866D02*
X111785714Y-114876247D01*
X111785714Y-114876247D02*
X111880952Y-114828628D01*
X111880952Y-114828628D02*
X112071428Y-114923866D01*
X112071428Y-114923866D02*
X112166666Y-114876247D01*
X112166666Y-114876247D02*
X112214285Y-114828628D01*
X111538095Y-111454819D02*
X111538095Y-110454819D01*
X111538095Y-110931009D02*
X112109523Y-110931009D01*
X112109523Y-111454819D02*
X112109523Y-110454819D01*
X112490476Y-110454819D02*
X113109523Y-110454819D01*
X113109523Y-110454819D02*
X112776190Y-110835771D01*
X112776190Y-110835771D02*
X112919047Y-110835771D01*
X112919047Y-110835771D02*
X113014285Y-110883390D01*
X113014285Y-110883390D02*
X113061904Y-110931009D01*
X113061904Y-110931009D02*
X113109523Y-111026247D01*
X113109523Y-111026247D02*
X113109523Y-111264342D01*
X113109523Y-111264342D02*
X113061904Y-111359580D01*
X113061904Y-111359580D02*
X113014285Y-111407200D01*
X113014285Y-111407200D02*
X112919047Y-111454819D01*
X112919047Y-111454819D02*
X112633333Y-111454819D01*
X112633333Y-111454819D02*
X112538095Y-111407200D01*
X112538095Y-111407200D02*
X112490476Y-111359580D01*
%TO.C,J2*%
D11*
X115830000Y-79655000D02*
X115830000Y-94125000D01*
X117160000Y-95455000D02*
X115830000Y-94125000D01*
X117160000Y-95455000D02*
X134480000Y-95455000D01*
X134480000Y-79655000D02*
X115830000Y-79655000D01*
X134480000Y-79655000D02*
X134480000Y-95455000D01*
%TO.C,J1*%
X90820000Y-79390000D02*
X90820000Y-95690000D01*
X90820000Y-95690000D02*
X96820000Y-95690000D01*
X91820000Y-72540000D02*
X91820000Y-77540000D01*
X91820000Y-77540000D02*
X96820000Y-77540000D01*
X91820000Y-97540000D02*
X91820000Y-102540000D01*
X91820000Y-102540000D02*
X96820000Y-102540000D01*
X96820000Y-72115000D02*
X96820000Y-102965000D01*
X96820000Y-72540000D02*
X91820000Y-72540000D01*
X96820000Y-77540000D02*
X96820000Y-72540000D01*
X96820000Y-79390000D02*
X90820000Y-79390000D01*
X96820000Y-95690000D02*
X96820000Y-79390000D01*
X96820000Y-97540000D02*
X91820000Y-97540000D01*
X96820000Y-102540000D02*
X96820000Y-97540000D01*
X96820000Y-102965000D02*
X97220000Y-102965000D01*
X97220000Y-72115000D02*
X96820000Y-72115000D01*
X97220000Y-72115000D02*
X97220000Y-102965000D01*
X97220000Y-73440000D02*
X104700000Y-73440000D01*
X97220000Y-76640000D02*
X104700000Y-76640000D01*
X97220000Y-98440000D02*
X104700000Y-98440000D01*
X97220000Y-101640000D02*
X104700000Y-101640000D01*
X97220000Y-102965000D02*
X97220000Y-72115000D01*
X97220000Y-102965000D02*
X107700000Y-102965000D01*
X107700000Y-72115000D02*
X97220000Y-72115000D01*
X107700000Y-102965000D02*
X107700000Y-72115000D01*
X104700000Y-73440000D02*
G75*
G02*
X104700000Y-76640000I0J-1600000D01*
G01*
X104700000Y-98440000D02*
G75*
G02*
X104700000Y-101640000I0J-1600000D01*
G01*
%TO.C,J3*%
X90650000Y-115310000D02*
X90650000Y-131610000D01*
X90650000Y-131610000D02*
X96820000Y-131610000D01*
X91820000Y-108460000D02*
X91820000Y-113460000D01*
X91820000Y-113460000D02*
X96820000Y-113460000D01*
X91820000Y-133460000D02*
X91820000Y-138460000D01*
X91820000Y-138460000D02*
X96820000Y-138460000D01*
X96820000Y-108035000D02*
X96820000Y-138885000D01*
X96820000Y-108460000D02*
X91820000Y-108460000D01*
X96820000Y-113460000D02*
X96820000Y-108460000D01*
X96820000Y-115310000D02*
X90650000Y-115310000D01*
X96820000Y-131610000D02*
X96820000Y-115310000D01*
X96820000Y-133460000D02*
X91820000Y-133460000D01*
X96820000Y-138460000D02*
X96820000Y-133460000D01*
X96820000Y-138885000D02*
X97220000Y-138885000D01*
X97220000Y-108035000D02*
X96820000Y-108035000D01*
X97220000Y-108035000D02*
X97220000Y-138885000D01*
X97220000Y-109360000D02*
X104700000Y-109360000D01*
X97220000Y-112560000D02*
X104700000Y-112560000D01*
X97220000Y-134360000D02*
X104700000Y-134360000D01*
X97220000Y-137560000D02*
X104700000Y-137560000D01*
X97220000Y-138885000D02*
X97220000Y-108035000D01*
X97220000Y-138885000D02*
X107700000Y-138885000D01*
X107700000Y-108035000D02*
X97220000Y-108035000D01*
X107700000Y-138885000D02*
X107700000Y-108035000D01*
X104700000Y-109360000D02*
G75*
G02*
X104700000Y-112560000I0J-1600000D01*
G01*
X104700000Y-134360000D02*
G75*
G02*
X104700000Y-137560000I0J-1600000D01*
G01*
%TO.C,J4*%
X115830000Y-115655000D02*
X115830000Y-130125000D01*
X117160000Y-131455000D02*
X115830000Y-130125000D01*
X117160000Y-131455000D02*
X134480000Y-131455000D01*
X134480000Y-115655000D02*
X115830000Y-115655000D01*
X134480000Y-115655000D02*
X134480000Y-131455000D01*
%TD*%
M02*
