%TF.GenerationSoftware,KiCad,Pcbnew,5.1.9+dfsg1-1~bpo10+1*%
%TF.CreationDate,2021-10-30T02:36:06+00:00*%
%TF.ProjectId,rack-ser-adapter,7261636b-2d73-4657-922d-616461707465,rev?*%
%TF.SameCoordinates,Original*%
%TF.FileFunction,Soldermask,Top*%
%TF.FilePolarity,Negative*%
%FSLAX46Y46*%
G04 Gerber Fmt 4.6, Leading zero omitted, Abs format (unit mm)*
G04 Created by KiCad (PCBNEW 5.1.9+dfsg1-1~bpo10+1) date 2021-10-30 02:36:06*
%MOMM*%
%LPD*%
G01*
G04 APERTURE LIST*
%ADD10C,2.000000*%
%ADD11C,4.400000*%
%ADD12C,3.650000*%
%ADD13C,3.400000*%
%ADD14C,1.900000*%
%ADD15C,6.100000*%
G04 APERTURE END LIST*
%TO.C,J3*%
G36*
G01*
X104200000Y-128000000D02*
X105800000Y-128000000D01*
G75*
G02*
X106000000Y-128200000I0J-200000D01*
G01*
X106000000Y-129800000D01*
G75*
G02*
X105800000Y-130000000I-200000J0D01*
G01*
X104200000Y-130000000D01*
G75*
G02*
X104000000Y-129800000I0J200000D01*
G01*
X104000000Y-128200000D01*
G75*
G02*
X104200000Y-128000000I200000J0D01*
G01*
G37*
D10*
X105000000Y-126230000D03*
X105000000Y-123460000D03*
X105000000Y-120690000D03*
X105000000Y-117920000D03*
X102160000Y-127615000D03*
X102160000Y-124845000D03*
X102160000Y-122075000D03*
X102160000Y-119305000D03*
D11*
X104700000Y-110960000D03*
X104700000Y-135960000D03*
%TD*%
D12*
%TO.C,J2*%
X126350000Y-81840000D03*
D13*
X129400000Y-79785000D03*
D12*
X126350000Y-93270000D03*
D14*
X120000000Y-89460000D03*
X120000000Y-86920000D03*
X117460000Y-88190000D03*
X120000000Y-84380000D03*
G36*
G01*
X119250000Y-91050000D02*
X120750000Y-91050000D01*
G75*
G02*
X120950000Y-91250000I0J-200000D01*
G01*
X120950000Y-92750000D01*
G75*
G02*
X120750000Y-92950000I-200000J0D01*
G01*
X119250000Y-92950000D01*
G75*
G02*
X119050000Y-92750000I0J200000D01*
G01*
X119050000Y-91250000D01*
G75*
G02*
X119250000Y-91050000I200000J0D01*
G01*
G37*
X117460000Y-90730000D03*
D13*
X129400000Y-95325000D03*
D14*
X117460000Y-83110000D03*
X117460000Y-85650000D03*
%TD*%
D15*
%TO.C,H1*%
X112000000Y-75000000D03*
%TD*%
%TO.C,H2*%
X112000000Y-100000000D03*
%TD*%
%TO.C,J1*%
G36*
G01*
X104200000Y-81000000D02*
X105800000Y-81000000D01*
G75*
G02*
X106000000Y-81200000I0J-200000D01*
G01*
X106000000Y-82800000D01*
G75*
G02*
X105800000Y-83000000I-200000J0D01*
G01*
X104200000Y-83000000D01*
G75*
G02*
X104000000Y-82800000I0J200000D01*
G01*
X104000000Y-81200000D01*
G75*
G02*
X104200000Y-81000000I200000J0D01*
G01*
G37*
D10*
X105000000Y-84770000D03*
X105000000Y-87540000D03*
X105000000Y-90310000D03*
X105000000Y-93080000D03*
X102160000Y-83385000D03*
X102160000Y-86155000D03*
X102160000Y-88925000D03*
X102160000Y-91695000D03*
D11*
X104700000Y-75040000D03*
X104700000Y-100040000D03*
%TD*%
D15*
%TO.C,H3*%
X112000000Y-111000000D03*
%TD*%
%TO.C,H4*%
X112000000Y-136000000D03*
%TD*%
D12*
%TO.C,J4*%
X126350000Y-117840000D03*
D13*
X129400000Y-115785000D03*
D12*
X126350000Y-129270000D03*
D14*
X120000000Y-125460000D03*
X120000000Y-122920000D03*
X117460000Y-124190000D03*
X120000000Y-120380000D03*
G36*
G01*
X119250000Y-127050000D02*
X120750000Y-127050000D01*
G75*
G02*
X120950000Y-127250000I0J-200000D01*
G01*
X120950000Y-128750000D01*
G75*
G02*
X120750000Y-128950000I-200000J0D01*
G01*
X119250000Y-128950000D01*
G75*
G02*
X119050000Y-128750000I0J200000D01*
G01*
X119050000Y-127250000D01*
G75*
G02*
X119250000Y-127050000I200000J0D01*
G01*
G37*
X117460000Y-126730000D03*
D13*
X129400000Y-131325000D03*
D14*
X117460000Y-119110000D03*
X117460000Y-121650000D03*
%TD*%
M02*
