M48
; DRILL file KiCad 10.0.5-unknown-202607221313~667fa36054~ubuntu25.10.1 date 2026-09-15T17:52:50
; FORMAT={-:-/ absolute / inch / decimal}
; #@! TF.CreationDate,2026-09-15T17:52:50+00:00
; #@! TF.GenerationSoftware,Kicad,Pcbnew,10.0.5-unknown-202607221313~667fa36054~ubuntu25.10.1
; #@! TF.FileFunction,Plated,1,4,PTH
FMAT,2
INCH
; #@! TA.AperFunction,Plated,PTH,ViaDrill
T1C0.0118
; #@! TA.AperFunction,Plated,PTH,ComponentDrill
T2C0.0197
; #@! TA.AperFunction,Plated,PTH,ComponentDrill
T3C0.0315
; #@! TA.AperFunction,Plated,PTH,ComponentDrill
T4C0.0350
; #@! TA.AperFunction,Plated,PTH,ComponentDrill
T5C0.0394
; #@! TA.AperFunction,Plated,PTH,ComponentDrill
T6C0.0433
; #@! TA.AperFunction,Plated,PTH,ComponentDrill
T7C0.0453
; #@! TA.AperFunction,Plated,PTH,ComponentDrill
T8C0.0618
; #@! TA.AperFunction,Plated,PTH,ComponentDrill
T9C0.1260
%
G90
G05
T1
X5.876Y-4.5472
X5.9646Y-4.6014
X5.9744Y-4.4587
X6.4256Y-2.6402
X7.1555Y-3.7402
X7.2933Y-3.6417
X7.5689Y-3.9764
X7.6086Y-3.9448
X7.7067Y-3.7992
X7.7431Y-3.5659
X7.7618Y-3.8436
X7.7618Y-3.878
X7.7618Y-3.9173
X7.7657Y-4.5374
X7.7854Y-3.9961
X7.815Y-3.9764
X7.815Y-4.0157
X7.8227Y-4.1641
X7.8445Y-4.0354
X7.8445Y-4.3504
X7.8524Y-4.1535
X7.8543Y-4.4094
X7.8642Y-4.2126
X7.874Y-3.9232
X7.8839Y-4.1535
X7.8976Y-4.0157
X7.9035Y-3.9469
X7.9094Y-4.3504
X7.9094Y-4.4094
X7.9173Y-3.6732
X7.9399Y-3.6486
X7.9783Y-5.3595
X7.9823Y-3.9075
X7.9823Y-3.9665
X7.9882Y-4.0256
X7.9903Y-3.8587
X8.0118Y-4.1634
X8.0748Y-5.2808
X8.0906Y-3.9173
X8.0906Y-3.9488
X8.1201Y-3.9665
X8.1201Y-4.0157
X8.1299Y-3.813
X8.1535Y-3.8662
X8.2283Y-3.1728
X8.2756Y-3.3583
X8.4646Y-4.2913
X8.4646Y-4.3406
X8.5039Y-3.937
X8.5197Y-2.9528
X8.5467Y-2.9326
X8.5472Y-2.5591
X8.5709Y-2.5827
X8.5709Y-2.9528
X8.5979Y-2.9326
X8.5984Y-2.5591
X8.5984Y-4.3652
X8.5984Y-4.4173
X8.5984Y-4.4685
X8.5984Y-4.5197
X8.622Y-2.5827
X8.622Y-2.9528
X8.622Y-3.8287
X8.622Y-4.3907
X8.622Y-4.4409
X8.622Y-4.4921
X8.622Y-4.5433
X8.649Y-2.9326
X8.651Y-2.5604
X8.6732Y-2.5827
X8.6732Y-2.9528
X8.7008Y-2.5591
X8.7008Y-2.9331
X8.7008Y-4.3307
X8.7244Y-2.5827
X8.75Y-2.6969
X8.7992Y-2.6969
X8.8222Y-4.3303
X8.8386Y-2.874
X8.8583Y-4.5669
X9.0157Y-4.311
X9.0551Y-4.311
X9.0945Y-4.311
X9.2421Y-1.3878
X9.3012Y-1.3878
X9.3467Y-1.2992
X9.3701Y-1.4173
X9.421Y-3.0908
X9.423Y-2.9747
X9.439Y-1.4173
X9.4449Y-3.2874
X9.4486Y-3.6927
X9.4488Y-1.6929
X9.4488Y-1.811
X9.4488Y-1.9291
X9.4488Y-2.0472
X9.4488Y-2.1654
X9.4488Y-3.1693
X9.4488Y-3.4055
X9.4488Y-3.6417
X9.4488Y-4.5276
X9.4488Y-4.6457
X9.4488Y-4.7638
X9.4488Y-4.8819
X9.4488Y-5.0
X9.4505Y-3.4545
X9.4567Y-1.3219
X9.5Y-1.2047
X9.5768Y-1.3976
X9.7244Y-1.8701
X9.7244Y-1.9882
X9.7244Y-2.0927
X9.7244Y-4.6002
X9.7244Y-4.7047
X9.7244Y-4.8228
X9.7244Y-4.9274
X9.9134Y-1.7656
T3
X6.8262Y-3.7697
X6.9639Y-3.7697
T4
X10.1033Y-3.2466
X10.1033Y-3.3266
X10.1033Y-3.4066
X10.1033Y-3.4866
X10.1734Y-3.2066
X10.1734Y-3.2866
X10.1734Y-3.3666
X10.1734Y-3.4466
T5
X4.8031Y-1.6402
X4.8031Y-1.7402
X4.8031Y-1.8402
X4.8031Y-1.9402
X4.8031Y-2.0402
X4.8031Y-2.1402
X4.8031Y-2.2402
X4.8031Y-2.3402
X4.8031Y-2.4402
X4.8031Y-2.5402
X4.8031Y-2.6402
X4.8031Y-2.7402
X4.8031Y-2.8402
X4.8031Y-2.9402
X8.5039Y-2.1402
X8.5039Y-2.2402
X8.5039Y-2.3402
X8.5039Y-2.4402
X10.0819Y-1.711
X10.0819Y-1.8201
X10.0819Y-1.9291
X10.0819Y-2.0382
X10.0819Y-2.1472
X10.0915Y-4.5457
X10.0915Y-4.6547
X10.0915Y-4.7638
X10.0915Y-4.8728
X10.0915Y-4.9819
X10.1937Y-1.7656
X10.1937Y-1.8746
X10.1937Y-1.9837
X10.1937Y-2.0927
X10.2033Y-4.6002
X10.2033Y-4.7093
X10.2033Y-4.8183
X10.2033Y-4.9274
T6
X8.8583Y-3.4843
X8.8583Y-3.7402
X9.0354Y-3.4843
X9.0354Y-3.7402
T7
X8.7402Y-5.2953
X8.7402Y-5.4921
X8.937Y-5.2953
X8.937Y-5.4921
T8
X10.1384Y-3.0264
X10.1384Y-3.6665
T9
X4.8425Y-1.3157
X4.8425Y-3.2646
X8.4646Y-1.3157
X8.4646Y-3.2646
X10.1378Y-1.437
X10.1378Y-2.4213
X10.1474Y-4.2717
X10.1474Y-5.2559
T2
G00X9.3169Y-1.0272
M15
G01X9.3169Y-1.0547
M16
G05
G00X9.5768Y-1.0272
M15
G01X9.5768Y-1.0547
M16
G05
M30
