M48
; DRILL file KiCad 10.0.5-unknown-202607221313~667fa36054~ubuntu25.10.1 date 2026-09-01T16:18:02
; FORMAT={-:-/ absolute / metric / decimal}
; #@! TF.CreationDate,2026-09-01T16:18:02+00:00
; #@! TF.GenerationSoftware,Kicad,Pcbnew,10.0.5-unknown-202607221313~667fa36054~ubuntu25.10.1
; #@! TF.FileFunction,MixedPlating,1,2
FMAT,2
METRIC
; #@! TA.AperFunction,Plated,PTH,ComponentDrill
T1C0.900
; #@! TA.AperFunction,Plated,PTH,ComponentDrill
T2C1.000
; #@! TA.AperFunction,Plated,PTH,ComponentDrill
T3C1.600
; #@! TA.AperFunction,Plated,PTH,ComponentDrill
T4C3.200
; #@! TA.AperFunction,NonPlated,NPTH,ComponentDrill
T5C3.250
%
G90
G05
T1
X117.46Y-83.11
X117.46Y-85.65
X117.46Y-88.19
X117.46Y-90.73
X117.46Y-119.11
X117.46Y-121.65
X117.46Y-124.19
X117.46Y-126.73
X120.0Y-84.38
X120.0Y-86.92
X120.0Y-89.46
X120.0Y-92.0
X120.0Y-120.38
X120.0Y-122.92
X120.0Y-125.46
X120.0Y-128.0
T2
X102.16Y-83.305
X102.16Y-86.075
X102.16Y-88.845
X102.16Y-91.615
X102.16Y-119.385
X102.16Y-122.155
X102.16Y-124.925
X102.16Y-127.695
X105.0Y-81.92
X105.0Y-84.69
X105.0Y-87.46
X105.0Y-90.23
X105.0Y-93.0
X105.0Y-118.0
X105.0Y-120.77
X105.0Y-123.54
X105.0Y-126.31
X105.0Y-129.08
T3
X129.4Y-79.785
X129.4Y-95.325
X129.4Y-115.785
X129.4Y-131.325
T4
X104.7Y-74.96
X104.7Y-99.96
X104.7Y-111.04
X104.7Y-136.04
X112.0Y-75.0
X112.0Y-100.0
X112.0Y-111.0
X112.0Y-136.0
T5
X126.35Y-81.84
X126.35Y-93.27
X126.35Y-117.84
X126.35Y-129.27
M30
