G04 #@! TF.GenerationSoftware,KiCad,Pcbnew,10.0.5-unknown-202607221313~667fa36054~ubuntu25.10.1*
G04 #@! TF.CreationDate,2026-09-01T15:53:58+00:00*
G04 #@! TF.ProjectId,rack-ser-adapter-inv,7261636b-2d73-4657-922d-616461707465,rev?*
G04 #@! TF.SameCoordinates,Original*
G04 #@! TF.FileFunction,Copper,L1,Top*
G04 #@! TF.FilePolarity,Positive*
%FSLAX46Y46*%
G04 Gerber Fmt 4.6, Leading zero omitted, Abs format (unit mm)*
G04 Created by KiCad (PCBNEW 10.0.5-unknown-202607221313~667fa36054~ubuntu25.10.1) date 2026-09-01 15:53:58*
%MOMM*%
%LPD*%
G01*
G04 APERTURE LIST*
%ADD10C,0.300000*%
G04 #@! TA.AperFunction,NonConductor*
%ADD11C,0.300000*%
G04 #@! TD*
G04 #@! TA.AperFunction,ComponentPad*
%ADD12R,1.500000X1.500000*%
G04 #@! TD*
G04 #@! TA.AperFunction,ComponentPad*
%ADD13C,1.500000*%
G04 #@! TD*
G04 #@! TA.AperFunction,ComponentPad*
%ADD14C,3.000000*%
G04 #@! TD*
G04 #@! TA.AperFunction,ComponentPad*
%ADD15C,5.700000*%
G04 #@! TD*
G04 #@! TA.AperFunction,ComponentPad*
%ADD16R,1.600000X1.600000*%
G04 #@! TD*
G04 #@! TA.AperFunction,ComponentPad*
%ADD17C,1.600000*%
G04 #@! TD*
G04 #@! TA.AperFunction,ComponentPad*
%ADD18C,4.000000*%
G04 #@! TD*
G04 #@! TA.AperFunction,Conductor*
%ADD19C,0.200000*%
G04 #@! TD*
G04 APERTURE END LIST*
D10*
D11*
X115207143Y-132485156D02*
X115707143Y-132485156D01*
X115921429Y-133270870D02*
X115207143Y-133270870D01*
X115207143Y-133270870D02*
X115207143Y-131770870D01*
X115207143Y-131770870D02*
X115921429Y-131770870D01*
X116564286Y-133270870D02*
X116564286Y-131770870D01*
X117207144Y-132842299D02*
X117921430Y-132842299D01*
X117064287Y-133270870D02*
X117564287Y-131770870D01*
X117564287Y-131770870D02*
X118064287Y-133270870D01*
X118564286Y-132699442D02*
X119707144Y-132699442D01*
X121135715Y-131770870D02*
X120421429Y-131770870D01*
X120421429Y-131770870D02*
X120350001Y-132485156D01*
X120350001Y-132485156D02*
X120421429Y-132413727D01*
X120421429Y-132413727D02*
X120564287Y-132342299D01*
X120564287Y-132342299D02*
X120921429Y-132342299D01*
X120921429Y-132342299D02*
X121064287Y-132413727D01*
X121064287Y-132413727D02*
X121135715Y-132485156D01*
X121135715Y-132485156D02*
X121207144Y-132628013D01*
X121207144Y-132628013D02*
X121207144Y-132985156D01*
X121207144Y-132985156D02*
X121135715Y-133128013D01*
X121135715Y-133128013D02*
X121064287Y-133199442D01*
X121064287Y-133199442D02*
X120921429Y-133270870D01*
X120921429Y-133270870D02*
X120564287Y-133270870D01*
X120564287Y-133270870D02*
X120421429Y-133199442D01*
X120421429Y-133199442D02*
X120350001Y-133128013D01*
X122492858Y-131770870D02*
X122207143Y-131770870D01*
X122207143Y-131770870D02*
X122064286Y-131842299D01*
X122064286Y-131842299D02*
X121992858Y-131913727D01*
X121992858Y-131913727D02*
X121850000Y-132128013D01*
X121850000Y-132128013D02*
X121778572Y-132413727D01*
X121778572Y-132413727D02*
X121778572Y-132985156D01*
X121778572Y-132985156D02*
X121850000Y-133128013D01*
X121850000Y-133128013D02*
X121921429Y-133199442D01*
X121921429Y-133199442D02*
X122064286Y-133270870D01*
X122064286Y-133270870D02*
X122350000Y-133270870D01*
X122350000Y-133270870D02*
X122492858Y-133199442D01*
X122492858Y-133199442D02*
X122564286Y-133128013D01*
X122564286Y-133128013D02*
X122635715Y-132985156D01*
X122635715Y-132985156D02*
X122635715Y-132628013D01*
X122635715Y-132628013D02*
X122564286Y-132485156D01*
X122564286Y-132485156D02*
X122492858Y-132413727D01*
X122492858Y-132413727D02*
X122350000Y-132342299D01*
X122350000Y-132342299D02*
X122064286Y-132342299D01*
X122064286Y-132342299D02*
X121921429Y-132413727D01*
X121921429Y-132413727D02*
X121850000Y-132485156D01*
X121850000Y-132485156D02*
X121778572Y-132628013D01*
X124064286Y-133270870D02*
X123207143Y-133270870D01*
X123635714Y-133270870D02*
X123635714Y-131770870D01*
X123635714Y-131770870D02*
X123492857Y-131985156D01*
X123492857Y-131985156D02*
X123350000Y-132128013D01*
X123350000Y-132128013D02*
X123207143Y-132199442D01*
X116349999Y-135685786D02*
X116349999Y-134185786D01*
X116349999Y-134185786D02*
X117207142Y-135685786D01*
X117207142Y-135685786D02*
X117207142Y-134185786D01*
X118564286Y-134685786D02*
X118564286Y-135685786D01*
X117921428Y-134685786D02*
X117921428Y-135471500D01*
X117921428Y-135471500D02*
X117992857Y-135614358D01*
X117992857Y-135614358D02*
X118135714Y-135685786D01*
X118135714Y-135685786D02*
X118350000Y-135685786D01*
X118350000Y-135685786D02*
X118492857Y-135614358D01*
X118492857Y-135614358D02*
X118564286Y-135542929D01*
X119492857Y-135685786D02*
X119350000Y-135614358D01*
X119350000Y-135614358D02*
X119278571Y-135471500D01*
X119278571Y-135471500D02*
X119278571Y-134185786D01*
X120278571Y-135685786D02*
X120135714Y-135614358D01*
X120135714Y-135614358D02*
X120064285Y-135471500D01*
X120064285Y-135471500D02*
X120064285Y-134185786D01*
X120849999Y-135685786D02*
X120849999Y-134685786D01*
X120849999Y-134828643D02*
X120921428Y-134757215D01*
X120921428Y-134757215D02*
X121064285Y-134685786D01*
X121064285Y-134685786D02*
X121278571Y-134685786D01*
X121278571Y-134685786D02*
X121421428Y-134757215D01*
X121421428Y-134757215D02*
X121492857Y-134900072D01*
X121492857Y-134900072D02*
X121492857Y-135685786D01*
X121492857Y-134900072D02*
X121564285Y-134757215D01*
X121564285Y-134757215D02*
X121707142Y-134685786D01*
X121707142Y-134685786D02*
X121921428Y-134685786D01*
X121921428Y-134685786D02*
X122064285Y-134757215D01*
X122064285Y-134757215D02*
X122135714Y-134900072D01*
X122135714Y-134900072D02*
X122135714Y-135685786D01*
X122849999Y-135542929D02*
X122921428Y-135614358D01*
X122921428Y-135614358D02*
X122849999Y-135685786D01*
X122849999Y-135685786D02*
X122778571Y-135614358D01*
X122778571Y-135614358D02*
X122849999Y-135542929D01*
X122849999Y-135542929D02*
X122849999Y-135685786D01*
D10*
D11*
X115607143Y-96685156D02*
X116107143Y-96685156D01*
X116321429Y-97470870D02*
X115607143Y-97470870D01*
X115607143Y-97470870D02*
X115607143Y-95970870D01*
X115607143Y-95970870D02*
X116321429Y-95970870D01*
X116964286Y-97470870D02*
X116964286Y-95970870D01*
X117607144Y-97042299D02*
X118321430Y-97042299D01*
X117464287Y-97470870D02*
X117964287Y-95970870D01*
X117964287Y-95970870D02*
X118464287Y-97470870D01*
X118964286Y-96899442D02*
X120107144Y-96899442D01*
X121535715Y-95970870D02*
X120821429Y-95970870D01*
X120821429Y-95970870D02*
X120750001Y-96685156D01*
X120750001Y-96685156D02*
X120821429Y-96613727D01*
X120821429Y-96613727D02*
X120964287Y-96542299D01*
X120964287Y-96542299D02*
X121321429Y-96542299D01*
X121321429Y-96542299D02*
X121464287Y-96613727D01*
X121464287Y-96613727D02*
X121535715Y-96685156D01*
X121535715Y-96685156D02*
X121607144Y-96828013D01*
X121607144Y-96828013D02*
X121607144Y-97185156D01*
X121607144Y-97185156D02*
X121535715Y-97328013D01*
X121535715Y-97328013D02*
X121464287Y-97399442D01*
X121464287Y-97399442D02*
X121321429Y-97470870D01*
X121321429Y-97470870D02*
X120964287Y-97470870D01*
X120964287Y-97470870D02*
X120821429Y-97399442D01*
X120821429Y-97399442D02*
X120750001Y-97328013D01*
X122892858Y-95970870D02*
X122607143Y-95970870D01*
X122607143Y-95970870D02*
X122464286Y-96042299D01*
X122464286Y-96042299D02*
X122392858Y-96113727D01*
X122392858Y-96113727D02*
X122250000Y-96328013D01*
X122250000Y-96328013D02*
X122178572Y-96613727D01*
X122178572Y-96613727D02*
X122178572Y-97185156D01*
X122178572Y-97185156D02*
X122250000Y-97328013D01*
X122250000Y-97328013D02*
X122321429Y-97399442D01*
X122321429Y-97399442D02*
X122464286Y-97470870D01*
X122464286Y-97470870D02*
X122750000Y-97470870D01*
X122750000Y-97470870D02*
X122892858Y-97399442D01*
X122892858Y-97399442D02*
X122964286Y-97328013D01*
X122964286Y-97328013D02*
X123035715Y-97185156D01*
X123035715Y-97185156D02*
X123035715Y-96828013D01*
X123035715Y-96828013D02*
X122964286Y-96685156D01*
X122964286Y-96685156D02*
X122892858Y-96613727D01*
X122892858Y-96613727D02*
X122750000Y-96542299D01*
X122750000Y-96542299D02*
X122464286Y-96542299D01*
X122464286Y-96542299D02*
X122321429Y-96613727D01*
X122321429Y-96613727D02*
X122250000Y-96685156D01*
X122250000Y-96685156D02*
X122178572Y-96828013D01*
X124464286Y-97470870D02*
X123607143Y-97470870D01*
X124035714Y-97470870D02*
X124035714Y-95970870D01*
X124035714Y-95970870D02*
X123892857Y-96185156D01*
X123892857Y-96185156D02*
X123750000Y-96328013D01*
X123750000Y-96328013D02*
X123607143Y-96399442D01*
X119357143Y-99885786D02*
X118500000Y-99885786D01*
X118928571Y-99885786D02*
X118928571Y-98385786D01*
X118928571Y-98385786D02*
X118785714Y-98600072D01*
X118785714Y-98600072D02*
X118642857Y-98742929D01*
X118642857Y-98742929D02*
X118500000Y-98814358D01*
X119999999Y-99742929D02*
X120071428Y-99814358D01*
X120071428Y-99814358D02*
X119999999Y-99885786D01*
X119999999Y-99885786D02*
X119928571Y-99814358D01*
X119928571Y-99814358D02*
X119999999Y-99742929D01*
X119999999Y-99742929D02*
X119999999Y-99885786D01*
X119999999Y-98957215D02*
X120071428Y-99028643D01*
X120071428Y-99028643D02*
X119999999Y-99100072D01*
X119999999Y-99100072D02*
X119928571Y-99028643D01*
X119928571Y-99028643D02*
X119999999Y-98957215D01*
X119999999Y-98957215D02*
X119999999Y-99100072D01*
X121500000Y-99885786D02*
X120642857Y-99885786D01*
X121071428Y-99885786D02*
X121071428Y-98385786D01*
X121071428Y-98385786D02*
X120928571Y-98600072D01*
X120928571Y-98600072D02*
X120785714Y-98742929D01*
X120785714Y-98742929D02*
X120642857Y-98814358D01*
D12*
X120000000Y-92000000D03*
D13*
X117460000Y-90730000D03*
X120000000Y-89460000D03*
X117460000Y-88190000D03*
X120000000Y-86920000D03*
X117460000Y-85650000D03*
X120000000Y-84380000D03*
X117460000Y-83110000D03*
D14*
X129400000Y-95325000D03*
X129400000Y-79785000D03*
D15*
X112000000Y-75000000D03*
D16*
X105000000Y-93000000D03*
D17*
X105000000Y-90230000D03*
X105000000Y-87460000D03*
X105000000Y-84690000D03*
X105000000Y-81920000D03*
X102160000Y-91615000D03*
X102160000Y-88845000D03*
X102160000Y-86075000D03*
X102160000Y-83305000D03*
D18*
X104700000Y-74960000D03*
X104700000Y-99960000D03*
D15*
X112000000Y-100000000D03*
X112000000Y-136000000D03*
D16*
X105000000Y-118000000D03*
D17*
X105000000Y-120770000D03*
X105000000Y-123540000D03*
X105000000Y-126310000D03*
X105000000Y-129080000D03*
X102160000Y-119385000D03*
X102160000Y-122155000D03*
X102160000Y-124925000D03*
X102160000Y-127695000D03*
D18*
X104700000Y-111040000D03*
X104700000Y-136040000D03*
D12*
X120000000Y-128000000D03*
D13*
X117460000Y-126730000D03*
X120000000Y-125460000D03*
X117460000Y-124190000D03*
X120000000Y-122920000D03*
X117460000Y-121650000D03*
X120000000Y-120380000D03*
X117460000Y-119110000D03*
D14*
X129400000Y-131325000D03*
X129400000Y-115785000D03*
D15*
X112000000Y-111000000D03*
D19*
X109150874Y-92111842D02*
X109270874Y-92111842D01*
X108310874Y-92351842D02*
X108310874Y-93000000D01*
X108910874Y-93000000D02*
X108910874Y-92351842D01*
X109510874Y-93240000D02*
X109510874Y-93648183D01*
X108550874Y-93888158D02*
X108670874Y-93888158D01*
X115190000Y-93000000D02*
X117460000Y-90730000D01*
X107710874Y-93000000D02*
X107710874Y-92351842D01*
X108310874Y-93000000D02*
X108310874Y-93648158D01*
X110350874Y-93000000D02*
X110470874Y-93000000D01*
X108910874Y-93648158D02*
X108910874Y-93000000D01*
X109510874Y-93000000D02*
X109510874Y-93240000D01*
X110470874Y-93000000D02*
X113843315Y-93000000D01*
X107710874Y-93648158D02*
X107710874Y-93240000D01*
X109750874Y-93888183D02*
X109870874Y-93888183D01*
X113843315Y-93000000D02*
X115190000Y-93000000D01*
X107110874Y-93240000D02*
X107110874Y-93648158D01*
X109510874Y-92351842D02*
X109510874Y-93000000D01*
X107710874Y-93240000D02*
X107710874Y-93000000D01*
X107350874Y-93888158D02*
X107470874Y-93888158D01*
X110110874Y-93648183D02*
X110110874Y-93240000D01*
X107950874Y-92111842D02*
X108070874Y-92111842D01*
X105000000Y-93000000D02*
X106870874Y-93000000D01*
X108910874Y-92351842D02*
G75*
G02*
X109150874Y-92111774I240026J42D01*
G01*
X107470874Y-93888158D02*
G75*
G03*
X107710858Y-93648158I26J239958D01*
G01*
X107710874Y-92351842D02*
G75*
G02*
X107950874Y-92111774I240026J42D01*
G01*
X108070874Y-92111842D02*
G75*
G02*
X108310858Y-92351842I26J-239958D01*
G01*
X109270874Y-92111842D02*
G75*
G02*
X109510858Y-92351842I26J-239958D01*
G01*
X109510874Y-93648183D02*
G75*
G03*
X109750874Y-93888226I240026J-17D01*
G01*
X110110874Y-93240000D02*
G75*
G02*
X110350874Y-92999974I240026J0D01*
G01*
X107110874Y-93648158D02*
G75*
G03*
X107350874Y-93888226I240026J-42D01*
G01*
X108670874Y-93888158D02*
G75*
G03*
X108910858Y-93648158I26J239958D01*
G01*
X108310874Y-93648158D02*
G75*
G03*
X108550874Y-93888226I240026J-42D01*
G01*
X109870874Y-93888183D02*
G75*
G03*
X110110883Y-93648183I26J239983D01*
G01*
X106870874Y-93000000D02*
G75*
G02*
X107110900Y-93240000I26J-240000D01*
G01*
X108719993Y-90230000D02*
X108839993Y-90230000D01*
X107519993Y-89313497D02*
X107639993Y-89313497D01*
X108119993Y-91146527D02*
X108239993Y-91146527D01*
X108839993Y-90230000D02*
X112511501Y-90230000D01*
X106919993Y-91146527D02*
X107039993Y-91146527D01*
X112511501Y-90230000D02*
X113935075Y-90230000D01*
X107279993Y-90470000D02*
X107279993Y-90230000D01*
X107879993Y-89553497D02*
X107879993Y-90230000D01*
X107879993Y-90470000D02*
X107879993Y-90906527D01*
X117245075Y-86920000D02*
X120000000Y-86920000D01*
X106679993Y-90470000D02*
X106679993Y-90906527D01*
X108479993Y-90906527D02*
X108479993Y-90470000D01*
X107279993Y-90906527D02*
X107279993Y-90470000D01*
X107279993Y-90230000D02*
X107279993Y-89553497D01*
X105000000Y-90230000D02*
X106439993Y-90230000D01*
X113935075Y-90230000D02*
X117245075Y-86920000D01*
X107879993Y-90230000D02*
X107879993Y-90470000D01*
X107639993Y-89313497D02*
G75*
G02*
X107880003Y-89553497I7J-240003D01*
G01*
X107279993Y-89553497D02*
G75*
G02*
X107519993Y-89313493I240007J-3D01*
G01*
X108239993Y-91146527D02*
G75*
G03*
X108480027Y-90906527I7J240027D01*
G01*
X106679993Y-90906527D02*
G75*
G03*
X106919993Y-91146507I240007J27D01*
G01*
X106439993Y-90230000D02*
G75*
G02*
X106680000Y-90470000I7J-240000D01*
G01*
X107879993Y-90906527D02*
G75*
G03*
X108119993Y-91146507I240007J27D01*
G01*
X108479993Y-90470000D02*
G75*
G02*
X108719993Y-90229993I240007J0D01*
G01*
X107039993Y-91146527D02*
G75*
G03*
X107280027Y-90906527I7J240027D01*
G01*
X107958335Y-87700000D02*
X107958335Y-88094755D01*
X112518335Y-87460000D02*
X115566840Y-87460000D01*
X112158335Y-88094755D02*
X112158335Y-87700000D01*
X115650000Y-87460000D02*
X117460000Y-85650000D01*
X106998335Y-88334755D02*
X107118335Y-88334755D01*
X111558335Y-87700000D02*
X111558335Y-88094755D01*
X111558335Y-87125252D02*
X111558335Y-87460000D01*
X108198335Y-88334755D02*
X108318335Y-88334755D01*
X110958335Y-88094751D02*
X110958335Y-87700000D01*
X110958335Y-87460000D02*
X110958335Y-87125252D01*
X110598335Y-88334751D02*
X110718335Y-88334751D01*
X108558335Y-88094755D02*
X108558335Y-87700000D01*
X112398335Y-87460000D02*
X112518335Y-87460000D01*
X107358335Y-88094755D02*
X107358335Y-87700000D01*
X109998335Y-87460000D02*
X110118335Y-87460000D01*
X111798335Y-88334755D02*
X111918335Y-88334755D01*
X110358335Y-87700000D02*
X110358335Y-88094751D01*
X110958335Y-87700000D02*
X110958335Y-87460000D01*
X111558335Y-87460000D02*
X111558335Y-87700000D01*
X115566840Y-87460000D02*
X115650000Y-87460000D01*
X105000000Y-87460000D02*
X106518335Y-87460000D01*
X108798335Y-87460000D02*
X108918335Y-87460000D01*
X106758335Y-87700000D02*
X106758335Y-88094755D01*
X109758335Y-88094755D02*
X109758335Y-87700000D01*
X107598335Y-87460000D02*
X107718335Y-87460000D01*
X111198335Y-86885252D02*
X111318335Y-86885252D01*
X109398335Y-88334755D02*
X109518335Y-88334755D01*
X109158335Y-87700000D02*
X109158335Y-88094755D01*
X111918335Y-88334755D02*
G75*
G03*
X112158255Y-88094755I-35J239955D01*
G01*
X108558335Y-87700000D02*
G75*
G02*
X108798335Y-87460035I239965J0D01*
G01*
X110118335Y-87460000D02*
G75*
G02*
X110358300Y-87700000I-35J-240000D01*
G01*
X109158335Y-88094755D02*
G75*
G03*
X109398335Y-88334765I239965J-45D01*
G01*
X107958335Y-88094755D02*
G75*
G03*
X108198335Y-88334765I239965J-45D01*
G01*
X111318335Y-86885252D02*
G75*
G02*
X111558348Y-87125252I-35J-240048D01*
G01*
X109518335Y-88334755D02*
G75*
G03*
X109758255Y-88094755I-35J239955D01*
G01*
X110718335Y-88334751D02*
G75*
G03*
X110958251Y-88094751I-35J239951D01*
G01*
X110358335Y-88094751D02*
G75*
G03*
X110598335Y-88334765I239965J-49D01*
G01*
X106758335Y-88094755D02*
G75*
G03*
X106998335Y-88334765I239965J-45D01*
G01*
X111558335Y-88094755D02*
G75*
G03*
X111798335Y-88334765I239965J-45D01*
G01*
X108318335Y-88334755D02*
G75*
G03*
X108558255Y-88094755I-35J239955D01*
G01*
X107718335Y-87460000D02*
G75*
G02*
X107958300Y-87700000I-35J-240000D01*
G01*
X108918335Y-87460000D02*
G75*
G02*
X109158300Y-87700000I-35J-240000D01*
G01*
X107118335Y-88334755D02*
G75*
G03*
X107358255Y-88094755I-35J239955D01*
G01*
X110958335Y-87125252D02*
G75*
G02*
X111198335Y-86885335I239965J-48D01*
G01*
X106518335Y-87460000D02*
G75*
G02*
X106758300Y-87700000I-35J-240000D01*
G01*
X107358335Y-87700000D02*
G75*
G02*
X107598335Y-87460035I239965J0D01*
G01*
X112158335Y-87700000D02*
G75*
G02*
X112398335Y-87460035I239965J0D01*
G01*
X109758335Y-87700000D02*
G75*
G02*
X109998335Y-87460035I239965J0D01*
G01*
X105264862Y-85960000D02*
X105930769Y-85960000D01*
X102160000Y-86075000D02*
X102275000Y-85960000D01*
X117025075Y-82060000D02*
X113125076Y-85960000D01*
X102275000Y-85960000D02*
X105264862Y-85960000D01*
X113125076Y-85960000D02*
X106126624Y-85960000D01*
X120000000Y-83319340D02*
X118740660Y-82060000D01*
X120000000Y-84380000D02*
X120000000Y-83319340D01*
X118740660Y-82060000D02*
X117025075Y-82060000D01*
X106126624Y-85960000D02*
X105930769Y-85960000D01*
X109418230Y-86600000D02*
X109418230Y-86802588D01*
X108458230Y-87042604D02*
X108578230Y-87042604D01*
X107858230Y-86360000D02*
X107978230Y-86360000D01*
X114210000Y-86360000D02*
X114669619Y-85900380D01*
X116336867Y-84233133D02*
X117460000Y-83110000D01*
X104544365Y-86360000D02*
X105578230Y-86360000D01*
X107018230Y-86600000D02*
X107018230Y-86802604D01*
X107258230Y-87042604D02*
X107378230Y-87042604D01*
X109658230Y-87042588D02*
X109778230Y-87042588D01*
X110378230Y-86360000D02*
X114210000Y-86360000D01*
X105818230Y-86600000D02*
X105818230Y-86602603D01*
X109058230Y-86360000D02*
X109178230Y-86360000D01*
X107618230Y-86802604D02*
X107618230Y-86600000D01*
X110018230Y-86802588D02*
X110018230Y-86600000D01*
X106658230Y-86360000D02*
X106778230Y-86360000D01*
X102160000Y-88744365D02*
X104544365Y-86360000D01*
X106058230Y-86842603D02*
X106178230Y-86842603D01*
X108218230Y-86600000D02*
X108218230Y-86802604D01*
X110258230Y-86360000D02*
X110378230Y-86360000D01*
X108818230Y-86802604D02*
X108818230Y-86600000D01*
X114669619Y-85900380D02*
X116336867Y-84233133D01*
X106418230Y-86602603D02*
X106418230Y-86600000D01*
X108218230Y-86802604D02*
G75*
G03*
X108458230Y-87042570I239970J4D01*
G01*
X108578230Y-87042604D02*
G75*
G03*
X108818204Y-86802604I-30J240004D01*
G01*
X109418230Y-86802588D02*
G75*
G03*
X109658230Y-87042570I239970J-12D01*
G01*
X108818230Y-86600000D02*
G75*
G02*
X109058230Y-86360030I239970J0D01*
G01*
X107378230Y-87042604D02*
G75*
G03*
X107618204Y-86802604I-30J240004D01*
G01*
X110018230Y-86600000D02*
G75*
G02*
X110258230Y-86360030I239970J0D01*
G01*
X106778230Y-86360000D02*
G75*
G02*
X107018200Y-86600000I-30J-240000D01*
G01*
X105818230Y-86602603D02*
G75*
G03*
X106058230Y-86842570I239970J3D01*
G01*
X109178230Y-86360000D02*
G75*
G02*
X109418200Y-86600000I-30J-240000D01*
G01*
X109778230Y-87042588D02*
G75*
G03*
X110018188Y-86802588I-30J239988D01*
G01*
X107618230Y-86600000D02*
G75*
G02*
X107858230Y-86360030I239970J0D01*
G01*
X105578230Y-86360000D02*
G75*
G02*
X105818200Y-86600000I-30J-240000D01*
G01*
X107018230Y-86802604D02*
G75*
G03*
X107258230Y-87042570I239970J4D01*
G01*
X106178230Y-86842603D02*
G75*
G03*
X106418203Y-86602603I-30J240003D01*
G01*
X106418230Y-86600000D02*
G75*
G02*
X106658230Y-86360030I239970J0D01*
G01*
X107978230Y-86360000D02*
G75*
G02*
X108218200Y-86600000I-30J-240000D01*
G01*
X121050000Y-124410000D02*
X120000000Y-125460000D01*
X102160000Y-119385000D02*
X103615000Y-119385000D01*
X119104925Y-118000000D02*
X121050000Y-119945075D01*
X103615000Y-119385000D02*
X105000000Y-118000000D01*
X121050000Y-119945075D02*
X121050000Y-124410000D01*
X105000000Y-118000000D02*
X119104925Y-118000000D01*
X114980571Y-121650000D02*
X117460000Y-121650000D01*
X108778336Y-121650000D02*
X108778336Y-120973594D01*
X105000000Y-120770000D02*
X105880000Y-121650000D01*
X106978336Y-121890000D02*
X106978336Y-122176407D01*
X109378336Y-120973594D02*
X109378336Y-121650000D01*
X109018336Y-120733594D02*
X109138336Y-120733594D01*
X110578336Y-121650000D02*
X110578336Y-121890000D01*
X107218336Y-122416407D02*
X107338336Y-122416407D01*
X109618336Y-122416387D02*
X109738336Y-122416387D01*
X105880000Y-121650000D02*
X106738336Y-121650000D01*
X107578336Y-121650000D02*
X107578336Y-120973594D01*
X108778336Y-122176407D02*
X108778336Y-121650000D01*
X109378336Y-121650000D02*
X109378336Y-122176387D01*
X110818336Y-122416407D02*
X110938336Y-122416407D01*
X107578336Y-121890000D02*
X107578336Y-121650000D01*
X110218336Y-120733619D02*
X110338336Y-120733619D01*
X111538336Y-121650000D02*
X114980571Y-121650000D01*
X107578336Y-122176407D02*
X107578336Y-121890000D01*
X108178336Y-121650000D02*
X108178336Y-122176407D01*
X110578336Y-121890000D02*
X110578336Y-122176407D01*
X109978336Y-121650000D02*
X109978336Y-120973619D01*
X108178336Y-120973594D02*
X108178336Y-121650000D01*
X107818336Y-120733594D02*
X107938336Y-120733594D01*
X108418336Y-122416407D02*
X108538336Y-122416407D01*
X110578336Y-120973619D02*
X110578336Y-121650000D01*
X109978336Y-122176387D02*
X109978336Y-121650000D01*
X111178336Y-122176407D02*
X111178336Y-121890000D01*
X111418336Y-121650000D02*
X111538336Y-121650000D01*
X108178336Y-122176407D02*
G75*
G03*
X108418336Y-122416364I239964J7D01*
G01*
X107338336Y-122416407D02*
G75*
G03*
X107578307Y-122176407I-36J240007D01*
G01*
X107938336Y-120733594D02*
G75*
G02*
X108178306Y-120973594I-36J-240006D01*
G01*
X110938336Y-122416407D02*
G75*
G03*
X111178307Y-122176407I-36J240007D01*
G01*
X109978336Y-120973619D02*
G75*
G02*
X110218336Y-120733636I239964J19D01*
G01*
X107578336Y-120973594D02*
G75*
G02*
X107818336Y-120733636I239964J-6D01*
G01*
X110338336Y-120733619D02*
G75*
G02*
X110578281Y-120973619I-36J-239981D01*
G01*
X110578336Y-122176407D02*
G75*
G03*
X110818336Y-122416364I239964J7D01*
G01*
X109378336Y-122176387D02*
G75*
G03*
X109618336Y-122416364I239964J-13D01*
G01*
X109138336Y-120733594D02*
G75*
G02*
X109378306Y-120973594I-36J-240006D01*
G01*
X106978336Y-122176407D02*
G75*
G03*
X107218336Y-122416364I239964J7D01*
G01*
X111178336Y-121890000D02*
G75*
G02*
X111418336Y-121650036I239964J0D01*
G01*
X108778336Y-120973594D02*
G75*
G02*
X109018336Y-120733636I239964J-6D01*
G01*
X108538336Y-122416407D02*
G75*
G03*
X108778307Y-122176407I-36J240007D01*
G01*
X106738336Y-121650000D02*
G75*
G02*
X106978300Y-121890000I-36J-240000D01*
G01*
X109738336Y-122416387D02*
G75*
G03*
X109978287Y-122176387I-36J239987D01*
G01*
X118163217Y-122920000D02*
X120000000Y-122920000D01*
X109397611Y-123890312D02*
X109517611Y-123890312D01*
X105000000Y-123540000D02*
X105620000Y-122920000D01*
X105620000Y-122920000D02*
X107717611Y-122920000D01*
X111557611Y-123160000D02*
X111557611Y-123650312D01*
X108797611Y-122920000D02*
X108917611Y-122920000D01*
X112157611Y-123650312D02*
X112157611Y-123160000D01*
X111797611Y-123890312D02*
X111917611Y-123890312D01*
X109757611Y-123650312D02*
X109757611Y-123160000D01*
X107957611Y-123160000D02*
X107957611Y-123650312D01*
X112397611Y-122099717D02*
X112517611Y-122099717D01*
X109157611Y-123160000D02*
X109157611Y-123650312D01*
X112157611Y-123160000D02*
X112157611Y-122680000D01*
X108557611Y-123650312D02*
X108557611Y-123160000D01*
X108197611Y-123890312D02*
X108317611Y-123890312D01*
X112157611Y-122680000D02*
X112157611Y-122339717D01*
X111197611Y-122920000D02*
X111317611Y-122920000D01*
X110957611Y-123650287D02*
X110957611Y-123160000D01*
X110357611Y-123160000D02*
X110357611Y-123650287D01*
X112757611Y-122339717D02*
X112757611Y-122680000D01*
X112997611Y-122920000D02*
X113117611Y-122920000D01*
X110597611Y-123890287D02*
X110717611Y-123890287D01*
X113117611Y-122920000D02*
X118163217Y-122920000D01*
X109997611Y-122920000D02*
X110117611Y-122920000D01*
X110117611Y-122920000D02*
G75*
G02*
X110357600Y-123160000I-11J-240000D01*
G01*
X110717611Y-123890287D02*
G75*
G03*
X110957587Y-123650287I-11J239987D01*
G01*
X110957611Y-123160000D02*
G75*
G02*
X111197611Y-122920011I239989J0D01*
G01*
X108917611Y-122920000D02*
G75*
G02*
X109157600Y-123160000I-11J-240000D01*
G01*
X112757611Y-122680000D02*
G75*
G03*
X112997611Y-122919989I239989J0D01*
G01*
X109157611Y-123650312D02*
G75*
G03*
X109397611Y-123890289I239989J12D01*
G01*
X111317611Y-122920000D02*
G75*
G02*
X111557600Y-123160000I-11J-240000D01*
G01*
X112157611Y-122339717D02*
G75*
G02*
X112397611Y-122099711I239989J17D01*
G01*
X107957611Y-123650312D02*
G75*
G03*
X108197611Y-123890289I239989J12D01*
G01*
X110357611Y-123650287D02*
G75*
G03*
X110597611Y-123890289I239989J-13D01*
G01*
X108317611Y-123890312D02*
G75*
G03*
X108557612Y-123650312I-11J240012D01*
G01*
X107717611Y-122920000D02*
G75*
G02*
X107957600Y-123160000I-11J-240000D01*
G01*
X108557611Y-123160000D02*
G75*
G02*
X108797611Y-122920011I239989J0D01*
G01*
X109517611Y-123890312D02*
G75*
G03*
X109757612Y-123650312I-11J240012D01*
G01*
X112517611Y-122099717D02*
G75*
G02*
X112757583Y-122339717I-11J-239983D01*
G01*
X109757611Y-123160000D02*
G75*
G02*
X109997611Y-122920011I239989J0D01*
G01*
X111917611Y-123890312D02*
G75*
G03*
X112157612Y-123650312I-11J240012D01*
G01*
X111557611Y-123650312D02*
G75*
G03*
X111797611Y-123890289I239989J12D01*
G01*
X110738441Y-125663258D02*
X110738441Y-126310000D01*
X108938441Y-126310000D02*
X108938441Y-125663258D01*
X112178441Y-127196718D02*
X112298441Y-127196718D01*
X110378441Y-125423258D02*
X110498441Y-125423258D01*
X112898441Y-126310000D02*
X116095857Y-126310000D01*
X109538441Y-126310000D02*
X109538441Y-126956718D01*
X110138441Y-126956718D02*
X110138441Y-126310000D01*
X108938441Y-126956742D02*
X108938441Y-126550000D01*
X111938441Y-126550000D02*
X111938441Y-126956718D01*
X111338441Y-126310000D02*
X111338441Y-125663258D01*
X109778441Y-127196718D02*
X109898441Y-127196718D01*
X119000000Y-128000000D02*
X120000000Y-128000000D01*
X109538441Y-125663258D02*
X109538441Y-126310000D01*
X111938441Y-126310000D02*
X111938441Y-126550000D01*
X109178441Y-125423258D02*
X109298441Y-125423258D01*
X108338441Y-126550000D02*
X108338441Y-126956742D01*
X110738441Y-126310000D02*
X110738441Y-126956718D01*
X108578441Y-127196742D02*
X108698441Y-127196742D01*
X117730000Y-126730000D02*
X119000000Y-128000000D01*
X111938441Y-125663258D02*
X111938441Y-126310000D01*
X112538441Y-126956718D02*
X112538441Y-126550000D01*
X111578441Y-125423258D02*
X111698441Y-125423258D01*
X105000000Y-126310000D02*
X108098441Y-126310000D01*
X111338441Y-126956718D02*
X111338441Y-126310000D01*
X112778441Y-126310000D02*
X112898441Y-126310000D01*
X110138441Y-126310000D02*
X110138441Y-125663258D01*
X108938441Y-126550000D02*
X108938441Y-126310000D01*
X116095857Y-126310000D02*
X117040000Y-126310000D01*
X110978441Y-127196718D02*
X111098441Y-127196718D01*
X111338441Y-125663258D02*
G75*
G02*
X111578441Y-125423341I239959J-42D01*
G01*
X111938441Y-126956718D02*
G75*
G03*
X112178441Y-127196659I239959J18D01*
G01*
X109898441Y-127196718D02*
G75*
G03*
X110138418Y-126956718I-41J240018D01*
G01*
X112538441Y-126550000D02*
G75*
G02*
X112778441Y-126310041I239959J0D01*
G01*
X108338441Y-126956742D02*
G75*
G03*
X108578441Y-127196659I239959J42D01*
G01*
X110738441Y-126956718D02*
G75*
G03*
X110978441Y-127196659I239959J18D01*
G01*
X108698441Y-127196742D02*
G75*
G03*
X108938442Y-126956742I-41J240042D01*
G01*
X108938441Y-125663258D02*
G75*
G02*
X109178441Y-125423341I239959J-42D01*
G01*
X112298441Y-127196718D02*
G75*
G03*
X112538418Y-126956718I-41J240018D01*
G01*
X109298441Y-125423258D02*
G75*
G02*
X109538442Y-125663258I-41J-240042D01*
G01*
X108098441Y-126310000D02*
G75*
G02*
X108338400Y-126550000I-41J-240000D01*
G01*
X111098441Y-127196718D02*
G75*
G03*
X111338418Y-126956718I-41J240018D01*
G01*
X109538441Y-126956718D02*
G75*
G03*
X109778441Y-127196659I239959J18D01*
G01*
X110138441Y-125663258D02*
G75*
G02*
X110378441Y-125423341I239959J-42D01*
G01*
X110498441Y-125423258D02*
G75*
G02*
X110738442Y-125663258I-41J-240042D01*
G01*
X111698441Y-125423258D02*
G75*
G02*
X111938442Y-125663258I-41J-240042D01*
G01*
X106299837Y-119451151D02*
X106299837Y-119670000D01*
X113756477Y-119670000D02*
X116535075Y-119670000D01*
X104544365Y-119670000D02*
X105459837Y-119670000D01*
X107499837Y-119008659D02*
X107499837Y-119430000D01*
X107739837Y-119670000D02*
X107859837Y-119670000D01*
X116535075Y-119670000D02*
X117245075Y-120380000D01*
X106899837Y-120331350D02*
X106899837Y-119670000D01*
X107139837Y-118768659D02*
X107259837Y-118768659D01*
X106299837Y-119670000D02*
X106299837Y-120331350D01*
X107859837Y-119670000D02*
X113756477Y-119670000D01*
X106899837Y-119430000D02*
X106899837Y-119008659D01*
X117245075Y-120380000D02*
X120000000Y-120380000D01*
X105897535Y-119232302D02*
X106080988Y-119232302D01*
X102160000Y-122054365D02*
X104544365Y-119670000D01*
X106539837Y-120571350D02*
X106659837Y-120571350D01*
X106899837Y-119670000D02*
X106899837Y-119430000D01*
X107259837Y-118768659D02*
G75*
G02*
X107499841Y-119008659I-37J-240041D01*
G01*
X107499837Y-119430000D02*
G75*
G03*
X107739837Y-119669963I239963J0D01*
G01*
X106899837Y-119008659D02*
G75*
G02*
X107139837Y-118768737I239963J-41D01*
G01*
X106659837Y-120571350D02*
G75*
G03*
X106899750Y-120331350I-37J239950D01*
G01*
X106299837Y-120331350D02*
G75*
G03*
X106539837Y-120571363I239963J-50D01*
G01*
X105459837Y-119670000D02*
G75*
G03*
X105678600Y-119451151I-37J218800D01*
G01*
X106080988Y-119232302D02*
G75*
G02*
X106299798Y-119451151I12J-218798D01*
G01*
X105678686Y-119451151D02*
G75*
G02*
X105897535Y-119232286I218814J51D01*
G01*
G04 #@! TA.AperFunction,Conductor*
G36*
X117040667Y-88363694D02*
G01*
X117099910Y-88466306D01*
X117183694Y-88550090D01*
X117286306Y-88609333D01*
X117375875Y-88633333D01*
X116767423Y-89241785D01*
X116767423Y-89241787D01*
X116800662Y-89265937D01*
X116960645Y-89347451D01*
X117012261Y-89396199D01*
X117029327Y-89465113D01*
X117006427Y-89532315D01*
X116960646Y-89571985D01*
X116800399Y-89653635D01*
X116640139Y-89770071D01*
X116500071Y-89910139D01*
X116383636Y-90070398D01*
X116293703Y-90246901D01*
X116293702Y-90246903D01*
X116237484Y-90419925D01*
X116232488Y-90435300D01*
X116201500Y-90630954D01*
X116201500Y-90829046D01*
X116204801Y-90849886D01*
X116232325Y-91023673D01*
X116223225Y-91094084D01*
X116196971Y-91132478D01*
X114974854Y-92354596D01*
X114912544Y-92388620D01*
X114885761Y-92391500D01*
X110350878Y-92391500D01*
X110309092Y-92391499D01*
X110267307Y-92391499D01*
X110267306Y-92391499D01*
X110261142Y-92392106D01*
X110260951Y-92390171D01*
X110199212Y-92384632D01*
X110143156Y-92341063D01*
X110119553Y-92274105D01*
X110119406Y-92268597D01*
X110119374Y-92268280D01*
X110119375Y-92268275D01*
X110086768Y-92104345D01*
X110022806Y-91949927D01*
X109929948Y-91810954D01*
X109929946Y-91810952D01*
X109929941Y-91810946D01*
X109811769Y-91692774D01*
X109811763Y-91692769D01*
X109807514Y-91689930D01*
X109672789Y-91599910D01*
X109518371Y-91535948D01*
X109436406Y-91519644D01*
X109354443Y-91503341D01*
X109354441Y-91503341D01*
X109298727Y-91503341D01*
X109270870Y-91503342D01*
X109150877Y-91503342D01*
X109097424Y-91503341D01*
X109029303Y-91483338D01*
X108982811Y-91429681D01*
X108972709Y-91359407D01*
X108989956Y-91314405D01*
X108989008Y-91313899D01*
X108991920Y-91308449D01*
X108991925Y-91308442D01*
X109055887Y-91154024D01*
X109088494Y-90990094D01*
X109088494Y-90964500D01*
X109108496Y-90896379D01*
X109162152Y-90849886D01*
X109214494Y-90838500D01*
X114015185Y-90838500D01*
X114015186Y-90838500D01*
X114092566Y-90817766D01*
X114169948Y-90797032D01*
X114308702Y-90716922D01*
X116192316Y-88833307D01*
X116254623Y-88799286D01*
X116325438Y-88804350D01*
X116382274Y-88846897D01*
X116383343Y-88848346D01*
X116408212Y-88882575D01*
X117016666Y-88274122D01*
X117040667Y-88363694D01*
G37*
G04 #@! TD.AperFunction*
G04 #@! TA.AperFunction,Conductor*
G36*
X118890430Y-87548502D02*
G01*
X118924245Y-87580439D01*
X119040070Y-87739858D01*
X119040072Y-87739860D01*
X119040074Y-87739863D01*
X119180139Y-87879928D01*
X119201454Y-87895414D01*
X119340402Y-87996366D01*
X119500094Y-88077733D01*
X119551709Y-88126481D01*
X119568775Y-88195396D01*
X119545874Y-88262598D01*
X119500095Y-88302266D01*
X119421619Y-88342252D01*
X119340398Y-88383636D01*
X119180139Y-88500071D01*
X119040071Y-88640139D01*
X118923636Y-88800398D01*
X118833703Y-88976901D01*
X118833702Y-88976903D01*
X118776946Y-89151581D01*
X118772488Y-89165300D01*
X118741500Y-89360954D01*
X118741500Y-89559046D01*
X118772488Y-89754700D01*
X118833702Y-89943097D01*
X118923634Y-90119598D01*
X118923636Y-90119601D01*
X119040071Y-90279860D01*
X119180136Y-90419925D01*
X119180139Y-90419927D01*
X119180142Y-90419930D01*
X119284666Y-90495871D01*
X119309018Y-90513564D01*
X119352372Y-90569786D01*
X119358447Y-90640523D01*
X119325315Y-90703314D01*
X119263495Y-90738226D01*
X119234957Y-90741500D01*
X119201350Y-90741500D01*
X119140803Y-90748009D01*
X119140795Y-90748011D01*
X119003797Y-90799110D01*
X119003792Y-90799113D01*
X118920009Y-90861832D01*
X118853488Y-90886643D01*
X118784114Y-90871551D01*
X118733912Y-90821349D01*
X118718500Y-90760964D01*
X118718500Y-90630957D01*
X118718500Y-90630954D01*
X118687512Y-90435300D01*
X118626298Y-90246903D01*
X118536366Y-90070402D01*
X118429702Y-89923592D01*
X118419928Y-89910139D01*
X118279860Y-89770071D01*
X118119600Y-89653635D01*
X118037899Y-89612006D01*
X117959352Y-89571984D01*
X117907738Y-89523236D01*
X117890672Y-89454321D01*
X117913573Y-89387120D01*
X117959354Y-89347451D01*
X118119333Y-89265939D01*
X118119339Y-89265935D01*
X118152575Y-89241787D01*
X118152576Y-89241786D01*
X117544123Y-88633333D01*
X117633694Y-88609333D01*
X117736306Y-88550090D01*
X117820090Y-88466306D01*
X117879333Y-88363694D01*
X117903333Y-88274123D01*
X118511786Y-88882576D01*
X118511787Y-88882575D01*
X118535935Y-88849339D01*
X118535936Y-88849337D01*
X118625834Y-88672902D01*
X118687022Y-88484585D01*
X118718000Y-88289003D01*
X118718000Y-88090996D01*
X118687022Y-87895414D01*
X118625832Y-87707093D01*
X118624022Y-87702722D01*
X118616430Y-87632133D01*
X118648207Y-87568645D01*
X118709264Y-87532415D01*
X118740429Y-87528500D01*
X118822309Y-87528500D01*
X118890430Y-87548502D01*
G37*
G04 #@! TD.AperFunction*
G04 #@! TA.AperFunction,Conductor*
G36*
X120942121Y-80020002D02*
G01*
X120988614Y-80073658D01*
X121000000Y-80126000D01*
X121000000Y-83303662D01*
X120979998Y-83371783D01*
X120926342Y-83418276D01*
X120856068Y-83428380D01*
X120799939Y-83405598D01*
X120655593Y-83300724D01*
X120656673Y-83299237D01*
X120614331Y-83252425D01*
X120606100Y-83230275D01*
X120567032Y-83084468D01*
X120567030Y-83084465D01*
X120567030Y-83084463D01*
X120524518Y-83010831D01*
X120486924Y-82945716D01*
X120486916Y-82945706D01*
X119114293Y-81573083D01*
X119114283Y-81573075D01*
X118975537Y-81492970D01*
X118975534Y-81492969D01*
X118975533Y-81492968D01*
X118975531Y-81492967D01*
X118975530Y-81492967D01*
X118898151Y-81472234D01*
X118898147Y-81472233D01*
X118820771Y-81451500D01*
X116944964Y-81451500D01*
X116944963Y-81451500D01*
X116867583Y-81472233D01*
X116867583Y-81472234D01*
X116790206Y-81492967D01*
X116790202Y-81492968D01*
X116790197Y-81492970D01*
X116651450Y-81573076D01*
X116651440Y-81573084D01*
X112909932Y-85314595D01*
X112847620Y-85348620D01*
X112820837Y-85351500D01*
X106334327Y-85351500D01*
X106266206Y-85331498D01*
X106219713Y-85277842D01*
X106209609Y-85207568D01*
X106214491Y-85186571D01*
X106276280Y-84996408D01*
X106308500Y-84792981D01*
X106308500Y-84587019D01*
X106276280Y-84383592D01*
X106212634Y-84187710D01*
X106119129Y-84004197D01*
X105998068Y-83837570D01*
X105998065Y-83837567D01*
X105998063Y-83837564D01*
X105852435Y-83691936D01*
X105852432Y-83691934D01*
X105852430Y-83691932D01*
X105685803Y-83570871D01*
X105502290Y-83477366D01*
X105369076Y-83434082D01*
X105339802Y-83424570D01*
X105281197Y-83384496D01*
X105253560Y-83319099D01*
X105265667Y-83249142D01*
X105313674Y-83196837D01*
X105339803Y-83184904D01*
X105502093Y-83132173D01*
X105502099Y-83132170D01*
X105685541Y-83038701D01*
X105728372Y-83007582D01*
X105728372Y-83007581D01*
X105124948Y-82404157D01*
X105192993Y-82385925D01*
X105307007Y-82320099D01*
X105400099Y-82227007D01*
X105465925Y-82112993D01*
X105484157Y-82044948D01*
X106087581Y-82648372D01*
X106087582Y-82648372D01*
X106118701Y-82605541D01*
X106212170Y-82422099D01*
X106212173Y-82422093D01*
X106275791Y-82226296D01*
X106308000Y-82022938D01*
X106308000Y-81817061D01*
X106275791Y-81613703D01*
X106212173Y-81417906D01*
X106212170Y-81417900D01*
X106118699Y-81234454D01*
X106087583Y-81191626D01*
X106087582Y-81191626D01*
X105484157Y-81795051D01*
X105465925Y-81727007D01*
X105400099Y-81612993D01*
X105307007Y-81519901D01*
X105192993Y-81454075D01*
X105124947Y-81435841D01*
X105728372Y-80832416D01*
X105685541Y-80801298D01*
X105685540Y-80801297D01*
X105502099Y-80707829D01*
X105502093Y-80707826D01*
X105306294Y-80644208D01*
X105306298Y-80644208D01*
X105102939Y-80612000D01*
X104897061Y-80612000D01*
X104693703Y-80644208D01*
X104497906Y-80707826D01*
X104497900Y-80707829D01*
X104314452Y-80801301D01*
X104271625Y-80832416D01*
X104875051Y-81435842D01*
X104807007Y-81454075D01*
X104692993Y-81519901D01*
X104599901Y-81612993D01*
X104534075Y-81727007D01*
X104515842Y-81795051D01*
X103912416Y-81191625D01*
X103881301Y-81234452D01*
X103787829Y-81417900D01*
X103787826Y-81417906D01*
X103724208Y-81613703D01*
X103692000Y-81817061D01*
X103692000Y-82022938D01*
X103724208Y-82226296D01*
X103787826Y-82422093D01*
X103787829Y-82422099D01*
X103881297Y-82605540D01*
X103881298Y-82605541D01*
X103912416Y-82648372D01*
X104515841Y-82044947D01*
X104534075Y-82112993D01*
X104599901Y-82227007D01*
X104692993Y-82320099D01*
X104807007Y-82385925D01*
X104875051Y-82404157D01*
X104271626Y-83007582D01*
X104271626Y-83007583D01*
X104314454Y-83038699D01*
X104497900Y-83132170D01*
X104497906Y-83132173D01*
X104660196Y-83184904D01*
X104718802Y-83224977D01*
X104746439Y-83290374D01*
X104734332Y-83360331D01*
X104686326Y-83412637D01*
X104660197Y-83424570D01*
X104548877Y-83460740D01*
X104497710Y-83477366D01*
X104497708Y-83477366D01*
X104497708Y-83477367D01*
X104314193Y-83570873D01*
X104147567Y-83691934D01*
X104147564Y-83691936D01*
X104001936Y-83837564D01*
X104001934Y-83837567D01*
X103880873Y-84004193D01*
X103787367Y-84187708D01*
X103787364Y-84187714D01*
X103723721Y-84383587D01*
X103723720Y-84383590D01*
X103723720Y-84383592D01*
X103691500Y-84587019D01*
X103691500Y-84792981D01*
X103702606Y-84863098D01*
X103723720Y-84996410D01*
X103737753Y-85039598D01*
X103785506Y-85186565D01*
X103787534Y-85257531D01*
X103750871Y-85318329D01*
X103687159Y-85349654D01*
X103665673Y-85351500D01*
X103315941Y-85351500D01*
X103247820Y-85331498D01*
X103214005Y-85299561D01*
X103198225Y-85277842D01*
X103158068Y-85222570D01*
X103158065Y-85222567D01*
X103158063Y-85222564D01*
X103036905Y-85101406D01*
X103002879Y-85039094D01*
X103000000Y-85012311D01*
X103000000Y-84367689D01*
X103020002Y-84299568D01*
X103036905Y-84278594D01*
X103158063Y-84157435D01*
X103158068Y-84157430D01*
X103279129Y-83990803D01*
X103372634Y-83807290D01*
X103436280Y-83611408D01*
X103468500Y-83407981D01*
X103468500Y-83202019D01*
X103436280Y-82998592D01*
X103372634Y-82802710D01*
X103279129Y-82619197D01*
X103158068Y-82452570D01*
X103158065Y-82452567D01*
X103158063Y-82452564D01*
X103036905Y-82331406D01*
X103002879Y-82269094D01*
X103000000Y-82242311D01*
X103000000Y-80126000D01*
X103020002Y-80057879D01*
X103073658Y-80011386D01*
X103126000Y-80000000D01*
X120874000Y-80000000D01*
X120942121Y-80020002D01*
G37*
G04 #@! TD.AperFunction*
G04 #@! TA.AperFunction,Conductor*
G36*
X114965093Y-70079177D02*
G01*
X114994009Y-70086322D01*
X115022459Y-70097139D01*
X129178104Y-77547478D01*
X129207134Y-77568524D01*
X129215386Y-77576527D01*
X129250362Y-77638309D01*
X129246382Y-77709194D01*
X129204713Y-77766674D01*
X129202433Y-77768436D01*
X129141832Y-77793660D01*
X129007432Y-77811353D01*
X129007429Y-77811354D01*
X128753164Y-77879484D01*
X128509967Y-77980219D01*
X128509963Y-77980221D01*
X128282027Y-78111820D01*
X128171127Y-78196917D01*
X128930000Y-78955790D01*
X128964024Y-79018101D01*
X128958960Y-79088916D01*
X128916413Y-79145752D01*
X128910909Y-79149647D01*
X128890035Y-79163595D01*
X128890027Y-79163601D01*
X128778601Y-79275027D01*
X128778595Y-79275035D01*
X128764647Y-79295909D01*
X128710169Y-79341435D01*
X128639726Y-79350281D01*
X128575683Y-79319638D01*
X128570807Y-79315017D01*
X127811917Y-78556127D01*
X127726820Y-78667027D01*
X127595221Y-78894963D01*
X127595219Y-78894967D01*
X127494484Y-79138164D01*
X127494483Y-79138168D01*
X127426354Y-79392428D01*
X127426353Y-79392433D01*
X127392000Y-79653382D01*
X127392000Y-79916619D01*
X127407485Y-80034241D01*
X127407058Y-80070101D01*
X127405105Y-80082624D01*
X127374845Y-80146849D01*
X127314666Y-80184519D01*
X127247278Y-80184720D01*
X127237559Y-80182054D01*
X127207892Y-80169663D01*
X127186809Y-80157491D01*
X127183906Y-80155613D01*
X127181298Y-80154309D01*
X127181292Y-80154306D01*
X126954153Y-80060222D01*
X126829215Y-80026745D01*
X126719880Y-79997449D01*
X126717375Y-79996706D01*
X126716673Y-79996589D01*
X126472931Y-79964500D01*
X126472929Y-79964500D01*
X126472927Y-79964500D01*
X126227073Y-79964500D01*
X126227070Y-79964500D01*
X126227067Y-79964500D01*
X125983336Y-79996587D01*
X125745847Y-80060222D01*
X125518697Y-80154310D01*
X125518693Y-80154312D01*
X125305799Y-80277226D01*
X125305799Y-80277227D01*
X125305782Y-80277238D01*
X125110765Y-80426881D01*
X125110736Y-80426905D01*
X125110701Y-80426938D01*
X124936938Y-80600701D01*
X124936905Y-80600736D01*
X124936881Y-80600765D01*
X124787238Y-80795782D01*
X124787227Y-80795799D01*
X124787226Y-80795799D01*
X124664312Y-81008693D01*
X124664309Y-81008698D01*
X124639926Y-81067563D01*
X124639927Y-81067564D01*
X124570222Y-81235847D01*
X124506587Y-81473336D01*
X124474500Y-81717067D01*
X124474500Y-81962931D01*
X124506589Y-82206673D01*
X124506706Y-82207375D01*
X124507449Y-82209880D01*
X124570222Y-82444153D01*
X124642726Y-82619193D01*
X124664626Y-82672064D01*
X124666360Y-82674853D01*
X124787226Y-82884198D01*
X124787227Y-82884199D01*
X124787238Y-82884216D01*
X124881982Y-83007688D01*
X124936894Y-83079250D01*
X124936905Y-83079262D01*
X124936938Y-83079297D01*
X125110936Y-83253295D01*
X125112320Y-83254393D01*
X125112392Y-83254452D01*
X125114062Y-83255647D01*
X125302405Y-83400169D01*
X125305789Y-83402765D01*
X125305795Y-83402769D01*
X125305799Y-83402771D01*
X125305799Y-83402772D01*
X125515203Y-83523671D01*
X125516965Y-83524765D01*
X125518449Y-83525590D01*
X125519036Y-83525830D01*
X125745847Y-83619778D01*
X125971351Y-83680201D01*
X125978018Y-83682710D01*
X125983318Y-83683407D01*
X125983323Y-83683409D01*
X125983327Y-83683409D01*
X125983329Y-83683409D01*
X125983330Y-83683410D01*
X126011289Y-83687090D01*
X126011293Y-83687092D01*
X126011294Y-83687091D01*
X126227073Y-83715500D01*
X126227080Y-83715500D01*
X126472920Y-83715500D01*
X126472927Y-83715500D01*
X126716677Y-83683409D01*
X126954153Y-83619778D01*
X127181292Y-83525694D01*
X127394208Y-83402767D01*
X127589256Y-83253101D01*
X127763101Y-83079256D01*
X127912767Y-82884208D01*
X128035694Y-82671292D01*
X128129778Y-82444153D01*
X128193409Y-82206677D01*
X128225500Y-81962927D01*
X128225500Y-81717073D01*
X128219675Y-81672830D01*
X128220101Y-81636978D01*
X128222056Y-81624446D01*
X128252317Y-81560224D01*
X128312497Y-81522556D01*
X128379884Y-81522357D01*
X128389609Y-81525024D01*
X128419267Y-81537414D01*
X128501218Y-81584728D01*
X128509965Y-81589778D01*
X128509976Y-81589783D01*
X128753164Y-81690515D01*
X129007424Y-81758644D01*
X129007430Y-81758644D01*
X129007431Y-81758645D01*
X129268384Y-81792999D01*
X129268395Y-81793000D01*
X129268396Y-81793000D01*
X129531597Y-81793000D01*
X129531604Y-81793000D01*
X129531611Y-81792999D01*
X129531614Y-81792999D01*
X129531631Y-81792997D01*
X129792567Y-81758645D01*
X129792566Y-81758645D01*
X129792575Y-81758644D01*
X130046835Y-81690515D01*
X130290023Y-81589783D01*
X130290034Y-81589778D01*
X130517975Y-81458176D01*
X130517981Y-81458172D01*
X130628871Y-81373082D01*
X130628871Y-81373081D01*
X129869998Y-80614208D01*
X129835975Y-80551898D01*
X129841039Y-80481083D01*
X129883586Y-80424247D01*
X129889095Y-80420349D01*
X129909970Y-80406401D01*
X130021401Y-80294970D01*
X130035349Y-80274094D01*
X130089825Y-80228566D01*
X130160268Y-80219717D01*
X130224312Y-80250357D01*
X130229191Y-80254981D01*
X130988081Y-81013871D01*
X130988082Y-81013871D01*
X131073172Y-80902981D01*
X131073176Y-80902975D01*
X131204778Y-80675034D01*
X131204783Y-80675023D01*
X131305515Y-80431835D01*
X131373644Y-80177575D01*
X131394804Y-80016844D01*
X131407997Y-79916631D01*
X131407999Y-79916614D01*
X131408000Y-79916597D01*
X131408000Y-79653394D01*
X131407999Y-79653384D01*
X131373645Y-79392431D01*
X131373644Y-79392430D01*
X131373644Y-79392424D01*
X131305515Y-79138164D01*
X131204783Y-78894976D01*
X131204780Y-78894970D01*
X131198907Y-78884798D01*
X131185580Y-78851510D01*
X131182869Y-78840333D01*
X131186246Y-78769420D01*
X131227427Y-78711588D01*
X131293338Y-78685200D01*
X131293349Y-78685199D01*
X131295246Y-78685018D01*
X131364959Y-78698459D01*
X131365898Y-78698948D01*
X132200409Y-79138164D01*
X133841157Y-80001716D01*
X133870195Y-80022769D01*
X133882966Y-80035156D01*
X133917082Y-80093496D01*
X133920341Y-80105864D01*
X133924500Y-80137969D01*
X133924500Y-94860231D01*
X133919396Y-94895729D01*
X133914383Y-94912802D01*
X133878631Y-94970183D01*
X133869204Y-94978825D01*
X133842744Y-94997446D01*
X131438837Y-96262659D01*
X131405045Y-96274676D01*
X131393781Y-96276946D01*
X131323051Y-96270796D01*
X131266875Y-96227382D01*
X131243087Y-96160494D01*
X131242823Y-96155786D01*
X131252215Y-96100513D01*
X131305515Y-95971835D01*
X131373644Y-95717575D01*
X131407999Y-95456613D01*
X131408000Y-95456604D01*
X131408000Y-95193396D01*
X131407999Y-95193386D01*
X131397470Y-95113410D01*
X131373645Y-94932431D01*
X131373644Y-94932430D01*
X131373644Y-94932424D01*
X131305515Y-94678164D01*
X131204783Y-94434976D01*
X131204778Y-94434965D01*
X131073176Y-94207024D01*
X131073171Y-94207017D01*
X131059401Y-94189072D01*
X130988081Y-94096126D01*
X130988080Y-94096126D01*
X130229209Y-94854998D01*
X130166897Y-94889024D01*
X130096082Y-94883959D01*
X130039246Y-94841412D01*
X130035357Y-94835917D01*
X130021401Y-94815030D01*
X129909970Y-94703599D01*
X129909757Y-94703457D01*
X129889090Y-94689647D01*
X129843563Y-94635169D01*
X129834717Y-94564726D01*
X129865359Y-94500682D01*
X129869962Y-94495825D01*
X130628871Y-93736917D01*
X130628870Y-93736916D01*
X130628865Y-93736912D01*
X130628861Y-93736908D01*
X130536945Y-93666379D01*
X130517981Y-93651827D01*
X130517975Y-93651823D01*
X130517970Y-93651820D01*
X130517970Y-93651819D01*
X130290035Y-93520221D01*
X130290030Y-93520219D01*
X130290031Y-93520219D01*
X130132877Y-93455124D01*
X130046835Y-93419484D01*
X129792575Y-93351355D01*
X129792572Y-93351354D01*
X129792570Y-93351354D01*
X129792565Y-93351353D01*
X129531616Y-93317000D01*
X129531613Y-93317000D01*
X129268386Y-93317000D01*
X129268382Y-93317000D01*
X129007433Y-93351353D01*
X129007428Y-93351354D01*
X129007424Y-93351354D01*
X129007424Y-93351355D01*
X128852269Y-93392929D01*
X128753168Y-93419483D01*
X128753164Y-93419484D01*
X128514108Y-93518504D01*
X128512178Y-93519224D01*
X128509971Y-93520217D01*
X128420923Y-93571629D01*
X128387633Y-93584957D01*
X128375314Y-93587946D01*
X128304397Y-93584571D01*
X128246564Y-93543390D01*
X128220587Y-93481206D01*
X128219331Y-93471209D01*
X128219425Y-93439060D01*
X128225500Y-93392927D01*
X128225500Y-93147073D01*
X128193409Y-92903323D01*
X128129778Y-92665847D01*
X128035830Y-92439036D01*
X128035590Y-92438449D01*
X128034765Y-92436965D01*
X128033671Y-92435203D01*
X127980746Y-92343535D01*
X127912769Y-92225795D01*
X127912765Y-92225789D01*
X127855663Y-92151373D01*
X127765647Y-92034062D01*
X127764452Y-92032392D01*
X127764393Y-92032320D01*
X127763295Y-92030936D01*
X127589297Y-91856938D01*
X127589279Y-91856921D01*
X127589271Y-91856913D01*
X127589250Y-91856894D01*
X127562981Y-91836737D01*
X127394216Y-91707238D01*
X127394199Y-91707227D01*
X127394199Y-91707226D01*
X127245014Y-91621095D01*
X127181304Y-91584312D01*
X127181296Y-91584308D01*
X127181292Y-91584306D01*
X126954153Y-91490222D01*
X126785232Y-91444960D01*
X126719880Y-91427449D01*
X126717375Y-91426706D01*
X126716673Y-91426589D01*
X126472931Y-91394500D01*
X126472929Y-91394500D01*
X126472927Y-91394500D01*
X126227073Y-91394500D01*
X126227070Y-91394500D01*
X126227067Y-91394500D01*
X125983334Y-91426587D01*
X125923452Y-91442632D01*
X125923453Y-91442633D01*
X125745847Y-91490222D01*
X125562435Y-91566194D01*
X125518697Y-91584310D01*
X125518693Y-91584312D01*
X125305799Y-91707226D01*
X125305799Y-91707227D01*
X125305782Y-91707238D01*
X125110765Y-91856881D01*
X125110736Y-91856905D01*
X125110701Y-91856938D01*
X124936938Y-92030701D01*
X124936905Y-92030736D01*
X124936881Y-92030765D01*
X124787238Y-92225782D01*
X124787227Y-92225799D01*
X124787226Y-92225799D01*
X124664312Y-92438693D01*
X124664310Y-92438697D01*
X124570222Y-92665847D01*
X124506587Y-92903336D01*
X124474500Y-93147067D01*
X124474500Y-93392931D01*
X124506589Y-93636673D01*
X124506706Y-93637375D01*
X124507449Y-93639880D01*
X124532900Y-93734864D01*
X124570222Y-93874153D01*
X124643101Y-94050098D01*
X124664626Y-94102064D01*
X124666360Y-94104853D01*
X124787226Y-94314198D01*
X124787227Y-94314199D01*
X124787238Y-94314216D01*
X124853151Y-94400115D01*
X124936894Y-94509250D01*
X124936905Y-94509262D01*
X124936938Y-94509297D01*
X125110936Y-94683295D01*
X125112320Y-94684393D01*
X125112392Y-94684452D01*
X125114062Y-94685647D01*
X125282677Y-94815031D01*
X125305789Y-94832765D01*
X125305795Y-94832769D01*
X125305799Y-94832771D01*
X125305799Y-94832772D01*
X125515203Y-94953671D01*
X125516965Y-94954765D01*
X125518449Y-94955590D01*
X125519036Y-94955830D01*
X125745847Y-95049778D01*
X125971351Y-95110201D01*
X125978018Y-95112710D01*
X125983318Y-95113407D01*
X125983323Y-95113409D01*
X125983327Y-95113409D01*
X125983329Y-95113409D01*
X125983330Y-95113410D01*
X126011289Y-95117090D01*
X126011293Y-95117092D01*
X126011294Y-95117091D01*
X126227073Y-95145500D01*
X126227080Y-95145500D01*
X126472920Y-95145500D01*
X126472927Y-95145500D01*
X126716677Y-95113409D01*
X126954153Y-95049778D01*
X127181292Y-94955694D01*
X127206237Y-94941291D01*
X127239530Y-94927961D01*
X127251855Y-94924972D01*
X127322769Y-94928352D01*
X127380601Y-94969535D01*
X127406574Y-95031719D01*
X127407830Y-95041719D01*
X127407734Y-95073866D01*
X127392000Y-95193379D01*
X127392000Y-95456616D01*
X127426353Y-95717565D01*
X127426354Y-95717570D01*
X127426355Y-95717575D01*
X127494484Y-95971835D01*
X127523756Y-96042503D01*
X127595219Y-96215031D01*
X127595221Y-96215035D01*
X127602350Y-96227382D01*
X127726823Y-96442975D01*
X127726827Y-96442981D01*
X127726829Y-96442983D01*
X127811908Y-96553861D01*
X127811912Y-96553865D01*
X127811916Y-96553870D01*
X127811917Y-96553871D01*
X128570791Y-95794996D01*
X128633100Y-95760974D01*
X128703915Y-95766038D01*
X128760751Y-95808585D01*
X128764647Y-95814090D01*
X128778599Y-95834970D01*
X128890030Y-95946401D01*
X128910905Y-95960349D01*
X128956432Y-96014825D01*
X128965281Y-96085268D01*
X128934640Y-96149312D01*
X128929998Y-96154209D01*
X128171127Y-96913079D01*
X128171126Y-96913081D01*
X128171127Y-96913081D01*
X128171127Y-96913082D01*
X128282017Y-96998171D01*
X128282024Y-96998176D01*
X128509965Y-97129778D01*
X128509976Y-97129783D01*
X128753164Y-97230515D01*
X128985869Y-97292868D01*
X129018833Y-97306983D01*
X129028648Y-97312966D01*
X129076405Y-97365498D01*
X129088180Y-97435511D01*
X129060234Y-97500777D01*
X129060226Y-97500787D01*
X129056206Y-97505655D01*
X129017735Y-97536924D01*
X125328499Y-99478627D01*
X125294711Y-99490643D01*
X125280889Y-99493429D01*
X125210159Y-99487281D01*
X125153982Y-99443871D01*
X125152237Y-99441464D01*
X125130091Y-99388924D01*
X125129617Y-99386174D01*
X125127786Y-99364772D01*
X125127786Y-95304526D01*
X114943643Y-95304526D01*
X114943643Y-100549286D01*
X122766202Y-100549286D01*
X122801694Y-100554388D01*
X122812364Y-100557521D01*
X122872089Y-100595903D01*
X122901583Y-100660483D01*
X122891481Y-100730757D01*
X122855178Y-100777125D01*
X122852221Y-100779471D01*
X122832593Y-100792263D01*
X115022463Y-104902858D01*
X114994006Y-104913678D01*
X114965097Y-104920821D01*
X114934876Y-104924500D01*
X114430118Y-104924500D01*
X114377053Y-104937579D01*
X114294428Y-104957945D01*
X114294423Y-104957946D01*
X114294423Y-104957947D01*
X114294405Y-104957955D01*
X114255340Y-104978458D01*
X114226945Y-104989227D01*
X114198104Y-104996337D01*
X114167945Y-105000000D01*
X109999998Y-105000000D01*
X109997128Y-105001188D01*
X109975108Y-105017673D01*
X109967539Y-105021806D01*
X109961169Y-105025284D01*
X109891798Y-105040378D01*
X109891780Y-105040377D01*
X109883975Y-105039818D01*
X109833208Y-105023691D01*
X109832697Y-105024666D01*
X109829330Y-105022899D01*
X109829326Y-105022896D01*
X109705572Y-104957945D01*
X109705569Y-104957944D01*
X109705567Y-104957943D01*
X109569882Y-104924500D01*
X109569879Y-104924500D01*
X109569878Y-104924500D01*
X109515018Y-104924500D01*
X105524531Y-104924500D01*
X105500000Y-104924500D01*
X105430122Y-104924500D01*
X105430120Y-104924500D01*
X105430118Y-104924500D01*
X105294428Y-104957945D01*
X105294427Y-104957945D01*
X105255341Y-104978459D01*
X105170679Y-105022892D01*
X105170677Y-105022893D01*
X105066064Y-105115573D01*
X104986679Y-105230581D01*
X104937116Y-105361264D01*
X104937115Y-105361268D01*
X104920273Y-105499987D01*
X104920273Y-105500011D01*
X104937115Y-105638730D01*
X104937117Y-105638737D01*
X104965931Y-105714713D01*
X104982908Y-105759475D01*
X104986677Y-105769413D01*
X104986678Y-105769414D01*
X104986687Y-105769427D01*
X104991346Y-105776634D01*
X104993182Y-105778837D01*
X105066063Y-105884425D01*
X105066075Y-105884437D01*
X105170676Y-105977105D01*
X105170678Y-105977106D01*
X105294426Y-106042054D01*
X105430122Y-106075500D01*
X105430123Y-106075500D01*
X109569877Y-106075500D01*
X109569878Y-106075500D01*
X109705574Y-106042054D01*
X109821972Y-105980963D01*
X109841039Y-105972878D01*
X109862610Y-105965761D01*
X109933562Y-105963413D01*
X109940493Y-105965201D01*
X109998110Y-105998111D01*
X109999999Y-106000000D01*
X110000000Y-106000000D01*
X114167945Y-106000000D01*
X114198092Y-106003660D01*
X114226948Y-106010772D01*
X114255340Y-106021541D01*
X114266070Y-106027172D01*
X114266074Y-106027173D01*
X114266077Y-106027175D01*
X114294426Y-106042054D01*
X114430122Y-106075500D01*
X114484982Y-106075500D01*
X114934876Y-106075500D01*
X114965093Y-106079177D01*
X114994009Y-106086322D01*
X115022459Y-106097139D01*
X129178104Y-113547478D01*
X129207134Y-113568524D01*
X129215386Y-113576527D01*
X129250362Y-113638309D01*
X129246382Y-113709194D01*
X129204713Y-113766674D01*
X129202433Y-113768436D01*
X129141832Y-113793660D01*
X129007432Y-113811353D01*
X129007429Y-113811354D01*
X128753164Y-113879484D01*
X128509967Y-113980219D01*
X128509963Y-113980221D01*
X128282027Y-114111820D01*
X128171127Y-114196917D01*
X128930000Y-114955790D01*
X128964024Y-115018101D01*
X128958960Y-115088916D01*
X128916413Y-115145752D01*
X128910909Y-115149647D01*
X128890035Y-115163595D01*
X128890027Y-115163601D01*
X128778601Y-115275027D01*
X128778595Y-115275035D01*
X128764647Y-115295909D01*
X128710169Y-115341435D01*
X128639726Y-115350281D01*
X128575683Y-115319638D01*
X128570807Y-115315017D01*
X127811917Y-114556127D01*
X127726820Y-114667027D01*
X127595221Y-114894963D01*
X127595219Y-114894967D01*
X127494484Y-115138164D01*
X127494483Y-115138168D01*
X127426354Y-115392428D01*
X127426353Y-115392433D01*
X127392000Y-115653382D01*
X127392000Y-115916619D01*
X127407485Y-116034241D01*
X127407058Y-116070101D01*
X127405105Y-116082624D01*
X127374845Y-116146849D01*
X127314666Y-116184519D01*
X127247278Y-116184720D01*
X127237559Y-116182054D01*
X127207892Y-116169663D01*
X127186809Y-116157491D01*
X127183906Y-116155613D01*
X127181298Y-116154309D01*
X127181292Y-116154306D01*
X126954153Y-116060222D01*
X126829215Y-116026745D01*
X126719880Y-115997449D01*
X126717375Y-115996706D01*
X126716673Y-115996589D01*
X126472931Y-115964500D01*
X126472929Y-115964500D01*
X126472927Y-115964500D01*
X126227073Y-115964500D01*
X126227070Y-115964500D01*
X126227067Y-115964500D01*
X125983336Y-115996587D01*
X125745847Y-116060222D01*
X125518697Y-116154310D01*
X125518693Y-116154312D01*
X125305799Y-116277226D01*
X125305799Y-116277227D01*
X125305782Y-116277238D01*
X125110765Y-116426881D01*
X125110736Y-116426905D01*
X125110701Y-116426938D01*
X124936938Y-116600701D01*
X124936905Y-116600736D01*
X124936881Y-116600765D01*
X124787238Y-116795782D01*
X124787227Y-116795799D01*
X124787226Y-116795799D01*
X124664312Y-117008693D01*
X124664305Y-117008706D01*
X124630303Y-117090798D01*
X124630303Y-117090799D01*
X124570222Y-117235847D01*
X124506587Y-117473336D01*
X124474500Y-117717067D01*
X124474500Y-117962931D01*
X124506589Y-118206673D01*
X124506706Y-118207375D01*
X124507449Y-118209880D01*
X124570222Y-118444153D01*
X124657956Y-118655962D01*
X124664626Y-118672064D01*
X124666360Y-118674853D01*
X124787226Y-118884198D01*
X124787227Y-118884199D01*
X124787238Y-118884216D01*
X124865285Y-118985928D01*
X124936894Y-119079250D01*
X124936905Y-119079262D01*
X124936938Y-119079297D01*
X125110936Y-119253295D01*
X125112320Y-119254393D01*
X125112392Y-119254452D01*
X125114062Y-119255647D01*
X125174360Y-119301916D01*
X125305789Y-119402765D01*
X125305795Y-119402769D01*
X125305799Y-119402771D01*
X125305799Y-119402772D01*
X125515203Y-119523671D01*
X125516965Y-119524765D01*
X125518449Y-119525590D01*
X125519036Y-119525830D01*
X125745847Y-119619778D01*
X125971351Y-119680201D01*
X125978018Y-119682710D01*
X125983318Y-119683407D01*
X125983323Y-119683409D01*
X125983327Y-119683409D01*
X125983329Y-119683409D01*
X125983330Y-119683410D01*
X126011289Y-119687090D01*
X126011293Y-119687092D01*
X126011294Y-119687091D01*
X126227073Y-119715500D01*
X126227080Y-119715500D01*
X126472920Y-119715500D01*
X126472927Y-119715500D01*
X126716677Y-119683409D01*
X126954153Y-119619778D01*
X127181292Y-119525694D01*
X127394208Y-119402767D01*
X127589256Y-119253101D01*
X127763101Y-119079256D01*
X127912767Y-118884208D01*
X128035694Y-118671292D01*
X128129778Y-118444153D01*
X128193409Y-118206677D01*
X128225500Y-117962927D01*
X128225500Y-117717073D01*
X128219675Y-117672830D01*
X128220101Y-117636978D01*
X128222056Y-117624446D01*
X128252317Y-117560224D01*
X128312497Y-117522556D01*
X128379884Y-117522357D01*
X128389609Y-117525024D01*
X128419267Y-117537414D01*
X128501218Y-117584728D01*
X128509965Y-117589778D01*
X128509976Y-117589783D01*
X128753164Y-117690515D01*
X129007424Y-117758644D01*
X129007430Y-117758644D01*
X129007431Y-117758645D01*
X129268384Y-117792999D01*
X129268395Y-117793000D01*
X129268396Y-117793000D01*
X129531597Y-117793000D01*
X129531604Y-117793000D01*
X129531611Y-117792999D01*
X129531614Y-117792999D01*
X129531631Y-117792997D01*
X129792567Y-117758645D01*
X129792566Y-117758645D01*
X129792575Y-117758644D01*
X130046835Y-117690515D01*
X130290023Y-117589783D01*
X130290034Y-117589778D01*
X130517975Y-117458176D01*
X130517981Y-117458172D01*
X130628871Y-117373082D01*
X130628871Y-117373081D01*
X129869998Y-116614208D01*
X129835975Y-116551898D01*
X129841039Y-116481083D01*
X129883586Y-116424247D01*
X129889095Y-116420349D01*
X129909970Y-116406401D01*
X130021401Y-116294970D01*
X130035349Y-116274094D01*
X130089825Y-116228566D01*
X130160268Y-116219717D01*
X130224312Y-116250357D01*
X130229191Y-116254981D01*
X130988081Y-117013871D01*
X130988082Y-117013871D01*
X131073172Y-116902981D01*
X131073176Y-116902975D01*
X131204778Y-116675034D01*
X131204783Y-116675023D01*
X131305515Y-116431835D01*
X131373644Y-116177575D01*
X131397470Y-115996590D01*
X131407997Y-115916631D01*
X131407999Y-115916614D01*
X131408000Y-115916597D01*
X131408000Y-115653394D01*
X131407999Y-115653384D01*
X131373645Y-115392431D01*
X131373644Y-115392430D01*
X131373644Y-115392424D01*
X131305515Y-115138164D01*
X131204783Y-114894976D01*
X131204780Y-114894970D01*
X131198907Y-114884798D01*
X131185580Y-114851510D01*
X131182869Y-114840333D01*
X131186246Y-114769420D01*
X131227427Y-114711588D01*
X131293338Y-114685200D01*
X131293349Y-114685199D01*
X131295246Y-114685018D01*
X131364959Y-114698459D01*
X131365898Y-114698948D01*
X132200409Y-115138164D01*
X133841157Y-116001716D01*
X133870195Y-116022769D01*
X133882966Y-116035156D01*
X133917082Y-116093496D01*
X133920341Y-116105864D01*
X133924500Y-116137969D01*
X133924500Y-130860231D01*
X133919396Y-130895729D01*
X133914383Y-130912802D01*
X133878631Y-130970183D01*
X133869204Y-130978825D01*
X133842744Y-130997446D01*
X131438837Y-132262659D01*
X131405045Y-132274676D01*
X131393781Y-132276946D01*
X131323051Y-132270796D01*
X131266875Y-132227382D01*
X131243087Y-132160494D01*
X131242823Y-132155786D01*
X131252215Y-132100513D01*
X131305515Y-131971835D01*
X131373644Y-131717575D01*
X131407999Y-131456613D01*
X131408000Y-131456604D01*
X131408000Y-131193396D01*
X131407999Y-131193386D01*
X131397470Y-131113410D01*
X131373645Y-130932431D01*
X131373644Y-130932430D01*
X131373644Y-130932424D01*
X131305515Y-130678164D01*
X131204783Y-130434976D01*
X131204778Y-130434965D01*
X131073176Y-130207024D01*
X131073171Y-130207017D01*
X131067116Y-130199126D01*
X130988081Y-130096126D01*
X130988080Y-130096126D01*
X130229209Y-130854998D01*
X130166897Y-130889024D01*
X130096082Y-130883959D01*
X130039246Y-130841412D01*
X130035357Y-130835917D01*
X130021401Y-130815030D01*
X129909970Y-130703599D01*
X129909757Y-130703457D01*
X129889090Y-130689647D01*
X129843563Y-130635169D01*
X129834717Y-130564726D01*
X129865359Y-130500682D01*
X129869962Y-130495825D01*
X130628871Y-129736917D01*
X130628870Y-129736916D01*
X130628865Y-129736912D01*
X130628861Y-129736908D01*
X130551071Y-129677218D01*
X130517981Y-129651827D01*
X130517975Y-129651823D01*
X130517970Y-129651820D01*
X130517970Y-129651819D01*
X130290035Y-129520221D01*
X130290030Y-129520219D01*
X130290031Y-129520219D01*
X130132877Y-129455124D01*
X130046835Y-129419484D01*
X129792575Y-129351355D01*
X129792572Y-129351354D01*
X129792570Y-129351354D01*
X129792565Y-129351353D01*
X129531616Y-129317000D01*
X129531613Y-129317000D01*
X129268386Y-129317000D01*
X129268382Y-129317000D01*
X129007433Y-129351353D01*
X129007428Y-129351354D01*
X129007424Y-129351354D01*
X129007424Y-129351355D01*
X128852269Y-129392929D01*
X128753168Y-129419483D01*
X128753164Y-129419484D01*
X128514108Y-129518504D01*
X128512178Y-129519224D01*
X128509971Y-129520217D01*
X128420923Y-129571629D01*
X128387633Y-129584957D01*
X128375314Y-129587946D01*
X128304397Y-129584571D01*
X128246564Y-129543390D01*
X128220587Y-129481206D01*
X128219331Y-129471209D01*
X128219425Y-129439060D01*
X128225500Y-129392927D01*
X128225500Y-129147073D01*
X128193409Y-128903323D01*
X128129778Y-128665847D01*
X128035830Y-128439036D01*
X128035590Y-128438449D01*
X128034765Y-128436965D01*
X128033671Y-128435203D01*
X127914974Y-128229615D01*
X127912769Y-128225795D01*
X127912765Y-128225789D01*
X127890895Y-128197288D01*
X127765647Y-128034062D01*
X127764452Y-128032392D01*
X127764393Y-128032320D01*
X127763295Y-128030936D01*
X127589297Y-127856938D01*
X127589279Y-127856921D01*
X127589271Y-127856913D01*
X127589250Y-127856894D01*
X127523397Y-127806363D01*
X127394216Y-127707238D01*
X127394199Y-127707227D01*
X127394199Y-127707226D01*
X127235858Y-127615809D01*
X127181304Y-127584312D01*
X127181296Y-127584308D01*
X127181292Y-127584306D01*
X126954153Y-127490222D01*
X126829215Y-127456745D01*
X126719880Y-127427449D01*
X126717375Y-127426706D01*
X126716673Y-127426589D01*
X126472931Y-127394500D01*
X126472929Y-127394500D01*
X126472927Y-127394500D01*
X126227073Y-127394500D01*
X126227070Y-127394500D01*
X126227067Y-127394500D01*
X125983327Y-127426588D01*
X125983208Y-127426613D01*
X125982337Y-127426855D01*
X125745847Y-127490222D01*
X125667598Y-127522634D01*
X125518697Y-127584310D01*
X125518693Y-127584312D01*
X125305799Y-127707226D01*
X125305799Y-127707227D01*
X125305782Y-127707238D01*
X125110765Y-127856881D01*
X125110736Y-127856905D01*
X125110701Y-127856938D01*
X124936938Y-128030701D01*
X124936905Y-128030736D01*
X124936881Y-128030765D01*
X124787238Y-128225782D01*
X124787227Y-128225799D01*
X124787226Y-128225799D01*
X124664312Y-128438693D01*
X124664310Y-128438697D01*
X124570222Y-128665847D01*
X124506587Y-128903336D01*
X124474500Y-129147067D01*
X124474500Y-129392931D01*
X124506589Y-129636673D01*
X124506706Y-129637375D01*
X124507449Y-129639880D01*
X124510649Y-129651821D01*
X124570222Y-129874153D01*
X124654723Y-130078157D01*
X124664626Y-130102064D01*
X124666360Y-130104853D01*
X124787226Y-130314198D01*
X124787227Y-130314199D01*
X124787238Y-130314216D01*
X124844239Y-130388500D01*
X124936894Y-130509250D01*
X124936905Y-130509262D01*
X124936938Y-130509297D01*
X125110936Y-130683295D01*
X125112320Y-130684393D01*
X125112392Y-130684452D01*
X125114062Y-130685647D01*
X125282677Y-130815031D01*
X125305789Y-130832765D01*
X125305795Y-130832769D01*
X125305799Y-130832771D01*
X125305799Y-130832772D01*
X125515203Y-130953671D01*
X125516965Y-130954765D01*
X125518449Y-130955590D01*
X125519036Y-130955830D01*
X125745847Y-131049778D01*
X125971351Y-131110201D01*
X125978018Y-131112710D01*
X125983318Y-131113407D01*
X125983323Y-131113409D01*
X125983327Y-131113409D01*
X125983329Y-131113409D01*
X125983330Y-131113410D01*
X126011289Y-131117090D01*
X126011293Y-131117092D01*
X126011294Y-131117091D01*
X126227073Y-131145500D01*
X126227080Y-131145500D01*
X126472920Y-131145500D01*
X126472927Y-131145500D01*
X126716677Y-131113409D01*
X126954153Y-131049778D01*
X127181292Y-130955694D01*
X127206237Y-130941291D01*
X127239530Y-130927961D01*
X127251855Y-130924972D01*
X127322769Y-130928352D01*
X127380601Y-130969535D01*
X127406574Y-131031719D01*
X127407830Y-131041719D01*
X127407734Y-131073866D01*
X127392000Y-131193379D01*
X127392000Y-131456616D01*
X127426353Y-131717565D01*
X127426354Y-131717570D01*
X127426355Y-131717575D01*
X127494484Y-131971835D01*
X127523756Y-132042503D01*
X127595219Y-132215031D01*
X127595221Y-132215035D01*
X127602350Y-132227382D01*
X127726823Y-132442975D01*
X127726827Y-132442981D01*
X127726829Y-132442983D01*
X127811908Y-132553861D01*
X127811912Y-132553865D01*
X127811916Y-132553870D01*
X127811917Y-132553871D01*
X128570791Y-131794996D01*
X128633100Y-131760974D01*
X128703915Y-131766038D01*
X128760751Y-131808585D01*
X128764647Y-131814090D01*
X128778599Y-131834970D01*
X128890030Y-131946401D01*
X128910905Y-131960349D01*
X128956432Y-132014825D01*
X128965281Y-132085268D01*
X128934640Y-132149312D01*
X128929998Y-132154209D01*
X128171127Y-132913079D01*
X128171126Y-132913081D01*
X128171127Y-132913081D01*
X128171127Y-132913082D01*
X128282017Y-132998171D01*
X128282024Y-132998176D01*
X128509965Y-133129778D01*
X128509976Y-133129783D01*
X128753164Y-133230515D01*
X128985868Y-133292868D01*
X129018832Y-133306983D01*
X129028647Y-133312966D01*
X129076404Y-133365498D01*
X129088179Y-133435511D01*
X129060233Y-133500777D01*
X129060225Y-133500787D01*
X129056205Y-133505655D01*
X129017734Y-133536924D01*
X124928499Y-135689153D01*
X124894711Y-135701169D01*
X124880889Y-135703955D01*
X124810159Y-135697807D01*
X124753982Y-135654397D01*
X124752237Y-135651990D01*
X124730091Y-135599450D01*
X124729617Y-135596700D01*
X124727786Y-135575298D01*
X124727786Y-131104526D01*
X114543643Y-131104526D01*
X114543643Y-136351811D01*
X123141404Y-136351811D01*
X123176896Y-136356913D01*
X123187566Y-136360046D01*
X123247291Y-136398428D01*
X123276785Y-136463008D01*
X123266683Y-136533282D01*
X123230380Y-136579650D01*
X123227423Y-136581996D01*
X123207795Y-136594788D01*
X115022463Y-140902858D01*
X114994006Y-140913678D01*
X114965097Y-140920821D01*
X114934876Y-140924500D01*
X100219615Y-140924500D01*
X100184114Y-140919395D01*
X100168875Y-140914920D01*
X100109149Y-140876535D01*
X100109141Y-140876525D01*
X100107936Y-140875134D01*
X100080049Y-140819412D01*
X100078378Y-140811729D01*
X100075500Y-140784951D01*
X100075500Y-135899150D01*
X102192000Y-135899150D01*
X102192000Y-136180848D01*
X102223539Y-136460774D01*
X102286224Y-136735408D01*
X102379249Y-137001257D01*
X102379260Y-137001286D01*
X102379261Y-137001289D01*
X102379265Y-137001296D01*
X102501482Y-137255082D01*
X102534069Y-137306943D01*
X102651342Y-137493583D01*
X102651345Y-137493587D01*
X102651352Y-137493598D01*
X102651356Y-137493604D01*
X102755985Y-137624802D01*
X102755986Y-137624803D01*
X103299927Y-137080860D01*
X103362240Y-137046836D01*
X103433055Y-137051900D01*
X103478118Y-137080861D01*
X103659136Y-137261879D01*
X103693162Y-137324191D01*
X103688097Y-137395006D01*
X103659137Y-137440069D01*
X103115195Y-137984011D01*
X103115195Y-137984012D01*
X103115196Y-137984013D01*
X103246395Y-138088643D01*
X103246401Y-138088647D01*
X103484917Y-138238517D01*
X103738702Y-138360733D01*
X103738709Y-138360737D01*
X103738712Y-138360738D01*
X103738725Y-138360743D01*
X103738735Y-138360747D01*
X103738741Y-138360749D01*
X104004588Y-138453774D01*
X104004591Y-138453774D01*
X104004595Y-138453776D01*
X104175497Y-138492783D01*
X104202335Y-138507796D01*
X104279229Y-138516460D01*
X104279226Y-138516460D01*
X104446500Y-138535307D01*
X104559150Y-138548000D01*
X104840848Y-138548000D01*
X104840850Y-138548000D01*
X104911940Y-138539989D01*
X105120771Y-138516460D01*
X105395404Y-138453776D01*
X105661264Y-138360747D01*
X105661291Y-138360736D01*
X105915082Y-138238516D01*
X106153587Y-138088655D01*
X106153596Y-138088648D01*
X106284802Y-137984013D01*
X106284803Y-137984012D01*
X106284802Y-137984011D01*
X106284803Y-137984011D01*
X105740862Y-137440070D01*
X105706836Y-137377758D01*
X105711901Y-137306943D01*
X105740862Y-137261880D01*
X105921880Y-137080862D01*
X105984192Y-137046836D01*
X106055007Y-137051901D01*
X106100070Y-137080862D01*
X106644011Y-137624803D01*
X106644012Y-137624803D01*
X106644013Y-137624802D01*
X106748648Y-137493596D01*
X106748655Y-137493587D01*
X106898516Y-137255082D01*
X107020736Y-137001291D01*
X107020747Y-137001264D01*
X107113776Y-136735404D01*
X107176460Y-136460771D01*
X107208000Y-136180847D01*
X107208000Y-135899152D01*
X107176460Y-135619228D01*
X107113776Y-135344595D01*
X107020747Y-135078735D01*
X107020738Y-135078712D01*
X107020737Y-135078709D01*
X107020733Y-135078702D01*
X106898517Y-134824917D01*
X106748647Y-134586401D01*
X106748643Y-134586395D01*
X106644013Y-134455196D01*
X106644012Y-134455195D01*
X106100069Y-134999137D01*
X106037757Y-135033162D01*
X105966941Y-135028097D01*
X105921879Y-134999136D01*
X105740861Y-134818118D01*
X105706835Y-134755806D01*
X105711900Y-134684991D01*
X105740859Y-134639929D01*
X106284803Y-134095986D01*
X106284802Y-134095985D01*
X106153604Y-133991356D01*
X106153598Y-133991352D01*
X106153592Y-133991348D01*
X106153583Y-133991342D01*
X105915088Y-133841486D01*
X105915089Y-133841486D01*
X105915082Y-133841482D01*
X105729467Y-133752094D01*
X105661296Y-133719265D01*
X105661289Y-133719261D01*
X105661286Y-133719260D01*
X105661257Y-133719249D01*
X105395410Y-133626224D01*
X105224502Y-133587215D01*
X105197663Y-133572202D01*
X104840850Y-133532000D01*
X104840848Y-133532000D01*
X104559152Y-133532000D01*
X104559150Y-133532000D01*
X104279224Y-133563539D01*
X104004590Y-133626224D01*
X103738741Y-133719249D01*
X103738712Y-133719260D01*
X103738709Y-133719261D01*
X103738702Y-133719265D01*
X103590039Y-133790857D01*
X103484917Y-133841482D01*
X103484912Y-133841484D01*
X103484910Y-133841486D01*
X103246415Y-133991342D01*
X103246399Y-133991353D01*
X103246376Y-133991370D01*
X103115196Y-134095983D01*
X103115196Y-134095988D01*
X103659137Y-134639929D01*
X103693163Y-134702241D01*
X103688098Y-134773056D01*
X103659137Y-134818119D01*
X103478119Y-134999137D01*
X103415807Y-135033163D01*
X103344992Y-135028098D01*
X103299929Y-134999137D01*
X102755988Y-134455196D01*
X102755987Y-134455196D01*
X102755985Y-134455196D01*
X102755983Y-134455196D01*
X102651370Y-134586376D01*
X102651353Y-134586399D01*
X102651342Y-134586415D01*
X102505754Y-134818118D01*
X102501482Y-134824917D01*
X102450857Y-134930039D01*
X102379265Y-135078702D01*
X102379261Y-135078709D01*
X102379260Y-135078712D01*
X102379249Y-135078741D01*
X102286224Y-135344590D01*
X102223539Y-135619224D01*
X102192000Y-135899150D01*
X100075500Y-135899150D01*
X100075500Y-119282019D01*
X100851500Y-119282019D01*
X100851500Y-119487981D01*
X100883720Y-119691408D01*
X100883721Y-119691413D01*
X100883726Y-119691430D01*
X100940109Y-119864959D01*
X100947365Y-119887287D01*
X100947368Y-119887295D01*
X101040873Y-120070806D01*
X101160449Y-120235389D01*
X101161645Y-120237107D01*
X101161839Y-120237339D01*
X101307657Y-120383157D01*
X101307889Y-120383351D01*
X101309588Y-120384534D01*
X101474197Y-120504129D01*
X101657710Y-120597634D01*
X101676038Y-120603589D01*
X101802158Y-120644568D01*
X101834336Y-120660388D01*
X101843824Y-120666875D01*
X101888769Y-120721834D01*
X101896866Y-120792367D01*
X101865544Y-120856081D01*
X101865527Y-120856100D01*
X101863398Y-120858419D01*
X101809518Y-120893040D01*
X101657708Y-120942366D01*
X101474189Y-121035875D01*
X101309615Y-121155445D01*
X101308072Y-121156519D01*
X101307557Y-121156941D01*
X101161941Y-121302557D01*
X101161519Y-121303072D01*
X101160445Y-121304615D01*
X101040875Y-121469189D01*
X100947364Y-121652712D01*
X100883875Y-121848112D01*
X100883722Y-121848576D01*
X100882205Y-121857925D01*
X100882169Y-121858384D01*
X100851500Y-122052019D01*
X100851500Y-122257981D01*
X100859977Y-122311500D01*
X100877300Y-122420875D01*
X100883722Y-122461418D01*
X100903213Y-122521405D01*
X100909884Y-122541934D01*
X100947366Y-122657290D01*
X100963836Y-122689615D01*
X101040873Y-122840806D01*
X101160449Y-123005389D01*
X101161645Y-123007107D01*
X101161839Y-123007339D01*
X101307657Y-123153157D01*
X101307889Y-123153351D01*
X101309588Y-123154534D01*
X101474197Y-123274129D01*
X101657710Y-123367634D01*
X101795514Y-123412409D01*
X101802158Y-123414568D01*
X101834336Y-123430388D01*
X101843824Y-123436875D01*
X101888769Y-123491834D01*
X101896866Y-123562367D01*
X101865544Y-123626081D01*
X101865527Y-123626100D01*
X101863398Y-123628419D01*
X101809518Y-123663040D01*
X101657708Y-123712366D01*
X101474189Y-123805875D01*
X101309615Y-123925445D01*
X101308072Y-123926519D01*
X101307557Y-123926941D01*
X101161941Y-124072557D01*
X101161519Y-124073072D01*
X101160445Y-124074615D01*
X101040875Y-124239189D01*
X100947364Y-124422712D01*
X100883875Y-124618112D01*
X100883722Y-124618576D01*
X100882205Y-124627925D01*
X100882169Y-124628384D01*
X100851500Y-124822019D01*
X100851500Y-125027981D01*
X100871051Y-125151418D01*
X100877300Y-125190871D01*
X100877299Y-125190871D01*
X100883720Y-125231408D01*
X100883722Y-125231416D01*
X100937354Y-125396480D01*
X100937355Y-125396480D01*
X100947366Y-125427291D01*
X101016871Y-125563701D01*
X101040869Y-125610799D01*
X101040873Y-125610806D01*
X101043550Y-125614490D01*
X101050602Y-125624197D01*
X101160449Y-125775389D01*
X101161645Y-125777107D01*
X101161839Y-125777339D01*
X101307657Y-125923157D01*
X101307889Y-125923351D01*
X101309588Y-125924534D01*
X101474197Y-126044129D01*
X101657710Y-126137634D01*
X101795514Y-126182409D01*
X101802158Y-126184568D01*
X101834336Y-126200388D01*
X101843824Y-126206875D01*
X101888769Y-126261834D01*
X101896866Y-126332367D01*
X101865547Y-126396078D01*
X101863419Y-126398397D01*
X101809527Y-126433037D01*
X101802564Y-126435300D01*
X101657710Y-126482366D01*
X101474189Y-126575875D01*
X101309615Y-126695445D01*
X101308072Y-126696519D01*
X101307557Y-126696941D01*
X101161941Y-126842557D01*
X101161519Y-126843072D01*
X101160445Y-126844615D01*
X101040875Y-127009189D01*
X100947364Y-127192712D01*
X100883875Y-127388112D01*
X100883722Y-127388576D01*
X100882205Y-127397925D01*
X100882169Y-127398384D01*
X100851500Y-127592019D01*
X100851500Y-127797981D01*
X100868139Y-127903033D01*
X100877300Y-127960871D01*
X100877299Y-127960871D01*
X100883720Y-128001408D01*
X100883721Y-128001412D01*
X100909884Y-128081934D01*
X100947366Y-128197290D01*
X100963836Y-128229615D01*
X101040873Y-128380806D01*
X101160449Y-128545389D01*
X101161645Y-128547107D01*
X101161839Y-128547339D01*
X101307657Y-128693157D01*
X101307889Y-128693351D01*
X101309588Y-128694534D01*
X101474197Y-128814129D01*
X101657710Y-128907634D01*
X101853592Y-128971280D01*
X102057019Y-129003500D01*
X102057022Y-129003500D01*
X102262978Y-129003500D01*
X102262981Y-129003500D01*
X102466408Y-128971280D01*
X102662290Y-128907634D01*
X102845803Y-128814129D01*
X103012430Y-128693068D01*
X103158068Y-128547430D01*
X103279129Y-128380803D01*
X103372634Y-128197290D01*
X103436280Y-128001408D01*
X103468500Y-127797981D01*
X103468500Y-127592019D01*
X103436280Y-127388592D01*
X103372634Y-127192710D01*
X103279129Y-127009197D01*
X103159534Y-126844588D01*
X103158351Y-126842889D01*
X103158157Y-126842657D01*
X103012339Y-126696839D01*
X103012107Y-126696645D01*
X103010389Y-126695449D01*
X102845806Y-126575873D01*
X102845805Y-126575872D01*
X102845803Y-126575871D01*
X102751667Y-126527906D01*
X102662289Y-126482365D01*
X102517839Y-126435431D01*
X102485660Y-126419610D01*
X102476165Y-126413118D01*
X102431227Y-126358159D01*
X102423133Y-126287626D01*
X102454448Y-126223925D01*
X102456584Y-126221598D01*
X102510476Y-126186961D01*
X102662290Y-126137634D01*
X102845803Y-126044129D01*
X103012430Y-125923068D01*
X103158068Y-125777430D01*
X103279129Y-125610803D01*
X103372634Y-125427290D01*
X103436280Y-125231408D01*
X103468500Y-125027981D01*
X103468500Y-124822019D01*
X103436280Y-124618592D01*
X103372634Y-124422710D01*
X103279129Y-124239197D01*
X103159534Y-124074588D01*
X103158351Y-124072889D01*
X103158157Y-124072657D01*
X103012339Y-123926839D01*
X103012107Y-123926645D01*
X103010389Y-123925449D01*
X102845806Y-123805873D01*
X102845805Y-123805872D01*
X102845803Y-123805871D01*
X102716246Y-123739858D01*
X102662289Y-123712365D01*
X102517839Y-123665431D01*
X102485660Y-123649610D01*
X102476165Y-123643118D01*
X102431227Y-123588159D01*
X102423133Y-123517626D01*
X102454448Y-123453925D01*
X102456584Y-123451598D01*
X102510476Y-123416961D01*
X102662290Y-123367634D01*
X102845803Y-123274129D01*
X103012430Y-123153068D01*
X103158068Y-123007430D01*
X103279129Y-122840803D01*
X103372634Y-122657290D01*
X103436280Y-122461408D01*
X103468500Y-122257981D01*
X103468500Y-122052019D01*
X103436280Y-121848592D01*
X103414247Y-121780782D01*
X103408132Y-121745445D01*
X103407637Y-121728105D01*
X103424315Y-121661774D01*
X103431049Y-121650045D01*
X103451221Y-121623690D01*
X103657080Y-121417831D01*
X103670824Y-121410326D01*
X103681452Y-121398821D01*
X103685716Y-121396380D01*
X103698168Y-121389580D01*
X103715865Y-121385731D01*
X103719390Y-121383807D01*
X103723396Y-121384093D01*
X103767539Y-121374492D01*
X103834045Y-121399293D01*
X103839733Y-121403551D01*
X103876498Y-121447221D01*
X103880871Y-121455803D01*
X104000449Y-121620389D01*
X104001645Y-121622107D01*
X104001839Y-121622339D01*
X104147657Y-121768157D01*
X104147889Y-121768351D01*
X104149588Y-121769534D01*
X104314197Y-121889129D01*
X104497710Y-121982634D01*
X104635514Y-122027409D01*
X104642158Y-122029568D01*
X104674336Y-122045388D01*
X104683824Y-122051875D01*
X104728769Y-122106834D01*
X104736866Y-122177367D01*
X104705544Y-122241081D01*
X104705530Y-122241096D01*
X104703403Y-122243413D01*
X104649520Y-122278038D01*
X104507481Y-122324190D01*
X104507482Y-122324191D01*
X104497708Y-122327366D01*
X104314189Y-122420875D01*
X104149615Y-122540445D01*
X104148072Y-122541519D01*
X104147557Y-122541941D01*
X104001941Y-122687557D01*
X104001519Y-122688072D01*
X104000445Y-122689615D01*
X103880875Y-122854189D01*
X103787364Y-123037712D01*
X103723875Y-123233112D01*
X103723722Y-123233576D01*
X103722205Y-123242925D01*
X103722169Y-123243384D01*
X103691500Y-123437019D01*
X103691500Y-123642981D01*
X103706845Y-123739863D01*
X103723720Y-123846408D01*
X103723722Y-123846417D01*
X103740420Y-123897807D01*
X103749884Y-123926934D01*
X103787366Y-124042290D01*
X103863244Y-124191209D01*
X103880873Y-124225806D01*
X104000449Y-124390389D01*
X104001645Y-124392107D01*
X104001839Y-124392339D01*
X104147657Y-124538157D01*
X104147889Y-124538351D01*
X104149588Y-124539534D01*
X104314197Y-124659129D01*
X104497710Y-124752634D01*
X104593088Y-124783624D01*
X104642158Y-124799568D01*
X104674336Y-124815388D01*
X104683824Y-124821875D01*
X104728769Y-124876834D01*
X104736866Y-124947367D01*
X104705544Y-125011081D01*
X104705527Y-125011100D01*
X104703398Y-125013419D01*
X104649518Y-125048040D01*
X104497708Y-125097366D01*
X104314189Y-125190875D01*
X104149615Y-125310445D01*
X104148072Y-125311519D01*
X104147557Y-125311941D01*
X104001941Y-125457557D01*
X104001519Y-125458072D01*
X104000445Y-125459615D01*
X103880875Y-125624189D01*
X103787364Y-125807712D01*
X103723875Y-126003112D01*
X103723722Y-126003576D01*
X103722205Y-126012925D01*
X103722169Y-126013384D01*
X103691500Y-126207019D01*
X103691500Y-126412981D01*
X103716336Y-126569786D01*
X103716335Y-126569786D01*
X103723720Y-126616411D01*
X103742025Y-126672746D01*
X103783084Y-126799113D01*
X103785974Y-126808009D01*
X103787366Y-126812291D01*
X103825251Y-126886643D01*
X103876535Y-126987294D01*
X103880873Y-126995806D01*
X104000449Y-127160389D01*
X104001645Y-127162107D01*
X104001839Y-127162339D01*
X104147657Y-127308157D01*
X104147889Y-127308351D01*
X104149588Y-127309534D01*
X104314197Y-127429129D01*
X104497710Y-127522634D01*
X104635514Y-127567409D01*
X104642158Y-127569568D01*
X104674336Y-127585388D01*
X104683824Y-127591875D01*
X104728769Y-127646834D01*
X104736866Y-127717367D01*
X104705544Y-127781081D01*
X104705530Y-127781096D01*
X104703403Y-127783413D01*
X104649521Y-127818038D01*
X104567668Y-127844634D01*
X104529924Y-127856899D01*
X104497708Y-127867366D01*
X104314189Y-127960875D01*
X104149615Y-128080445D01*
X104148072Y-128081519D01*
X104147557Y-128081941D01*
X104001941Y-128227557D01*
X104001519Y-128228072D01*
X104000445Y-128229615D01*
X103880875Y-128394189D01*
X103787364Y-128577712D01*
X103723875Y-128773112D01*
X103723722Y-128773576D01*
X103722205Y-128782925D01*
X103722169Y-128783384D01*
X103691500Y-128977019D01*
X103691500Y-129182981D01*
X103712727Y-129317000D01*
X103723721Y-129386413D01*
X103723726Y-129386430D01*
X103751273Y-129471209D01*
X103786845Y-129580689D01*
X103787366Y-129582290D01*
X103866152Y-129736916D01*
X103880873Y-129765806D01*
X104000449Y-129930389D01*
X104001645Y-129932107D01*
X104001839Y-129932339D01*
X104147657Y-130078157D01*
X104147889Y-130078351D01*
X104149588Y-130079534D01*
X104314197Y-130199129D01*
X104497710Y-130292634D01*
X104693592Y-130356280D01*
X104897019Y-130388500D01*
X104897022Y-130388500D01*
X105102978Y-130388500D01*
X105102981Y-130388500D01*
X105306408Y-130356280D01*
X105502290Y-130292634D01*
X105685803Y-130199129D01*
X105852430Y-130078068D01*
X105998068Y-129932430D01*
X106119129Y-129765803D01*
X106212634Y-129582290D01*
X106276280Y-129386408D01*
X106308500Y-129182981D01*
X106308500Y-128977019D01*
X106276280Y-128773592D01*
X106212634Y-128577710D01*
X106119129Y-128394197D01*
X105999534Y-128229588D01*
X105998351Y-128227889D01*
X105998157Y-128227657D01*
X105852339Y-128081839D01*
X105852107Y-128081645D01*
X105850389Y-128080449D01*
X105685806Y-127960873D01*
X105685805Y-127960872D01*
X105685803Y-127960871D01*
X105572290Y-127903033D01*
X105502289Y-127867365D01*
X105357839Y-127820431D01*
X105325660Y-127804610D01*
X105316165Y-127798118D01*
X105271227Y-127743159D01*
X105263133Y-127672626D01*
X105294448Y-127608925D01*
X105296584Y-127606598D01*
X105350476Y-127571961D01*
X105502290Y-127522634D01*
X105685803Y-127429129D01*
X105852430Y-127308068D01*
X105852434Y-127308063D01*
X105852437Y-127308062D01*
X105998063Y-127162435D01*
X105998068Y-127162430D01*
X106119129Y-126995803D01*
X106119129Y-126995802D01*
X106122038Y-126991799D01*
X106122139Y-126991872D01*
X106134946Y-126975137D01*
X106147816Y-126961511D01*
X106206521Y-126926400D01*
X106218912Y-126923049D01*
X106219578Y-126922869D01*
X106252469Y-126918500D01*
X107585825Y-126918500D01*
X107621317Y-126923602D01*
X107636561Y-126928078D01*
X107696269Y-126966440D01*
X107697474Y-126967830D01*
X107725389Y-127023583D01*
X107737913Y-127081160D01*
X107737853Y-127081173D01*
X107738524Y-127083470D01*
X107749927Y-127140795D01*
X107762546Y-127204234D01*
X107763101Y-127206456D01*
X107765506Y-127211384D01*
X107766216Y-127213097D01*
X107805552Y-127308063D01*
X107826509Y-127358657D01*
X107873596Y-127429129D01*
X107919368Y-127497631D01*
X107919373Y-127497637D01*
X107919379Y-127497643D01*
X107919388Y-127497653D01*
X108037539Y-127615804D01*
X108037545Y-127615809D01*
X108037551Y-127615814D01*
X108037553Y-127615816D01*
X108176526Y-127708674D01*
X108330944Y-127772636D01*
X108494874Y-127805243D01*
X108578444Y-127805242D01*
X108698438Y-127805242D01*
X108782008Y-127805243D01*
X108945938Y-127772636D01*
X109100356Y-127708674D01*
X109153395Y-127673233D01*
X109185744Y-127657755D01*
X109200904Y-127653008D01*
X109271885Y-127651742D01*
X109285224Y-127655401D01*
X109321894Y-127672147D01*
X109323524Y-127673236D01*
X109376521Y-127708647D01*
X109376523Y-127708648D01*
X109376526Y-127708650D01*
X109530944Y-127772612D01*
X109694874Y-127805219D01*
X109778444Y-127805218D01*
X109898438Y-127805218D01*
X109982008Y-127805219D01*
X110145938Y-127772612D01*
X110300356Y-127708650D01*
X110353381Y-127673218D01*
X110385725Y-127657744D01*
X110400888Y-127652996D01*
X110471867Y-127651730D01*
X110485214Y-127655391D01*
X110521875Y-127672133D01*
X110576526Y-127708650D01*
X110730944Y-127772612D01*
X110894874Y-127805219D01*
X110978444Y-127805218D01*
X111098438Y-127805218D01*
X111182008Y-127805219D01*
X111345938Y-127772612D01*
X111500356Y-127708650D01*
X111553381Y-127673218D01*
X111585725Y-127657744D01*
X111600888Y-127652996D01*
X111671867Y-127651730D01*
X111685214Y-127655391D01*
X111721875Y-127672133D01*
X111776526Y-127708650D01*
X111930944Y-127772612D01*
X112094874Y-127805219D01*
X112178444Y-127805218D01*
X112298438Y-127805218D01*
X112382008Y-127805219D01*
X112545938Y-127772612D01*
X112700356Y-127708650D01*
X112839329Y-127615792D01*
X112957515Y-127497606D01*
X113050373Y-127358633D01*
X113114335Y-127204215D01*
X113143248Y-127058854D01*
X113145931Y-127047937D01*
X113149917Y-127034361D01*
X113149918Y-127034362D01*
X113156521Y-127011873D01*
X113194903Y-126952151D01*
X113196307Y-126950936D01*
X113252028Y-126923049D01*
X113259712Y-126921378D01*
X113286490Y-126918500D01*
X116089939Y-126918500D01*
X116125431Y-126923602D01*
X116140675Y-126928078D01*
X116200399Y-126966458D01*
X116205023Y-126971794D01*
X116230440Y-127017946D01*
X116232468Y-127024674D01*
X116232742Y-127025611D01*
X116232881Y-127026047D01*
X116242355Y-127057482D01*
X116245890Y-127065949D01*
X116293702Y-127213097D01*
X116367857Y-127358633D01*
X116383636Y-127389602D01*
X116450066Y-127481034D01*
X116500071Y-127549860D01*
X116500073Y-127549862D01*
X116500075Y-127549865D01*
X116640132Y-127689922D01*
X116640135Y-127689924D01*
X116640139Y-127689928D01*
X116665906Y-127708649D01*
X116800402Y-127806366D01*
X116976903Y-127896298D01*
X117165300Y-127957512D01*
X117360954Y-127988500D01*
X117360957Y-127988500D01*
X117559043Y-127988500D01*
X117559046Y-127988500D01*
X117754700Y-127957512D01*
X117922368Y-127903032D01*
X117957698Y-127896917D01*
X117975042Y-127896422D01*
X118041376Y-127913102D01*
X118053106Y-127919837D01*
X118079462Y-127940011D01*
X118626372Y-128486921D01*
X118626373Y-128486922D01*
X118626375Y-128486923D01*
X118627078Y-128487430D01*
X118629643Y-128488810D01*
X118662811Y-128507959D01*
X118691001Y-128530128D01*
X118704193Y-128543963D01*
X118735450Y-128601200D01*
X118737947Y-128611493D01*
X118741500Y-128641200D01*
X118741500Y-128798660D01*
X118748007Y-128859187D01*
X118748009Y-128859200D01*
X118748014Y-128859214D01*
X118799106Y-128996194D01*
X118799110Y-128996204D01*
X118799113Y-128996210D01*
X118886737Y-129113261D01*
X119002052Y-129199584D01*
X119003792Y-129200887D01*
X119003794Y-129200888D01*
X119003796Y-129200889D01*
X119062875Y-129222924D01*
X119101835Y-129237456D01*
X119140791Y-129251987D01*
X119140793Y-129251987D01*
X119140795Y-129251988D01*
X119140803Y-129251990D01*
X119140811Y-129251990D01*
X119140812Y-129251991D01*
X119199190Y-129258267D01*
X119200889Y-129258479D01*
X119201219Y-129258500D01*
X120798638Y-129258500D01*
X120798790Y-129258500D01*
X120799099Y-129258480D01*
X120800799Y-129258267D01*
X120814235Y-129256823D01*
X120852496Y-129252711D01*
X120856984Y-129252470D01*
X120857001Y-129252467D01*
X120858967Y-129252076D01*
X120859200Y-129251989D01*
X120859201Y-129251989D01*
X120996204Y-129200889D01*
X121113261Y-129113261D01*
X121200889Y-128996204D01*
X121251989Y-128859201D01*
X121258500Y-128798638D01*
X121258500Y-127201362D01*
X121258499Y-127201350D01*
X121251990Y-127140803D01*
X121251988Y-127140795D01*
X121214499Y-127040285D01*
X121200889Y-127003796D01*
X121200888Y-127003794D01*
X121200887Y-127003792D01*
X121194909Y-126995806D01*
X121113261Y-126886737D01*
X120996210Y-126799113D01*
X120996204Y-126799110D01*
X120996194Y-126799106D01*
X120859214Y-126748014D01*
X120859200Y-126748009D01*
X120859187Y-126748007D01*
X120798660Y-126741500D01*
X120798649Y-126741500D01*
X120798638Y-126741500D01*
X120783158Y-126741500D01*
X120747658Y-126736395D01*
X120736628Y-126733156D01*
X120676904Y-126694771D01*
X120647414Y-126630189D01*
X120657518Y-126559920D01*
X120658829Y-126557051D01*
X120699379Y-126507463D01*
X120819858Y-126419930D01*
X120959930Y-126279858D01*
X121076366Y-126119598D01*
X121166298Y-125943097D01*
X121227512Y-125754700D01*
X121258500Y-125559046D01*
X121258500Y-125360954D01*
X121230508Y-125184217D01*
X121229996Y-125148361D01*
X121232896Y-125125917D01*
X121253852Y-125070938D01*
X121256423Y-125067178D01*
X121271317Y-125049230D01*
X121363730Y-124956818D01*
X121536921Y-124783628D01*
X121617032Y-124644873D01*
X121656168Y-124498813D01*
X121658500Y-124490111D01*
X121658500Y-119864964D01*
X121617032Y-119710203D01*
X121564825Y-119619778D01*
X121536923Y-119571450D01*
X121536919Y-119571445D01*
X121491161Y-119525687D01*
X121423628Y-119458154D01*
X120597774Y-118632300D01*
X120597772Y-118632297D01*
X119767518Y-117802043D01*
X119478558Y-117513083D01*
X119478548Y-117513075D01*
X119478547Y-117513074D01*
X119478546Y-117513073D01*
X119345305Y-117436147D01*
X119342135Y-117434097D01*
X119340904Y-117433435D01*
X119339925Y-117432970D01*
X119337959Y-117432475D01*
X119262416Y-117412234D01*
X119185036Y-117391500D01*
X119185034Y-117391500D01*
X106452615Y-117391500D01*
X106417114Y-117386395D01*
X106401875Y-117381920D01*
X106342149Y-117343535D01*
X106342141Y-117343525D01*
X106340936Y-117342134D01*
X106313049Y-117286412D01*
X106311378Y-117278729D01*
X106308500Y-117251951D01*
X106308500Y-117151373D01*
X106308500Y-117151367D01*
X106308499Y-117151350D01*
X106301990Y-117090803D01*
X106301988Y-117090795D01*
X106273296Y-117013870D01*
X106250892Y-116953804D01*
X106250888Y-116953794D01*
X106250885Y-116953788D01*
X106163261Y-116836737D01*
X106046210Y-116749113D01*
X106046204Y-116749110D01*
X106046194Y-116749106D01*
X105909214Y-116698014D01*
X105909200Y-116698009D01*
X105909187Y-116698007D01*
X105848660Y-116691500D01*
X105848649Y-116691500D01*
X105848638Y-116691500D01*
X104151362Y-116691500D01*
X104151350Y-116691500D01*
X104151338Y-116691500D01*
X104090811Y-116698007D01*
X104090798Y-116698009D01*
X104090784Y-116698014D01*
X103953804Y-116749106D01*
X103953794Y-116749110D01*
X103953788Y-116749113D01*
X103836737Y-116836737D01*
X103749113Y-116953788D01*
X103749110Y-116953794D01*
X103749106Y-116953804D01*
X103698014Y-117090784D01*
X103698009Y-117090798D01*
X103698007Y-117090811D01*
X103691500Y-117151338D01*
X103691500Y-118377645D01*
X103686395Y-118413146D01*
X103678865Y-118438789D01*
X103647066Y-118492383D01*
X103530951Y-118608500D01*
X103530950Y-118608500D01*
X103464058Y-118675392D01*
X103435352Y-118696882D01*
X103422972Y-118703642D01*
X103353600Y-118718734D01*
X103287079Y-118693924D01*
X103276485Y-118685993D01*
X103250063Y-118659190D01*
X103247718Y-118655962D01*
X103158066Y-118532567D01*
X103158063Y-118532564D01*
X103158061Y-118532561D01*
X103012339Y-118386839D01*
X103012107Y-118386645D01*
X103010389Y-118385449D01*
X102845806Y-118265873D01*
X102845805Y-118265872D01*
X102845803Y-118265871D01*
X102662290Y-118172366D01*
X102662289Y-118172365D01*
X102662288Y-118172365D01*
X102475387Y-118111637D01*
X102470794Y-118109755D01*
X102461450Y-118107549D01*
X102456615Y-118107169D01*
X102262981Y-118076500D01*
X102262978Y-118076500D01*
X102057022Y-118076500D01*
X102057019Y-118076500D01*
X101863385Y-118107169D01*
X101862924Y-118107205D01*
X101853576Y-118108722D01*
X101853112Y-118108875D01*
X101657712Y-118172364D01*
X101474189Y-118265875D01*
X101309615Y-118385445D01*
X101308072Y-118386519D01*
X101307557Y-118386941D01*
X101161941Y-118532557D01*
X101161519Y-118533072D01*
X101160445Y-118534615D01*
X101040875Y-118699189D01*
X100947367Y-118882708D01*
X100947364Y-118882712D01*
X100883875Y-119078112D01*
X100883722Y-119078576D01*
X100882243Y-119087688D01*
X100882241Y-119087925D01*
X100882208Y-119088132D01*
X100851500Y-119282019D01*
X100075500Y-119282019D01*
X100075500Y-110899150D01*
X102192000Y-110899150D01*
X102192000Y-111180848D01*
X102223539Y-111460774D01*
X102286224Y-111735408D01*
X102379249Y-112001257D01*
X102379260Y-112001286D01*
X102379261Y-112001289D01*
X102379265Y-112001296D01*
X102501482Y-112255082D01*
X102534069Y-112306943D01*
X102651342Y-112493583D01*
X102651345Y-112493587D01*
X102651352Y-112493598D01*
X102651356Y-112493604D01*
X102755985Y-112624802D01*
X102755986Y-112624803D01*
X103299927Y-112080860D01*
X103362240Y-112046836D01*
X103433055Y-112051900D01*
X103478118Y-112080861D01*
X103659136Y-112261879D01*
X103693162Y-112324191D01*
X103688097Y-112395006D01*
X103659137Y-112440069D01*
X103115195Y-112984011D01*
X103115195Y-112984012D01*
X103115196Y-112984013D01*
X103246395Y-113088643D01*
X103246401Y-113088647D01*
X103484917Y-113238517D01*
X103738702Y-113360733D01*
X103738709Y-113360737D01*
X103738712Y-113360738D01*
X103738725Y-113360743D01*
X103738735Y-113360747D01*
X103738741Y-113360749D01*
X104004588Y-113453774D01*
X104004591Y-113453774D01*
X104004595Y-113453776D01*
X104175497Y-113492783D01*
X104202335Y-113507796D01*
X104279229Y-113516460D01*
X104279226Y-113516460D01*
X104446500Y-113535307D01*
X104559150Y-113548000D01*
X104840848Y-113548000D01*
X104840850Y-113548000D01*
X104911940Y-113539989D01*
X105120771Y-113516460D01*
X105395404Y-113453776D01*
X105661264Y-113360747D01*
X105661291Y-113360736D01*
X105915082Y-113238516D01*
X106153587Y-113088655D01*
X106153596Y-113088648D01*
X106284802Y-112984013D01*
X106284803Y-112984012D01*
X106284802Y-112984011D01*
X106284803Y-112984011D01*
X105740862Y-112440070D01*
X105706836Y-112377758D01*
X105711901Y-112306943D01*
X105740862Y-112261880D01*
X105921880Y-112080862D01*
X105984192Y-112046836D01*
X106055007Y-112051901D01*
X106100070Y-112080862D01*
X106644011Y-112624803D01*
X106644012Y-112624803D01*
X106644013Y-112624802D01*
X106748648Y-112493596D01*
X106748655Y-112493587D01*
X106898516Y-112255082D01*
X107020736Y-112001291D01*
X107020747Y-112001264D01*
X107113776Y-111735404D01*
X107176460Y-111460771D01*
X107208000Y-111180847D01*
X107208000Y-110899152D01*
X107176460Y-110619228D01*
X107113776Y-110344595D01*
X107020747Y-110078735D01*
X107020738Y-110078712D01*
X107020737Y-110078709D01*
X107020733Y-110078702D01*
X106898517Y-109824917D01*
X106748647Y-109586401D01*
X106748643Y-109586395D01*
X106644013Y-109455196D01*
X106644012Y-109455195D01*
X106100069Y-109999137D01*
X106037757Y-110033162D01*
X105966941Y-110028097D01*
X105921879Y-109999136D01*
X105740861Y-109818118D01*
X105706835Y-109755806D01*
X105711900Y-109684991D01*
X105740859Y-109639929D01*
X106284803Y-109095986D01*
X106284802Y-109095985D01*
X106153604Y-108991356D01*
X106153598Y-108991352D01*
X106153592Y-108991348D01*
X106153583Y-108991342D01*
X105915088Y-108841486D01*
X105915089Y-108841486D01*
X105915082Y-108841482D01*
X105729467Y-108752094D01*
X105661296Y-108719265D01*
X105661289Y-108719261D01*
X105661286Y-108719260D01*
X105661257Y-108719249D01*
X105395410Y-108626224D01*
X105224502Y-108587215D01*
X105197663Y-108572202D01*
X104840850Y-108532000D01*
X104840848Y-108532000D01*
X104559152Y-108532000D01*
X104559150Y-108532000D01*
X104279224Y-108563539D01*
X104004590Y-108626224D01*
X103738741Y-108719249D01*
X103738712Y-108719260D01*
X103738709Y-108719261D01*
X103738702Y-108719265D01*
X103590039Y-108790857D01*
X103484917Y-108841482D01*
X103484912Y-108841484D01*
X103484910Y-108841486D01*
X103246415Y-108991342D01*
X103246399Y-108991353D01*
X103246376Y-108991370D01*
X103115196Y-109095983D01*
X103115196Y-109095988D01*
X103659137Y-109639929D01*
X103693163Y-109702241D01*
X103688098Y-109773056D01*
X103659137Y-109818119D01*
X103478119Y-109999137D01*
X103415807Y-110033163D01*
X103344992Y-110028098D01*
X103299929Y-109999137D01*
X102755988Y-109455196D01*
X102755987Y-109455196D01*
X102755985Y-109455196D01*
X102755983Y-109455196D01*
X102651370Y-109586376D01*
X102651353Y-109586399D01*
X102651342Y-109586415D01*
X102505754Y-109818118D01*
X102501482Y-109824917D01*
X102450857Y-109930039D01*
X102379265Y-110078702D01*
X102379261Y-110078709D01*
X102379260Y-110078712D01*
X102379249Y-110078741D01*
X102286224Y-110344590D01*
X102223539Y-110619224D01*
X102192000Y-110899150D01*
X100075500Y-110899150D01*
X100075500Y-106219615D01*
X100080603Y-106184121D01*
X100085077Y-106168882D01*
X100123456Y-106109156D01*
X100124865Y-106107936D01*
X100180586Y-106080049D01*
X100188270Y-106078378D01*
X100215048Y-106075500D01*
X100569877Y-106075500D01*
X100569878Y-106075500D01*
X100705574Y-106042054D01*
X100744341Y-106021706D01*
X100744353Y-106021704D01*
X100773051Y-106010772D01*
X100801904Y-106003660D01*
X100832055Y-106000000D01*
X104000000Y-106000000D01*
X104000000Y-105000000D01*
X100832055Y-105000000D01*
X100801903Y-104996338D01*
X100773055Y-104989228D01*
X100744660Y-104978459D01*
X100705570Y-104957944D01*
X100705558Y-104957938D01*
X100704967Y-104957796D01*
X100569880Y-104924500D01*
X100569879Y-104924500D01*
X100569878Y-104924500D01*
X100515018Y-104924500D01*
X100219615Y-104924500D01*
X100184114Y-104919395D01*
X100168875Y-104914920D01*
X100109149Y-104876535D01*
X100109141Y-104876525D01*
X100107936Y-104875134D01*
X100080049Y-104819412D01*
X100078378Y-104811729D01*
X100075500Y-104784951D01*
X100075500Y-99819150D01*
X102192000Y-99819150D01*
X102192000Y-100100848D01*
X102223539Y-100380774D01*
X102286224Y-100655408D01*
X102379249Y-100921257D01*
X102379260Y-100921286D01*
X102379261Y-100921289D01*
X102379265Y-100921296D01*
X102501482Y-101175082D01*
X102534069Y-101226943D01*
X102651342Y-101413583D01*
X102651345Y-101413587D01*
X102651352Y-101413598D01*
X102651356Y-101413604D01*
X102755985Y-101544802D01*
X102755986Y-101544803D01*
X103299927Y-101000860D01*
X103362240Y-100966836D01*
X103433055Y-100971900D01*
X103478118Y-101000861D01*
X103659136Y-101181879D01*
X103693162Y-101244191D01*
X103688097Y-101315006D01*
X103659137Y-101360069D01*
X103115195Y-101904011D01*
X103115195Y-101904012D01*
X103115196Y-101904013D01*
X103246395Y-102008643D01*
X103246401Y-102008647D01*
X103484917Y-102158517D01*
X103738702Y-102280733D01*
X103738709Y-102280737D01*
X103738712Y-102280738D01*
X103738725Y-102280743D01*
X103738735Y-102280747D01*
X103738741Y-102280749D01*
X104004588Y-102373774D01*
X104004591Y-102373774D01*
X104004595Y-102373776D01*
X104175497Y-102412783D01*
X104202335Y-102427796D01*
X104279229Y-102436460D01*
X104279226Y-102436460D01*
X104446500Y-102455307D01*
X104559150Y-102468000D01*
X104840848Y-102468000D01*
X104840850Y-102468000D01*
X104911940Y-102459989D01*
X105120771Y-102436460D01*
X105395404Y-102373776D01*
X105661264Y-102280747D01*
X105661291Y-102280736D01*
X105915082Y-102158516D01*
X106153587Y-102008655D01*
X106153596Y-102008648D01*
X106284802Y-101904013D01*
X106284803Y-101904012D01*
X106284802Y-101904011D01*
X106284803Y-101904011D01*
X105740862Y-101360070D01*
X105706836Y-101297758D01*
X105711901Y-101226943D01*
X105740862Y-101181880D01*
X105921880Y-101000862D01*
X105984192Y-100966836D01*
X106055007Y-100971901D01*
X106100070Y-101000862D01*
X106644011Y-101544803D01*
X106644012Y-101544803D01*
X106644013Y-101544802D01*
X106748648Y-101413596D01*
X106748655Y-101413587D01*
X106898516Y-101175082D01*
X107020736Y-100921291D01*
X107020747Y-100921264D01*
X107113776Y-100655404D01*
X107176460Y-100380771D01*
X107208000Y-100100847D01*
X107208000Y-99819152D01*
X107176460Y-99539228D01*
X107113776Y-99264595D01*
X107020747Y-98998735D01*
X107020738Y-98998712D01*
X107020737Y-98998709D01*
X107020733Y-98998702D01*
X106898517Y-98744917D01*
X106748647Y-98506401D01*
X106748643Y-98506395D01*
X106644013Y-98375196D01*
X106644012Y-98375195D01*
X106100069Y-98919137D01*
X106037757Y-98953162D01*
X105966941Y-98948097D01*
X105921879Y-98919136D01*
X105740861Y-98738118D01*
X105706835Y-98675806D01*
X105711900Y-98604991D01*
X105740859Y-98559929D01*
X106284803Y-98015986D01*
X106284802Y-98015985D01*
X106153604Y-97911356D01*
X106153598Y-97911352D01*
X106153592Y-97911348D01*
X106153583Y-97911342D01*
X105915088Y-97761486D01*
X105915089Y-97761486D01*
X105915082Y-97761482D01*
X105729467Y-97672094D01*
X105661296Y-97639265D01*
X105661289Y-97639261D01*
X105661286Y-97639260D01*
X105661257Y-97639249D01*
X105395410Y-97546224D01*
X105224502Y-97507215D01*
X105197663Y-97492202D01*
X104840850Y-97452000D01*
X104840848Y-97452000D01*
X104559152Y-97452000D01*
X104559150Y-97452000D01*
X104279224Y-97483539D01*
X104004590Y-97546224D01*
X103738741Y-97639249D01*
X103738712Y-97639260D01*
X103738709Y-97639261D01*
X103738702Y-97639265D01*
X103590039Y-97710857D01*
X103484917Y-97761482D01*
X103484912Y-97761484D01*
X103484910Y-97761486D01*
X103246415Y-97911342D01*
X103246399Y-97911353D01*
X103246376Y-97911370D01*
X103115196Y-98015983D01*
X103115196Y-98015988D01*
X103659137Y-98559929D01*
X103693163Y-98622241D01*
X103688098Y-98693056D01*
X103659137Y-98738119D01*
X103478119Y-98919137D01*
X103415807Y-98953163D01*
X103344992Y-98948098D01*
X103299929Y-98919137D01*
X102755988Y-98375196D01*
X102755987Y-98375196D01*
X102755985Y-98375196D01*
X102755983Y-98375196D01*
X102651370Y-98506376D01*
X102651353Y-98506399D01*
X102651342Y-98506415D01*
X102505754Y-98738118D01*
X102501482Y-98744917D01*
X102450857Y-98850039D01*
X102379265Y-98998702D01*
X102379261Y-98998709D01*
X102379260Y-98998712D01*
X102379249Y-98998741D01*
X102286224Y-99264590D01*
X102223539Y-99539224D01*
X102192000Y-99819150D01*
X100075500Y-99819150D01*
X100075500Y-83202019D01*
X100851500Y-83202019D01*
X100851500Y-83407981D01*
X100870166Y-83525830D01*
X100877300Y-83570871D01*
X100877299Y-83570871D01*
X100880820Y-83593097D01*
X100883721Y-83611412D01*
X100917541Y-83715500D01*
X100931895Y-83759678D01*
X100947060Y-83806350D01*
X100947366Y-83807290D01*
X101028032Y-83965606D01*
X101040873Y-83990806D01*
X101160449Y-84155389D01*
X101161645Y-84157107D01*
X101161839Y-84157339D01*
X101307657Y-84303157D01*
X101307889Y-84303351D01*
X101309588Y-84304534D01*
X101474197Y-84424129D01*
X101657710Y-84517634D01*
X101795514Y-84562409D01*
X101802158Y-84564568D01*
X101834336Y-84580388D01*
X101843824Y-84586875D01*
X101888769Y-84641834D01*
X101896866Y-84712367D01*
X101865544Y-84776081D01*
X101865530Y-84776096D01*
X101863403Y-84778413D01*
X101809522Y-84813037D01*
X101756886Y-84830141D01*
X101756884Y-84830142D01*
X101657708Y-84862366D01*
X101474189Y-84955875D01*
X101309615Y-85075445D01*
X101308072Y-85076519D01*
X101307557Y-85076941D01*
X101161941Y-85222557D01*
X101161519Y-85223072D01*
X101160445Y-85224615D01*
X101040875Y-85389189D01*
X100947364Y-85572712D01*
X100883875Y-85768112D01*
X100883722Y-85768576D01*
X100882205Y-85777925D01*
X100882169Y-85778384D01*
X100851500Y-85972019D01*
X100851500Y-86177981D01*
X100866710Y-86274007D01*
X100872648Y-86311499D01*
X100883722Y-86381418D01*
X100901749Y-86436900D01*
X100901750Y-86436900D01*
X100901750Y-86436901D01*
X100947366Y-86577290D01*
X101013746Y-86707568D01*
X101040873Y-86760806D01*
X101160449Y-86925389D01*
X101161645Y-86927107D01*
X101161839Y-86927339D01*
X101307657Y-87073157D01*
X101307889Y-87073351D01*
X101309588Y-87074534D01*
X101474197Y-87194129D01*
X101657710Y-87287634D01*
X101795514Y-87332409D01*
X101802158Y-87334568D01*
X101834336Y-87350388D01*
X101843824Y-87356875D01*
X101888769Y-87411834D01*
X101896866Y-87482367D01*
X101865544Y-87546081D01*
X101865527Y-87546100D01*
X101863398Y-87548419D01*
X101809518Y-87583040D01*
X101657708Y-87632366D01*
X101474189Y-87725875D01*
X101309615Y-87845445D01*
X101308072Y-87846519D01*
X101307557Y-87846941D01*
X101161941Y-87992557D01*
X101161519Y-87993072D01*
X101160445Y-87994615D01*
X101040875Y-88159189D01*
X100947364Y-88342712D01*
X100883875Y-88538112D01*
X100883722Y-88538576D01*
X100882205Y-88547925D01*
X100882169Y-88548384D01*
X100851500Y-88742019D01*
X100851500Y-88947981D01*
X100874060Y-89090413D01*
X100877300Y-89110871D01*
X100877299Y-89110871D01*
X100883720Y-89151408D01*
X100883721Y-89151412D01*
X100909884Y-89231934D01*
X100927924Y-89287455D01*
X100947365Y-89347288D01*
X101026443Y-89502486D01*
X101040874Y-89530808D01*
X101050602Y-89544197D01*
X101160449Y-89695389D01*
X101161645Y-89697107D01*
X101161839Y-89697339D01*
X101307657Y-89843157D01*
X101307889Y-89843351D01*
X101309588Y-89844534D01*
X101474197Y-89964129D01*
X101657710Y-90057634D01*
X101795514Y-90102409D01*
X101802158Y-90104568D01*
X101834336Y-90120388D01*
X101843824Y-90126875D01*
X101888769Y-90181834D01*
X101896866Y-90252367D01*
X101865544Y-90316081D01*
X101865527Y-90316100D01*
X101863398Y-90318419D01*
X101809518Y-90353040D01*
X101657708Y-90402366D01*
X101474189Y-90495875D01*
X101309615Y-90615445D01*
X101308072Y-90616519D01*
X101307557Y-90616941D01*
X101161941Y-90762557D01*
X101161519Y-90763072D01*
X101160445Y-90764615D01*
X101040875Y-90929189D01*
X100947364Y-91112712D01*
X100883875Y-91308112D01*
X100883722Y-91308576D01*
X100882205Y-91317925D01*
X100882169Y-91318384D01*
X100851500Y-91512019D01*
X100851500Y-91717981D01*
X100883720Y-91921408D01*
X100883721Y-91921413D01*
X100883726Y-91921430D01*
X100938757Y-92090799D01*
X100947364Y-92117284D01*
X100947368Y-92117295D01*
X100964729Y-92151367D01*
X101039598Y-92298305D01*
X101040873Y-92300806D01*
X101160449Y-92465389D01*
X101161645Y-92467107D01*
X101161839Y-92467339D01*
X101307657Y-92613157D01*
X101307889Y-92613351D01*
X101309588Y-92614534D01*
X101474197Y-92734129D01*
X101657710Y-92827634D01*
X101853592Y-92891280D01*
X102057019Y-92923500D01*
X102057022Y-92923500D01*
X102262978Y-92923500D01*
X102262981Y-92923500D01*
X102466408Y-92891280D01*
X102662290Y-92827634D01*
X102845803Y-92734129D01*
X103012430Y-92613068D01*
X103158068Y-92467430D01*
X103279129Y-92300803D01*
X103372634Y-92117290D01*
X103436280Y-91921408D01*
X103468500Y-91717981D01*
X103468500Y-91512019D01*
X103436280Y-91308592D01*
X103372634Y-91112710D01*
X103279129Y-90929197D01*
X103159534Y-90764588D01*
X103158351Y-90762889D01*
X103158157Y-90762657D01*
X103012334Y-90616834D01*
X103012112Y-90616648D01*
X103010405Y-90615460D01*
X102901604Y-90536413D01*
X102886999Y-90525802D01*
X102886997Y-90525800D01*
X102853825Y-90501698D01*
X102853485Y-90501408D01*
X102845806Y-90495873D01*
X102845805Y-90495872D01*
X102845803Y-90495871D01*
X102845792Y-90495863D01*
X102845385Y-90495658D01*
X102662289Y-90402365D01*
X102517839Y-90355431D01*
X102485660Y-90339610D01*
X102476165Y-90333118D01*
X102431227Y-90278159D01*
X102423133Y-90207626D01*
X102454448Y-90143925D01*
X102456584Y-90141598D01*
X102510476Y-90106961D01*
X102662290Y-90057634D01*
X102845803Y-89964129D01*
X103012430Y-89843068D01*
X103158068Y-89697430D01*
X103279129Y-89530803D01*
X103372634Y-89347290D01*
X103436280Y-89151408D01*
X103468500Y-88947981D01*
X103468500Y-88742019D01*
X103436280Y-88538592D01*
X103414247Y-88470782D01*
X103408132Y-88435445D01*
X103407637Y-88418105D01*
X103424315Y-88351774D01*
X103429782Y-88342252D01*
X103431050Y-88340042D01*
X103451221Y-88313690D01*
X103657080Y-88107831D01*
X103670824Y-88100326D01*
X103681452Y-88088821D01*
X103685716Y-88086380D01*
X103698168Y-88079580D01*
X103715865Y-88075731D01*
X103719390Y-88073807D01*
X103723396Y-88074093D01*
X103767539Y-88064492D01*
X103834045Y-88089293D01*
X103839733Y-88093551D01*
X103876499Y-88137223D01*
X103879011Y-88142154D01*
X103879012Y-88142154D01*
X103880872Y-88145805D01*
X103900408Y-88172694D01*
X104000449Y-88310389D01*
X104001645Y-88312107D01*
X104001839Y-88312339D01*
X104147657Y-88458157D01*
X104147889Y-88458351D01*
X104149588Y-88459534D01*
X104314197Y-88579129D01*
X104497710Y-88672634D01*
X104635514Y-88717409D01*
X104642158Y-88719568D01*
X104674336Y-88735388D01*
X104683824Y-88741875D01*
X104728769Y-88796834D01*
X104736866Y-88867367D01*
X104705544Y-88931081D01*
X104705528Y-88931098D01*
X104703400Y-88933416D01*
X104649524Y-88968037D01*
X104622248Y-88976901D01*
X104622242Y-88976903D01*
X104497710Y-89017366D01*
X104314189Y-89110875D01*
X104149615Y-89230445D01*
X104148072Y-89231519D01*
X104147557Y-89231941D01*
X104001941Y-89377557D01*
X104001519Y-89378072D01*
X104000445Y-89379615D01*
X103880875Y-89544189D01*
X103787364Y-89727712D01*
X103723875Y-89923112D01*
X103723722Y-89923576D01*
X103722205Y-89932925D01*
X103722169Y-89933384D01*
X103717573Y-89962399D01*
X103691500Y-90127019D01*
X103691500Y-90332981D01*
X103723720Y-90536408D01*
X103723721Y-90536413D01*
X103723726Y-90536430D01*
X103782372Y-90716922D01*
X103787366Y-90732290D01*
X103803836Y-90764615D01*
X103880873Y-90915806D01*
X104000449Y-91080389D01*
X104001645Y-91082107D01*
X104001839Y-91082339D01*
X104147657Y-91228157D01*
X104147889Y-91228351D01*
X104149588Y-91229534D01*
X104314197Y-91349129D01*
X104497710Y-91442634D01*
X104497712Y-91442634D01*
X104497713Y-91442635D01*
X104498034Y-91442768D01*
X104498992Y-91443286D01*
X104502123Y-91444882D01*
X104502083Y-91444960D01*
X104520956Y-91455178D01*
X104527837Y-91459884D01*
X104572774Y-91514849D01*
X104580861Y-91585384D01*
X104549530Y-91649093D01*
X104490484Y-91685275D01*
X104484683Y-91686889D01*
X104450911Y-91691500D01*
X104151338Y-91691500D01*
X104090811Y-91698007D01*
X104090798Y-91698009D01*
X104090784Y-91698014D01*
X103953804Y-91749106D01*
X103953794Y-91749110D01*
X103953788Y-91749113D01*
X103836737Y-91836737D01*
X103749113Y-91953788D01*
X103749110Y-91953794D01*
X103749107Y-91953803D01*
X103698014Y-92090784D01*
X103698009Y-92090798D01*
X103698007Y-92090811D01*
X103691500Y-92151338D01*
X103691500Y-93848660D01*
X103698007Y-93909187D01*
X103698009Y-93909200D01*
X103698014Y-93909214D01*
X103749106Y-94046194D01*
X103749110Y-94046204D01*
X103749113Y-94046210D01*
X103836737Y-94163261D01*
X103952052Y-94249584D01*
X103953792Y-94250887D01*
X103953794Y-94250888D01*
X103953796Y-94250889D01*
X104012875Y-94272924D01*
X104051835Y-94287456D01*
X104090791Y-94301987D01*
X104090793Y-94301987D01*
X104090795Y-94301988D01*
X104090803Y-94301990D01*
X104090811Y-94301990D01*
X104090812Y-94301991D01*
X104149190Y-94308267D01*
X104150889Y-94308479D01*
X104151219Y-94308500D01*
X105848638Y-94308500D01*
X105848790Y-94308500D01*
X105849099Y-94308480D01*
X105850799Y-94308267D01*
X105864235Y-94306823D01*
X105902496Y-94302711D01*
X105906984Y-94302470D01*
X105907001Y-94302467D01*
X105908967Y-94302076D01*
X105909200Y-94301989D01*
X105909201Y-94301989D01*
X106046204Y-94250889D01*
X106163261Y-94163261D01*
X106250889Y-94046204D01*
X106296800Y-93923111D01*
X106313978Y-93891651D01*
X106320871Y-93882443D01*
X106377701Y-93839898D01*
X106448517Y-93834830D01*
X106510827Y-93868851D01*
X106510833Y-93868857D01*
X106515382Y-93873406D01*
X106542696Y-93914283D01*
X106598942Y-94050073D01*
X106691801Y-94189047D01*
X106691811Y-94189059D01*
X106809972Y-94307220D01*
X106809978Y-94307225D01*
X106809984Y-94307230D01*
X106809986Y-94307232D01*
X106948959Y-94400090D01*
X107103377Y-94464052D01*
X107267307Y-94496659D01*
X107350877Y-94496658D01*
X107470871Y-94496658D01*
X107554441Y-94496659D01*
X107718371Y-94464052D01*
X107872789Y-94400090D01*
X107925814Y-94364658D01*
X107958158Y-94349184D01*
X107973321Y-94344436D01*
X108044300Y-94343170D01*
X108057647Y-94346831D01*
X108094308Y-94363573D01*
X108148959Y-94400090D01*
X108303377Y-94464052D01*
X108467307Y-94496659D01*
X108550877Y-94496658D01*
X108670871Y-94496658D01*
X108754441Y-94496659D01*
X108918371Y-94464052D01*
X109072789Y-94400090D01*
X109125792Y-94364673D01*
X109158141Y-94349195D01*
X109173301Y-94344448D01*
X109244278Y-94343181D01*
X109257622Y-94346841D01*
X109294286Y-94363584D01*
X109348959Y-94400115D01*
X109503377Y-94464077D01*
X109667307Y-94496684D01*
X109750877Y-94496683D01*
X109870871Y-94496683D01*
X109954441Y-94496684D01*
X110118371Y-94464077D01*
X110272789Y-94400115D01*
X110411762Y-94307257D01*
X110529948Y-94189071D01*
X110622806Y-94050098D01*
X110686768Y-93895680D01*
X110716584Y-93745782D01*
X110719267Y-93734864D01*
X110721933Y-93725786D01*
X110728953Y-93701875D01*
X110767336Y-93642152D01*
X110768740Y-93640936D01*
X110824461Y-93613049D01*
X110832145Y-93611378D01*
X110858923Y-93608500D01*
X115270109Y-93608500D01*
X115270110Y-93608500D01*
X115270111Y-93608500D01*
X115397744Y-93574301D01*
X115424873Y-93567032D01*
X115563627Y-93486922D01*
X117044714Y-92005832D01*
X117073423Y-91984342D01*
X117093285Y-91973497D01*
X117150076Y-91958137D01*
X117153160Y-91958049D01*
X117154604Y-91958008D01*
X117177902Y-91959507D01*
X117360954Y-91988500D01*
X117360957Y-91988500D01*
X117559043Y-91988500D01*
X117559046Y-91988500D01*
X117754700Y-91957512D01*
X117943097Y-91896298D01*
X118119598Y-91806366D01*
X118279858Y-91689930D01*
X118419930Y-91549858D01*
X118502918Y-91435633D01*
X118527907Y-91409920D01*
X118537011Y-91402900D01*
X118603170Y-91377143D01*
X118672752Y-91391243D01*
X118723656Y-91440707D01*
X118725205Y-91443449D01*
X118741500Y-91505423D01*
X118741500Y-92798660D01*
X118748007Y-92859187D01*
X118748009Y-92859200D01*
X118748014Y-92859214D01*
X118799106Y-92996194D01*
X118799110Y-92996204D01*
X118799113Y-92996210D01*
X118886737Y-93113261D01*
X119002052Y-93199584D01*
X119003792Y-93200887D01*
X119003794Y-93200888D01*
X119003796Y-93200889D01*
X119062875Y-93222924D01*
X119101835Y-93237456D01*
X119140791Y-93251987D01*
X119140793Y-93251987D01*
X119140795Y-93251988D01*
X119140803Y-93251990D01*
X119140811Y-93251990D01*
X119140812Y-93251991D01*
X119199190Y-93258267D01*
X119200889Y-93258479D01*
X119201219Y-93258500D01*
X120798638Y-93258500D01*
X120798790Y-93258500D01*
X120799099Y-93258480D01*
X120800799Y-93258267D01*
X120814235Y-93256823D01*
X120852496Y-93252711D01*
X120856984Y-93252470D01*
X120857001Y-93252467D01*
X120858967Y-93252076D01*
X120859200Y-93251989D01*
X120859201Y-93251989D01*
X120996204Y-93200889D01*
X121113261Y-93113261D01*
X121200889Y-92996204D01*
X121251989Y-92859201D01*
X121258500Y-92798638D01*
X121258500Y-91201362D01*
X121254243Y-91161765D01*
X121251990Y-91140803D01*
X121251988Y-91140795D01*
X121251984Y-91140784D01*
X121200892Y-91003804D01*
X121200888Y-91003794D01*
X121200885Y-91003788D01*
X121113261Y-90886737D01*
X120996210Y-90799113D01*
X120996204Y-90799110D01*
X120996194Y-90799106D01*
X120859214Y-90748014D01*
X120859200Y-90748009D01*
X120859187Y-90748007D01*
X120798660Y-90741500D01*
X120798649Y-90741500D01*
X120798638Y-90741500D01*
X120783158Y-90741500D01*
X120747658Y-90736395D01*
X120736628Y-90733156D01*
X120676904Y-90694771D01*
X120647414Y-90630189D01*
X120657518Y-90559920D01*
X120658829Y-90557051D01*
X120699379Y-90507463D01*
X120819858Y-90419930D01*
X120959930Y-90279858D01*
X121076366Y-90119598D01*
X121166298Y-89943097D01*
X121227512Y-89754700D01*
X121258500Y-89559046D01*
X121258500Y-89360954D01*
X121227512Y-89165300D01*
X121166298Y-88976903D01*
X121076366Y-88800402D01*
X120983536Y-88672633D01*
X120959928Y-88640139D01*
X120959927Y-88640138D01*
X120959925Y-88640135D01*
X120819865Y-88500075D01*
X120819862Y-88500073D01*
X120819860Y-88500071D01*
X120667624Y-88389465D01*
X120667276Y-88389167D01*
X120659601Y-88383636D01*
X120659600Y-88383635D01*
X120659598Y-88383634D01*
X120659587Y-88383626D01*
X120659180Y-88383421D01*
X120516042Y-88310488D01*
X120486731Y-88289825D01*
X120477166Y-88280791D01*
X120441377Y-88219477D01*
X120444418Y-88148546D01*
X120481162Y-88093973D01*
X120488287Y-88087799D01*
X120513592Y-88070759D01*
X120659598Y-87996366D01*
X120819858Y-87879930D01*
X120959930Y-87739858D01*
X121076366Y-87579598D01*
X121166298Y-87403097D01*
X121227512Y-87214700D01*
X121258500Y-87019046D01*
X121258500Y-86820954D01*
X121227512Y-86625300D01*
X121166298Y-86436903D01*
X121076366Y-86260402D01*
X121036414Y-86205413D01*
X120959928Y-86100139D01*
X120959925Y-86100136D01*
X120959923Y-86100133D01*
X120819865Y-85960075D01*
X120819862Y-85960073D01*
X120819860Y-85960071D01*
X120667624Y-85849465D01*
X120667276Y-85849167D01*
X120659601Y-85843636D01*
X120659600Y-85843635D01*
X120659598Y-85843634D01*
X120659587Y-85843626D01*
X120659180Y-85843421D01*
X120516042Y-85770488D01*
X120486731Y-85749825D01*
X120477166Y-85740791D01*
X120441377Y-85679477D01*
X120444418Y-85608546D01*
X120481162Y-85553973D01*
X120488287Y-85547799D01*
X120513592Y-85530759D01*
X120659598Y-85456366D01*
X120819858Y-85339930D01*
X120959930Y-85199858D01*
X121076366Y-85039598D01*
X121166298Y-84863097D01*
X121227512Y-84674700D01*
X121258500Y-84479046D01*
X121258500Y-84280954D01*
X121227512Y-84085300D01*
X121188619Y-83965602D01*
X121186592Y-83894638D01*
X121223254Y-83833840D01*
X121240324Y-83820676D01*
X121262612Y-83806354D01*
X121313721Y-83762067D01*
X121315924Y-83760260D01*
X121411980Y-83649403D01*
X121411982Y-83649401D01*
X121472698Y-83516452D01*
X121492700Y-83448331D01*
X121513500Y-83303662D01*
X121513500Y-80126000D01*
X121501766Y-80016851D01*
X121497545Y-79997449D01*
X121490382Y-79964519D01*
X121490380Y-79964509D01*
X121455710Y-79860343D01*
X121376692Y-79737388D01*
X121332420Y-79686296D01*
X121330600Y-79684077D01*
X121219741Y-79588019D01*
X121219738Y-79588017D01*
X121086789Y-79527301D01*
X121018677Y-79507302D01*
X121018670Y-79507300D01*
X120989735Y-79503140D01*
X120874000Y-79486500D01*
X120873996Y-79486500D01*
X103125990Y-79486500D01*
X103037267Y-79496039D01*
X103016851Y-79498234D01*
X103016848Y-79498234D01*
X103016844Y-79498235D01*
X103016840Y-79498235D01*
X102964519Y-79509617D01*
X102964498Y-79509623D01*
X102860345Y-79544288D01*
X102737385Y-79623310D01*
X102686299Y-79667576D01*
X102684080Y-79669395D01*
X102588019Y-79780258D01*
X102588017Y-79780261D01*
X102527301Y-79913210D01*
X102507302Y-79981322D01*
X102507300Y-79981329D01*
X102504369Y-80001714D01*
X102486502Y-80125990D01*
X102486500Y-80126003D01*
X102486500Y-81884375D01*
X102466498Y-81952496D01*
X102412842Y-81998989D01*
X102342568Y-82009093D01*
X102340830Y-82008830D01*
X102262981Y-81996500D01*
X102262978Y-81996500D01*
X102057022Y-81996500D01*
X102057019Y-81996500D01*
X101863385Y-82027169D01*
X101862924Y-82027205D01*
X101853576Y-82028722D01*
X101853112Y-82028875D01*
X101657712Y-82092364D01*
X101474189Y-82185875D01*
X101309615Y-82305445D01*
X101308072Y-82306519D01*
X101307557Y-82306941D01*
X101161941Y-82452557D01*
X101161519Y-82453072D01*
X101160445Y-82454615D01*
X101040875Y-82619189D01*
X100947364Y-82802712D01*
X100883875Y-82998112D01*
X100883722Y-82998576D01*
X100882243Y-83007688D01*
X100882241Y-83007925D01*
X100882208Y-83008132D01*
X100851500Y-83202019D01*
X100075500Y-83202019D01*
X100075500Y-74819150D01*
X102192000Y-74819150D01*
X102192000Y-75100848D01*
X102223539Y-75380774D01*
X102286224Y-75655408D01*
X102379249Y-75921257D01*
X102379260Y-75921286D01*
X102379261Y-75921289D01*
X102379265Y-75921296D01*
X102501482Y-76175082D01*
X102534069Y-76226943D01*
X102651342Y-76413583D01*
X102651345Y-76413587D01*
X102651352Y-76413598D01*
X102651356Y-76413604D01*
X102755985Y-76544802D01*
X102755986Y-76544803D01*
X103299927Y-76000860D01*
X103362240Y-75966836D01*
X103433055Y-75971900D01*
X103478118Y-76000861D01*
X103659136Y-76181879D01*
X103693162Y-76244191D01*
X103688097Y-76315006D01*
X103659137Y-76360069D01*
X103115195Y-76904011D01*
X103115195Y-76904012D01*
X103115196Y-76904013D01*
X103246395Y-77008643D01*
X103246401Y-77008647D01*
X103484917Y-77158517D01*
X103738702Y-77280733D01*
X103738709Y-77280737D01*
X103738712Y-77280738D01*
X103738725Y-77280743D01*
X103738735Y-77280747D01*
X103738741Y-77280749D01*
X104004588Y-77373774D01*
X104004591Y-77373774D01*
X104004595Y-77373776D01*
X104175497Y-77412783D01*
X104202335Y-77427796D01*
X104279229Y-77436460D01*
X104279226Y-77436460D01*
X104446500Y-77455307D01*
X104559150Y-77468000D01*
X104840848Y-77468000D01*
X104840850Y-77468000D01*
X104911940Y-77459989D01*
X105120771Y-77436460D01*
X105395404Y-77373776D01*
X105661264Y-77280747D01*
X105661291Y-77280736D01*
X105915082Y-77158516D01*
X106153587Y-77008655D01*
X106153596Y-77008648D01*
X106284802Y-76904013D01*
X106284803Y-76904012D01*
X106284802Y-76904011D01*
X106284803Y-76904011D01*
X105740862Y-76360070D01*
X105706836Y-76297758D01*
X105711901Y-76226943D01*
X105740862Y-76181880D01*
X105921880Y-76000862D01*
X105984192Y-75966836D01*
X106055007Y-75971901D01*
X106100070Y-76000862D01*
X106644011Y-76544803D01*
X106644012Y-76544803D01*
X106644013Y-76544802D01*
X106748648Y-76413596D01*
X106748655Y-76413587D01*
X106898516Y-76175082D01*
X107020736Y-75921291D01*
X107020747Y-75921264D01*
X107113776Y-75655404D01*
X107176460Y-75380771D01*
X107208000Y-75100847D01*
X107208000Y-74819152D01*
X107176460Y-74539228D01*
X107113776Y-74264595D01*
X107020747Y-73998735D01*
X107020738Y-73998712D01*
X107020737Y-73998709D01*
X107020733Y-73998702D01*
X106898517Y-73744917D01*
X106748647Y-73506401D01*
X106748643Y-73506395D01*
X106644013Y-73375196D01*
X106644012Y-73375195D01*
X106100069Y-73919137D01*
X106037757Y-73953162D01*
X105966941Y-73948097D01*
X105921879Y-73919136D01*
X105740861Y-73738118D01*
X105706835Y-73675806D01*
X105711900Y-73604991D01*
X105740859Y-73559929D01*
X106284803Y-73015986D01*
X106284802Y-73015985D01*
X106153604Y-72911356D01*
X106153598Y-72911352D01*
X106153592Y-72911348D01*
X106153583Y-72911342D01*
X105915088Y-72761486D01*
X105915089Y-72761486D01*
X105915082Y-72761482D01*
X105729467Y-72672094D01*
X105661296Y-72639265D01*
X105661289Y-72639261D01*
X105661286Y-72639260D01*
X105661257Y-72639249D01*
X105395410Y-72546224D01*
X105224502Y-72507215D01*
X105197663Y-72492202D01*
X104840850Y-72452000D01*
X104840848Y-72452000D01*
X104559152Y-72452000D01*
X104559150Y-72452000D01*
X104279224Y-72483539D01*
X104004590Y-72546224D01*
X103738741Y-72639249D01*
X103738712Y-72639260D01*
X103738709Y-72639261D01*
X103738702Y-72639265D01*
X103590039Y-72710857D01*
X103484917Y-72761482D01*
X103484912Y-72761484D01*
X103484910Y-72761486D01*
X103246415Y-72911342D01*
X103246399Y-72911353D01*
X103246376Y-72911370D01*
X103115196Y-73015983D01*
X103115196Y-73015988D01*
X103659137Y-73559929D01*
X103693163Y-73622241D01*
X103688098Y-73693056D01*
X103659137Y-73738119D01*
X103478119Y-73919137D01*
X103415807Y-73953163D01*
X103344992Y-73948098D01*
X103299929Y-73919137D01*
X102755988Y-73375196D01*
X102755987Y-73375196D01*
X102755985Y-73375196D01*
X102755983Y-73375196D01*
X102651370Y-73506376D01*
X102651353Y-73506399D01*
X102651342Y-73506415D01*
X102505754Y-73738118D01*
X102501482Y-73744917D01*
X102450857Y-73850039D01*
X102379265Y-73998702D01*
X102379261Y-73998709D01*
X102379260Y-73998712D01*
X102379249Y-73998741D01*
X102286224Y-74264590D01*
X102223539Y-74539224D01*
X102192000Y-74819150D01*
X100075500Y-74819150D01*
X100075500Y-70219615D01*
X100080603Y-70184121D01*
X100085077Y-70168882D01*
X100123456Y-70109156D01*
X100124865Y-70107936D01*
X100180586Y-70080049D01*
X100188270Y-70078378D01*
X100215048Y-70075500D01*
X114934876Y-70075500D01*
X114965093Y-70079177D01*
G37*
G04 #@! TD.AperFunction*
M02*
