%TF.GenerationSoftware,KiCad,Pcbnew,10.0.5-unknown-202607221313~667fa36054~ubuntu25.10.1*%
%TF.CreationDate,2026-09-03T13:35:34+00:00*%
%TF.ProjectId,rack-ser-adapter-inv,7261636b-2d73-4657-922d-616461707465,rev?*%
%TF.SameCoordinates,Original*%
%TF.FileFunction,OtherDrawing,Comment*%
%FSLAX46Y46*%
G04 Gerber Fmt 4.6, Leading zero omitted, Abs format (unit mm)*
G04 Created by KiCad (PCBNEW 10.0.5-unknown-202607221313~667fa36054~ubuntu25.10.1) date 2026-09-03 13:35:34*
%MOMM*%
%LPD*%
G01*
G04 APERTURE LIST*
%ADD10C,0.150000*%
G04 APERTURE END LIST*
D10*
X80204819Y-110166665D02*
X80204819Y-109499999D01*
X80204819Y-109499999D02*
X81204819Y-109928570D01*
X81204819Y-108595237D02*
X81204819Y-109166665D01*
X81204819Y-108880951D02*
X80204819Y-108880951D01*
X80204819Y-108880951D02*
X80347676Y-108976189D01*
X80347676Y-108976189D02*
X80442914Y-109071427D01*
X80442914Y-109071427D02*
X80490533Y-109166665D01*
X81109580Y-108166665D02*
X81157200Y-108119046D01*
X81157200Y-108119046D02*
X81204819Y-108166665D01*
X81204819Y-108166665D02*
X81157200Y-108214284D01*
X81157200Y-108214284D02*
X81109580Y-108166665D01*
X81109580Y-108166665D02*
X81204819Y-108166665D01*
X80204819Y-107499999D02*
X80204819Y-107404761D01*
X80204819Y-107404761D02*
X80252438Y-107309523D01*
X80252438Y-107309523D02*
X80300057Y-107261904D01*
X80300057Y-107261904D02*
X80395295Y-107214285D01*
X80395295Y-107214285D02*
X80585771Y-107166666D01*
X80585771Y-107166666D02*
X80823866Y-107166666D01*
X80823866Y-107166666D02*
X81014342Y-107214285D01*
X81014342Y-107214285D02*
X81109580Y-107261904D01*
X81109580Y-107261904D02*
X81157200Y-107309523D01*
X81157200Y-107309523D02*
X81204819Y-107404761D01*
X81204819Y-107404761D02*
X81204819Y-107499999D01*
X81204819Y-107499999D02*
X81157200Y-107595237D01*
X81157200Y-107595237D02*
X81109580Y-107642856D01*
X81109580Y-107642856D02*
X81014342Y-107690475D01*
X81014342Y-107690475D02*
X80823866Y-107738094D01*
X80823866Y-107738094D02*
X80585771Y-107738094D01*
X80585771Y-107738094D02*
X80395295Y-107690475D01*
X80395295Y-107690475D02*
X80300057Y-107642856D01*
X80300057Y-107642856D02*
X80252438Y-107595237D01*
X80252438Y-107595237D02*
X80204819Y-107499999D01*
X80204819Y-106547618D02*
X80204819Y-106452380D01*
X80204819Y-106452380D02*
X80252438Y-106357142D01*
X80252438Y-106357142D02*
X80300057Y-106309523D01*
X80300057Y-106309523D02*
X80395295Y-106261904D01*
X80395295Y-106261904D02*
X80585771Y-106214285D01*
X80585771Y-106214285D02*
X80823866Y-106214285D01*
X80823866Y-106214285D02*
X81014342Y-106261904D01*
X81014342Y-106261904D02*
X81109580Y-106309523D01*
X81109580Y-106309523D02*
X81157200Y-106357142D01*
X81157200Y-106357142D02*
X81204819Y-106452380D01*
X81204819Y-106452380D02*
X81204819Y-106547618D01*
X81204819Y-106547618D02*
X81157200Y-106642856D01*
X81157200Y-106642856D02*
X81109580Y-106690475D01*
X81109580Y-106690475D02*
X81014342Y-106738094D01*
X81014342Y-106738094D02*
X80823866Y-106785713D01*
X80823866Y-106785713D02*
X80585771Y-106785713D01*
X80585771Y-106785713D02*
X80395295Y-106738094D01*
X80395295Y-106738094D02*
X80300057Y-106690475D01*
X80300057Y-106690475D02*
X80252438Y-106642856D01*
X80252438Y-106642856D02*
X80204819Y-106547618D01*
X80204819Y-105595237D02*
X80204819Y-105499999D01*
X80204819Y-105499999D02*
X80252438Y-105404761D01*
X80252438Y-105404761D02*
X80300057Y-105357142D01*
X80300057Y-105357142D02*
X80395295Y-105309523D01*
X80395295Y-105309523D02*
X80585771Y-105261904D01*
X80585771Y-105261904D02*
X80823866Y-105261904D01*
X80823866Y-105261904D02*
X81014342Y-105309523D01*
X81014342Y-105309523D02*
X81109580Y-105357142D01*
X81109580Y-105357142D02*
X81157200Y-105404761D01*
X81157200Y-105404761D02*
X81204819Y-105499999D01*
X81204819Y-105499999D02*
X81204819Y-105595237D01*
X81204819Y-105595237D02*
X81157200Y-105690475D01*
X81157200Y-105690475D02*
X81109580Y-105738094D01*
X81109580Y-105738094D02*
X81014342Y-105785713D01*
X81014342Y-105785713D02*
X80823866Y-105833332D01*
X80823866Y-105833332D02*
X80585771Y-105833332D01*
X80585771Y-105833332D02*
X80395295Y-105785713D01*
X80395295Y-105785713D02*
X80300057Y-105738094D01*
X80300057Y-105738094D02*
X80252438Y-105690475D01*
X80252438Y-105690475D02*
X80204819Y-105595237D01*
X80204819Y-104642856D02*
X80204819Y-104547618D01*
X80204819Y-104547618D02*
X80252438Y-104452380D01*
X80252438Y-104452380D02*
X80300057Y-104404761D01*
X80300057Y-104404761D02*
X80395295Y-104357142D01*
X80395295Y-104357142D02*
X80585771Y-104309523D01*
X80585771Y-104309523D02*
X80823866Y-104309523D01*
X80823866Y-104309523D02*
X81014342Y-104357142D01*
X81014342Y-104357142D02*
X81109580Y-104404761D01*
X81109580Y-104404761D02*
X81157200Y-104452380D01*
X81157200Y-104452380D02*
X81204819Y-104547618D01*
X81204819Y-104547618D02*
X81204819Y-104642856D01*
X81204819Y-104642856D02*
X81157200Y-104738094D01*
X81157200Y-104738094D02*
X81109580Y-104785713D01*
X81109580Y-104785713D02*
X81014342Y-104833332D01*
X81014342Y-104833332D02*
X80823866Y-104880951D01*
X80823866Y-104880951D02*
X80585771Y-104880951D01*
X80585771Y-104880951D02*
X80395295Y-104833332D01*
X80395295Y-104833332D02*
X80300057Y-104785713D01*
X80300057Y-104785713D02*
X80252438Y-104738094D01*
X80252438Y-104738094D02*
X80204819Y-104642856D01*
X81204819Y-103119046D02*
X80538152Y-103119046D01*
X80633390Y-103119046D02*
X80585771Y-103071427D01*
X80585771Y-103071427D02*
X80538152Y-102976189D01*
X80538152Y-102976189D02*
X80538152Y-102833332D01*
X80538152Y-102833332D02*
X80585771Y-102738094D01*
X80585771Y-102738094D02*
X80681009Y-102690475D01*
X80681009Y-102690475D02*
X81204819Y-102690475D01*
X80681009Y-102690475D02*
X80585771Y-102642856D01*
X80585771Y-102642856D02*
X80538152Y-102547618D01*
X80538152Y-102547618D02*
X80538152Y-102404761D01*
X80538152Y-102404761D02*
X80585771Y-102309522D01*
X80585771Y-102309522D02*
X80681009Y-102261903D01*
X80681009Y-102261903D02*
X81204819Y-102261903D01*
X81204819Y-101785713D02*
X80538152Y-101785713D01*
X80633390Y-101785713D02*
X80585771Y-101738094D01*
X80585771Y-101738094D02*
X80538152Y-101642856D01*
X80538152Y-101642856D02*
X80538152Y-101499999D01*
X80538152Y-101499999D02*
X80585771Y-101404761D01*
X80585771Y-101404761D02*
X80681009Y-101357142D01*
X80681009Y-101357142D02*
X81204819Y-101357142D01*
X80681009Y-101357142D02*
X80585771Y-101309523D01*
X80585771Y-101309523D02*
X80538152Y-101214285D01*
X80538152Y-101214285D02*
X80538152Y-101071428D01*
X80538152Y-101071428D02*
X80585771Y-100976189D01*
X80585771Y-100976189D02*
X80681009Y-100928570D01*
X80681009Y-100928570D02*
X81204819Y-100928570D01*
X100000000Y-141000000D02*
X81313580Y-141000000D01*
X100000000Y-70000000D02*
X81313580Y-70000000D01*
X81900000Y-141000000D02*
X81900000Y-70000000D01*
X81900000Y-141000000D02*
X81313579Y-139873496D01*
X81900000Y-141000000D02*
X82486421Y-139873496D01*
X81900000Y-70000000D02*
X82486421Y-71126504D01*
X81900000Y-70000000D02*
X81313579Y-71126504D01*
X112333334Y-142304819D02*
X112952381Y-142304819D01*
X112952381Y-142304819D02*
X112619048Y-142685771D01*
X112619048Y-142685771D02*
X112761905Y-142685771D01*
X112761905Y-142685771D02*
X112857143Y-142733390D01*
X112857143Y-142733390D02*
X112904762Y-142781009D01*
X112904762Y-142781009D02*
X112952381Y-142876247D01*
X112952381Y-142876247D02*
X112952381Y-143114342D01*
X112952381Y-143114342D02*
X112904762Y-143209580D01*
X112904762Y-143209580D02*
X112857143Y-143257200D01*
X112857143Y-143257200D02*
X112761905Y-143304819D01*
X112761905Y-143304819D02*
X112476191Y-143304819D01*
X112476191Y-143304819D02*
X112380953Y-143257200D01*
X112380953Y-143257200D02*
X112333334Y-143209580D01*
X113809524Y-142638152D02*
X113809524Y-143304819D01*
X113571429Y-142257200D02*
X113333334Y-142971485D01*
X113333334Y-142971485D02*
X113952381Y-142971485D01*
X114333334Y-143209580D02*
X114380953Y-143257200D01*
X114380953Y-143257200D02*
X114333334Y-143304819D01*
X114333334Y-143304819D02*
X114285715Y-143257200D01*
X114285715Y-143257200D02*
X114333334Y-143209580D01*
X114333334Y-143209580D02*
X114333334Y-143304819D01*
X115000000Y-142304819D02*
X115095238Y-142304819D01*
X115095238Y-142304819D02*
X115190476Y-142352438D01*
X115190476Y-142352438D02*
X115238095Y-142400057D01*
X115238095Y-142400057D02*
X115285714Y-142495295D01*
X115285714Y-142495295D02*
X115333333Y-142685771D01*
X115333333Y-142685771D02*
X115333333Y-142923866D01*
X115333333Y-142923866D02*
X115285714Y-143114342D01*
X115285714Y-143114342D02*
X115238095Y-143209580D01*
X115238095Y-143209580D02*
X115190476Y-143257200D01*
X115190476Y-143257200D02*
X115095238Y-143304819D01*
X115095238Y-143304819D02*
X115000000Y-143304819D01*
X115000000Y-143304819D02*
X114904762Y-143257200D01*
X114904762Y-143257200D02*
X114857143Y-143209580D01*
X114857143Y-143209580D02*
X114809524Y-143114342D01*
X114809524Y-143114342D02*
X114761905Y-142923866D01*
X114761905Y-142923866D02*
X114761905Y-142685771D01*
X114761905Y-142685771D02*
X114809524Y-142495295D01*
X114809524Y-142495295D02*
X114857143Y-142400057D01*
X114857143Y-142400057D02*
X114904762Y-142352438D01*
X114904762Y-142352438D02*
X115000000Y-142304819D01*
X115952381Y-142304819D02*
X116047619Y-142304819D01*
X116047619Y-142304819D02*
X116142857Y-142352438D01*
X116142857Y-142352438D02*
X116190476Y-142400057D01*
X116190476Y-142400057D02*
X116238095Y-142495295D01*
X116238095Y-142495295D02*
X116285714Y-142685771D01*
X116285714Y-142685771D02*
X116285714Y-142923866D01*
X116285714Y-142923866D02*
X116238095Y-143114342D01*
X116238095Y-143114342D02*
X116190476Y-143209580D01*
X116190476Y-143209580D02*
X116142857Y-143257200D01*
X116142857Y-143257200D02*
X116047619Y-143304819D01*
X116047619Y-143304819D02*
X115952381Y-143304819D01*
X115952381Y-143304819D02*
X115857143Y-143257200D01*
X115857143Y-143257200D02*
X115809524Y-143209580D01*
X115809524Y-143209580D02*
X115761905Y-143114342D01*
X115761905Y-143114342D02*
X115714286Y-142923866D01*
X115714286Y-142923866D02*
X115714286Y-142685771D01*
X115714286Y-142685771D02*
X115761905Y-142495295D01*
X115761905Y-142495295D02*
X115809524Y-142400057D01*
X115809524Y-142400057D02*
X115857143Y-142352438D01*
X115857143Y-142352438D02*
X115952381Y-142304819D01*
X116904762Y-142304819D02*
X117000000Y-142304819D01*
X117000000Y-142304819D02*
X117095238Y-142352438D01*
X117095238Y-142352438D02*
X117142857Y-142400057D01*
X117142857Y-142400057D02*
X117190476Y-142495295D01*
X117190476Y-142495295D02*
X117238095Y-142685771D01*
X117238095Y-142685771D02*
X117238095Y-142923866D01*
X117238095Y-142923866D02*
X117190476Y-143114342D01*
X117190476Y-143114342D02*
X117142857Y-143209580D01*
X117142857Y-143209580D02*
X117095238Y-143257200D01*
X117095238Y-143257200D02*
X117000000Y-143304819D01*
X117000000Y-143304819D02*
X116904762Y-143304819D01*
X116904762Y-143304819D02*
X116809524Y-143257200D01*
X116809524Y-143257200D02*
X116761905Y-143209580D01*
X116761905Y-143209580D02*
X116714286Y-143114342D01*
X116714286Y-143114342D02*
X116666667Y-142923866D01*
X116666667Y-142923866D02*
X116666667Y-142685771D01*
X116666667Y-142685771D02*
X116714286Y-142495295D01*
X116714286Y-142495295D02*
X116761905Y-142400057D01*
X116761905Y-142400057D02*
X116809524Y-142352438D01*
X116809524Y-142352438D02*
X116904762Y-142304819D01*
X117857143Y-142304819D02*
X117952381Y-142304819D01*
X117952381Y-142304819D02*
X118047619Y-142352438D01*
X118047619Y-142352438D02*
X118095238Y-142400057D01*
X118095238Y-142400057D02*
X118142857Y-142495295D01*
X118142857Y-142495295D02*
X118190476Y-142685771D01*
X118190476Y-142685771D02*
X118190476Y-142923866D01*
X118190476Y-142923866D02*
X118142857Y-143114342D01*
X118142857Y-143114342D02*
X118095238Y-143209580D01*
X118095238Y-143209580D02*
X118047619Y-143257200D01*
X118047619Y-143257200D02*
X117952381Y-143304819D01*
X117952381Y-143304819D02*
X117857143Y-143304819D01*
X117857143Y-143304819D02*
X117761905Y-143257200D01*
X117761905Y-143257200D02*
X117714286Y-143209580D01*
X117714286Y-143209580D02*
X117666667Y-143114342D01*
X117666667Y-143114342D02*
X117619048Y-142923866D01*
X117619048Y-142923866D02*
X117619048Y-142685771D01*
X117619048Y-142685771D02*
X117666667Y-142495295D01*
X117666667Y-142495295D02*
X117714286Y-142400057D01*
X117714286Y-142400057D02*
X117761905Y-142352438D01*
X117761905Y-142352438D02*
X117857143Y-142304819D01*
X119380953Y-143304819D02*
X119380953Y-142638152D01*
X119380953Y-142733390D02*
X119428572Y-142685771D01*
X119428572Y-142685771D02*
X119523810Y-142638152D01*
X119523810Y-142638152D02*
X119666667Y-142638152D01*
X119666667Y-142638152D02*
X119761905Y-142685771D01*
X119761905Y-142685771D02*
X119809524Y-142781009D01*
X119809524Y-142781009D02*
X119809524Y-143304819D01*
X119809524Y-142781009D02*
X119857143Y-142685771D01*
X119857143Y-142685771D02*
X119952381Y-142638152D01*
X119952381Y-142638152D02*
X120095238Y-142638152D01*
X120095238Y-142638152D02*
X120190477Y-142685771D01*
X120190477Y-142685771D02*
X120238096Y-142781009D01*
X120238096Y-142781009D02*
X120238096Y-143304819D01*
X120714286Y-143304819D02*
X120714286Y-142638152D01*
X120714286Y-142733390D02*
X120761905Y-142685771D01*
X120761905Y-142685771D02*
X120857143Y-142638152D01*
X120857143Y-142638152D02*
X121000000Y-142638152D01*
X121000000Y-142638152D02*
X121095238Y-142685771D01*
X121095238Y-142685771D02*
X121142857Y-142781009D01*
X121142857Y-142781009D02*
X121142857Y-143304819D01*
X121142857Y-142781009D02*
X121190476Y-142685771D01*
X121190476Y-142685771D02*
X121285714Y-142638152D01*
X121285714Y-142638152D02*
X121428571Y-142638152D01*
X121428571Y-142638152D02*
X121523810Y-142685771D01*
X121523810Y-142685771D02*
X121571429Y-142781009D01*
X121571429Y-142781009D02*
X121571429Y-143304819D01*
X100000000Y-131000000D02*
X100000000Y-144586420D01*
X134000000Y-131000000D02*
X134000000Y-144586420D01*
X100000000Y-144000000D02*
X134000000Y-144000000D01*
X100000000Y-144000000D02*
X101126504Y-143413579D01*
X100000000Y-144000000D02*
X101126504Y-144586421D01*
X134000000Y-144000000D02*
X132873496Y-144586421D01*
X134000000Y-144000000D02*
X132873496Y-143413579D01*
M02*
