G04 #@! TF.GenerationSoftware,KiCad,Pcbnew,5.1.9+dfsg1-1~bpo10+1*
G04 #@! TF.CreationDate,2021-10-21T15:09:38+00:00*
G04 #@! TF.ProjectId,rack-ser-adapter,7261636b-2d73-4657-922d-616461707465,rev?*
G04 #@! TF.SameCoordinates,Original*
G04 #@! TF.FileFunction,Legend,Top*
G04 #@! TF.FilePolarity,Positive*
%FSLAX46Y46*%
G04 Gerber Fmt 4.6, Leading zero omitted, Abs format (unit mm)*
G04 Created by KiCad (PCBNEW 5.1.9+dfsg1-1~bpo10+1) date 2021-10-21 15:09:38*
%MOMM*%
%LPD*%
G01*
G04 APERTURE LIST*
%ADD10C,0.120000*%
%ADD11C,0.150000*%
%ADD12C,2.000000*%
%ADD13C,4.400000*%
%ADD14C,3.650000*%
%ADD15C,3.400000*%
%ADD16C,1.900000*%
%ADD17C,6.100000*%
G04 APERTURE END LIST*
D10*
X97280000Y-107975000D02*
X107760000Y-107975000D01*
X107760000Y-107975000D02*
X107760000Y-138945000D01*
X107760000Y-138945000D02*
X97280000Y-138945000D01*
X108654338Y-128750000D02*
X108654338Y-129250000D01*
X108654338Y-129250000D02*
X108221325Y-129000000D01*
X108221325Y-129000000D02*
X108654338Y-128750000D01*
X115720000Y-79545000D02*
X127650000Y-79545000D01*
X115720000Y-79545000D02*
X115720000Y-95565000D01*
X115720000Y-95565000D02*
X127650000Y-95565000D01*
X134590000Y-79545000D02*
X134590000Y-95565000D01*
X131150000Y-79545000D02*
X134590000Y-79545000D01*
X120000000Y-95933000D02*
X119492000Y-96441000D01*
X119492000Y-96441000D02*
X120508000Y-96441000D01*
X120508000Y-96441000D02*
X120000000Y-95933000D01*
X131150000Y-95565000D02*
X134590000Y-95565000D01*
X97280000Y-72055000D02*
X107760000Y-72055000D01*
X107760000Y-72055000D02*
X107760000Y-103025000D01*
X107760000Y-103025000D02*
X97280000Y-103025000D01*
X108654338Y-81750000D02*
X108654338Y-82250000D01*
X108654338Y-82250000D02*
X108221325Y-82000000D01*
X108221325Y-82000000D02*
X108654338Y-81750000D01*
X115720000Y-115545000D02*
X127650000Y-115545000D01*
X115720000Y-115545000D02*
X115720000Y-131565000D01*
X115720000Y-131565000D02*
X127650000Y-131565000D01*
X134590000Y-115545000D02*
X134590000Y-131565000D01*
X131150000Y-115545000D02*
X134590000Y-115545000D01*
X120000000Y-131933000D02*
X119492000Y-132441000D01*
X119492000Y-132441000D02*
X120508000Y-132441000D01*
X120508000Y-132441000D02*
X120000000Y-131933000D01*
X131150000Y-131565000D02*
X134590000Y-131565000D01*
D11*
X108152380Y-123793333D02*
X108866666Y-123793333D01*
X109009523Y-123840952D01*
X109104761Y-123936190D01*
X109152380Y-124079047D01*
X109152380Y-124174285D01*
X108152380Y-123412380D02*
X108152380Y-122793333D01*
X108533333Y-123126666D01*
X108533333Y-122983809D01*
X108580952Y-122888571D01*
X108628571Y-122840952D01*
X108723809Y-122793333D01*
X108961904Y-122793333D01*
X109057142Y-122840952D01*
X109104761Y-122888571D01*
X109152380Y-122983809D01*
X109152380Y-123269523D01*
X109104761Y-123364761D01*
X109057142Y-123412380D01*
X114112380Y-87888333D02*
X114826666Y-87888333D01*
X114969523Y-87935952D01*
X115064761Y-88031190D01*
X115112380Y-88174047D01*
X115112380Y-88269285D01*
X114207619Y-87459761D02*
X114160000Y-87412142D01*
X114112380Y-87316904D01*
X114112380Y-87078809D01*
X114160000Y-86983571D01*
X114207619Y-86935952D01*
X114302857Y-86888333D01*
X114398095Y-86888333D01*
X114540952Y-86935952D01*
X115112380Y-87507380D01*
X115112380Y-86888333D01*
X111238095Y-71602380D02*
X111238095Y-70602380D01*
X111238095Y-71078571D02*
X111809523Y-71078571D01*
X111809523Y-71602380D02*
X111809523Y-70602380D01*
X112809523Y-71602380D02*
X112238095Y-71602380D01*
X112523809Y-71602380D02*
X112523809Y-70602380D01*
X112428571Y-70745238D01*
X112333333Y-70840476D01*
X112238095Y-70888095D01*
X111238095Y-96602380D02*
X111238095Y-95602380D01*
X111238095Y-96078571D02*
X111809523Y-96078571D01*
X111809523Y-96602380D02*
X111809523Y-95602380D01*
X112238095Y-95697619D02*
X112285714Y-95650000D01*
X112380952Y-95602380D01*
X112619047Y-95602380D01*
X112714285Y-95650000D01*
X112761904Y-95697619D01*
X112809523Y-95792857D01*
X112809523Y-95888095D01*
X112761904Y-96030952D01*
X112190476Y-96602380D01*
X112809523Y-96602380D01*
X108152380Y-87873333D02*
X108866666Y-87873333D01*
X109009523Y-87920952D01*
X109104761Y-88016190D01*
X109152380Y-88159047D01*
X109152380Y-88254285D01*
X109152380Y-86873333D02*
X109152380Y-87444761D01*
X109152380Y-87159047D02*
X108152380Y-87159047D01*
X108295238Y-87254285D01*
X108390476Y-87349523D01*
X108438095Y-87444761D01*
X111238095Y-107602380D02*
X111238095Y-106602380D01*
X111238095Y-107078571D02*
X111809523Y-107078571D01*
X111809523Y-107602380D02*
X111809523Y-106602380D01*
X112190476Y-106602380D02*
X112809523Y-106602380D01*
X112476190Y-106983333D01*
X112619047Y-106983333D01*
X112714285Y-107030952D01*
X112761904Y-107078571D01*
X112809523Y-107173809D01*
X112809523Y-107411904D01*
X112761904Y-107507142D01*
X112714285Y-107554761D01*
X112619047Y-107602380D01*
X112333333Y-107602380D01*
X112238095Y-107554761D01*
X112190476Y-107507142D01*
X111238095Y-132602380D02*
X111238095Y-131602380D01*
X111238095Y-132078571D02*
X111809523Y-132078571D01*
X111809523Y-132602380D02*
X111809523Y-131602380D01*
X112714285Y-131935714D02*
X112714285Y-132602380D01*
X112476190Y-131554761D02*
X112238095Y-132269047D01*
X112857142Y-132269047D01*
X114112380Y-123888333D02*
X114826666Y-123888333D01*
X114969523Y-123935952D01*
X115064761Y-124031190D01*
X115112380Y-124174047D01*
X115112380Y-124269285D01*
X114445714Y-122983571D02*
X115112380Y-122983571D01*
X114064761Y-123221666D02*
X114779047Y-123459761D01*
X114779047Y-122840714D01*
%LPC*%
G36*
G01*
X104200000Y-128000000D02*
X105800000Y-128000000D01*
G75*
G02*
X106000000Y-128200000I0J-200000D01*
G01*
X106000000Y-129800000D01*
G75*
G02*
X105800000Y-130000000I-200000J0D01*
G01*
X104200000Y-130000000D01*
G75*
G02*
X104000000Y-129800000I0J200000D01*
G01*
X104000000Y-128200000D01*
G75*
G02*
X104200000Y-128000000I200000J0D01*
G01*
G37*
D12*
X105000000Y-126230000D03*
X105000000Y-123460000D03*
X105000000Y-120690000D03*
X105000000Y-117920000D03*
X102160000Y-127615000D03*
X102160000Y-124845000D03*
X102160000Y-122075000D03*
X102160000Y-119305000D03*
D13*
X104700000Y-110960000D03*
X104700000Y-135960000D03*
D14*
X126350000Y-81840000D03*
D15*
X129400000Y-79785000D03*
D14*
X126350000Y-93270000D03*
D16*
X120000000Y-89460000D03*
X120000000Y-86920000D03*
X117460000Y-88190000D03*
X120000000Y-84380000D03*
G36*
G01*
X119250000Y-91050000D02*
X120750000Y-91050000D01*
G75*
G02*
X120950000Y-91250000I0J-200000D01*
G01*
X120950000Y-92750000D01*
G75*
G02*
X120750000Y-92950000I-200000J0D01*
G01*
X119250000Y-92950000D01*
G75*
G02*
X119050000Y-92750000I0J200000D01*
G01*
X119050000Y-91250000D01*
G75*
G02*
X119250000Y-91050000I200000J0D01*
G01*
G37*
X117460000Y-90730000D03*
D15*
X129400000Y-95325000D03*
D16*
X117460000Y-83110000D03*
X117460000Y-85650000D03*
D17*
X112000000Y-75000000D03*
X112000000Y-100000000D03*
G36*
G01*
X104200000Y-81000000D02*
X105800000Y-81000000D01*
G75*
G02*
X106000000Y-81200000I0J-200000D01*
G01*
X106000000Y-82800000D01*
G75*
G02*
X105800000Y-83000000I-200000J0D01*
G01*
X104200000Y-83000000D01*
G75*
G02*
X104000000Y-82800000I0J200000D01*
G01*
X104000000Y-81200000D01*
G75*
G02*
X104200000Y-81000000I200000J0D01*
G01*
G37*
D12*
X105000000Y-84770000D03*
X105000000Y-87540000D03*
X105000000Y-90310000D03*
X105000000Y-93080000D03*
X102160000Y-83385000D03*
X102160000Y-86155000D03*
X102160000Y-88925000D03*
X102160000Y-91695000D03*
D13*
X104700000Y-75040000D03*
X104700000Y-100040000D03*
D17*
X112000000Y-111000000D03*
X112000000Y-136000000D03*
D14*
X126350000Y-117840000D03*
D15*
X129400000Y-115785000D03*
D14*
X126350000Y-129270000D03*
D16*
X120000000Y-125460000D03*
X120000000Y-122920000D03*
X117460000Y-124190000D03*
X120000000Y-120380000D03*
G36*
G01*
X119250000Y-127050000D02*
X120750000Y-127050000D01*
G75*
G02*
X120950000Y-127250000I0J-200000D01*
G01*
X120950000Y-128750000D01*
G75*
G02*
X120750000Y-128950000I-200000J0D01*
G01*
X119250000Y-128950000D01*
G75*
G02*
X119050000Y-128750000I0J200000D01*
G01*
X119050000Y-127250000D01*
G75*
G02*
X119250000Y-127050000I200000J0D01*
G01*
G37*
X117460000Y-126730000D03*
D15*
X129400000Y-131325000D03*
D16*
X117460000Y-119110000D03*
X117460000Y-121650000D03*
M02*
