M48
; DRILL file KiCad 10.0.5-unknown-202607221313~667fa36054~ubuntu25.10.1 date 2026-09-01T16:17:55
; FORMAT={-:-/ absolute / inch / decimal}
; #@! TF.CreationDate,2026-09-01T16:17:55+00:00
; #@! TF.GenerationSoftware,Kicad,Pcbnew,10.0.5-unknown-202607221313~667fa36054~ubuntu25.10.1
; #@! TF.FileFunction,Plated,1,2,PTH
FMAT,2
INCH
; #@! TA.AperFunction,Plated,PTH,ViaDrill
T1C0.0157
; #@! TA.AperFunction,Plated,PTH,ComponentDrill
T2C0.0354
; #@! TA.AperFunction,Plated,PTH,ComponentDrill
T3C0.0394
; #@! TA.AperFunction,Plated,PTH,ComponentDrill
T4C0.0630
; #@! TA.AperFunction,Plated,PTH,ComponentDrill
T5C0.1260
%
G90
G05
T1
X4.252Y-3.3071
X4.2913Y-3.3465
X4.3622Y-4.7441
X4.4094Y-3.3071
X4.4331Y-4.6299
X4.4882Y-3.3071
X4.5039Y-4.7441
X4.7244Y-4.6299
T2
X4.6244Y-3.272
X4.6244Y-3.372
X4.6244Y-3.472
X4.6244Y-3.572
X4.6244Y-4.6894
X4.6244Y-4.7894
X4.6244Y-4.8894
X4.6244Y-4.9894
X4.7244Y-3.322
X4.7244Y-3.422
X4.7244Y-3.522
X4.7244Y-3.622
X4.7244Y-4.7394
X4.7244Y-4.8394
X4.7244Y-4.9394
X4.7244Y-5.0394
T3
X4.022Y-3.2829
X4.022Y-3.3919
X4.022Y-3.501
X4.022Y-3.61
X4.022Y-4.697
X4.022Y-4.8061
X4.022Y-4.9152
X4.022Y-5.0242
X4.1339Y-3.2283
X4.1339Y-3.3374
X4.1339Y-3.4465
X4.1339Y-3.5555
X4.1339Y-3.6646
X4.1339Y-4.6425
X4.1339Y-4.7516
X4.1339Y-4.8606
X4.1339Y-4.9697
X4.1339Y-5.0787
T4
X5.0945Y-3.1411
X5.0945Y-3.753
X5.0945Y-4.5585
X5.0945Y-5.1703
T5
X4.122Y-2.9543
X4.122Y-3.9386
X4.122Y-4.3685
X4.122Y-5.3528
X4.4094Y-2.9528
X4.4094Y-3.937
X4.4094Y-4.3701
X4.4094Y-5.3543
M30
