G04 #@! TF.GenerationSoftware,KiCad,Pcbnew,10.0.5-unknown-202607221313~667fa36054~ubuntu25.10.1*
G04 #@! TF.CreationDate,2026-09-01T16:06:24+00:00*
G04 #@! TF.ProjectId,rack-ser-adapter,7261636b-2d73-4657-922d-616461707465,rev?*
G04 #@! TF.SameCoordinates,Original*
G04 #@! TF.FileFunction,Legend,Top*
G04 #@! TF.FilePolarity,Positive*
%FSLAX46Y46*%
G04 Gerber Fmt 4.6, Leading zero omitted, Abs format (unit mm)*
G04 Created by KiCad (PCBNEW 10.0.5-unknown-202607221313~667fa36054~ubuntu25.10.1) date 2026-09-01 16:06:24*
%MOMM*%
%LPD*%
G01*
G04 APERTURE LIST*
%ADD10C,0.150000*%
%ADD11C,0.120000*%
%ADD12C,3.650000*%
%ADD13C,1.900000*%
%ADD14C,3.400000*%
%ADD15C,6.100000*%
%ADD16C,2.000000*%
%ADD17C,4.400000*%
G04 APERTURE END LIST*
D10*
X114114819Y-87888333D02*
X114829104Y-87888333D01*
X114829104Y-87888333D02*
X114971961Y-87935952D01*
X114971961Y-87935952D02*
X115067200Y-88031190D01*
X115067200Y-88031190D02*
X115114819Y-88174047D01*
X115114819Y-88174047D02*
X115114819Y-88269285D01*
X114210057Y-87459761D02*
X114162438Y-87412142D01*
X114162438Y-87412142D02*
X114114819Y-87316904D01*
X114114819Y-87316904D02*
X114114819Y-87078809D01*
X114114819Y-87078809D02*
X114162438Y-86983571D01*
X114162438Y-86983571D02*
X114210057Y-86935952D01*
X114210057Y-86935952D02*
X114305295Y-86888333D01*
X114305295Y-86888333D02*
X114400533Y-86888333D01*
X114400533Y-86888333D02*
X114543390Y-86935952D01*
X114543390Y-86935952D02*
X115114819Y-87507380D01*
X115114819Y-87507380D02*
X115114819Y-86888333D01*
X111238095Y-71654819D02*
X111238095Y-70654819D01*
X111238095Y-71131009D02*
X111809523Y-71131009D01*
X111809523Y-71654819D02*
X111809523Y-70654819D01*
X112809523Y-71654819D02*
X112238095Y-71654819D01*
X112523809Y-71654819D02*
X112523809Y-70654819D01*
X112523809Y-70654819D02*
X112428571Y-70797676D01*
X112428571Y-70797676D02*
X112333333Y-70892914D01*
X112333333Y-70892914D02*
X112238095Y-70940533D01*
X108154819Y-87873333D02*
X108869104Y-87873333D01*
X108869104Y-87873333D02*
X109011961Y-87920952D01*
X109011961Y-87920952D02*
X109107200Y-88016190D01*
X109107200Y-88016190D02*
X109154819Y-88159047D01*
X109154819Y-88159047D02*
X109154819Y-88254285D01*
X109154819Y-86873333D02*
X109154819Y-87444761D01*
X109154819Y-87159047D02*
X108154819Y-87159047D01*
X108154819Y-87159047D02*
X108297676Y-87254285D01*
X108297676Y-87254285D02*
X108392914Y-87349523D01*
X108392914Y-87349523D02*
X108440533Y-87444761D01*
X111238095Y-96654819D02*
X111238095Y-95654819D01*
X111238095Y-96131009D02*
X111809523Y-96131009D01*
X111809523Y-96654819D02*
X111809523Y-95654819D01*
X112238095Y-95750057D02*
X112285714Y-95702438D01*
X112285714Y-95702438D02*
X112380952Y-95654819D01*
X112380952Y-95654819D02*
X112619047Y-95654819D01*
X112619047Y-95654819D02*
X112714285Y-95702438D01*
X112714285Y-95702438D02*
X112761904Y-95750057D01*
X112761904Y-95750057D02*
X112809523Y-95845295D01*
X112809523Y-95845295D02*
X112809523Y-95940533D01*
X112809523Y-95940533D02*
X112761904Y-96083390D01*
X112761904Y-96083390D02*
X112190476Y-96654819D01*
X112190476Y-96654819D02*
X112809523Y-96654819D01*
X111238095Y-132654819D02*
X111238095Y-131654819D01*
X111238095Y-132131009D02*
X111809523Y-132131009D01*
X111809523Y-132654819D02*
X111809523Y-131654819D01*
X112714285Y-131988152D02*
X112714285Y-132654819D01*
X112476190Y-131607200D02*
X112238095Y-132321485D01*
X112238095Y-132321485D02*
X112857142Y-132321485D01*
X108154819Y-123793333D02*
X108869104Y-123793333D01*
X108869104Y-123793333D02*
X109011961Y-123840952D01*
X109011961Y-123840952D02*
X109107200Y-123936190D01*
X109107200Y-123936190D02*
X109154819Y-124079047D01*
X109154819Y-124079047D02*
X109154819Y-124174285D01*
X108154819Y-123412380D02*
X108154819Y-122793333D01*
X108154819Y-122793333D02*
X108535771Y-123126666D01*
X108535771Y-123126666D02*
X108535771Y-122983809D01*
X108535771Y-122983809D02*
X108583390Y-122888571D01*
X108583390Y-122888571D02*
X108631009Y-122840952D01*
X108631009Y-122840952D02*
X108726247Y-122793333D01*
X108726247Y-122793333D02*
X108964342Y-122793333D01*
X108964342Y-122793333D02*
X109059580Y-122840952D01*
X109059580Y-122840952D02*
X109107200Y-122888571D01*
X109107200Y-122888571D02*
X109154819Y-122983809D01*
X109154819Y-122983809D02*
X109154819Y-123269523D01*
X109154819Y-123269523D02*
X109107200Y-123364761D01*
X109107200Y-123364761D02*
X109059580Y-123412380D01*
X114114819Y-123888333D02*
X114829104Y-123888333D01*
X114829104Y-123888333D02*
X114971961Y-123935952D01*
X114971961Y-123935952D02*
X115067200Y-124031190D01*
X115067200Y-124031190D02*
X115114819Y-124174047D01*
X115114819Y-124174047D02*
X115114819Y-124269285D01*
X114448152Y-122983571D02*
X115114819Y-122983571D01*
X114067200Y-123221666D02*
X114781485Y-123459761D01*
X114781485Y-123459761D02*
X114781485Y-122840714D01*
X111238095Y-107654819D02*
X111238095Y-106654819D01*
X111238095Y-107131009D02*
X111809523Y-107131009D01*
X111809523Y-107654819D02*
X111809523Y-106654819D01*
X112190476Y-106654819D02*
X112809523Y-106654819D01*
X112809523Y-106654819D02*
X112476190Y-107035771D01*
X112476190Y-107035771D02*
X112619047Y-107035771D01*
X112619047Y-107035771D02*
X112714285Y-107083390D01*
X112714285Y-107083390D02*
X112761904Y-107131009D01*
X112761904Y-107131009D02*
X112809523Y-107226247D01*
X112809523Y-107226247D02*
X112809523Y-107464342D01*
X112809523Y-107464342D02*
X112761904Y-107559580D01*
X112761904Y-107559580D02*
X112714285Y-107607200D01*
X112714285Y-107607200D02*
X112619047Y-107654819D01*
X112619047Y-107654819D02*
X112333333Y-107654819D01*
X112333333Y-107654819D02*
X112238095Y-107607200D01*
X112238095Y-107607200D02*
X112190476Y-107559580D01*
D11*
X115720000Y-79545000D02*
X115720000Y-95565000D01*
X115720000Y-79545000D02*
X127650000Y-79545000D01*
X115720000Y-95565000D02*
X127650000Y-95565000D01*
X119492000Y-96441000D02*
X120508000Y-96441000D01*
X120000000Y-95933000D02*
X119492000Y-96441000D01*
X120508000Y-96441000D02*
X120000000Y-95933000D01*
X131150000Y-79545000D02*
X134590000Y-79545000D01*
X131150000Y-95565000D02*
X134590000Y-95565000D01*
X134590000Y-79545000D02*
X134590000Y-95565000D01*
X97280000Y-72055000D02*
X107760000Y-72055000D01*
X107760000Y-72055000D02*
X107760000Y-103025000D01*
X107760000Y-103025000D02*
X97280000Y-103025000D01*
X108221325Y-82000000D02*
X108654338Y-81750000D01*
X108654338Y-81750000D02*
X108654338Y-82250000D01*
X108654338Y-82250000D02*
X108221325Y-82000000D01*
X97280000Y-107975000D02*
X107760000Y-107975000D01*
X107760000Y-107975000D02*
X107760000Y-138945000D01*
X107760000Y-138945000D02*
X97280000Y-138945000D01*
X108221325Y-129000000D02*
X108654338Y-128750000D01*
X108654338Y-128750000D02*
X108654338Y-129250000D01*
X108654338Y-129250000D02*
X108221325Y-129000000D01*
X115720000Y-115545000D02*
X115720000Y-131565000D01*
X115720000Y-115545000D02*
X127650000Y-115545000D01*
X115720000Y-131565000D02*
X127650000Y-131565000D01*
X119492000Y-132441000D02*
X120508000Y-132441000D01*
X120000000Y-131933000D02*
X119492000Y-132441000D01*
X120508000Y-132441000D02*
X120000000Y-131933000D01*
X131150000Y-115545000D02*
X134590000Y-115545000D01*
X131150000Y-131565000D02*
X134590000Y-131565000D01*
X134590000Y-115545000D02*
X134590000Y-131565000D01*
%LPC*%
D12*
X126350000Y-93270000D03*
X126350000Y-81840000D03*
G36*
G01*
X119250000Y-91050000D02*
X120750000Y-91050000D01*
G75*
G02*
X120950000Y-91250000I0J-200000D01*
G01*
X120950000Y-92750000D01*
G75*
G02*
X120750000Y-92950000I-200000J0D01*
G01*
X119250000Y-92950000D01*
G75*
G02*
X119050000Y-92750000I0J200000D01*
G01*
X119050000Y-91250000D01*
G75*
G02*
X119250000Y-91050000I200000J0D01*
G01*
G37*
D13*
X117460000Y-90730000D03*
X120000000Y-89460000D03*
X117460000Y-88190000D03*
X120000000Y-86920000D03*
X117460000Y-85650000D03*
X120000000Y-84380000D03*
X117460000Y-83110000D03*
D14*
X129400000Y-95325000D03*
X129400000Y-79785000D03*
D15*
X112000000Y-75000000D03*
G36*
G01*
X104200000Y-81000000D02*
X105800000Y-81000000D01*
G75*
G02*
X106000000Y-81200000I0J-200000D01*
G01*
X106000000Y-82800000D01*
G75*
G02*
X105800000Y-83000000I-200000J0D01*
G01*
X104200000Y-83000000D01*
G75*
G02*
X104000000Y-82800000I0J200000D01*
G01*
X104000000Y-81200000D01*
G75*
G02*
X104200000Y-81000000I200000J0D01*
G01*
G37*
D16*
X105000000Y-84770000D03*
X105000000Y-87540000D03*
X105000000Y-90310000D03*
X105000000Y-93080000D03*
X102160000Y-83385000D03*
X102160000Y-86155000D03*
X102160000Y-88925000D03*
X102160000Y-91695000D03*
D17*
X104700000Y-75040000D03*
X104700000Y-100040000D03*
D15*
X112000000Y-100000000D03*
X112000000Y-136000000D03*
G36*
G01*
X104200000Y-128000000D02*
X105800000Y-128000000D01*
G75*
G02*
X106000000Y-128200000I0J-200000D01*
G01*
X106000000Y-129800000D01*
G75*
G02*
X105800000Y-130000000I-200000J0D01*
G01*
X104200000Y-130000000D01*
G75*
G02*
X104000000Y-129800000I0J200000D01*
G01*
X104000000Y-128200000D01*
G75*
G02*
X104200000Y-128000000I200000J0D01*
G01*
G37*
D16*
X105000000Y-126230000D03*
X105000000Y-123460000D03*
X105000000Y-120690000D03*
X105000000Y-117920000D03*
X102160000Y-127615000D03*
X102160000Y-124845000D03*
X102160000Y-122075000D03*
X102160000Y-119305000D03*
D17*
X104700000Y-110960000D03*
X104700000Y-135960000D03*
D12*
X126350000Y-129270000D03*
X126350000Y-117840000D03*
G36*
G01*
X119250000Y-127050000D02*
X120750000Y-127050000D01*
G75*
G02*
X120950000Y-127250000I0J-200000D01*
G01*
X120950000Y-128750000D01*
G75*
G02*
X120750000Y-128950000I-200000J0D01*
G01*
X119250000Y-128950000D01*
G75*
G02*
X119050000Y-128750000I0J200000D01*
G01*
X119050000Y-127250000D01*
G75*
G02*
X119250000Y-127050000I200000J0D01*
G01*
G37*
D13*
X117460000Y-126730000D03*
X120000000Y-125460000D03*
X117460000Y-124190000D03*
X120000000Y-122920000D03*
X117460000Y-121650000D03*
X120000000Y-120380000D03*
X117460000Y-119110000D03*
D14*
X129400000Y-131325000D03*
X129400000Y-115785000D03*
D15*
X112000000Y-111000000D03*
%LPD*%
M02*
