G04 #@! TF.GenerationSoftware,KiCad,Pcbnew,10.0.5-unknown-202607221313~667fa36054~ubuntu25.10.1*
G04 #@! TF.CreationDate,2026-09-01T14:47:08+00:00*
G04 #@! TF.ProjectId,rack-ser-adapter-inv,7261636b-2d73-4657-922d-616461707465,rev?*
G04 #@! TF.SameCoordinates,Original*
G04 #@! TF.FileFunction,Copper,L2,Bot*
G04 #@! TF.FilePolarity,Positive*
%FSLAX46Y46*%
G04 Gerber Fmt 4.6, Leading zero omitted, Abs format (unit mm)*
G04 Created by KiCad (PCBNEW 10.0.5-unknown-202607221313~667fa36054~ubuntu25.10.1) date 2026-09-01 14:47:08*
%MOMM*%
%LPD*%
G01*
G04 APERTURE LIST*
G04 #@! TA.AperFunction,ComponentPad*
%ADD10R,1.500000X1.500000*%
G04 #@! TD*
G04 #@! TA.AperFunction,ComponentPad*
%ADD11C,1.500000*%
G04 #@! TD*
G04 #@! TA.AperFunction,ComponentPad*
%ADD12C,3.000000*%
G04 #@! TD*
G04 #@! TA.AperFunction,ComponentPad*
%ADD13C,5.700000*%
G04 #@! TD*
G04 #@! TA.AperFunction,ComponentPad*
%ADD14R,1.600000X1.600000*%
G04 #@! TD*
G04 #@! TA.AperFunction,ComponentPad*
%ADD15C,1.600000*%
G04 #@! TD*
G04 #@! TA.AperFunction,ComponentPad*
%ADD16C,4.000000*%
G04 #@! TD*
G04 #@! TA.AperFunction,Conductor*
%ADD17C,0.200000*%
G04 #@! TD*
G04 APERTURE END LIST*
D10*
X120000000Y-92000000D03*
D11*
X117460000Y-90730000D03*
X120000000Y-89460000D03*
X117460000Y-88190000D03*
X120000000Y-86920000D03*
X117460000Y-85650000D03*
X120000000Y-84380000D03*
X117460000Y-83110000D03*
D12*
X129400000Y-95325000D03*
X129400000Y-79785000D03*
D13*
X112000000Y-75000000D03*
D14*
X105000000Y-93000000D03*
D15*
X105000000Y-90230000D03*
X105000000Y-87460000D03*
X105000000Y-84690000D03*
X105000000Y-81920000D03*
X102160000Y-91615000D03*
X102160000Y-88845000D03*
X102160000Y-86075000D03*
X102160000Y-83305000D03*
D16*
X104700000Y-74960000D03*
X104700000Y-99960000D03*
D13*
X112000000Y-100000000D03*
X112000000Y-136000000D03*
D14*
X105000000Y-118000000D03*
D15*
X105000000Y-120770000D03*
X105000000Y-123540000D03*
X105000000Y-126310000D03*
X105000000Y-129080000D03*
X102160000Y-119385000D03*
X102160000Y-122155000D03*
X102160000Y-124925000D03*
X102160000Y-127695000D03*
D16*
X104700000Y-111040000D03*
X104700000Y-136040000D03*
D10*
X120000000Y-128000000D03*
D11*
X117460000Y-126730000D03*
X120000000Y-125460000D03*
X117460000Y-124190000D03*
X120000000Y-122920000D03*
X117460000Y-121650000D03*
X120000000Y-120380000D03*
X117460000Y-119110000D03*
D12*
X129400000Y-131325000D03*
X129400000Y-115785000D03*
D13*
X112000000Y-111000000D03*
D17*
X108925175Y-91780000D02*
X108925175Y-91284161D01*
X108925175Y-92020000D02*
X108925175Y-91780000D01*
X109525175Y-91284161D02*
X109525175Y-91780000D01*
X108925175Y-92275839D02*
X108925175Y-92020000D01*
X108325175Y-92020000D02*
X108325175Y-92275839D01*
X108565175Y-92515839D02*
X108685175Y-92515839D01*
X109525175Y-92020000D02*
X109525175Y-92275848D01*
X109765175Y-92515848D02*
X109885175Y-92515848D01*
X109525175Y-91780000D02*
X109525175Y-92020000D01*
X102325000Y-91780000D02*
X108085175Y-91780000D01*
X110485175Y-91780000D02*
X114861762Y-91780000D01*
X110365175Y-91780000D02*
X110485175Y-91780000D01*
X109165175Y-91044161D02*
X109285175Y-91044161D01*
X114861762Y-91780000D02*
X119780000Y-91780000D01*
X110125175Y-92275848D02*
X110125175Y-92020000D01*
X108685175Y-92515839D02*
G75*
G03*
X108925239Y-92275839I25J240039D01*
G01*
X108925175Y-91284161D02*
G75*
G02*
X109165175Y-91044175I240025J-39D01*
G01*
X109885175Y-92515848D02*
G75*
G03*
X110125248Y-92275848I25J240048D01*
G01*
X108085175Y-91780000D02*
G75*
G02*
X108325200Y-92020000I25J-240000D01*
G01*
X109285175Y-91044161D02*
G75*
G02*
X109525239Y-91284161I25J-240039D01*
G01*
X109525175Y-92275848D02*
G75*
G03*
X109765175Y-92515825I240025J48D01*
G01*
X108325175Y-92275839D02*
G75*
G03*
X108565175Y-92515825I240025J39D01*
G01*
X110125175Y-92020000D02*
G75*
G02*
X110365175Y-91779975I240025J0D01*
G01*
X107064885Y-86754884D02*
X107064885Y-86754885D01*
X106657763Y-87162007D02*
X107064885Y-86754884D01*
X105000000Y-84690000D02*
X106046654Y-85736654D01*
X107811411Y-86347772D02*
X107896263Y-86432624D01*
X107658854Y-87348855D02*
X107743706Y-87433706D01*
X112393988Y-89460000D02*
X120000000Y-89460000D01*
X107896263Y-86772036D02*
X107658853Y-87009443D01*
X107064885Y-86754885D02*
X107234589Y-86585178D01*
X106962885Y-85499246D02*
X107047737Y-85584098D01*
X106640622Y-86330622D02*
X106233499Y-86737744D01*
X109770000Y-89460000D02*
X112393988Y-89460000D01*
X106810327Y-86160917D02*
X106640622Y-86330622D01*
X106233499Y-87077155D02*
X106318351Y-87162007D01*
X107743706Y-87433706D02*
X109770000Y-89460000D01*
X106386066Y-85736655D02*
X106623473Y-85499245D01*
X107047737Y-85923510D02*
X106810327Y-86160917D01*
X107234589Y-86585178D02*
X107471997Y-86347770D01*
X107471997Y-86347770D02*
G75*
G02*
X107811408Y-86347775I169703J-169730D01*
G01*
X107658853Y-87009443D02*
G75*
G03*
X107658902Y-87348807I169747J-169657D01*
G01*
X106318351Y-87162007D02*
G75*
G03*
X106657763Y-87162007I169706J169704D01*
G01*
X106046654Y-85736654D02*
G75*
G03*
X106386105Y-85736695I169746J169754D01*
G01*
X107896263Y-86432624D02*
G75*
G02*
X107896233Y-86772006I-169663J-169676D01*
G01*
X106233499Y-86737744D02*
G75*
G03*
X106233548Y-87077105I169701J-169656D01*
G01*
X106623473Y-85499245D02*
G75*
G02*
X106962906Y-85499224I169727J-169755D01*
G01*
X107047737Y-85584098D02*
G75*
G02*
X107047733Y-85923506I-169737J-169702D01*
G01*
X107443879Y-124925000D02*
X107443879Y-125165000D01*
X112104619Y-124465380D02*
X112279817Y-124290183D01*
X107443879Y-124178210D02*
X107443879Y-124925000D01*
X107683879Y-125911815D02*
X107803879Y-125911815D01*
X106843879Y-124925000D02*
X106843879Y-124178210D01*
X107443879Y-125165000D02*
X107443879Y-125671815D01*
X106243879Y-125165000D02*
X106243879Y-125671790D01*
X108403879Y-124925000D02*
X111645000Y-124925000D01*
X106843879Y-125671790D02*
X106843879Y-125165000D01*
X106483879Y-125911790D02*
X106603879Y-125911790D01*
X108043879Y-125671815D02*
X108043879Y-125165000D01*
X108283879Y-124925000D02*
X108403879Y-124925000D01*
X106843879Y-125165000D02*
X106843879Y-124925000D01*
X112279817Y-124290183D02*
X117460000Y-119110000D01*
X102160000Y-124925000D02*
X106003879Y-124925000D01*
X107083879Y-123938210D02*
X107203879Y-123938210D01*
X111645000Y-124925000D02*
X112104619Y-124465380D01*
X107443879Y-125671815D02*
G75*
G03*
X107683879Y-125911821I240021J15D01*
G01*
X106003879Y-124925000D02*
G75*
G02*
X106243900Y-125165000I21J-240000D01*
G01*
X106843879Y-124178210D02*
G75*
G02*
X107083879Y-123938179I240021J10D01*
G01*
X108043879Y-125165000D02*
G75*
G02*
X108283879Y-124924979I240021J0D01*
G01*
X107803879Y-125911815D02*
G75*
G03*
X108043915Y-125671815I21J240015D01*
G01*
X106243879Y-125671790D02*
G75*
G03*
X106483879Y-125911821I240021J-10D01*
G01*
X106603879Y-125911790D02*
G75*
G03*
X106843890Y-125671790I21J239990D01*
G01*
X107203879Y-123938210D02*
G75*
G02*
X107443890Y-124178210I21J-239990D01*
G01*
G04 #@! TA.AperFunction,Conductor*
G36*
X115008894Y-70090000D02*
G01*
X129193366Y-77555511D01*
X129244331Y-77604938D01*
X129260484Y-77674073D01*
X129236695Y-77740966D01*
X129180518Y-77784378D01*
X129151128Y-77791933D01*
X129007327Y-77810864D01*
X128753003Y-77879010D01*
X128509755Y-77979767D01*
X128509744Y-77979772D01*
X128281746Y-78111407D01*
X128072861Y-78271689D01*
X128072851Y-78271698D01*
X127886698Y-78457851D01*
X127886689Y-78457861D01*
X127726407Y-78666746D01*
X127594772Y-78894744D01*
X127594767Y-78894755D01*
X127494010Y-79138003D01*
X127425864Y-79392327D01*
X127391500Y-79653353D01*
X127391500Y-79916648D01*
X127409304Y-80051887D01*
X127398364Y-80122035D01*
X127351236Y-80175134D01*
X127282882Y-80194323D01*
X127221383Y-80177451D01*
X127181311Y-80154315D01*
X127181296Y-80154308D01*
X127181292Y-80154306D01*
X126954153Y-80060222D01*
X126716677Y-79996591D01*
X126716675Y-79996590D01*
X126716669Y-79996589D01*
X126472929Y-79964500D01*
X126472927Y-79964500D01*
X126227073Y-79964500D01*
X126227070Y-79964500D01*
X125983330Y-79996589D01*
X125745847Y-80060222D01*
X125518706Y-80154307D01*
X125518695Y-80154312D01*
X125305795Y-80277230D01*
X125305789Y-80277234D01*
X125110749Y-80426894D01*
X125110728Y-80426913D01*
X124936913Y-80600728D01*
X124936894Y-80600749D01*
X124787234Y-80795789D01*
X124787230Y-80795795D01*
X124664312Y-81008695D01*
X124664307Y-81008706D01*
X124570222Y-81235847D01*
X124506589Y-81473330D01*
X124474500Y-81717070D01*
X124474500Y-81962929D01*
X124506589Y-82206669D01*
X124506590Y-82206675D01*
X124506591Y-82206677D01*
X124570222Y-82444153D01*
X124664306Y-82671292D01*
X124664307Y-82671293D01*
X124664312Y-82671304D01*
X124787230Y-82884204D01*
X124787234Y-82884210D01*
X124936894Y-83079250D01*
X124936913Y-83079271D01*
X125110728Y-83253086D01*
X125110738Y-83253095D01*
X125110744Y-83253101D01*
X125110747Y-83253103D01*
X125110749Y-83253105D01*
X125305789Y-83402765D01*
X125305795Y-83402769D01*
X125518695Y-83525687D01*
X125518699Y-83525688D01*
X125518708Y-83525694D01*
X125745847Y-83619778D01*
X125983323Y-83683409D01*
X125983329Y-83683409D01*
X125983330Y-83683410D01*
X126011294Y-83687091D01*
X126227073Y-83715500D01*
X126227080Y-83715500D01*
X126472920Y-83715500D01*
X126472927Y-83715500D01*
X126716677Y-83683409D01*
X126954153Y-83619778D01*
X127181292Y-83525694D01*
X127394208Y-83402767D01*
X127589256Y-83253101D01*
X127763101Y-83079256D01*
X127912767Y-82884208D01*
X128035694Y-82671292D01*
X128129778Y-82444153D01*
X128193409Y-82206677D01*
X128225500Y-81962927D01*
X128225500Y-81717073D01*
X128217393Y-81655498D01*
X128228332Y-81585352D01*
X128275460Y-81532253D01*
X128343814Y-81513063D01*
X128405315Y-81529935D01*
X128509744Y-81590227D01*
X128509748Y-81590228D01*
X128509757Y-81590234D01*
X128753003Y-81690990D01*
X129007320Y-81759134D01*
X129007326Y-81759134D01*
X129007327Y-81759135D01*
X129037281Y-81763078D01*
X129268356Y-81793500D01*
X129268363Y-81793500D01*
X129531637Y-81793500D01*
X129531644Y-81793500D01*
X129792680Y-81759134D01*
X130046997Y-81690990D01*
X130290243Y-81590234D01*
X130518257Y-81458590D01*
X130727138Y-81298311D01*
X130913311Y-81112138D01*
X131073590Y-80903257D01*
X131205234Y-80675243D01*
X131305990Y-80431997D01*
X131374134Y-80177680D01*
X131408500Y-79916644D01*
X131408500Y-79653356D01*
X131374134Y-79392320D01*
X131305990Y-79138003D01*
X131205234Y-78894757D01*
X131205230Y-78894750D01*
X131205229Y-78894747D01*
X131190679Y-78869547D01*
X131173940Y-78800551D01*
X131197159Y-78733459D01*
X131252966Y-78689571D01*
X131323641Y-78682822D01*
X131358482Y-78695045D01*
X133857185Y-80010152D01*
X133908149Y-80059578D01*
X133924500Y-80121651D01*
X133924500Y-94878347D01*
X133904498Y-94946468D01*
X133857184Y-94989847D01*
X131423498Y-96270733D01*
X131353901Y-96284760D01*
X131287769Y-96258933D01*
X131246098Y-96201452D01*
X131242118Y-96130567D01*
X131248401Y-96111026D01*
X131305990Y-95971997D01*
X131374134Y-95717680D01*
X131408500Y-95456644D01*
X131408500Y-95193356D01*
X131374134Y-94932320D01*
X131305990Y-94678003D01*
X131205234Y-94434757D01*
X131205228Y-94434748D01*
X131205227Y-94434744D01*
X131073592Y-94206746D01*
X130913310Y-93997861D01*
X130913301Y-93997851D01*
X130727148Y-93811698D01*
X130727138Y-93811689D01*
X130518253Y-93651407D01*
X130290255Y-93519772D01*
X130290247Y-93519768D01*
X130290243Y-93519766D01*
X130046997Y-93419010D01*
X129792680Y-93350866D01*
X129792678Y-93350865D01*
X129792672Y-93350864D01*
X129531646Y-93316500D01*
X129531644Y-93316500D01*
X129268356Y-93316500D01*
X129268353Y-93316500D01*
X129007327Y-93350864D01*
X128753003Y-93419010D01*
X128514567Y-93517774D01*
X128509755Y-93519767D01*
X128509749Y-93519769D01*
X128405314Y-93580065D01*
X128336319Y-93596802D01*
X128269227Y-93573581D01*
X128225340Y-93517774D01*
X128217393Y-93454501D01*
X128225500Y-93392927D01*
X128225500Y-93147073D01*
X128193409Y-92903323D01*
X128129778Y-92665847D01*
X128035694Y-92438708D01*
X128035688Y-92438699D01*
X128035687Y-92438695D01*
X127912769Y-92225795D01*
X127912765Y-92225789D01*
X127763105Y-92030749D01*
X127763103Y-92030747D01*
X127763101Y-92030744D01*
X127763095Y-92030738D01*
X127763086Y-92030728D01*
X127589271Y-91856913D01*
X127589250Y-91856894D01*
X127394210Y-91707234D01*
X127394204Y-91707230D01*
X127181304Y-91584312D01*
X127181296Y-91584308D01*
X127181292Y-91584306D01*
X126954153Y-91490222D01*
X126716677Y-91426591D01*
X126716675Y-91426590D01*
X126716669Y-91426589D01*
X126472929Y-91394500D01*
X126472927Y-91394500D01*
X126227073Y-91394500D01*
X126227070Y-91394500D01*
X125983330Y-91426589D01*
X125745847Y-91490222D01*
X125518706Y-91584307D01*
X125518695Y-91584312D01*
X125305795Y-91707230D01*
X125305789Y-91707234D01*
X125110749Y-91856894D01*
X125110728Y-91856913D01*
X124936913Y-92030728D01*
X124936894Y-92030749D01*
X124787234Y-92225789D01*
X124787230Y-92225795D01*
X124664312Y-92438695D01*
X124664307Y-92438706D01*
X124664306Y-92438708D01*
X124629248Y-92523345D01*
X124570222Y-92665847D01*
X124506589Y-92903330D01*
X124474500Y-93147070D01*
X124474500Y-93392929D01*
X124506589Y-93636669D01*
X124506590Y-93636675D01*
X124506591Y-93636677D01*
X124570222Y-93874153D01*
X124664306Y-94101292D01*
X124664307Y-94101293D01*
X124664312Y-94101304D01*
X124787230Y-94314204D01*
X124787234Y-94314210D01*
X124936894Y-94509250D01*
X124936913Y-94509271D01*
X125110728Y-94683086D01*
X125110738Y-94683095D01*
X125110744Y-94683101D01*
X125110747Y-94683103D01*
X125110749Y-94683105D01*
X125305789Y-94832765D01*
X125305795Y-94832769D01*
X125518695Y-94955687D01*
X125518699Y-94955688D01*
X125518708Y-94955694D01*
X125745847Y-95049778D01*
X125983323Y-95113409D01*
X125983329Y-95113409D01*
X125983330Y-95113410D01*
X126011294Y-95117091D01*
X126227073Y-95145500D01*
X126227080Y-95145500D01*
X126472920Y-95145500D01*
X126472927Y-95145500D01*
X126716677Y-95113409D01*
X126954153Y-95049778D01*
X127181292Y-94955694D01*
X127181308Y-94955685D01*
X127221381Y-94932549D01*
X127290376Y-94915810D01*
X127357468Y-94939030D01*
X127401356Y-94994836D01*
X127409304Y-95058112D01*
X127391500Y-95193351D01*
X127391500Y-95456646D01*
X127425864Y-95717672D01*
X127425865Y-95717678D01*
X127425866Y-95717680D01*
X127494010Y-95971997D01*
X127594766Y-96215243D01*
X127594767Y-96215244D01*
X127594772Y-96215255D01*
X127726407Y-96443253D01*
X127886689Y-96652138D01*
X127886698Y-96652148D01*
X128072851Y-96838301D01*
X128072861Y-96838310D01*
X128072862Y-96838311D01*
X128231830Y-96960291D01*
X128281746Y-96998592D01*
X128509744Y-97130227D01*
X128509748Y-97130228D01*
X128509757Y-97130234D01*
X128753003Y-97230990D01*
X129002718Y-97297901D01*
X129063340Y-97334852D01*
X129094361Y-97398712D01*
X129085933Y-97469207D01*
X129040730Y-97523954D01*
X129028790Y-97531107D01*
X115008894Y-104910000D01*
X114950210Y-104924500D01*
X114430120Y-104924500D01*
X114294428Y-104957945D01*
X114294421Y-104957948D01*
X114241798Y-104985567D01*
X114183243Y-105000000D01*
X109999998Y-105000000D01*
X109991005Y-105008993D01*
X109928693Y-105043018D01*
X109857877Y-105037952D01*
X109830330Y-105023589D01*
X109829326Y-105022896D01*
X109705572Y-104957945D01*
X109569879Y-104924500D01*
X109569878Y-104924500D01*
X109515018Y-104924500D01*
X105524531Y-104924500D01*
X105500000Y-104924500D01*
X105430122Y-104924500D01*
X105430120Y-104924500D01*
X105294428Y-104957945D01*
X105294427Y-104957945D01*
X105170678Y-105022893D01*
X105066066Y-105115571D01*
X104986678Y-105230585D01*
X104937117Y-105361264D01*
X104920273Y-105499996D01*
X104920273Y-105500003D01*
X104937117Y-105638735D01*
X104965932Y-105714714D01*
X104986677Y-105769413D01*
X104986678Y-105769414D01*
X105066066Y-105884428D01*
X105066067Y-105884429D01*
X105066068Y-105884430D01*
X105170678Y-105977106D01*
X105294426Y-106042054D01*
X105430122Y-106075500D01*
X105430123Y-106075500D01*
X109569877Y-106075500D01*
X109569878Y-106075500D01*
X109705574Y-106042054D01*
X109829322Y-105977106D01*
X109829331Y-105977097D01*
X109830320Y-105976416D01*
X109831173Y-105976134D01*
X109836071Y-105973564D01*
X109836498Y-105974377D01*
X109897742Y-105954171D01*
X109966487Y-105971908D01*
X109991006Y-105991007D01*
X109999999Y-106000000D01*
X110000000Y-106000000D01*
X114183243Y-106000000D01*
X114241798Y-106014433D01*
X114266077Y-106027175D01*
X114294426Y-106042054D01*
X114430122Y-106075500D01*
X114484982Y-106075500D01*
X114950210Y-106075500D01*
X115008894Y-106090000D01*
X129193366Y-113555511D01*
X129244331Y-113604938D01*
X129260484Y-113674073D01*
X129236695Y-113740966D01*
X129180518Y-113784378D01*
X129151128Y-113791933D01*
X129007327Y-113810864D01*
X128753003Y-113879010D01*
X128509755Y-113979767D01*
X128509744Y-113979772D01*
X128281746Y-114111407D01*
X128072861Y-114271689D01*
X128072851Y-114271698D01*
X127886698Y-114457851D01*
X127886689Y-114457861D01*
X127726407Y-114666746D01*
X127594772Y-114894744D01*
X127594767Y-114894755D01*
X127494010Y-115138003D01*
X127425864Y-115392327D01*
X127391500Y-115653353D01*
X127391500Y-115916648D01*
X127409304Y-116051887D01*
X127398364Y-116122035D01*
X127351236Y-116175134D01*
X127282882Y-116194323D01*
X127221383Y-116177451D01*
X127181311Y-116154315D01*
X127181296Y-116154308D01*
X127181292Y-116154306D01*
X126954153Y-116060222D01*
X126716677Y-115996591D01*
X126716675Y-115996590D01*
X126716669Y-115996589D01*
X126472929Y-115964500D01*
X126472927Y-115964500D01*
X126227073Y-115964500D01*
X126227070Y-115964500D01*
X125983330Y-115996589D01*
X125745847Y-116060222D01*
X125518706Y-116154307D01*
X125518695Y-116154312D01*
X125305795Y-116277230D01*
X125305789Y-116277234D01*
X125110749Y-116426894D01*
X125110728Y-116426913D01*
X124936913Y-116600728D01*
X124936894Y-116600749D01*
X124787234Y-116795789D01*
X124787230Y-116795795D01*
X124664312Y-117008695D01*
X124664307Y-117008706D01*
X124664306Y-117008708D01*
X124630303Y-117090799D01*
X124570222Y-117235847D01*
X124506589Y-117473330D01*
X124474500Y-117717070D01*
X124474500Y-117962929D01*
X124506589Y-118206669D01*
X124506590Y-118206675D01*
X124506591Y-118206677D01*
X124570222Y-118444153D01*
X124664306Y-118671292D01*
X124664307Y-118671293D01*
X124664312Y-118671304D01*
X124787230Y-118884204D01*
X124787234Y-118884210D01*
X124936894Y-119079250D01*
X124936913Y-119079271D01*
X125110728Y-119253086D01*
X125110738Y-119253095D01*
X125110744Y-119253101D01*
X125110747Y-119253103D01*
X125110749Y-119253105D01*
X125305789Y-119402765D01*
X125305795Y-119402769D01*
X125518695Y-119525687D01*
X125518699Y-119525688D01*
X125518708Y-119525694D01*
X125745847Y-119619778D01*
X125983323Y-119683409D01*
X125983329Y-119683409D01*
X125983330Y-119683410D01*
X126011294Y-119687091D01*
X126227073Y-119715500D01*
X126227080Y-119715500D01*
X126472920Y-119715500D01*
X126472927Y-119715500D01*
X126716677Y-119683409D01*
X126954153Y-119619778D01*
X127181292Y-119525694D01*
X127394208Y-119402767D01*
X127589256Y-119253101D01*
X127763101Y-119079256D01*
X127912767Y-118884208D01*
X128035694Y-118671292D01*
X128129778Y-118444153D01*
X128193409Y-118206677D01*
X128225500Y-117962927D01*
X128225500Y-117717073D01*
X128217393Y-117655498D01*
X128228332Y-117585352D01*
X128275460Y-117532253D01*
X128343814Y-117513063D01*
X128405315Y-117529935D01*
X128509744Y-117590227D01*
X128509748Y-117590228D01*
X128509757Y-117590234D01*
X128753003Y-117690990D01*
X129007320Y-117759134D01*
X129007326Y-117759134D01*
X129007327Y-117759135D01*
X129037281Y-117763078D01*
X129268356Y-117793500D01*
X129268363Y-117793500D01*
X129531637Y-117793500D01*
X129531644Y-117793500D01*
X129792680Y-117759134D01*
X130046997Y-117690990D01*
X130290243Y-117590234D01*
X130518257Y-117458590D01*
X130727138Y-117298311D01*
X130913311Y-117112138D01*
X131073590Y-116903257D01*
X131205234Y-116675243D01*
X131305990Y-116431997D01*
X131374134Y-116177680D01*
X131408500Y-115916644D01*
X131408500Y-115653356D01*
X131374134Y-115392320D01*
X131305990Y-115138003D01*
X131205234Y-114894757D01*
X131205230Y-114894750D01*
X131205229Y-114894747D01*
X131190679Y-114869547D01*
X131173940Y-114800551D01*
X131197159Y-114733459D01*
X131252966Y-114689571D01*
X131323641Y-114682822D01*
X131358482Y-114695045D01*
X133857185Y-116010152D01*
X133908149Y-116059578D01*
X133924500Y-116121651D01*
X133924500Y-130878347D01*
X133904498Y-130946468D01*
X133857184Y-130989847D01*
X131423498Y-132270733D01*
X131353901Y-132284760D01*
X131287769Y-132258933D01*
X131246098Y-132201452D01*
X131242118Y-132130567D01*
X131248401Y-132111026D01*
X131305990Y-131971997D01*
X131374134Y-131717680D01*
X131408500Y-131456644D01*
X131408500Y-131193356D01*
X131374134Y-130932320D01*
X131305990Y-130678003D01*
X131205234Y-130434757D01*
X131205228Y-130434748D01*
X131205227Y-130434744D01*
X131073592Y-130206746D01*
X131067417Y-130198699D01*
X130913311Y-129997862D01*
X130913310Y-129997861D01*
X130913301Y-129997851D01*
X130727148Y-129811698D01*
X130727138Y-129811689D01*
X130518253Y-129651407D01*
X130290255Y-129519772D01*
X130290247Y-129519768D01*
X130290243Y-129519766D01*
X130046997Y-129419010D01*
X129792680Y-129350866D01*
X129792678Y-129350865D01*
X129792672Y-129350864D01*
X129531646Y-129316500D01*
X129531644Y-129316500D01*
X129268356Y-129316500D01*
X129268353Y-129316500D01*
X129007327Y-129350864D01*
X128753003Y-129419010D01*
X128514567Y-129517774D01*
X128509755Y-129519767D01*
X128509749Y-129519769D01*
X128405314Y-129580065D01*
X128336319Y-129596802D01*
X128269227Y-129573581D01*
X128225340Y-129517774D01*
X128217393Y-129454501D01*
X128225500Y-129392927D01*
X128225500Y-129147073D01*
X128193409Y-128903323D01*
X128129778Y-128665847D01*
X128035694Y-128438708D01*
X128035688Y-128438699D01*
X128035687Y-128438695D01*
X127912769Y-128225795D01*
X127912765Y-128225789D01*
X127763105Y-128030749D01*
X127763103Y-128030747D01*
X127763101Y-128030744D01*
X127763095Y-128030738D01*
X127763086Y-128030728D01*
X127589271Y-127856913D01*
X127589250Y-127856894D01*
X127394210Y-127707234D01*
X127394204Y-127707230D01*
X127181304Y-127584312D01*
X127181296Y-127584308D01*
X127181292Y-127584306D01*
X126954153Y-127490222D01*
X126716677Y-127426591D01*
X126716675Y-127426590D01*
X126716669Y-127426589D01*
X126472929Y-127394500D01*
X126472927Y-127394500D01*
X126227073Y-127394500D01*
X126227070Y-127394500D01*
X125983330Y-127426589D01*
X125983323Y-127426591D01*
X125745847Y-127490222D01*
X125667598Y-127522634D01*
X125518706Y-127584307D01*
X125518695Y-127584312D01*
X125305795Y-127707230D01*
X125305789Y-127707234D01*
X125110749Y-127856894D01*
X125110728Y-127856913D01*
X124936913Y-128030728D01*
X124936894Y-128030749D01*
X124787234Y-128225789D01*
X124787230Y-128225795D01*
X124664312Y-128438695D01*
X124664307Y-128438706D01*
X124570222Y-128665847D01*
X124506589Y-128903330D01*
X124474500Y-129147070D01*
X124474500Y-129392929D01*
X124506589Y-129636669D01*
X124506590Y-129636675D01*
X124506591Y-129636677D01*
X124570222Y-129874153D01*
X124664306Y-130101292D01*
X124664307Y-130101293D01*
X124664312Y-130101304D01*
X124787230Y-130314204D01*
X124787234Y-130314210D01*
X124936894Y-130509250D01*
X124936913Y-130509271D01*
X125110728Y-130683086D01*
X125110738Y-130683095D01*
X125110744Y-130683101D01*
X125110747Y-130683103D01*
X125110749Y-130683105D01*
X125305789Y-130832765D01*
X125305795Y-130832769D01*
X125518695Y-130955687D01*
X125518699Y-130955688D01*
X125518708Y-130955694D01*
X125745847Y-131049778D01*
X125983323Y-131113409D01*
X125983329Y-131113409D01*
X125983330Y-131113410D01*
X126011294Y-131117091D01*
X126227073Y-131145500D01*
X126227080Y-131145500D01*
X126472920Y-131145500D01*
X126472927Y-131145500D01*
X126716677Y-131113409D01*
X126954153Y-131049778D01*
X127181292Y-130955694D01*
X127181308Y-130955685D01*
X127221381Y-130932549D01*
X127290376Y-130915810D01*
X127357468Y-130939030D01*
X127401356Y-130994836D01*
X127409304Y-131058112D01*
X127391500Y-131193351D01*
X127391500Y-131456646D01*
X127425864Y-131717672D01*
X127425865Y-131717678D01*
X127425866Y-131717680D01*
X127494010Y-131971997D01*
X127594766Y-132215243D01*
X127594767Y-132215244D01*
X127594772Y-132215255D01*
X127726407Y-132443253D01*
X127886689Y-132652138D01*
X127886698Y-132652148D01*
X128072851Y-132838301D01*
X128072861Y-132838310D01*
X128072862Y-132838311D01*
X128231830Y-132960291D01*
X128281746Y-132998592D01*
X128509744Y-133130227D01*
X128509748Y-133130228D01*
X128509757Y-133130234D01*
X128753003Y-133230990D01*
X129002718Y-133297901D01*
X129063340Y-133334852D01*
X129094361Y-133398712D01*
X129085933Y-133469207D01*
X129040730Y-133523954D01*
X129028790Y-133531107D01*
X115008894Y-140910000D01*
X114950210Y-140924500D01*
X100201500Y-140924500D01*
X100133379Y-140904498D01*
X100086886Y-140850842D01*
X100075500Y-140798500D01*
X100075500Y-135899124D01*
X102191500Y-135899124D01*
X102191500Y-136180875D01*
X102223045Y-136460855D01*
X102285741Y-136735542D01*
X102378789Y-137001456D01*
X102378800Y-137001483D01*
X102501043Y-137255324D01*
X102650942Y-137493885D01*
X102826604Y-137714160D01*
X103025839Y-137913395D01*
X103246114Y-138089057D01*
X103484675Y-138238956D01*
X103484678Y-138238957D01*
X103484679Y-138238958D01*
X103738526Y-138361204D01*
X103738542Y-138361209D01*
X103738543Y-138361210D01*
X104004457Y-138454258D01*
X104004460Y-138454258D01*
X104004464Y-138454260D01*
X104279144Y-138516954D01*
X104279145Y-138516954D01*
X104279148Y-138516955D01*
X104444271Y-138535559D01*
X104559124Y-138548500D01*
X104559126Y-138548500D01*
X104840876Y-138548500D01*
X104911977Y-138540488D01*
X105120852Y-138516955D01*
X105395536Y-138454260D01*
X105661474Y-138361204D01*
X105915321Y-138238958D01*
X106153884Y-138089058D01*
X106261711Y-138003069D01*
X106374160Y-137913395D01*
X106573395Y-137714160D01*
X106749057Y-137493885D01*
X106784377Y-137437675D01*
X106898958Y-137255321D01*
X107021204Y-137001474D01*
X107114260Y-136735536D01*
X107176955Y-136460852D01*
X107208500Y-136180874D01*
X107208500Y-135899126D01*
X107201275Y-135835000D01*
X108641500Y-135835000D01*
X108641500Y-136164999D01*
X108673844Y-136493383D01*
X108738217Y-136817019D01*
X108834009Y-137132804D01*
X108834010Y-137132807D01*
X108960291Y-137437675D01*
X109115846Y-137728698D01*
X109299175Y-138003070D01*
X109508501Y-138258135D01*
X109508527Y-138258164D01*
X109741835Y-138491472D01*
X109741844Y-138491480D01*
X109741849Y-138491485D01*
X109741854Y-138491489D01*
X109741864Y-138491498D01*
X109996929Y-138700824D01*
X110271301Y-138884153D01*
X110271304Y-138884155D01*
X110562325Y-139039709D01*
X110867191Y-139165989D01*
X111182967Y-139261779D01*
X111182976Y-139261780D01*
X111182980Y-139261782D01*
X111266358Y-139278366D01*
X111506611Y-139326155D01*
X111835007Y-139358500D01*
X111835016Y-139358500D01*
X112164984Y-139358500D01*
X112164993Y-139358500D01*
X112493389Y-139326155D01*
X112767565Y-139271618D01*
X112817019Y-139261782D01*
X112817021Y-139261781D01*
X112817033Y-139261779D01*
X113132809Y-139165989D01*
X113437675Y-139039709D01*
X113728696Y-138884155D01*
X114003069Y-138700825D01*
X114258151Y-138491485D01*
X114491485Y-138258151D01*
X114700825Y-138003069D01*
X114884155Y-137728696D01*
X115039709Y-137437675D01*
X115165989Y-137132809D01*
X115261779Y-136817033D01*
X115326155Y-136493389D01*
X115358500Y-136164993D01*
X115358500Y-135835007D01*
X115326155Y-135506611D01*
X115261779Y-135182967D01*
X115165989Y-134867191D01*
X115039709Y-134562325D01*
X114884155Y-134271304D01*
X114700825Y-133996931D01*
X114700824Y-133996929D01*
X114491498Y-133741864D01*
X114491472Y-133741835D01*
X114258164Y-133508527D01*
X114258135Y-133508501D01*
X114003070Y-133299175D01*
X113728698Y-133115846D01*
X113437675Y-132960291D01*
X113132807Y-132834010D01*
X113132804Y-132834009D01*
X112923791Y-132770606D01*
X112817033Y-132738221D01*
X112817030Y-132738220D01*
X112817019Y-132738217D01*
X112572371Y-132689555D01*
X112493389Y-132673845D01*
X112493385Y-132673844D01*
X112493384Y-132673844D01*
X112164999Y-132641500D01*
X112164993Y-132641500D01*
X111835007Y-132641500D01*
X111835000Y-132641500D01*
X111506616Y-132673844D01*
X111182980Y-132738217D01*
X110867195Y-132834009D01*
X110867192Y-132834010D01*
X110562324Y-132960291D01*
X110271301Y-133115846D01*
X109996929Y-133299175D01*
X109741864Y-133508501D01*
X109741835Y-133508527D01*
X109508527Y-133741835D01*
X109508501Y-133741864D01*
X109299175Y-133996929D01*
X109115846Y-134271301D01*
X108960291Y-134562324D01*
X108834010Y-134867192D01*
X108834009Y-134867195D01*
X108738217Y-135182980D01*
X108673844Y-135506616D01*
X108641500Y-135835000D01*
X107201275Y-135835000D01*
X107176955Y-135619148D01*
X107114260Y-135344464D01*
X107021204Y-135078526D01*
X106898958Y-134824679D01*
X106898957Y-134824678D01*
X106898956Y-134824675D01*
X106749057Y-134586114D01*
X106573395Y-134365839D01*
X106374160Y-134166604D01*
X106153885Y-133990942D01*
X105915324Y-133841043D01*
X105661483Y-133718800D01*
X105661478Y-133718798D01*
X105661474Y-133718796D01*
X105661468Y-133718793D01*
X105661456Y-133718789D01*
X105395542Y-133625741D01*
X105120854Y-133563045D01*
X105120857Y-133563045D01*
X104840876Y-133531500D01*
X104840874Y-133531500D01*
X104559126Y-133531500D01*
X104559124Y-133531500D01*
X104279144Y-133563045D01*
X104004457Y-133625741D01*
X103738543Y-133718789D01*
X103738516Y-133718800D01*
X103484675Y-133841043D01*
X103246114Y-133990942D01*
X103025839Y-134166604D01*
X102826604Y-134365839D01*
X102650942Y-134586114D01*
X102501043Y-134824675D01*
X102378800Y-135078516D01*
X102378789Y-135078543D01*
X102285741Y-135344457D01*
X102223045Y-135619144D01*
X102191500Y-135899124D01*
X100075500Y-135899124D01*
X100075500Y-119282019D01*
X100851500Y-119282019D01*
X100851500Y-119487981D01*
X100883720Y-119691408D01*
X100883721Y-119691412D01*
X100909884Y-119771934D01*
X100947366Y-119887290D01*
X101040871Y-120070803D01*
X101161932Y-120237430D01*
X101161934Y-120237432D01*
X101161936Y-120237435D01*
X101307564Y-120383063D01*
X101307567Y-120383065D01*
X101307570Y-120383068D01*
X101474197Y-120504129D01*
X101657710Y-120597634D01*
X101819390Y-120650167D01*
X101877995Y-120690241D01*
X101905632Y-120755637D01*
X101893525Y-120825594D01*
X101845519Y-120877900D01*
X101819390Y-120889833D01*
X101657710Y-120942366D01*
X101657708Y-120942367D01*
X101474193Y-121035873D01*
X101307567Y-121156934D01*
X101307564Y-121156936D01*
X101161936Y-121302564D01*
X101161934Y-121302567D01*
X101040873Y-121469193D01*
X100947367Y-121652708D01*
X100947364Y-121652714D01*
X100883721Y-121848587D01*
X100883720Y-121848590D01*
X100883720Y-121848592D01*
X100851500Y-122052019D01*
X100851500Y-122257981D01*
X100879839Y-122436903D01*
X100883721Y-122461412D01*
X100936971Y-122625300D01*
X100947366Y-122657290D01*
X101030759Y-122820957D01*
X101040873Y-122840806D01*
X101070802Y-122881999D01*
X101161932Y-123007430D01*
X101161934Y-123007432D01*
X101161936Y-123007435D01*
X101307564Y-123153063D01*
X101307567Y-123153065D01*
X101307570Y-123153068D01*
X101474197Y-123274129D01*
X101657710Y-123367634D01*
X101819390Y-123420167D01*
X101877995Y-123460241D01*
X101905632Y-123525637D01*
X101893525Y-123595594D01*
X101845519Y-123647900D01*
X101819390Y-123659833D01*
X101657710Y-123712366D01*
X101657708Y-123712367D01*
X101474193Y-123805873D01*
X101307567Y-123926934D01*
X101307564Y-123926936D01*
X101161936Y-124072564D01*
X101161934Y-124072567D01*
X101040873Y-124239193D01*
X100947367Y-124422708D01*
X100947364Y-124422714D01*
X100883721Y-124618587D01*
X100883720Y-124618590D01*
X100883720Y-124618592D01*
X100851500Y-124822019D01*
X100851500Y-125027981D01*
X100883720Y-125231408D01*
X100883721Y-125231412D01*
X100921424Y-125347451D01*
X100947366Y-125427290D01*
X101040871Y-125610803D01*
X101161932Y-125777430D01*
X101161934Y-125777432D01*
X101161936Y-125777435D01*
X101307564Y-125923063D01*
X101307567Y-125923065D01*
X101307570Y-125923068D01*
X101474197Y-126044129D01*
X101657710Y-126137634D01*
X101819390Y-126190167D01*
X101877995Y-126230241D01*
X101905632Y-126295637D01*
X101893525Y-126365594D01*
X101845519Y-126417900D01*
X101819390Y-126429832D01*
X101802564Y-126435300D01*
X101657710Y-126482366D01*
X101657708Y-126482367D01*
X101474193Y-126575873D01*
X101307567Y-126696934D01*
X101307564Y-126696936D01*
X101161936Y-126842564D01*
X101161934Y-126842567D01*
X101040873Y-127009193D01*
X100947367Y-127192708D01*
X100947364Y-127192714D01*
X100883721Y-127388587D01*
X100883720Y-127388590D01*
X100883720Y-127388592D01*
X100851500Y-127592019D01*
X100851500Y-127797981D01*
X100877368Y-127961301D01*
X100883721Y-128001412D01*
X100893246Y-128030728D01*
X100947366Y-128197290D01*
X101026004Y-128351625D01*
X101040873Y-128380806D01*
X101050789Y-128394454D01*
X101161932Y-128547430D01*
X101161934Y-128547432D01*
X101161936Y-128547435D01*
X101307564Y-128693063D01*
X101307567Y-128693065D01*
X101307570Y-128693068D01*
X101474197Y-128814129D01*
X101657710Y-128907634D01*
X101853592Y-128971280D01*
X102057019Y-129003500D01*
X102057022Y-129003500D01*
X102262978Y-129003500D01*
X102262981Y-129003500D01*
X102466408Y-128971280D01*
X102662290Y-128907634D01*
X102845803Y-128814129D01*
X103012430Y-128693068D01*
X103158068Y-128547430D01*
X103279129Y-128380803D01*
X103372634Y-128197290D01*
X103436280Y-128001408D01*
X103468500Y-127797981D01*
X103468500Y-127592019D01*
X103436280Y-127388592D01*
X103372634Y-127192710D01*
X103279129Y-127009197D01*
X103158068Y-126842570D01*
X103158065Y-126842567D01*
X103158063Y-126842564D01*
X103012435Y-126696936D01*
X103012432Y-126696934D01*
X103012430Y-126696932D01*
X102845803Y-126575871D01*
X102662290Y-126482366D01*
X102662287Y-126482365D01*
X102662285Y-126482364D01*
X102500610Y-126429833D01*
X102442004Y-126389759D01*
X102414367Y-126324363D01*
X102426474Y-126254406D01*
X102474480Y-126202100D01*
X102500610Y-126190167D01*
X102662290Y-126137634D01*
X102845803Y-126044129D01*
X103012430Y-125923068D01*
X103158068Y-125777430D01*
X103279129Y-125610803D01*
X103283465Y-125602294D01*
X103332214Y-125550680D01*
X103395730Y-125533500D01*
X103721470Y-125533500D01*
X103789591Y-125553502D01*
X103836084Y-125607158D01*
X103846188Y-125677432D01*
X103833737Y-125716700D01*
X103802792Y-125777435D01*
X103787367Y-125807708D01*
X103787364Y-125807714D01*
X103723721Y-126003587D01*
X103723720Y-126003590D01*
X103723720Y-126003592D01*
X103691500Y-126207019D01*
X103691500Y-126412981D01*
X103723720Y-126616408D01*
X103723721Y-126616412D01*
X103783084Y-126799113D01*
X103787366Y-126812290D01*
X103880871Y-126995803D01*
X104001932Y-127162430D01*
X104001934Y-127162432D01*
X104001936Y-127162435D01*
X104147564Y-127308063D01*
X104147567Y-127308065D01*
X104147570Y-127308068D01*
X104314197Y-127429129D01*
X104497710Y-127522634D01*
X104644597Y-127570360D01*
X104660196Y-127575429D01*
X104718802Y-127615503D01*
X104746439Y-127680899D01*
X104734332Y-127750856D01*
X104686326Y-127803162D01*
X104660197Y-127815095D01*
X104497903Y-127867828D01*
X104497900Y-127867829D01*
X104314452Y-127961301D01*
X104271625Y-127992416D01*
X104875051Y-128595842D01*
X104807007Y-128614075D01*
X104692993Y-128679901D01*
X104599901Y-128772993D01*
X104534075Y-128887007D01*
X104515842Y-128955051D01*
X103912416Y-128351625D01*
X103881301Y-128394452D01*
X103787829Y-128577900D01*
X103787826Y-128577906D01*
X103724208Y-128773703D01*
X103692000Y-128977061D01*
X103692000Y-129182938D01*
X103724208Y-129386296D01*
X103787826Y-129582093D01*
X103787829Y-129582099D01*
X103881297Y-129765540D01*
X103881298Y-129765541D01*
X103912416Y-129808372D01*
X104515841Y-129204947D01*
X104534075Y-129272993D01*
X104599901Y-129387007D01*
X104692993Y-129480099D01*
X104807007Y-129545925D01*
X104875051Y-129564157D01*
X104271626Y-130167582D01*
X104271626Y-130167583D01*
X104314454Y-130198699D01*
X104497900Y-130292170D01*
X104497906Y-130292173D01*
X104693705Y-130355791D01*
X104693701Y-130355791D01*
X104897061Y-130388000D01*
X105102939Y-130388000D01*
X105306296Y-130355791D01*
X105502093Y-130292173D01*
X105502099Y-130292170D01*
X105685541Y-130198701D01*
X105728372Y-130167582D01*
X105728372Y-130167581D01*
X105124948Y-129564157D01*
X105192993Y-129545925D01*
X105307007Y-129480099D01*
X105400099Y-129387007D01*
X105465925Y-129272993D01*
X105484157Y-129204948D01*
X106087581Y-129808372D01*
X106087582Y-129808372D01*
X106118701Y-129765541D01*
X106212170Y-129582099D01*
X106212173Y-129582093D01*
X106275791Y-129386296D01*
X106308000Y-129182938D01*
X106308000Y-128977061D01*
X106275791Y-128773703D01*
X106212173Y-128577906D01*
X106212170Y-128577900D01*
X106118699Y-128394454D01*
X106087583Y-128351626D01*
X106087582Y-128351626D01*
X105484157Y-128955051D01*
X105465925Y-128887007D01*
X105400099Y-128772993D01*
X105307007Y-128679901D01*
X105192993Y-128614075D01*
X105124947Y-128595841D01*
X105728372Y-127992416D01*
X105685541Y-127961298D01*
X105685540Y-127961297D01*
X105502099Y-127867829D01*
X105502093Y-127867826D01*
X105339803Y-127815095D01*
X105281197Y-127775021D01*
X105253560Y-127709625D01*
X105265667Y-127639668D01*
X105313673Y-127587362D01*
X105339800Y-127575430D01*
X105502290Y-127522634D01*
X105685803Y-127429129D01*
X105852430Y-127308068D01*
X105998068Y-127162430D01*
X106119129Y-126995803D01*
X106212634Y-126812290D01*
X106276280Y-126616408D01*
X106277810Y-126611700D01*
X106278938Y-126612066D01*
X106311491Y-126555333D01*
X106374508Y-126522631D01*
X106398685Y-126520290D01*
X106400307Y-126520290D01*
X106400312Y-126520291D01*
X106483882Y-126520290D01*
X106603876Y-126520290D01*
X106687446Y-126520291D01*
X106851376Y-126487684D01*
X107005794Y-126423722D01*
X107073861Y-126378240D01*
X107141610Y-126357027D01*
X107210077Y-126375809D01*
X107213831Y-126378222D01*
X107281964Y-126423747D01*
X107436382Y-126487709D01*
X107600312Y-126520316D01*
X107683882Y-126520315D01*
X107803876Y-126520315D01*
X107887446Y-126520316D01*
X108051376Y-126487709D01*
X108205794Y-126423747D01*
X108344767Y-126330889D01*
X108462953Y-126212703D01*
X108555811Y-126073730D01*
X108619773Y-125919312D01*
X108652380Y-125755382D01*
X108652379Y-125671812D01*
X108652379Y-125659500D01*
X108672381Y-125591379D01*
X108726037Y-125544886D01*
X108778379Y-125533500D01*
X111725109Y-125533500D01*
X111725111Y-125533500D01*
X111879873Y-125492032D01*
X112018628Y-125411921D01*
X112531865Y-124898683D01*
X112766738Y-124663812D01*
X112766738Y-124663810D01*
X112777108Y-124653441D01*
X112777112Y-124653435D01*
X115987875Y-121442671D01*
X116050185Y-121408648D01*
X116121000Y-121413712D01*
X116177836Y-121456259D01*
X116202647Y-121522779D01*
X116201652Y-121546002D01*
X116201888Y-121546021D01*
X116201500Y-121550950D01*
X116201500Y-121550954D01*
X116201500Y-121749046D01*
X116232488Y-121944700D01*
X116293702Y-122133097D01*
X116383634Y-122309598D01*
X116383636Y-122309601D01*
X116500071Y-122469860D01*
X116640139Y-122609928D01*
X116705329Y-122657291D01*
X116800402Y-122726366D01*
X116960645Y-122808014D01*
X117012260Y-122856763D01*
X117029326Y-122925678D01*
X117006425Y-122992879D01*
X116960645Y-123032548D01*
X116800667Y-123114060D01*
X116767422Y-123138212D01*
X117375876Y-123746666D01*
X117286306Y-123770667D01*
X117183694Y-123829910D01*
X117099910Y-123913694D01*
X117040667Y-124016306D01*
X117016666Y-124105876D01*
X116408212Y-123497422D01*
X116384060Y-123530667D01*
X116384057Y-123530671D01*
X116294166Y-123707094D01*
X116232977Y-123895414D01*
X116202000Y-124090996D01*
X116202000Y-124289003D01*
X116232977Y-124484585D01*
X116294166Y-124672905D01*
X116384058Y-124849330D01*
X116408212Y-124882575D01*
X117016666Y-124274121D01*
X117040667Y-124363694D01*
X117099910Y-124466306D01*
X117183694Y-124550090D01*
X117286306Y-124609333D01*
X117375875Y-124633333D01*
X116767423Y-125241785D01*
X116767423Y-125241787D01*
X116800662Y-125265937D01*
X116960645Y-125347451D01*
X117012261Y-125396199D01*
X117029327Y-125465113D01*
X117006427Y-125532315D01*
X116960646Y-125571985D01*
X116800399Y-125653635D01*
X116640139Y-125770071D01*
X116500071Y-125910139D01*
X116383636Y-126070398D01*
X116293703Y-126246901D01*
X116293702Y-126246903D01*
X116236250Y-126423723D01*
X116232488Y-126435300D01*
X116201500Y-126630954D01*
X116201500Y-126829046D01*
X116232488Y-127024700D01*
X116293702Y-127213097D01*
X116383634Y-127389598D01*
X116383636Y-127389601D01*
X116500071Y-127549860D01*
X116640139Y-127689928D01*
X116640142Y-127689930D01*
X116800402Y-127806366D01*
X116976903Y-127896298D01*
X117165300Y-127957512D01*
X117360954Y-127988500D01*
X117360957Y-127988500D01*
X117559043Y-127988500D01*
X117559046Y-127988500D01*
X117754700Y-127957512D01*
X117943097Y-127896298D01*
X118119598Y-127806366D01*
X118279858Y-127689930D01*
X118419930Y-127549858D01*
X118513564Y-127420981D01*
X118569786Y-127377628D01*
X118640523Y-127371553D01*
X118703314Y-127404685D01*
X118738226Y-127466505D01*
X118741500Y-127495043D01*
X118741500Y-128798649D01*
X118748009Y-128859196D01*
X118748011Y-128859204D01*
X118799110Y-128996202D01*
X118799112Y-128996207D01*
X118886738Y-129113261D01*
X119003792Y-129200887D01*
X119003794Y-129200888D01*
X119003796Y-129200889D01*
X119062875Y-129222924D01*
X119140795Y-129251988D01*
X119140803Y-129251990D01*
X119201350Y-129258499D01*
X119201355Y-129258499D01*
X119201362Y-129258500D01*
X119201368Y-129258500D01*
X120798632Y-129258500D01*
X120798638Y-129258500D01*
X120798645Y-129258499D01*
X120798649Y-129258499D01*
X120859196Y-129251990D01*
X120859199Y-129251989D01*
X120859201Y-129251989D01*
X120996204Y-129200889D01*
X121113261Y-129113261D01*
X121200889Y-128996204D01*
X121251989Y-128859201D01*
X121258500Y-128798638D01*
X121258500Y-127201362D01*
X121258499Y-127201350D01*
X121251990Y-127140803D01*
X121251988Y-127140795D01*
X121200889Y-127003797D01*
X121200887Y-127003792D01*
X121113261Y-126886738D01*
X120996207Y-126799112D01*
X120996202Y-126799110D01*
X120859204Y-126748011D01*
X120859196Y-126748009D01*
X120798649Y-126741500D01*
X120798638Y-126741500D01*
X120765043Y-126741500D01*
X120696922Y-126721498D01*
X120650429Y-126667842D01*
X120640325Y-126597568D01*
X120669819Y-126532988D01*
X120690982Y-126513564D01*
X120819858Y-126419930D01*
X120959930Y-126279858D01*
X121076366Y-126119598D01*
X121166298Y-125943097D01*
X121227512Y-125754700D01*
X121258500Y-125559046D01*
X121258500Y-125360954D01*
X121227512Y-125165300D01*
X121166298Y-124976903D01*
X121076366Y-124800402D01*
X120959930Y-124640142D01*
X120959928Y-124640139D01*
X120819860Y-124500071D01*
X120659601Y-124383636D01*
X120659600Y-124383635D01*
X120659598Y-124383634D01*
X120499902Y-124302265D01*
X120448290Y-124253519D01*
X120431224Y-124184604D01*
X120454125Y-124117402D01*
X120499902Y-124077735D01*
X120659598Y-123996366D01*
X120819858Y-123879930D01*
X120959930Y-123739858D01*
X121076366Y-123579598D01*
X121166298Y-123403097D01*
X121227512Y-123214700D01*
X121258500Y-123019046D01*
X121258500Y-122820954D01*
X121227512Y-122625300D01*
X121166298Y-122436903D01*
X121076366Y-122260402D01*
X121010222Y-122169363D01*
X120959928Y-122100139D01*
X120819860Y-121960071D01*
X120659601Y-121843636D01*
X120659600Y-121843635D01*
X120659598Y-121843634D01*
X120499902Y-121762265D01*
X120448290Y-121713519D01*
X120431224Y-121644604D01*
X120454125Y-121577402D01*
X120499902Y-121537735D01*
X120659598Y-121456366D01*
X120819858Y-121339930D01*
X120959930Y-121199858D01*
X121076366Y-121039598D01*
X121166298Y-120863097D01*
X121227512Y-120674700D01*
X121258500Y-120479046D01*
X121258500Y-120280954D01*
X121227512Y-120085300D01*
X121166298Y-119896903D01*
X121076366Y-119720402D01*
X121003258Y-119619778D01*
X120959928Y-119560139D01*
X120819860Y-119420071D01*
X120659601Y-119303636D01*
X120659600Y-119303635D01*
X120659598Y-119303634D01*
X120483097Y-119213702D01*
X120294700Y-119152488D01*
X120099046Y-119121500D01*
X119900954Y-119121500D01*
X119705300Y-119152488D01*
X119705297Y-119152488D01*
X119705296Y-119152489D01*
X119516903Y-119213702D01*
X119516901Y-119213703D01*
X119340398Y-119303636D01*
X119180139Y-119420071D01*
X119040071Y-119560139D01*
X118923636Y-119720398D01*
X118833703Y-119896901D01*
X118833702Y-119896903D01*
X118772848Y-120084193D01*
X118772488Y-120085300D01*
X118741500Y-120280954D01*
X118741500Y-120479046D01*
X118772488Y-120674700D01*
X118833702Y-120863097D01*
X118921735Y-121035871D01*
X118923636Y-121039601D01*
X119040071Y-121199860D01*
X119180139Y-121339928D01*
X119180142Y-121339930D01*
X119340402Y-121456366D01*
X119500094Y-121537733D01*
X119551709Y-121586481D01*
X119568775Y-121655396D01*
X119545874Y-121722598D01*
X119500095Y-121762266D01*
X119355568Y-121835906D01*
X119340398Y-121843636D01*
X119180139Y-121960071D01*
X119040071Y-122100139D01*
X118923636Y-122260398D01*
X118833703Y-122436901D01*
X118833702Y-122436903D01*
X118777483Y-122609928D01*
X118772488Y-122625300D01*
X118741500Y-122820954D01*
X118741500Y-123019046D01*
X118772488Y-123214700D01*
X118833702Y-123403097D01*
X118923634Y-123579598D01*
X118923636Y-123579601D01*
X119040071Y-123739860D01*
X119180139Y-123879928D01*
X119244837Y-123926934D01*
X119340402Y-123996366D01*
X119500094Y-124077733D01*
X119551709Y-124126481D01*
X119568775Y-124195396D01*
X119545874Y-124262598D01*
X119500095Y-124302266D01*
X119414412Y-124345924D01*
X119340398Y-124383636D01*
X119180139Y-124500071D01*
X119040071Y-124640139D01*
X118923636Y-124800398D01*
X118923634Y-124800402D01*
X118833702Y-124976903D01*
X118772488Y-125165300D01*
X118741500Y-125360954D01*
X118741500Y-125559046D01*
X118772488Y-125754700D01*
X118833702Y-125943097D01*
X118900263Y-126073730D01*
X118923636Y-126119601D01*
X119040071Y-126279860D01*
X119180136Y-126419925D01*
X119180139Y-126419927D01*
X119180142Y-126419930D01*
X119273432Y-126487709D01*
X119309018Y-126513564D01*
X119352372Y-126569786D01*
X119358447Y-126640523D01*
X119325315Y-126703314D01*
X119263495Y-126738226D01*
X119234957Y-126741500D01*
X119201350Y-126741500D01*
X119140803Y-126748009D01*
X119140795Y-126748011D01*
X119003797Y-126799110D01*
X119003792Y-126799113D01*
X118920009Y-126861832D01*
X118853488Y-126886643D01*
X118784114Y-126871551D01*
X118733912Y-126821349D01*
X118718500Y-126760964D01*
X118718500Y-126630957D01*
X118718500Y-126630954D01*
X118687512Y-126435300D01*
X118626298Y-126246903D01*
X118536366Y-126070402D01*
X118426596Y-125919317D01*
X118419928Y-125910139D01*
X118279860Y-125770071D01*
X118119600Y-125653635D01*
X118061825Y-125624197D01*
X117959352Y-125571984D01*
X117907738Y-125523236D01*
X117890672Y-125454321D01*
X117913573Y-125387120D01*
X117959354Y-125347451D01*
X118119333Y-125265939D01*
X118119339Y-125265935D01*
X118152575Y-125241787D01*
X118152576Y-125241786D01*
X117544123Y-124633333D01*
X117633694Y-124609333D01*
X117736306Y-124550090D01*
X117820090Y-124466306D01*
X117879333Y-124363694D01*
X117903333Y-124274122D01*
X118511786Y-124882576D01*
X118511787Y-124882575D01*
X118535935Y-124849339D01*
X118535936Y-124849337D01*
X118625834Y-124672902D01*
X118687022Y-124484585D01*
X118718000Y-124289003D01*
X118718000Y-124090996D01*
X118687022Y-123895414D01*
X118625834Y-123707097D01*
X118535935Y-123530660D01*
X118511787Y-123497423D01*
X118511785Y-123497423D01*
X117903333Y-124105875D01*
X117879333Y-124016306D01*
X117820090Y-123913694D01*
X117736306Y-123829910D01*
X117633694Y-123770667D01*
X117544122Y-123746666D01*
X118152575Y-123138212D01*
X118119330Y-123114058D01*
X117959355Y-123032548D01*
X117907739Y-122983800D01*
X117890673Y-122914885D01*
X117913573Y-122847684D01*
X117959352Y-122808015D01*
X118119598Y-122726366D01*
X118279858Y-122609930D01*
X118419930Y-122469858D01*
X118536366Y-122309598D01*
X118626298Y-122133097D01*
X118687512Y-121944700D01*
X118718500Y-121749046D01*
X118718500Y-121550954D01*
X118687512Y-121355300D01*
X118626298Y-121166903D01*
X118536366Y-120990402D01*
X118454628Y-120877900D01*
X118419928Y-120830139D01*
X118279860Y-120690071D01*
X118119601Y-120573636D01*
X118119600Y-120573635D01*
X118119598Y-120573634D01*
X117959902Y-120492265D01*
X117908290Y-120443519D01*
X117891224Y-120374604D01*
X117914125Y-120307402D01*
X117959902Y-120267735D01*
X118119598Y-120186366D01*
X118279858Y-120069930D01*
X118419930Y-119929858D01*
X118536366Y-119769598D01*
X118626298Y-119593097D01*
X118687512Y-119404700D01*
X118718500Y-119209046D01*
X118718500Y-119010954D01*
X118687512Y-118815300D01*
X118626298Y-118626903D01*
X118536366Y-118450402D01*
X118419930Y-118290142D01*
X118419928Y-118290139D01*
X118279860Y-118150071D01*
X118119601Y-118033636D01*
X118119600Y-118033635D01*
X118119598Y-118033634D01*
X117943097Y-117943702D01*
X117754700Y-117882488D01*
X117559046Y-117851500D01*
X117360954Y-117851500D01*
X117165300Y-117882488D01*
X117165297Y-117882488D01*
X117165296Y-117882489D01*
X116976903Y-117943702D01*
X116976901Y-117943703D01*
X116800398Y-118033636D01*
X116640139Y-118150071D01*
X116500071Y-118290139D01*
X116383636Y-118450398D01*
X116293703Y-118626901D01*
X116293702Y-118626903D01*
X116270214Y-118699193D01*
X116232488Y-118815300D01*
X116201500Y-119010954D01*
X116201500Y-119209046D01*
X116232325Y-119403674D01*
X116223226Y-119474083D01*
X116196972Y-119512478D01*
X111888468Y-123820981D01*
X111888467Y-123820982D01*
X111888467Y-123820983D01*
X111713269Y-123996180D01*
X111429856Y-124279595D01*
X111367544Y-124313620D01*
X111340760Y-124316500D01*
X108283883Y-124316500D01*
X108242097Y-124316499D01*
X108200312Y-124316499D01*
X108200311Y-124316499D01*
X108194147Y-124317106D01*
X108193956Y-124315171D01*
X108132217Y-124309632D01*
X108076161Y-124266063D01*
X108052558Y-124199105D01*
X108052379Y-124192392D01*
X108052379Y-124126481D01*
X108052380Y-124094643D01*
X108019773Y-123930713D01*
X107955811Y-123776295D01*
X107862953Y-123637322D01*
X107862951Y-123637320D01*
X107862946Y-123637314D01*
X107744774Y-123519142D01*
X107744768Y-123519137D01*
X107656623Y-123460241D01*
X107605794Y-123426278D01*
X107464215Y-123367634D01*
X107451381Y-123362318D01*
X107451380Y-123362317D01*
X107451376Y-123362316D01*
X107369411Y-123346012D01*
X107287448Y-123329709D01*
X107287446Y-123329709D01*
X107231732Y-123329709D01*
X107203875Y-123329710D01*
X107083883Y-123329710D01*
X107042097Y-123329709D01*
X107000312Y-123329709D01*
X107000311Y-123329709D01*
X107000307Y-123329709D01*
X106863703Y-123356881D01*
X106836382Y-123362316D01*
X106836379Y-123362316D01*
X106836376Y-123362318D01*
X106681963Y-123426278D01*
X106542989Y-123519137D01*
X106542983Y-123519142D01*
X106523595Y-123538531D01*
X106461283Y-123572557D01*
X106390468Y-123567492D01*
X106333632Y-123524945D01*
X106308821Y-123458425D01*
X106308500Y-123449436D01*
X106308500Y-123437022D01*
X106308500Y-123437019D01*
X106276280Y-123233592D01*
X106212634Y-123037710D01*
X106119129Y-122854197D01*
X105998068Y-122687570D01*
X105998065Y-122687567D01*
X105998063Y-122687564D01*
X105852435Y-122541936D01*
X105852432Y-122541934D01*
X105852430Y-122541932D01*
X105685803Y-122420871D01*
X105502290Y-122327366D01*
X105502287Y-122327365D01*
X105502285Y-122327364D01*
X105340610Y-122274833D01*
X105282004Y-122234759D01*
X105254367Y-122169363D01*
X105266474Y-122099406D01*
X105314480Y-122047100D01*
X105340610Y-122035167D01*
X105502290Y-121982634D01*
X105685803Y-121889129D01*
X105852430Y-121768068D01*
X105998068Y-121622430D01*
X106119129Y-121455803D01*
X106212634Y-121272290D01*
X106276280Y-121076408D01*
X106308500Y-120872981D01*
X106308500Y-120667019D01*
X106276280Y-120463592D01*
X106212634Y-120267710D01*
X106119129Y-120084197D01*
X105998068Y-119917570D01*
X105998065Y-119917567D01*
X105998063Y-119917564D01*
X105852435Y-119771936D01*
X105852432Y-119771934D01*
X105852430Y-119771932D01*
X105685803Y-119650871D01*
X105502290Y-119557366D01*
X105492952Y-119554332D01*
X105434348Y-119514259D01*
X105406712Y-119448862D01*
X105418819Y-119378905D01*
X105466826Y-119326599D01*
X105531891Y-119308500D01*
X105848632Y-119308500D01*
X105848638Y-119308500D01*
X105848645Y-119308499D01*
X105848649Y-119308499D01*
X105909196Y-119301990D01*
X105909199Y-119301989D01*
X105909201Y-119301989D01*
X106046204Y-119250889D01*
X106163261Y-119163261D01*
X106226644Y-119078592D01*
X106250887Y-119046207D01*
X106250887Y-119046206D01*
X106250889Y-119046204D01*
X106301989Y-118909201D01*
X106304677Y-118884204D01*
X106308499Y-118848649D01*
X106308500Y-118848632D01*
X106308500Y-117151367D01*
X106308499Y-117151350D01*
X106301990Y-117090803D01*
X106301988Y-117090795D01*
X106250889Y-116953797D01*
X106250887Y-116953792D01*
X106163261Y-116836738D01*
X106046207Y-116749112D01*
X106046202Y-116749110D01*
X105909204Y-116698011D01*
X105909196Y-116698009D01*
X105848649Y-116691500D01*
X105848638Y-116691500D01*
X104151362Y-116691500D01*
X104151350Y-116691500D01*
X104090803Y-116698009D01*
X104090795Y-116698011D01*
X103953797Y-116749110D01*
X103953792Y-116749112D01*
X103836738Y-116836738D01*
X103749112Y-116953792D01*
X103749110Y-116953797D01*
X103698011Y-117090795D01*
X103698009Y-117090803D01*
X103691500Y-117151350D01*
X103691500Y-118848649D01*
X103698009Y-118909196D01*
X103698011Y-118909204D01*
X103749110Y-119046202D01*
X103749112Y-119046207D01*
X103836738Y-119163261D01*
X103953792Y-119250887D01*
X103953794Y-119250888D01*
X103953796Y-119250889D01*
X104012875Y-119272924D01*
X104090795Y-119301988D01*
X104090803Y-119301990D01*
X104151350Y-119308499D01*
X104151355Y-119308499D01*
X104151362Y-119308500D01*
X104151368Y-119308500D01*
X104468109Y-119308500D01*
X104536230Y-119328502D01*
X104582723Y-119382158D01*
X104592827Y-119452432D01*
X104563333Y-119517012D01*
X104507047Y-119554332D01*
X104497710Y-119557366D01*
X104497708Y-119557366D01*
X104497708Y-119557367D01*
X104314193Y-119650873D01*
X104147567Y-119771934D01*
X104147564Y-119771936D01*
X104001936Y-119917564D01*
X104001934Y-119917567D01*
X103880873Y-120084193D01*
X103787367Y-120267708D01*
X103787364Y-120267714D01*
X103723721Y-120463587D01*
X103723720Y-120463590D01*
X103723720Y-120463592D01*
X103691500Y-120667019D01*
X103691500Y-120872981D01*
X103723720Y-121076408D01*
X103723721Y-121076412D01*
X103753123Y-121166903D01*
X103787366Y-121272290D01*
X103880871Y-121455803D01*
X104001932Y-121622430D01*
X104001934Y-121622432D01*
X104001936Y-121622435D01*
X104147564Y-121768063D01*
X104147567Y-121768065D01*
X104147570Y-121768068D01*
X104314197Y-121889129D01*
X104497710Y-121982634D01*
X104659390Y-122035167D01*
X104717995Y-122075241D01*
X104745632Y-122140637D01*
X104733525Y-122210594D01*
X104685519Y-122262900D01*
X104659390Y-122274833D01*
X104497710Y-122327366D01*
X104497708Y-122327367D01*
X104314193Y-122420873D01*
X104147567Y-122541934D01*
X104147564Y-122541936D01*
X104001936Y-122687564D01*
X104001934Y-122687567D01*
X103880873Y-122854193D01*
X103787367Y-123037708D01*
X103787364Y-123037714D01*
X103723721Y-123233587D01*
X103723720Y-123233590D01*
X103723720Y-123233592D01*
X103691500Y-123437019D01*
X103691500Y-123642981D01*
X103723720Y-123846408D01*
X103723721Y-123846412D01*
X103766625Y-123978458D01*
X103787366Y-124042290D01*
X103825638Y-124117402D01*
X103833737Y-124133297D01*
X103846841Y-124203074D01*
X103820141Y-124268859D01*
X103762113Y-124309765D01*
X103721470Y-124316500D01*
X103395730Y-124316500D01*
X103327609Y-124296498D01*
X103283465Y-124247706D01*
X103279129Y-124239196D01*
X103208255Y-124141647D01*
X103158068Y-124072570D01*
X103158065Y-124072567D01*
X103158063Y-124072564D01*
X103012435Y-123926936D01*
X103012432Y-123926934D01*
X103012430Y-123926932D01*
X102845803Y-123805871D01*
X102662290Y-123712366D01*
X102662287Y-123712365D01*
X102662285Y-123712364D01*
X102500610Y-123659833D01*
X102442004Y-123619759D01*
X102414367Y-123554363D01*
X102426474Y-123484406D01*
X102474480Y-123432100D01*
X102500610Y-123420167D01*
X102662290Y-123367634D01*
X102845803Y-123274129D01*
X103012430Y-123153068D01*
X103158068Y-123007430D01*
X103279129Y-122840803D01*
X103372634Y-122657290D01*
X103436280Y-122461408D01*
X103468500Y-122257981D01*
X103468500Y-122052019D01*
X103436280Y-121848592D01*
X103372634Y-121652710D01*
X103279129Y-121469197D01*
X103158068Y-121302570D01*
X103158065Y-121302567D01*
X103158063Y-121302564D01*
X103012435Y-121156936D01*
X103012432Y-121156934D01*
X103012430Y-121156932D01*
X102845803Y-121035871D01*
X102662290Y-120942366D01*
X102662287Y-120942365D01*
X102662285Y-120942364D01*
X102500610Y-120889833D01*
X102442004Y-120849759D01*
X102414367Y-120784363D01*
X102426474Y-120714406D01*
X102474480Y-120662100D01*
X102500610Y-120650167D01*
X102662290Y-120597634D01*
X102845803Y-120504129D01*
X103012430Y-120383068D01*
X103158068Y-120237430D01*
X103279129Y-120070803D01*
X103372634Y-119887290D01*
X103436280Y-119691408D01*
X103468500Y-119487981D01*
X103468500Y-119282019D01*
X103436280Y-119078592D01*
X103372634Y-118882710D01*
X103279129Y-118699197D01*
X103158068Y-118532570D01*
X103158065Y-118532567D01*
X103158063Y-118532564D01*
X103012435Y-118386936D01*
X103012432Y-118386934D01*
X103012430Y-118386932D01*
X102845803Y-118265871D01*
X102662290Y-118172366D01*
X102662287Y-118172365D01*
X102662285Y-118172364D01*
X102466412Y-118108721D01*
X102466410Y-118108720D01*
X102466408Y-118108720D01*
X102262981Y-118076500D01*
X102057019Y-118076500D01*
X101853592Y-118108720D01*
X101853590Y-118108720D01*
X101853587Y-118108721D01*
X101657714Y-118172364D01*
X101657708Y-118172367D01*
X101474193Y-118265873D01*
X101307567Y-118386934D01*
X101307564Y-118386936D01*
X101161936Y-118532564D01*
X101161934Y-118532567D01*
X101040873Y-118699193D01*
X100947367Y-118882708D01*
X100947364Y-118882714D01*
X100883721Y-119078587D01*
X100883720Y-119078590D01*
X100883720Y-119078592D01*
X100851500Y-119282019D01*
X100075500Y-119282019D01*
X100075500Y-110899124D01*
X102191500Y-110899124D01*
X102191500Y-111180875D01*
X102223045Y-111460855D01*
X102285741Y-111735542D01*
X102378789Y-112001456D01*
X102378800Y-112001483D01*
X102501043Y-112255324D01*
X102650942Y-112493885D01*
X102826604Y-112714160D01*
X103025839Y-112913395D01*
X103246114Y-113089057D01*
X103484675Y-113238956D01*
X103484678Y-113238957D01*
X103484679Y-113238958D01*
X103738526Y-113361204D01*
X103738542Y-113361209D01*
X103738543Y-113361210D01*
X104004457Y-113454258D01*
X104004460Y-113454258D01*
X104004464Y-113454260D01*
X104279144Y-113516954D01*
X104279145Y-113516954D01*
X104279148Y-113516955D01*
X104444271Y-113535559D01*
X104559124Y-113548500D01*
X104559126Y-113548500D01*
X104840876Y-113548500D01*
X104911977Y-113540488D01*
X105120852Y-113516955D01*
X105395536Y-113454260D01*
X105661474Y-113361204D01*
X105915321Y-113238958D01*
X106153884Y-113089058D01*
X106261711Y-113003069D01*
X106374160Y-112913395D01*
X106573395Y-112714160D01*
X106749057Y-112493885D01*
X106784377Y-112437675D01*
X106898958Y-112255321D01*
X107021204Y-112001474D01*
X107114260Y-111735536D01*
X107176955Y-111460852D01*
X107208500Y-111180874D01*
X107208500Y-110899126D01*
X107201275Y-110835000D01*
X108641500Y-110835000D01*
X108641500Y-111164999D01*
X108673844Y-111493383D01*
X108738217Y-111817019D01*
X108834009Y-112132804D01*
X108834010Y-112132807D01*
X108960291Y-112437675D01*
X109115846Y-112728698D01*
X109299175Y-113003070D01*
X109508501Y-113258135D01*
X109508527Y-113258164D01*
X109741835Y-113491472D01*
X109741844Y-113491480D01*
X109741849Y-113491485D01*
X109741854Y-113491489D01*
X109741864Y-113491498D01*
X109996929Y-113700824D01*
X110121977Y-113784378D01*
X110271304Y-113884155D01*
X110562325Y-114039709D01*
X110867191Y-114165989D01*
X111182967Y-114261779D01*
X111182976Y-114261780D01*
X111182980Y-114261782D01*
X111266358Y-114278366D01*
X111506611Y-114326155D01*
X111835007Y-114358500D01*
X111835016Y-114358500D01*
X112164984Y-114358500D01*
X112164993Y-114358500D01*
X112493389Y-114326155D01*
X112767565Y-114271618D01*
X112817019Y-114261782D01*
X112817021Y-114261781D01*
X112817033Y-114261779D01*
X113132809Y-114165989D01*
X113437675Y-114039709D01*
X113728696Y-113884155D01*
X114003069Y-113700825D01*
X114258151Y-113491485D01*
X114491485Y-113258151D01*
X114700825Y-113003069D01*
X114884155Y-112728696D01*
X115039709Y-112437675D01*
X115165989Y-112132809D01*
X115261779Y-111817033D01*
X115326155Y-111493389D01*
X115358500Y-111164993D01*
X115358500Y-110835007D01*
X115326155Y-110506611D01*
X115261779Y-110182967D01*
X115165989Y-109867191D01*
X115039709Y-109562325D01*
X114884155Y-109271304D01*
X114700825Y-108996931D01*
X114700824Y-108996929D01*
X114491498Y-108741864D01*
X114491472Y-108741835D01*
X114258164Y-108508527D01*
X114258135Y-108508501D01*
X114003070Y-108299175D01*
X113728698Y-108115846D01*
X113437675Y-107960291D01*
X113132807Y-107834010D01*
X113132804Y-107834009D01*
X112923791Y-107770606D01*
X112817033Y-107738221D01*
X112817030Y-107738220D01*
X112817019Y-107738217D01*
X112572371Y-107689555D01*
X112493389Y-107673845D01*
X112493385Y-107673844D01*
X112493384Y-107673844D01*
X112164999Y-107641500D01*
X112164993Y-107641500D01*
X111835007Y-107641500D01*
X111835000Y-107641500D01*
X111506616Y-107673844D01*
X111182980Y-107738217D01*
X110867195Y-107834009D01*
X110867192Y-107834010D01*
X110562324Y-107960291D01*
X110271301Y-108115846D01*
X109996929Y-108299175D01*
X109741864Y-108508501D01*
X109741835Y-108508527D01*
X109508527Y-108741835D01*
X109508501Y-108741864D01*
X109299175Y-108996929D01*
X109115846Y-109271301D01*
X108960291Y-109562324D01*
X108834010Y-109867192D01*
X108834009Y-109867195D01*
X108738217Y-110182980D01*
X108673844Y-110506616D01*
X108641500Y-110835000D01*
X107201275Y-110835000D01*
X107176955Y-110619148D01*
X107114260Y-110344464D01*
X107021204Y-110078526D01*
X106898958Y-109824679D01*
X106898957Y-109824678D01*
X106898956Y-109824675D01*
X106749057Y-109586114D01*
X106573395Y-109365839D01*
X106374160Y-109166604D01*
X106153885Y-108990942D01*
X105915324Y-108841043D01*
X105661483Y-108718800D01*
X105661478Y-108718798D01*
X105661474Y-108718796D01*
X105661468Y-108718793D01*
X105661456Y-108718789D01*
X105395542Y-108625741D01*
X105120854Y-108563045D01*
X105120857Y-108563045D01*
X104840876Y-108531500D01*
X104840874Y-108531500D01*
X104559126Y-108531500D01*
X104559124Y-108531500D01*
X104279144Y-108563045D01*
X104004457Y-108625741D01*
X103738543Y-108718789D01*
X103738516Y-108718800D01*
X103484675Y-108841043D01*
X103246114Y-108990942D01*
X103025839Y-109166604D01*
X102826604Y-109365839D01*
X102650942Y-109586114D01*
X102501043Y-109824675D01*
X102378800Y-110078516D01*
X102378789Y-110078543D01*
X102285741Y-110344457D01*
X102223045Y-110619144D01*
X102191500Y-110899124D01*
X100075500Y-110899124D01*
X100075500Y-106201500D01*
X100095502Y-106133379D01*
X100149158Y-106086886D01*
X100201500Y-106075500D01*
X100569877Y-106075500D01*
X100569878Y-106075500D01*
X100705574Y-106042054D01*
X100744345Y-106021705D01*
X100758202Y-106014433D01*
X100816757Y-106000000D01*
X104000000Y-106000000D01*
X104000000Y-105000000D01*
X100816757Y-105000000D01*
X100758202Y-104985567D01*
X100705578Y-104957948D01*
X100705576Y-104957947D01*
X100705574Y-104957946D01*
X100705572Y-104957945D01*
X100705571Y-104957945D01*
X100569879Y-104924500D01*
X100569878Y-104924500D01*
X100515018Y-104924500D01*
X100201500Y-104924500D01*
X100133379Y-104904498D01*
X100086886Y-104850842D01*
X100075500Y-104798500D01*
X100075500Y-99819124D01*
X102191500Y-99819124D01*
X102191500Y-100100875D01*
X102223045Y-100380855D01*
X102285741Y-100655542D01*
X102378789Y-100921456D01*
X102378800Y-100921483D01*
X102501043Y-101175324D01*
X102650942Y-101413885D01*
X102826604Y-101634160D01*
X103025839Y-101833395D01*
X103246114Y-102009057D01*
X103484675Y-102158956D01*
X103484678Y-102158957D01*
X103484679Y-102158958D01*
X103738526Y-102281204D01*
X103738542Y-102281209D01*
X103738543Y-102281210D01*
X104004457Y-102374258D01*
X104004460Y-102374258D01*
X104004464Y-102374260D01*
X104279144Y-102436954D01*
X104279145Y-102436954D01*
X104279148Y-102436955D01*
X104444271Y-102455559D01*
X104559124Y-102468500D01*
X104559126Y-102468500D01*
X104840876Y-102468500D01*
X104911977Y-102460488D01*
X105120852Y-102436955D01*
X105395536Y-102374260D01*
X105661474Y-102281204D01*
X105915321Y-102158958D01*
X106153884Y-102009058D01*
X106197940Y-101973924D01*
X106374160Y-101833395D01*
X106573395Y-101634160D01*
X106749057Y-101413885D01*
X106898956Y-101175324D01*
X106898955Y-101175324D01*
X106898958Y-101175321D01*
X107021204Y-100921474D01*
X107114260Y-100655536D01*
X107176955Y-100380852D01*
X107208500Y-100100874D01*
X107208500Y-99835000D01*
X108641500Y-99835000D01*
X108641500Y-100164999D01*
X108673844Y-100493383D01*
X108738217Y-100817019D01*
X108834009Y-101132804D01*
X108834010Y-101132807D01*
X108960291Y-101437675D01*
X109115846Y-101728698D01*
X109299175Y-102003070D01*
X109508501Y-102258135D01*
X109508527Y-102258164D01*
X109741835Y-102491472D01*
X109741844Y-102491480D01*
X109741849Y-102491485D01*
X109741854Y-102491489D01*
X109741864Y-102491498D01*
X109996929Y-102700824D01*
X110271301Y-102884153D01*
X110271304Y-102884155D01*
X110562325Y-103039709D01*
X110867191Y-103165989D01*
X111182967Y-103261779D01*
X111182976Y-103261780D01*
X111182980Y-103261782D01*
X111266358Y-103278366D01*
X111506611Y-103326155D01*
X111835007Y-103358500D01*
X111835016Y-103358500D01*
X112164984Y-103358500D01*
X112164993Y-103358500D01*
X112493389Y-103326155D01*
X112767565Y-103271618D01*
X112817019Y-103261782D01*
X112817021Y-103261781D01*
X112817033Y-103261779D01*
X113132809Y-103165989D01*
X113437675Y-103039709D01*
X113728696Y-102884155D01*
X114003069Y-102700825D01*
X114258151Y-102491485D01*
X114491485Y-102258151D01*
X114700825Y-102003069D01*
X114884155Y-101728696D01*
X115039709Y-101437675D01*
X115165989Y-101132809D01*
X115261779Y-100817033D01*
X115326155Y-100493389D01*
X115358500Y-100164993D01*
X115358500Y-99835007D01*
X115326155Y-99506611D01*
X115261779Y-99182967D01*
X115165989Y-98867191D01*
X115039709Y-98562325D01*
X114884155Y-98271304D01*
X114700825Y-97996931D01*
X114700824Y-97996929D01*
X114491498Y-97741864D01*
X114491472Y-97741835D01*
X114258164Y-97508527D01*
X114258135Y-97508501D01*
X114003070Y-97299175D01*
X113728698Y-97115846D01*
X113437675Y-96960291D01*
X113132807Y-96834010D01*
X113132804Y-96834009D01*
X112923791Y-96770606D01*
X112817033Y-96738221D01*
X112817030Y-96738220D01*
X112817019Y-96738217D01*
X112572371Y-96689555D01*
X112493389Y-96673845D01*
X112493385Y-96673844D01*
X112493384Y-96673844D01*
X112164999Y-96641500D01*
X112164993Y-96641500D01*
X111835007Y-96641500D01*
X111835000Y-96641500D01*
X111506616Y-96673844D01*
X111182980Y-96738217D01*
X110867195Y-96834009D01*
X110867192Y-96834010D01*
X110562324Y-96960291D01*
X110271301Y-97115846D01*
X109996929Y-97299175D01*
X109741864Y-97508501D01*
X109741835Y-97508527D01*
X109508527Y-97741835D01*
X109508501Y-97741864D01*
X109299175Y-97996929D01*
X109115846Y-98271301D01*
X108960291Y-98562324D01*
X108834010Y-98867192D01*
X108834009Y-98867195D01*
X108738217Y-99182980D01*
X108673844Y-99506616D01*
X108641500Y-99835000D01*
X107208500Y-99835000D01*
X107208500Y-99819126D01*
X107176955Y-99539148D01*
X107114260Y-99264464D01*
X107085747Y-99182980D01*
X107021210Y-98998543D01*
X107021209Y-98998542D01*
X107021204Y-98998526D01*
X106898958Y-98744679D01*
X106898957Y-98744678D01*
X106898956Y-98744675D01*
X106749057Y-98506114D01*
X106573395Y-98285839D01*
X106374160Y-98086604D01*
X106153885Y-97910942D01*
X105915324Y-97761043D01*
X105661483Y-97638800D01*
X105661478Y-97638798D01*
X105661474Y-97638796D01*
X105661468Y-97638793D01*
X105661456Y-97638789D01*
X105395542Y-97545741D01*
X105120854Y-97483045D01*
X105120857Y-97483045D01*
X104840876Y-97451500D01*
X104840874Y-97451500D01*
X104559126Y-97451500D01*
X104559124Y-97451500D01*
X104279144Y-97483045D01*
X104004457Y-97545741D01*
X103738543Y-97638789D01*
X103738516Y-97638800D01*
X103484675Y-97761043D01*
X103246114Y-97910942D01*
X103025839Y-98086604D01*
X102826604Y-98285839D01*
X102650942Y-98506114D01*
X102501043Y-98744675D01*
X102378800Y-98998516D01*
X102378789Y-98998543D01*
X102285741Y-99264457D01*
X102223045Y-99539144D01*
X102191500Y-99819124D01*
X100075500Y-99819124D01*
X100075500Y-83202019D01*
X100851500Y-83202019D01*
X100851500Y-83407981D01*
X100877300Y-83570871D01*
X100883721Y-83611412D01*
X100917541Y-83715500D01*
X100947366Y-83807290D01*
X101040871Y-83990803D01*
X101161932Y-84157430D01*
X101161934Y-84157432D01*
X101161936Y-84157435D01*
X101307564Y-84303063D01*
X101307567Y-84303065D01*
X101307570Y-84303068D01*
X101474197Y-84424129D01*
X101657710Y-84517634D01*
X101819390Y-84570167D01*
X101877995Y-84610241D01*
X101905632Y-84675637D01*
X101893525Y-84745594D01*
X101845519Y-84797900D01*
X101819390Y-84809832D01*
X101756885Y-84830142D01*
X101657710Y-84862366D01*
X101657708Y-84862367D01*
X101474193Y-84955873D01*
X101307567Y-85076934D01*
X101307564Y-85076936D01*
X101161936Y-85222564D01*
X101161934Y-85222567D01*
X101040873Y-85389193D01*
X100947367Y-85572708D01*
X100947364Y-85572714D01*
X100883721Y-85768587D01*
X100883720Y-85768590D01*
X100883720Y-85768592D01*
X100851500Y-85972019D01*
X100851500Y-86177981D01*
X100879511Y-86354832D01*
X100883721Y-86381412D01*
X100928349Y-86518764D01*
X100947366Y-86577290D01*
X101040871Y-86760803D01*
X101161932Y-86927430D01*
X101161934Y-86927432D01*
X101161936Y-86927435D01*
X101307564Y-87073063D01*
X101307567Y-87073065D01*
X101307570Y-87073068D01*
X101474197Y-87194129D01*
X101657710Y-87287634D01*
X101819390Y-87340167D01*
X101877995Y-87380241D01*
X101905632Y-87445637D01*
X101893525Y-87515594D01*
X101845519Y-87567900D01*
X101819390Y-87579833D01*
X101657710Y-87632366D01*
X101657708Y-87632367D01*
X101474193Y-87725873D01*
X101307567Y-87846934D01*
X101307564Y-87846936D01*
X101161936Y-87992564D01*
X101161934Y-87992567D01*
X101040873Y-88159193D01*
X100947367Y-88342708D01*
X100947364Y-88342714D01*
X100883721Y-88538587D01*
X100883720Y-88538590D01*
X100883720Y-88538592D01*
X100851500Y-88742019D01*
X100851500Y-88947981D01*
X100862490Y-89017366D01*
X100883721Y-89151412D01*
X100909884Y-89231934D01*
X100947366Y-89347290D01*
X101040871Y-89530803D01*
X101161932Y-89697430D01*
X101161934Y-89697432D01*
X101161936Y-89697435D01*
X101307564Y-89843063D01*
X101307567Y-89843065D01*
X101307570Y-89843068D01*
X101474197Y-89964129D01*
X101657710Y-90057634D01*
X101814690Y-90108640D01*
X101819390Y-90110167D01*
X101877995Y-90150241D01*
X101905632Y-90215637D01*
X101893525Y-90285594D01*
X101845519Y-90337900D01*
X101819390Y-90349833D01*
X101657710Y-90402366D01*
X101657708Y-90402367D01*
X101474193Y-90495873D01*
X101307567Y-90616934D01*
X101307564Y-90616936D01*
X101161936Y-90762564D01*
X101161934Y-90762567D01*
X101040873Y-90929193D01*
X100947367Y-91112708D01*
X100947364Y-91112714D01*
X100883721Y-91308587D01*
X100883720Y-91308590D01*
X100883720Y-91308592D01*
X100851500Y-91512019D01*
X100851500Y-91717981D01*
X100883720Y-91921408D01*
X100947366Y-92117290D01*
X101040871Y-92300803D01*
X101161932Y-92467430D01*
X101161934Y-92467432D01*
X101161936Y-92467435D01*
X101307564Y-92613063D01*
X101307567Y-92613065D01*
X101307570Y-92613068D01*
X101474197Y-92734129D01*
X101657710Y-92827634D01*
X101853592Y-92891280D01*
X102057019Y-92923500D01*
X102057022Y-92923500D01*
X102262978Y-92923500D01*
X102262981Y-92923500D01*
X102466408Y-92891280D01*
X102662290Y-92827634D01*
X102845803Y-92734129D01*
X103012430Y-92613068D01*
X103158068Y-92467430D01*
X103177678Y-92440438D01*
X103233900Y-92397085D01*
X103279614Y-92388500D01*
X103565500Y-92388500D01*
X103633621Y-92408502D01*
X103680114Y-92462158D01*
X103691500Y-92514500D01*
X103691500Y-93848649D01*
X103698009Y-93909196D01*
X103698011Y-93909204D01*
X103749110Y-94046202D01*
X103749112Y-94046207D01*
X103836738Y-94163261D01*
X103953792Y-94250887D01*
X103953794Y-94250888D01*
X103953796Y-94250889D01*
X104012875Y-94272924D01*
X104090795Y-94301988D01*
X104090803Y-94301990D01*
X104151350Y-94308499D01*
X104151355Y-94308499D01*
X104151362Y-94308500D01*
X104151368Y-94308500D01*
X105848632Y-94308500D01*
X105848638Y-94308500D01*
X105848645Y-94308499D01*
X105848649Y-94308499D01*
X105909196Y-94301990D01*
X105909199Y-94301989D01*
X105909201Y-94301989D01*
X106046204Y-94250889D01*
X106163261Y-94163261D01*
X106250889Y-94046204D01*
X106301989Y-93909201D01*
X106308500Y-93848638D01*
X106308500Y-92514500D01*
X106328502Y-92446379D01*
X106382158Y-92399886D01*
X106434500Y-92388500D01*
X107619055Y-92388500D01*
X107687176Y-92408502D01*
X107733669Y-92462158D01*
X107742633Y-92489917D01*
X107749281Y-92523336D01*
X107813243Y-92677754D01*
X107894014Y-92798638D01*
X107906102Y-92816728D01*
X107906107Y-92816734D01*
X108024279Y-92934906D01*
X108024285Y-92934911D01*
X108024287Y-92934913D01*
X108163260Y-93027771D01*
X108317678Y-93091733D01*
X108481608Y-93124340D01*
X108565178Y-93124339D01*
X108685172Y-93124339D01*
X108768742Y-93124340D01*
X108932672Y-93091733D01*
X109087090Y-93027771D01*
X109155169Y-92982281D01*
X109222918Y-92961068D01*
X109291385Y-92979850D01*
X109295139Y-92982263D01*
X109363260Y-93027780D01*
X109517678Y-93091742D01*
X109681608Y-93124349D01*
X109765178Y-93124348D01*
X109885172Y-93124348D01*
X109968742Y-93124349D01*
X110132672Y-93091742D01*
X110287090Y-93027780D01*
X110426063Y-92934922D01*
X110544249Y-92816736D01*
X110637107Y-92677763D01*
X110701069Y-92523345D01*
X110707717Y-92489918D01*
X110740624Y-92427010D01*
X110802318Y-92391877D01*
X110831296Y-92388500D01*
X114781651Y-92388500D01*
X118615500Y-92388500D01*
X118683621Y-92408502D01*
X118730114Y-92462158D01*
X118741500Y-92514500D01*
X118741500Y-92798649D01*
X118748009Y-92859196D01*
X118748011Y-92859204D01*
X118799110Y-92996202D01*
X118799112Y-92996207D01*
X118886738Y-93113261D01*
X119003792Y-93200887D01*
X119003794Y-93200888D01*
X119003796Y-93200889D01*
X119062875Y-93222924D01*
X119140795Y-93251988D01*
X119140803Y-93251990D01*
X119201350Y-93258499D01*
X119201355Y-93258499D01*
X119201362Y-93258500D01*
X119201368Y-93258500D01*
X120798632Y-93258500D01*
X120798638Y-93258500D01*
X120798645Y-93258499D01*
X120798649Y-93258499D01*
X120859196Y-93251990D01*
X120859199Y-93251989D01*
X120859201Y-93251989D01*
X120996204Y-93200889D01*
X121113261Y-93113261D01*
X121129379Y-93091730D01*
X121200887Y-92996207D01*
X121200887Y-92996206D01*
X121200889Y-92996204D01*
X121251989Y-92859201D01*
X121256555Y-92816736D01*
X121258499Y-92798649D01*
X121258500Y-92798632D01*
X121258500Y-91201367D01*
X121258499Y-91201350D01*
X121251990Y-91140803D01*
X121251988Y-91140795D01*
X121213146Y-91036658D01*
X121200889Y-91003796D01*
X121200888Y-91003794D01*
X121200887Y-91003792D01*
X121113261Y-90886738D01*
X120996207Y-90799112D01*
X120996202Y-90799110D01*
X120859204Y-90748011D01*
X120859196Y-90748009D01*
X120798649Y-90741500D01*
X120798638Y-90741500D01*
X120765043Y-90741500D01*
X120696922Y-90721498D01*
X120650429Y-90667842D01*
X120640325Y-90597568D01*
X120669819Y-90532988D01*
X120690982Y-90513564D01*
X120819858Y-90419930D01*
X120959930Y-90279858D01*
X121076366Y-90119598D01*
X121166298Y-89943097D01*
X121227512Y-89754700D01*
X121258500Y-89559046D01*
X121258500Y-89360954D01*
X121227512Y-89165300D01*
X121166298Y-88976903D01*
X121076366Y-88800402D01*
X120986911Y-88677278D01*
X120959928Y-88640139D01*
X120819860Y-88500071D01*
X120659601Y-88383636D01*
X120659600Y-88383635D01*
X120659598Y-88383634D01*
X120499902Y-88302265D01*
X120448290Y-88253519D01*
X120431224Y-88184604D01*
X120454125Y-88117402D01*
X120499902Y-88077735D01*
X120659598Y-87996366D01*
X120819858Y-87879930D01*
X120959930Y-87739858D01*
X121076366Y-87579598D01*
X121166298Y-87403097D01*
X121227512Y-87214700D01*
X121258500Y-87019046D01*
X121258500Y-86820954D01*
X121227512Y-86625300D01*
X121166298Y-86436903D01*
X121076366Y-86260402D01*
X121020057Y-86182900D01*
X120959928Y-86100139D01*
X120819860Y-85960071D01*
X120659601Y-85843636D01*
X120659600Y-85843635D01*
X120659598Y-85843634D01*
X120499902Y-85762265D01*
X120448290Y-85713519D01*
X120431224Y-85644604D01*
X120454125Y-85577402D01*
X120499902Y-85537735D01*
X120659598Y-85456366D01*
X120819858Y-85339930D01*
X120959930Y-85199858D01*
X121076366Y-85039598D01*
X121166298Y-84863097D01*
X121227512Y-84674700D01*
X121258500Y-84479046D01*
X121258500Y-84280954D01*
X121227512Y-84085300D01*
X121166298Y-83896903D01*
X121076366Y-83720402D01*
X121003258Y-83619778D01*
X120959928Y-83560139D01*
X120819860Y-83420071D01*
X120659601Y-83303636D01*
X120659600Y-83303635D01*
X120659598Y-83303634D01*
X120483097Y-83213702D01*
X120294700Y-83152488D01*
X120099046Y-83121500D01*
X119900954Y-83121500D01*
X119705300Y-83152488D01*
X119705297Y-83152488D01*
X119705296Y-83152489D01*
X119516903Y-83213702D01*
X119516901Y-83213703D01*
X119340398Y-83303636D01*
X119180139Y-83420071D01*
X119040071Y-83560139D01*
X118923636Y-83720398D01*
X118833703Y-83896901D01*
X118833702Y-83896903D01*
X118777483Y-84069928D01*
X118772488Y-84085300D01*
X118741500Y-84280954D01*
X118741500Y-84479046D01*
X118772488Y-84674700D01*
X118833702Y-84863097D01*
X118923634Y-85039598D01*
X118923636Y-85039601D01*
X119040071Y-85199860D01*
X119180139Y-85339928D01*
X119247952Y-85389197D01*
X119340402Y-85456366D01*
X119500094Y-85537733D01*
X119551709Y-85586481D01*
X119568775Y-85655396D01*
X119545874Y-85722598D01*
X119500095Y-85762266D01*
X119487690Y-85768587D01*
X119340398Y-85843636D01*
X119180139Y-85960071D01*
X119040071Y-86100139D01*
X118923636Y-86260398D01*
X118833703Y-86436901D01*
X118833702Y-86436903D01*
X118777483Y-86609928D01*
X118772488Y-86625300D01*
X118741500Y-86820954D01*
X118741500Y-87019046D01*
X118772488Y-87214700D01*
X118833702Y-87403097D01*
X118923634Y-87579598D01*
X118923636Y-87579601D01*
X119040071Y-87739860D01*
X119180139Y-87879928D01*
X119180142Y-87879930D01*
X119340402Y-87996366D01*
X119500094Y-88077733D01*
X119551709Y-88126481D01*
X119568775Y-88195396D01*
X119545874Y-88262598D01*
X119500095Y-88302266D01*
X119420724Y-88342708D01*
X119340398Y-88383636D01*
X119180139Y-88500071D01*
X119040074Y-88640136D01*
X119040072Y-88640139D01*
X118924245Y-88799561D01*
X118868023Y-88842915D01*
X118822309Y-88851500D01*
X118740429Y-88851500D01*
X118672308Y-88831498D01*
X118625815Y-88777842D01*
X118615711Y-88707568D01*
X118624022Y-88677278D01*
X118625832Y-88672906D01*
X118687022Y-88484585D01*
X118718000Y-88289003D01*
X118718000Y-88090996D01*
X118687022Y-87895414D01*
X118625834Y-87707097D01*
X118535935Y-87530660D01*
X118511787Y-87497423D01*
X118511785Y-87497423D01*
X117903333Y-88105875D01*
X117879333Y-88016306D01*
X117820090Y-87913694D01*
X117736306Y-87829910D01*
X117633694Y-87770667D01*
X117544122Y-87746666D01*
X118152575Y-87138212D01*
X118119330Y-87114058D01*
X117959355Y-87032548D01*
X117907739Y-86983800D01*
X117890673Y-86914885D01*
X117913573Y-86847684D01*
X117959352Y-86808015D01*
X118119598Y-86726366D01*
X118279858Y-86609930D01*
X118419930Y-86469858D01*
X118536366Y-86309598D01*
X118626298Y-86133097D01*
X118687512Y-85944700D01*
X118718500Y-85749046D01*
X118718500Y-85550954D01*
X118687512Y-85355300D01*
X118626298Y-85166903D01*
X118536366Y-84990402D01*
X118419930Y-84830142D01*
X118419928Y-84830139D01*
X118279860Y-84690071D01*
X118119601Y-84573636D01*
X118119600Y-84573635D01*
X118119598Y-84573634D01*
X117959902Y-84492265D01*
X117908290Y-84443519D01*
X117891224Y-84374604D01*
X117914125Y-84307402D01*
X117959902Y-84267735D01*
X118119598Y-84186366D01*
X118279858Y-84069930D01*
X118419930Y-83929858D01*
X118536366Y-83769598D01*
X118626298Y-83593097D01*
X118687512Y-83404700D01*
X118718500Y-83209046D01*
X118718500Y-83010954D01*
X118687512Y-82815300D01*
X118626298Y-82626903D01*
X118536366Y-82450402D01*
X118419930Y-82290142D01*
X118419928Y-82290139D01*
X118279860Y-82150071D01*
X118119601Y-82033636D01*
X118119600Y-82033635D01*
X118119598Y-82033634D01*
X117943097Y-81943702D01*
X117754700Y-81882488D01*
X117559046Y-81851500D01*
X117360954Y-81851500D01*
X117165300Y-81882488D01*
X117165297Y-81882488D01*
X117165296Y-81882489D01*
X116976903Y-81943702D01*
X116976901Y-81943703D01*
X116800398Y-82033636D01*
X116640139Y-82150071D01*
X116500071Y-82290139D01*
X116383636Y-82450398D01*
X116293703Y-82626901D01*
X116293702Y-82626903D01*
X116236579Y-82802710D01*
X116232488Y-82815300D01*
X116201500Y-83010954D01*
X116201500Y-83209046D01*
X116232488Y-83404700D01*
X116293702Y-83593097D01*
X116383634Y-83769598D01*
X116383636Y-83769601D01*
X116500071Y-83929860D01*
X116640139Y-84069928D01*
X116640142Y-84069930D01*
X116800402Y-84186366D01*
X116960094Y-84267733D01*
X117011709Y-84316481D01*
X117028775Y-84385396D01*
X117005874Y-84452598D01*
X116960095Y-84492266D01*
X116910312Y-84517632D01*
X116800398Y-84573636D01*
X116640139Y-84690071D01*
X116500071Y-84830139D01*
X116383636Y-84990398D01*
X116293703Y-85166901D01*
X116293702Y-85166903D01*
X116237483Y-85339928D01*
X116232488Y-85355300D01*
X116201500Y-85550954D01*
X116201500Y-85749046D01*
X116232488Y-85944700D01*
X116293702Y-86133097D01*
X116383634Y-86309598D01*
X116383636Y-86309601D01*
X116500071Y-86469860D01*
X116640139Y-86609928D01*
X116744703Y-86685898D01*
X116800402Y-86726366D01*
X116960645Y-86808014D01*
X117012260Y-86856763D01*
X117029326Y-86925678D01*
X117006425Y-86992879D01*
X116960645Y-87032548D01*
X116800667Y-87114060D01*
X116767422Y-87138212D01*
X117375876Y-87746666D01*
X117286306Y-87770667D01*
X117183694Y-87829910D01*
X117099910Y-87913694D01*
X117040667Y-88016306D01*
X117016666Y-88105876D01*
X116408212Y-87497423D01*
X116384060Y-87530667D01*
X116384057Y-87530671D01*
X116294166Y-87707094D01*
X116232977Y-87895414D01*
X116202000Y-88090996D01*
X116202000Y-88289003D01*
X116232977Y-88484585D01*
X116294167Y-88672906D01*
X116295978Y-88677278D01*
X116303570Y-88747867D01*
X116271793Y-88811355D01*
X116210736Y-88847585D01*
X116179571Y-88851500D01*
X110074239Y-88851500D01*
X110006118Y-88831498D01*
X109985144Y-88814595D01*
X108429964Y-87259415D01*
X108395938Y-87197103D01*
X108401003Y-87126288D01*
X108414290Y-87100325D01*
X108478489Y-87004244D01*
X108542450Y-86849827D01*
X108575058Y-86685900D01*
X108575058Y-86518760D01*
X108542450Y-86354833D01*
X108478489Y-86200416D01*
X108385632Y-86061444D01*
X108326540Y-86002352D01*
X108274295Y-85950107D01*
X108226822Y-85902634D01*
X108182596Y-85858407D01*
X108182592Y-85858404D01*
X108043627Y-85765548D01*
X107966415Y-85733566D01*
X107889207Y-85701585D01*
X107889205Y-85701584D01*
X107889204Y-85701584D01*
X107889199Y-85701583D01*
X107808892Y-85685607D01*
X107745983Y-85652699D01*
X107710853Y-85591003D01*
X107709905Y-85586648D01*
X107693924Y-85506307D01*
X107629963Y-85351890D01*
X107537106Y-85212918D01*
X107478014Y-85153826D01*
X107425769Y-85101581D01*
X107336512Y-85012324D01*
X107334064Y-85009876D01*
X107195093Y-84917020D01*
X107121959Y-84886727D01*
X107040682Y-84853061D01*
X107040677Y-84853059D01*
X106876753Y-84820452D01*
X106876748Y-84820451D01*
X106709606Y-84820451D01*
X106545688Y-84853055D01*
X106545684Y-84853056D01*
X106482717Y-84879138D01*
X106412127Y-84886727D01*
X106348640Y-84854947D01*
X106312413Y-84793888D01*
X106308500Y-84762729D01*
X106308500Y-84587022D01*
X106308500Y-84587019D01*
X106276280Y-84383592D01*
X106212634Y-84187710D01*
X106119129Y-84004197D01*
X105998068Y-83837570D01*
X105998065Y-83837567D01*
X105998063Y-83837564D01*
X105852435Y-83691936D01*
X105852432Y-83691934D01*
X105852430Y-83691932D01*
X105685803Y-83570871D01*
X105502290Y-83477366D01*
X105399954Y-83444115D01*
X105339802Y-83424570D01*
X105281197Y-83384496D01*
X105253560Y-83319099D01*
X105265667Y-83249142D01*
X105313674Y-83196837D01*
X105339803Y-83184904D01*
X105502093Y-83132173D01*
X105502099Y-83132170D01*
X105685541Y-83038701D01*
X105728372Y-83007582D01*
X105728372Y-83007581D01*
X105124948Y-82404157D01*
X105192993Y-82385925D01*
X105307007Y-82320099D01*
X105400099Y-82227007D01*
X105465925Y-82112993D01*
X105484157Y-82044948D01*
X106087581Y-82648372D01*
X106087582Y-82648372D01*
X106118701Y-82605541D01*
X106212170Y-82422099D01*
X106212173Y-82422093D01*
X106275791Y-82226296D01*
X106308000Y-82022938D01*
X106308000Y-81817061D01*
X106275791Y-81613703D01*
X106212173Y-81417906D01*
X106212170Y-81417900D01*
X106118699Y-81234454D01*
X106087583Y-81191626D01*
X106087582Y-81191626D01*
X105484157Y-81795051D01*
X105465925Y-81727007D01*
X105400099Y-81612993D01*
X105307007Y-81519901D01*
X105192993Y-81454075D01*
X105124947Y-81435841D01*
X105728372Y-80832416D01*
X105685541Y-80801298D01*
X105685540Y-80801297D01*
X105502099Y-80707829D01*
X105502093Y-80707826D01*
X105306294Y-80644208D01*
X105306298Y-80644208D01*
X105102939Y-80612000D01*
X104897061Y-80612000D01*
X104693703Y-80644208D01*
X104497906Y-80707826D01*
X104497900Y-80707829D01*
X104314452Y-80801301D01*
X104271625Y-80832416D01*
X104875051Y-81435842D01*
X104807007Y-81454075D01*
X104692993Y-81519901D01*
X104599901Y-81612993D01*
X104534075Y-81727007D01*
X104515842Y-81795051D01*
X103912416Y-81191625D01*
X103881301Y-81234452D01*
X103787829Y-81417900D01*
X103787826Y-81417906D01*
X103724208Y-81613703D01*
X103692000Y-81817061D01*
X103692000Y-82022938D01*
X103724208Y-82226296D01*
X103787826Y-82422093D01*
X103787829Y-82422099D01*
X103881297Y-82605540D01*
X103881298Y-82605541D01*
X103912416Y-82648372D01*
X104515841Y-82044947D01*
X104534075Y-82112993D01*
X104599901Y-82227007D01*
X104692993Y-82320099D01*
X104807007Y-82385925D01*
X104875051Y-82404157D01*
X104271626Y-83007582D01*
X104271626Y-83007583D01*
X104314454Y-83038699D01*
X104497900Y-83132170D01*
X104497906Y-83132173D01*
X104660196Y-83184904D01*
X104718802Y-83224977D01*
X104746439Y-83290374D01*
X104734332Y-83360331D01*
X104686326Y-83412637D01*
X104660197Y-83424570D01*
X104548877Y-83460740D01*
X104497710Y-83477366D01*
X104497708Y-83477366D01*
X104497708Y-83477367D01*
X104314193Y-83570873D01*
X104147567Y-83691934D01*
X104147564Y-83691936D01*
X104001936Y-83837564D01*
X104001934Y-83837567D01*
X103880873Y-84004193D01*
X103787367Y-84187708D01*
X103787364Y-84187714D01*
X103723721Y-84383587D01*
X103723720Y-84383590D01*
X103723720Y-84383592D01*
X103691500Y-84587019D01*
X103691500Y-84792981D01*
X103717300Y-84955871D01*
X103723721Y-84996412D01*
X103779116Y-85166901D01*
X103787366Y-85192290D01*
X103880871Y-85375803D01*
X104001932Y-85542430D01*
X104001934Y-85542432D01*
X104001936Y-85542435D01*
X104147564Y-85688063D01*
X104147567Y-85688065D01*
X104147570Y-85688068D01*
X104314197Y-85809129D01*
X104497710Y-85902634D01*
X104643817Y-85950107D01*
X104659390Y-85955167D01*
X104717995Y-85995241D01*
X104745632Y-86060637D01*
X104733525Y-86130594D01*
X104685519Y-86182900D01*
X104659390Y-86194833D01*
X104497710Y-86247366D01*
X104497708Y-86247367D01*
X104314193Y-86340873D01*
X104147567Y-86461934D01*
X104147564Y-86461936D01*
X104001936Y-86607564D01*
X104001934Y-86607567D01*
X103880873Y-86774193D01*
X103787367Y-86957708D01*
X103787364Y-86957714D01*
X103723721Y-87153587D01*
X103723720Y-87153590D01*
X103723720Y-87153592D01*
X103691500Y-87357019D01*
X103691500Y-87562981D01*
X103720208Y-87744232D01*
X103723721Y-87766412D01*
X103765636Y-87895414D01*
X103787366Y-87962290D01*
X103880871Y-88145803D01*
X103880873Y-88145806D01*
X103890599Y-88159193D01*
X104001932Y-88312430D01*
X104001934Y-88312432D01*
X104001936Y-88312435D01*
X104147564Y-88458063D01*
X104147567Y-88458065D01*
X104147570Y-88458068D01*
X104314197Y-88579129D01*
X104497710Y-88672634D01*
X104659390Y-88725167D01*
X104717995Y-88765241D01*
X104745632Y-88830637D01*
X104733525Y-88900594D01*
X104685519Y-88952900D01*
X104659390Y-88964832D01*
X104622242Y-88976903D01*
X104497710Y-89017366D01*
X104497708Y-89017367D01*
X104314193Y-89110873D01*
X104147567Y-89231934D01*
X104147564Y-89231936D01*
X104001936Y-89377564D01*
X104001934Y-89377567D01*
X103880873Y-89544193D01*
X103787367Y-89727708D01*
X103787364Y-89727714D01*
X103723721Y-89923587D01*
X103723720Y-89923590D01*
X103723720Y-89923592D01*
X103691500Y-90127019D01*
X103691500Y-90332981D01*
X103723720Y-90536408D01*
X103723721Y-90536412D01*
X103772816Y-90687512D01*
X103787366Y-90732290D01*
X103880871Y-90915803D01*
X103880873Y-90915806D01*
X103921293Y-90971439D01*
X103945151Y-91038306D01*
X103929071Y-91107458D01*
X103878157Y-91156938D01*
X103819357Y-91171500D01*
X103479802Y-91171500D01*
X103411681Y-91151498D01*
X103367535Y-91102703D01*
X103333883Y-91036658D01*
X103279129Y-90929197D01*
X103158068Y-90762570D01*
X103158065Y-90762567D01*
X103158063Y-90762564D01*
X103012435Y-90616936D01*
X103012432Y-90616934D01*
X103012430Y-90616932D01*
X102886999Y-90525802D01*
X102845806Y-90495873D01*
X102845805Y-90495872D01*
X102845803Y-90495871D01*
X102662290Y-90402366D01*
X102662287Y-90402365D01*
X102662285Y-90402364D01*
X102500610Y-90349833D01*
X102442004Y-90309759D01*
X102414367Y-90244363D01*
X102426474Y-90174406D01*
X102474480Y-90122100D01*
X102500610Y-90110167D01*
X102505310Y-90108640D01*
X102662290Y-90057634D01*
X102845803Y-89964129D01*
X103012430Y-89843068D01*
X103158068Y-89697430D01*
X103279129Y-89530803D01*
X103372634Y-89347290D01*
X103436280Y-89151408D01*
X103468500Y-88947981D01*
X103468500Y-88742019D01*
X103436280Y-88538592D01*
X103372634Y-88342710D01*
X103279129Y-88159197D01*
X103158068Y-87992570D01*
X103158065Y-87992567D01*
X103158063Y-87992564D01*
X103012435Y-87846936D01*
X103012432Y-87846934D01*
X103012430Y-87846932D01*
X102845803Y-87725871D01*
X102662290Y-87632366D01*
X102662287Y-87632365D01*
X102662285Y-87632364D01*
X102500610Y-87579833D01*
X102442004Y-87539759D01*
X102414367Y-87474363D01*
X102426474Y-87404406D01*
X102474480Y-87352100D01*
X102500610Y-87340167D01*
X102662290Y-87287634D01*
X102845803Y-87194129D01*
X103012430Y-87073068D01*
X103158068Y-86927430D01*
X103279129Y-86760803D01*
X103372634Y-86577290D01*
X103436280Y-86381408D01*
X103468500Y-86177981D01*
X103468500Y-85972019D01*
X103436280Y-85768592D01*
X103372634Y-85572710D01*
X103279129Y-85389197D01*
X103158068Y-85222570D01*
X103158065Y-85222567D01*
X103158063Y-85222564D01*
X103012435Y-85076936D01*
X103012432Y-85076934D01*
X103012430Y-85076932D01*
X102845803Y-84955871D01*
X102662290Y-84862366D01*
X102662287Y-84862365D01*
X102662285Y-84862364D01*
X102500610Y-84809833D01*
X102442004Y-84769759D01*
X102414367Y-84704363D01*
X102426474Y-84634406D01*
X102474480Y-84582100D01*
X102500610Y-84570167D01*
X102662290Y-84517634D01*
X102845803Y-84424129D01*
X103012430Y-84303068D01*
X103158068Y-84157430D01*
X103279129Y-83990803D01*
X103372634Y-83807290D01*
X103436280Y-83611408D01*
X103468500Y-83407981D01*
X103468500Y-83202019D01*
X103436280Y-82998592D01*
X103372634Y-82802710D01*
X103279129Y-82619197D01*
X103158068Y-82452570D01*
X103158065Y-82452567D01*
X103158063Y-82452564D01*
X103012435Y-82306936D01*
X103012432Y-82306934D01*
X103012430Y-82306932D01*
X102845803Y-82185871D01*
X102662290Y-82092366D01*
X102662287Y-82092365D01*
X102662285Y-82092364D01*
X102466412Y-82028721D01*
X102466410Y-82028720D01*
X102466408Y-82028720D01*
X102262981Y-81996500D01*
X102057019Y-81996500D01*
X101853592Y-82028720D01*
X101853590Y-82028720D01*
X101853587Y-82028721D01*
X101657714Y-82092364D01*
X101657708Y-82092367D01*
X101474193Y-82185873D01*
X101307567Y-82306934D01*
X101307564Y-82306936D01*
X101161936Y-82452564D01*
X101161934Y-82452567D01*
X101040873Y-82619193D01*
X100947367Y-82802708D01*
X100947364Y-82802714D01*
X100883721Y-82998587D01*
X100883720Y-82998590D01*
X100883720Y-82998592D01*
X100851500Y-83202019D01*
X100075500Y-83202019D01*
X100075500Y-74819124D01*
X102191500Y-74819124D01*
X102191500Y-75100875D01*
X102223045Y-75380855D01*
X102285741Y-75655542D01*
X102378789Y-75921456D01*
X102378800Y-75921483D01*
X102501043Y-76175324D01*
X102650942Y-76413885D01*
X102826604Y-76634160D01*
X103025839Y-76833395D01*
X103246114Y-77009057D01*
X103484675Y-77158956D01*
X103484678Y-77158957D01*
X103484679Y-77158958D01*
X103738526Y-77281204D01*
X103738542Y-77281209D01*
X103738543Y-77281210D01*
X104004457Y-77374258D01*
X104004460Y-77374258D01*
X104004464Y-77374260D01*
X104279144Y-77436954D01*
X104279145Y-77436954D01*
X104279148Y-77436955D01*
X104444271Y-77455559D01*
X104559124Y-77468500D01*
X104559126Y-77468500D01*
X104840876Y-77468500D01*
X104911977Y-77460488D01*
X105120852Y-77436955D01*
X105395536Y-77374260D01*
X105661474Y-77281204D01*
X105915321Y-77158958D01*
X106153884Y-77009058D01*
X106197940Y-76973924D01*
X106374160Y-76833395D01*
X106573395Y-76634160D01*
X106749057Y-76413885D01*
X106898956Y-76175324D01*
X106898955Y-76175324D01*
X106898958Y-76175321D01*
X107021204Y-75921474D01*
X107114260Y-75655536D01*
X107176955Y-75380852D01*
X107208500Y-75100874D01*
X107208500Y-74835000D01*
X108641500Y-74835000D01*
X108641500Y-75164999D01*
X108673844Y-75493383D01*
X108738217Y-75817019D01*
X108834009Y-76132804D01*
X108834010Y-76132807D01*
X108960291Y-76437675D01*
X109115846Y-76728698D01*
X109299175Y-77003070D01*
X109508501Y-77258135D01*
X109508527Y-77258164D01*
X109741835Y-77491472D01*
X109741844Y-77491480D01*
X109741849Y-77491485D01*
X109741854Y-77491489D01*
X109741864Y-77491498D01*
X109996929Y-77700824D01*
X110121977Y-77784378D01*
X110271304Y-77884155D01*
X110562325Y-78039709D01*
X110867191Y-78165989D01*
X111182967Y-78261779D01*
X111182976Y-78261780D01*
X111182980Y-78261782D01*
X111266358Y-78278366D01*
X111506611Y-78326155D01*
X111835007Y-78358500D01*
X111835016Y-78358500D01*
X112164984Y-78358500D01*
X112164993Y-78358500D01*
X112493389Y-78326155D01*
X112767565Y-78271618D01*
X112817019Y-78261782D01*
X112817021Y-78261781D01*
X112817033Y-78261779D01*
X113132809Y-78165989D01*
X113437675Y-78039709D01*
X113728696Y-77884155D01*
X114003069Y-77700825D01*
X114258151Y-77491485D01*
X114491485Y-77258151D01*
X114700825Y-77003069D01*
X114884155Y-76728696D01*
X115039709Y-76437675D01*
X115165989Y-76132809D01*
X115261779Y-75817033D01*
X115326155Y-75493389D01*
X115358500Y-75164993D01*
X115358500Y-74835007D01*
X115326155Y-74506611D01*
X115261779Y-74182967D01*
X115165989Y-73867191D01*
X115039709Y-73562325D01*
X114884155Y-73271304D01*
X114700825Y-72996931D01*
X114700824Y-72996929D01*
X114491498Y-72741864D01*
X114491472Y-72741835D01*
X114258164Y-72508527D01*
X114258135Y-72508501D01*
X114003070Y-72299175D01*
X113728698Y-72115846D01*
X113437675Y-71960291D01*
X113132807Y-71834010D01*
X113132804Y-71834009D01*
X112923791Y-71770606D01*
X112817033Y-71738221D01*
X112817030Y-71738220D01*
X112817019Y-71738217D01*
X112572371Y-71689555D01*
X112493389Y-71673845D01*
X112493385Y-71673844D01*
X112493384Y-71673844D01*
X112164999Y-71641500D01*
X112164993Y-71641500D01*
X111835007Y-71641500D01*
X111835000Y-71641500D01*
X111506616Y-71673844D01*
X111182980Y-71738217D01*
X110867195Y-71834009D01*
X110867192Y-71834010D01*
X110562324Y-71960291D01*
X110271301Y-72115846D01*
X109996929Y-72299175D01*
X109741864Y-72508501D01*
X109741835Y-72508527D01*
X109508527Y-72741835D01*
X109508501Y-72741864D01*
X109299175Y-72996929D01*
X109115846Y-73271301D01*
X108960291Y-73562324D01*
X108834010Y-73867192D01*
X108834009Y-73867195D01*
X108738217Y-74182980D01*
X108673844Y-74506616D01*
X108641500Y-74835000D01*
X107208500Y-74835000D01*
X107208500Y-74819126D01*
X107176955Y-74539148D01*
X107114260Y-74264464D01*
X107085747Y-74182980D01*
X107021210Y-73998543D01*
X107021209Y-73998542D01*
X107021204Y-73998526D01*
X106898958Y-73744679D01*
X106898957Y-73744678D01*
X106898956Y-73744675D01*
X106749057Y-73506114D01*
X106573395Y-73285839D01*
X106374160Y-73086604D01*
X106153885Y-72910942D01*
X105915324Y-72761043D01*
X105661483Y-72638800D01*
X105661478Y-72638798D01*
X105661474Y-72638796D01*
X105661468Y-72638793D01*
X105661456Y-72638789D01*
X105395542Y-72545741D01*
X105120854Y-72483045D01*
X105120857Y-72483045D01*
X104840876Y-72451500D01*
X104840874Y-72451500D01*
X104559126Y-72451500D01*
X104559124Y-72451500D01*
X104279144Y-72483045D01*
X104004457Y-72545741D01*
X103738543Y-72638789D01*
X103738516Y-72638800D01*
X103484675Y-72761043D01*
X103246114Y-72910942D01*
X103025839Y-73086604D01*
X102826604Y-73285839D01*
X102650942Y-73506114D01*
X102501043Y-73744675D01*
X102378800Y-73998516D01*
X102378789Y-73998543D01*
X102285741Y-74264457D01*
X102223045Y-74539144D01*
X102191500Y-74819124D01*
X100075500Y-74819124D01*
X100075500Y-70201500D01*
X100095502Y-70133379D01*
X100149158Y-70086886D01*
X100201500Y-70075500D01*
X114950210Y-70075500D01*
X115008894Y-70090000D01*
G37*
G04 #@! TD.AperFunction*
M02*
