G04 #@! TF.GenerationSoftware,KiCad,Pcbnew,10.0.5-unknown-202607221313~667fa36054~ubuntu25.10.1*
G04 #@! TF.CreationDate,2026-09-03T13:35:06+00:00*
G04 #@! TF.ProjectId,rack-ser-adapter,7261636b-2d73-4657-922d-616461707465,rev?*
G04 #@! TF.SameCoordinates,Original*
G04 #@! TF.FileFunction,Copper,L2,Bot*
G04 #@! TF.FilePolarity,Positive*
%FSLAX46Y46*%
G04 Gerber Fmt 4.6, Leading zero omitted, Abs format (unit mm)*
G04 Created by KiCad (PCBNEW 10.0.5-unknown-202607221313~667fa36054~ubuntu25.10.1) date 2026-09-03 13:35:06*
%MOMM*%
%LPD*%
G01*
G04 APERTURE LIST*
G04 #@! TA.AperFunction,ComponentPad*
%ADD10R,1.500000X1.500000*%
G04 #@! TD*
G04 #@! TA.AperFunction,ComponentPad*
%ADD11C,1.500000*%
G04 #@! TD*
G04 #@! TA.AperFunction,ComponentPad*
%ADD12C,3.000000*%
G04 #@! TD*
G04 #@! TA.AperFunction,ComponentPad*
%ADD13C,5.700000*%
G04 #@! TD*
G04 #@! TA.AperFunction,ComponentPad*
%ADD14R,1.600000X1.600000*%
G04 #@! TD*
G04 #@! TA.AperFunction,ComponentPad*
%ADD15C,1.600000*%
G04 #@! TD*
G04 #@! TA.AperFunction,ComponentPad*
%ADD16C,4.000000*%
G04 #@! TD*
G04 #@! TA.AperFunction,ViaPad*
%ADD17C,0.600000*%
G04 #@! TD*
G04 #@! TA.AperFunction,Conductor*
%ADD18C,0.250000*%
G04 #@! TD*
G04 APERTURE END LIST*
D10*
X120000000Y-92000000D03*
D11*
X117460000Y-90730000D03*
X120000000Y-89460000D03*
X117460000Y-88190000D03*
X120000000Y-86920000D03*
X117460000Y-85650000D03*
X120000000Y-84380000D03*
X117460000Y-83110000D03*
D12*
X129400000Y-95325000D03*
X129400000Y-79785000D03*
D13*
X112000000Y-75000000D03*
D14*
X105000000Y-82000000D03*
D15*
X105000000Y-84770000D03*
X105000000Y-87540000D03*
X105000000Y-90310000D03*
X105000000Y-93080000D03*
X102160000Y-83385000D03*
X102160000Y-86155000D03*
X102160000Y-88925000D03*
X102160000Y-91695000D03*
D16*
X104700000Y-75040000D03*
X104700000Y-100040000D03*
D13*
X112000000Y-100000000D03*
X112000000Y-136000000D03*
D14*
X105000000Y-129000000D03*
D15*
X105000000Y-126230000D03*
X105000000Y-123460000D03*
X105000000Y-120690000D03*
X105000000Y-117920000D03*
X102160000Y-127615000D03*
X102160000Y-124845000D03*
X102160000Y-122075000D03*
X102160000Y-119305000D03*
D16*
X104700000Y-110960000D03*
X104700000Y-135960000D03*
D10*
X120000000Y-128000000D03*
D11*
X117460000Y-126730000D03*
X120000000Y-125460000D03*
X117460000Y-124190000D03*
X120000000Y-122920000D03*
X117460000Y-121650000D03*
X120000000Y-120380000D03*
X117460000Y-119110000D03*
D12*
X129400000Y-131325000D03*
X129400000Y-115785000D03*
D13*
X112000000Y-111000000D03*
D17*
X112000000Y-84000000D03*
X114400000Y-120500000D03*
X112600000Y-117600000D03*
X108000000Y-84000000D03*
X110800000Y-120500000D03*
X109000000Y-85000000D03*
X114000000Y-84000000D03*
X120000000Y-117600000D03*
D18*
X102160000Y-84516370D02*
X104058629Y-86414999D01*
X117138998Y-92000000D02*
X120000000Y-92000000D01*
X104058629Y-86414999D02*
X111553997Y-86414999D01*
X102160000Y-83385000D02*
X102160000Y-84516370D01*
X111553997Y-86414999D02*
X117138998Y-92000000D01*
X105000000Y-82000000D02*
X107775408Y-82000000D01*
X107775408Y-82000000D02*
X116505408Y-90730000D01*
X116505408Y-90730000D02*
X117460000Y-90730000D01*
X109321529Y-125315513D02*
X109374369Y-125297024D01*
X111204757Y-126371529D02*
X111234542Y-126324127D01*
X108734542Y-126725117D02*
X108774127Y-126764702D01*
X108874369Y-126812976D02*
X108930000Y-126819245D01*
X109680000Y-125540755D02*
X109680000Y-126569245D01*
X110274127Y-125345298D02*
X110321529Y-125315513D01*
X109374369Y-125297024D02*
X109430000Y-125290755D01*
X109180000Y-125540755D02*
X109186268Y-125485125D01*
X109985630Y-126812976D02*
X110038470Y-126794487D01*
X110180000Y-125540755D02*
X110186268Y-125485125D01*
X110155242Y-126677715D02*
X110173731Y-126624875D01*
X110821529Y-126794487D02*
X110874369Y-126812976D01*
X110585872Y-125345298D02*
X110625457Y-125384883D01*
X110930000Y-126819245D02*
X110985630Y-126812976D01*
X110655242Y-125432285D02*
X110673731Y-125485125D01*
X108680000Y-126480000D02*
X108680000Y-126569245D01*
X111125457Y-126725117D02*
X111155242Y-126677715D01*
X110874369Y-126812976D02*
X110930000Y-126819245D01*
X109655242Y-125432285D02*
X109673731Y-125485125D01*
X108985630Y-126812976D02*
X109038470Y-126794487D01*
X111186268Y-126424369D02*
X111204757Y-126371529D01*
X111321529Y-126254757D02*
X111374369Y-126236268D01*
X110186268Y-125485125D02*
X110204757Y-125432285D01*
X105000000Y-126230000D02*
X108430000Y-126230000D01*
X108821529Y-126794487D02*
X108874369Y-126812976D01*
X108774127Y-126764702D02*
X108821529Y-126794487D01*
X110985630Y-126812976D02*
X111038470Y-126794487D01*
X108680000Y-126569245D02*
X108686268Y-126624875D01*
X109874369Y-126812976D02*
X109930000Y-126819245D01*
X109234542Y-125384883D02*
X109274127Y-125345298D01*
X111374369Y-126236268D02*
X111430000Y-126230000D01*
X109038470Y-126794487D02*
X109085872Y-126764702D01*
X110085872Y-126764702D02*
X110125457Y-126725117D01*
X110774127Y-126764702D02*
X110821529Y-126794487D01*
X113018713Y-126091287D02*
X117460000Y-121650000D01*
X110680000Y-126569245D02*
X110686268Y-126624875D01*
X108704757Y-126677715D02*
X108734542Y-126725117D01*
X110485630Y-125297024D02*
X110538470Y-125315513D01*
X111180000Y-126569245D02*
X111180000Y-126480000D01*
X109680000Y-126569245D02*
X109686268Y-126624875D01*
X110234542Y-125384883D02*
X110274127Y-125345298D01*
X109704757Y-126677715D02*
X109734542Y-126725117D01*
X108686268Y-126624875D02*
X108704757Y-126677715D01*
X109734542Y-126725117D02*
X109774127Y-126764702D01*
X110686268Y-126624875D02*
X110704757Y-126677715D01*
X111085872Y-126764702D02*
X111125457Y-126725117D01*
X108485630Y-126236268D02*
X108538470Y-126254757D01*
X109673731Y-125485125D02*
X109680000Y-125540755D01*
X108430000Y-126230000D02*
X108485630Y-126236268D01*
X109686268Y-126624875D02*
X109704757Y-126677715D01*
X109085872Y-126764702D02*
X109125457Y-126725117D01*
X110204757Y-125432285D02*
X110234542Y-125384883D01*
X111180000Y-126480000D02*
X111186268Y-126424369D01*
X109186268Y-125485125D02*
X109204757Y-125432285D01*
X108585872Y-126284542D02*
X108625457Y-126324127D01*
X111234542Y-126324127D02*
X111274127Y-126284542D01*
X112880000Y-126230000D02*
X113018713Y-126091287D01*
X109125457Y-126725117D02*
X109155242Y-126677715D01*
X111155242Y-126677715D02*
X111173731Y-126624875D01*
X109821529Y-126794487D02*
X109874369Y-126812976D01*
X110673731Y-125485125D02*
X110680000Y-125540755D01*
X110180000Y-126569245D02*
X110180000Y-125540755D01*
X109173731Y-126624875D02*
X109180000Y-126569245D01*
X109155242Y-126677715D02*
X109173731Y-126624875D01*
X110430000Y-125290755D02*
X110485630Y-125297024D01*
X108625457Y-126324127D02*
X108655242Y-126371529D01*
X111430000Y-126230000D02*
X112880000Y-126230000D01*
X110374369Y-125297024D02*
X110430000Y-125290755D01*
X109180000Y-126569245D02*
X109180000Y-125540755D01*
X110538470Y-125315513D02*
X110585872Y-125345298D01*
X111173731Y-126624875D02*
X111180000Y-126569245D01*
X109430000Y-125290755D02*
X109485630Y-125297024D01*
X109585872Y-125345298D02*
X109625457Y-125384883D01*
X110038470Y-126794487D02*
X110085872Y-126764702D01*
X110680000Y-125540755D02*
X110680000Y-126569245D01*
X108673731Y-126424369D02*
X108680000Y-126480000D01*
X109485630Y-125297024D02*
X109538470Y-125315513D01*
X109204757Y-125432285D02*
X109234542Y-125384883D01*
X110704757Y-126677715D02*
X110734542Y-126725117D01*
X108538470Y-126254757D02*
X108585872Y-126284542D01*
X111274127Y-126284542D02*
X111321529Y-126254757D01*
X110125457Y-126725117D02*
X110155242Y-126677715D01*
X109274127Y-125345298D02*
X109321529Y-125315513D01*
X110734542Y-126725117D02*
X110774127Y-126764702D01*
X108655242Y-126371529D02*
X108673731Y-126424369D01*
X110321529Y-125315513D02*
X110374369Y-125297024D01*
X109774127Y-126764702D02*
X109821529Y-126794487D01*
X110625457Y-125384883D02*
X110655242Y-125432285D01*
X109930000Y-126819245D02*
X109985630Y-126812976D01*
X111038470Y-126794487D02*
X111085872Y-126764702D01*
X110173731Y-126624875D02*
X110180000Y-126569245D01*
X109625457Y-125384883D02*
X109655242Y-125432285D01*
X109538470Y-125315513D02*
X109585872Y-125345298D01*
X108930000Y-126819245D02*
X108985630Y-126812976D01*
X119355001Y-127355001D02*
X120000000Y-128000000D01*
X104459999Y-127355001D02*
X119355001Y-127355001D01*
X103874999Y-126770001D02*
X104459999Y-127355001D01*
X116834999Y-127355001D02*
X117460000Y-126730000D01*
X105000000Y-120690000D02*
X103874999Y-121815001D01*
X104459999Y-127355001D02*
X116834999Y-127355001D01*
X103874999Y-121815001D02*
X103874999Y-126770001D01*
G04 #@! TA.AperFunction,Conductor*
G36*
X116120032Y-123990036D02*
G01*
X116176868Y-124032583D01*
X116201679Y-124099103D01*
X116202000Y-124108092D01*
X116202000Y-124289003D01*
X116232977Y-124484585D01*
X116294166Y-124672905D01*
X116384058Y-124849330D01*
X116408212Y-124882575D01*
X117016666Y-124274122D01*
X117040667Y-124363694D01*
X117099910Y-124466306D01*
X117183694Y-124550090D01*
X117286306Y-124609333D01*
X117375875Y-124633333D01*
X116767423Y-125241785D01*
X116767423Y-125241787D01*
X116800662Y-125265937D01*
X116960645Y-125347451D01*
X117012261Y-125396199D01*
X117029327Y-125465113D01*
X117006427Y-125532315D01*
X116960646Y-125571985D01*
X116800399Y-125653635D01*
X116640139Y-125770071D01*
X116500071Y-125910139D01*
X116383636Y-126070398D01*
X116293703Y-126246901D01*
X116293702Y-126246903D01*
X116232488Y-126435297D01*
X116222895Y-126495871D01*
X116203993Y-126615212D01*
X116173582Y-126679364D01*
X116113314Y-126716892D01*
X116079545Y-126721501D01*
X113588594Y-126721501D01*
X113520473Y-126701499D01*
X113473980Y-126647843D01*
X113463876Y-126577569D01*
X113493370Y-126512989D01*
X113499499Y-126506406D01*
X113500349Y-126505554D01*
X113510785Y-126495120D01*
X113510785Y-126495118D01*
X113517960Y-126487944D01*
X113517966Y-126487937D01*
X115986907Y-124018995D01*
X116049217Y-123984971D01*
X116120032Y-123990036D01*
G37*
G04 #@! TD.AperFunction*
G04 #@! TA.AperFunction,Conductor*
G36*
X107528935Y-82653502D02*
G01*
X107549909Y-82670405D01*
X110445908Y-85566404D01*
X110479934Y-85628716D01*
X110474869Y-85699531D01*
X110432322Y-85756367D01*
X110365802Y-85781178D01*
X110356813Y-85781499D01*
X106129786Y-85781499D01*
X106061665Y-85761497D01*
X106015172Y-85707841D01*
X106005068Y-85637567D01*
X106027850Y-85581438D01*
X106119129Y-85455803D01*
X106212634Y-85272290D01*
X106276280Y-85076408D01*
X106308500Y-84872981D01*
X106308500Y-84667019D01*
X106276280Y-84463592D01*
X106212634Y-84267710D01*
X106119129Y-84084197D01*
X105998068Y-83917570D01*
X105998065Y-83917567D01*
X105998063Y-83917564D01*
X105852435Y-83771936D01*
X105852432Y-83771934D01*
X105852430Y-83771932D01*
X105685803Y-83650871D01*
X105502290Y-83557366D01*
X105492952Y-83554332D01*
X105434348Y-83514259D01*
X105406712Y-83448862D01*
X105418819Y-83378905D01*
X105466826Y-83326599D01*
X105531891Y-83308500D01*
X105848632Y-83308500D01*
X105848638Y-83308500D01*
X105848645Y-83308499D01*
X105848649Y-83308499D01*
X105909196Y-83301990D01*
X105909199Y-83301989D01*
X105909201Y-83301989D01*
X106046204Y-83250889D01*
X106163261Y-83163261D01*
X106226644Y-83078592D01*
X106250887Y-83046207D01*
X106250887Y-83046206D01*
X106250889Y-83046204D01*
X106301989Y-82909201D01*
X106304677Y-82884204D01*
X106308499Y-82848649D01*
X106308500Y-82848632D01*
X106308500Y-82759500D01*
X106328502Y-82691379D01*
X106382158Y-82644886D01*
X106434500Y-82633500D01*
X107460814Y-82633500D01*
X107528935Y-82653502D01*
G37*
G04 #@! TD.AperFunction*
G04 #@! TA.AperFunction,Conductor*
G36*
X115008894Y-70090000D02*
G01*
X129193366Y-77555511D01*
X129244331Y-77604938D01*
X129260484Y-77674073D01*
X129236695Y-77740966D01*
X129180518Y-77784378D01*
X129151128Y-77791933D01*
X129007327Y-77810864D01*
X128753003Y-77879010D01*
X128509755Y-77979767D01*
X128509744Y-77979772D01*
X128281746Y-78111407D01*
X128072861Y-78271689D01*
X128072851Y-78271698D01*
X127886698Y-78457851D01*
X127886689Y-78457861D01*
X127726407Y-78666746D01*
X127594772Y-78894744D01*
X127594767Y-78894755D01*
X127494010Y-79138003D01*
X127425864Y-79392327D01*
X127391500Y-79653353D01*
X127391500Y-79916648D01*
X127409304Y-80051887D01*
X127398364Y-80122035D01*
X127351236Y-80175134D01*
X127282882Y-80194323D01*
X127221383Y-80177451D01*
X127181311Y-80154315D01*
X127181296Y-80154308D01*
X127181292Y-80154306D01*
X126954153Y-80060222D01*
X126716677Y-79996591D01*
X126716675Y-79996590D01*
X126716669Y-79996589D01*
X126472929Y-79964500D01*
X126472927Y-79964500D01*
X126227073Y-79964500D01*
X126227070Y-79964500D01*
X125983330Y-79996589D01*
X125745847Y-80060222D01*
X125518706Y-80154307D01*
X125518695Y-80154312D01*
X125305795Y-80277230D01*
X125305789Y-80277234D01*
X125110749Y-80426894D01*
X125110728Y-80426913D01*
X124936913Y-80600728D01*
X124936894Y-80600749D01*
X124787234Y-80795789D01*
X124787230Y-80795795D01*
X124664312Y-81008695D01*
X124664307Y-81008706D01*
X124664306Y-81008708D01*
X124630303Y-81090799D01*
X124570222Y-81235847D01*
X124506589Y-81473330D01*
X124474500Y-81717070D01*
X124474500Y-81962929D01*
X124506589Y-82206669D01*
X124506590Y-82206675D01*
X124506591Y-82206677D01*
X124570222Y-82444153D01*
X124664306Y-82671292D01*
X124664307Y-82671293D01*
X124664312Y-82671304D01*
X124787230Y-82884204D01*
X124787234Y-82884210D01*
X124936894Y-83079250D01*
X124936913Y-83079271D01*
X125110728Y-83253086D01*
X125110738Y-83253095D01*
X125110744Y-83253101D01*
X125110747Y-83253103D01*
X125110749Y-83253105D01*
X125305789Y-83402765D01*
X125305795Y-83402769D01*
X125518695Y-83525687D01*
X125518699Y-83525688D01*
X125518708Y-83525694D01*
X125745847Y-83619778D01*
X125983323Y-83683409D01*
X125983329Y-83683409D01*
X125983330Y-83683410D01*
X126011294Y-83687091D01*
X126227073Y-83715500D01*
X126227080Y-83715500D01*
X126472920Y-83715500D01*
X126472927Y-83715500D01*
X126716677Y-83683409D01*
X126954153Y-83619778D01*
X127181292Y-83525694D01*
X127394208Y-83402767D01*
X127589256Y-83253101D01*
X127763101Y-83079256D01*
X127912767Y-82884208D01*
X128035694Y-82671292D01*
X128129778Y-82444153D01*
X128193409Y-82206677D01*
X128225500Y-81962927D01*
X128225500Y-81717073D01*
X128217393Y-81655498D01*
X128228332Y-81585352D01*
X128275460Y-81532253D01*
X128343814Y-81513063D01*
X128405315Y-81529935D01*
X128509744Y-81590227D01*
X128509748Y-81590228D01*
X128509757Y-81590234D01*
X128753003Y-81690990D01*
X129007320Y-81759134D01*
X129007326Y-81759134D01*
X129007327Y-81759135D01*
X129037281Y-81763078D01*
X129268356Y-81793500D01*
X129268363Y-81793500D01*
X129531637Y-81793500D01*
X129531644Y-81793500D01*
X129792680Y-81759134D01*
X130046997Y-81690990D01*
X130290243Y-81590234D01*
X130518257Y-81458590D01*
X130727138Y-81298311D01*
X130913311Y-81112138D01*
X131073590Y-80903257D01*
X131205234Y-80675243D01*
X131305990Y-80431997D01*
X131374134Y-80177680D01*
X131408500Y-79916644D01*
X131408500Y-79653356D01*
X131374134Y-79392320D01*
X131305990Y-79138003D01*
X131205234Y-78894757D01*
X131205230Y-78894750D01*
X131205229Y-78894747D01*
X131190679Y-78869547D01*
X131173940Y-78800551D01*
X131197159Y-78733459D01*
X131252966Y-78689571D01*
X131323641Y-78682822D01*
X131358482Y-78695045D01*
X133857185Y-80010152D01*
X133908149Y-80059578D01*
X133924500Y-80121651D01*
X133924500Y-94878347D01*
X133904498Y-94946468D01*
X133857184Y-94989847D01*
X131423498Y-96270733D01*
X131353901Y-96284760D01*
X131287769Y-96258933D01*
X131246098Y-96201452D01*
X131242118Y-96130567D01*
X131248401Y-96111026D01*
X131305990Y-95971997D01*
X131374134Y-95717680D01*
X131408500Y-95456644D01*
X131408500Y-95193356D01*
X131374134Y-94932320D01*
X131305990Y-94678003D01*
X131205234Y-94434757D01*
X131205228Y-94434748D01*
X131205227Y-94434744D01*
X131073592Y-94206746D01*
X131067417Y-94198699D01*
X130913311Y-93997862D01*
X130913310Y-93997861D01*
X130913301Y-93997851D01*
X130727148Y-93811698D01*
X130727138Y-93811689D01*
X130518253Y-93651407D01*
X130290255Y-93519772D01*
X130290247Y-93519768D01*
X130290243Y-93519766D01*
X130046997Y-93419010D01*
X129792680Y-93350866D01*
X129792678Y-93350865D01*
X129792672Y-93350864D01*
X129531646Y-93316500D01*
X129531644Y-93316500D01*
X129268356Y-93316500D01*
X129268353Y-93316500D01*
X129007327Y-93350864D01*
X128753003Y-93419010D01*
X128514567Y-93517774D01*
X128509755Y-93519767D01*
X128509749Y-93519769D01*
X128405314Y-93580065D01*
X128336319Y-93596802D01*
X128269227Y-93573581D01*
X128225340Y-93517774D01*
X128217393Y-93454501D01*
X128225500Y-93392927D01*
X128225500Y-93147073D01*
X128193409Y-92903323D01*
X128129778Y-92665847D01*
X128035694Y-92438708D01*
X128035688Y-92438699D01*
X128035687Y-92438695D01*
X127912769Y-92225795D01*
X127912765Y-92225789D01*
X127763105Y-92030749D01*
X127763103Y-92030747D01*
X127763101Y-92030744D01*
X127763095Y-92030738D01*
X127763086Y-92030728D01*
X127589271Y-91856913D01*
X127589250Y-91856894D01*
X127394210Y-91707234D01*
X127394204Y-91707230D01*
X127181304Y-91584312D01*
X127181296Y-91584308D01*
X127181292Y-91584306D01*
X126954153Y-91490222D01*
X126716677Y-91426591D01*
X126716675Y-91426590D01*
X126716669Y-91426589D01*
X126472929Y-91394500D01*
X126472927Y-91394500D01*
X126227073Y-91394500D01*
X126227070Y-91394500D01*
X125983330Y-91426589D01*
X125983323Y-91426591D01*
X125745847Y-91490222D01*
X125667598Y-91522634D01*
X125518706Y-91584307D01*
X125518695Y-91584312D01*
X125305795Y-91707230D01*
X125305789Y-91707234D01*
X125110749Y-91856894D01*
X125110728Y-91856913D01*
X124936913Y-92030728D01*
X124936894Y-92030749D01*
X124787234Y-92225789D01*
X124787230Y-92225795D01*
X124664312Y-92438695D01*
X124664307Y-92438706D01*
X124570222Y-92665847D01*
X124506589Y-92903330D01*
X124474500Y-93147070D01*
X124474500Y-93392929D01*
X124506589Y-93636669D01*
X124506590Y-93636675D01*
X124506591Y-93636677D01*
X124570222Y-93874153D01*
X124664306Y-94101292D01*
X124664307Y-94101293D01*
X124664312Y-94101304D01*
X124787230Y-94314204D01*
X124787234Y-94314210D01*
X124936894Y-94509250D01*
X124936913Y-94509271D01*
X125110728Y-94683086D01*
X125110738Y-94683095D01*
X125110744Y-94683101D01*
X125110747Y-94683103D01*
X125110749Y-94683105D01*
X125305789Y-94832765D01*
X125305795Y-94832769D01*
X125518695Y-94955687D01*
X125518699Y-94955688D01*
X125518708Y-94955694D01*
X125745847Y-95049778D01*
X125983323Y-95113409D01*
X125983329Y-95113409D01*
X125983330Y-95113410D01*
X126011294Y-95117091D01*
X126227073Y-95145500D01*
X126227080Y-95145500D01*
X126472920Y-95145500D01*
X126472927Y-95145500D01*
X126716677Y-95113409D01*
X126954153Y-95049778D01*
X127181292Y-94955694D01*
X127181308Y-94955685D01*
X127221381Y-94932549D01*
X127290376Y-94915810D01*
X127357468Y-94939030D01*
X127401356Y-94994836D01*
X127409304Y-95058112D01*
X127391500Y-95193351D01*
X127391500Y-95456646D01*
X127425864Y-95717672D01*
X127425865Y-95717678D01*
X127425866Y-95717680D01*
X127494010Y-95971997D01*
X127594766Y-96215243D01*
X127594767Y-96215244D01*
X127594772Y-96215255D01*
X127726407Y-96443253D01*
X127886689Y-96652138D01*
X127886698Y-96652148D01*
X128072851Y-96838301D01*
X128072861Y-96838310D01*
X128072862Y-96838311D01*
X128231830Y-96960291D01*
X128281746Y-96998592D01*
X128509744Y-97130227D01*
X128509748Y-97130228D01*
X128509757Y-97130234D01*
X128753003Y-97230990D01*
X129002718Y-97297901D01*
X129063340Y-97334852D01*
X129094361Y-97398712D01*
X129085933Y-97469207D01*
X129040730Y-97523954D01*
X129028790Y-97531107D01*
X115008894Y-104910000D01*
X114950210Y-104924500D01*
X114430120Y-104924500D01*
X114294428Y-104957945D01*
X114294421Y-104957948D01*
X114241798Y-104985567D01*
X114183243Y-105000000D01*
X109999998Y-105000000D01*
X109991005Y-105008993D01*
X109928693Y-105043018D01*
X109857877Y-105037952D01*
X109830330Y-105023589D01*
X109829326Y-105022896D01*
X109705572Y-104957945D01*
X109569879Y-104924500D01*
X109569878Y-104924500D01*
X109515018Y-104924500D01*
X105524531Y-104924500D01*
X105500000Y-104924500D01*
X105430122Y-104924500D01*
X105430120Y-104924500D01*
X105294428Y-104957945D01*
X105294427Y-104957945D01*
X105170678Y-105022893D01*
X105066066Y-105115571D01*
X104986678Y-105230585D01*
X104937117Y-105361264D01*
X104920273Y-105499996D01*
X104920273Y-105500003D01*
X104937117Y-105638735D01*
X104965932Y-105714714D01*
X104986677Y-105769413D01*
X104986678Y-105769414D01*
X105066066Y-105884428D01*
X105066067Y-105884429D01*
X105066068Y-105884430D01*
X105170678Y-105977106D01*
X105294426Y-106042054D01*
X105430122Y-106075500D01*
X105430123Y-106075500D01*
X109569877Y-106075500D01*
X109569878Y-106075500D01*
X109705574Y-106042054D01*
X109829322Y-105977106D01*
X109829331Y-105977097D01*
X109830320Y-105976416D01*
X109831173Y-105976134D01*
X109836071Y-105973564D01*
X109836498Y-105974377D01*
X109897742Y-105954171D01*
X109966487Y-105971908D01*
X109991006Y-105991007D01*
X109999999Y-106000000D01*
X110000000Y-106000000D01*
X114183243Y-106000000D01*
X114241798Y-106014433D01*
X114266077Y-106027175D01*
X114294426Y-106042054D01*
X114430122Y-106075500D01*
X114484982Y-106075500D01*
X114950210Y-106075500D01*
X115008894Y-106090000D01*
X129193366Y-113555511D01*
X129244331Y-113604938D01*
X129260484Y-113674073D01*
X129236695Y-113740966D01*
X129180518Y-113784378D01*
X129151128Y-113791933D01*
X129007327Y-113810864D01*
X128753003Y-113879010D01*
X128509755Y-113979767D01*
X128509744Y-113979772D01*
X128281746Y-114111407D01*
X128072861Y-114271689D01*
X128072851Y-114271698D01*
X127886698Y-114457851D01*
X127886689Y-114457861D01*
X127726407Y-114666746D01*
X127594772Y-114894744D01*
X127594767Y-114894755D01*
X127494010Y-115138003D01*
X127425864Y-115392327D01*
X127391500Y-115653353D01*
X127391500Y-115916648D01*
X127409304Y-116051887D01*
X127398364Y-116122035D01*
X127351236Y-116175134D01*
X127282882Y-116194323D01*
X127221383Y-116177451D01*
X127181311Y-116154315D01*
X127181296Y-116154308D01*
X127181292Y-116154306D01*
X126954153Y-116060222D01*
X126716677Y-115996591D01*
X126716675Y-115996590D01*
X126716669Y-115996589D01*
X126472929Y-115964500D01*
X126472927Y-115964500D01*
X126227073Y-115964500D01*
X126227070Y-115964500D01*
X125983330Y-115996589D01*
X125745847Y-116060222D01*
X125518706Y-116154307D01*
X125518695Y-116154312D01*
X125305795Y-116277230D01*
X125305789Y-116277234D01*
X125110749Y-116426894D01*
X125110728Y-116426913D01*
X124936913Y-116600728D01*
X124936894Y-116600749D01*
X124787234Y-116795789D01*
X124787230Y-116795795D01*
X124664312Y-117008695D01*
X124664307Y-117008706D01*
X124570222Y-117235847D01*
X124506589Y-117473330D01*
X124474500Y-117717070D01*
X124474500Y-117962929D01*
X124506589Y-118206669D01*
X124506590Y-118206675D01*
X124506591Y-118206677D01*
X124570222Y-118444153D01*
X124664306Y-118671292D01*
X124664307Y-118671293D01*
X124664312Y-118671304D01*
X124787230Y-118884204D01*
X124787234Y-118884210D01*
X124936894Y-119079250D01*
X124936913Y-119079271D01*
X125110728Y-119253086D01*
X125110738Y-119253095D01*
X125110744Y-119253101D01*
X125110747Y-119253103D01*
X125110749Y-119253105D01*
X125305789Y-119402765D01*
X125305795Y-119402769D01*
X125518695Y-119525687D01*
X125518699Y-119525688D01*
X125518708Y-119525694D01*
X125745847Y-119619778D01*
X125983323Y-119683409D01*
X125983329Y-119683409D01*
X125983330Y-119683410D01*
X126011294Y-119687091D01*
X126227073Y-119715500D01*
X126227080Y-119715500D01*
X126472920Y-119715500D01*
X126472927Y-119715500D01*
X126716677Y-119683409D01*
X126954153Y-119619778D01*
X127181292Y-119525694D01*
X127394208Y-119402767D01*
X127589256Y-119253101D01*
X127763101Y-119079256D01*
X127912767Y-118884208D01*
X128035694Y-118671292D01*
X128129778Y-118444153D01*
X128193409Y-118206677D01*
X128225500Y-117962927D01*
X128225500Y-117717073D01*
X128217393Y-117655498D01*
X128228332Y-117585352D01*
X128275460Y-117532253D01*
X128343814Y-117513063D01*
X128405315Y-117529935D01*
X128509744Y-117590227D01*
X128509748Y-117590228D01*
X128509757Y-117590234D01*
X128753003Y-117690990D01*
X129007320Y-117759134D01*
X129007326Y-117759134D01*
X129007327Y-117759135D01*
X129037281Y-117763078D01*
X129268356Y-117793500D01*
X129268363Y-117793500D01*
X129531637Y-117793500D01*
X129531644Y-117793500D01*
X129792680Y-117759134D01*
X130046997Y-117690990D01*
X130290243Y-117590234D01*
X130518257Y-117458590D01*
X130727138Y-117298311D01*
X130913311Y-117112138D01*
X131073590Y-116903257D01*
X131205234Y-116675243D01*
X131305990Y-116431997D01*
X131374134Y-116177680D01*
X131408500Y-115916644D01*
X131408500Y-115653356D01*
X131374134Y-115392320D01*
X131305990Y-115138003D01*
X131205234Y-114894757D01*
X131205230Y-114894750D01*
X131205229Y-114894747D01*
X131190679Y-114869547D01*
X131173940Y-114800551D01*
X131197159Y-114733459D01*
X131252966Y-114689571D01*
X131323641Y-114682822D01*
X131358482Y-114695045D01*
X133857185Y-116010152D01*
X133908149Y-116059578D01*
X133924500Y-116121651D01*
X133924500Y-130878347D01*
X133904498Y-130946468D01*
X133857184Y-130989847D01*
X131423498Y-132270733D01*
X131353901Y-132284760D01*
X131287769Y-132258933D01*
X131246098Y-132201452D01*
X131242118Y-132130567D01*
X131248401Y-132111026D01*
X131305990Y-131971997D01*
X131374134Y-131717680D01*
X131408500Y-131456644D01*
X131408500Y-131193356D01*
X131374134Y-130932320D01*
X131305990Y-130678003D01*
X131205234Y-130434757D01*
X131205228Y-130434748D01*
X131205227Y-130434744D01*
X131073592Y-130206746D01*
X130913310Y-129997861D01*
X130913301Y-129997851D01*
X130727148Y-129811698D01*
X130727138Y-129811689D01*
X130518253Y-129651407D01*
X130290255Y-129519772D01*
X130290247Y-129519768D01*
X130290243Y-129519766D01*
X130046997Y-129419010D01*
X129792680Y-129350866D01*
X129792678Y-129350865D01*
X129792672Y-129350864D01*
X129531646Y-129316500D01*
X129531644Y-129316500D01*
X129268356Y-129316500D01*
X129268353Y-129316500D01*
X129007327Y-129350864D01*
X128753003Y-129419010D01*
X128514567Y-129517774D01*
X128509755Y-129519767D01*
X128509749Y-129519769D01*
X128405314Y-129580065D01*
X128336319Y-129596802D01*
X128269227Y-129573581D01*
X128225340Y-129517774D01*
X128217393Y-129454501D01*
X128225500Y-129392927D01*
X128225500Y-129147073D01*
X128193409Y-128903323D01*
X128129778Y-128665847D01*
X128035694Y-128438708D01*
X128035688Y-128438699D01*
X128035687Y-128438695D01*
X127912769Y-128225795D01*
X127912765Y-128225789D01*
X127763105Y-128030749D01*
X127763103Y-128030747D01*
X127763101Y-128030744D01*
X127763095Y-128030738D01*
X127763086Y-128030728D01*
X127589271Y-127856913D01*
X127589250Y-127856894D01*
X127394210Y-127707234D01*
X127394204Y-127707230D01*
X127181304Y-127584312D01*
X127181296Y-127584308D01*
X127181292Y-127584306D01*
X126954153Y-127490222D01*
X126716677Y-127426591D01*
X126716675Y-127426590D01*
X126716669Y-127426589D01*
X126472929Y-127394500D01*
X126472927Y-127394500D01*
X126227073Y-127394500D01*
X126227070Y-127394500D01*
X125983330Y-127426589D01*
X125983323Y-127426591D01*
X125745847Y-127490222D01*
X125568707Y-127563596D01*
X125518706Y-127584307D01*
X125518695Y-127584312D01*
X125305795Y-127707230D01*
X125305789Y-127707234D01*
X125110749Y-127856894D01*
X125110728Y-127856913D01*
X124936913Y-128030728D01*
X124936894Y-128030749D01*
X124787234Y-128225789D01*
X124787230Y-128225795D01*
X124664312Y-128438695D01*
X124664307Y-128438706D01*
X124570222Y-128665847D01*
X124506589Y-128903330D01*
X124474500Y-129147070D01*
X124474500Y-129392929D01*
X124506589Y-129636669D01*
X124506590Y-129636675D01*
X124506591Y-129636677D01*
X124570222Y-129874153D01*
X124664306Y-130101292D01*
X124664307Y-130101293D01*
X124664312Y-130101304D01*
X124787230Y-130314204D01*
X124787234Y-130314210D01*
X124936894Y-130509250D01*
X124936913Y-130509271D01*
X125110728Y-130683086D01*
X125110738Y-130683095D01*
X125110744Y-130683101D01*
X125110747Y-130683103D01*
X125110749Y-130683105D01*
X125305789Y-130832765D01*
X125305795Y-130832769D01*
X125518695Y-130955687D01*
X125518699Y-130955688D01*
X125518708Y-130955694D01*
X125745847Y-131049778D01*
X125983323Y-131113409D01*
X125983329Y-131113409D01*
X125983330Y-131113410D01*
X126011294Y-131117091D01*
X126227073Y-131145500D01*
X126227080Y-131145500D01*
X126472920Y-131145500D01*
X126472927Y-131145500D01*
X126716677Y-131113409D01*
X126954153Y-131049778D01*
X127181292Y-130955694D01*
X127181308Y-130955685D01*
X127221381Y-130932549D01*
X127290376Y-130915810D01*
X127357468Y-130939030D01*
X127401356Y-130994836D01*
X127409304Y-131058112D01*
X127391500Y-131193351D01*
X127391500Y-131456646D01*
X127425864Y-131717672D01*
X127425865Y-131717678D01*
X127425866Y-131717680D01*
X127494010Y-131971997D01*
X127594766Y-132215243D01*
X127594767Y-132215244D01*
X127594772Y-132215255D01*
X127726407Y-132443253D01*
X127886689Y-132652138D01*
X127886698Y-132652148D01*
X128072851Y-132838301D01*
X128072861Y-132838310D01*
X128072862Y-132838311D01*
X128231830Y-132960291D01*
X128281746Y-132998592D01*
X128509744Y-133130227D01*
X128509748Y-133130228D01*
X128509757Y-133130234D01*
X128753003Y-133230990D01*
X129002718Y-133297901D01*
X129063340Y-133334852D01*
X129094361Y-133398712D01*
X129085933Y-133469207D01*
X129040730Y-133523954D01*
X129028790Y-133531107D01*
X115008894Y-140910000D01*
X114950210Y-140924500D01*
X100201500Y-140924500D01*
X100133379Y-140904498D01*
X100086886Y-140850842D01*
X100075500Y-140798500D01*
X100075500Y-135819124D01*
X102191500Y-135819124D01*
X102191500Y-136100875D01*
X102223045Y-136380855D01*
X102285741Y-136655542D01*
X102378789Y-136921456D01*
X102378800Y-136921483D01*
X102501043Y-137175324D01*
X102650942Y-137413885D01*
X102826604Y-137634160D01*
X103025839Y-137833395D01*
X103246114Y-138009057D01*
X103484675Y-138158956D01*
X103484678Y-138158957D01*
X103484679Y-138158958D01*
X103738526Y-138281204D01*
X103738542Y-138281209D01*
X103738543Y-138281210D01*
X104004457Y-138374258D01*
X104004460Y-138374258D01*
X104004464Y-138374260D01*
X104279144Y-138436954D01*
X104279145Y-138436954D01*
X104279148Y-138436955D01*
X104444271Y-138455559D01*
X104559124Y-138468500D01*
X104559126Y-138468500D01*
X104840876Y-138468500D01*
X104911977Y-138460488D01*
X105120852Y-138436955D01*
X105395536Y-138374260D01*
X105661474Y-138281204D01*
X105915321Y-138158958D01*
X106153884Y-138009058D01*
X106197940Y-137973924D01*
X106374160Y-137833395D01*
X106573395Y-137634160D01*
X106749057Y-137413885D01*
X106898956Y-137175324D01*
X106898955Y-137175324D01*
X106898958Y-137175321D01*
X107021204Y-136921474D01*
X107114260Y-136655536D01*
X107176955Y-136380852D01*
X107208500Y-136100874D01*
X107208500Y-135835000D01*
X108641500Y-135835000D01*
X108641500Y-136164999D01*
X108673844Y-136493383D01*
X108738217Y-136817019D01*
X108834009Y-137132804D01*
X108834010Y-137132807D01*
X108960291Y-137437675D01*
X109115846Y-137728698D01*
X109299175Y-138003070D01*
X109508501Y-138258135D01*
X109508527Y-138258164D01*
X109741835Y-138491472D01*
X109741844Y-138491480D01*
X109741849Y-138491485D01*
X109741854Y-138491489D01*
X109741864Y-138491498D01*
X109996929Y-138700824D01*
X110271301Y-138884153D01*
X110271304Y-138884155D01*
X110562325Y-139039709D01*
X110867191Y-139165989D01*
X111182967Y-139261779D01*
X111182976Y-139261780D01*
X111182980Y-139261782D01*
X111266358Y-139278366D01*
X111506611Y-139326155D01*
X111835007Y-139358500D01*
X111835016Y-139358500D01*
X112164984Y-139358500D01*
X112164993Y-139358500D01*
X112493389Y-139326155D01*
X112767565Y-139271618D01*
X112817019Y-139261782D01*
X112817021Y-139261781D01*
X112817033Y-139261779D01*
X113132809Y-139165989D01*
X113437675Y-139039709D01*
X113728696Y-138884155D01*
X114003069Y-138700825D01*
X114258151Y-138491485D01*
X114491485Y-138258151D01*
X114700825Y-138003069D01*
X114884155Y-137728696D01*
X115039709Y-137437675D01*
X115165989Y-137132809D01*
X115261779Y-136817033D01*
X115326155Y-136493389D01*
X115358500Y-136164993D01*
X115358500Y-135835007D01*
X115326155Y-135506611D01*
X115261779Y-135182967D01*
X115165989Y-134867191D01*
X115039709Y-134562325D01*
X114884155Y-134271304D01*
X114700825Y-133996931D01*
X114700824Y-133996929D01*
X114491498Y-133741864D01*
X114491472Y-133741835D01*
X114258164Y-133508527D01*
X114258135Y-133508501D01*
X114003070Y-133299175D01*
X113728698Y-133115846D01*
X113437675Y-132960291D01*
X113132807Y-132834010D01*
X113132804Y-132834009D01*
X112923791Y-132770606D01*
X112817033Y-132738221D01*
X112817030Y-132738220D01*
X112817019Y-132738217D01*
X112572371Y-132689555D01*
X112493389Y-132673845D01*
X112493385Y-132673844D01*
X112493384Y-132673844D01*
X112164999Y-132641500D01*
X112164993Y-132641500D01*
X111835007Y-132641500D01*
X111835000Y-132641500D01*
X111506616Y-132673844D01*
X111182980Y-132738217D01*
X110867195Y-132834009D01*
X110867192Y-132834010D01*
X110562324Y-132960291D01*
X110271301Y-133115846D01*
X109996929Y-133299175D01*
X109741864Y-133508501D01*
X109741835Y-133508527D01*
X109508527Y-133741835D01*
X109508501Y-133741864D01*
X109299175Y-133996929D01*
X109115846Y-134271301D01*
X108960291Y-134562324D01*
X108834010Y-134867192D01*
X108834009Y-134867195D01*
X108738217Y-135182980D01*
X108673844Y-135506616D01*
X108641500Y-135835000D01*
X107208500Y-135835000D01*
X107208500Y-135819126D01*
X107176955Y-135539148D01*
X107114260Y-135264464D01*
X107085747Y-135182980D01*
X107021210Y-134998543D01*
X107021209Y-134998542D01*
X107021204Y-134998526D01*
X106898958Y-134744679D01*
X106898957Y-134744678D01*
X106898956Y-134744675D01*
X106749057Y-134506114D01*
X106573395Y-134285839D01*
X106374160Y-134086604D01*
X106153885Y-133910942D01*
X105915324Y-133761043D01*
X105661483Y-133638800D01*
X105661478Y-133638798D01*
X105661474Y-133638796D01*
X105661468Y-133638793D01*
X105661456Y-133638789D01*
X105395542Y-133545741D01*
X105120854Y-133483045D01*
X105120857Y-133483045D01*
X104840876Y-133451500D01*
X104840874Y-133451500D01*
X104559126Y-133451500D01*
X104559124Y-133451500D01*
X104279144Y-133483045D01*
X104004457Y-133545741D01*
X103738543Y-133638789D01*
X103738516Y-133638800D01*
X103484675Y-133761043D01*
X103246114Y-133910942D01*
X103025839Y-134086604D01*
X102826604Y-134285839D01*
X102650942Y-134506114D01*
X102501043Y-134744675D01*
X102378800Y-134998516D01*
X102378789Y-134998543D01*
X102285741Y-135264457D01*
X102223045Y-135539144D01*
X102191500Y-135819124D01*
X100075500Y-135819124D01*
X100075500Y-119202019D01*
X100851500Y-119202019D01*
X100851500Y-119407981D01*
X100877300Y-119570871D01*
X100883721Y-119611412D01*
X100917541Y-119715500D01*
X100947366Y-119807290D01*
X101040871Y-119990803D01*
X101161932Y-120157430D01*
X101161934Y-120157432D01*
X101161936Y-120157435D01*
X101307564Y-120303063D01*
X101307567Y-120303065D01*
X101307570Y-120303068D01*
X101474197Y-120424129D01*
X101657710Y-120517634D01*
X101819390Y-120570167D01*
X101877995Y-120610241D01*
X101905632Y-120675637D01*
X101893525Y-120745594D01*
X101845519Y-120797900D01*
X101819390Y-120809832D01*
X101756885Y-120830142D01*
X101657710Y-120862366D01*
X101657708Y-120862367D01*
X101474193Y-120955873D01*
X101307567Y-121076934D01*
X101307564Y-121076936D01*
X101161936Y-121222564D01*
X101161934Y-121222567D01*
X101040873Y-121389193D01*
X100947367Y-121572708D01*
X100947364Y-121572714D01*
X100883721Y-121768587D01*
X100883720Y-121768590D01*
X100883720Y-121768592D01*
X100851500Y-121972019D01*
X100851500Y-122177981D01*
X100872347Y-122309601D01*
X100883721Y-122381412D01*
X100912459Y-122469860D01*
X100947366Y-122577290D01*
X101040871Y-122760803D01*
X101161932Y-122927430D01*
X101161934Y-122927432D01*
X101161936Y-122927435D01*
X101307564Y-123073063D01*
X101307567Y-123073065D01*
X101307570Y-123073068D01*
X101474197Y-123194129D01*
X101657710Y-123287634D01*
X101819390Y-123340167D01*
X101877995Y-123380241D01*
X101905632Y-123445637D01*
X101893525Y-123515594D01*
X101845519Y-123567900D01*
X101819390Y-123579833D01*
X101657710Y-123632366D01*
X101657708Y-123632367D01*
X101474193Y-123725873D01*
X101307567Y-123846934D01*
X101307564Y-123846936D01*
X101161936Y-123992564D01*
X101161934Y-123992567D01*
X101040873Y-124159193D01*
X100947367Y-124342708D01*
X100947364Y-124342714D01*
X100883721Y-124538587D01*
X100883720Y-124538590D01*
X100883720Y-124538592D01*
X100851500Y-124742019D01*
X100851500Y-124947981D01*
X100883720Y-125151408D01*
X100883721Y-125151412D01*
X100946186Y-125343660D01*
X100947366Y-125347290D01*
X101040871Y-125530803D01*
X101040873Y-125530806D01*
X101064773Y-125563702D01*
X101161932Y-125697430D01*
X101161934Y-125697432D01*
X101161936Y-125697435D01*
X101307564Y-125843063D01*
X101307567Y-125843065D01*
X101307570Y-125843068D01*
X101474197Y-125964129D01*
X101657710Y-126057634D01*
X101819390Y-126110167D01*
X101877995Y-126150241D01*
X101905632Y-126215637D01*
X101893525Y-126285594D01*
X101845519Y-126337900D01*
X101819390Y-126349833D01*
X101657710Y-126402366D01*
X101657708Y-126402367D01*
X101474193Y-126495873D01*
X101307567Y-126616934D01*
X101307564Y-126616936D01*
X101161936Y-126762564D01*
X101161934Y-126762567D01*
X101040873Y-126929193D01*
X100947367Y-127112708D01*
X100947364Y-127112714D01*
X100883721Y-127308587D01*
X100883720Y-127308590D01*
X100883720Y-127308592D01*
X100851500Y-127512019D01*
X100851500Y-127717981D01*
X100870310Y-127836739D01*
X100883721Y-127921412D01*
X100946459Y-128114501D01*
X100947366Y-128117290D01*
X101040871Y-128300803D01*
X101161932Y-128467430D01*
X101161934Y-128467432D01*
X101161936Y-128467435D01*
X101307564Y-128613063D01*
X101307567Y-128613065D01*
X101307570Y-128613068D01*
X101474197Y-128734129D01*
X101657710Y-128827634D01*
X101853592Y-128891280D01*
X102057019Y-128923500D01*
X102057022Y-128923500D01*
X102262978Y-128923500D01*
X102262981Y-128923500D01*
X102466408Y-128891280D01*
X102662290Y-128827634D01*
X102845803Y-128734129D01*
X103012430Y-128613068D01*
X103158068Y-128467430D01*
X103279129Y-128300803D01*
X103372634Y-128117290D01*
X103436280Y-127921408D01*
X103468500Y-127717981D01*
X103468500Y-127563596D01*
X103488502Y-127495475D01*
X103542158Y-127448982D01*
X103612432Y-127438878D01*
X103677012Y-127468372D01*
X103683595Y-127474501D01*
X103853495Y-127644401D01*
X103887521Y-127706713D01*
X103882456Y-127777528D01*
X103842993Y-127830248D01*
X103843111Y-127830366D01*
X103842297Y-127831179D01*
X103839919Y-127834357D01*
X103836739Y-127836737D01*
X103749112Y-127953792D01*
X103749110Y-127953797D01*
X103698011Y-128090795D01*
X103698009Y-128090803D01*
X103691500Y-128151350D01*
X103691500Y-129848649D01*
X103698009Y-129909196D01*
X103698011Y-129909204D01*
X103749110Y-130046202D01*
X103749112Y-130046207D01*
X103836738Y-130163261D01*
X103953792Y-130250887D01*
X103953794Y-130250888D01*
X103953796Y-130250889D01*
X104012875Y-130272924D01*
X104090795Y-130301988D01*
X104090803Y-130301990D01*
X104151350Y-130308499D01*
X104151355Y-130308499D01*
X104151362Y-130308500D01*
X104151368Y-130308500D01*
X105848632Y-130308500D01*
X105848638Y-130308500D01*
X105848645Y-130308499D01*
X105848649Y-130308499D01*
X105909196Y-130301990D01*
X105909199Y-130301989D01*
X105909201Y-130301989D01*
X106046204Y-130250889D01*
X106163261Y-130163261D01*
X106250889Y-130046204D01*
X106301989Y-129909201D01*
X106308500Y-129848638D01*
X106308500Y-128151362D01*
X106308169Y-128148290D01*
X106305986Y-128127967D01*
X106318593Y-128058098D01*
X106366973Y-128006138D01*
X106431264Y-127988501D01*
X116772605Y-127988501D01*
X116897393Y-127988501D01*
X118615500Y-127988501D01*
X118683621Y-128008503D01*
X118730114Y-128062159D01*
X118741500Y-128114501D01*
X118741500Y-128798649D01*
X118748009Y-128859196D01*
X118748011Y-128859204D01*
X118799110Y-128996202D01*
X118799112Y-128996207D01*
X118886738Y-129113261D01*
X119003792Y-129200887D01*
X119003794Y-129200888D01*
X119003796Y-129200889D01*
X119062875Y-129222924D01*
X119140795Y-129251988D01*
X119140803Y-129251990D01*
X119201350Y-129258499D01*
X119201355Y-129258499D01*
X119201362Y-129258500D01*
X119201368Y-129258500D01*
X120798632Y-129258500D01*
X120798638Y-129258500D01*
X120798645Y-129258499D01*
X120798649Y-129258499D01*
X120859196Y-129251990D01*
X120859199Y-129251989D01*
X120859201Y-129251989D01*
X120996204Y-129200889D01*
X121113261Y-129113261D01*
X121200889Y-128996204D01*
X121251989Y-128859201D01*
X121258500Y-128798638D01*
X121258500Y-127201362D01*
X121257064Y-127188004D01*
X121251990Y-127140803D01*
X121251988Y-127140795D01*
X121200889Y-127003797D01*
X121200887Y-127003792D01*
X121113261Y-126886738D01*
X120996207Y-126799112D01*
X120996202Y-126799110D01*
X120859204Y-126748011D01*
X120859196Y-126748009D01*
X120798649Y-126741500D01*
X120798638Y-126741500D01*
X120765043Y-126741500D01*
X120696922Y-126721498D01*
X120650429Y-126667842D01*
X120640325Y-126597568D01*
X120669819Y-126532988D01*
X120690982Y-126513564D01*
X120819858Y-126419930D01*
X120959930Y-126279858D01*
X121076366Y-126119598D01*
X121166298Y-125943097D01*
X121227512Y-125754700D01*
X121258500Y-125559046D01*
X121258500Y-125360954D01*
X121227512Y-125165300D01*
X121166298Y-124976903D01*
X121076366Y-124800402D01*
X121018731Y-124721074D01*
X120959928Y-124640139D01*
X120819860Y-124500071D01*
X120659601Y-124383636D01*
X120659600Y-124383635D01*
X120659598Y-124383634D01*
X120499902Y-124302265D01*
X120448290Y-124253519D01*
X120431224Y-124184604D01*
X120454125Y-124117402D01*
X120499902Y-124077735D01*
X120659598Y-123996366D01*
X120819858Y-123879930D01*
X120959930Y-123739858D01*
X121076366Y-123579598D01*
X121166298Y-123403097D01*
X121227512Y-123214700D01*
X121258500Y-123019046D01*
X121258500Y-122820954D01*
X121227512Y-122625300D01*
X121166298Y-122436903D01*
X121076366Y-122260402D01*
X121020653Y-122183720D01*
X120959928Y-122100139D01*
X120819860Y-121960071D01*
X120659601Y-121843636D01*
X120659600Y-121843635D01*
X120659598Y-121843634D01*
X120499902Y-121762265D01*
X120448290Y-121713519D01*
X120431224Y-121644604D01*
X120454125Y-121577402D01*
X120499902Y-121537735D01*
X120659598Y-121456366D01*
X120819858Y-121339930D01*
X120959930Y-121199858D01*
X121076366Y-121039598D01*
X121166298Y-120863097D01*
X121227512Y-120674700D01*
X121258500Y-120479046D01*
X121258500Y-120280954D01*
X121227512Y-120085300D01*
X121166298Y-119896903D01*
X121076366Y-119720402D01*
X121003258Y-119619778D01*
X120959928Y-119560139D01*
X120819860Y-119420071D01*
X120659601Y-119303636D01*
X120659600Y-119303635D01*
X120659598Y-119303634D01*
X120483097Y-119213702D01*
X120294700Y-119152488D01*
X120099046Y-119121500D01*
X119900954Y-119121500D01*
X119705300Y-119152488D01*
X119705297Y-119152488D01*
X119705296Y-119152489D01*
X119516903Y-119213702D01*
X119516901Y-119213703D01*
X119340398Y-119303636D01*
X119180139Y-119420071D01*
X119040071Y-119560139D01*
X118923636Y-119720398D01*
X118833703Y-119896901D01*
X118833702Y-119896903D01*
X118777483Y-120069928D01*
X118772488Y-120085300D01*
X118741500Y-120280954D01*
X118741500Y-120479046D01*
X118772488Y-120674700D01*
X118833702Y-120863097D01*
X118923634Y-121039598D01*
X118923636Y-121039601D01*
X119040071Y-121199860D01*
X119180139Y-121339928D01*
X119247952Y-121389197D01*
X119340402Y-121456366D01*
X119500094Y-121537733D01*
X119551709Y-121586481D01*
X119568775Y-121655396D01*
X119545874Y-121722598D01*
X119500095Y-121762266D01*
X119487690Y-121768587D01*
X119340398Y-121843636D01*
X119180139Y-121960071D01*
X119040071Y-122100139D01*
X118923636Y-122260398D01*
X118833703Y-122436901D01*
X118833702Y-122436903D01*
X118777483Y-122609928D01*
X118772488Y-122625300D01*
X118741500Y-122820954D01*
X118741500Y-123019046D01*
X118772488Y-123214700D01*
X118833702Y-123403097D01*
X118923634Y-123579598D01*
X118923636Y-123579601D01*
X119040071Y-123739860D01*
X119180139Y-123879928D01*
X119180142Y-123879930D01*
X119340402Y-123996366D01*
X119500094Y-124077733D01*
X119551709Y-124126481D01*
X119568775Y-124195396D01*
X119545874Y-124262598D01*
X119500095Y-124302266D01*
X119480138Y-124312435D01*
X119340398Y-124383636D01*
X119180139Y-124500071D01*
X119040071Y-124640139D01*
X118923636Y-124800398D01*
X118833703Y-124976901D01*
X118833702Y-124976903D01*
X118772858Y-125164162D01*
X118772488Y-125165300D01*
X118741500Y-125360954D01*
X118741500Y-125559046D01*
X118772488Y-125754700D01*
X118833702Y-125943097D01*
X118918829Y-126110167D01*
X118923636Y-126119601D01*
X119040071Y-126279860D01*
X119180136Y-126419925D01*
X119180139Y-126419927D01*
X119180142Y-126419930D01*
X119273736Y-126487930D01*
X119281492Y-126493565D01*
X119324846Y-126549787D01*
X119330921Y-126620523D01*
X119297790Y-126683315D01*
X119235970Y-126718227D01*
X119207431Y-126721501D01*
X118840455Y-126721501D01*
X118772334Y-126701499D01*
X118725841Y-126647843D01*
X118716007Y-126615215D01*
X118687512Y-126435300D01*
X118626298Y-126246903D01*
X118536366Y-126070402D01*
X118419930Y-125910142D01*
X118419928Y-125910139D01*
X118279860Y-125770071D01*
X118119600Y-125653635D01*
X118014858Y-125600266D01*
X117959352Y-125571984D01*
X117907738Y-125523236D01*
X117890672Y-125454321D01*
X117913573Y-125387120D01*
X117959354Y-125347451D01*
X118119333Y-125265939D01*
X118119339Y-125265935D01*
X118152575Y-125241787D01*
X118152576Y-125241786D01*
X117544123Y-124633333D01*
X117633694Y-124609333D01*
X117736306Y-124550090D01*
X117820090Y-124466306D01*
X117879333Y-124363694D01*
X117903333Y-124274122D01*
X118511786Y-124882576D01*
X118511787Y-124882575D01*
X118535935Y-124849339D01*
X118535936Y-124849337D01*
X118625834Y-124672902D01*
X118687022Y-124484585D01*
X118718000Y-124289003D01*
X118718000Y-124090996D01*
X118687022Y-123895414D01*
X118625834Y-123707097D01*
X118535935Y-123530660D01*
X118511787Y-123497423D01*
X118511785Y-123497423D01*
X117903333Y-124105875D01*
X117879333Y-124016306D01*
X117820090Y-123913694D01*
X117736306Y-123829910D01*
X117633694Y-123770667D01*
X117544122Y-123746666D01*
X118152575Y-123138212D01*
X118119330Y-123114058D01*
X117959355Y-123032548D01*
X117907739Y-122983800D01*
X117890673Y-122914885D01*
X117913573Y-122847684D01*
X117959352Y-122808015D01*
X118119598Y-122726366D01*
X118279858Y-122609930D01*
X118419930Y-122469858D01*
X118536366Y-122309598D01*
X118626298Y-122133097D01*
X118687512Y-121944700D01*
X118718500Y-121749046D01*
X118718500Y-121550954D01*
X118687512Y-121355300D01*
X118626298Y-121166903D01*
X118536366Y-120990402D01*
X118419930Y-120830142D01*
X118419928Y-120830139D01*
X118279860Y-120690071D01*
X118119601Y-120573636D01*
X118119600Y-120573635D01*
X118119598Y-120573634D01*
X117959902Y-120492265D01*
X117908290Y-120443519D01*
X117891224Y-120374604D01*
X117914125Y-120307402D01*
X117959902Y-120267735D01*
X118119598Y-120186366D01*
X118279858Y-120069930D01*
X118419930Y-119929858D01*
X118536366Y-119769598D01*
X118626298Y-119593097D01*
X118687512Y-119404700D01*
X118718500Y-119209046D01*
X118718500Y-119010954D01*
X118687512Y-118815300D01*
X118626298Y-118626903D01*
X118536366Y-118450402D01*
X118419930Y-118290142D01*
X118419928Y-118290139D01*
X118279860Y-118150071D01*
X118119601Y-118033636D01*
X118119600Y-118033635D01*
X118119598Y-118033634D01*
X117943097Y-117943702D01*
X117754700Y-117882488D01*
X117559046Y-117851500D01*
X117360954Y-117851500D01*
X117165300Y-117882488D01*
X117165297Y-117882488D01*
X117165296Y-117882489D01*
X116976903Y-117943702D01*
X116976901Y-117943703D01*
X116800398Y-118033636D01*
X116640139Y-118150071D01*
X116500071Y-118290139D01*
X116383636Y-118450398D01*
X116293703Y-118626901D01*
X116293702Y-118626903D01*
X116236579Y-118802710D01*
X116232488Y-118815300D01*
X116201500Y-119010954D01*
X116201500Y-119209046D01*
X116232488Y-119404700D01*
X116293702Y-119593097D01*
X116383634Y-119769598D01*
X116383636Y-119769601D01*
X116500071Y-119929860D01*
X116640139Y-120069928D01*
X116640142Y-120069930D01*
X116800402Y-120186366D01*
X116960094Y-120267733D01*
X117011709Y-120316481D01*
X117028775Y-120385396D01*
X117005874Y-120452598D01*
X116960095Y-120492266D01*
X116910312Y-120517632D01*
X116800398Y-120573636D01*
X116640139Y-120690071D01*
X116500071Y-120830139D01*
X116383636Y-120990398D01*
X116293703Y-121166901D01*
X116293702Y-121166903D01*
X116236115Y-121344138D01*
X116232488Y-121355300D01*
X116201500Y-121550954D01*
X116201500Y-121749046D01*
X116203594Y-121762267D01*
X116227491Y-121913152D01*
X116218391Y-121983563D01*
X116192137Y-122021957D01*
X112654501Y-125559595D01*
X112592189Y-125593620D01*
X112565406Y-125596500D01*
X111461977Y-125596500D01*
X111459557Y-125595789D01*
X111451386Y-125596053D01*
X111428554Y-125594128D01*
X111362355Y-125568471D01*
X111320537Y-125511097D01*
X111313750Y-125480907D01*
X111313500Y-125478373D01*
X111313500Y-125478361D01*
X111310942Y-125465499D01*
X111309758Y-125458534D01*
X111309733Y-125458355D01*
X111302493Y-125407074D01*
X111302055Y-125403612D01*
X111297077Y-125359443D01*
X111296259Y-125352183D01*
X111293541Y-125343658D01*
X111292290Y-125334791D01*
X111274610Y-125284265D01*
X111272824Y-125278662D01*
X111272516Y-125277636D01*
X111272512Y-125277066D01*
X111270782Y-125269944D01*
X111269341Y-125264666D01*
X111269339Y-125264654D01*
X111264654Y-125252382D01*
X111262324Y-125245720D01*
X111258363Y-125233291D01*
X111256190Y-125228247D01*
X111251989Y-125219203D01*
X111250863Y-125216252D01*
X111249695Y-125213060D01*
X111232587Y-125164166D01*
X111232585Y-125164162D01*
X111229978Y-125158548D01*
X111230025Y-125158525D01*
X111227645Y-125153582D01*
X111227598Y-125153606D01*
X111224833Y-125148064D01*
X111201463Y-125110873D01*
X111197302Y-125104251D01*
X111195477Y-125101254D01*
X111193896Y-125098573D01*
X111189416Y-125089594D01*
X111186861Y-125084816D01*
X111186858Y-125084808D01*
X111179592Y-125073934D01*
X111175832Y-125067950D01*
X111173765Y-125064446D01*
X111169186Y-125056683D01*
X111169184Y-125056680D01*
X111169183Y-125056679D01*
X111165990Y-125052309D01*
X111159830Y-125044359D01*
X111158055Y-125041701D01*
X111156199Y-125038838D01*
X111128659Y-124995008D01*
X111128656Y-124995005D01*
X111124872Y-124990121D01*
X111124916Y-124990086D01*
X111121500Y-124985803D01*
X111121459Y-124985838D01*
X111117531Y-124981053D01*
X111117529Y-124981050D01*
X111080906Y-124944427D01*
X111078478Y-124941930D01*
X111076364Y-124939694D01*
X111070010Y-124931951D01*
X111066428Y-124927828D01*
X111066426Y-124927826D01*
X111056909Y-124918829D01*
X111051913Y-124913832D01*
X111042929Y-124904328D01*
X111038856Y-124900790D01*
X111031065Y-124894395D01*
X111028815Y-124892268D01*
X111026309Y-124889831D01*
X110989705Y-124853227D01*
X110989704Y-124853226D01*
X110984920Y-124849300D01*
X110984953Y-124849258D01*
X110980679Y-124845849D01*
X110980647Y-124845892D01*
X110975745Y-124842094D01*
X110931938Y-124814568D01*
X110928979Y-124812651D01*
X110926412Y-124810936D01*
X110918463Y-124804777D01*
X110914076Y-124801572D01*
X110914074Y-124801570D01*
X110914072Y-124801569D01*
X110902794Y-124794916D01*
X110896818Y-124791161D01*
X110885945Y-124783896D01*
X110881118Y-124781316D01*
X110872180Y-124776857D01*
X110869518Y-124775287D01*
X110866490Y-124773444D01*
X110822687Y-124745920D01*
X110817154Y-124743160D01*
X110817177Y-124743112D01*
X110812231Y-124740729D01*
X110812209Y-124740777D01*
X110806596Y-124738171D01*
X110806591Y-124738169D01*
X110806589Y-124738168D01*
X110769435Y-124725167D01*
X110757753Y-124721079D01*
X110754465Y-124719877D01*
X110753867Y-124719649D01*
X110751582Y-124718776D01*
X110742549Y-124714582D01*
X110737471Y-124712395D01*
X110737467Y-124712393D01*
X110737461Y-124712391D01*
X110725004Y-124708420D01*
X110718335Y-124706086D01*
X110706099Y-124701415D01*
X110700856Y-124699983D01*
X110691081Y-124697607D01*
X110688167Y-124696678D01*
X110684827Y-124695561D01*
X110635971Y-124678467D01*
X110635966Y-124678465D01*
X110635964Y-124678465D01*
X110635961Y-124678464D01*
X110629955Y-124677005D01*
X110629967Y-124676953D01*
X110624639Y-124675736D01*
X110624628Y-124675789D01*
X110618571Y-124674495D01*
X110567150Y-124668700D01*
X110563637Y-124668254D01*
X110560572Y-124667821D01*
X110550729Y-124665720D01*
X110545413Y-124664740D01*
X110545409Y-124664739D01*
X110545404Y-124664738D01*
X110545401Y-124664738D01*
X110532337Y-124663636D01*
X110525327Y-124662846D01*
X110512397Y-124661021D01*
X110506927Y-124660791D01*
X110496935Y-124660650D01*
X110493854Y-124660390D01*
X110490344Y-124660044D01*
X110438932Y-124654252D01*
X110432745Y-124654165D01*
X110432746Y-124654115D01*
X110427256Y-124654115D01*
X110427257Y-124654165D01*
X110421067Y-124654252D01*
X110369644Y-124660045D01*
X110366132Y-124660391D01*
X110363062Y-124660650D01*
X110353076Y-124660791D01*
X110347601Y-124661021D01*
X110334661Y-124662847D01*
X110327660Y-124663636D01*
X110314594Y-124664738D01*
X110309226Y-124665728D01*
X110299399Y-124667825D01*
X110296357Y-124668254D01*
X110292874Y-124668696D01*
X110241428Y-124674494D01*
X110235379Y-124675786D01*
X110235368Y-124675734D01*
X110230038Y-124676950D01*
X110230051Y-124677003D01*
X110224031Y-124678466D01*
X110175189Y-124695555D01*
X110171842Y-124696674D01*
X110168899Y-124697612D01*
X110159143Y-124699984D01*
X110153896Y-124701416D01*
X110141640Y-124706094D01*
X110138770Y-124706888D01*
X110134990Y-124708421D01*
X110122538Y-124712391D01*
X110117483Y-124714568D01*
X110108435Y-124718769D01*
X110105563Y-124719865D01*
X110102258Y-124721074D01*
X110053410Y-124738168D01*
X110047794Y-124740776D01*
X110047355Y-124739831D01*
X110042574Y-124742587D01*
X110042857Y-124743153D01*
X110037318Y-124745917D01*
X110037316Y-124745918D01*
X110037314Y-124745919D01*
X110037308Y-124745923D01*
X109997029Y-124771230D01*
X109928707Y-124790532D01*
X109862962Y-124771226D01*
X109822692Y-124745923D01*
X109822688Y-124745921D01*
X109822685Y-124745919D01*
X109822680Y-124745917D01*
X109821095Y-124745126D01*
X109820645Y-124745077D01*
X109820082Y-124744620D01*
X109817154Y-124743160D01*
X109817177Y-124743112D01*
X109812231Y-124740729D01*
X109812209Y-124740777D01*
X109806596Y-124738171D01*
X109806591Y-124738169D01*
X109806589Y-124738168D01*
X109769435Y-124725167D01*
X109757753Y-124721079D01*
X109754465Y-124719877D01*
X109753867Y-124719649D01*
X109751582Y-124718776D01*
X109742549Y-124714582D01*
X109737471Y-124712395D01*
X109737467Y-124712393D01*
X109737461Y-124712391D01*
X109725004Y-124708420D01*
X109718335Y-124706086D01*
X109706099Y-124701415D01*
X109700856Y-124699983D01*
X109691081Y-124697607D01*
X109688167Y-124696678D01*
X109684827Y-124695561D01*
X109635971Y-124678467D01*
X109635966Y-124678465D01*
X109635964Y-124678465D01*
X109635961Y-124678464D01*
X109629955Y-124677005D01*
X109629967Y-124676953D01*
X109624639Y-124675736D01*
X109624628Y-124675789D01*
X109618571Y-124674495D01*
X109567150Y-124668700D01*
X109563637Y-124668254D01*
X109560572Y-124667821D01*
X109550729Y-124665720D01*
X109545413Y-124664740D01*
X109545409Y-124664739D01*
X109545404Y-124664738D01*
X109545401Y-124664738D01*
X109532337Y-124663636D01*
X109525327Y-124662846D01*
X109512397Y-124661021D01*
X109506927Y-124660791D01*
X109496935Y-124660650D01*
X109493854Y-124660390D01*
X109490344Y-124660044D01*
X109438932Y-124654252D01*
X109432745Y-124654165D01*
X109432746Y-124654115D01*
X109427256Y-124654115D01*
X109427257Y-124654165D01*
X109421067Y-124654252D01*
X109369644Y-124660045D01*
X109366132Y-124660391D01*
X109363062Y-124660650D01*
X109353076Y-124660791D01*
X109347601Y-124661021D01*
X109334661Y-124662847D01*
X109327660Y-124663636D01*
X109314594Y-124664738D01*
X109309226Y-124665728D01*
X109299399Y-124667825D01*
X109296357Y-124668254D01*
X109292874Y-124668696D01*
X109241428Y-124674494D01*
X109235379Y-124675786D01*
X109235368Y-124675734D01*
X109230038Y-124676950D01*
X109230051Y-124677003D01*
X109224031Y-124678466D01*
X109175189Y-124695555D01*
X109171842Y-124696674D01*
X109168899Y-124697612D01*
X109159143Y-124699984D01*
X109153896Y-124701416D01*
X109141640Y-124706094D01*
X109134990Y-124708421D01*
X109122538Y-124712391D01*
X109117483Y-124714568D01*
X109108435Y-124718769D01*
X109105563Y-124719865D01*
X109102258Y-124721074D01*
X109053410Y-124738168D01*
X109047794Y-124740776D01*
X109047772Y-124740728D01*
X109042833Y-124743106D01*
X109042857Y-124743153D01*
X109037310Y-124745921D01*
X108993493Y-124773451D01*
X108990488Y-124775282D01*
X108987832Y-124776849D01*
X108978829Y-124781342D01*
X108974050Y-124783898D01*
X108963160Y-124791173D01*
X108957194Y-124794921D01*
X108945933Y-124801564D01*
X108941605Y-124804727D01*
X108933632Y-124810903D01*
X108931018Y-124812651D01*
X108928058Y-124814570D01*
X108884245Y-124842100D01*
X108879358Y-124845887D01*
X108879325Y-124845845D01*
X108875044Y-124849259D01*
X108875077Y-124849300D01*
X108870295Y-124853224D01*
X108833687Y-124889831D01*
X108831165Y-124892283D01*
X108828940Y-124894387D01*
X108821200Y-124900740D01*
X108817071Y-124904328D01*
X108808075Y-124913843D01*
X108803087Y-124918831D01*
X108793572Y-124927827D01*
X108790032Y-124931901D01*
X108783658Y-124939667D01*
X108781544Y-124941904D01*
X108779064Y-124944455D01*
X108742472Y-124981048D01*
X108738551Y-124985827D01*
X108738511Y-124985794D01*
X108735090Y-124990082D01*
X108735131Y-124990114D01*
X108731341Y-124995005D01*
X108703818Y-125038807D01*
X108701902Y-125041764D01*
X108700177Y-125044346D01*
X108694016Y-125052299D01*
X108690807Y-125056691D01*
X108684156Y-125067966D01*
X108680403Y-125073940D01*
X108673139Y-125084812D01*
X108670567Y-125089622D01*
X108666100Y-125098576D01*
X108664534Y-125101231D01*
X108662695Y-125104251D01*
X108635163Y-125148069D01*
X108632397Y-125153613D01*
X108632350Y-125153589D01*
X108629972Y-125158528D01*
X108630020Y-125158550D01*
X108627412Y-125164166D01*
X108610322Y-125213002D01*
X108609110Y-125216316D01*
X108608008Y-125219203D01*
X108603795Y-125228278D01*
X108601630Y-125233304D01*
X108597665Y-125245744D01*
X108595336Y-125252402D01*
X108590661Y-125264650D01*
X108589692Y-125268198D01*
X108587485Y-125277625D01*
X108587177Y-125278650D01*
X108585385Y-125284273D01*
X108567709Y-125334791D01*
X108566456Y-125343660D01*
X108563737Y-125352194D01*
X108562919Y-125359449D01*
X108562918Y-125359454D01*
X108557938Y-125403645D01*
X108557494Y-125407146D01*
X108550240Y-125458537D01*
X108549060Y-125465486D01*
X108546539Y-125478164D01*
X108546499Y-125478366D01*
X108546247Y-125480929D01*
X108545740Y-125482182D01*
X108545294Y-125484429D01*
X108544867Y-125484344D01*
X108519661Y-125546760D01*
X108461705Y-125587768D01*
X108431446Y-125594128D01*
X108420796Y-125595026D01*
X108408612Y-125596054D01*
X108398024Y-125596500D01*
X106221330Y-125596500D01*
X106153209Y-125576498D01*
X106119394Y-125544561D01*
X106056761Y-125458355D01*
X105998068Y-125377570D01*
X105998065Y-125377567D01*
X105998063Y-125377564D01*
X105852435Y-125231936D01*
X105852432Y-125231934D01*
X105852430Y-125231932D01*
X105685803Y-125110871D01*
X105502290Y-125017366D01*
X105502287Y-125017365D01*
X105502285Y-125017364D01*
X105340610Y-124964833D01*
X105282004Y-124924759D01*
X105254367Y-124859363D01*
X105266474Y-124789406D01*
X105314480Y-124737100D01*
X105340610Y-124725167D01*
X105502290Y-124672634D01*
X105685803Y-124579129D01*
X105852430Y-124458068D01*
X105998068Y-124312430D01*
X106119129Y-124145803D01*
X106212634Y-123962290D01*
X106276280Y-123766408D01*
X106308500Y-123562981D01*
X106308500Y-123357019D01*
X106276280Y-123153592D01*
X106212634Y-122957710D01*
X106119129Y-122774197D01*
X105998068Y-122607570D01*
X105998065Y-122607567D01*
X105998063Y-122607564D01*
X105852435Y-122461936D01*
X105852432Y-122461934D01*
X105852430Y-122461932D01*
X105685803Y-122340871D01*
X105502290Y-122247366D01*
X105502287Y-122247365D01*
X105502285Y-122247364D01*
X105340610Y-122194833D01*
X105282004Y-122154759D01*
X105254367Y-122089363D01*
X105266474Y-122019406D01*
X105314480Y-121967100D01*
X105340610Y-121955167D01*
X105372824Y-121944700D01*
X105502290Y-121902634D01*
X105685803Y-121809129D01*
X105852430Y-121688068D01*
X105998068Y-121542430D01*
X106119129Y-121375803D01*
X106212634Y-121192290D01*
X106276280Y-120996408D01*
X106308500Y-120792981D01*
X106308500Y-120587019D01*
X106276280Y-120383592D01*
X106212634Y-120187710D01*
X106119129Y-120004197D01*
X105998068Y-119837570D01*
X105998065Y-119837567D01*
X105998063Y-119837564D01*
X105852435Y-119691936D01*
X105852432Y-119691934D01*
X105852430Y-119691932D01*
X105685803Y-119570871D01*
X105502290Y-119477366D01*
X105399954Y-119444115D01*
X105339802Y-119424570D01*
X105281197Y-119384496D01*
X105253560Y-119319099D01*
X105265667Y-119249142D01*
X105313674Y-119196837D01*
X105339803Y-119184904D01*
X105502093Y-119132173D01*
X105502099Y-119132170D01*
X105685541Y-119038701D01*
X105728372Y-119007582D01*
X105728372Y-119007581D01*
X105124948Y-118404157D01*
X105192993Y-118385925D01*
X105307007Y-118320099D01*
X105400099Y-118227007D01*
X105465925Y-118112993D01*
X105484157Y-118044948D01*
X106087581Y-118648372D01*
X106087582Y-118648372D01*
X106118701Y-118605541D01*
X106212170Y-118422099D01*
X106212173Y-118422093D01*
X106275791Y-118226296D01*
X106308000Y-118022938D01*
X106308000Y-117817061D01*
X106275791Y-117613703D01*
X106212173Y-117417906D01*
X106212170Y-117417900D01*
X106118699Y-117234454D01*
X106087583Y-117191626D01*
X106087582Y-117191626D01*
X105484157Y-117795051D01*
X105465925Y-117727007D01*
X105400099Y-117612993D01*
X105307007Y-117519901D01*
X105192993Y-117454075D01*
X105124947Y-117435841D01*
X105728372Y-116832416D01*
X105685541Y-116801298D01*
X105685540Y-116801297D01*
X105502099Y-116707829D01*
X105502093Y-116707826D01*
X105306294Y-116644208D01*
X105306298Y-116644208D01*
X105102939Y-116612000D01*
X104897061Y-116612000D01*
X104693703Y-116644208D01*
X104497906Y-116707826D01*
X104497900Y-116707829D01*
X104314452Y-116801301D01*
X104271625Y-116832416D01*
X104875051Y-117435842D01*
X104807007Y-117454075D01*
X104692993Y-117519901D01*
X104599901Y-117612993D01*
X104534075Y-117727007D01*
X104515842Y-117795051D01*
X103912416Y-117191625D01*
X103881301Y-117234452D01*
X103787829Y-117417900D01*
X103787826Y-117417906D01*
X103724208Y-117613703D01*
X103692000Y-117817061D01*
X103692000Y-118022938D01*
X103724208Y-118226296D01*
X103787826Y-118422093D01*
X103787829Y-118422099D01*
X103881297Y-118605540D01*
X103881298Y-118605541D01*
X103912416Y-118648372D01*
X104515841Y-118044947D01*
X104534075Y-118112993D01*
X104599901Y-118227007D01*
X104692993Y-118320099D01*
X104807007Y-118385925D01*
X104875051Y-118404157D01*
X104271626Y-119007582D01*
X104271626Y-119007583D01*
X104314454Y-119038699D01*
X104497900Y-119132170D01*
X104497906Y-119132173D01*
X104660196Y-119184904D01*
X104718802Y-119224977D01*
X104746439Y-119290374D01*
X104734332Y-119360331D01*
X104686326Y-119412637D01*
X104660197Y-119424570D01*
X104548877Y-119460740D01*
X104497710Y-119477366D01*
X104497708Y-119477366D01*
X104497708Y-119477367D01*
X104314193Y-119570873D01*
X104147567Y-119691934D01*
X104147564Y-119691936D01*
X104001936Y-119837564D01*
X104001934Y-119837567D01*
X103880873Y-120004193D01*
X103787367Y-120187708D01*
X103787364Y-120187714D01*
X103723721Y-120383587D01*
X103723720Y-120383590D01*
X103723720Y-120383592D01*
X103691500Y-120587019D01*
X103691500Y-120792981D01*
X103702606Y-120863098D01*
X103723790Y-120996851D01*
X103714690Y-121067263D01*
X103688437Y-121105657D01*
X103471166Y-121322930D01*
X103471165Y-121322930D01*
X103436371Y-121357724D01*
X103374059Y-121391750D01*
X103303244Y-121386685D01*
X103246408Y-121344138D01*
X103245340Y-121342690D01*
X103230983Y-121322930D01*
X103158068Y-121222570D01*
X103158065Y-121222567D01*
X103158063Y-121222564D01*
X103012435Y-121076936D01*
X103012432Y-121076934D01*
X103012430Y-121076932D01*
X102845803Y-120955871D01*
X102662290Y-120862366D01*
X102662287Y-120862365D01*
X102662285Y-120862364D01*
X102500610Y-120809833D01*
X102442004Y-120769759D01*
X102414367Y-120704363D01*
X102426474Y-120634406D01*
X102474480Y-120582100D01*
X102500610Y-120570167D01*
X102662290Y-120517634D01*
X102845803Y-120424129D01*
X103012430Y-120303068D01*
X103158068Y-120157430D01*
X103279129Y-119990803D01*
X103372634Y-119807290D01*
X103436280Y-119611408D01*
X103468500Y-119407981D01*
X103468500Y-119202019D01*
X103436280Y-118998592D01*
X103372634Y-118802710D01*
X103279129Y-118619197D01*
X103158068Y-118452570D01*
X103158065Y-118452567D01*
X103158063Y-118452564D01*
X103012435Y-118306936D01*
X103012432Y-118306934D01*
X103012430Y-118306932D01*
X102845803Y-118185871D01*
X102662290Y-118092366D01*
X102662287Y-118092365D01*
X102662285Y-118092364D01*
X102466412Y-118028721D01*
X102466410Y-118028720D01*
X102466408Y-118028720D01*
X102262981Y-117996500D01*
X102057019Y-117996500D01*
X101853592Y-118028720D01*
X101853590Y-118028720D01*
X101853587Y-118028721D01*
X101657714Y-118092364D01*
X101657708Y-118092367D01*
X101474193Y-118185873D01*
X101307567Y-118306934D01*
X101307564Y-118306936D01*
X101161936Y-118452564D01*
X101161934Y-118452567D01*
X101040873Y-118619193D01*
X100947367Y-118802708D01*
X100947364Y-118802714D01*
X100883721Y-118998587D01*
X100883720Y-118998590D01*
X100883720Y-118998592D01*
X100851500Y-119202019D01*
X100075500Y-119202019D01*
X100075500Y-110819124D01*
X102191500Y-110819124D01*
X102191500Y-111100875D01*
X102223045Y-111380855D01*
X102285741Y-111655542D01*
X102378789Y-111921456D01*
X102378800Y-111921483D01*
X102501043Y-112175324D01*
X102650942Y-112413885D01*
X102826604Y-112634160D01*
X103025839Y-112833395D01*
X103246114Y-113009057D01*
X103484675Y-113158956D01*
X103484678Y-113158957D01*
X103484679Y-113158958D01*
X103738526Y-113281204D01*
X103738542Y-113281209D01*
X103738543Y-113281210D01*
X104004457Y-113374258D01*
X104004460Y-113374258D01*
X104004464Y-113374260D01*
X104279144Y-113436954D01*
X104279145Y-113436954D01*
X104279148Y-113436955D01*
X104444271Y-113455559D01*
X104559124Y-113468500D01*
X104559126Y-113468500D01*
X104840876Y-113468500D01*
X104911977Y-113460488D01*
X105120852Y-113436955D01*
X105395536Y-113374260D01*
X105661474Y-113281204D01*
X105915321Y-113158958D01*
X106153884Y-113009058D01*
X106197940Y-112973924D01*
X106374160Y-112833395D01*
X106573395Y-112634160D01*
X106749057Y-112413885D01*
X106898956Y-112175324D01*
X106898955Y-112175324D01*
X106898958Y-112175321D01*
X107021204Y-111921474D01*
X107114260Y-111655536D01*
X107176955Y-111380852D01*
X107208500Y-111100874D01*
X107208500Y-110835000D01*
X108641500Y-110835000D01*
X108641500Y-111164999D01*
X108673844Y-111493383D01*
X108738217Y-111817019D01*
X108834009Y-112132804D01*
X108834010Y-112132807D01*
X108960291Y-112437675D01*
X109115846Y-112728698D01*
X109299175Y-113003070D01*
X109508501Y-113258135D01*
X109508527Y-113258164D01*
X109741835Y-113491472D01*
X109741844Y-113491480D01*
X109741849Y-113491485D01*
X109741854Y-113491489D01*
X109741864Y-113491498D01*
X109996929Y-113700824D01*
X110121977Y-113784378D01*
X110271304Y-113884155D01*
X110562325Y-114039709D01*
X110867191Y-114165989D01*
X111182967Y-114261779D01*
X111182976Y-114261780D01*
X111182980Y-114261782D01*
X111266358Y-114278366D01*
X111506611Y-114326155D01*
X111835007Y-114358500D01*
X111835016Y-114358500D01*
X112164984Y-114358500D01*
X112164993Y-114358500D01*
X112493389Y-114326155D01*
X112767565Y-114271618D01*
X112817019Y-114261782D01*
X112817021Y-114261781D01*
X112817033Y-114261779D01*
X113132809Y-114165989D01*
X113437675Y-114039709D01*
X113728696Y-113884155D01*
X114003069Y-113700825D01*
X114258151Y-113491485D01*
X114491485Y-113258151D01*
X114700825Y-113003069D01*
X114884155Y-112728696D01*
X115039709Y-112437675D01*
X115165989Y-112132809D01*
X115261779Y-111817033D01*
X115326155Y-111493389D01*
X115358500Y-111164993D01*
X115358500Y-110835007D01*
X115326155Y-110506611D01*
X115261779Y-110182967D01*
X115165989Y-109867191D01*
X115039709Y-109562325D01*
X114884155Y-109271304D01*
X114700825Y-108996931D01*
X114700824Y-108996929D01*
X114491498Y-108741864D01*
X114491472Y-108741835D01*
X114258164Y-108508527D01*
X114258135Y-108508501D01*
X114003070Y-108299175D01*
X113728698Y-108115846D01*
X113437675Y-107960291D01*
X113132807Y-107834010D01*
X113132804Y-107834009D01*
X112923791Y-107770606D01*
X112817033Y-107738221D01*
X112817030Y-107738220D01*
X112817019Y-107738217D01*
X112572371Y-107689555D01*
X112493389Y-107673845D01*
X112493385Y-107673844D01*
X112493384Y-107673844D01*
X112164999Y-107641500D01*
X112164993Y-107641500D01*
X111835007Y-107641500D01*
X111835000Y-107641500D01*
X111506616Y-107673844D01*
X111182980Y-107738217D01*
X110867195Y-107834009D01*
X110867192Y-107834010D01*
X110562324Y-107960291D01*
X110271301Y-108115846D01*
X109996929Y-108299175D01*
X109741864Y-108508501D01*
X109741835Y-108508527D01*
X109508527Y-108741835D01*
X109508501Y-108741864D01*
X109299175Y-108996929D01*
X109115846Y-109271301D01*
X108960291Y-109562324D01*
X108834010Y-109867192D01*
X108834009Y-109867195D01*
X108738217Y-110182980D01*
X108673844Y-110506616D01*
X108641500Y-110835000D01*
X107208500Y-110835000D01*
X107208500Y-110819126D01*
X107176955Y-110539148D01*
X107114260Y-110264464D01*
X107085747Y-110182980D01*
X107021210Y-109998543D01*
X107021209Y-109998542D01*
X107021204Y-109998526D01*
X106898958Y-109744679D01*
X106898957Y-109744678D01*
X106898956Y-109744675D01*
X106749057Y-109506114D01*
X106573395Y-109285839D01*
X106374160Y-109086604D01*
X106153885Y-108910942D01*
X105915324Y-108761043D01*
X105661483Y-108638800D01*
X105661478Y-108638798D01*
X105661474Y-108638796D01*
X105661468Y-108638793D01*
X105661456Y-108638789D01*
X105395542Y-108545741D01*
X105120854Y-108483045D01*
X105120857Y-108483045D01*
X104840876Y-108451500D01*
X104840874Y-108451500D01*
X104559126Y-108451500D01*
X104559124Y-108451500D01*
X104279144Y-108483045D01*
X104004457Y-108545741D01*
X103738543Y-108638789D01*
X103738516Y-108638800D01*
X103484675Y-108761043D01*
X103246114Y-108910942D01*
X103025839Y-109086604D01*
X102826604Y-109285839D01*
X102650942Y-109506114D01*
X102501043Y-109744675D01*
X102378800Y-109998516D01*
X102378789Y-109998543D01*
X102285741Y-110264457D01*
X102223045Y-110539144D01*
X102191500Y-110819124D01*
X100075500Y-110819124D01*
X100075500Y-106201500D01*
X100095502Y-106133379D01*
X100149158Y-106086886D01*
X100201500Y-106075500D01*
X100569877Y-106075500D01*
X100569878Y-106075500D01*
X100705574Y-106042054D01*
X100744345Y-106021705D01*
X100758202Y-106014433D01*
X100816757Y-106000000D01*
X104000000Y-106000000D01*
X104000000Y-105000000D01*
X100816757Y-105000000D01*
X100758202Y-104985567D01*
X100705578Y-104957948D01*
X100705576Y-104957947D01*
X100705574Y-104957946D01*
X100705572Y-104957945D01*
X100705571Y-104957945D01*
X100569879Y-104924500D01*
X100569878Y-104924500D01*
X100515018Y-104924500D01*
X100201500Y-104924500D01*
X100133379Y-104904498D01*
X100086886Y-104850842D01*
X100075500Y-104798500D01*
X100075500Y-99899124D01*
X102191500Y-99899124D01*
X102191500Y-100180875D01*
X102223045Y-100460855D01*
X102285741Y-100735542D01*
X102378789Y-101001456D01*
X102378800Y-101001483D01*
X102501043Y-101255324D01*
X102650942Y-101493885D01*
X102826604Y-101714160D01*
X103025839Y-101913395D01*
X103246114Y-102089057D01*
X103484675Y-102238956D01*
X103484678Y-102238957D01*
X103484679Y-102238958D01*
X103738526Y-102361204D01*
X103738542Y-102361209D01*
X103738543Y-102361210D01*
X104004457Y-102454258D01*
X104004460Y-102454258D01*
X104004464Y-102454260D01*
X104279144Y-102516954D01*
X104279145Y-102516954D01*
X104279148Y-102516955D01*
X104444271Y-102535559D01*
X104559124Y-102548500D01*
X104559126Y-102548500D01*
X104840876Y-102548500D01*
X104911977Y-102540488D01*
X105120852Y-102516955D01*
X105395536Y-102454260D01*
X105661474Y-102361204D01*
X105915321Y-102238958D01*
X106153884Y-102089058D01*
X106261711Y-102003069D01*
X106374160Y-101913395D01*
X106573395Y-101714160D01*
X106749057Y-101493885D01*
X106784377Y-101437675D01*
X106898958Y-101255321D01*
X107021204Y-101001474D01*
X107114260Y-100735536D01*
X107176955Y-100460852D01*
X107208500Y-100180874D01*
X107208500Y-99899126D01*
X107201275Y-99835000D01*
X108641500Y-99835000D01*
X108641500Y-100164999D01*
X108673844Y-100493383D01*
X108738217Y-100817019D01*
X108834009Y-101132804D01*
X108834010Y-101132807D01*
X108960291Y-101437675D01*
X109115846Y-101728698D01*
X109299175Y-102003070D01*
X109508501Y-102258135D01*
X109508527Y-102258164D01*
X109741835Y-102491472D01*
X109741844Y-102491480D01*
X109741849Y-102491485D01*
X109741854Y-102491489D01*
X109741864Y-102491498D01*
X109996929Y-102700824D01*
X110271301Y-102884153D01*
X110271304Y-102884155D01*
X110562325Y-103039709D01*
X110867191Y-103165989D01*
X111182967Y-103261779D01*
X111182976Y-103261780D01*
X111182980Y-103261782D01*
X111266358Y-103278366D01*
X111506611Y-103326155D01*
X111835007Y-103358500D01*
X111835016Y-103358500D01*
X112164984Y-103358500D01*
X112164993Y-103358500D01*
X112493389Y-103326155D01*
X112767565Y-103271618D01*
X112817019Y-103261782D01*
X112817021Y-103261781D01*
X112817033Y-103261779D01*
X113132809Y-103165989D01*
X113437675Y-103039709D01*
X113728696Y-102884155D01*
X114003069Y-102700825D01*
X114258151Y-102491485D01*
X114491485Y-102258151D01*
X114700825Y-102003069D01*
X114884155Y-101728696D01*
X115039709Y-101437675D01*
X115165989Y-101132809D01*
X115261779Y-100817033D01*
X115326155Y-100493389D01*
X115358500Y-100164993D01*
X115358500Y-99835007D01*
X115326155Y-99506611D01*
X115261779Y-99182967D01*
X115165989Y-98867191D01*
X115039709Y-98562325D01*
X114884155Y-98271304D01*
X114700825Y-97996931D01*
X114700824Y-97996929D01*
X114491498Y-97741864D01*
X114491472Y-97741835D01*
X114258164Y-97508527D01*
X114258135Y-97508501D01*
X114003070Y-97299175D01*
X113728698Y-97115846D01*
X113437675Y-96960291D01*
X113132807Y-96834010D01*
X113132804Y-96834009D01*
X112923791Y-96770606D01*
X112817033Y-96738221D01*
X112817030Y-96738220D01*
X112817019Y-96738217D01*
X112572371Y-96689555D01*
X112493389Y-96673845D01*
X112493385Y-96673844D01*
X112493384Y-96673844D01*
X112164999Y-96641500D01*
X112164993Y-96641500D01*
X111835007Y-96641500D01*
X111835000Y-96641500D01*
X111506616Y-96673844D01*
X111182980Y-96738217D01*
X110867195Y-96834009D01*
X110867192Y-96834010D01*
X110562324Y-96960291D01*
X110271301Y-97115846D01*
X109996929Y-97299175D01*
X109741864Y-97508501D01*
X109741835Y-97508527D01*
X109508527Y-97741835D01*
X109508501Y-97741864D01*
X109299175Y-97996929D01*
X109115846Y-98271301D01*
X108960291Y-98562324D01*
X108834010Y-98867192D01*
X108834009Y-98867195D01*
X108738217Y-99182980D01*
X108673844Y-99506616D01*
X108641500Y-99835000D01*
X107201275Y-99835000D01*
X107176955Y-99619148D01*
X107114260Y-99344464D01*
X107021204Y-99078526D01*
X106898958Y-98824679D01*
X106898957Y-98824678D01*
X106898956Y-98824675D01*
X106749057Y-98586114D01*
X106573395Y-98365839D01*
X106374160Y-98166604D01*
X106153885Y-97990942D01*
X105915324Y-97841043D01*
X105661483Y-97718800D01*
X105661478Y-97718798D01*
X105661474Y-97718796D01*
X105661468Y-97718793D01*
X105661456Y-97718789D01*
X105395542Y-97625741D01*
X105120854Y-97563045D01*
X105120857Y-97563045D01*
X104840876Y-97531500D01*
X104840874Y-97531500D01*
X104559126Y-97531500D01*
X104559124Y-97531500D01*
X104279144Y-97563045D01*
X104004457Y-97625741D01*
X103738543Y-97718789D01*
X103738516Y-97718800D01*
X103484675Y-97841043D01*
X103246114Y-97990942D01*
X103025839Y-98166604D01*
X102826604Y-98365839D01*
X102650942Y-98586114D01*
X102501043Y-98824675D01*
X102378800Y-99078516D01*
X102378789Y-99078543D01*
X102285741Y-99344457D01*
X102223045Y-99619144D01*
X102191500Y-99899124D01*
X100075500Y-99899124D01*
X100075500Y-83282019D01*
X100851500Y-83282019D01*
X100851500Y-83487981D01*
X100883720Y-83691408D01*
X100883721Y-83691412D01*
X100909884Y-83771934D01*
X100947366Y-83887290D01*
X101040871Y-84070803D01*
X101161932Y-84237430D01*
X101161934Y-84237432D01*
X101161936Y-84237435D01*
X101307564Y-84383063D01*
X101307567Y-84383065D01*
X101307570Y-84383068D01*
X101474197Y-84504129D01*
X101474203Y-84504132D01*
X101478083Y-84506951D01*
X101521438Y-84563174D01*
X101527602Y-84584306D01*
X101550845Y-84701155D01*
X101550846Y-84701157D01*
X101598601Y-84816448D01*
X101601517Y-84821902D01*
X101600030Y-84822696D01*
X101618820Y-84882714D01*
X101600034Y-84951180D01*
X101550044Y-84997224D01*
X101474196Y-85035871D01*
X101307567Y-85156934D01*
X101307564Y-85156936D01*
X101161936Y-85302564D01*
X101161934Y-85302567D01*
X101040873Y-85469193D01*
X100947367Y-85652708D01*
X100947364Y-85652714D01*
X100883721Y-85848587D01*
X100883720Y-85848590D01*
X100883720Y-85848592D01*
X100851500Y-86052019D01*
X100851500Y-86257981D01*
X100879839Y-86436903D01*
X100883721Y-86461412D01*
X100939424Y-86632849D01*
X100947366Y-86657290D01*
X101030759Y-86820957D01*
X101040873Y-86840806D01*
X101070802Y-86881999D01*
X101161932Y-87007430D01*
X101161934Y-87007432D01*
X101161936Y-87007435D01*
X101307564Y-87153063D01*
X101307567Y-87153065D01*
X101307570Y-87153068D01*
X101474197Y-87274129D01*
X101657710Y-87367634D01*
X101819390Y-87420167D01*
X101877995Y-87460241D01*
X101905632Y-87525637D01*
X101893525Y-87595594D01*
X101845519Y-87647900D01*
X101819390Y-87659833D01*
X101657710Y-87712366D01*
X101657708Y-87712367D01*
X101474193Y-87805873D01*
X101307567Y-87926934D01*
X101307564Y-87926936D01*
X101161936Y-88072564D01*
X101161934Y-88072567D01*
X101040873Y-88239193D01*
X100947367Y-88422708D01*
X100947364Y-88422714D01*
X100883721Y-88618587D01*
X100883720Y-88618590D01*
X100883720Y-88618592D01*
X100851500Y-88822019D01*
X100851500Y-89027981D01*
X100877300Y-89190871D01*
X100883721Y-89231412D01*
X100921424Y-89347451D01*
X100947366Y-89427290D01*
X101040871Y-89610803D01*
X101161932Y-89777430D01*
X101161934Y-89777432D01*
X101161936Y-89777435D01*
X101307564Y-89923063D01*
X101307567Y-89923065D01*
X101307570Y-89923068D01*
X101474197Y-90044129D01*
X101657710Y-90137634D01*
X101819390Y-90190167D01*
X101877995Y-90230241D01*
X101905632Y-90295637D01*
X101893525Y-90365594D01*
X101845519Y-90417900D01*
X101819390Y-90429832D01*
X101802564Y-90435300D01*
X101657710Y-90482366D01*
X101657708Y-90482367D01*
X101474193Y-90575873D01*
X101307567Y-90696934D01*
X101307564Y-90696936D01*
X101161936Y-90842564D01*
X101161934Y-90842567D01*
X101040873Y-91009193D01*
X100947367Y-91192708D01*
X100947364Y-91192714D01*
X100883721Y-91388587D01*
X100883720Y-91388590D01*
X100883720Y-91388592D01*
X100851500Y-91592019D01*
X100851500Y-91797981D01*
X100877368Y-91961301D01*
X100883721Y-92001412D01*
X100893246Y-92030728D01*
X100947366Y-92197290D01*
X101026004Y-92351625D01*
X101040873Y-92380806D01*
X101050789Y-92394454D01*
X101161932Y-92547430D01*
X101161934Y-92547432D01*
X101161936Y-92547435D01*
X101307564Y-92693063D01*
X101307567Y-92693065D01*
X101307570Y-92693068D01*
X101474197Y-92814129D01*
X101657710Y-92907634D01*
X101853592Y-92971280D01*
X102057019Y-93003500D01*
X102057022Y-93003500D01*
X102262978Y-93003500D01*
X102262981Y-93003500D01*
X102466408Y-92971280D01*
X102662290Y-92907634D01*
X102845803Y-92814129D01*
X103012430Y-92693068D01*
X103158068Y-92547430D01*
X103279129Y-92380803D01*
X103372634Y-92197290D01*
X103436280Y-92001408D01*
X103468500Y-91797981D01*
X103468500Y-91592019D01*
X103436280Y-91388592D01*
X103372634Y-91192710D01*
X103279129Y-91009197D01*
X103158068Y-90842570D01*
X103158065Y-90842567D01*
X103158063Y-90842564D01*
X103012435Y-90696936D01*
X103012432Y-90696934D01*
X103012430Y-90696932D01*
X102845803Y-90575871D01*
X102662290Y-90482366D01*
X102662287Y-90482365D01*
X102662285Y-90482364D01*
X102500610Y-90429833D01*
X102442004Y-90389759D01*
X102414367Y-90324363D01*
X102426474Y-90254406D01*
X102474480Y-90202100D01*
X102500610Y-90190167D01*
X102662290Y-90137634D01*
X102845803Y-90044129D01*
X103012430Y-89923068D01*
X103158068Y-89777430D01*
X103279129Y-89610803D01*
X103372634Y-89427290D01*
X103436280Y-89231408D01*
X103468500Y-89027981D01*
X103468500Y-88822019D01*
X103436280Y-88618592D01*
X103372634Y-88422710D01*
X103279129Y-88239197D01*
X103158068Y-88072570D01*
X103158065Y-88072567D01*
X103158063Y-88072564D01*
X103012435Y-87926936D01*
X103012432Y-87926934D01*
X103012430Y-87926932D01*
X102845803Y-87805871D01*
X102662290Y-87712366D01*
X102662287Y-87712365D01*
X102662285Y-87712364D01*
X102500610Y-87659833D01*
X102442004Y-87619759D01*
X102414367Y-87554363D01*
X102426474Y-87484406D01*
X102474480Y-87432100D01*
X102500610Y-87420167D01*
X102662290Y-87367634D01*
X102845803Y-87274129D01*
X103012430Y-87153068D01*
X103158068Y-87007430D01*
X103279129Y-86840803D01*
X103304832Y-86790357D01*
X103353579Y-86738744D01*
X103422494Y-86721678D01*
X103489696Y-86744579D01*
X103506193Y-86758467D01*
X103566558Y-86818832D01*
X103654796Y-86907070D01*
X103682645Y-86925678D01*
X103719289Y-86950163D01*
X103764817Y-87004640D01*
X103773665Y-87075083D01*
X103769120Y-87093864D01*
X103723721Y-87233587D01*
X103723720Y-87233590D01*
X103723720Y-87233592D01*
X103691500Y-87437019D01*
X103691500Y-87642981D01*
X103723720Y-87846408D01*
X103723721Y-87846412D01*
X103749884Y-87926934D01*
X103787366Y-88042290D01*
X103880871Y-88225803D01*
X104001932Y-88392430D01*
X104001934Y-88392432D01*
X104001936Y-88392435D01*
X104147564Y-88538063D01*
X104147567Y-88538065D01*
X104147570Y-88538068D01*
X104314197Y-88659129D01*
X104497710Y-88752634D01*
X104644725Y-88800402D01*
X104659390Y-88805167D01*
X104717995Y-88845241D01*
X104745632Y-88910637D01*
X104733525Y-88980594D01*
X104685519Y-89032900D01*
X104659390Y-89044833D01*
X104497710Y-89097366D01*
X104497708Y-89097367D01*
X104314193Y-89190873D01*
X104147567Y-89311934D01*
X104147564Y-89311936D01*
X104001936Y-89457564D01*
X104001934Y-89457567D01*
X103880873Y-89624193D01*
X103787367Y-89807708D01*
X103787364Y-89807714D01*
X103723721Y-90003587D01*
X103723720Y-90003590D01*
X103723720Y-90003592D01*
X103691500Y-90207019D01*
X103691500Y-90412981D01*
X103716336Y-90569786D01*
X103723721Y-90616412D01*
X103783084Y-90799113D01*
X103787366Y-90812290D01*
X103880871Y-90995803D01*
X104001932Y-91162430D01*
X104001934Y-91162432D01*
X104001936Y-91162435D01*
X104147564Y-91308063D01*
X104147567Y-91308065D01*
X104147570Y-91308068D01*
X104314197Y-91429129D01*
X104497710Y-91522634D01*
X104644597Y-91570360D01*
X104660196Y-91575429D01*
X104718802Y-91615503D01*
X104746439Y-91680899D01*
X104734332Y-91750856D01*
X104686326Y-91803162D01*
X104660197Y-91815095D01*
X104497903Y-91867828D01*
X104497900Y-91867829D01*
X104314452Y-91961301D01*
X104271625Y-91992416D01*
X104875051Y-92595842D01*
X104807007Y-92614075D01*
X104692993Y-92679901D01*
X104599901Y-92772993D01*
X104534075Y-92887007D01*
X104515842Y-92955051D01*
X103912416Y-92351625D01*
X103881301Y-92394452D01*
X103787829Y-92577900D01*
X103787826Y-92577906D01*
X103724208Y-92773703D01*
X103692000Y-92977061D01*
X103692000Y-93182938D01*
X103724208Y-93386296D01*
X103787826Y-93582093D01*
X103787829Y-93582099D01*
X103881297Y-93765540D01*
X103881298Y-93765541D01*
X103912416Y-93808372D01*
X104515841Y-93204947D01*
X104534075Y-93272993D01*
X104599901Y-93387007D01*
X104692993Y-93480099D01*
X104807007Y-93545925D01*
X104875051Y-93564157D01*
X104271626Y-94167582D01*
X104271626Y-94167583D01*
X104314454Y-94198699D01*
X104497900Y-94292170D01*
X104497906Y-94292173D01*
X104693705Y-94355791D01*
X104693701Y-94355791D01*
X104897061Y-94388000D01*
X105102939Y-94388000D01*
X105306296Y-94355791D01*
X105502093Y-94292173D01*
X105502099Y-94292170D01*
X105685541Y-94198701D01*
X105728372Y-94167582D01*
X105728372Y-94167581D01*
X105124948Y-93564157D01*
X105192993Y-93545925D01*
X105307007Y-93480099D01*
X105400099Y-93387007D01*
X105465925Y-93272993D01*
X105484157Y-93204948D01*
X106087581Y-93808372D01*
X106087582Y-93808372D01*
X106118701Y-93765541D01*
X106212170Y-93582099D01*
X106212173Y-93582093D01*
X106275791Y-93386296D01*
X106308000Y-93182938D01*
X106308000Y-92977061D01*
X106275791Y-92773703D01*
X106212173Y-92577906D01*
X106212170Y-92577900D01*
X106118699Y-92394454D01*
X106087583Y-92351626D01*
X106087582Y-92351626D01*
X105484157Y-92955051D01*
X105465925Y-92887007D01*
X105400099Y-92772993D01*
X105307007Y-92679901D01*
X105192993Y-92614075D01*
X105124947Y-92595841D01*
X105728372Y-91992416D01*
X105685541Y-91961298D01*
X105685540Y-91961297D01*
X105502099Y-91867829D01*
X105502093Y-91867826D01*
X105339803Y-91815095D01*
X105281197Y-91775021D01*
X105253560Y-91709625D01*
X105265667Y-91639668D01*
X105313673Y-91587362D01*
X105339800Y-91575430D01*
X105502290Y-91522634D01*
X105685803Y-91429129D01*
X105852430Y-91308068D01*
X105998068Y-91162430D01*
X106119129Y-90995803D01*
X106212634Y-90812290D01*
X106276280Y-90616408D01*
X106308500Y-90412981D01*
X106308500Y-90207019D01*
X106276280Y-90003592D01*
X106212634Y-89807710D01*
X106119129Y-89624197D01*
X105998068Y-89457570D01*
X105998065Y-89457567D01*
X105998063Y-89457564D01*
X105852435Y-89311936D01*
X105852432Y-89311934D01*
X105852430Y-89311932D01*
X105685803Y-89190871D01*
X105502290Y-89097366D01*
X105502287Y-89097365D01*
X105502285Y-89097364D01*
X105340610Y-89044833D01*
X105282004Y-89004759D01*
X105254367Y-88939363D01*
X105266474Y-88869406D01*
X105314480Y-88817100D01*
X105340610Y-88805167D01*
X105355275Y-88800402D01*
X105502290Y-88752634D01*
X105685803Y-88659129D01*
X105852430Y-88538068D01*
X105998068Y-88392430D01*
X106119129Y-88225803D01*
X106212634Y-88042290D01*
X106276280Y-87846408D01*
X106308500Y-87642981D01*
X106308500Y-87437019D01*
X106276280Y-87233592D01*
X106269731Y-87213435D01*
X106267704Y-87142467D01*
X106304366Y-87081669D01*
X106368079Y-87050344D01*
X106389564Y-87048499D01*
X111239403Y-87048499D01*
X111307524Y-87068501D01*
X111328498Y-87085404D01*
X116735165Y-92492071D01*
X116838923Y-92561400D01*
X116954213Y-92609155D01*
X117076604Y-92633500D01*
X117201392Y-92633500D01*
X118615500Y-92633500D01*
X118683621Y-92653502D01*
X118730114Y-92707158D01*
X118741500Y-92759500D01*
X118741500Y-92798649D01*
X118748009Y-92859196D01*
X118748011Y-92859204D01*
X118799110Y-92996202D01*
X118799112Y-92996207D01*
X118886738Y-93113261D01*
X119003792Y-93200887D01*
X119003794Y-93200888D01*
X119003796Y-93200889D01*
X119062875Y-93222924D01*
X119140795Y-93251988D01*
X119140803Y-93251990D01*
X119201350Y-93258499D01*
X119201355Y-93258499D01*
X119201362Y-93258500D01*
X119201368Y-93258500D01*
X120798632Y-93258500D01*
X120798638Y-93258500D01*
X120798645Y-93258499D01*
X120798649Y-93258499D01*
X120859196Y-93251990D01*
X120859199Y-93251989D01*
X120859201Y-93251989D01*
X120996204Y-93200889D01*
X121113261Y-93113261D01*
X121200889Y-92996204D01*
X121251989Y-92859201D01*
X121258500Y-92798638D01*
X121258500Y-91201362D01*
X121258499Y-91201350D01*
X121251990Y-91140803D01*
X121251988Y-91140795D01*
X121200889Y-91003797D01*
X121200887Y-91003792D01*
X121113261Y-90886738D01*
X120996207Y-90799112D01*
X120996202Y-90799110D01*
X120859204Y-90748011D01*
X120859196Y-90748009D01*
X120798649Y-90741500D01*
X120798638Y-90741500D01*
X120765043Y-90741500D01*
X120696922Y-90721498D01*
X120650429Y-90667842D01*
X120640325Y-90597568D01*
X120669819Y-90532988D01*
X120690982Y-90513564D01*
X120819858Y-90419930D01*
X120959930Y-90279858D01*
X121076366Y-90119598D01*
X121166298Y-89943097D01*
X121227512Y-89754700D01*
X121258500Y-89559046D01*
X121258500Y-89360954D01*
X121227512Y-89165300D01*
X121166298Y-88976903D01*
X121076366Y-88800402D01*
X120959930Y-88640142D01*
X120959928Y-88640139D01*
X120819860Y-88500071D01*
X120659601Y-88383636D01*
X120659600Y-88383635D01*
X120659598Y-88383634D01*
X120499902Y-88302265D01*
X120448290Y-88253519D01*
X120431224Y-88184604D01*
X120454125Y-88117402D01*
X120499902Y-88077735D01*
X120659598Y-87996366D01*
X120819858Y-87879930D01*
X120959930Y-87739858D01*
X121076366Y-87579598D01*
X121166298Y-87403097D01*
X121227512Y-87214700D01*
X121258500Y-87019046D01*
X121258500Y-86820954D01*
X121227512Y-86625300D01*
X121166298Y-86436903D01*
X121076366Y-86260402D01*
X120959930Y-86100142D01*
X120959928Y-86100139D01*
X120819860Y-85960071D01*
X120659601Y-85843636D01*
X120659600Y-85843635D01*
X120659598Y-85843634D01*
X120499902Y-85762265D01*
X120448290Y-85713519D01*
X120431224Y-85644604D01*
X120454125Y-85577402D01*
X120499902Y-85537735D01*
X120659598Y-85456366D01*
X120819858Y-85339930D01*
X120959930Y-85199858D01*
X121076366Y-85039598D01*
X121166298Y-84863097D01*
X121227512Y-84674700D01*
X121258500Y-84479046D01*
X121258500Y-84280954D01*
X121227512Y-84085300D01*
X121166298Y-83896903D01*
X121076366Y-83720402D01*
X121003258Y-83619778D01*
X120959928Y-83560139D01*
X120819860Y-83420071D01*
X120659601Y-83303636D01*
X120659600Y-83303635D01*
X120659598Y-83303634D01*
X120483097Y-83213702D01*
X120294700Y-83152488D01*
X120099046Y-83121500D01*
X119900954Y-83121500D01*
X119705300Y-83152488D01*
X119705297Y-83152488D01*
X119705296Y-83152489D01*
X119516903Y-83213702D01*
X119516901Y-83213703D01*
X119340398Y-83303636D01*
X119180139Y-83420071D01*
X119040071Y-83560139D01*
X118923636Y-83720398D01*
X118833703Y-83896901D01*
X118833702Y-83896903D01*
X118772848Y-84084193D01*
X118772488Y-84085300D01*
X118741500Y-84280954D01*
X118741500Y-84479046D01*
X118772488Y-84674700D01*
X118833702Y-84863097D01*
X118921735Y-85035871D01*
X118923636Y-85039601D01*
X119040071Y-85199860D01*
X119180139Y-85339928D01*
X119180142Y-85339930D01*
X119340402Y-85456366D01*
X119500094Y-85537733D01*
X119551709Y-85586481D01*
X119568775Y-85655396D01*
X119545874Y-85722598D01*
X119500095Y-85762266D01*
X119355568Y-85835906D01*
X119340398Y-85843636D01*
X119180139Y-85960071D01*
X119040071Y-86100139D01*
X118923636Y-86260398D01*
X118833703Y-86436901D01*
X118833702Y-86436903D01*
X118777483Y-86609928D01*
X118772488Y-86625300D01*
X118741500Y-86820954D01*
X118741500Y-87019046D01*
X118772488Y-87214700D01*
X118833702Y-87403097D01*
X118923634Y-87579598D01*
X118923636Y-87579601D01*
X119040071Y-87739860D01*
X119180139Y-87879928D01*
X119244837Y-87926934D01*
X119340402Y-87996366D01*
X119500094Y-88077733D01*
X119551709Y-88126481D01*
X119568775Y-88195396D01*
X119545874Y-88262598D01*
X119500095Y-88302266D01*
X119379536Y-88363694D01*
X119340398Y-88383636D01*
X119180139Y-88500071D01*
X119040071Y-88640139D01*
X118923636Y-88800398D01*
X118923634Y-88800402D01*
X118833702Y-88976903D01*
X118772488Y-89165300D01*
X118741500Y-89360954D01*
X118741500Y-89559046D01*
X118772488Y-89754700D01*
X118833702Y-89943097D01*
X118923634Y-90119598D01*
X118923636Y-90119601D01*
X119040071Y-90279860D01*
X119180136Y-90419925D01*
X119180139Y-90419927D01*
X119180142Y-90419930D01*
X119266075Y-90482364D01*
X119309018Y-90513564D01*
X119352372Y-90569786D01*
X119358447Y-90640523D01*
X119325315Y-90703314D01*
X119263495Y-90738226D01*
X119234957Y-90741500D01*
X119201350Y-90741500D01*
X119140803Y-90748009D01*
X119140795Y-90748011D01*
X119003797Y-90799110D01*
X119003792Y-90799113D01*
X118920009Y-90861832D01*
X118853488Y-90886643D01*
X118784114Y-90871551D01*
X118733912Y-90821349D01*
X118718500Y-90760964D01*
X118718500Y-90630957D01*
X118718500Y-90630954D01*
X118687512Y-90435300D01*
X118626298Y-90246903D01*
X118536366Y-90070402D01*
X118419930Y-89910142D01*
X118419928Y-89910139D01*
X118279860Y-89770071D01*
X118119600Y-89653635D01*
X118061817Y-89624193D01*
X117959352Y-89571984D01*
X117907738Y-89523236D01*
X117890672Y-89454321D01*
X117913573Y-89387120D01*
X117959354Y-89347451D01*
X118119333Y-89265939D01*
X118119339Y-89265935D01*
X118152575Y-89241787D01*
X118152576Y-89241786D01*
X117544123Y-88633333D01*
X117633694Y-88609333D01*
X117736306Y-88550090D01*
X117820090Y-88466306D01*
X117879333Y-88363694D01*
X117903333Y-88274122D01*
X118511786Y-88882576D01*
X118511787Y-88882575D01*
X118535935Y-88849339D01*
X118535936Y-88849337D01*
X118625834Y-88672902D01*
X118687022Y-88484585D01*
X118718000Y-88289003D01*
X118718000Y-88090996D01*
X118687022Y-87895414D01*
X118625834Y-87707097D01*
X118535935Y-87530660D01*
X118511787Y-87497423D01*
X118511785Y-87497423D01*
X117903333Y-88105875D01*
X117879333Y-88016306D01*
X117820090Y-87913694D01*
X117736306Y-87829910D01*
X117633694Y-87770667D01*
X117544122Y-87746666D01*
X118152575Y-87138212D01*
X118119330Y-87114058D01*
X117959355Y-87032548D01*
X117907739Y-86983800D01*
X117890673Y-86914885D01*
X117913573Y-86847684D01*
X117959352Y-86808015D01*
X118119598Y-86726366D01*
X118279858Y-86609930D01*
X118419930Y-86469858D01*
X118536366Y-86309598D01*
X118626298Y-86133097D01*
X118687512Y-85944700D01*
X118718500Y-85749046D01*
X118718500Y-85550954D01*
X118687512Y-85355300D01*
X118626298Y-85166903D01*
X118536366Y-84990402D01*
X118496414Y-84935413D01*
X118419928Y-84830139D01*
X118279860Y-84690071D01*
X118119601Y-84573636D01*
X118119600Y-84573635D01*
X118119598Y-84573634D01*
X117959902Y-84492265D01*
X117908290Y-84443519D01*
X117891224Y-84374604D01*
X117914125Y-84307402D01*
X117959902Y-84267735D01*
X118119598Y-84186366D01*
X118279858Y-84069930D01*
X118419930Y-83929858D01*
X118536366Y-83769598D01*
X118626298Y-83593097D01*
X118687512Y-83404700D01*
X118718500Y-83209046D01*
X118718500Y-83010954D01*
X118687512Y-82815300D01*
X118626298Y-82626903D01*
X118536366Y-82450402D01*
X118419930Y-82290142D01*
X118419928Y-82290139D01*
X118279860Y-82150071D01*
X118119601Y-82033636D01*
X118119600Y-82033635D01*
X118119598Y-82033634D01*
X117943097Y-81943702D01*
X117754700Y-81882488D01*
X117559046Y-81851500D01*
X117360954Y-81851500D01*
X117165300Y-81882488D01*
X117165297Y-81882488D01*
X117165296Y-81882489D01*
X116976903Y-81943702D01*
X116976901Y-81943703D01*
X116800398Y-82033636D01*
X116640139Y-82150071D01*
X116500071Y-82290139D01*
X116383636Y-82450398D01*
X116293703Y-82626901D01*
X116293702Y-82626903D01*
X116250619Y-82759500D01*
X116232488Y-82815300D01*
X116201500Y-83010954D01*
X116201500Y-83209046D01*
X116232488Y-83404700D01*
X116293702Y-83593097D01*
X116383634Y-83769598D01*
X116383636Y-83769601D01*
X116500071Y-83929860D01*
X116640139Y-84069928D01*
X116659773Y-84084193D01*
X116800402Y-84186366D01*
X116960094Y-84267733D01*
X117011709Y-84316481D01*
X117028775Y-84385396D01*
X117005874Y-84452598D01*
X116960095Y-84492266D01*
X116820931Y-84563174D01*
X116800398Y-84573636D01*
X116640139Y-84690071D01*
X116500071Y-84830139D01*
X116383636Y-84990398D01*
X116293703Y-85166901D01*
X116293702Y-85166903D01*
X116237483Y-85339928D01*
X116232488Y-85355300D01*
X116201500Y-85550954D01*
X116201500Y-85749046D01*
X116232488Y-85944700D01*
X116293702Y-86133097D01*
X116383634Y-86309598D01*
X116383636Y-86309601D01*
X116500071Y-86469860D01*
X116640139Y-86609928D01*
X116793950Y-86721678D01*
X116800402Y-86726366D01*
X116863404Y-86758467D01*
X116960645Y-86808014D01*
X117012260Y-86856763D01*
X117029326Y-86925678D01*
X117006425Y-86992879D01*
X116960645Y-87032548D01*
X116800667Y-87114060D01*
X116767422Y-87138212D01*
X117375876Y-87746666D01*
X117286306Y-87770667D01*
X117183694Y-87829910D01*
X117099910Y-87913694D01*
X117040667Y-88016306D01*
X117016666Y-88105876D01*
X116408212Y-87497422D01*
X116384060Y-87530667D01*
X116384057Y-87530671D01*
X116294166Y-87707094D01*
X116232977Y-87895414D01*
X116202000Y-88090996D01*
X116202000Y-88289003D01*
X116232977Y-88484585D01*
X116294166Y-88672905D01*
X116384058Y-88849330D01*
X116408212Y-88882575D01*
X117016666Y-88274121D01*
X117040667Y-88363694D01*
X117099910Y-88466306D01*
X117183694Y-88550090D01*
X117286306Y-88609333D01*
X117375875Y-88633333D01*
X116767423Y-89241785D01*
X116767423Y-89241787D01*
X116800662Y-89265937D01*
X116960645Y-89347451D01*
X117012261Y-89396199D01*
X117029327Y-89465113D01*
X117006427Y-89532315D01*
X116960646Y-89571985D01*
X116800399Y-89653635D01*
X116640140Y-89770071D01*
X116629853Y-89780358D01*
X116567540Y-89814380D01*
X116496724Y-89809313D01*
X116451666Y-89780354D01*
X108179243Y-81507931D01*
X108179241Y-81507929D01*
X108075483Y-81438600D01*
X107960193Y-81390845D01*
X107886494Y-81376185D01*
X107837804Y-81366500D01*
X107837802Y-81366500D01*
X106434500Y-81366500D01*
X106366379Y-81346498D01*
X106319886Y-81292842D01*
X106308500Y-81240500D01*
X106308500Y-81151367D01*
X106308499Y-81151350D01*
X106301990Y-81090803D01*
X106301988Y-81090795D01*
X106250889Y-80953797D01*
X106250887Y-80953792D01*
X106163261Y-80836738D01*
X106046207Y-80749112D01*
X106046202Y-80749110D01*
X105909204Y-80698011D01*
X105909196Y-80698009D01*
X105848649Y-80691500D01*
X105848638Y-80691500D01*
X104151362Y-80691500D01*
X104151350Y-80691500D01*
X104090803Y-80698009D01*
X104090795Y-80698011D01*
X103953797Y-80749110D01*
X103953792Y-80749112D01*
X103836738Y-80836738D01*
X103749112Y-80953792D01*
X103749110Y-80953797D01*
X103698011Y-81090795D01*
X103698009Y-81090803D01*
X103691500Y-81151350D01*
X103691500Y-82848649D01*
X103698009Y-82909196D01*
X103698011Y-82909204D01*
X103749110Y-83046202D01*
X103749112Y-83046207D01*
X103836738Y-83163261D01*
X103953792Y-83250887D01*
X103953794Y-83250888D01*
X103953796Y-83250889D01*
X104012875Y-83272924D01*
X104090795Y-83301988D01*
X104090803Y-83301990D01*
X104151350Y-83308499D01*
X104151355Y-83308499D01*
X104151362Y-83308500D01*
X104151368Y-83308500D01*
X104468109Y-83308500D01*
X104536230Y-83328502D01*
X104582723Y-83382158D01*
X104592827Y-83452432D01*
X104563333Y-83517012D01*
X104507047Y-83554332D01*
X104497710Y-83557366D01*
X104497708Y-83557366D01*
X104497708Y-83557367D01*
X104314193Y-83650873D01*
X104147567Y-83771934D01*
X104147564Y-83771936D01*
X104001936Y-83917564D01*
X104001934Y-83917567D01*
X103880873Y-84084193D01*
X103787367Y-84267708D01*
X103787364Y-84267714D01*
X103723721Y-84463587D01*
X103723720Y-84463590D01*
X103723720Y-84463592D01*
X103705479Y-84578764D01*
X103691500Y-84667022D01*
X103691500Y-84847776D01*
X103671498Y-84915897D01*
X103617842Y-84962390D01*
X103547568Y-84972494D01*
X103482988Y-84943000D01*
X103476405Y-84936871D01*
X103056611Y-84517077D01*
X103022585Y-84454765D01*
X103027650Y-84383950D01*
X103056609Y-84338888D01*
X103158068Y-84237430D01*
X103279129Y-84070803D01*
X103372634Y-83887290D01*
X103436280Y-83691408D01*
X103468500Y-83487981D01*
X103468500Y-83282019D01*
X103436280Y-83078592D01*
X103372634Y-82882710D01*
X103279129Y-82699197D01*
X103158068Y-82532570D01*
X103158065Y-82532567D01*
X103158063Y-82532564D01*
X103012435Y-82386936D01*
X103012432Y-82386934D01*
X103012430Y-82386932D01*
X102845803Y-82265871D01*
X102662290Y-82172366D01*
X102662287Y-82172365D01*
X102662285Y-82172364D01*
X102466412Y-82108721D01*
X102466410Y-82108720D01*
X102466408Y-82108720D01*
X102262981Y-82076500D01*
X102057019Y-82076500D01*
X101853592Y-82108720D01*
X101853590Y-82108720D01*
X101853587Y-82108721D01*
X101657714Y-82172364D01*
X101657708Y-82172367D01*
X101474193Y-82265873D01*
X101307567Y-82386934D01*
X101307564Y-82386936D01*
X101161936Y-82532564D01*
X101161934Y-82532567D01*
X101040873Y-82699193D01*
X100947367Y-82882708D01*
X100947364Y-82882714D01*
X100883721Y-83078587D01*
X100883720Y-83078590D01*
X100883720Y-83078592D01*
X100851500Y-83282019D01*
X100075500Y-83282019D01*
X100075500Y-74899124D01*
X102191500Y-74899124D01*
X102191500Y-75180875D01*
X102223045Y-75460855D01*
X102285741Y-75735542D01*
X102378789Y-76001456D01*
X102378800Y-76001483D01*
X102501043Y-76255324D01*
X102650942Y-76493885D01*
X102826604Y-76714160D01*
X103025839Y-76913395D01*
X103246114Y-77089057D01*
X103484675Y-77238956D01*
X103484678Y-77238957D01*
X103484679Y-77238958D01*
X103738526Y-77361204D01*
X103738542Y-77361209D01*
X103738543Y-77361210D01*
X104004457Y-77454258D01*
X104004460Y-77454258D01*
X104004464Y-77454260D01*
X104279144Y-77516954D01*
X104279145Y-77516954D01*
X104279148Y-77516955D01*
X104444271Y-77535559D01*
X104559124Y-77548500D01*
X104559126Y-77548500D01*
X104840876Y-77548500D01*
X104911977Y-77540488D01*
X105120852Y-77516955D01*
X105395536Y-77454260D01*
X105661474Y-77361204D01*
X105915321Y-77238958D01*
X106153884Y-77089058D01*
X106261711Y-77003069D01*
X106374160Y-76913395D01*
X106573395Y-76714160D01*
X106749057Y-76493885D01*
X106784377Y-76437675D01*
X106898958Y-76255321D01*
X107021204Y-76001474D01*
X107114260Y-75735536D01*
X107176955Y-75460852D01*
X107208500Y-75180874D01*
X107208500Y-74899126D01*
X107201275Y-74835000D01*
X108641500Y-74835000D01*
X108641500Y-75164999D01*
X108673844Y-75493383D01*
X108738217Y-75817019D01*
X108834009Y-76132804D01*
X108834010Y-76132807D01*
X108960291Y-76437675D01*
X109115846Y-76728698D01*
X109299175Y-77003070D01*
X109508501Y-77258135D01*
X109508527Y-77258164D01*
X109741835Y-77491472D01*
X109741844Y-77491480D01*
X109741849Y-77491485D01*
X109741854Y-77491489D01*
X109741864Y-77491498D01*
X109996929Y-77700824D01*
X110121977Y-77784378D01*
X110271304Y-77884155D01*
X110562325Y-78039709D01*
X110867191Y-78165989D01*
X111182967Y-78261779D01*
X111182976Y-78261780D01*
X111182980Y-78261782D01*
X111266358Y-78278366D01*
X111506611Y-78326155D01*
X111835007Y-78358500D01*
X111835016Y-78358500D01*
X112164984Y-78358500D01*
X112164993Y-78358500D01*
X112493389Y-78326155D01*
X112767565Y-78271618D01*
X112817019Y-78261782D01*
X112817021Y-78261781D01*
X112817033Y-78261779D01*
X113132809Y-78165989D01*
X113437675Y-78039709D01*
X113728696Y-77884155D01*
X114003069Y-77700825D01*
X114258151Y-77491485D01*
X114491485Y-77258151D01*
X114700825Y-77003069D01*
X114884155Y-76728696D01*
X115039709Y-76437675D01*
X115165989Y-76132809D01*
X115261779Y-75817033D01*
X115326155Y-75493389D01*
X115358500Y-75164993D01*
X115358500Y-74835007D01*
X115326155Y-74506611D01*
X115261779Y-74182967D01*
X115165989Y-73867191D01*
X115039709Y-73562325D01*
X114884155Y-73271304D01*
X114700825Y-72996931D01*
X114700824Y-72996929D01*
X114491498Y-72741864D01*
X114491472Y-72741835D01*
X114258164Y-72508527D01*
X114258135Y-72508501D01*
X114003070Y-72299175D01*
X113728698Y-72115846D01*
X113437675Y-71960291D01*
X113132807Y-71834010D01*
X113132804Y-71834009D01*
X112923791Y-71770606D01*
X112817033Y-71738221D01*
X112817030Y-71738220D01*
X112817019Y-71738217D01*
X112572371Y-71689555D01*
X112493389Y-71673845D01*
X112493385Y-71673844D01*
X112493384Y-71673844D01*
X112164999Y-71641500D01*
X112164993Y-71641500D01*
X111835007Y-71641500D01*
X111835000Y-71641500D01*
X111506616Y-71673844D01*
X111182980Y-71738217D01*
X110867195Y-71834009D01*
X110867192Y-71834010D01*
X110562324Y-71960291D01*
X110271301Y-72115846D01*
X109996929Y-72299175D01*
X109741864Y-72508501D01*
X109741835Y-72508527D01*
X109508527Y-72741835D01*
X109508501Y-72741864D01*
X109299175Y-72996929D01*
X109115846Y-73271301D01*
X108960291Y-73562324D01*
X108834010Y-73867192D01*
X108834009Y-73867195D01*
X108738217Y-74182980D01*
X108673844Y-74506616D01*
X108641500Y-74835000D01*
X107201275Y-74835000D01*
X107176955Y-74619148D01*
X107114260Y-74344464D01*
X107021204Y-74078526D01*
X106898958Y-73824679D01*
X106898957Y-73824678D01*
X106898956Y-73824675D01*
X106749057Y-73586114D01*
X106573395Y-73365839D01*
X106374160Y-73166604D01*
X106153885Y-72990942D01*
X105915324Y-72841043D01*
X105661483Y-72718800D01*
X105661478Y-72718798D01*
X105661474Y-72718796D01*
X105661468Y-72718793D01*
X105661456Y-72718789D01*
X105395542Y-72625741D01*
X105120854Y-72563045D01*
X105120857Y-72563045D01*
X104840876Y-72531500D01*
X104840874Y-72531500D01*
X104559126Y-72531500D01*
X104559124Y-72531500D01*
X104279144Y-72563045D01*
X104004457Y-72625741D01*
X103738543Y-72718789D01*
X103738516Y-72718800D01*
X103484675Y-72841043D01*
X103246114Y-72990942D01*
X103025839Y-73166604D01*
X102826604Y-73365839D01*
X102650942Y-73586114D01*
X102501043Y-73824675D01*
X102378800Y-74078516D01*
X102378789Y-74078543D01*
X102285741Y-74344457D01*
X102223045Y-74619144D01*
X102191500Y-74899124D01*
X100075500Y-74899124D01*
X100075500Y-70201500D01*
X100095502Y-70133379D01*
X100149158Y-70086886D01*
X100201500Y-70075500D01*
X114950210Y-70075500D01*
X115008894Y-70090000D01*
G37*
G04 #@! TD.AperFunction*
M02*
