%TF.GenerationSoftware,KiCad,Pcbnew,10.0.5-unknown-202607221313~667fa36054~ubuntu25.10.1*%
%TF.CreationDate,2026-09-16T12:33:34+00:00*%
%TF.ProjectId,tester,74657374-6572-42e6-9b69-6361645f7063,v0.1*%
%TF.SameCoordinates,Original*%
%TF.FileFunction,Soldermask,Bot*%
%TF.FilePolarity,Negative*%
%FSLAX46Y46*%
G04 Gerber Fmt 4.6, Leading zero omitted, Abs format (unit mm)*
G04 Created by KiCad (PCBNEW 10.0.5-unknown-202607221313~667fa36054~ubuntu25.10.1) date 2026-09-16 12:33:34*
%MOMM*%
%LPD*%
G01*
G04 APERTURE LIST*
G04 Aperture macros list*
%AMRoundRect*
0 Rectangle with rounded corners*
0 $1 Rounding radius*
0 $2 $3 $4 $5 $6 $7 $8 $9 X,Y pos of 4 corners*
0 Add a 4 corners polygon primitive as box body*
4,1,4,$2,$3,$4,$5,$6,$7,$8,$9,$2,$3,0*
0 Add four circle primitives for the rounded corners*
1,1,$1+$1,$2,$3*
1,1,$1+$1,$4,$5*
1,1,$1+$1,$6,$7*
1,1,$1+$1,$8,$9*
0 Add four rect primitives between the rounded corners*
20,1,$1+$1,$2,$3,$4,$5,0*
20,1,$1+$1,$4,$5,$6,$7,0*
20,1,$1+$1,$6,$7,$8,$9,0*
20,1,$1+$1,$8,$9,$2,$3,0*%
G04 Aperture macros list end*
%ADD10C,5.500000*%
%ADD11RoundRect,0.250001X-0.499999X-1.249999X0.499999X-1.249999X0.499999X1.249999X-0.499999X1.249999X0*%
%ADD12R,1.500000X3.000000*%
%ADD13O,1.500000X3.000000*%
%ADD14C,3.250000*%
%ADD15R,1.500000X1.500000*%
%ADD16C,1.500000*%
%ADD17C,2.300000*%
%ADD18RoundRect,0.250000X0.550000X0.550000X-0.550000X0.550000X-0.550000X-0.550000X0.550000X-0.550000X0*%
%ADD19C,1.600000*%
%ADD20R,1.700000X1.700000*%
%ADD21C,1.700000*%
%ADD22C,2.000000*%
%ADD23R,1.600000X1.600000*%
%ADD24C,4.000000*%
%ADD25O,0.900000X1.600000*%
%ADD26C,2.374900*%
%ADD27C,0.990600*%
G04 APERTURE END LIST*
D10*
%TO.C,H304*%
X123000000Y-82920000D03*
%TD*%
D11*
%TO.C,J201*%
X222000000Y-134500000D03*
D12*
X222000000Y-139500000D03*
D13*
X227000000Y-134500000D03*
X227000000Y-139500000D03*
%TD*%
D14*
%TO.C,J103*%
X254085000Y-91350000D03*
X254085000Y-78650000D03*
D15*
X256625000Y-88560000D03*
D16*
X258405000Y-87544000D03*
X256625000Y-86528000D03*
X258405000Y-85512000D03*
X256625000Y-84496000D03*
X258405000Y-83480000D03*
X256625000Y-82464000D03*
X258405000Y-81448000D03*
D17*
X257515000Y-93130000D03*
X257515000Y-76870000D03*
%TD*%
D10*
%TO.C,H301*%
X123000000Y-33420000D03*
%TD*%
D18*
%TO.C,C212*%
X176884287Y-95750000D03*
D19*
X173384287Y-95750000D03*
%TD*%
D20*
%TO.C,J307*%
X216000000Y-54360000D03*
D21*
X216000000Y-56900000D03*
X216000000Y-59440000D03*
X216000000Y-61980000D03*
%TD*%
D20*
%TO.C,J306*%
X122000000Y-41660000D03*
D21*
X122000000Y-44200000D03*
X122000000Y-46740000D03*
X122000000Y-49280000D03*
X122000000Y-51820000D03*
X122000000Y-54360000D03*
X122000000Y-56900000D03*
X122000000Y-59440000D03*
X122000000Y-61980000D03*
X122000000Y-64520000D03*
X122000000Y-67060000D03*
X122000000Y-69600000D03*
X122000000Y-72140000D03*
X122000000Y-74680000D03*
%TD*%
D10*
%TO.C,H302*%
X215000000Y-33420000D03*
%TD*%
D22*
%TO.C,SW201*%
X225000000Y-95000000D03*
X225000000Y-88500000D03*
X229500000Y-95000000D03*
X229500000Y-88500000D03*
%TD*%
D23*
%TO.C,J102*%
X256324669Y-115460000D03*
D19*
X256324669Y-118230000D03*
X256324669Y-121000000D03*
X256324669Y-123770000D03*
X256324669Y-126540000D03*
X259164669Y-116845000D03*
X259164669Y-119615000D03*
X259164669Y-122385000D03*
X259164669Y-125155000D03*
D24*
X257744669Y-133500000D03*
X257744669Y-108500000D03*
%TD*%
D25*
%TO.C,J401*%
X243250000Y-26440000D03*
X236650000Y-26440000D03*
%TD*%
D10*
%TO.C,H303*%
X215000000Y-82920000D03*
%TD*%
D23*
%TO.C,J101*%
X256080000Y-54540000D03*
D19*
X256080000Y-51770000D03*
X256080000Y-49000000D03*
X256080000Y-46230000D03*
X256080000Y-43460000D03*
X258920000Y-53155000D03*
X258920000Y-50385000D03*
X258920000Y-47615000D03*
X258920000Y-44845000D03*
D24*
X257500000Y-61500000D03*
X257500000Y-36500000D03*
%TD*%
D26*
%TO.C,J202*%
X212460000Y-98790000D03*
D27*
X215000000Y-98790000D03*
D26*
X217540000Y-98790000D03*
X212460000Y-95615000D03*
X217540000Y-95615000D03*
D27*
X213984000Y-93710000D03*
X216016000Y-93710000D03*
%TD*%
M02*
