%TF.GenerationSoftware,KiCad,Pcbnew,10.0.5-unknown-202607221313~667fa36054~ubuntu25.10.1*%
%TF.CreationDate,2026-09-15T17:02:58+00:00*%
%TF.ProjectId,tester,74657374-6572-42e6-9b69-6361645f7063,v0.1*%
%TF.SameCoordinates,Original*%
%TF.FileFunction,Soldermask,Top*%
%TF.FilePolarity,Negative*%
%FSLAX46Y46*%
G04 Gerber Fmt 4.6, Leading zero omitted, Abs format (unit mm)*
G04 Created by KiCad (PCBNEW 10.0.5-unknown-202607221313~667fa36054~ubuntu25.10.1) date 2026-09-15 17:02:58*
%MOMM*%
%LPD*%
G01*
G04 APERTURE LIST*
G04 Aperture macros list*
%AMRoundRect*
0 Rectangle with rounded corners*
0 $1 Rounding radius*
0 $2 $3 $4 $5 $6 $7 $8 $9 X,Y pos of 4 corners*
0 Add a 4 corners polygon primitive as box body*
4,1,4,$2,$3,$4,$5,$6,$7,$8,$9,$2,$3,0*
0 Add four circle primitives for the rounded corners*
1,1,$1+$1,$2,$3*
1,1,$1+$1,$4,$5*
1,1,$1+$1,$6,$7*
1,1,$1+$1,$8,$9*
0 Add four rect primitives between the rounded corners*
20,1,$1+$1,$2,$3,$4,$5,0*
20,1,$1+$1,$4,$5,$6,$7,0*
20,1,$1+$1,$6,$7,$8,$9,0*
20,1,$1+$1,$8,$9,$2,$3,0*%
G04 Aperture macros list end*
%ADD10RoundRect,0.140000X-0.170000X0.140000X-0.170000X-0.140000X0.170000X-0.140000X0.170000X0.140000X0*%
%ADD11C,5.500000*%
%ADD12RoundRect,0.135000X-0.135000X-0.185000X0.135000X-0.185000X0.135000X0.185000X-0.135000X0.185000X0*%
%ADD13RoundRect,0.218750X0.218750X0.256250X-0.218750X0.256250X-0.218750X-0.256250X0.218750X-0.256250X0*%
%ADD14RoundRect,0.140000X0.170000X-0.140000X0.170000X0.140000X-0.170000X0.140000X-0.170000X-0.140000X0*%
%ADD15RoundRect,0.150000X0.150000X-0.512500X0.150000X0.512500X-0.150000X0.512500X-0.150000X-0.512500X0*%
%ADD16RoundRect,0.135000X0.185000X-0.135000X0.185000X0.135000X-0.185000X0.135000X-0.185000X-0.135000X0*%
%ADD17R,1.000000X0.750000*%
%ADD18RoundRect,0.135000X0.135000X0.185000X-0.135000X0.185000X-0.135000X-0.185000X0.135000X-0.185000X0*%
%ADD19RoundRect,0.250001X-0.499999X-1.249999X0.499999X-1.249999X0.499999X1.249999X-0.499999X1.249999X0*%
%ADD20R,1.500000X3.000000*%
%ADD21O,1.500000X3.000000*%
%ADD22C,3.250000*%
%ADD23R,1.500000X1.500000*%
%ADD24C,1.500000*%
%ADD25C,2.300000*%
%ADD26RoundRect,0.140000X0.140000X0.170000X-0.140000X0.170000X-0.140000X-0.170000X0.140000X-0.170000X0*%
%ADD27RoundRect,0.250000X0.550000X0.550000X-0.550000X0.550000X-0.550000X-0.550000X0.550000X-0.550000X0*%
%ADD28C,1.600000*%
%ADD29R,1.700000X1.700000*%
%ADD30C,1.700000*%
%ADD31R,1.000000X1.500000*%
%ADD32RoundRect,0.250000X-0.250000X-0.475000X0.250000X-0.475000X0.250000X0.475000X-0.250000X0.475000X0*%
%ADD33RoundRect,0.140000X-0.140000X-0.170000X0.140000X-0.170000X0.140000X0.170000X-0.140000X0.170000X0*%
%ADD34RoundRect,0.150000X-0.587500X-0.150000X0.587500X-0.150000X0.587500X0.150000X-0.587500X0.150000X0*%
%ADD35R,1.000000X1.800000*%
%ADD36RoundRect,0.225000X-0.225000X-0.250000X0.225000X-0.250000X0.225000X0.250000X-0.225000X0.250000X0*%
%ADD37RoundRect,0.218750X-0.218750X-0.256250X0.218750X-0.256250X0.218750X0.256250X-0.218750X0.256250X0*%
%ADD38RoundRect,0.135000X-0.185000X0.135000X-0.185000X-0.135000X0.185000X-0.135000X0.185000X0.135000X0*%
%ADD39RoundRect,0.218750X0.256250X-0.218750X0.256250X0.218750X-0.256250X0.218750X-0.256250X-0.218750X0*%
%ADD40RoundRect,0.100000X-0.637500X-0.100000X0.637500X-0.100000X0.637500X0.100000X-0.637500X0.100000X0*%
%ADD41C,2.000000*%
%ADD42RoundRect,0.225000X0.225000X0.250000X-0.225000X0.250000X-0.225000X-0.250000X0.225000X-0.250000X0*%
%ADD43RoundRect,0.250000X0.312500X0.625000X-0.312500X0.625000X-0.312500X-0.625000X0.312500X-0.625000X0*%
%ADD44RoundRect,0.137500X0.137500X-0.612500X0.137500X0.612500X-0.137500X0.612500X-0.137500X-0.612500X0*%
%ADD45RoundRect,0.150000X0.150000X-0.825000X0.150000X0.825000X-0.150000X0.825000X-0.150000X-0.825000X0*%
%ADD46R,1.600000X1.600000*%
%ADD47C,4.000000*%
%ADD48RoundRect,0.375000X0.625000X0.375000X-0.625000X0.375000X-0.625000X-0.375000X0.625000X-0.375000X0*%
%ADD49RoundRect,0.500000X0.500000X1.400000X-0.500000X1.400000X-0.500000X-1.400000X0.500000X-1.400000X0*%
%ADD50RoundRect,0.218750X-0.256250X0.218750X-0.256250X-0.218750X0.256250X-0.218750X0.256250X0.218750X0*%
%ADD51RoundRect,0.100000X0.100000X0.575000X-0.100000X0.575000X-0.100000X-0.575000X0.100000X-0.575000X0*%
%ADD52O,0.900000X1.600000*%
%ADD53RoundRect,0.250000X0.550000X0.450000X-0.550000X0.450000X-0.550000X-0.450000X0.550000X-0.450000X0*%
%ADD54RoundRect,0.250000X0.700000X0.700000X-0.700000X0.700000X-0.700000X-0.700000X0.700000X-0.700000X0*%
%ADD55RoundRect,0.250000X0.475000X-0.250000X0.475000X0.250000X-0.475000X0.250000X-0.475000X-0.250000X0*%
%ADD56RoundRect,0.075000X-0.662500X-0.075000X0.662500X-0.075000X0.662500X0.075000X-0.662500X0.075000X0*%
%ADD57RoundRect,0.075000X-0.075000X-0.662500X0.075000X-0.662500X0.075000X0.662500X-0.075000X0.662500X0*%
%ADD58RoundRect,0.250000X0.950000X-0.750000X0.950000X0.750000X-0.950000X0.750000X-0.950000X-0.750000X0*%
%ADD59RoundRect,0.100000X-0.100000X0.637500X-0.100000X-0.637500X0.100000X-0.637500X0.100000X0.637500X0*%
%ADD60RoundRect,0.225000X-0.225000X-0.375000X0.225000X-0.375000X0.225000X0.375000X-0.225000X0.375000X0*%
%ADD61RoundRect,0.218750X-0.381250X0.218750X-0.381250X-0.218750X0.381250X-0.218750X0.381250X0.218750X0*%
%ADD62C,2.374900*%
%ADD63C,0.990600*%
%ADD64C,0.787400*%
G04 APERTURE END LIST*
%TO.C,JP203*%
G36*
X194100000Y-117750000D02*
G01*
X194400000Y-117750000D01*
X194400000Y-119250000D01*
X194100000Y-119250000D01*
X194100000Y-117750000D01*
G37*
%TO.C,JP202*%
G36*
X180981636Y-92500000D02*
G01*
X182581636Y-92500000D01*
X182581636Y-94000000D01*
X180981636Y-94000000D01*
X180981636Y-92500000D01*
G37*
%TO.C,JP201*%
G36*
X198350000Y-91000000D02*
G01*
X198650000Y-91000000D01*
X198650000Y-92500000D01*
X198350000Y-92500000D01*
X198350000Y-91000000D01*
G37*
%TD*%
D10*
%TO.C,C207*%
X187000000Y-99020000D03*
X187000000Y-99980000D03*
%TD*%
D11*
%TO.C,H304*%
X123000000Y-82920000D03*
%TD*%
D12*
%TO.C,R118*%
X233990000Y-83500000D03*
X235010000Y-83500000D03*
%TD*%
D13*
%TO.C,D127*%
X238287500Y-74500000D03*
X236712500Y-74500000D03*
%TD*%
D14*
%TO.C,C302*%
X135750000Y-115480000D03*
X135750000Y-114520000D03*
%TD*%
D12*
%TO.C,R102*%
X233990000Y-55000000D03*
X235010000Y-55000000D03*
%TD*%
D13*
%TO.C,D114*%
X238287500Y-46000000D03*
X236712500Y-46000000D03*
%TD*%
D15*
%TO.C,U402*%
X244300000Y-34387500D03*
X246200000Y-34387500D03*
X245250000Y-32112500D03*
%TD*%
D13*
%TO.C,D129*%
X244927500Y-44500000D03*
X243352500Y-44500000D03*
%TD*%
D16*
%TO.C,R206*%
X202770000Y-141462500D03*
X202770000Y-140442500D03*
%TD*%
D17*
%TO.C,SW302*%
X137000000Y-113125000D03*
X143000000Y-113125000D03*
X137000000Y-116875000D03*
X143000000Y-116875000D03*
%TD*%
D12*
%TO.C,R109*%
X233990000Y-121000000D03*
X235010000Y-121000000D03*
%TD*%
D18*
%TO.C,R108*%
X233760000Y-105000000D03*
X232740000Y-105000000D03*
%TD*%
D12*
%TO.C,R130*%
X253132627Y-98790930D03*
X254152627Y-98790930D03*
%TD*%
D13*
%TO.C,D117*%
X238287500Y-43000000D03*
X236712500Y-43000000D03*
%TD*%
D19*
%TO.C,J201*%
X222000000Y-134500000D03*
D20*
X222000000Y-139500000D03*
D21*
X227000000Y-134500000D03*
X227000000Y-139500000D03*
%TD*%
D10*
%TO.C,C211*%
X194000000Y-92020000D03*
X194000000Y-92980000D03*
%TD*%
D12*
%TO.C,R124*%
X233990000Y-77500000D03*
X235010000Y-77500000D03*
%TD*%
D22*
%TO.C,J103*%
X254085000Y-91350000D03*
X254085000Y-78650000D03*
D23*
X256625000Y-88560000D03*
D24*
X258405000Y-87544000D03*
X256625000Y-86528000D03*
X258405000Y-85512000D03*
X256625000Y-84496000D03*
X258405000Y-83480000D03*
X256625000Y-82464000D03*
X258405000Y-81448000D03*
D25*
X257515000Y-93130000D03*
X257515000Y-76870000D03*
%TD*%
D10*
%TO.C,C214*%
X206000000Y-97270000D03*
X206000000Y-98230000D03*
%TD*%
D12*
%TO.C,R123*%
X240630000Y-50500000D03*
X241650000Y-50500000D03*
%TD*%
D26*
%TO.C,C216*%
X196980000Y-108300000D03*
X196020000Y-108300000D03*
%TD*%
D11*
%TO.C,H301*%
X123000000Y-33420000D03*
%TD*%
D13*
%TO.C,D122*%
X244927500Y-119500000D03*
X243352500Y-119500000D03*
%TD*%
D12*
%TO.C,R116*%
X233990000Y-127000000D03*
X235010000Y-127000000D03*
%TD*%
D27*
%TO.C,C212*%
X176884287Y-95750000D03*
D28*
X173384287Y-95750000D03*
%TD*%
D13*
%TO.C,D121*%
X238287500Y-80500000D03*
X236712500Y-80500000D03*
%TD*%
D29*
%TO.C,J307*%
X216000000Y-54360000D03*
D30*
X216000000Y-56900000D03*
X216000000Y-59440000D03*
X216000000Y-61980000D03*
%TD*%
D13*
%TO.C,D131*%
X257787500Y-139500000D03*
X256212500Y-139500000D03*
%TD*%
D18*
%TO.C,R201*%
X199010000Y-89750000D03*
X197990000Y-89750000D03*
%TD*%
%TO.C,R112*%
X233760000Y-101985831D03*
X232740000Y-101985831D03*
%TD*%
D13*
%TO.C,D111*%
X238287500Y-89500000D03*
X236712500Y-89500000D03*
%TD*%
%TO.C,D128*%
X244927500Y-125500000D03*
X243352500Y-125500000D03*
%TD*%
%TO.C,D110*%
X238287500Y-49000000D03*
X236712500Y-49000000D03*
%TD*%
D12*
%TO.C,R107*%
X233990000Y-92500000D03*
X235010000Y-92500000D03*
%TD*%
D31*
%TO.C,JP203*%
X193600000Y-118500000D03*
X194900000Y-118500000D03*
%TD*%
D29*
%TO.C,J306*%
X122000000Y-41660000D03*
D30*
X122000000Y-44200000D03*
X122000000Y-46740000D03*
X122000000Y-49280000D03*
X122000000Y-51820000D03*
X122000000Y-54360000D03*
X122000000Y-56900000D03*
X122000000Y-59440000D03*
X122000000Y-61980000D03*
X122000000Y-64520000D03*
X122000000Y-67060000D03*
X122000000Y-69600000D03*
X122000000Y-72140000D03*
X122000000Y-74680000D03*
%TD*%
D32*
%TO.C,C201*%
X214450000Y-138132500D03*
X216350000Y-138132500D03*
%TD*%
D11*
%TO.C,H302*%
X215000000Y-33420000D03*
%TD*%
D12*
%TO.C,R111*%
X233990000Y-89500000D03*
X235010000Y-89500000D03*
%TD*%
D33*
%TO.C,C213*%
X197250000Y-93750000D03*
X198210000Y-93750000D03*
%TD*%
D13*
%TO.C,D125*%
X244927500Y-122500000D03*
X243352500Y-122500000D03*
%TD*%
D12*
%TO.C,R122*%
X240630000Y-119500000D03*
X241650000Y-119500000D03*
%TD*%
D17*
%TO.C,SW305*%
X147000000Y-113125000D03*
X153000000Y-113125000D03*
X147000000Y-116875000D03*
X153000000Y-116875000D03*
%TD*%
D16*
%TO.C,R133*%
X210200000Y-84310000D03*
X210200000Y-83290000D03*
%TD*%
D13*
%TO.C,D109*%
X238287500Y-121000000D03*
X236712500Y-121000000D03*
%TD*%
D34*
%TO.C,Q201*%
X214462500Y-133050000D03*
X214462500Y-134950000D03*
X216337500Y-134000000D03*
%TD*%
D35*
%TO.C,Y202*%
X193000000Y-94750000D03*
X195500000Y-94750000D03*
%TD*%
D10*
%TO.C,C215*%
X202800000Y-105800000D03*
X202800000Y-106760000D03*
%TD*%
D13*
%TO.C,D113*%
X238287500Y-124000000D03*
X236712500Y-124000000D03*
%TD*%
D36*
%TO.C,C401*%
X245725000Y-30250000D03*
X247275000Y-30250000D03*
%TD*%
D14*
%TO.C,C301*%
X145500000Y-105480000D03*
X145500000Y-104520000D03*
%TD*%
D13*
%TO.C,D130*%
X257430127Y-98790930D03*
X255855127Y-98790930D03*
%TD*%
D17*
%TO.C,SW301*%
X147000000Y-103125000D03*
X153000000Y-103125000D03*
X147000000Y-106875000D03*
X153000000Y-106875000D03*
%TD*%
D37*
%TO.C,D108*%
X229462500Y-105000000D03*
X231037500Y-105000000D03*
%TD*%
D12*
%TO.C,R119*%
X240630000Y-116500000D03*
X241650000Y-116500000D03*
%TD*%
D38*
%TO.C,R202*%
X192750000Y-97740000D03*
X192750000Y-98760000D03*
%TD*%
D39*
%TO.C,D202*%
X202650000Y-138920000D03*
X202650000Y-137345000D03*
%TD*%
D37*
%TO.C,D112*%
X229462500Y-101985831D03*
X231037500Y-101985831D03*
%TD*%
D40*
%TO.C,U102*%
X217137500Y-108925000D03*
X217137500Y-109575000D03*
X217137500Y-110225000D03*
X217137500Y-110875000D03*
X217137500Y-111525000D03*
X217137500Y-112175000D03*
X217137500Y-112825000D03*
X217137500Y-113475000D03*
X217137500Y-114125000D03*
X217137500Y-114775000D03*
X217137500Y-115425000D03*
X217137500Y-116075000D03*
X222862500Y-116075000D03*
X222862500Y-115425000D03*
X222862500Y-114775000D03*
X222862500Y-114125000D03*
X222862500Y-113475000D03*
X222862500Y-112825000D03*
X222862500Y-112175000D03*
X222862500Y-111525000D03*
X222862500Y-110875000D03*
X222862500Y-110225000D03*
X222862500Y-109575000D03*
X222862500Y-108925000D03*
%TD*%
D13*
%TO.C,D105*%
X238287500Y-118000000D03*
X236712500Y-118000000D03*
%TD*%
D12*
%TO.C,R129*%
X240630000Y-44500000D03*
X241650000Y-44500000D03*
%TD*%
D26*
%TO.C,C404*%
X233480000Y-32250000D03*
X232520000Y-32250000D03*
%TD*%
D41*
%TO.C,SW201*%
X225000000Y-95000000D03*
X225000000Y-88500000D03*
X229500000Y-95000000D03*
X229500000Y-88500000D03*
%TD*%
D12*
%TO.C,R126*%
X240630000Y-47500000D03*
X241650000Y-47500000D03*
%TD*%
D42*
%TO.C,C402*%
X246025000Y-37750000D03*
X244475000Y-37750000D03*
%TD*%
D43*
%TO.C,R203*%
X177656636Y-89250000D03*
X174731636Y-89250000D03*
%TD*%
D44*
%TO.C,U403*%
X233595000Y-39400000D03*
X234865000Y-39400000D03*
X236135000Y-39400000D03*
X237405000Y-39400000D03*
X237405000Y-34100000D03*
X236135000Y-34100000D03*
X234865000Y-34100000D03*
X233595000Y-34100000D03*
%TD*%
D12*
%TO.C,R125*%
X240630000Y-122500000D03*
X241650000Y-122500000D03*
%TD*%
%TO.C,R401*%
X232490000Y-30750000D03*
X233510000Y-30750000D03*
%TD*%
%TO.C,R101*%
X233990000Y-115000000D03*
X235010000Y-115000000D03*
%TD*%
%TO.C,R105*%
X233990000Y-118000000D03*
X235010000Y-118000000D03*
%TD*%
%TO.C,R113*%
X233990000Y-124000000D03*
X235010000Y-124000000D03*
%TD*%
D38*
%TO.C,R134*%
X209000000Y-81580000D03*
X209000000Y-82600000D03*
%TD*%
D18*
%TO.C,R104*%
X233758584Y-107981017D03*
X232738584Y-107981017D03*
%TD*%
D12*
%TO.C,R117*%
X233990000Y-43000000D03*
X235010000Y-43000000D03*
%TD*%
D26*
%TO.C,C403*%
X245730000Y-36250000D03*
X244770000Y-36250000D03*
%TD*%
D45*
%TO.C,U203*%
X198345000Y-113725000D03*
X199615000Y-113725000D03*
X200885000Y-113725000D03*
X202155000Y-113725000D03*
X202155000Y-108775000D03*
X200885000Y-108775000D03*
X199615000Y-108775000D03*
X198345000Y-108775000D03*
%TD*%
D15*
%TO.C,U401*%
X239250000Y-34737500D03*
X240200000Y-34737500D03*
X241150000Y-34737500D03*
X241150000Y-32462500D03*
X240200000Y-32462500D03*
X239250000Y-32462500D03*
%TD*%
D12*
%TO.C,R110*%
X233990000Y-49000000D03*
X235010000Y-49000000D03*
%TD*%
%TO.C,R121*%
X233990000Y-80500000D03*
X235010000Y-80500000D03*
%TD*%
%TO.C,R127*%
X233990000Y-74500000D03*
X235010000Y-74500000D03*
%TD*%
D13*
%TO.C,D124*%
X238287500Y-77500000D03*
X236712500Y-77500000D03*
%TD*%
D14*
%TO.C,C205*%
X206900000Y-132112500D03*
X206900000Y-131152500D03*
%TD*%
D13*
%TO.C,D126*%
X244927500Y-47500000D03*
X243352500Y-47500000D03*
%TD*%
%TO.C,D116*%
X238287500Y-127000000D03*
X236712500Y-127000000D03*
%TD*%
D45*
%TO.C,U204*%
X198345000Y-121475000D03*
X199615000Y-121475000D03*
X200885000Y-121475000D03*
X202155000Y-121475000D03*
X202155000Y-116525000D03*
X200885000Y-116525000D03*
X199615000Y-116525000D03*
X198345000Y-116525000D03*
%TD*%
D14*
%TO.C,C206*%
X187000000Y-97230000D03*
X187000000Y-96270000D03*
%TD*%
D26*
%TO.C,C208*%
X193980000Y-101000000D03*
X193020000Y-101000000D03*
%TD*%
D46*
%TO.C,J102*%
X256324669Y-115460000D03*
D28*
X256324669Y-118230000D03*
X256324669Y-121000000D03*
X256324669Y-123770000D03*
X256324669Y-126540000D03*
X259164669Y-116845000D03*
X259164669Y-119615000D03*
X259164669Y-122385000D03*
X259164669Y-125155000D03*
D47*
X257744669Y-133500000D03*
X257744669Y-108500000D03*
%TD*%
D48*
%TO.C,U201*%
X211400000Y-139632500D03*
X211400000Y-137332500D03*
D49*
X205100000Y-137332500D03*
D48*
X211400000Y-135032500D03*
%TD*%
D10*
%TO.C,C210*%
X195500000Y-92020000D03*
X195500000Y-92980000D03*
%TD*%
D14*
%TO.C,C305*%
X145500000Y-115480000D03*
X145500000Y-114520000D03*
%TD*%
D13*
%TO.C,D115*%
X238287500Y-86500000D03*
X236712500Y-86500000D03*
%TD*%
D50*
%TO.C,FB401*%
X234250000Y-26462500D03*
X234250000Y-28037500D03*
%TD*%
D37*
%TO.C,D104*%
X229461084Y-107981017D03*
X231036084Y-107981017D03*
%TD*%
D12*
%TO.C,R114*%
X233990000Y-46000000D03*
X235010000Y-46000000D03*
%TD*%
D51*
%TO.C,J401*%
X241250000Y-29115000D03*
X240600000Y-29115000D03*
X239950000Y-29115000D03*
X239300000Y-29115000D03*
X238650000Y-29115000D03*
D52*
X243250000Y-26440000D03*
D53*
X243150000Y-28890000D03*
D54*
X241150000Y-26440000D03*
X238750000Y-26440000D03*
D53*
X236750000Y-28890000D03*
D52*
X236650000Y-26440000D03*
%TD*%
D10*
%TO.C,C217*%
X181700000Y-95900000D03*
X181700000Y-96860000D03*
%TD*%
D32*
%TO.C,C202*%
X214450000Y-141632500D03*
X216350000Y-141632500D03*
%TD*%
D14*
%TO.C,C303*%
X145500000Y-125480000D03*
X145500000Y-124520000D03*
%TD*%
D12*
%TO.C,R103*%
X233990000Y-95500000D03*
X235010000Y-95500000D03*
%TD*%
D11*
%TO.C,H303*%
X215000000Y-82920000D03*
%TD*%
D17*
%TO.C,SW303*%
X147000000Y-123125000D03*
X153000000Y-123125000D03*
X147000000Y-126875000D03*
X153000000Y-126875000D03*
%TD*%
D18*
%TO.C,R204*%
X198760000Y-106750000D03*
X197740000Y-106750000D03*
%TD*%
D12*
%TO.C,R132*%
X253255720Y-67484972D03*
X254275720Y-67484972D03*
%TD*%
%TO.C,R106*%
X233990000Y-52000000D03*
X235010000Y-52000000D03*
%TD*%
D13*
%TO.C,D101*%
X238287500Y-115000000D03*
X236712500Y-115000000D03*
%TD*%
%TO.C,D119*%
X244927500Y-116500000D03*
X243352500Y-116500000D03*
%TD*%
%TO.C,D118*%
X238287500Y-83500000D03*
X236712500Y-83500000D03*
%TD*%
%TO.C,D102*%
X238287500Y-55000000D03*
X236712500Y-55000000D03*
%TD*%
D55*
%TO.C,C203*%
X205150000Y-132582500D03*
X205150000Y-130682500D03*
%TD*%
D13*
%TO.C,D107*%
X238287500Y-92500000D03*
X236712500Y-92500000D03*
%TD*%
D12*
%TO.C,R115*%
X233990000Y-86500000D03*
X235010000Y-86500000D03*
%TD*%
D26*
%TO.C,C204*%
X229730000Y-97250000D03*
X228770000Y-97250000D03*
%TD*%
D56*
%TO.C,U202*%
X195837500Y-97250000D03*
X195837500Y-97750000D03*
X195837500Y-98250000D03*
X195837500Y-98750000D03*
X195837500Y-99250000D03*
X195837500Y-99750000D03*
X195837500Y-100250000D03*
X195837500Y-100750000D03*
X195837500Y-101250000D03*
X195837500Y-101750000D03*
X195837500Y-102250000D03*
X195837500Y-102750000D03*
D57*
X197250000Y-104162500D03*
X197750000Y-104162500D03*
X198250000Y-104162500D03*
X198750000Y-104162500D03*
X199250000Y-104162500D03*
X199750000Y-104162500D03*
X200250000Y-104162500D03*
X200750000Y-104162500D03*
X201250000Y-104162500D03*
X201750000Y-104162500D03*
X202250000Y-104162500D03*
X202750000Y-104162500D03*
D56*
X204162500Y-102750000D03*
X204162500Y-102250000D03*
X204162500Y-101750000D03*
X204162500Y-101250000D03*
X204162500Y-100750000D03*
X204162500Y-100250000D03*
X204162500Y-99750000D03*
X204162500Y-99250000D03*
X204162500Y-98750000D03*
X204162500Y-98250000D03*
X204162500Y-97750000D03*
X204162500Y-97250000D03*
D57*
X202750000Y-95837500D03*
X202250000Y-95837500D03*
X201750000Y-95837500D03*
X201250000Y-95837500D03*
X200750000Y-95837500D03*
X200250000Y-95837500D03*
X199750000Y-95837500D03*
X199250000Y-95837500D03*
X198750000Y-95837500D03*
X198250000Y-95837500D03*
X197750000Y-95837500D03*
X197250000Y-95837500D03*
%TD*%
D58*
%TO.C,Y201*%
X190000000Y-100100000D03*
X190000000Y-96400000D03*
%TD*%
D12*
%TO.C,R205*%
X194980000Y-115250000D03*
X196000000Y-115250000D03*
%TD*%
D13*
%TO.C,D106*%
X238287500Y-52000000D03*
X236712500Y-52000000D03*
%TD*%
%TO.C,D123*%
X244927500Y-50500000D03*
X243352500Y-50500000D03*
%TD*%
D59*
%TO.C,U101*%
X223575000Y-67137500D03*
X222925000Y-67137500D03*
X222275000Y-67137500D03*
X221625000Y-67137500D03*
X220975000Y-67137500D03*
X220325000Y-67137500D03*
X219675000Y-67137500D03*
X219025000Y-67137500D03*
X218375000Y-67137500D03*
X217725000Y-67137500D03*
X217075000Y-67137500D03*
X216425000Y-67137500D03*
X216425000Y-72862500D03*
X217075000Y-72862500D03*
X217725000Y-72862500D03*
X218375000Y-72862500D03*
X219025000Y-72862500D03*
X219675000Y-72862500D03*
X220325000Y-72862500D03*
X220975000Y-72862500D03*
X221625000Y-72862500D03*
X222275000Y-72862500D03*
X222925000Y-72862500D03*
X223575000Y-72862500D03*
%TD*%
D13*
%TO.C,D103*%
X238287500Y-95500000D03*
X236712500Y-95500000D03*
%TD*%
D31*
%TO.C,JP202*%
X180481636Y-93250000D03*
X181781636Y-93250000D03*
X183081636Y-93250000D03*
%TD*%
D46*
%TO.C,J101*%
X256080000Y-54540000D03*
D28*
X256080000Y-51770000D03*
X256080000Y-49000000D03*
X256080000Y-46230000D03*
X256080000Y-43460000D03*
X258920000Y-53155000D03*
X258920000Y-50385000D03*
X258920000Y-47615000D03*
X258920000Y-44845000D03*
D47*
X257500000Y-61500000D03*
X257500000Y-36500000D03*
%TD*%
D60*
%TO.C,D201*%
X179731636Y-89250000D03*
X183031636Y-89250000D03*
%TD*%
D61*
%TO.C,FB201*%
X185231636Y-89187500D03*
X185231636Y-91312500D03*
%TD*%
D62*
%TO.C,J202*%
X212460000Y-98790000D03*
D63*
X215000000Y-98790000D03*
D62*
X217540000Y-98790000D03*
X212460000Y-95615000D03*
X217540000Y-95615000D03*
D63*
X213984000Y-93710000D03*
X216016000Y-93710000D03*
D64*
X215635000Y-97520000D03*
X214365000Y-97520000D03*
X215635000Y-96250000D03*
X214365000Y-96250000D03*
X215635000Y-94980000D03*
X214365000Y-94980000D03*
%TD*%
D12*
%TO.C,R131*%
X253490000Y-139500000D03*
X254510000Y-139500000D03*
%TD*%
%TO.C,R120*%
X240630000Y-53500000D03*
X241650000Y-53500000D03*
%TD*%
%TO.C,R128*%
X240630000Y-125500000D03*
X241650000Y-125500000D03*
%TD*%
D31*
%TO.C,JP201*%
X197850000Y-91750000D03*
X199150000Y-91750000D03*
%TD*%
D17*
%TO.C,SW304*%
X157000000Y-113125000D03*
X163000000Y-113125000D03*
X157000000Y-116875000D03*
X163000000Y-116875000D03*
%TD*%
D13*
%TO.C,D120*%
X244927500Y-53500000D03*
X243352500Y-53500000D03*
%TD*%
%TO.C,D132*%
X257553220Y-67484972D03*
X255978220Y-67484972D03*
%TD*%
D14*
%TO.C,C304*%
X155500000Y-115480000D03*
X155500000Y-114520000D03*
%TD*%
D37*
%TO.C,D401*%
X235712500Y-32000000D03*
X237287500Y-32000000D03*
%TD*%
M02*
