M48
; DRILL file KiCad 10.0.5-unknown-202607221313~667fa36054~ubuntu25.10.1 date 2026-09-01T15:53:59
; FORMAT={-:-/ absolute / inch / decimal}
; #@! TF.CreationDate,2026-09-01T15:53:59+00:00
; #@! TF.GenerationSoftware,Kicad,Pcbnew,10.0.5-unknown-202607221313~667fa36054~ubuntu25.10.1
; #@! TF.FileFunction,Plated,1,2,PTH
FMAT,2
INCH
; #@! TA.AperFunction,Plated,PTH,ComponentDrill
T1C0.0354
; #@! TA.AperFunction,Plated,PTH,ComponentDrill
T2C0.0394
; #@! TA.AperFunction,Plated,PTH,ComponentDrill
T3C0.0630
; #@! TA.AperFunction,Plated,PTH,ComponentDrill
T4C0.1260
%
G90
G05
T1
X4.6244Y-3.272
X4.6244Y-3.372
X4.6244Y-3.472
X4.6244Y-3.572
X4.6244Y-4.6894
X4.6244Y-4.7894
X4.6244Y-4.8894
X4.6244Y-4.9894
X4.7244Y-3.322
X4.7244Y-3.422
X4.7244Y-3.522
X4.7244Y-3.622
X4.7244Y-4.7394
X4.7244Y-4.8394
X4.7244Y-4.9394
X4.7244Y-5.0394
T2
X4.022Y-3.2797
X4.022Y-3.3888
X4.022Y-3.4978
X4.022Y-3.6069
X4.022Y-4.7002
X4.022Y-4.8093
X4.022Y-4.9183
X4.022Y-5.0274
X4.1339Y-3.2252
X4.1339Y-3.3343
X4.1339Y-3.4433
X4.1339Y-3.5524
X4.1339Y-3.6614
X4.1339Y-4.6457
X4.1339Y-4.7547
X4.1339Y-4.8638
X4.1339Y-4.9728
X4.1339Y-5.0819
T3
X5.0945Y-3.1411
X5.0945Y-3.753
X5.0945Y-4.5585
X5.0945Y-5.1703
T4
X4.122Y-2.9512
X4.122Y-3.9354
X4.122Y-4.3717
X4.122Y-5.3559
X4.4094Y-2.9528
X4.4094Y-3.937
X4.4094Y-4.3701
X4.4094Y-5.3543
M30
